<?xml version="1.0" encoding="UTF-8" standalone="no"?>
<!DOCTYPE svg PUBLIC "-//W3C//DTD SVG 1.1//EN"
 "http://www.w3.org/Graphics/SVG/1.1/DTD/svg11.dtd">
<!-- Generated by graphviz version 2.36.0 (20140111.2315)
 -->
<!-- Title: engine.actions.DeleteTypeAction.execute Pages: 1 -->
<svg width="354pt" height="136pt"
 viewBox="0.00 0.00 354.00 136.00" xmlns="http://www.w3.org/2000/svg" xmlns:xlink="http://www.w3.org/1999/xlink">
<g id="graph0" class="graph" transform="scale(1 1) rotate(0) translate(4 132)">
<title>engine.actions.DeleteTypeAction.execute</title>
<polygon fill="white" stroke="none" points="-4,4 -4,-132 350,-132 350,4 -4,4"/>
<!-- Node1 -->
<g id="node1" class="node"><title>Node1</title>
<polygon fill="#bfbfbf" stroke="black" points="0,-49 0,-79 142,-79 142,-49 0,-49"/>
<text text-anchor="start" x="8" y="-67" font-family="Helvetica,sans-Serif" font-size="10.00">engine.actions.DeleteType</text>
<text text-anchor="middle" x="71" y="-56" font-family="Helvetica,sans-Serif" font-size="10.00">Action.execute</text>
</g>
<!-- Node2 -->
<g id="node2" class="node"><title>Node2</title>
<g id="a_node2"><a xlink:href="../../df/d84/classengine_1_1level_1_1_level.html#ac927326f1a3d7e17b5d577c336a5cfc1" target="_top" xlink:title="engine.level.Level.getGame\lObjectsCollection">
<polygon fill="white" stroke="black" points="187.5,-98 187.5,-128 336.5,-128 336.5,-98 187.5,-98"/>
<text text-anchor="start" x="195.5" y="-116" font-family="Helvetica,sans-Serif" font-size="10.00">engine.level.Level.getGame</text>
<text text-anchor="middle" x="262" y="-105" font-family="Helvetica,sans-Serif" font-size="10.00">ObjectsCollection</text>
</a>
</g>
</g>
<!-- Node1&#45;&gt;Node2 -->
<g id="edge1" class="edge"><title>Node1&#45;&gt;Node2</title>
<path fill="none" stroke="midnightblue" d="M129.991,-79.0346C150.037,-84.2318 172.674,-90.1006 193.421,-95.4796"/>
<polygon fill="midnightblue" stroke="midnightblue" points="192.561,-98.8721 203.119,-97.9938 194.317,-92.0961 192.561,-98.8721"/>
</g>
<!-- Node3 -->
<g id="node3" class="node"><title>Node3</title>
<g id="a_node3"><a xlink:href="../../d4/d3b/classauthoring_1_1model_1_1collections_1_1_general_collection.html#a79482ff667a22bb0d5b702c03261fe8d" target="_top" xlink:title="authoring.model.collections.\lGeneralCollection.iterator">
<polygon fill="white" stroke="black" points="186,-49 186,-79 338,-79 338,-49 186,-49"/>
<text text-anchor="start" x="194" y="-67" font-family="Helvetica,sans-Serif" font-size="10.00">authoring.model.collections.</text>
<text text-anchor="middle" x="262" y="-56" font-family="Helvetica,sans-Serif" font-size="10.00">GeneralCollection.iterator</text>
</a>
</g>
</g>
<!-- Node1&#45;&gt;Node3 -->
<g id="edge2" class="edge"><title>Node1&#45;&gt;Node3</title>
<path fill="none" stroke="midnightblue" d="M142.108,-64C153.047,-64 164.454,-64 175.686,-64"/>
<polygon fill="midnightblue" stroke="midnightblue" points="175.933,-67.5001 185.933,-64 175.933,-60.5001 175.933,-67.5001"/>
</g>
<!-- Node4 -->
<g id="node4" class="node"><title>Node4</title>
<g id="a_node4"><a xlink:href="../../dd/d8d/classengine_1_1render_1_1_renderer.html#a980236dc1412ddf1c0623ab38392bac7" target="_top" xlink:title="engine.render.Renderer.remove\lRenderedNode">
<polygon fill="white" stroke="black" points="178.5,-0 178.5,-30 345.5,-30 345.5,-0 178.5,-0"/>
<text text-anchor="start" x="186.5" y="-18" font-family="Helvetica,sans-Serif" font-size="10.00">engine.render.Renderer.remove</text>
<text text-anchor="middle" x="262" y="-7" font-family="Helvetica,sans-Serif" font-size="10.00">RenderedNode</text>
</a>
</g>
</g>
<!-- Node1&#45;&gt;Node4 -->
<g id="edge3" class="edge"><title>Node1&#45;&gt;Node4</title>
<path fill="none" stroke="midnightblue" d="M129.991,-48.9654C150.037,-43.7682 172.674,-37.8994 193.421,-32.5204"/>
<polygon fill="midnightblue" stroke="midnightblue" points="194.317,-35.9039 203.119,-30.0062 192.561,-29.1279 194.317,-35.9039"/>
</g>
</g>
</svg>
