<?xml version="1.0" encoding="UTF-8" standalone="no"?>
<!DOCTYPE svg PUBLIC "-//W3C//DTD SVG 1.1//EN"
 "http://www.w3.org/Graphics/SVG/1.1/DTD/svg11.dtd">
<!-- Generated by graphviz version 2.36.0 (20140111.2315)
 -->
<!-- Title: engine.actions.ChangeImageIDAction Pages: 1 -->
<svg width="1246pt" height="350pt"
 viewBox="0.00 0.00 1246.00 350.00" xmlns="http://www.w3.org/2000/svg" xmlns:xlink="http://www.w3.org/1999/xlink">
<g id="graph0" class="graph" transform="scale(1 1) rotate(0) translate(4 346)">
<title>engine.actions.ChangeImageIDAction</title>
<polygon fill="white" stroke="none" points="-4,4 -4,-346 1242,-346 1242,4 -4,4"/>
<!-- Node1 -->
<g id="node1" class="node"><title>Node1</title>
<polygon fill="#bfbfbf" stroke="black" points="1082,-172 1082,-202 1238,-202 1238,-172 1082,-172"/>
<text text-anchor="start" x="1090" y="-190" font-family="Helvetica,sans-Serif" font-size="10.00">engine.actions.ChangeImage</text>
<text text-anchor="middle" x="1160" y="-179" font-family="Helvetica,sans-Serif" font-size="10.00">IDAction</text>
</g>
<!-- Node2 -->
<g id="node2" class="node"><title>Node2</title>
<g id="a_node2"><a xlink:href="../../d3/de4/classengine_1_1actions_1_1_i_d_action.html" target="_top" xlink:title="engine.actions.IDAction">
<polygon fill="white" stroke="black" points="579.5,-258.5 579.5,-277.5 708.5,-277.5 708.5,-258.5 579.5,-258.5"/>
<text text-anchor="middle" x="644" y="-265.5" font-family="Helvetica,sans-Serif" font-size="10.00">engine.actions.IDAction</text>
</a>
</g>
</g>
<!-- Node2&#45;&gt;Node1 -->
<g id="edge1" class="edge"><title>Node2&#45;&gt;Node1</title>
<path fill="none" stroke="midnightblue" d="M715.361,-256.912C811.213,-241.807 982.245,-214.854 1081.62,-199.195"/>
<polygon fill="midnightblue" stroke="midnightblue" points="714.807,-253.456 705.474,-258.47 715.897,-260.371 714.807,-253.456"/>
</g>
<!-- Node3 -->
<g id="node3" class="node"><title>Node3</title>
<g id="a_node3"><a xlink:href="../../d9/dd2/interfaceengine_1_1actions_1_1_action.html" target="_top" xlink:title="engine.actions.Action">
<polygon fill="white" stroke="black" points="265.5,-322.5 265.5,-341.5 384.5,-341.5 384.5,-322.5 265.5,-322.5"/>
<text text-anchor="middle" x="325" y="-329.5" font-family="Helvetica,sans-Serif" font-size="10.00">engine.actions.Action</text>
</a>
</g>
</g>
<!-- Node3&#45;&gt;Node2 -->
<g id="edge2" class="edge"><title>Node3&#45;&gt;Node2</title>
<path fill="none" stroke="midnightblue" d="M394.755,-329.262C438.1,-326.354 494.949,-320.359 544,-308 572.761,-300.754 604.243,-286.94 623.809,-277.599"/>
<polygon fill="midnightblue" stroke="midnightblue" points="394.361,-325.779 384.602,-329.903 394.803,-332.765 394.361,-325.779"/>
</g>
<!-- Node4 -->
<g id="node4" class="node"><title>Node4</title>
<g id="a_node4"><a xlink:href="../../d2/d15/interfaceengine_1_1actions_1_1_initializable.html" target="_top" xlink:title="engine.actions.Initializable">
<polygon fill="white" stroke="black" points="21,-296.5 21,-315.5 163,-315.5 163,-296.5 21,-296.5"/>
<text text-anchor="middle" x="92" y="-303.5" font-family="Helvetica,sans-Serif" font-size="10.00">engine.actions.Initializable</text>
</a>
</g>
</g>
<!-- Node4&#45;&gt;Node2 -->
<g id="edge4" class="edge"><title>Node4&#45;&gt;Node2</title>
<path fill="none" stroke="midnightblue" d="M173.487,-300.992C263.72,-295.297 414.389,-285.547 544,-276 555.436,-275.158 567.611,-274.213 579.369,-273.276"/>
<polygon fill="midnightblue" stroke="midnightblue" points="173.089,-297.51 163.329,-301.632 173.529,-304.496 173.089,-297.51"/>
</g>
<!-- Node4&#45;&gt;Node3 -->
<g id="edge3" class="edge"><title>Node4&#45;&gt;Node3</title>
<path fill="none" stroke="midnightblue" d="M173.361,-315.045C203.623,-318.451 237.443,-322.258 265.358,-325.4"/>
<polygon fill="midnightblue" stroke="midnightblue" points="173.577,-311.547 163.248,-313.907 172.794,-318.503 173.577,-311.547"/>
</g>
<!-- Node5 -->
<g id="node5" class="node"><title>Node5</title>
<g id="a_node5"><a xlink:href="../../d1/d32/classauthoring_1_1model_1_1collections_1_1_game_objects_collection.html" target="_top" xlink:title="authoring.model.collections.\lGameObjectsCollection">
<polygon fill="white" stroke="black" points="249,-166 249,-196 401,-196 401,-166 249,-166"/>
<text text-anchor="start" x="257" y="-184" font-family="Helvetica,sans-Serif" font-size="10.00">authoring.model.collections.</text>
<text text-anchor="middle" x="325" y="-173" font-family="Helvetica,sans-Serif" font-size="10.00">GameObjectsCollection</text>
</a>
</g>
</g>
<!-- Node5&#45;&gt;Node2 -->
<g id="edge5" class="edge"><title>Node5&#45;&gt;Node2</title>
<path fill="none" stroke="#9a32cd" stroke-dasharray="5,2" d="M411.181,-172.509C452.47,-171.369 502.071,-174.491 544,-190 583.198,-204.499 619.014,-240.782 634.675,-258.272"/>
<polygon fill="#9a32cd" stroke="#9a32cd" points="411.013,-169.013 401.147,-172.873 411.267,-176.008 411.013,-169.013"/>
<text text-anchor="middle" x="485" y="-193" font-family="Helvetica,sans-Serif" font-size="10.00"> myGameObjects</text>
</g>
<!-- Node12 -->
<g id="node12" class="node"><title>Node12</title>
<g id="a_node12"><a xlink:href="../../df/d84/classengine_1_1level_1_1_level.html" target="_top" xlink:title="engine.level.Level">
<polygon fill="white" stroke="black" points="593.5,-101.5 593.5,-120.5 694.5,-120.5 694.5,-101.5 593.5,-101.5"/>
<text text-anchor="middle" x="644" y="-108.5" font-family="Helvetica,sans-Serif" font-size="10.00">engine.level.Level</text>
</a>
</g>
</g>
<!-- Node5&#45;&gt;Node12 -->
<g id="edge18" class="edge"><title>Node5&#45;&gt;Node12</title>
<path fill="none" stroke="#9a32cd" stroke-dasharray="5,2" d="M372.074,-162.341C388.835,-156.108 408.068,-149.588 426,-145 482.523,-130.538 548.994,-121.218 593.333,-116.059"/>
<polygon fill="#9a32cd" stroke="#9a32cd" points="370.63,-159.146 362.519,-165.962 373.11,-165.691 370.63,-159.146"/>
<text text-anchor="middle" x="485" y="-159" font-family="Helvetica,sans-Serif" font-size="10.00"> myDefaultGameObjects</text>
<text text-anchor="middle" x="485" y="-148" font-family="Helvetica,sans-Serif" font-size="10.00">myWorkingGameObjects</text>
</g>
<!-- Node6 -->
<g id="node6" class="node"><title>Node6</title>
<g id="a_node6"><a xlink:href="../../d4/d3b/classauthoring_1_1model_1_1collections_1_1_general_collection.html" target="_top" xlink:title="authoring.model.collections.\lGeneralCollection\&lt; GameObject \&gt;">
<polygon fill="white" stroke="black" points="0.5,-166 0.5,-196 183.5,-196 183.5,-166 0.5,-166"/>
<text text-anchor="start" x="8.5" y="-184" font-family="Helvetica,sans-Serif" font-size="10.00">authoring.model.collections.</text>
<text text-anchor="middle" x="92" y="-173" font-family="Helvetica,sans-Serif" font-size="10.00">GeneralCollection&lt; GameObject &gt;</text>
</a>
</g>
</g>
<!-- Node6&#45;&gt;Node5 -->
<g id="edge6" class="edge"><title>Node6&#45;&gt;Node5</title>
<path fill="none" stroke="midnightblue" d="M193.843,-181C212.335,-181 231.337,-181 248.91,-181"/>
<polygon fill="midnightblue" stroke="midnightblue" points="193.634,-177.5 183.634,-181 193.634,-184.5 193.634,-177.5"/>
</g>
<!-- Node7 -->
<g id="node7" class="node"><title>Node7</title>
<polygon fill="white" stroke="#bfbfbf" points="254.5,-229 254.5,-259 395.5,-259 395.5,-229 254.5,-229"/>
<text text-anchor="start" x="262.5" y="-247" font-family="Helvetica,sans-Serif" font-size="10.00">List&lt; engine.gameObject.</text>
<text text-anchor="middle" x="325" y="-236" font-family="Helvetica,sans-Serif" font-size="10.00">Identifier &gt;</text>
</g>
<!-- Node7&#45;&gt;Node2 -->
<g id="edge7" class="edge"><title>Node7&#45;&gt;Node2</title>
<path fill="none" stroke="#9a32cd" stroke-dasharray="5,2" d="M405.736,-250.037C459.42,-254.101 529.269,-259.389 579.253,-263.174"/>
<polygon fill="#9a32cd" stroke="#9a32cd" points="405.803,-246.532 395.567,-249.267 405.274,-253.512 405.803,-246.532"/>
<text text-anchor="middle" x="485" y="-264" font-family="Helvetica,sans-Serif" font-size="10.00"> myIDs</text>
</g>
<!-- Node7&#45;&gt;Node12 -->
<g id="edge19" class="edge"><title>Node7&#45;&gt;Node12</title>
<path fill="none" stroke="#9a32cd" stroke-dasharray="5,2" d="M405.652,-229.3C466.841,-217.85 541.373,-203.49 544,-201 567.627,-178.605 538.776,-152.812 562,-130 570.45,-121.7 581.797,-116.768 593.319,-113.898"/>
<polygon fill="#9a32cd" stroke="#9a32cd" points="404.759,-225.907 395.571,-231.183 406.044,-232.788 404.759,-225.907"/>
<text text-anchor="middle" x="485" y="-240" font-family="Helvetica,sans-Serif" font-size="10.00"> myConditionIdList</text>
<text text-anchor="middle" x="485" y="-229" font-family="Helvetica,sans-Serif" font-size="10.00">myGameObjectIdList</text>
</g>
<!-- Node8 -->
<g id="node8" class="node"><title>Node8</title>
<g id="a_node8"><a xlink:href="../../dd/d8d/classengine_1_1render_1_1_renderer.html" target="_top" xlink:title="engine.render.Renderer">
<polygon fill="white" stroke="black" points="856,-101.5 856,-120.5 984,-120.5 984,-101.5 856,-101.5"/>
<text text-anchor="middle" x="920" y="-108.5" font-family="Helvetica,sans-Serif" font-size="10.00">engine.render.Renderer</text>
</a>
</g>
</g>
<!-- Node8&#45;&gt;Node1 -->
<g id="edge8" class="edge"><title>Node8&#45;&gt;Node1</title>
<path fill="none" stroke="#9a32cd" stroke-dasharray="5,2" d="M960.671,-123.668C1002.29,-136.959 1067.69,-157.841 1111.9,-171.959"/>
<polygon fill="#9a32cd" stroke="#9a32cd" points="961.734,-120.333 951.143,-120.625 959.604,-127.002 961.734,-120.333"/>
<text text-anchor="middle" x="1033" y="-159" font-family="Helvetica,sans-Serif" font-size="10.00"> myRenderer</text>
</g>
<!-- Node9 -->
<g id="node9" class="node"><title>Node9</title>
<polygon fill="white" stroke="#bfbfbf" points="562,-52 562,-82 726,-82 726,-52 562,-52"/>
<text text-anchor="start" x="570" y="-70" font-family="Helvetica,sans-Serif" font-size="10.00">Map&lt; Identifier, engine.render.</text>
<text text-anchor="middle" x="644" y="-59" font-family="Helvetica,sans-Serif" font-size="10.00">RenderedNode &gt;</text>
</g>
<!-- Node9&#45;&gt;Node8 -->
<g id="edge9" class="edge"><title>Node9&#45;&gt;Node8</title>
<path fill="none" stroke="#9a32cd" stroke-dasharray="5,2" d="M736.594,-80.1125C768.701,-84.8811 804.982,-90.4638 838,-96 848.014,-97.6791 858.704,-99.5807 868.925,-101.452"/>
<polygon fill="#9a32cd" stroke="#9a32cd" points="736.73,-76.5946 726.326,-78.5939 735.706,-83.5193 736.73,-76.5946"/>
<text text-anchor="middle" x="791" y="-99" font-family="Helvetica,sans-Serif" font-size="10.00"> myRenderedNodes</text>
</g>
<!-- Node10 -->
<g id="node10" class="node"><title>Node10</title>
<g id="a_node10"><a xlink:href="../../d5/d30/classengine_1_1render_1_1_rendered_node_factory.html" target="_top" xlink:title="engine.render.RenderedNode\lFactory">
<polygon fill="white" stroke="black" points="566,-0 566,-30 722,-30 722,-0 566,-0"/>
<text text-anchor="start" x="574" y="-18" font-family="Helvetica,sans-Serif" font-size="10.00">engine.render.RenderedNode</text>
<text text-anchor="middle" x="644" y="-7" font-family="Helvetica,sans-Serif" font-size="10.00">Factory</text>
</a>
</g>
</g>
<!-- Node10&#45;&gt;Node8 -->
<g id="edge10" class="edge"><title>Node10&#45;&gt;Node8</title>
<path fill="none" stroke="#9a32cd" stroke-dasharray="5,2" d="M726.583,-32.4818C761.507,-41.1102 802.368,-52.7519 838,-67 862.072,-76.6258 888.115,-91.6888 903.994,-101.453"/>
<polygon fill="#9a32cd" stroke="#9a32cd" points="726.968,-28.9738 716.425,-30.0151 725.317,-35.7761 726.968,-28.9738"/>
<text text-anchor="middle" x="791" y="-70" font-family="Helvetica,sans-Serif" font-size="10.00"> myFactory</text>
</g>
<!-- Node11 -->
<g id="node11" class="node"><title>Node11</title>
<g id="a_node11"><a xlink:href="../../d9/db5/classengine_1_1_file_path_utility.html" target="_top" xlink:title="engine.FilePathUtility">
<polygon fill="white" stroke="black" points="267.5,-2.5 267.5,-21.5 382.5,-21.5 382.5,-2.5 267.5,-2.5"/>
<text text-anchor="middle" x="325" y="-9.5" font-family="Helvetica,sans-Serif" font-size="10.00">engine.FilePathUtility</text>
</a>
</g>
</g>
<!-- Node11&#45;&gt;Node10 -->
<g id="edge11" class="edge"><title>Node11&#45;&gt;Node10</title>
<path fill="none" stroke="#9a32cd" stroke-dasharray="5,2" d="M392.85,-12.6326C443.452,-13.1115 513.04,-13.7701 565.975,-14.2711"/>
<polygon fill="#9a32cd" stroke="#9a32cd" points="392.706,-9.13123 382.673,-12.5363 392.64,-16.1309 392.706,-9.13123"/>
<text text-anchor="middle" x="485" y="-18" font-family="Helvetica,sans-Serif" font-size="10.00"> myFilePathUtility</text>
</g>
<!-- Node12&#45;&gt;Node8 -->
<g id="edge12" class="edge"><title>Node12&#45;&gt;Node8</title>
<path fill="none" stroke="#9a32cd" stroke-dasharray="5,2" d="M704.741,-111C749.388,-111 810.298,-111 855.764,-111"/>
<polygon fill="#9a32cd" stroke="#9a32cd" points="704.619,-107.5 694.619,-111 704.619,-114.5 704.619,-107.5"/>
<text text-anchor="middle" x="791" y="-114" font-family="Helvetica,sans-Serif" font-size="10.00"> myCurrentLevel</text>
</g>
<!-- Node13 -->
<g id="node13" class="node"><title>Node13</title>
<g id="a_node13"><a xlink:href="../../d3/d8d/classdata_1_1_observable.html" target="_top" xlink:title="data.Observable">
<polygon fill="white" stroke="black" points="277.5,-116.5 277.5,-135.5 372.5,-135.5 372.5,-116.5 277.5,-116.5"/>
<text text-anchor="middle" x="325" y="-123.5" font-family="Helvetica,sans-Serif" font-size="10.00">data.Observable</text>
</a>
</g>
</g>
<!-- Node13&#45;&gt;Node12 -->
<g id="edge13" class="edge"><title>Node13&#45;&gt;Node12</title>
<path fill="none" stroke="midnightblue" d="M382.831,-123.311C442.794,-120.473 536.349,-116.047 593.42,-113.346"/>
<polygon fill="midnightblue" stroke="midnightblue" points="382.598,-119.818 372.774,-123.787 382.929,-126.81 382.598,-119.818"/>
</g>
<!-- Node14 -->
<g id="node14" class="node"><title>Node14</title>
<polygon fill="white" stroke="#bfbfbf" points="23,-116.5 23,-135.5 161,-135.5 161,-116.5 23,-116.5"/>
<text text-anchor="middle" x="92" y="-123.5" font-family="Helvetica,sans-Serif" font-size="10.00">Vector&lt; data.Observer &gt;</text>
</g>
<!-- Node14&#45;&gt;Node13 -->
<g id="edge14" class="edge"><title>Node14&#45;&gt;Node13</title>
<path fill="none" stroke="#9a32cd" stroke-dasharray="5,2" d="M171.318,-126C206.521,-126 246.882,-126 277.262,-126"/>
<polygon fill="#9a32cd" stroke="#9a32cd" points="171.058,-122.5 161.058,-126 171.058,-129.5 171.058,-122.5"/>
<text text-anchor="middle" x="213" y="-129" font-family="Helvetica,sans-Serif" font-size="10.00"> obs</text>
</g>
<!-- Node15 -->
<g id="node15" class="node"><title>Node15</title>
<g id="a_node15"><a xlink:href="../../dc/df6/interfaceengine_1_1game_object_1_1_identifiable.html" target="_top" xlink:title="engine.gameObject.Identifiable">
<polygon fill="white" stroke="black" points="242.5,-40.5 242.5,-59.5 407.5,-59.5 407.5,-40.5 242.5,-40.5"/>
<text text-anchor="middle" x="325" y="-47.5" font-family="Helvetica,sans-Serif" font-size="10.00">engine.gameObject.Identifiable</text>
</a>
</g>
</g>
<!-- Node15&#45;&gt;Node12 -->
<g id="edge15" class="edge"><title>Node15&#45;&gt;Node12</title>
<path fill="none" stroke="midnightblue" d="M390.151,-61.2914C433.625,-69.061 492.345,-79.7845 544,-90 562.098,-93.5791 582.004,-97.755 599.191,-101.436"/>
<polygon fill="midnightblue" stroke="midnightblue" points="390.739,-57.8412 380.28,-59.5312 389.51,-64.7325 390.739,-57.8412"/>
</g>
<!-- Node16 -->
<g id="node16" class="node"><title>Node16</title>
<g id="a_node16"><a xlink:href="../../d4/dac/classengine_1_1game_object_1_1_identifier.html" target="_top" xlink:title="engine.gameObject.Identifier">
<polygon fill="white" stroke="black" points="247.5,-78.5 247.5,-97.5 402.5,-97.5 402.5,-78.5 247.5,-78.5"/>
<text text-anchor="middle" x="325" y="-85.5" font-family="Helvetica,sans-Serif" font-size="10.00">engine.gameObject.Identifier</text>
</a>
</g>
</g>
<!-- Node16&#45;&gt;Node12 -->
<g id="edge16" class="edge"><title>Node16&#45;&gt;Node12</title>
<path fill="none" stroke="#9a32cd" stroke-dasharray="5,2" d="M412.715,-92.3511C452.711,-94.5684 500.798,-97.5314 544,-101 560.1,-102.293 577.646,-103.975 593.434,-105.59"/>
<polygon fill="#9a32cd" stroke="#9a32cd" points="412.906,-88.8564 402.729,-91.8036 412.523,-95.8459 412.906,-88.8564"/>
<text text-anchor="middle" x="485" y="-104" font-family="Helvetica,sans-Serif" font-size="10.00"> myId</text>
</g>
<!-- Node17 -->
<g id="node17" class="node"><title>Node17</title>
<polygon fill="white" stroke="#bfbfbf" points="64,-78.5 64,-97.5 120,-97.5 120,-78.5 64,-78.5"/>
<text text-anchor="middle" x="92" y="-85.5" font-family="Helvetica,sans-Serif" font-size="10.00">Random</text>
</g>
<!-- Node17&#45;&gt;Node16 -->
<g id="edge17" class="edge"><title>Node17&#45;&gt;Node16</title>
<path fill="none" stroke="#9a32cd" stroke-dasharray="5,2" d="M130.511,-88C162.046,-88 208.136,-88 247.423,-88"/>
<polygon fill="#9a32cd" stroke="#9a32cd" points="130.406,-84.5001 120.406,-88 130.406,-91.5001 130.406,-84.5001"/>
<text text-anchor="middle" x="213" y="-91" font-family="Helvetica,sans-Serif" font-size="10.00"> r</text>
</g>
<!-- Node18 -->
<g id="node18" class="node"><title>Node18</title>
<polygon fill="white" stroke="#bfbfbf" points="621,-139.5 621,-158.5 667,-158.5 667,-139.5 621,-139.5"/>
<text text-anchor="middle" x="644" y="-146.5" font-family="Helvetica,sans-Serif" font-size="10.00">Group</text>
</g>
<!-- Node18&#45;&gt;Node8 -->
<g id="edge20" class="edge"><title>Node18&#45;&gt;Node8</title>
<path fill="none" stroke="#9a32cd" stroke-dasharray="5,2" d="M677.117,-145.813C715.489,-141.858 781.586,-134.576 838,-126 848.463,-124.409 859.645,-122.485 870.257,-120.553"/>
<polygon fill="#9a32cd" stroke="#9a32cd" points="676.653,-142.342 667.06,-146.839 677.364,-149.306 676.653,-142.342"/>
<text text-anchor="middle" x="791" y="-141" font-family="Helvetica,sans-Serif" font-size="10.00"> myCanvas</text>
</g>
</g>
</svg>
