<?xml version="1.0" encoding="UTF-8" standalone="no"?>
<!DOCTYPE svg PUBLIC "-//W3C//DTD SVG 1.1//EN"
 "http://www.w3.org/Graphics/SVG/1.1/DTD/svg11.dtd">
<!-- Generated by graphviz version 2.36.0 (20140111.2315)
 -->
<!-- Title: engine.GameManager Pages: 1 -->
<svg width="1548pt" height="574pt"
 viewBox="0.00 0.00 1548.00 573.93" xmlns="http://www.w3.org/2000/svg" xmlns:xlink="http://www.w3.org/1999/xlink">
<g id="graph0" class="graph" transform="scale(1 1) rotate(0) translate(4 569.933)">
<title>engine.GameManager</title>
<polygon fill="white" stroke="none" points="-4,4 -4,-569.933 1544,-569.933 1544,4 -4,4"/>
<!-- Node1 -->
<g id="node1" class="node"><title>Node1</title>
<polygon fill="#bfbfbf" stroke="black" points="1416.5,-174.433 1416.5,-193.433 1539.5,-193.433 1539.5,-174.433 1416.5,-174.433"/>
<text text-anchor="middle" x="1478" y="-181.433" font-family="Helvetica,sans-Serif" font-size="10.00">engine.GameManager</text>
</g>
<!-- Node2 -->
<g id="node2" class="node"><title>Node2</title>
<g id="a_node2"><a xlink:href="../../df/de5/classauthoring_1_1model_1_1collections_1_1_levels_collection.html" target="_top" xlink:title="authoring.model.collections.\lLevelsCollection">
<polygon fill="white" stroke="black" points="570,-455.933 570,-485.933 722,-485.933 722,-455.933 570,-455.933"/>
<text text-anchor="start" x="578" y="-473.933" font-family="Helvetica,sans-Serif" font-size="10.00">authoring.model.collections.</text>
<text text-anchor="middle" x="646" y="-462.933" font-family="Helvetica,sans-Serif" font-size="10.00">LevelsCollection</text>
</a>
</g>
</g>
<!-- Node2&#45;&gt;Node1 -->
<g id="edge1" class="edge"><title>Node2&#45;&gt;Node1</title>
<path fill="none" stroke="#9a32cd" stroke-dasharray="5,2" d="M732.342,-474.819C884.574,-480.49 1196.17,-486.024 1294,-441.933 1405.39,-391.726 1461.39,-233.898 1474.14,-193.452"/>
<polygon fill="#9a32cd" stroke="#9a32cd" points="732.232,-471.313 722.106,-474.429 731.965,-478.308 732.232,-471.313"/>
<text text-anchor="middle" x="1074" y="-480.933" font-family="Helvetica,sans-Serif" font-size="10.00"> myLevels</text>
</g>
<!-- Node4 -->
<g id="node4" class="node"><title>Node4</title>
<g id="a_node4"><a xlink:href="../../df/d67/classengine_1_1level_1_1_level_manager.html" target="_top" xlink:title="engine.level.LevelManager">
<polygon fill="white" stroke="black" points="1141.5,-273.433 1141.5,-292.433 1284.5,-292.433 1284.5,-273.433 1141.5,-273.433"/>
<text text-anchor="middle" x="1213" y="-280.433" font-family="Helvetica,sans-Serif" font-size="10.00">engine.level.LevelManager</text>
</a>
</g>
</g>
<!-- Node2&#45;&gt;Node4 -->
<g id="edge5" class="edge"><title>Node2&#45;&gt;Node4</title>
<path fill="none" stroke="#9a32cd" stroke-dasharray="5,2" d="M717.372,-453.303C721.649,-452.177 725.884,-451.048 730,-449.933 772.868,-438.318 1079.18,-366.51 1114,-338.933 1126.79,-328.801 1119.26,-317.129 1132,-306.933 1139.92,-300.591 1149.5,-295.922 1159.22,-292.487"/>
<polygon fill="#9a32cd" stroke="#9a32cd" points="716.148,-450.005 707.355,-455.915 717.914,-456.778 716.148,-450.005"/>
<text text-anchor="middle" x="940" y="-418.933" font-family="Helvetica,sans-Serif" font-size="10.00"> myLevels</text>
</g>
<!-- Node20 -->
<g id="node20" class="node"><title>Node20</title>
<g id="a_node20"><a xlink:href="../../da/d90/classengine_1_1sound_1_1_sound_utility.html" target="_top" xlink:title="engine.sound.SoundUtility">
<polygon fill="white" stroke="black" points="869,-437.433 869,-456.433 1011,-456.433 1011,-437.433 869,-437.433"/>
<text text-anchor="middle" x="940" y="-444.433" font-family="Helvetica,sans-Serif" font-size="10.00">engine.sound.SoundUtility</text>
</a>
</g>
</g>
<!-- Node2&#45;&gt;Node20 -->
<g id="edge23" class="edge"><title>Node2&#45;&gt;Node20</title>
<path fill="none" stroke="#9a32cd" stroke-dasharray="5,2" d="M732.417,-461.385C737.688,-460.872 742.914,-460.383 748,-459.933 787.894,-456.404 832.55,-453.317 868.646,-451.038"/>
<polygon fill="#9a32cd" stroke="#9a32cd" points="731.855,-457.923 722.251,-462.398 732.549,-464.889 731.855,-457.923"/>
<text text-anchor="middle" x="797" y="-462.933" font-family="Helvetica,sans-Serif" font-size="10.00"> myLevels</text>
</g>
<!-- Node3 -->
<g id="node3" class="node"><title>Node3</title>
<g id="a_node3"><a xlink:href="../../d4/d3b/classauthoring_1_1model_1_1collections_1_1_general_collection.html" target="_top" xlink:title="authoring.model.collections.\lGeneralCollection\&lt; Level \&gt;">
<polygon fill="white" stroke="black" points="249,-455.933 249,-485.933 401,-485.933 401,-455.933 249,-455.933"/>
<text text-anchor="start" x="257" y="-473.933" font-family="Helvetica,sans-Serif" font-size="10.00">authoring.model.collections.</text>
<text text-anchor="middle" x="325" y="-462.933" font-family="Helvetica,sans-Serif" font-size="10.00">GeneralCollection&lt; Level &gt;</text>
</a>
</g>
</g>
<!-- Node3&#45;&gt;Node2 -->
<g id="edge2" class="edge"><title>Node3&#45;&gt;Node2</title>
<path fill="none" stroke="midnightblue" d="M411.216,-470.933C460.588,-470.933 522.186,-470.933 569.758,-470.933"/>
<polygon fill="midnightblue" stroke="midnightblue" points="411.195,-467.433 401.195,-470.933 411.195,-474.433 411.195,-467.433"/>
</g>
<!-- Node4&#45;&gt;Node1 -->
<g id="edge3" class="edge"><title>Node4&#45;&gt;Node1</title>
<path fill="none" stroke="#9a32cd" stroke-dasharray="5,2" d="M1249.16,-269.698C1302.94,-249.454 1404.35,-211.282 1451.59,-193.499"/>
<polygon fill="#9a32cd" stroke="#9a32cd" points="1247.82,-266.462 1239.7,-273.26 1250.29,-273.013 1247.82,-266.462"/>
<text text-anchor="middle" x="1355" y="-248.933" font-family="Helvetica,sans-Serif" font-size="10.00"> myLevelManager</text>
</g>
<!-- Node5 -->
<g id="node5" class="node"><title>Node5</title>
<polygon fill="white" stroke="#bfbfbf" points="890,-242.433 890,-261.433 990,-261.433 990,-242.433 890,-242.433"/>
<text text-anchor="middle" x="940" y="-249.433" font-family="Helvetica,sans-Serif" font-size="10.00">Iterable&lt; Level &gt;</text>
</g>
<!-- Node5&#45;&gt;Node4 -->
<g id="edge4" class="edge"><title>Node5&#45;&gt;Node4</title>
<path fill="none" stroke="midnightblue" d="M1000.05,-258.688C1041.61,-263.442 1097.44,-269.828 1141.36,-274.853"/>
<polygon fill="midnightblue" stroke="midnightblue" points="1000.41,-255.206 990.076,-257.547 999.613,-262.161 1000.41,-255.206"/>
</g>
<!-- Node6 -->
<g id="node6" class="node"><title>Node6</title>
<g id="a_node6"><a xlink:href="../../dd/d8d/classengine_1_1render_1_1_renderer.html" target="_top" xlink:title="engine.render.Renderer">
<polygon fill="white" stroke="black" points="876,-329.433 876,-348.433 1004,-348.433 1004,-329.433 876,-329.433"/>
<text text-anchor="middle" x="940" y="-336.433" font-family="Helvetica,sans-Serif" font-size="10.00">engine.render.Renderer</text>
</a>
</g>
</g>
<!-- Node6&#45;&gt;Node1 -->
<g id="edge30" class="edge"><title>Node6&#45;&gt;Node1</title>
<path fill="none" stroke="#9a32cd" stroke-dasharray="5,2" d="M1014.38,-343.435C1110.3,-345.751 1279.97,-337.263 1398,-260.933 1428.07,-241.484 1456.37,-209.363 1469.43,-193.46"/>
<polygon fill="#9a32cd" stroke="#9a32cd" points="1014.29,-339.931 1004.19,-343.142 1014.09,-346.929 1014.29,-339.931"/>
<text text-anchor="middle" x="1213" y="-342.933" font-family="Helvetica,sans-Serif" font-size="10.00"> myGameObjectRenderer</text>
</g>
<!-- Node6&#45;&gt;Node4 -->
<g id="edge6" class="edge"><title>Node6&#45;&gt;Node4</title>
<path fill="none" stroke="#9a32cd" stroke-dasharray="5,2" d="M1013.59,-327.799C1044.64,-322.661 1081.22,-316.11 1114,-308.933 1135.84,-304.152 1160.13,-297.716 1179.06,-292.444"/>
<polygon fill="#9a32cd" stroke="#9a32cd" points="1013.02,-324.346 1003.72,-329.416 1014.15,-331.254 1013.02,-324.346"/>
<text text-anchor="middle" x="1074" y="-326.933" font-family="Helvetica,sans-Serif" font-size="10.00"> myRenderer</text>
</g>
<!-- Node7 -->
<g id="node7" class="node"><title>Node7</title>
<polygon fill="white" stroke="#bfbfbf" points="564,-358.933 564,-388.933 728,-388.933 728,-358.933 564,-358.933"/>
<text text-anchor="start" x="572" y="-376.933" font-family="Helvetica,sans-Serif" font-size="10.00">Map&lt; Identifier, engine.render.</text>
<text text-anchor="middle" x="646" y="-365.933" font-family="Helvetica,sans-Serif" font-size="10.00">RenderedNode &gt;</text>
</g>
<!-- Node7&#45;&gt;Node6 -->
<g id="edge7" class="edge"><title>Node7&#45;&gt;Node6</title>
<path fill="none" stroke="#9a32cd" stroke-dasharray="5,2" d="M738.317,-362.988C782.939,-357.639 835.527,-351.336 875.674,-346.524"/>
<polygon fill="#9a32cd" stroke="#9a32cd" points="737.851,-359.518 728.338,-364.184 738.684,-366.469 737.851,-359.518"/>
<text text-anchor="middle" x="797" y="-364.933" font-family="Helvetica,sans-Serif" font-size="10.00"> myRenderedNodes</text>
</g>
<!-- Node8 -->
<g id="node8" class="node"><title>Node8</title>
<g id="a_node8"><a xlink:href="../../d5/d30/classengine_1_1render_1_1_rendered_node_factory.html" target="_top" xlink:title="engine.render.RenderedNode\lFactory">
<polygon fill="white" stroke="black" points="568,-309.933 568,-339.933 724,-339.933 724,-309.933 568,-309.933"/>
<text text-anchor="start" x="576" y="-327.933" font-family="Helvetica,sans-Serif" font-size="10.00">engine.render.RenderedNode</text>
<text text-anchor="middle" x="646" y="-316.933" font-family="Helvetica,sans-Serif" font-size="10.00">Factory</text>
</a>
</g>
</g>
<!-- Node8&#45;&gt;Node6 -->
<g id="edge8" class="edge"><title>Node8&#45;&gt;Node6</title>
<path fill="none" stroke="#9a32cd" stroke-dasharray="5,2" d="M734.257,-329.117C779.751,-331.298 834.377,-333.917 875.758,-335.901"/>
<polygon fill="#9a32cd" stroke="#9a32cd" points="734.258,-325.613 724.102,-328.63 733.922,-332.605 734.258,-325.613"/>
<text text-anchor="middle" x="797" y="-337.933" font-family="Helvetica,sans-Serif" font-size="10.00"> myFactory</text>
</g>
<!-- Node9 -->
<g id="node9" class="node"><title>Node9</title>
<g id="a_node9"><a xlink:href="../../d9/db5/classengine_1_1_file_path_utility.html" target="_top" xlink:title="engine.FilePathUtility">
<polygon fill="white" stroke="black" points="267.5,-403.433 267.5,-422.433 382.5,-422.433 382.5,-403.433 267.5,-403.433"/>
<text text-anchor="middle" x="325" y="-410.433" font-family="Helvetica,sans-Serif" font-size="10.00">engine.FilePathUtility</text>
</a>
</g>
</g>
<!-- Node9&#45;&gt;Node8 -->
<g id="edge9" class="edge"><title>Node9&#45;&gt;Node8</title>
<path fill="none" stroke="#9a32cd" stroke-dasharray="5,2" d="M392.979,-405.261C437.426,-398.348 496.162,-385.644 544,-362.933 553.155,-358.587 552.97,-353.534 562,-348.933 568.549,-345.596 575.632,-342.657 582.804,-340.087"/>
<polygon fill="#9a32cd" stroke="#9a32cd" points="392.237,-401.833 382.865,-406.773 393.272,-408.756 392.237,-401.833"/>
<text text-anchor="middle" x="485" y="-402.933" font-family="Helvetica,sans-Serif" font-size="10.00"> myFilePathUtility</text>
</g>
<!-- Node9&#45;&gt;Node20 -->
<g id="edge26" class="edge"><title>Node9&#45;&gt;Node20</title>
<path fill="none" stroke="#9a32cd" stroke-dasharray="5,2" d="M392.977,-416.52C473.12,-420.826 611.366,-428.297 730,-434.933 776.267,-437.521 828.29,-440.508 868.859,-442.854"/>
<polygon fill="#9a32cd" stroke="#9a32cd" points="392.714,-413.001 382.541,-415.959 392.338,-419.991 392.714,-413.001"/>
<text text-anchor="middle" x="646" y="-437.933" font-family="Helvetica,sans-Serif" font-size="10.00"> myFilePathUtility</text>
</g>
<!-- Node10 -->
<g id="node10" class="node"><title>Node10</title>
<g id="a_node10"><a xlink:href="../../df/d84/classengine_1_1level_1_1_level.html" target="_top" xlink:title="engine.level.Level">
<polygon fill="white" stroke="black" points="595.5,-269.433 595.5,-288.433 696.5,-288.433 696.5,-269.433 595.5,-269.433"/>
<text text-anchor="middle" x="646" y="-276.433" font-family="Helvetica,sans-Serif" font-size="10.00">engine.level.Level</text>
</a>
</g>
</g>
<!-- Node10&#45;&gt;Node4 -->
<g id="edge21" class="edge"><title>Node10&#45;&gt;Node4</title>
<path fill="none" stroke="#9a32cd" stroke-dasharray="5,2" d="M707.127,-279.439C783.224,-280.07 918.334,-281.16 1034,-281.933 1069.38,-282.17 1108.72,-282.395 1141.4,-282.571"/>
<polygon fill="#9a32cd" stroke="#9a32cd" points="706.818,-275.936 696.789,-279.353 706.76,-282.936 706.818,-275.936"/>
<text text-anchor="middle" x="940" y="-284.933" font-family="Helvetica,sans-Serif" font-size="10.00"> myCurrentLevel</text>
</g>
<!-- Node10&#45;&gt;Node6 -->
<g id="edge10" class="edge"><title>Node10&#45;&gt;Node6</title>
<path fill="none" stroke="#9a32cd" stroke-dasharray="5,2" d="M706.712,-288.555C746.354,-295.233 799.465,-304.734 846,-314.933 865.383,-319.181 886.841,-324.666 904.257,-329.32"/>
<polygon fill="#9a32cd" stroke="#9a32cd" points="707.119,-285.075 696.678,-286.877 705.964,-291.979 707.119,-285.075"/>
<text text-anchor="middle" x="797" y="-317.933" font-family="Helvetica,sans-Serif" font-size="10.00"> myCurrentLevel</text>
</g>
<!-- Node11 -->
<g id="node11" class="node"><title>Node11</title>
<g id="a_node11"><a xlink:href="../../d3/d8d/classdata_1_1_observable.html" target="_top" xlink:title="data.Observable">
<polygon fill="white" stroke="black" points="277.5,-225.433 277.5,-244.433 372.5,-244.433 372.5,-225.433 277.5,-225.433"/>
<text text-anchor="middle" x="325" y="-232.433" font-family="Helvetica,sans-Serif" font-size="10.00">data.Observable</text>
</a>
</g>
</g>
<!-- Node11&#45;&gt;Node10 -->
<g id="edge11" class="edge"><title>Node11&#45;&gt;Node10</title>
<path fill="none" stroke="midnightblue" d="M382.85,-242.774C443.23,-251.103 537.733,-264.138 595.257,-272.072"/>
<polygon fill="midnightblue" stroke="midnightblue" points="383.111,-239.278 372.727,-241.378 382.155,-246.212 383.111,-239.278"/>
</g>
<!-- Node12 -->
<g id="node12" class="node"><title>Node12</title>
<polygon fill="white" stroke="#bfbfbf" points="23,-225.433 23,-244.433 161,-244.433 161,-225.433 23,-225.433"/>
<text text-anchor="middle" x="92" y="-232.433" font-family="Helvetica,sans-Serif" font-size="10.00">Vector&lt; data.Observer &gt;</text>
</g>
<!-- Node12&#45;&gt;Node11 -->
<g id="edge12" class="edge"><title>Node12&#45;&gt;Node11</title>
<path fill="none" stroke="#9a32cd" stroke-dasharray="5,2" d="M171.318,-234.933C206.521,-234.933 246.882,-234.933 277.262,-234.933"/>
<polygon fill="#9a32cd" stroke="#9a32cd" points="171.058,-231.433 161.058,-234.933 171.058,-238.433 171.058,-231.433"/>
<text text-anchor="middle" x="213" y="-237.933" font-family="Helvetica,sans-Serif" font-size="10.00"> obs</text>
</g>
<!-- Node13 -->
<g id="node13" class="node"><title>Node13</title>
<g id="a_node13"><a xlink:href="../../dc/df6/interfaceengine_1_1game_object_1_1_identifiable.html" target="_top" xlink:title="engine.gameObject.Identifiable">
<polygon fill="white" stroke="black" points="242.5,-351.433 242.5,-370.433 407.5,-370.433 407.5,-351.433 242.5,-351.433"/>
<text text-anchor="middle" x="325" y="-358.433" font-family="Helvetica,sans-Serif" font-size="10.00">engine.gameObject.Identifiable</text>
</a>
</g>
</g>
<!-- Node13&#45;&gt;Node10 -->
<g id="edge13" class="edge"><title>Node13&#45;&gt;Node10</title>
<path fill="none" stroke="midnightblue" d="M417.823,-365.95C459.416,-364.014 507.359,-355.506 544,-330.933 557.232,-322.059 549.281,-309.528 562,-299.933 571.612,-292.683 583.45,-287.918 595.144,-284.792"/>
<polygon fill="midnightblue" stroke="midnightblue" points="417.548,-362.458 407.674,-366.301 417.789,-369.454 417.548,-362.458"/>
</g>
<!-- Node14 -->
<g id="node14" class="node"><title>Node14</title>
<g id="a_node14"><a xlink:href="../../d4/dac/classengine_1_1game_object_1_1_identifier.html" target="_top" xlink:title="engine.gameObject.Identifier">
<polygon fill="white" stroke="black" points="247.5,-313.433 247.5,-332.433 402.5,-332.433 402.5,-313.433 247.5,-313.433"/>
<text text-anchor="middle" x="325" y="-320.433" font-family="Helvetica,sans-Serif" font-size="10.00">engine.gameObject.Identifier</text>
</a>
</g>
</g>
<!-- Node14&#45;&gt;Node10 -->
<g id="edge14" class="edge"><title>Node14&#45;&gt;Node10</title>
<path fill="none" stroke="#9a32cd" stroke-dasharray="5,2" d="M412.742,-317.138C452.841,-313.804 501.004,-308.87 544,-301.933 565.482,-298.467 589.221,-293.139 608.284,-288.484"/>
<polygon fill="#9a32cd" stroke="#9a32cd" points="412.413,-313.653 402.729,-317.951 412.98,-320.63 412.413,-313.653"/>
<text text-anchor="middle" x="485" y="-318.933" font-family="Helvetica,sans-Serif" font-size="10.00"> myId</text>
</g>
<!-- Node15 -->
<g id="node15" class="node"><title>Node15</title>
<polygon fill="white" stroke="#bfbfbf" points="64,-313.433 64,-332.433 120,-332.433 120,-313.433 64,-313.433"/>
<text text-anchor="middle" x="92" y="-320.433" font-family="Helvetica,sans-Serif" font-size="10.00">Random</text>
</g>
<!-- Node15&#45;&gt;Node14 -->
<g id="edge15" class="edge"><title>Node15&#45;&gt;Node14</title>
<path fill="none" stroke="#9a32cd" stroke-dasharray="5,2" d="M130.511,-322.933C162.046,-322.933 208.136,-322.933 247.423,-322.933"/>
<polygon fill="#9a32cd" stroke="#9a32cd" points="130.406,-319.433 120.406,-322.933 130.406,-326.433 130.406,-319.433"/>
<text text-anchor="middle" x="213" y="-325.933" font-family="Helvetica,sans-Serif" font-size="10.00"> r</text>
</g>
<!-- Node16 -->
<g id="node16" class="node"><title>Node16</title>
<g id="a_node16"><a xlink:href="../../d1/d32/classauthoring_1_1model_1_1collections_1_1_game_objects_collection.html" target="_top" xlink:title="authoring.model.collections.\lGameObjectsCollection">
<polygon fill="white" stroke="black" points="249,-160.933 249,-190.933 401,-190.933 401,-160.933 249,-160.933"/>
<text text-anchor="start" x="257" y="-178.933" font-family="Helvetica,sans-Serif" font-size="10.00">authoring.model.collections.</text>
<text text-anchor="middle" x="325" y="-167.933" font-family="Helvetica,sans-Serif" font-size="10.00">GameObjectsCollection</text>
</a>
</g>
</g>
<!-- Node16&#45;&gt;Node1 -->
<g id="edge31" class="edge"><title>Node16&#45;&gt;Node1</title>
<path fill="none" stroke="#9a32cd" stroke-dasharray="5,2" d="M367.252,-156.636C427.083,-130.462 542.061,-86.9331 645,-86.9331 645,-86.9331 645,-86.9331 1214,-86.9331 1314.25,-86.9331 1423.46,-149.743 1462.29,-174.278"/>
<polygon fill="#9a32cd" stroke="#9a32cd" points="365.506,-153.582 357.784,-160.836 368.344,-159.98 365.506,-153.582"/>
<text text-anchor="middle" x="940" y="-89.9331" font-family="Helvetica,sans-Serif" font-size="10.00"> myGameObjects</text>
</g>
<!-- Node16&#45;&gt;Node4 -->
<g id="edge20" class="edge"><title>Node16&#45;&gt;Node4</title>
<path fill="none" stroke="#9a32cd" stroke-dasharray="5,2" d="M411.564,-177.461C542.705,-181.044 800.825,-193.012 1016,-232.933 1074.53,-243.791 1141.47,-262.19 1180.04,-273.384"/>
<polygon fill="#9a32cd" stroke="#9a32cd" points="411.281,-173.952 401.193,-177.188 411.097,-180.95 411.281,-173.952"/>
<text text-anchor="middle" x="797" y="-221.933" font-family="Helvetica,sans-Serif" font-size="10.00"> myTemplateObjects</text>
<text text-anchor="middle" x="797" y="-210.933" font-family="Helvetica,sans-Serif" font-size="10.00">myGameObjects</text>
</g>
<!-- Node16&#45;&gt;Node10 -->
<g id="edge16" class="edge"><title>Node16&#45;&gt;Node10</title>
<path fill="none" stroke="#9a32cd" stroke-dasharray="5,2" d="M411.129,-188.789C462.306,-197.641 521.711,-210.24 544,-223.933 554.764,-230.546 551.805,-238.472 562,-245.933 576.266,-256.373 594.285,-264.059 609.887,-269.373"/>
<polygon fill="#9a32cd" stroke="#9a32cd" points="411.462,-185.296 401.017,-187.07 410.289,-192.197 411.462,-185.296"/>
<text text-anchor="middle" x="485" y="-237.933" font-family="Helvetica,sans-Serif" font-size="10.00"> myDefaultGameObjects</text>
<text text-anchor="middle" x="485" y="-226.933" font-family="Helvetica,sans-Serif" font-size="10.00">myWorkingGameObjects</text>
</g>
<!-- Node17 -->
<g id="node17" class="node"><title>Node17</title>
<g id="a_node17"><a xlink:href="../../d4/d3b/classauthoring_1_1model_1_1collections_1_1_general_collection.html" target="_top" xlink:title="authoring.model.collections.\lGeneralCollection\&lt; GameObject \&gt;">
<polygon fill="white" stroke="black" points="0.5,-160.933 0.5,-190.933 183.5,-190.933 183.5,-160.933 0.5,-160.933"/>
<text text-anchor="start" x="8.5" y="-178.933" font-family="Helvetica,sans-Serif" font-size="10.00">authoring.model.collections.</text>
<text text-anchor="middle" x="92" y="-167.933" font-family="Helvetica,sans-Serif" font-size="10.00">GeneralCollection&lt; GameObject &gt;</text>
</a>
</g>
</g>
<!-- Node17&#45;&gt;Node16 -->
<g id="edge17" class="edge"><title>Node17&#45;&gt;Node16</title>
<path fill="none" stroke="midnightblue" d="M193.843,-175.933C212.335,-175.933 231.337,-175.933 248.91,-175.933"/>
<polygon fill="midnightblue" stroke="midnightblue" points="193.634,-172.433 183.634,-175.933 193.634,-179.433 193.634,-172.433"/>
</g>
<!-- Node18 -->
<g id="node18" class="node"><title>Node18</title>
<polygon fill="white" stroke="#bfbfbf" points="254.5,-263.933 254.5,-293.933 395.5,-293.933 395.5,-263.933 254.5,-263.933"/>
<text text-anchor="start" x="262.5" y="-281.933" font-family="Helvetica,sans-Serif" font-size="10.00">List&lt; engine.gameObject.</text>
<text text-anchor="middle" x="325" y="-270.933" font-family="Helvetica,sans-Serif" font-size="10.00">Identifier &gt;</text>
</g>
<!-- Node18&#45;&gt;Node10 -->
<g id="edge18" class="edge"><title>Node18&#45;&gt;Node10</title>
<path fill="none" stroke="#9a32cd" stroke-dasharray="5,2" d="M405.726,-278.933C465.211,-278.933 544.633,-278.933 595.312,-278.933"/>
<polygon fill="#9a32cd" stroke="#9a32cd" points="405.612,-275.433 395.612,-278.933 405.612,-282.433 405.612,-275.433"/>
<text text-anchor="middle" x="485" y="-292.933" font-family="Helvetica,sans-Serif" font-size="10.00"> myConditionIdList</text>
<text text-anchor="middle" x="485" y="-281.933" font-family="Helvetica,sans-Serif" font-size="10.00">myGameObjectIdList</text>
</g>
<!-- Node19 -->
<g id="node19" class="node"><title>Node19</title>
<polygon fill="white" stroke="#bfbfbf" points="623,-217.433 623,-236.433 669,-236.433 669,-217.433 623,-217.433"/>
<text text-anchor="middle" x="646" y="-224.433" font-family="Helvetica,sans-Serif" font-size="10.00">Group</text>
</g>
<!-- Node19&#45;&gt;Node1 -->
<g id="edge33" class="edge"><title>Node19&#45;&gt;Node1</title>
<path fill="none" stroke="#9a32cd" stroke-dasharray="5,2" d="M679.4,-221.992C745.743,-212.153 901.939,-190.416 1034,-182.933 1069.5,-180.922 1078.44,-182.884 1114,-182.933 1220.35,-183.08 1344.22,-183.468 1416.3,-183.715"/>
<polygon fill="#9a32cd" stroke="#9a32cd" points="678.548,-218.581 669.175,-223.52 679.582,-225.504 678.548,-218.581"/>
<text text-anchor="middle" x="1074" y="-185.933" font-family="Helvetica,sans-Serif" font-size="10.00"> myRootGroup</text>
</g>
<!-- Node19&#45;&gt;Node6 -->
<g id="edge19" class="edge"><title>Node19&#45;&gt;Node6</title>
<path fill="none" stroke="#9a32cd" stroke-dasharray="5,2" d="M679.202,-228.161C721.597,-231.32 796.531,-242.405 846,-280.933 858.874,-290.96 851.478,-302.47 864,-312.933 872.777,-320.267 883.747,-325.579 894.565,-329.408"/>
<polygon fill="#9a32cd" stroke="#9a32cd" points="679.364,-224.664 669.161,-227.517 678.916,-231.65 679.364,-224.664"/>
<text text-anchor="middle" x="797" y="-283.933" font-family="Helvetica,sans-Serif" font-size="10.00"> myCanvas</text>
</g>
<!-- Node20&#45;&gt;Node1 -->
<g id="edge34" class="edge"><title>Node20&#45;&gt;Node1</title>
<path fill="none" stroke="#9a32cd" stroke-dasharray="5,2" d="M1021.52,-445.261C1050.96,-443.265 1084.31,-439.368 1114,-431.933 1249.94,-397.893 1294.3,-389.197 1398,-294.933 1432.66,-263.431 1460.96,-214.258 1472.01,-193.593"/>
<polygon fill="#9a32cd" stroke="#9a32cd" points="1021.05,-441.783 1011.28,-445.89 1021.48,-448.77 1021.05,-441.783"/>
<text text-anchor="middle" x="1213" y="-429.933" font-family="Helvetica,sans-Serif" font-size="10.00"> mySoundUtility</text>
</g>
<!-- Node20&#45;&gt;Node4 -->
<g id="edge22" class="edge"><title>Node20&#45;&gt;Node4</title>
<path fill="none" stroke="#9a32cd" stroke-dasharray="5,2" d="M984.853,-434.65C1035.91,-420.33 1113.41,-398.524 1114,-397.933 1134.61,-377.365 1114.69,-358.354 1132,-334.933 1146.47,-315.349 1170.7,-301.11 1188.71,-292.535"/>
<polygon fill="#9a32cd" stroke="#9a32cd" points="983.709,-431.336 975.025,-437.406 985.599,-438.076 983.709,-431.336"/>
<text text-anchor="middle" x="1074" y="-422.933" font-family="Helvetica,sans-Serif" font-size="10.00"> mySoundPlayer</text>
</g>
<!-- Node21 -->
<g id="node21" class="node"><title>Node21</title>
<polygon fill="white" stroke="#bfbfbf" points="570,-546.433 570,-565.433 722,-565.433 722,-546.433 570,-546.433"/>
<text text-anchor="middle" x="646" y="-553.433" font-family="Helvetica,sans-Serif" font-size="10.00">Map&lt; String, MediaPlayer &gt;</text>
</g>
<!-- Node21&#45;&gt;Node20 -->
<g id="edge24" class="edge"><title>Node21&#45;&gt;Node20</title>
<path fill="none" stroke="#9a32cd" stroke-dasharray="5,2" d="M732.041,-545.33C768.218,-538.864 810.225,-528.695 846,-512.933 878.975,-498.405 912.069,-471.175 928.446,-456.647"/>
<polygon fill="#9a32cd" stroke="#9a32cd" points="731.264,-541.912 722.002,-547.057 732.451,-548.811 731.264,-541.912"/>
<text text-anchor="middle" x="797" y="-543.933" font-family="Helvetica,sans-Serif" font-size="10.00"> myMediaPlayerMap</text>
</g>
<!-- Node22 -->
<g id="node22" class="node"><title>Node22</title>
<polygon fill="white" stroke="#bfbfbf" points="577,-508.433 577,-527.433 715,-527.433 715,-508.433 577,-508.433"/>
<text text-anchor="middle" x="646" y="-515.433" font-family="Helvetica,sans-Serif" font-size="10.00">Map&lt; String, AudioClip &gt;</text>
</g>
<!-- Node22&#45;&gt;Node20 -->
<g id="edge25" class="edge"><title>Node22&#45;&gt;Node20</title>
<path fill="none" stroke="#9a32cd" stroke-dasharray="5,2" d="M706.373,-506.393C746.085,-498.358 799.404,-486.961 846,-474.933 867.388,-469.412 891.239,-462.21 909.432,-456.492"/>
<polygon fill="#9a32cd" stroke="#9a32cd" points="705.439,-503.01 696.325,-508.413 706.818,-509.873 705.439,-503.01"/>
<text text-anchor="middle" x="797" y="-500.933" font-family="Helvetica,sans-Serif" font-size="10.00"> myAudioClipMap</text>
</g>
<!-- Node23 -->
<g id="node23" class="node"><title>Node23</title>
<g id="a_node23"><a xlink:href="../../db/d2a/classauthoring_1_1model_1_1collections_1_1_conditions_collection.html" target="_top" xlink:title="authoring.model.collections.\lConditionsCollection">
<polygon fill="white" stroke="black" points="864,-116.933 864,-146.933 1016,-146.933 1016,-116.933 864,-116.933"/>
<text text-anchor="start" x="872" y="-134.933" font-family="Helvetica,sans-Serif" font-size="10.00">authoring.model.collections.</text>
<text text-anchor="middle" x="940" y="-123.933" font-family="Helvetica,sans-Serif" font-size="10.00">ConditionsCollection</text>
</a>
</g>
</g>
<!-- Node23&#45;&gt;Node1 -->
<g id="edge35" class="edge"><title>Node23&#45;&gt;Node1</title>
<path fill="none" stroke="#9a32cd" stroke-dasharray="5,2" d="M1026.2,-136.087C1118.23,-141.256 1269.02,-151.706 1398,-169.933 1407.1,-171.219 1416.76,-172.773 1426.09,-174.371"/>
<polygon fill="#9a32cd" stroke="#9a32cd" points="1026.28,-132.586 1016.1,-135.527 1025.89,-139.575 1026.28,-132.586"/>
<text text-anchor="middle" x="1213" y="-159.933" font-family="Helvetica,sans-Serif" font-size="10.00"> myGameConditions</text>
</g>
<!-- Node23&#45;&gt;Node4 -->
<g id="edge27" class="edge"><title>Node23&#45;&gt;Node4</title>
<path fill="none" stroke="#9a32cd" stroke-dasharray="5,2" d="M1001.56,-151.599C1006.74,-154.602 1011.66,-158.029 1016,-161.933 1028.72,-173.363 1020.73,-185.156 1034,-195.933 1062.72,-219.251 1080.36,-203.536 1114,-218.933 1147.26,-234.156 1182.2,-259.612 1200.01,-273.385"/>
<polygon fill="#9a32cd" stroke="#9a32cd" points="1003.11,-148.463 992.629,-146.937 999.873,-154.668 1003.11,-148.463"/>
<text text-anchor="middle" x="1074" y="-221.933" font-family="Helvetica,sans-Serif" font-size="10.00"> myConditions</text>
</g>
<!-- Node24 -->
<g id="node24" class="node"><title>Node24</title>
<g id="a_node24"><a xlink:href="../../d4/d3b/classauthoring_1_1model_1_1collections_1_1_general_collection.html" target="_top" xlink:title="authoring.model.collections.\lGeneralCollection\&lt; Condition \&gt;">
<polygon fill="white" stroke="black" points="562,-116.933 562,-146.933 730,-146.933 730,-116.933 562,-116.933"/>
<text text-anchor="start" x="570" y="-134.933" font-family="Helvetica,sans-Serif" font-size="10.00">authoring.model.collections.</text>
<text text-anchor="middle" x="646" y="-123.933" font-family="Helvetica,sans-Serif" font-size="10.00">GeneralCollection&lt; Condition &gt;</text>
</a>
</g>
</g>
<!-- Node24&#45;&gt;Node23 -->
<g id="edge28" class="edge"><title>Node24&#45;&gt;Node23</title>
<path fill="none" stroke="midnightblue" d="M740.523,-131.933C780.286,-131.933 826.039,-131.933 863.588,-131.933"/>
<polygon fill="midnightblue" stroke="midnightblue" points="740.285,-128.433 730.285,-131.933 740.285,-135.433 740.285,-128.433"/>
</g>
<!-- Node25 -->
<g id="node25" class="node"><title>Node25</title>
<polygon fill="white" stroke="#bfbfbf" points="1185,-39.4331 1185,-58.4331 1241,-58.4331 1241,-39.4331 1185,-39.4331"/>
<text text-anchor="middle" x="1213" y="-46.4331" font-family="Helvetica,sans-Serif" font-size="10.00">Timeline</text>
</g>
<!-- Node25&#45;&gt;Node1 -->
<g id="edge29" class="edge"><title>Node25&#45;&gt;Node1</title>
<path fill="none" stroke="#9a32cd" stroke-dasharray="5,2" d="M1251.12,-42.3626C1290.44,-37.3905 1352.94,-35.3294 1398,-61.9331 1442.33,-88.1044 1466.17,-150.036 1474.03,-174.116"/>
<polygon fill="#9a32cd" stroke="#9a32cd" points="1250.59,-38.9031 1241.16,-43.7469 1251.55,-45.8364 1250.59,-38.9031"/>
<text text-anchor="middle" x="1355" y="-64.9331" font-family="Helvetica,sans-Serif" font-size="10.00"> myAnimation</text>
</g>
<!-- Node26 -->
<g id="node26" class="node"><title>Node26</title>
<polygon fill="white" stroke="#bfbfbf" points="1132.5,-1.43314 1132.5,-20.4331 1293.5,-20.4331 1293.5,-1.43314 1132.5,-1.43314"/>
<text text-anchor="middle" x="1213" y="-8.43314" font-family="Helvetica,sans-Serif" font-size="10.00">EventHandler&lt; ActionEvent &gt;</text>
</g>
<!-- Node26&#45;&gt;Node1 -->
<g id="edge32" class="edge"><title>Node26&#45;&gt;Node1</title>
<path fill="none" stroke="#9a32cd" stroke-dasharray="5,2" d="M1281.73,-0.679362C1319,1.39803 1364.36,-2.27395 1398,-24.9331 1451.94,-61.2691 1470.63,-145.722 1475.54,-174.29"/>
<polygon fill="#9a32cd" stroke="#9a32cd" points="1281.18,2.7904 1271.45,-1.40675 1281.67,-4.19215 1281.18,2.7904"/>
<text text-anchor="middle" x="1355" y="-27.9331" font-family="Helvetica,sans-Serif" font-size="10.00"> oneFrame</text>
</g>
</g>
</svg>
