<?xml version="1.0" encoding="UTF-8" standalone="no"?>
<!DOCTYPE svg PUBLIC "-//W3C//DTD SVG 1.1//EN"
 "http://www.w3.org/Graphics/SVG/1.1/DTD/svg11.dtd">
<!-- Generated by graphviz version 2.36.0 (20140111.2315)
 -->
<!-- Title: authoring.view.propertiesview.PropertiesView Pages: 1 -->
<svg width="1482pt" height="1004pt"
 viewBox="0.00 0.00 1482.00 1004.00" xmlns="http://www.w3.org/2000/svg" xmlns:xlink="http://www.w3.org/1999/xlink">
<g id="graph0" class="graph" transform="scale(1 1) rotate(0) translate(4 1000)">
<title>authoring.view.propertiesview.PropertiesView</title>
<polygon fill="white" stroke="none" points="-4,4 -4,-1000 1478,-1000 1478,4 -4,4"/>
<!-- Node1 -->
<g id="node1" class="node"><title>Node1</title>
<polygon fill="#bfbfbf" stroke="black" points="1314.5,-820 1314.5,-850 1473.5,-850 1473.5,-820 1314.5,-820"/>
<text text-anchor="start" x="1322.5" y="-838" font-family="Helvetica,sans-Serif" font-size="10.00">authoring.view.propertiesview.</text>
<text text-anchor="middle" x="1394" y="-827" font-family="Helvetica,sans-Serif" font-size="10.00">PropertiesView</text>
</g>
<!-- Node2 -->
<g id="node2" class="node"><title>Node2</title>
<g id="a_node2"><a xlink:href="../../de/d93/classauthoring_1_1view_1_1baseclasses_1_1_collection_view.html" target="_top" xlink:title="authoring.view.baseclasses.\lCollectionView">
<polygon fill="white" stroke="black" points="982.5,-922 982.5,-952 1131.5,-952 1131.5,-922 982.5,-922"/>
<text text-anchor="start" x="990.5" y="-940" font-family="Helvetica,sans-Serif" font-size="10.00">authoring.view.baseclasses.</text>
<text text-anchor="middle" x="1057" y="-929" font-family="Helvetica,sans-Serif" font-size="10.00">CollectionView</text>
</a>
</g>
</g>
<!-- Node2&#45;&gt;Node1 -->
<g id="edge1" class="edge"><title>Node2&#45;&gt;Node1</title>
<path fill="none" stroke="midnightblue" d="M1141.57,-930.081C1188.17,-924.306 1246.6,-913.838 1296,-895 1325.05,-883.923 1354.95,-863.866 1373.73,-850.009"/>
<polygon fill="midnightblue" stroke="midnightblue" points="1141.03,-926.621 1131.51,-931.278 1141.85,-933.572 1141.03,-926.621"/>
</g>
<!-- Node3 -->
<g id="node3" class="node"><title>Node3</title>
<polygon fill="white" stroke="#bfbfbf" points="678,-976.5 678,-995.5 744,-995.5 744,-976.5 678,-976.5"/>
<text text-anchor="middle" x="711" y="-983.5" font-family="Helvetica,sans-Serif" font-size="10.00">ScrollPane</text>
</g>
<!-- Node3&#45;&gt;Node2 -->
<g id="edge2" class="edge"><title>Node3&#45;&gt;Node2</title>
<path fill="none" stroke="midnightblue" d="M754.374,-982.131C802.443,-977.493 883.105,-968.955 952,-958 962.915,-956.264 974.426,-954.189 985.655,-952.028"/>
<polygon fill="midnightblue" stroke="midnightblue" points="753.959,-978.655 744.337,-983.088 754.624,-985.623 753.959,-978.655"/>
</g>
<!-- Node4 -->
<g id="node4" class="node"><title>Node4</title>
<polygon fill="white" stroke="#bfbfbf" points="664.5,-938.5 664.5,-957.5 757.5,-957.5 757.5,-938.5 664.5,-938.5"/>
<text text-anchor="middle" x="711" y="-945.5" font-family="Helvetica,sans-Serif" font-size="10.00">ResourceBundle</text>
</g>
<!-- Node4&#45;&gt;Node2 -->
<g id="edge3" class="edge"><title>Node4&#45;&gt;Node2</title>
<path fill="none" stroke="#9a32cd" stroke-dasharray="5,2" d="M767.821,-946.215C826.206,-944.348 918.128,-941.409 982.411,-939.353"/>
<polygon fill="#9a32cd" stroke="#9a32cd" points="767.564,-942.721 757.681,-946.539 767.787,-949.718 767.564,-942.721"/>
<text text-anchor="middle" x="897" y="-946" font-family="Helvetica,sans-Serif" font-size="10.00"> myLanguage</text>
</g>
<!-- Node5 -->
<g id="node5" class="node"><title>Node5</title>
<g id="a_node5"><a xlink:href="../../d3/d6a/interfaceauthoring_1_1eventhandlers_1_1_game_handler.html" target="_top" xlink:title="authoring.eventhandlers.\lGameHandler\&lt; T extends\l Event \&gt;">
<polygon fill="white" stroke="black" points="640.5,-863.5 640.5,-904.5 781.5,-904.5 781.5,-863.5 640.5,-863.5"/>
<text text-anchor="start" x="648.5" y="-892.5" font-family="Helvetica,sans-Serif" font-size="10.00">authoring.eventhandlers.</text>
<text text-anchor="start" x="648.5" y="-881.5" font-family="Helvetica,sans-Serif" font-size="10.00">GameHandler&lt; T extends</text>
<text text-anchor="middle" x="711" y="-870.5" font-family="Helvetica,sans-Serif" font-size="10.00"> Event &gt;</text>
</a>
</g>
</g>
<!-- Node5&#45;&gt;Node1 -->
<g id="edge39" class="edge"><title>Node5&#45;&gt;Node1</title>
<path fill="none" stroke="#9a32cd" stroke-dasharray="5,2" d="M792.081,-881.318C904.764,-877.063 1116.44,-867.307 1296,-849 1302.01,-848.387 1308.22,-847.675 1314.45,-846.903"/>
<polygon fill="#9a32cd" stroke="#9a32cd" points="791.684,-877.83 781.821,-881.701 791.945,-884.825 791.684,-877.83"/>
<text text-anchor="middle" x="1057" y="-876" font-family="Helvetica,sans-Serif" font-size="10.00"> myButtonBehaviors</text>
</g>
<!-- Node5&#45;&gt;Node2 -->
<g id="edge4" class="edge"><title>Node5&#45;&gt;Node2</title>
<path fill="none" stroke="#9a32cd" stroke-dasharray="5,2" d="M791.75,-896.287C849.247,-905.146 926.277,-917.014 982.329,-925.649"/>
<polygon fill="#9a32cd" stroke="#9a32cd" points="792.03,-892.789 781.614,-894.725 790.964,-899.707 792.03,-892.789"/>
<text text-anchor="middle" x="897" y="-922" font-family="Helvetica,sans-Serif" font-size="10.00"> myIconEvents</text>
</g>
<!-- Node8 -->
<g id="node8" class="node"><title>Node8</title>
<g id="a_node8"><a xlink:href="../../da/d8d/classauthoring_1_1view_1_1propertiesview_1_1_game_object_properties.html" target="_top" xlink:title="authoring.view.propertiesview.\lGameObjectProperties">
<polygon fill="white" stroke="black" points="977.5,-681 977.5,-711 1136.5,-711 1136.5,-681 977.5,-681"/>
<text text-anchor="start" x="985.5" y="-699" font-family="Helvetica,sans-Serif" font-size="10.00">authoring.view.propertiesview.</text>
<text text-anchor="middle" x="1057" y="-688" font-family="Helvetica,sans-Serif" font-size="10.00">GameObjectProperties</text>
</a>
</g>
</g>
<!-- Node5&#45;&gt;Node8 -->
<g id="edge15" class="edge"><title>Node5&#45;&gt;Node8</title>
<path fill="none" stroke="#9a32cd" stroke-dasharray="5,2" d="M738.697,-856.27C763.297,-832.387 801.958,-798.872 842,-780 887.18,-758.706 905.403,-774.982 952,-757 982.66,-745.168 1014.83,-724.906 1035.13,-711.004"/>
<polygon fill="#9a32cd" stroke="#9a32cd" points="736.187,-853.83 731.528,-863.345 741.104,-858.812 736.187,-853.83"/>
<text text-anchor="middle" x="897" y="-805" font-family="Helvetica,sans-Serif" font-size="10.00"> myDeleteHandler</text>
<text text-anchor="middle" x="897" y="-794" font-family="Helvetica,sans-Serif" font-size="10.00">mySaveAsNewHandler</text>
<text text-anchor="middle" x="897" y="-783" font-family="Helvetica,sans-Serif" font-size="10.00">myEditHandler</text>
</g>
<!-- Node6 -->
<g id="node6" class="node"><title>Node6</title>
<polygon fill="white" stroke="#bfbfbf" points="245,-874.5 245,-893.5 421,-893.5 421,-874.5 245,-874.5"/>
<text text-anchor="middle" x="333" y="-881.5" font-family="Helvetica,sans-Serif" font-size="10.00">javafx::event::EventHandler&lt; T &gt;</text>
</g>
<!-- Node6&#45;&gt;Node5 -->
<g id="edge5" class="edge"><title>Node6&#45;&gt;Node5</title>
<path fill="none" stroke="midnightblue" d="M431.532,-884C496.932,-884 581.511,-884 640.213,-884"/>
<polygon fill="midnightblue" stroke="midnightblue" points="431.207,-880.5 421.207,-884 431.207,-887.5 431.207,-880.5"/>
</g>
<!-- Node7 -->
<g id="node7" class="node"><title>Node7</title>
<polygon fill="white" stroke="#bfbfbf" points="312.5,-792.5 312.5,-811.5 353.5,-811.5 353.5,-792.5 312.5,-792.5"/>
<text text-anchor="middle" x="333" y="-799.5" font-family="Helvetica,sans-Serif" font-size="10.00">VBox</text>
</g>
<!-- Node7&#45;&gt;Node1 -->
<g id="edge6" class="edge"><title>Node7&#45;&gt;Node1</title>
<path fill="none" stroke="#9a32cd" stroke-dasharray="5,2" d="M364.159,-802.94C504.826,-807.323 1098.69,-825.829 1314.33,-832.549"/>
<polygon fill="#9a32cd" stroke="#9a32cd" points="363.849,-799.429 353.745,-802.615 363.631,-806.425 363.849,-799.429"/>
<text text-anchor="middle" x="897" y="-824" font-family="Helvetica,sans-Serif" font-size="10.00"> myContents</text>
</g>
<!-- Node9 -->
<g id="node9" class="node"><title>Node9</title>
<g id="a_node9"><a xlink:href="../../de/d73/classauthoring_1_1view_1_1propertiesview_1_1_properties.html" target="_top" xlink:title="authoring.view.propertiesview.\lProperties">
<polygon fill="white" stroke="black" points="631.5,-687 631.5,-717 790.5,-717 790.5,-687 631.5,-687"/>
<text text-anchor="start" x="639.5" y="-705" font-family="Helvetica,sans-Serif" font-size="10.00">authoring.view.propertiesview.</text>
<text text-anchor="middle" x="711" y="-694" font-family="Helvetica,sans-Serif" font-size="10.00">Properties</text>
</a>
</g>
</g>
<!-- Node7&#45;&gt;Node9 -->
<g id="edge9" class="edge"><title>Node7&#45;&gt;Node9</title>
<path fill="none" stroke="midnightblue" d="M363.626,-792.984C412.307,-778.306 512.371,-748.701 598,-727 611.422,-723.598 625.811,-720.201 639.653,-717.057"/>
<polygon fill="midnightblue" stroke="midnightblue" points="362.325,-789.721 353.766,-795.966 364.351,-796.422 362.325,-789.721"/>
</g>
<!-- Node8&#45;&gt;Node1 -->
<g id="edge7" class="edge"><title>Node8&#45;&gt;Node1</title>
<path fill="none" stroke="#9a32cd" stroke-dasharray="5,2" d="M1103.66,-714.948C1170.93,-742.858 1295.3,-794.462 1356.73,-819.95"/>
<polygon fill="#9a32cd" stroke="#9a32cd" points="1104.75,-711.607 1094.17,-711.008 1102.06,-718.073 1104.75,-711.607"/>
<text text-anchor="middle" x="1229" y="-796" font-family="Helvetica,sans-Serif" font-size="10.00"> myGameObjectsProperties</text>
</g>
<!-- Node9&#45;&gt;Node8 -->
<g id="edge8" class="edge"><title>Node9&#45;&gt;Node8</title>
<path fill="none" stroke="midnightblue" d="M800.667,-695.039C814.495,-694.191 828.627,-693.462 842,-693 890.86,-691.311 903.116,-692.295 952,-693 960.218,-693.119 968.8,-693.29 977.357,-693.491"/>
<polygon fill="midnightblue" stroke="midnightblue" points="800.426,-691.548 790.668,-695.676 800.87,-698.533 800.426,-691.548"/>
</g>
<!-- Node10 -->
<g id="node10" class="node"><title>Node10</title>
<polygon fill="white" stroke="#bfbfbf" points="220.5,-687 220.5,-717 445.5,-717 445.5,-687 220.5,-687"/>
<text text-anchor="start" x="228.5" y="-705" font-family="Helvetica,sans-Serif" font-size="10.00">Map&lt; String, authoring.view.propertiesview.</text>
<text text-anchor="middle" x="333" y="-694" font-family="Helvetica,sans-Serif" font-size="10.00">PropertyField &gt;</text>
</g>
<!-- Node10&#45;&gt;Node9 -->
<g id="edge10" class="edge"><title>Node10&#45;&gt;Node9</title>
<path fill="none" stroke="#9a32cd" stroke-dasharray="5,2" d="M455.808,-702C513.415,-702 580.528,-702 631.323,-702"/>
<polygon fill="#9a32cd" stroke="#9a32cd" points="455.54,-698.5 445.54,-702 455.54,-705.5 455.54,-698.5"/>
<text text-anchor="middle" x="522" y="-705" font-family="Helvetica,sans-Serif" font-size="10.00"> myMap</text>
</g>
<!-- Node11 -->
<g id="node11" class="node"><title>Node11</title>
<polygon fill="white" stroke="#bfbfbf" points="640.5,-599.5 640.5,-618.5 781.5,-618.5 781.5,-599.5 640.5,-599.5"/>
<text text-anchor="middle" x="711" y="-606.5" font-family="Helvetica,sans-Serif" font-size="10.00">Map&lt; String, CheckBox &gt;</text>
</g>
<!-- Node11&#45;&gt;Node8 -->
<g id="edge11" class="edge"><title>Node11&#45;&gt;Node8</title>
<path fill="none" stroke="#9a32cd" stroke-dasharray="5,2" d="M791.806,-617.039C839.077,-623.093 899.752,-633.135 952,-649 978.732,-657.117 1007.57,-670.551 1028.08,-680.982"/>
<polygon fill="#9a32cd" stroke="#9a32cd" points="791.982,-613.534 781.625,-615.77 791.116,-620.48 791.982,-613.534"/>
<text text-anchor="middle" x="897" y="-652" font-family="Helvetica,sans-Serif" font-size="10.00"> booleanProperties</text>
</g>
<!-- Node12 -->
<g id="node12" class="node"><title>Node12</title>
<polygon fill="white" stroke="#bfbfbf" points="598.5,-736 598.5,-766 823.5,-766 823.5,-736 598.5,-736"/>
<text text-anchor="start" x="606.5" y="-754" font-family="Helvetica,sans-Serif" font-size="10.00">Map&lt; String, authoring.view.propertiesview.</text>
<text text-anchor="middle" x="711" y="-743" font-family="Helvetica,sans-Serif" font-size="10.00">PropertyTextField &gt;</text>
</g>
<!-- Node12&#45;&gt;Node8 -->
<g id="edge12" class="edge"><title>Node12&#45;&gt;Node8</title>
<path fill="none" stroke="#9a32cd" stroke-dasharray="5,2" d="M806.316,-732.915C812.391,-730.844 818.336,-728.547 824,-726 833,-721.953 832.738,-716.406 842,-713 884.938,-697.211 935.9,-692.655 977.32,-692.189"/>
<polygon fill="#9a32cd" stroke="#9a32cd" points="805.151,-729.613 796.687,-735.986 807.278,-736.282 805.151,-729.613"/>
<text text-anchor="middle" x="897" y="-749" font-family="Helvetica,sans-Serif" font-size="10.00"> physicsProperties</text>
<text text-anchor="middle" x="897" y="-738" font-family="Helvetica,sans-Serif" font-size="10.00">wizardProperties</text>
<text text-anchor="middle" x="897" y="-727" font-family="Helvetica,sans-Serif" font-size="10.00">concreteTextProperties</text>
<text text-anchor="middle" x="897" y="-716" font-family="Helvetica,sans-Serif" font-size="10.00">inherentTextProperties</text>
</g>
<!-- Node13 -->
<g id="node13" class="node"><title>Node13</title>
<g id="a_node13"><a xlink:href="../../dd/db2/classauthoring_1_1view_1_1baseclasses_1_1_accordion_container.html" target="_top" xlink:title="authoring.view.baseclasses.\lAccordionContainer">
<polygon fill="white" stroke="black" points="636.5,-638 636.5,-668 785.5,-668 785.5,-638 636.5,-638"/>
<text text-anchor="start" x="644.5" y="-656" font-family="Helvetica,sans-Serif" font-size="10.00">authoring.view.baseclasses.</text>
<text text-anchor="middle" x="711" y="-645" font-family="Helvetica,sans-Serif" font-size="10.00">AccordionContainer</text>
</a>
</g>
</g>
<!-- Node13&#45;&gt;Node8 -->
<g id="edge13" class="edge"><title>Node13&#45;&gt;Node8</title>
<path fill="none" stroke="#9a32cd" stroke-dasharray="5,2" d="M795.68,-659.692C841.885,-663.808 900.237,-669.696 952,-677 960.269,-678.167 968.884,-679.519 977.461,-680.954"/>
<polygon fill="#9a32cd" stroke="#9a32cd" points="795.981,-656.205 785.713,-658.815 795.367,-663.178 795.981,-656.205"/>
<text text-anchor="middle" x="897" y="-680" font-family="Helvetica,sans-Serif" font-size="10.00"> myAccordion</text>
</g>
<!-- Node14 -->
<g id="node14" class="node"><title>Node14</title>
<polygon fill="white" stroke="#bfbfbf" points="301,-643.5 301,-662.5 365,-662.5 365,-643.5 301,-643.5"/>
<text text-anchor="middle" x="333" y="-650.5" font-family="Helvetica,sans-Serif" font-size="10.00">Accordion</text>
</g>
<!-- Node14&#45;&gt;Node13 -->
<g id="edge14" class="edge"><title>Node14&#45;&gt;Node13</title>
<path fill="none" stroke="midnightblue" d="M375.39,-653C438.172,-653 558.396,-653 636.34,-653"/>
<polygon fill="midnightblue" stroke="midnightblue" points="375.09,-649.5 365.09,-653 375.09,-656.5 375.09,-649.5"/>
</g>
<!-- Node15 -->
<g id="node15" class="node"><title>Node15</title>
<g id="a_node15"><a xlink:href="../../d0/d7f/classengine_1_1game_object_1_1_game_object.html" target="_top" xlink:title="engine.gameObject.GameObject">
<polygon fill="white" stroke="black" points="970.5,-403.5 970.5,-422.5 1143.5,-422.5 1143.5,-403.5 970.5,-403.5"/>
<text text-anchor="middle" x="1057" y="-410.5" font-family="Helvetica,sans-Serif" font-size="10.00">engine.gameObject.GameObject</text>
</a>
</g>
</g>
<!-- Node15&#45;&gt;Node1 -->
<g id="edge16" class="edge"><title>Node15&#45;&gt;Node1</title>
<path fill="none" stroke="#9a32cd" stroke-dasharray="5,2" d="M1071.85,-430.449C1126.86,-499.741 1329.39,-754.866 1380.98,-819.856"/>
<polygon fill="#9a32cd" stroke="#9a32cd" points="1074.59,-428.263 1065.63,-422.607 1069.1,-432.615 1074.59,-428.263"/>
<text text-anchor="middle" x="1229" y="-713" font-family="Helvetica,sans-Serif" font-size="10.00"> myCurrentGameObject</text>
</g>
<!-- Node16 -->
<g id="node16" class="node"><title>Node16</title>
<g id="a_node16"><a xlink:href="../../d7/de6/interfaceengine_1_1game_object_1_1_i_enabled.html" target="_top" xlink:title="engine.gameObject.IEnabled">
<polygon fill="white" stroke="black" points="634,-561.5 634,-580.5 788,-580.5 788,-561.5 634,-561.5"/>
<text text-anchor="middle" x="711" y="-568.5" font-family="Helvetica,sans-Serif" font-size="10.00">engine.gameObject.IEnabled</text>
</a>
</g>
</g>
<!-- Node16&#45;&gt;Node15 -->
<g id="edge17" class="edge"><title>Node16&#45;&gt;Node15</title>
<path fill="none" stroke="midnightblue" d="M798.217,-563.012C846.097,-555.611 905.248,-541.372 952,-514 994.788,-488.948 1033.31,-442.643 1048.79,-422.629"/>
<polygon fill="midnightblue" stroke="midnightblue" points="797.563,-559.571 788.18,-564.49 798.583,-566.496 797.563,-559.571"/>
</g>
<!-- Node17 -->
<g id="node17" class="node"><title>Node17</title>
<polygon fill="white" stroke="#bfbfbf" points="645.5,-523.5 645.5,-542.5 776.5,-542.5 776.5,-523.5 645.5,-523.5"/>
<text text-anchor="middle" x="711" y="-530.5" font-family="Helvetica,sans-Serif" font-size="10.00">Iterable&lt; Component &gt;</text>
</g>
<!-- Node17&#45;&gt;Node15 -->
<g id="edge18" class="edge"><title>Node17&#45;&gt;Node15</title>
<path fill="none" stroke="midnightblue" d="M786.778,-525.597C835.423,-518.831 899.366,-506.191 952,-483 988.647,-466.853 1026.34,-437.755 1044.64,-422.665"/>
<polygon fill="midnightblue" stroke="midnightblue" points="786.086,-522.158 776.639,-526.953 787.015,-529.096 786.086,-522.158"/>
</g>
<!-- Node18 -->
<g id="node18" class="node"><title>Node18</title>
<g id="a_node18"><a xlink:href="../../dc/df6/interfaceengine_1_1game_object_1_1_identifiable.html" target="_top" xlink:title="engine.gameObject.Identifiable">
<polygon fill="white" stroke="black" points="628.5,-485.5 628.5,-504.5 793.5,-504.5 793.5,-485.5 628.5,-485.5"/>
<text text-anchor="middle" x="711" y="-492.5" font-family="Helvetica,sans-Serif" font-size="10.00">engine.gameObject.Identifiable</text>
</a>
</g>
</g>
<!-- Node18&#45;&gt;Node15 -->
<g id="edge19" class="edge"><title>Node18&#45;&gt;Node15</title>
<path fill="none" stroke="midnightblue" d="M803.699,-485.793C848.914,-479.918 903.924,-470.754 952,-457 982.912,-448.157 1016.9,-432.586 1037.34,-422.537"/>
<polygon fill="midnightblue" stroke="midnightblue" points="803.096,-482.342 793.615,-487.071 803.976,-489.286 803.096,-482.342"/>
</g>
<!-- Node19 -->
<g id="node19" class="node"><title>Node19</title>
<g id="a_node19"><a xlink:href="../../d4/dac/classengine_1_1game_object_1_1_identifier.html" target="_top" xlink:title="engine.gameObject.Identifier">
<polygon fill="white" stroke="black" points="633.5,-447.5 633.5,-466.5 788.5,-466.5 788.5,-447.5 633.5,-447.5"/>
<text text-anchor="middle" x="711" y="-454.5" font-family="Helvetica,sans-Serif" font-size="10.00">engine.gameObject.Identifier</text>
</a>
</g>
</g>
<!-- Node19&#45;&gt;Node15 -->
<g id="edge20" class="edge"><title>Node19&#45;&gt;Node15</title>
<path fill="none" stroke="#9a32cd" stroke-dasharray="5,2" d="M798.685,-447.013C844.334,-441.63 901.232,-434.728 952,-428 964.84,-426.299 978.557,-424.387 991.678,-422.513"/>
<polygon fill="#9a32cd" stroke="#9a32cd" points="798.051,-443.563 788.528,-448.207 798.868,-450.515 798.051,-443.563"/>
<text text-anchor="middle" x="897" y="-445" font-family="Helvetica,sans-Serif" font-size="10.00"> myId</text>
</g>
<!-- Node20 -->
<g id="node20" class="node"><title>Node20</title>
<polygon fill="white" stroke="#bfbfbf" points="305,-447.5 305,-466.5 361,-466.5 361,-447.5 305,-447.5"/>
<text text-anchor="middle" x="333" y="-454.5" font-family="Helvetica,sans-Serif" font-size="10.00">Random</text>
</g>
<!-- Node20&#45;&gt;Node19 -->
<g id="edge21" class="edge"><title>Node20&#45;&gt;Node19</title>
<path fill="none" stroke="#9a32cd" stroke-dasharray="5,2" d="M371.298,-457C432.013,-457 553.435,-457 633.188,-457"/>
<polygon fill="#9a32cd" stroke="#9a32cd" points="371.041,-453.5 361.041,-457 371.041,-460.5 371.041,-453.5"/>
<text text-anchor="middle" x="522" y="-460" font-family="Helvetica,sans-Serif" font-size="10.00"> r</text>
</g>
<!-- Node21 -->
<g id="node21" class="node"><title>Node21</title>
<g id="a_node21"><a xlink:href="../../da/d35/classengine_1_1scrolling_1_1_scrolling_utility.html" target="_top" xlink:title="engine.scrolling.Scrolling\lUtility">
<polygon fill="white" stroke="black" points="644,-398 644,-428 778,-428 778,-398 644,-398"/>
<text text-anchor="start" x="652" y="-416" font-family="Helvetica,sans-Serif" font-size="10.00">engine.scrolling.Scrolling</text>
<text text-anchor="middle" x="711" y="-405" font-family="Helvetica,sans-Serif" font-size="10.00">Utility</text>
</a>
</g>
</g>
<!-- Node21&#45;&gt;Node15 -->
<g id="edge22" class="edge"><title>Node21&#45;&gt;Node15</title>
<path fill="none" stroke="#9a32cd" stroke-dasharray="5,2" d="M788.503,-413C842.361,-413 914.509,-413 970.303,-413"/>
<polygon fill="#9a32cd" stroke="#9a32cd" points="788.327,-409.5 778.327,-413 788.327,-416.5 788.327,-409.5"/>
<text text-anchor="middle" x="897" y="-416" font-family="Helvetica,sans-Serif" font-size="10.00"> myScrollingUtility</text>
</g>
<!-- Node22 -->
<g id="node22" class="node"><title>Node22</title>
<polygon fill="white" stroke="#bfbfbf" points="305.5,-403.5 305.5,-422.5 360.5,-422.5 360.5,-403.5 305.5,-403.5"/>
<text text-anchor="middle" x="333" y="-410.5" font-family="Helvetica,sans-Serif" font-size="10.00">Camera</text>
</g>
<!-- Node22&#45;&gt;Node21 -->
<g id="edge23" class="edge"><title>Node22&#45;&gt;Node21</title>
<path fill="none" stroke="#9a32cd" stroke-dasharray="5,2" d="M371.047,-413C434.427,-413 564.484,-413 643.786,-413"/>
<polygon fill="#9a32cd" stroke="#9a32cd" points="370.74,-409.5 360.74,-413 370.74,-416.5 370.74,-409.5"/>
<text text-anchor="middle" x="522" y="-416" font-family="Helvetica,sans-Serif" font-size="10.00"> myCamera</text>
</g>
<!-- Node23 -->
<g id="node23" class="node"><title>Node23</title>
<polygon fill="white" stroke="#bfbfbf" points="231,-343 231,-373 435,-373 435,-343 231,-343"/>
<text text-anchor="start" x="239" y="-361" font-family="Helvetica,sans-Serif" font-size="10.00">List&lt; engine.gameObject.components.</text>
<text text-anchor="middle" x="333" y="-350" font-family="Helvetica,sans-Serif" font-size="10.00">Component &gt;</text>
</g>
<!-- Node23&#45;&gt;Node15 -->
<g id="edge24" class="edge"><title>Node23&#45;&gt;Node15</title>
<path fill="none" stroke="#9a32cd" stroke-dasharray="5,2" d="M443.754,-341.745C543.522,-329.805 694.486,-318.845 824,-339 903.58,-351.384 993.191,-386.314 1033.84,-403.378"/>
<polygon fill="#9a32cd" stroke="#9a32cd" points="443.161,-338.291 433.659,-342.977 444.009,-345.239 443.161,-338.291"/>
<text text-anchor="middle" x="711" y="-342" font-family="Helvetica,sans-Serif" font-size="10.00"> myComponents</text>
</g>
<!-- Node36 -->
<g id="node36" class="node"><title>Node36</title>
<g id="a_node36"><a xlink:href="../../d6/d66/classengine_1_1game_object_1_1_default_data.html" target="_top" xlink:title="engine.gameObject.DefaultData">
<polygon fill="white" stroke="black" points="625.5,-359.5 625.5,-378.5 796.5,-378.5 796.5,-359.5 625.5,-359.5"/>
<text text-anchor="middle" x="711" y="-366.5" font-family="Helvetica,sans-Serif" font-size="10.00">engine.gameObject.DefaultData</text>
</a>
</g>
</g>
<!-- Node23&#45;&gt;Node36 -->
<g id="edge38" class="edge"><title>Node23&#45;&gt;Node36</title>
<path fill="none" stroke="#9a32cd" stroke-dasharray="5,2" d="M445.501,-361.262C503.108,-362.947 572.267,-364.971 625.417,-366.526"/>
<polygon fill="#9a32cd" stroke="#9a32cd" points="445.354,-357.756 435.256,-360.962 445.149,-364.753 445.354,-357.756"/>
<text text-anchor="middle" x="522" y="-369" font-family="Helvetica,sans-Serif" font-size="10.00"> myComponents</text>
</g>
<!-- Node24 -->
<g id="node24" class="node"><title>Node24</title>
<g id="a_node24"><a xlink:href="../../d2/d82/classengine_1_1render_1_1_rendered_node.html" target="_top" xlink:title="engine.render.RenderedNode">
<polygon fill="white" stroke="black" points="633,-236.5 633,-255.5 789,-255.5 789,-236.5 633,-236.5"/>
<text text-anchor="middle" x="711" y="-243.5" font-family="Helvetica,sans-Serif" font-size="10.00">engine.render.RenderedNode</text>
</a>
</g>
</g>
<!-- Node24&#45;&gt;Node15 -->
<g id="edge25" class="edge"><title>Node24&#45;&gt;Node15</title>
<path fill="none" stroke="#9a32cd" stroke-dasharray="5,2" d="M786.299,-235.728C836.309,-232.453 901.994,-235.492 952,-264 1009.55,-296.81 1042.67,-376.055 1052.71,-403.474"/>
<polygon fill="#9a32cd" stroke="#9a32cd" points="785.906,-232.247 776.197,-236.488 786.431,-239.228 785.906,-232.247"/>
<text text-anchor="middle" x="897" y="-267" font-family="Helvetica,sans-Serif" font-size="10.00"> myRenderedNode</text>
</g>
<!-- Node25 -->
<g id="node25" class="node"><title>Node25</title>
<polygon fill="white" stroke="#bfbfbf" points="310,-220.5 310,-239.5 356,-239.5 356,-220.5 310,-220.5"/>
<text text-anchor="middle" x="333" y="-227.5" font-family="Helvetica,sans-Serif" font-size="10.00">Group</text>
</g>
<!-- Node25&#45;&gt;Node24 -->
<g id="edge26" class="edge"><title>Node25&#45;&gt;Node24</title>
<path fill="none" stroke="midnightblue" d="M366.275,-231.373C424.996,-233.872 550.8,-239.226 632.827,-242.716"/>
<polygon fill="midnightblue" stroke="midnightblue" points="366.257,-227.87 356.117,-230.941 365.959,-234.863 366.257,-227.87"/>
</g>
<!-- Node26 -->
<g id="node26" class="node"><title>Node26</title>
<polygon fill="white" stroke="#bfbfbf" points="312,-182.5 312,-201.5 354,-201.5 354,-182.5 312,-182.5"/>
<text text-anchor="middle" x="333" y="-189.5" font-family="Helvetica,sans-Serif" font-size="10.00">Label</text>
</g>
<!-- Node26&#45;&gt;Node24 -->
<g id="edge27" class="edge"><title>Node26&#45;&gt;Node24</title>
<path fill="none" stroke="#9a32cd" stroke-dasharray="5,2" d="M364.164,-194.843C410.646,-199.385 502.527,-209 580,-221 608.277,-225.38 639.797,-231.412 664.718,-236.454"/>
<polygon fill="#9a32cd" stroke="#9a32cd" points="364.447,-191.354 354.156,-193.875 363.773,-198.322 364.447,-191.354"/>
<text text-anchor="middle" x="522" y="-224" font-family="Helvetica,sans-Serif" font-size="10.00"> myLabel</text>
</g>
<!-- Node27 -->
<g id="node27" class="node"><title>Node27</title>
<polygon fill="white" stroke="#bfbfbf" points="299,-296.5 299,-315.5 367,-315.5 367,-296.5 299,-296.5"/>
<text text-anchor="middle" x="333" y="-303.5" font-family="Helvetica,sans-Serif" font-size="10.00">ImageView</text>
</g>
<!-- Node27&#45;&gt;Node24 -->
<g id="edge28" class="edge"><title>Node27&#45;&gt;Node24</title>
<path fill="none" stroke="#9a32cd" stroke-dasharray="5,2" d="M377.398,-306.218C427.548,-305.228 511.906,-299.701 580,-276 588.855,-272.918 589.22,-268.288 598,-265 608.99,-260.885 620.921,-257.656 632.763,-255.124"/>
<polygon fill="#9a32cd" stroke="#9a32cd" points="377.182,-302.721 367.234,-306.365 377.283,-309.72 377.182,-302.721"/>
<text text-anchor="middle" x="522" y="-304" font-family="Helvetica,sans-Serif" font-size="10.00"> myImageView</text>
</g>
<!-- Node28 -->
<g id="node28" class="node"><title>Node28</title>
<polygon fill="white" stroke="#bfbfbf" points="312,-258.5 312,-277.5 354,-277.5 354,-258.5 312,-258.5"/>
<text text-anchor="middle" x="333" y="-265.5" font-family="Helvetica,sans-Serif" font-size="10.00">Node</text>
</g>
<!-- Node28&#45;&gt;Node24 -->
<g id="edge29" class="edge"><title>Node28&#45;&gt;Node24</title>
<path fill="none" stroke="#9a32cd" stroke-dasharray="5,2" d="M364.523,-266.214C422.48,-262.823 550.061,-255.358 632.911,-250.511"/>
<polygon fill="#9a32cd" stroke="#9a32cd" points="363.994,-262.739 354.215,-266.817 364.403,-269.727 363.994,-262.739"/>
<text text-anchor="middle" x="522" y="-264" font-family="Helvetica,sans-Serif" font-size="10.00"> myCollisionBody</text>
</g>
<!-- Node29 -->
<g id="node29" class="node"><title>Node29</title>
<polygon fill="white" stroke="#bfbfbf" points="695,-274.5 695,-293.5 727,-293.5 727,-274.5 695,-274.5"/>
<text text-anchor="middle" x="711" y="-281.5" font-family="Helvetica,sans-Serif" font-size="10.00">File</text>
</g>
<!-- Node29&#45;&gt;Node15 -->
<g id="edge30" class="edge"><title>Node29&#45;&gt;Node15</title>
<path fill="none" stroke="#9a32cd" stroke-dasharray="5,2" d="M737.444,-280.624C782.983,-275.757 880.355,-270.764 952,-305 999.208,-327.558 1036.4,-381.272 1050.2,-403.311"/>
<polygon fill="#9a32cd" stroke="#9a32cd" points="736.81,-277.174 727.28,-281.803 737.616,-284.127 736.81,-277.174"/>
<text text-anchor="middle" x="897" y="-308" font-family="Helvetica,sans-Serif" font-size="10.00"> gameLocationFile</text>
</g>
<!-- Node30 -->
<g id="node30" class="node"><title>Node30</title>
<g id="a_node30"><a xlink:href="../../d9/d9d/classengine_1_1game_object_1_1components_1_1_physics_body.html" target="_top" xlink:title="engine.gameObject.components.\lPhysicsBody">
<polygon fill="white" stroke="black" points="623,-83 623,-113 799,-113 799,-83 623,-83"/>
<text text-anchor="start" x="631" y="-101" font-family="Helvetica,sans-Serif" font-size="10.00">engine.gameObject.components.</text>
<text text-anchor="middle" x="711" y="-90" font-family="Helvetica,sans-Serif" font-size="10.00">PhysicsBody</text>
</a>
</g>
</g>
<!-- Node30&#45;&gt;Node15 -->
<g id="edge31" class="edge"><title>Node30&#45;&gt;Node15</title>
<path fill="none" stroke="#9a32cd" stroke-dasharray="5,2" d="M770.022,-116.519C822.737,-135.736 899.991,-170.165 952,-221 1009.74,-277.441 1043.4,-372.878 1053.07,-403.346"/>
<polygon fill="#9a32cd" stroke="#9a32cd" points="771.07,-113.177 760.476,-113.107 768.714,-119.768 771.07,-113.177"/>
<text text-anchor="middle" x="897" y="-224" font-family="Helvetica,sans-Serif" font-size="10.00"> myPhysicsBody</text>
</g>
<!-- Node31 -->
<g id="node31" class="node"><title>Node31</title>
<polygon fill="white" stroke="#bfbfbf" points="255,-49 255,-79 411,-79 411,-49 255,-49"/>
<text text-anchor="start" x="263" y="-67" font-family="Helvetica,sans-Serif" font-size="10.00">Map&lt; String, engine.physics.</text>
<text text-anchor="middle" x="333" y="-56" font-family="Helvetica,sans-Serif" font-size="10.00">Scalar &gt;</text>
</g>
<!-- Node31&#45;&gt;Node30 -->
<g id="edge32" class="edge"><title>Node31&#45;&gt;Node30</title>
<path fill="none" stroke="#9a32cd" stroke-dasharray="5,2" d="M421.25,-69.3308C468.32,-72.4721 527.391,-76.841 580,-82 593.805,-83.3538 608.412,-84.9708 622.655,-86.6488"/>
<polygon fill="#9a32cd" stroke="#9a32cd" points="421.299,-65.8265 411.09,-68.6593 420.838,-72.8113 421.299,-65.8265"/>
<text text-anchor="middle" x="522" y="-85" font-family="Helvetica,sans-Serif" font-size="10.00"> myConstants</text>
</g>
<!-- Node32 -->
<g id="node32" class="node"><title>Node32</title>
<polygon fill="white" stroke="#bfbfbf" points="255,-0 255,-30 411,-30 411,-0 255,-0"/>
<text text-anchor="start" x="263" y="-18" font-family="Helvetica,sans-Serif" font-size="10.00">Map&lt; String, engine.physics.</text>
<text text-anchor="middle" x="333" y="-7" font-family="Helvetica,sans-Serif" font-size="10.00">Force &gt;</text>
</g>
<!-- Node32&#45;&gt;Node30 -->
<g id="edge33" class="edge"><title>Node32&#45;&gt;Node30</title>
<path fill="none" stroke="#9a32cd" stroke-dasharray="5,2" d="M421.145,-27.5026C468.439,-34.9716 527.754,-45.4482 580,-58 608.93,-64.9502 640.874,-74.7488 665.858,-82.9081"/>
<polygon fill="#9a32cd" stroke="#9a32cd" points="421.662,-24.0412 411.242,-25.9548 420.581,-30.9572 421.662,-24.0412"/>
<text text-anchor="middle" x="522" y="-61" font-family="Helvetica,sans-Serif" font-size="10.00"> myActiveForces</text>
</g>
<!-- Node33 -->
<g id="node33" class="node"><title>Node33</title>
<polygon fill="white" stroke="#bfbfbf" points="249.5,-144.5 249.5,-163.5 416.5,-163.5 416.5,-144.5 249.5,-144.5"/>
<text text-anchor="middle" x="333" y="-151.5" font-family="Helvetica,sans-Serif" font-size="10.00">List&lt; engine.physics.Impulse &gt;</text>
</g>
<!-- Node33&#45;&gt;Node30 -->
<g id="edge34" class="edge"><title>Node33&#45;&gt;Node30</title>
<path fill="none" stroke="#9a32cd" stroke-dasharray="5,2" d="M426.742,-149.368C473.025,-146.13 529.724,-140.76 580,-132 606.889,-127.315 636.354,-119.811 660.424,-113.042"/>
<polygon fill="#9a32cd" stroke="#9a32cd" points="426.469,-145.879 416.729,-150.047 426.943,-152.863 426.469,-145.879"/>
<text text-anchor="middle" x="522" y="-150" font-family="Helvetica,sans-Serif" font-size="10.00"> myImpulses</text>
</g>
<!-- Node34 -->
<g id="node34" class="node"><title>Node34</title>
<g id="a_node34"><a xlink:href="../../d5/d1f/classengine_1_1physics_1_1_vector.html" target="_top" xlink:title="engine.physics.Vector">
<polygon fill="white" stroke="black" points="272.5,-98.5 272.5,-117.5 393.5,-117.5 393.5,-98.5 272.5,-98.5"/>
<text text-anchor="middle" x="333" y="-105.5" font-family="Helvetica,sans-Serif" font-size="10.00">engine.physics.Vector</text>
</a>
</g>
</g>
<!-- Node34&#45;&gt;Node30 -->
<g id="edge35" class="edge"><title>Node34&#45;&gt;Node30</title>
<path fill="none" stroke="#9a32cd" stroke-dasharray="5,2" d="M403.829,-102.327C423.294,-100.974 444.459,-99.7154 464,-99 516.71,-97.0703 575.815,-96.7698 622.877,-96.9756"/>
<polygon fill="#9a32cd" stroke="#9a32cd" points="403.548,-98.8377 393.823,-103.04 404.046,-105.82 403.548,-98.8377"/>
<text text-anchor="middle" x="522" y="-124" font-family="Helvetica,sans-Serif" font-size="10.00"> myBalancedForcesMag</text>
<text text-anchor="middle" x="522" y="-113" font-family="Helvetica,sans-Serif" font-size="10.00">myVelocity</text>
<text text-anchor="middle" x="522" y="-102" font-family="Helvetica,sans-Serif" font-size="10.00">myAcceleration</text>
</g>
<!-- Node35 -->
<g id="node35" class="node"><title>Node35</title>
<g id="a_node35"><a xlink:href="../../dc/db5/classengine_1_1physics_1_1_physics_component.html" target="_top" xlink:title="engine.physics.PhysicsComponent">
<polygon fill="white" stroke="black" points="0,-98.5 0,-117.5 182,-117.5 182,-98.5 0,-98.5"/>
<text text-anchor="middle" x="91" y="-105.5" font-family="Helvetica,sans-Serif" font-size="10.00">engine.physics.PhysicsComponent</text>
</a>
</g>
</g>
<!-- Node35&#45;&gt;Node34 -->
<g id="edge36" class="edge"><title>Node35&#45;&gt;Node34</title>
<path fill="none" stroke="midnightblue" d="M192.403,-108C219.624,-108 248.228,-108 272.406,-108"/>
<polygon fill="midnightblue" stroke="midnightblue" points="192.05,-104.5 182.05,-108 192.05,-111.5 192.05,-104.5"/>
</g>
<!-- Node36&#45;&gt;Node15 -->
<g id="edge37" class="edge"><title>Node36&#45;&gt;Node15</title>
<path fill="none" stroke="#9a32cd" stroke-dasharray="5,2" d="M804.748,-379.703C849.308,-384.974 903.456,-391.567 952,-398 964.84,-399.701 978.557,-401.613 991.678,-403.487"/>
<polygon fill="#9a32cd" stroke="#9a32cd" points="805.15,-376.226 794.809,-378.531 804.33,-383.178 805.15,-376.226"/>
<text text-anchor="middle" x="897" y="-401" font-family="Helvetica,sans-Serif" font-size="10.00"> myDefaultData</text>
</g>
</g>
</svg>
