<?xml version="1.0" encoding="UTF-8" standalone="no"?>
<!DOCTYPE svg PUBLIC "-//W3C//DTD SVG 1.1//EN"
 "http://www.w3.org/Graphics/SVG/1.1/DTD/svg11.dtd">
<!-- Generated by graphviz version 2.36.0 (20140111.2315)
 -->
<!-- Title: engine.render.Renderer Pages: 1 -->
<!--zoomable 246 -->
<svg id="main" version="1.1" xmlns="http://www.w3.org/2000/svg" xmlns:xlink="http://www.w3.org/1999/xlink" xml:space="preserve" onload="init(evt)">
<style type="text/css"><![CDATA[
.edge:hover path { stroke: red; }
.edge:hover polygon { stroke: red; fill: red; }
]]></style>
<script type="text/javascript"><![CDATA[
var edges = document.getElementsByTagName('g');
if (edges && edges.length) {
  for (var i=0;i<edges.length;i++) {
    if (edges[i].id.substr(0,4)=='edge') {
      edges[i].setAttribute('class','edge');
    }
  }
}
]]></script>
        <defs>
                <circle id="rim" cx="0" cy="0" r="7"/>
                <circle id="rim2" cx="0" cy="0" r="3.5"/>
                <g id="zoomPlus">
                        <use xlink:href="#rim" fill="#404040">
                                <set attributeName="fill" to="#808080" begin="zoomplus.mouseover" end="zoomplus.mouseout"/>
                        </use>
                        <path d="M-4,0h8M0,-4v8" fill="none" stroke="white" stroke-width="1.5" pointer-events="none"/>
                </g>
                <g id="zoomMin">
                        <use xlink:href="#rim" fill="#404040">
                                <set attributeName="fill" to="#808080" begin="zoomminus.mouseover" end="zoomminus.mouseout"/>
                        </use>
                        <path d="M-4,0h8" fill="none" stroke="white" stroke-width="1.5" pointer-events="none"/>
                </g>
                <g id="dirArrow">
                        <path fill="none" stroke="white" stroke-width="1.5" d="M0,-3.0v7 M-2.5,-0.5L0,-3.0L2.5,-0.5"/>
                </g>
               <g id="resetDef">
                       <use xlink:href="#rim2" fill="#404040">
                               <set attributeName="fill" to="#808080" begin="reset.mouseover" end="reset.mouseout"/>
                       </use>
               </g>
        </defs>

<script type="text/javascript">
var viewWidth = 992;
var viewHeight = 246;
var sectionId = 'dynsection-0';
</script>
<script xlink:href="../../svgpan.js"/>
<svg id="graph" class="graph">
<g id="viewport">
<title>engine.render.Renderer</title>
<polygon fill="white" stroke="none" points="-4,4 -4,-241.981 988,-241.981 988,4 -4,4"/>
<!-- Node1 -->
<g id="node1" class="node"><title>Node1</title>
<polygon fill="#bfbfbf" stroke="black" points="856,-139.481 856,-158.481 984,-158.481 984,-139.481 856,-139.481"/>
<text text-anchor="middle" x="920" y="-146.481" font-family="Helvetica,sans-Serif" font-size="10.00">engine.render.Renderer</text>
</g>
<!-- Node2 -->
<g id="node2" class="node"><title>Node2</title>
<polygon fill="white" stroke="#bfbfbf" points="562,-206.981 562,-236.981 726,-236.981 726,-206.981 562,-206.981"/>
<text text-anchor="start" x="570" y="-224.981" font-family="Helvetica,sans-Serif" font-size="10.00">Map&lt; Identifier, engine.render.</text>
<text text-anchor="middle" x="644" y="-213.981" font-family="Helvetica,sans-Serif" font-size="10.00">RenderedNode &gt;</text>
</g>
<!-- Node2&#45;&gt;Node1 -->
<g id="edge1" class="edge"><title>Node2&#45;&gt;Node1</title>
<path fill="none" stroke="#9a32cd" stroke-dasharray="5,2" d="M734.084,-204.77C766.99,-197.723 804.432,-188.888 838,-178.981 857.848,-173.124 879.835,-164.864 895.888,-158.494"/>
<polygon fill="#9a32cd" stroke="#9a32cd" points="733.085,-201.404 724.027,-206.899 734.535,-208.252 733.085,-201.404"/>
<text text-anchor="middle" x="791" y="-204.981" font-family="Helvetica,sans-Serif" font-size="10.00"> myRenderedNodes</text>
</g>
<!-- Node3 -->
<g id="node3" class="node"><title>Node3</title>
<g id="a_node3"><a xlink:href="../../d5/d30/classengine_1_1render_1_1_rendered_node_factory.html" target="_top" xlink:title="engine.render.RenderedNode\lFactory">
<polygon fill="white" stroke="black" points="566,-157.981 566,-187.981 722,-187.981 722,-157.981 566,-157.981"/>
<text text-anchor="start" x="574" y="-175.981" font-family="Helvetica,sans-Serif" font-size="10.00">engine.render.RenderedNode</text>
<text text-anchor="middle" x="644" y="-164.981" font-family="Helvetica,sans-Serif" font-size="10.00">Factory</text>
</a>
</g>
</g>
<!-- Node3&#45;&gt;Node1 -->
<g id="edge2" class="edge"><title>Node3&#45;&gt;Node1</title>
<path fill="none" stroke="#9a32cd" stroke-dasharray="5,2" d="M732.122,-165.35C772.328,-161.829 819.171,-157.726 855.901,-154.508"/>
<polygon fill="#9a32cd" stroke="#9a32cd" points="731.71,-161.873 722.053,-166.232 732.321,-168.846 731.71,-161.873"/>
<text text-anchor="middle" x="791" y="-166.981" font-family="Helvetica,sans-Serif" font-size="10.00"> myFactory</text>
</g>
<!-- Node4 -->
<g id="node4" class="node"><title>Node4</title>
<g id="a_node4"><a xlink:href="../../d9/db5/classengine_1_1_file_path_utility.html" target="_top" xlink:title="engine.FilePathUtility">
<polygon fill="white" stroke="black" points="267.5,-213.481 267.5,-232.481 382.5,-232.481 382.5,-213.481 267.5,-213.481"/>
<text text-anchor="middle" x="325" y="-220.481" font-family="Helvetica,sans-Serif" font-size="10.00">engine.FilePathUtility</text>
</a>
</g>
</g>
<!-- Node4&#45;&gt;Node3 -->
<g id="edge3" class="edge"><title>Node4&#45;&gt;Node3</title>
<path fill="none" stroke="#9a32cd" stroke-dasharray="5,2" d="M392.723,-214.899C435.961,-209.39 493.438,-201.559 544,-192.981 552.903,-191.471 562.231,-189.759 571.452,-187.987"/>
<polygon fill="#9a32cd" stroke="#9a32cd" points="392.091,-211.451 382.609,-216.178 392.969,-218.395 392.091,-211.451"/>
<text text-anchor="middle" x="485" y="-212.981" font-family="Helvetica,sans-Serif" font-size="10.00"> myFilePathUtility</text>
</g>
<!-- Node5 -->
<g id="node5" class="node"><title>Node5</title>
<g id="a_node5"><a xlink:href="../../df/d84/classengine_1_1level_1_1_level.html" target="_top" xlink:title="engine.level.Level">
<polygon fill="white" stroke="black" points="593.5,-119.481 593.5,-138.481 694.5,-138.481 694.5,-119.481 593.5,-119.481"/>
<text text-anchor="middle" x="644" y="-126.481" font-family="Helvetica,sans-Serif" font-size="10.00">engine.level.Level</text>
</a>
</g>
</g>
<!-- Node5&#45;&gt;Node1 -->
<g id="edge4" class="edge"><title>Node5&#45;&gt;Node1</title>
<path fill="none" stroke="#9a32cd" stroke-dasharray="5,2" d="M705.132,-128.689C743.284,-129.037 793.643,-130.481 838,-134.981 848.507,-136.047 859.707,-137.667 870.323,-139.431"/>
<polygon fill="#9a32cd" stroke="#9a32cd" points="704.733,-125.186 694.71,-128.618 704.685,-132.186 704.733,-125.186"/>
<text text-anchor="middle" x="791" y="-137.981" font-family="Helvetica,sans-Serif" font-size="10.00"> myCurrentLevel</text>
</g>
<!-- Node6 -->
<g id="node6" class="node"><title>Node6</title>
<g id="a_node6"><a xlink:href="../../d3/d8d/classdata_1_1_observable.html" target="_top" xlink:title="data.Observable">
<polygon fill="white" stroke="black" points="277.5,-175.481 277.5,-194.481 372.5,-194.481 372.5,-175.481 277.5,-175.481"/>
<text text-anchor="middle" x="325" y="-182.481" font-family="Helvetica,sans-Serif" font-size="10.00">data.Observable</text>
</a>
</g>
</g>
<!-- Node6&#45;&gt;Node5 -->
<g id="edge5" class="edge"><title>Node6&#45;&gt;Node5</title>
<path fill="none" stroke="midnightblue" d="M382.493,-177.662C426.625,-171.647 489.416,-162.437 544,-151.981 549.936,-150.844 577.871,-144.337 602.56,-138.534"/>
<polygon fill="midnightblue" stroke="midnightblue" points="381.974,-174.2 372.533,-179.009 382.912,-181.137 381.974,-174.2"/>
</g>
<!-- Node7 -->
<g id="node7" class="node"><title>Node7</title>
<polygon fill="white" stroke="#bfbfbf" points="23,-175.481 23,-194.481 161,-194.481 161,-175.481 23,-175.481"/>
<text text-anchor="middle" x="92" y="-182.481" font-family="Helvetica,sans-Serif" font-size="10.00">Vector&lt; data.Observer &gt;</text>
</g>
<!-- Node7&#45;&gt;Node6 -->
<g id="edge6" class="edge"><title>Node7&#45;&gt;Node6</title>
<path fill="none" stroke="#9a32cd" stroke-dasharray="5,2" d="M171.318,-184.981C206.521,-184.981 246.882,-184.981 277.262,-184.981"/>
<polygon fill="#9a32cd" stroke="#9a32cd" points="171.058,-181.482 161.058,-184.981 171.058,-188.482 171.058,-181.482"/>
<text text-anchor="middle" x="213" y="-187.981" font-family="Helvetica,sans-Serif" font-size="10.00"> obs</text>
</g>
<!-- Node8 -->
<g id="node8" class="node"><title>Node8</title>
<g id="a_node8"><a xlink:href="../../dc/df6/interfaceengine_1_1game_object_1_1_identifiable.html" target="_top" xlink:title="engine.gameObject.Identifiable">
<polygon fill="white" stroke="black" points="242.5,-137.481 242.5,-156.481 407.5,-156.481 407.5,-137.481 242.5,-137.481"/>
<text text-anchor="middle" x="325" y="-144.481" font-family="Helvetica,sans-Serif" font-size="10.00">engine.gameObject.Identifiable</text>
</a>
</g>
</g>
<!-- Node8&#45;&gt;Node5 -->
<g id="edge7" class="edge"><title>Node8&#45;&gt;Node5</title>
<path fill="none" stroke="midnightblue" d="M417.781,-141.77C475.002,-138.521 546.417,-134.466 593.295,-131.804"/>
<polygon fill="midnightblue" stroke="midnightblue" points="417.421,-138.285 407.635,-142.346 417.818,-145.273 417.421,-138.285"/>
</g>
<!-- Node9 -->
<g id="node9" class="node"><title>Node9</title>
<g id="a_node9"><a xlink:href="../../d4/dac/classengine_1_1game_object_1_1_identifier.html" target="_top" xlink:title="engine.gameObject.Identifier">
<polygon fill="white" stroke="black" points="247.5,-99.4814 247.5,-118.481 402.5,-118.481 402.5,-99.4814 247.5,-99.4814"/>
<text text-anchor="middle" x="325" y="-106.481" font-family="Helvetica,sans-Serif" font-size="10.00">engine.gameObject.Identifier</text>
</a>
</g>
</g>
<!-- Node9&#45;&gt;Node5 -->
<g id="edge8" class="edge"><title>Node9&#45;&gt;Node5</title>
<path fill="none" stroke="#9a32cd" stroke-dasharray="5,2" d="M412.961,-112.566C452.904,-114.419 500.88,-116.935 544,-119.981 560.096,-121.119 577.641,-122.626 593.429,-124.081"/>
<polygon fill="#9a32cd" stroke="#9a32cd" points="412.871,-109.059 402.721,-112.098 412.551,-116.051 412.871,-109.059"/>
<text text-anchor="middle" x="485" y="-122.981" font-family="Helvetica,sans-Serif" font-size="10.00"> myId</text>
</g>
<!-- Node10 -->
<g id="node10" class="node"><title>Node10</title>
<polygon fill="white" stroke="#bfbfbf" points="64,-99.4814 64,-118.481 120,-118.481 120,-99.4814 64,-99.4814"/>
<text text-anchor="middle" x="92" y="-106.481" font-family="Helvetica,sans-Serif" font-size="10.00">Random</text>
</g>
<!-- Node10&#45;&gt;Node9 -->
<g id="edge9" class="edge"><title>Node10&#45;&gt;Node9</title>
<path fill="none" stroke="#9a32cd" stroke-dasharray="5,2" d="M130.511,-108.981C162.046,-108.981 208.136,-108.981 247.423,-108.981"/>
<polygon fill="#9a32cd" stroke="#9a32cd" points="130.406,-105.482 120.406,-108.981 130.406,-112.482 130.406,-105.482"/>
<text text-anchor="middle" x="213" y="-111.981" font-family="Helvetica,sans-Serif" font-size="10.00"> r</text>
</g>
<!-- Node11 -->
<g id="node11" class="node"><title>Node11</title>
<g id="a_node11"><a xlink:href="../../d1/d32/classauthoring_1_1model_1_1collections_1_1_game_objects_collection.html" target="_top" xlink:title="authoring.model.collections.\lGameObjectsCollection">
<polygon fill="white" stroke="black" points="249,-49.9814 249,-79.9814 401,-79.9814 401,-49.9814 249,-49.9814"/>
<text text-anchor="start" x="257" y="-67.9814" font-family="Helvetica,sans-Serif" font-size="10.00">authoring.model.collections.</text>
<text text-anchor="middle" x="325" y="-56.9814" font-family="Helvetica,sans-Serif" font-size="10.00">GameObjectsCollection</text>
</a>
</g>
</g>
<!-- Node11&#45;&gt;Node5 -->
<g id="edge10" class="edge"><title>Node11&#45;&gt;Node5</title>
<path fill="none" stroke="#9a32cd" stroke-dasharray="5,2" d="M411.322,-59.1894C453.515,-59.8881 503.86,-66.3078 544,-87.9814 555.117,-93.9838 551.281,-103.295 562,-109.981 571.437,-115.868 582.524,-119.932 593.417,-122.738"/>
<polygon fill="#9a32cd" stroke="#9a32cd" points="411.083,-55.688 401.062,-59.1279 411.041,-62.6879 411.083,-55.688"/>
<text text-anchor="middle" x="485" y="-101.981" font-family="Helvetica,sans-Serif" font-size="10.00"> myDefaultGameObjects</text>
<text text-anchor="middle" x="485" y="-90.9814" font-family="Helvetica,sans-Serif" font-size="10.00">myWorkingGameObjects</text>
</g>
<!-- Node12 -->
<g id="node12" class="node"><title>Node12</title>
<g id="a_node12"><a xlink:href="../../d4/d3b/classauthoring_1_1model_1_1collections_1_1_general_collection.html" target="_top" xlink:title="authoring.model.collections.\lGeneralCollection\&lt; GameObject \&gt;">
<polygon fill="white" stroke="black" points="0.5,-49.9814 0.5,-79.9814 183.5,-79.9814 183.5,-49.9814 0.5,-49.9814"/>
<text text-anchor="start" x="8.5" y="-67.9814" font-family="Helvetica,sans-Serif" font-size="10.00">authoring.model.collections.</text>
<text text-anchor="middle" x="92" y="-56.9814" font-family="Helvetica,sans-Serif" font-size="10.00">GeneralCollection&lt; GameObject &gt;</text>
</a>
</g>
</g>
<!-- Node12&#45;&gt;Node11 -->
<g id="edge11" class="edge"><title>Node12&#45;&gt;Node11</title>
<path fill="none" stroke="midnightblue" d="M193.843,-64.9814C212.335,-64.9814 231.337,-64.9814 248.91,-64.9814"/>
<polygon fill="midnightblue" stroke="midnightblue" points="193.634,-61.4815 183.634,-64.9814 193.634,-68.4815 193.634,-61.4815"/>
</g>
<!-- Node13 -->
<g id="node13" class="node"><title>Node13</title>
<polygon fill="white" stroke="#bfbfbf" points="254.5,-0.981436 254.5,-30.9814 395.5,-30.9814 395.5,-0.981436 254.5,-0.981436"/>
<text text-anchor="start" x="262.5" y="-18.9814" font-family="Helvetica,sans-Serif" font-size="10.00">List&lt; engine.gameObject.</text>
<text text-anchor="middle" x="325" y="-7.98144" font-family="Helvetica,sans-Serif" font-size="10.00">Identifier &gt;</text>
</g>
<!-- Node13&#45;&gt;Node5 -->
<g id="edge12" class="edge"><title>Node13&#45;&gt;Node5</title>
<path fill="none" stroke="#9a32cd" stroke-dasharray="5,2" d="M405.815,-1.32911C451.402,2.31425 506.726,-1.92351 544,-33.9814 570.317,-56.6162 537.428,-85.4626 562,-109.981 570.384,-118.348 581.708,-123.304 593.228,-126.176"/>
<polygon fill="#9a32cd" stroke="#9a32cd" points="405.28,2.1362 395.651,-2.28237 405.934,-4.83322 405.28,2.1362"/>
<text text-anchor="middle" x="485" y="-47.9814" font-family="Helvetica,sans-Serif" font-size="10.00"> myConditionIdList</text>
<text text-anchor="middle" x="485" y="-36.9814" font-family="Helvetica,sans-Serif" font-size="10.00">myGameObjectIdList</text>
</g>
<!-- Node14 -->
<g id="node14" class="node"><title>Node14</title>
<polygon fill="white" stroke="#bfbfbf" points="621,-81.4814 621,-100.481 667,-100.481 667,-81.4814 621,-81.4814"/>
<text text-anchor="middle" x="644" y="-88.4814" font-family="Helvetica,sans-Serif" font-size="10.00">Group</text>
</g>
<!-- Node14&#45;&gt;Node1 -->
<g id="edge13" class="edge"><title>Node14&#45;&gt;Node1</title>
<path fill="none" stroke="#9a32cd" stroke-dasharray="5,2" d="M677.233,-92.2975C715.974,-94.492 782.681,-100.232 838,-114.981 860.104,-120.875 884.114,-131.535 900.208,-139.352"/>
<polygon fill="#9a32cd" stroke="#9a32cd" points="677.249,-88.7937 667.08,-91.7681 676.884,-95.7842 677.249,-88.7937"/>
<text text-anchor="middle" x="791" y="-117.981" font-family="Helvetica,sans-Serif" font-size="10.00"> myCanvas</text>
</g>
</g>
</svg>
        <g id="navigator" transform="translate(0 0)" fill="#404254">
                <rect fill="#f2f5e9" fill-opacity="0.5" stroke="#606060" stroke-width=".5" x="0" y="0" width="60" height="60"/>
                <use id="zoomplus" xlink:href="#zoomPlus" x="17" y="9" onmousedown="handleZoom(evt,'in')"/>
                <use id="zoomminus" xlink:href="#zoomMin" x="42" y="9" onmousedown="handleZoom(evt,'out')"/>
                <use id="reset" xlink:href="#resetDef" x="30" y="36" onmousedown="handleReset()"/>
                <g id="arrowUp" xlink:href="#dirArrow" transform="translate(30 24)" onmousedown="handlePan(0,-1)">
                  <use xlink:href="#rim" fill="#404040">
                        <set attributeName="fill" to="#808080" begin="arrowUp.mouseover" end="arrowUp.mouseout"/>
                  </use>
                  <path fill="none" stroke="white" stroke-width="1.5" d="M0,-3.0v7 M-2.5,-0.5L0,-3.0L2.5,-0.5"/>
                </g>
                <g id="arrowRight" xlink:href="#dirArrow" transform="rotate(90) translate(36 -43)" onmousedown="handlePan(1,0)">
                  <use xlink:href="#rim" fill="#404040">
                        <set attributeName="fill" to="#808080" begin="arrowRight.mouseover" end="arrowRight.mouseout"/>
                  </use>
                  <path fill="none" stroke="white" stroke-width="1.5" d="M0,-3.0v7 M-2.5,-0.5L0,-3.0L2.5,-0.5"/>
                </g>
                <g id="arrowDown" xlink:href="#dirArrow" transform="rotate(180) translate(-30 -48)" onmousedown="handlePan(0,1)">
                  <use xlink:href="#rim" fill="#404040">
                        <set attributeName="fill" to="#808080" begin="arrowDown.mouseover" end="arrowDown.mouseout"/>
                  </use>
                  <path fill="none" stroke="white" stroke-width="1.5" d="M0,-3.0v7 M-2.5,-0.5L0,-3.0L2.5,-0.5"/>
                </g>
                <g id="arrowLeft" xlink:href="#dirArrow" transform="rotate(270) translate(-36 17)" onmousedown="handlePan(-1,0)">
                  <use xlink:href="#rim" fill="#404040">
                        <set attributeName="fill" to="#808080" begin="arrowLeft.mouseover" end="arrowLeft.mouseout"/>
                  </use>
                  <path fill="none" stroke="white" stroke-width="1.5" d="M0,-3.0v7 M-2.5,-0.5L0,-3.0L2.5,-0.5"/>
                </g>
        </g>
        <svg viewBox="0 0 15 15" width="100%" height="30px" preserveAspectRatio="xMaxYMin meet">
         <g id="arrow_out" transform="scale(0.3 0.3)">
          <a xlink:href="classengine_1_1render_1_1_renderer__coll__graph_org.svg" target="_base">
           <rect id="button" ry="5" rx="5" y="6" x="6" height="38" width="38"
                fill="#f2f5e9" fill-opacity="0.5" stroke="#606060" stroke-width="1.0"/>
           <path id="arrow"
             d="M 11.500037,31.436501 C 11.940474,20.09759 22.043105,11.32322 32.158766,21.979434 L 37.068811,17.246167 C 37.068811,17.246167 37.088388,32 37.088388,32 L 22.160133,31.978069 C 22.160133,31.978069 26.997745,27.140456 26.997745,27.140456 C 18.528582,18.264221 13.291696,25.230495 11.500037,31.436501 z"
             style="fill:#404040;"/>
          </a>
         </g>
        </svg>
</svg>
