<?xml version="1.0" encoding="UTF-8" standalone="no"?>
<!DOCTYPE svg PUBLIC "-//W3C//DTD SVG 1.1//EN"
 "http://www.w3.org/Graphics/SVG/1.1/DTD/svg11.dtd">
<!-- Generated by graphviz version 2.36.0 (20140111.2315)
 -->
<!-- Title: engine.actions.MakeNewObjectFromObjectAction.execute Pages: 1 -->
<!--zoomable 583 -->
<svg id="main" version="1.1" xmlns="http://www.w3.org/2000/svg" xmlns:xlink="http://www.w3.org/1999/xlink" xml:space="preserve" onload="init(evt)">
<style type="text/css"><![CDATA[
.edge:hover path { stroke: red; }
.edge:hover polygon { stroke: red; fill: red; }
]]></style>
<script type="text/javascript"><![CDATA[
var edges = document.getElementsByTagName('g');
if (edges && edges.length) {
  for (var i=0;i<edges.length;i++) {
    if (edges[i].id.substr(0,4)=='edge') {
      edges[i].setAttribute('class','edge');
    }
  }
}
]]></script>
        <defs>
                <circle id="rim" cx="0" cy="0" r="7"/>
                <circle id="rim2" cx="0" cy="0" r="3.5"/>
                <g id="zoomPlus">
                        <use xlink:href="#rim" fill="#404040">
                                <set attributeName="fill" to="#808080" begin="zoomplus.mouseover" end="zoomplus.mouseout"/>
                        </use>
                        <path d="M-4,0h8M0,-4v8" fill="none" stroke="white" stroke-width="1.5" pointer-events="none"/>
                </g>
                <g id="zoomMin">
                        <use xlink:href="#rim" fill="#404040">
                                <set attributeName="fill" to="#808080" begin="zoomminus.mouseover" end="zoomminus.mouseout"/>
                        </use>
                        <path d="M-4,0h8" fill="none" stroke="white" stroke-width="1.5" pointer-events="none"/>
                </g>
                <g id="dirArrow">
                        <path fill="none" stroke="white" stroke-width="1.5" d="M0,-3.0v7 M-2.5,-0.5L0,-3.0L2.5,-0.5"/>
                </g>
               <g id="resetDef">
                       <use xlink:href="#rim2" fill="#404040">
                               <set attributeName="fill" to="#808080" begin="reset.mouseover" end="reset.mouseout"/>
                       </use>
               </g>
        </defs>

<script type="text/javascript">
var viewWidth = 1096;
var viewHeight = 583;
var sectionId = 'dynsection-2';
</script>
<script xlink:href="../../svgpan.js"/>
<svg id="graph" class="graph">
<g id="viewport">
<title>engine.actions.MakeNewObjectFromObjectAction.execute</title>
<polygon fill="white" stroke="none" points="-4,4 -4,-579 1092,-579 1092,4 -4,4"/>
<!-- Node1 -->
<g id="node1" class="node"><title>Node1</title>
<polygon fill="#bfbfbf" stroke="black" points="0,-220 0,-250 166,-250 166,-220 0,-220"/>
<text text-anchor="start" x="8" y="-238" font-family="Helvetica,sans-Serif" font-size="10.00">engine.actions.MakeNewObject</text>
<text text-anchor="middle" x="83" y="-227" font-family="Helvetica,sans-Serif" font-size="10.00">FromObjectAction.execute</text>
</g>
<!-- Node2 -->
<g id="node2" class="node"><title>Node2</title>
<g id="a_node2"><a xlink:href="../../d4/d3b/classauthoring_1_1model_1_1collections_1_1_general_collection.html#a1bdc1047736bbb23259d6a7fe4c6deeb" target="_top" xlink:title="authoring.model.collections.\lGeneralCollection.add">
<polygon fill="white" stroke="black" points="222,-545 222,-575 374,-575 374,-545 222,-545"/>
<text text-anchor="start" x="230" y="-563" font-family="Helvetica,sans-Serif" font-size="10.00">authoring.model.collections.</text>
<text text-anchor="middle" x="298" y="-552" font-family="Helvetica,sans-Serif" font-size="10.00">GeneralCollection.add</text>
</a>
</g>
</g>
<!-- Node1&#45;&gt;Node2 -->
<g id="edge1" class="edge"><title>Node1&#45;&gt;Node2</title>
<path fill="none" stroke="midnightblue" d="M85.5393,-250.068C91.2655,-298.22 115.677,-449.89 202,-530 206.12,-533.824 210.726,-537.16 215.626,-540.071"/>
<polygon fill="midnightblue" stroke="midnightblue" points="214.247,-543.301 224.725,-544.865 217.51,-537.107 214.247,-543.301"/>
</g>
<!-- Node3 -->
<g id="node3" class="node"><title>Node3</title>
<g id="a_node3"><a xlink:href="../../dd/d8d/classengine_1_1render_1_1_renderer.html#a569f6bb2f9c218ed015949dff459b1ee" target="_top" xlink:title="engine.render.Renderer.create\lAndAssignRenderedNode">
<polygon fill="white" stroke="black" points="217.5,-343 217.5,-373 378.5,-373 378.5,-343 217.5,-343"/>
<text text-anchor="start" x="225.5" y="-361" font-family="Helvetica,sans-Serif" font-size="10.00">engine.render.Renderer.create</text>
<text text-anchor="middle" x="298" y="-350" font-family="Helvetica,sans-Serif" font-size="10.00">AndAssignRenderedNode</text>
</a>
</g>
</g>
<!-- Node1&#45;&gt;Node3 -->
<g id="edge2" class="edge"><title>Node1&#45;&gt;Node3</title>
<path fill="none" stroke="midnightblue" d="M98.1003,-250.346C118.811,-271.968 159.614,-311.191 202,-333 206.574,-335.354 211.39,-337.5 216.326,-339.454"/>
<polygon fill="midnightblue" stroke="midnightblue" points="215.341,-342.821 225.935,-342.982 217.754,-336.25 215.341,-342.821"/>
</g>
<!-- Node8 -->
<g id="node8" class="node"><title>Node8</title>
<g id="a_node8"><a xlink:href="../../d0/d7f/classengine_1_1game_object_1_1_game_object.html#aaeb5730a3b51fe9cb3d817ea7172cfc2" target="_top" xlink:title="engine.gameObject.GameObject.get\lHeight">
<polygon fill="white" stroke="black" points="896,-368 896,-398 1088,-398 1088,-368 896,-368"/>
<text text-anchor="start" x="904" y="-386" font-family="Helvetica,sans-Serif" font-size="10.00">engine.gameObject.GameObject.get</text>
<text text-anchor="middle" x="992" y="-375" font-family="Helvetica,sans-Serif" font-size="10.00">Height</text>
</a>
</g>
</g>
<!-- Node1&#45;&gt;Node8 -->
<g id="edge25" class="edge"><title>Node1&#45;&gt;Node8</title>
<path fill="none" stroke="midnightblue" d="M91.7593,-250.189C107.942,-280.278 148.298,-347.524 202,-382 377.886,-494.916 450.58,-471.248 658,-497 747.094,-508.061 775.916,-528.463 860,-497 908.364,-478.903 950.653,-433.99 973.346,-406.245"/>
<polygon fill="midnightblue" stroke="midnightblue" points="976.238,-408.233 979.744,-398.235 970.768,-403.864 976.238,-408.233"/>
</g>
<!-- Node23 -->
<g id="node23" class="node"><title>Node23</title>
<g id="a_node23"><a xlink:href="../../df/d84/classengine_1_1level_1_1_level.html#ac927326f1a3d7e17b5d577c336a5cfc1" target="_top" xlink:title="engine.level.Level.getGame\lObjectsCollection">
<polygon fill="white" stroke="black" points="223.5,-294 223.5,-324 372.5,-324 372.5,-294 223.5,-294"/>
<text text-anchor="start" x="231.5" y="-312" font-family="Helvetica,sans-Serif" font-size="10.00">engine.level.Level.getGame</text>
<text text-anchor="middle" x="298" y="-301" font-family="Helvetica,sans-Serif" font-size="10.00">ObjectsCollection</text>
</a>
</g>
</g>
<!-- Node1&#45;&gt;Node23 -->
<g id="edge24" class="edge"><title>Node1&#45;&gt;Node23</title>
<path fill="none" stroke="midnightblue" d="M116.854,-250.06C140.276,-260.445 172.68,-274.106 202,-284 209.385,-286.492 217.162,-288.891 224.954,-291.151"/>
<polygon fill="midnightblue" stroke="midnightblue" points="224.229,-294.584 234.804,-293.936 226.133,-287.847 224.229,-294.584"/>
</g>
<!-- Node24 -->
<g id="node24" class="node"><title>Node24</title>
<g id="a_node24"><a xlink:href="../../d0/d7f/classengine_1_1game_object_1_1_game_object.html#a033aa98dab8d3c9ef92e0c9996a79b91" target="_top" xlink:title="engine.gameObject.GameObject.get\lOrientation">
<polygon fill="white" stroke="black" points="202,-245 202,-275 394,-275 394,-245 202,-245"/>
<text text-anchor="start" x="210" y="-263" font-family="Helvetica,sans-Serif" font-size="10.00">engine.gameObject.GameObject.get</text>
<text text-anchor="middle" x="298" y="-252" font-family="Helvetica,sans-Serif" font-size="10.00">Orientation</text>
</a>
</g>
</g>
<!-- Node1&#45;&gt;Node24 -->
<g id="edge26" class="edge"><title>Node1&#45;&gt;Node24</title>
<path fill="none" stroke="midnightblue" d="M166.047,-244.63C174.47,-245.619 183.109,-246.633 191.737,-247.645"/>
<polygon fill="midnightblue" stroke="midnightblue" points="191.507,-251.142 201.847,-248.832 192.324,-244.19 191.507,-251.142"/>
</g>
<!-- Node25 -->
<g id="node25" class="node"><title>Node25</title>
<g id="a_node25"><a xlink:href="../../d0/d7f/classengine_1_1game_object_1_1_game_object.html#ac7639843418dea4d3ac30a8f2d3a3a9b" target="_top" xlink:title="engine.gameObject.GameObject.get\lTranslateX">
<polygon fill="white" stroke="black" points="202,-196 202,-226 394,-226 394,-196 202,-196"/>
<text text-anchor="start" x="210" y="-214" font-family="Helvetica,sans-Serif" font-size="10.00">engine.gameObject.GameObject.get</text>
<text text-anchor="middle" x="298" y="-203" font-family="Helvetica,sans-Serif" font-size="10.00">TranslateX</text>
</a>
</g>
</g>
<!-- Node1&#45;&gt;Node25 -->
<g id="edge27" class="edge"><title>Node1&#45;&gt;Node25</title>
<path fill="none" stroke="midnightblue" d="M166.047,-225.755C174.47,-224.806 183.109,-223.833 191.737,-222.861"/>
<polygon fill="midnightblue" stroke="midnightblue" points="192.302,-226.319 201.847,-221.721 191.518,-219.363 192.302,-226.319"/>
</g>
<!-- Node26 -->
<g id="node26" class="node"><title>Node26</title>
<g id="a_node26"><a xlink:href="../../d0/d7f/classengine_1_1game_object_1_1_game_object.html#a3a4561bfee95913ae91cc635fdf1167d" target="_top" xlink:title="engine.gameObject.GameObject.get\lTranslateY">
<polygon fill="white" stroke="black" points="202,-147 202,-177 394,-177 394,-147 202,-147"/>
<text text-anchor="start" x="210" y="-165" font-family="Helvetica,sans-Serif" font-size="10.00">engine.gameObject.GameObject.get</text>
<text text-anchor="middle" x="298" y="-154" font-family="Helvetica,sans-Serif" font-size="10.00">TranslateY</text>
</a>
</g>
</g>
<!-- Node1&#45;&gt;Node26 -->
<g id="edge28" class="edge"><title>Node1&#45;&gt;Node26</title>
<path fill="none" stroke="midnightblue" d="M117.645,-219.96C141.019,-209.848 173.047,-196.654 202,-187 209.534,-184.488 217.47,-182.063 225.414,-179.776"/>
<polygon fill="midnightblue" stroke="midnightblue" points="226.4,-183.134 235.079,-177.058 224.505,-176.395 226.4,-183.134"/>
</g>
<!-- Node27 -->
<g id="node27" class="node"><title>Node27</title>
<g id="a_node27"><a xlink:href="../../d0/d7f/classengine_1_1game_object_1_1_game_object.html#a9a4690b212ecad4060ce8f9abbcedba5" target="_top" xlink:title="engine.gameObject.GameObject.set\lIdentifier">
<polygon fill="white" stroke="black" points="202.5,-98 202.5,-128 393.5,-128 393.5,-98 202.5,-98"/>
<text text-anchor="start" x="210.5" y="-116" font-family="Helvetica,sans-Serif" font-size="10.00">engine.gameObject.GameObject.set</text>
<text text-anchor="middle" x="298" y="-105" font-family="Helvetica,sans-Serif" font-size="10.00">Identifier</text>
</a>
</g>
</g>
<!-- Node1&#45;&gt;Node27 -->
<g id="edge29" class="edge"><title>Node1&#45;&gt;Node27</title>
<path fill="none" stroke="midnightblue" d="M98.1333,-219.818C118.884,-198.425 159.735,-159.612 202,-138 206.58,-135.658 211.4,-133.521 216.339,-131.573"/>
<polygon fill="midnightblue" stroke="midnightblue" points="217.765,-134.778 225.954,-128.055 215.36,-128.204 217.765,-134.778"/>
</g>
<!-- Node28 -->
<g id="node28" class="node"><title>Node28</title>
<g id="a_node28"><a xlink:href="../../d0/d7f/classengine_1_1game_object_1_1_game_object.html#a53d6d446f23ee6bb0c13763016fc2e2f" target="_top" xlink:title="engine.gameObject.GameObject.set\lOrientation">
<polygon fill="white" stroke="black" points="202.5,-49 202.5,-79 393.5,-79 393.5,-49 202.5,-49"/>
<text text-anchor="start" x="210.5" y="-67" font-family="Helvetica,sans-Serif" font-size="10.00">engine.gameObject.GameObject.set</text>
<text text-anchor="middle" x="298" y="-56" font-family="Helvetica,sans-Serif" font-size="10.00">Orientation</text>
</a>
</g>
</g>
<!-- Node1&#45;&gt;Node28 -->
<g id="edge30" class="edge"><title>Node1&#45;&gt;Node28</title>
<path fill="none" stroke="midnightblue" d="M91.8175,-219.961C108.105,-190.162 148.64,-123.519 202,-89 205.195,-86.9331 208.555,-85.0366 212.026,-83.2965"/>
<polygon fill="midnightblue" stroke="midnightblue" points="213.767,-86.3511 221.44,-79.0459 210.886,-79.9712 213.767,-86.3511"/>
</g>
<!-- Node29 -->
<g id="node29" class="node"><title>Node29</title>
<g id="a_node29"><a xlink:href="../../d0/d7f/classengine_1_1game_object_1_1_game_object.html#ab9b1029f6d5a8a7eb563d5e6e1dcf570" target="_top" xlink:title="engine.gameObject.GameObject.set\lPhysicsBody">
<polygon fill="white" stroke="black" points="202.5,-0 202.5,-30 393.5,-30 393.5,-0 202.5,-0"/>
<text text-anchor="start" x="210.5" y="-18" font-family="Helvetica,sans-Serif" font-size="10.00">engine.gameObject.GameObject.set</text>
<text text-anchor="middle" x="298" y="-7" font-family="Helvetica,sans-Serif" font-size="10.00">PhysicsBody</text>
</a>
</g>
</g>
<!-- Node1&#45;&gt;Node29 -->
<g id="edge31" class="edge"><title>Node1&#45;&gt;Node29</title>
<path fill="none" stroke="midnightblue" d="M88.5726,-219.999C100.63,-183.071 136.921,-87.2691 202,-39 203.887,-37.6002 205.847,-36.2817 207.867,-35.0396"/>
<polygon fill="midnightblue" stroke="midnightblue" points="209.93,-37.9033 217.063,-30.0691 206.601,-31.7453 209.93,-37.9033"/>
</g>
<!-- Node4 -->
<g id="node4" class="node"><title>Node4</title>
<g id="a_node4"><a xlink:href="../../d5/d30/classengine_1_1render_1_1_rendered_node_factory.html#a359dcce722371dfb49b79528930c1b05" target="_top" xlink:title="engine.render.RenderedNode\lFactory.createRenderedNode">
<polygon fill="white" stroke="black" points="448,-343 448,-373 604,-373 604,-343 448,-343"/>
<text text-anchor="start" x="456" y="-361" font-family="Helvetica,sans-Serif" font-size="10.00">engine.render.RenderedNode</text>
<text text-anchor="middle" x="526" y="-350" font-family="Helvetica,sans-Serif" font-size="10.00">Factory.createRenderedNode</text>
</a>
</g>
</g>
<!-- Node3&#45;&gt;Node4 -->
<g id="edge3" class="edge"><title>Node3&#45;&gt;Node4</title>
<path fill="none" stroke="midnightblue" d="M378.679,-358C397.834,-358 418.392,-358 437.866,-358"/>
<polygon fill="midnightblue" stroke="midnightblue" points="437.938,-361.5 447.938,-358 437.938,-354.5 437.938,-361.5"/>
</g>
<!-- Node21 -->
<g id="node21" class="node"><title>Node21</title>
<g id="a_node21"><a xlink:href="../../d0/d7f/classengine_1_1game_object_1_1_game_object.html#accd456b2eaab9c7056de825a28b066c8" target="_top" xlink:title="engine.gameObject.GameObject.get\lIdentifier">
<polygon fill="white" stroke="black" points="430,-294 430,-324 622,-324 622,-294 430,-294"/>
<text text-anchor="start" x="438" y="-312" font-family="Helvetica,sans-Serif" font-size="10.00">engine.gameObject.GameObject.get</text>
<text text-anchor="middle" x="526" y="-301" font-family="Helvetica,sans-Serif" font-size="10.00">Identifier</text>
</a>
</g>
</g>
<!-- Node3&#45;&gt;Node21 -->
<g id="edge22" class="edge"><title>Node3&#45;&gt;Node21</title>
<path fill="none" stroke="midnightblue" d="M368.343,-342.965C392.857,-337.651 420.609,-331.633 445.872,-326.156"/>
<polygon fill="midnightblue" stroke="midnightblue" points="446.757,-329.546 455.788,-324.006 445.273,-322.705 446.757,-329.546"/>
</g>
<!-- Node22 -->
<g id="node22" class="node"><title>Node22</title>
<g id="a_node22"><a xlink:href="../../d0/d7f/classengine_1_1game_object_1_1_game_object.html#ab09d473d8c2afe8cefb2ce2481bc66fd" target="_top" xlink:title="engine.gameObject.GameObject.set\lRenderedNode">
<polygon fill="white" stroke="black" points="430.5,-245 430.5,-275 621.5,-275 621.5,-245 430.5,-245"/>
<text text-anchor="start" x="438.5" y="-263" font-family="Helvetica,sans-Serif" font-size="10.00">engine.gameObject.GameObject.set</text>
<text text-anchor="middle" x="526" y="-252" font-family="Helvetica,sans-Serif" font-size="10.00">RenderedNode</text>
</a>
</g>
</g>
<!-- Node3&#45;&gt;Node22 -->
<g id="edge23" class="edge"><title>Node3&#45;&gt;Node22</title>
<path fill="none" stroke="midnightblue" d="M375.195,-342.979C381.819,-340.198 388.199,-336.904 394,-333 416.124,-318.113 407.876,-299.887 430,-285 433.082,-282.926 436.327,-281.024 439.685,-279.28"/>
<polygon fill="midnightblue" stroke="midnightblue" points="441.225,-282.424 448.805,-275.021 438.264,-276.081 441.225,-282.424"/>
</g>
<!-- Node5 -->
<g id="node5" class="node"><title>Node5</title>
<g id="a_node5"><a xlink:href="../../d2/d82/classengine_1_1render_1_1_rendered_node.html#a520a8c03b505d10c69e010e603cadfdd" target="_top" xlink:title="engine.render.RenderedNode.set\lImageView">
<polygon fill="white" stroke="black" points="672,-343 672,-373 846,-373 846,-343 672,-343"/>
<text text-anchor="start" x="680" y="-361" font-family="Helvetica,sans-Serif" font-size="10.00">engine.render.RenderedNode.set</text>
<text text-anchor="middle" x="759" y="-350" font-family="Helvetica,sans-Serif" font-size="10.00">ImageView</text>
</a>
</g>
</g>
<!-- Node4&#45;&gt;Node5 -->
<g id="edge4" class="edge"><title>Node4&#45;&gt;Node5</title>
<path fill="none" stroke="midnightblue" d="M604.241,-358C622.585,-358 642.381,-358 661.467,-358"/>
<polygon fill="midnightblue" stroke="midnightblue" points="661.676,-361.5 671.676,-358 661.675,-354.5 661.676,-361.5"/>
</g>
<!-- Node6 -->
<g id="node6" class="node"><title>Node6</title>
<g id="a_node6"><a xlink:href="../../d5/d30/classengine_1_1render_1_1_rendered_node_factory.html#ae9ab86f88eb96945a412e561179aa070" target="_top" xlink:title="engine.render.RenderedNode\lFactory.createImageAndView">
<polygon fill="white" stroke="black" points="681,-294 681,-324 837,-324 837,-294 681,-294"/>
<text text-anchor="start" x="689" y="-312" font-family="Helvetica,sans-Serif" font-size="10.00">engine.render.RenderedNode</text>
<text text-anchor="middle" x="759" y="-301" font-family="Helvetica,sans-Serif" font-size="10.00">Factory.createImageAndView</text>
</a>
</g>
</g>
<!-- Node4&#45;&gt;Node6 -->
<g id="edge5" class="edge"><title>Node4&#45;&gt;Node6</title>
<path fill="none" stroke="midnightblue" d="M597.877,-342.965C623.044,-337.627 651.55,-331.58 677.464,-326.083"/>
<polygon fill="midnightblue" stroke="midnightblue" points="678.201,-329.505 687.257,-324.006 676.748,-322.657 678.201,-329.505"/>
</g>
<!-- Node10 -->
<g id="node10" class="node"><title>Node10</title>
<g id="a_node10"><a xlink:href="../../d2/d82/classengine_1_1render_1_1_rendered_node.html#ad73c81ad48b40faea3818c9a7bbfdcf0" target="_top" xlink:title="engine.render.RenderedNode.set\lCollisionBody">
<polygon fill="white" stroke="black" points="672,-196 672,-226 846,-226 846,-196 672,-196"/>
<text text-anchor="start" x="680" y="-214" font-family="Helvetica,sans-Serif" font-size="10.00">engine.render.RenderedNode.set</text>
<text text-anchor="middle" x="759" y="-203" font-family="Helvetica,sans-Serif" font-size="10.00">CollisionBody</text>
</a>
</g>
</g>
<!-- Node4&#45;&gt;Node10 -->
<g id="edge9" class="edge"><title>Node4&#45;&gt;Node10</title>
<path fill="none" stroke="midnightblue" d="M604.042,-344.883C610.57,-341.716 616.693,-337.811 622,-333 656.07,-302.117 623.74,-266.672 658,-236 659.733,-234.448 661.548,-232.99 663.433,-231.619"/>
<polygon fill="midnightblue" stroke="midnightblue" points="665.507,-234.448 672.097,-226.152 661.771,-228.528 665.507,-234.448"/>
</g>
<!-- Node11 -->
<g id="node11" class="node"><title>Node11</title>
<g id="a_node11"><a xlink:href="../../d5/d30/classengine_1_1render_1_1_rendered_node_factory.html#ac14d2f5a3da79d92c967fe22bc82c1ed" target="_top" xlink:title="engine.render.RenderedNode\lFactory.createCollisionBody">
<polygon fill="white" stroke="black" points="681,-147 681,-177 837,-177 837,-147 681,-147"/>
<text text-anchor="start" x="689" y="-165" font-family="Helvetica,sans-Serif" font-size="10.00">engine.render.RenderedNode</text>
<text text-anchor="middle" x="759" y="-154" font-family="Helvetica,sans-Serif" font-size="10.00">Factory.createCollisionBody</text>
</a>
</g>
</g>
<!-- Node4&#45;&gt;Node11 -->
<g id="edge10" class="edge"><title>Node4&#45;&gt;Node11</title>
<path fill="none" stroke="midnightblue" d="M604.174,-345.732C610.758,-342.401 616.855,-338.226 622,-333 668.888,-285.376 610.819,-234.334 658,-187 662.027,-182.96 666.601,-179.539 671.525,-176.644"/>
<polygon fill="midnightblue" stroke="midnightblue" points="673.382,-179.626 680.72,-171.984 670.218,-173.383 673.382,-179.626"/>
</g>
<!-- Node15 -->
<g id="node15" class="node"><title>Node15</title>
<g id="a_node15"><a xlink:href="../../d2/d82/classengine_1_1render_1_1_rendered_node.html#a312c663dd1144ff206ecfa1ea8c95a81" target="_top" xlink:title="engine.render.RenderedNode.set\lLabel">
<polygon fill="white" stroke="black" points="672,-98 672,-128 846,-128 846,-98 672,-98"/>
<text text-anchor="start" x="680" y="-116" font-family="Helvetica,sans-Serif" font-size="10.00">engine.render.RenderedNode.set</text>
<text text-anchor="middle" x="759" y="-105" font-family="Helvetica,sans-Serif" font-size="10.00">Label</text>
</a>
</g>
</g>
<!-- Node4&#45;&gt;Node15 -->
<g id="edge14" class="edge"><title>Node4&#45;&gt;Node15</title>
<path fill="none" stroke="midnightblue" d="M604.044,-346.279C610.74,-342.849 616.896,-338.501 622,-333 681.946,-268.396 597.657,-202.232 658,-138 659.643,-136.251 661.388,-134.618 663.219,-133.091"/>
<polygon fill="midnightblue" stroke="midnightblue" points="665.609,-135.688 671.761,-127.063 661.573,-129.969 665.609,-135.688"/>
</g>
<!-- Node16 -->
<g id="node16" class="node"><title>Node16</title>
<g id="a_node16"><a xlink:href="../../d5/d30/classengine_1_1render_1_1_rendered_node_factory.html#a4e1f4508b1c12b958bd3c88a35a4e872" target="_top" xlink:title="engine.render.RenderedNode\lFactory.createLabel">
<polygon fill="white" stroke="black" points="681,-245 681,-275 837,-275 837,-245 681,-245"/>
<text text-anchor="start" x="689" y="-263" font-family="Helvetica,sans-Serif" font-size="10.00">engine.render.RenderedNode</text>
<text text-anchor="middle" x="759" y="-252" font-family="Helvetica,sans-Serif" font-size="10.00">Factory.createLabel</text>
</a>
</g>
</g>
<!-- Node4&#45;&gt;Node16 -->
<g id="edge15" class="edge"><title>Node4&#45;&gt;Node16</title>
<path fill="none" stroke="midnightblue" d="M603.195,-342.979C609.819,-340.198 616.199,-336.904 622,-333 644.124,-318.113 635.784,-299.751 658,-285 662.27,-282.165 666.836,-279.651 671.579,-277.423"/>
<polygon fill="midnightblue" stroke="midnightblue" points="673.044,-280.603 680.885,-273.479 670.312,-274.158 673.044,-280.603"/>
</g>
<!-- Node18 -->
<g id="node18" class="node"><title>Node18</title>
<g id="a_node18"><a xlink:href="../../d0/d7f/classengine_1_1game_object_1_1_game_object.html#a606c7293c2bfac0af1fb42143bf527f6" target="_top" xlink:title="engine.gameObject.GameObject.getX">
<polygon fill="white" stroke="black" points="660,-468.5 660,-487.5 858,-487.5 858,-468.5 660,-468.5"/>
<text text-anchor="middle" x="759" y="-475.5" font-family="Helvetica,sans-Serif" font-size="10.00">engine.gameObject.GameObject.getX</text>
</a>
</g>
</g>
<!-- Node4&#45;&gt;Node18 -->
<g id="edge19" class="edge"><title>Node4&#45;&gt;Node18</title>
<path fill="none" stroke="midnightblue" d="M541.559,-373.069C564.226,-395.567 610.325,-437.579 658,-459 663.712,-461.567 669.759,-463.787 675.939,-465.707"/>
<polygon fill="midnightblue" stroke="midnightblue" points="675.154,-469.123 685.73,-468.485 677.065,-462.388 675.154,-469.123"/>
</g>
<!-- Node19 -->
<g id="node19" class="node"><title>Node19</title>
<g id="a_node19"><a xlink:href="../../d0/d7f/classengine_1_1game_object_1_1_game_object.html#a1988806ef560c9384f3844d0666a9450" target="_top" xlink:title="engine.gameObject.GameObject.getY">
<polygon fill="white" stroke="black" points="660.5,-430.5 660.5,-449.5 857.5,-449.5 857.5,-430.5 660.5,-430.5"/>
<text text-anchor="middle" x="759" y="-437.5" font-family="Helvetica,sans-Serif" font-size="10.00">engine.gameObject.GameObject.getY</text>
</a>
</g>
</g>
<!-- Node4&#45;&gt;Node19 -->
<g id="edge20" class="edge"><title>Node4&#45;&gt;Node19</title>
<path fill="none" stroke="midnightblue" d="M553.243,-373.147C579.102,-387.456 620.126,-408.532 658,-421 666.506,-423.8 675.562,-426.236 684.618,-428.342"/>
<polygon fill="midnightblue" stroke="midnightblue" points="683.899,-431.768 694.418,-430.5 685.405,-424.931 683.899,-431.768"/>
</g>
<!-- Node20 -->
<g id="node20" class="node"><title>Node20</title>
<g id="a_node20"><a xlink:href="../../d0/d7f/classengine_1_1game_object_1_1_game_object.html#ae94fe532960bd29f64c2dc19ec0af798" target="_top" xlink:title="engine.gameObject.GameObject.getID">
<polygon fill="white" stroke="black" points="658,-392.5 658,-411.5 860,-411.5 860,-392.5 658,-392.5"/>
<text text-anchor="middle" x="759" y="-399.5" font-family="Helvetica,sans-Serif" font-size="10.00">engine.gameObject.GameObject.getID</text>
</a>
</g>
</g>
<!-- Node4&#45;&gt;Node20 -->
<g id="edge21" class="edge"><title>Node4&#45;&gt;Node20</title>
<path fill="none" stroke="midnightblue" d="M604.241,-372.713C634.863,-378.545 669.53,-385.149 698.185,-390.607"/>
<polygon fill="midnightblue" stroke="midnightblue" points="697.575,-394.053 708.054,-392.486 698.885,-387.177 697.575,-394.053"/>
</g>
<!-- Node7 -->
<g id="node7" class="node"><title>Node7</title>
<g id="a_node7"><a xlink:href="../../d0/d7f/classengine_1_1game_object_1_1_game_object.html#ae8b88e1cf489e935426e2e252defbae0" target="_top" xlink:title="engine.gameObject.GameObject.get\lCurrentImageName">
<polygon fill="white" stroke="black" points="896,-319 896,-349 1088,-349 1088,-319 896,-319"/>
<text text-anchor="start" x="904" y="-337" font-family="Helvetica,sans-Serif" font-size="10.00">engine.gameObject.GameObject.get</text>
<text text-anchor="middle" x="992" y="-326" font-family="Helvetica,sans-Serif" font-size="10.00">CurrentImageName</text>
</a>
</g>
</g>
<!-- Node6&#45;&gt;Node7 -->
<g id="edge6" class="edge"><title>Node6&#45;&gt;Node7</title>
<path fill="none" stroke="midnightblue" d="M837.241,-317.359C852.773,-319.04 869.346,-320.834 885.647,-322.598"/>
<polygon fill="midnightblue" stroke="midnightblue" points="885.431,-326.095 895.75,-323.692 886.184,-319.136 885.431,-326.095"/>
</g>
<!-- Node6&#45;&gt;Node8 -->
<g id="edge7" class="edge"><title>Node6&#45;&gt;Node8</title>
<path fill="none" stroke="midnightblue" d="M832.82,-324.072C842.134,-326.906 851.408,-330.199 860,-334 877.586,-341.779 878.463,-350.112 896,-358 901.381,-360.42 907.042,-362.643 912.81,-364.677"/>
<polygon fill="midnightblue" stroke="midnightblue" points="911.992,-368.093 922.586,-367.924 914.199,-361.45 911.992,-368.093"/>
</g>
<!-- Node9 -->
<g id="node9" class="node"><title>Node9</title>
<g id="a_node9"><a xlink:href="../../d0/d7f/classengine_1_1game_object_1_1_game_object.html#a31aa2c854220621b49fc5575b50b9342" target="_top" xlink:title="engine.gameObject.GameObject.get\lWidth">
<polygon fill="white" stroke="black" points="896,-270 896,-300 1088,-300 1088,-270 896,-270"/>
<text text-anchor="start" x="904" y="-288" font-family="Helvetica,sans-Serif" font-size="10.00">engine.gameObject.GameObject.get</text>
<text text-anchor="middle" x="992" y="-277" font-family="Helvetica,sans-Serif" font-size="10.00">Width</text>
</a>
</g>
</g>
<!-- Node6&#45;&gt;Node9 -->
<g id="edge8" class="edge"><title>Node6&#45;&gt;Node9</title>
<path fill="none" stroke="midnightblue" d="M837.241,-300.975C852.773,-299.361 869.346,-297.639 885.647,-295.946"/>
<polygon fill="midnightblue" stroke="midnightblue" points="886.165,-299.411 895.75,-294.896 885.441,-292.448 886.165,-299.411"/>
</g>
<!-- Node12 -->
<g id="node12" class="node"><title>Node12</title>
<g id="a_node12"><a xlink:href="../../d0/d7f/classengine_1_1game_object_1_1_game_object.html#a60c5b6933aac9969491a3562a963c043" target="_top" xlink:title="engine.gameObject.GameObject.get\lPhysicsBody">
<polygon fill="white" stroke="black" points="896,-172 896,-202 1088,-202 1088,-172 896,-172"/>
<text text-anchor="start" x="904" y="-190" font-family="Helvetica,sans-Serif" font-size="10.00">engine.gameObject.GameObject.get</text>
<text text-anchor="middle" x="992" y="-179" font-family="Helvetica,sans-Serif" font-size="10.00">PhysicsBody</text>
</a>
</g>
</g>
<!-- Node11&#45;&gt;Node12 -->
<g id="edge11" class="edge"><title>Node11&#45;&gt;Node12</title>
<path fill="none" stroke="midnightblue" d="M837.241,-170.359C852.773,-172.04 869.346,-173.834 885.647,-175.598"/>
<polygon fill="midnightblue" stroke="midnightblue" points="885.431,-179.095 895.75,-176.692 886.184,-172.136 885.431,-179.095"/>
</g>
<!-- Node13 -->
<g id="node13" class="node"><title>Node13</title>
<g id="a_node13"><a xlink:href="../../d9/d9d/classengine_1_1game_object_1_1components_1_1_physics_body.html#aba2ed3bce8ee8e404907c88b144626fc" target="_top" xlink:title="engine.gameObject.components.\lPhysicsBody.getCollisionBodyHeight">
<polygon fill="white" stroke="black" points="898,-123 898,-153 1086,-153 1086,-123 898,-123"/>
<text text-anchor="start" x="906" y="-141" font-family="Helvetica,sans-Serif" font-size="10.00">engine.gameObject.components.</text>
<text text-anchor="middle" x="992" y="-130" font-family="Helvetica,sans-Serif" font-size="10.00">PhysicsBody.getCollisionBodyHeight</text>
</a>
</g>
</g>
<!-- Node11&#45;&gt;Node13 -->
<g id="edge12" class="edge"><title>Node11&#45;&gt;Node13</title>
<path fill="none" stroke="midnightblue" d="M837.241,-153.975C853.468,-152.289 870.83,-150.485 887.832,-148.719"/>
<polygon fill="midnightblue" stroke="midnightblue" points="888.205,-152.199 897.79,-147.684 887.482,-145.236 888.205,-152.199"/>
</g>
<!-- Node14 -->
<g id="node14" class="node"><title>Node14</title>
<g id="a_node14"><a xlink:href="../../d9/d9d/classengine_1_1game_object_1_1components_1_1_physics_body.html#ae64e43632570392c3118b3d00af853fc" target="_top" xlink:title="engine.gameObject.components.\lPhysicsBody.getCollisionBodyWidth">
<polygon fill="white" stroke="black" points="901,-74 901,-104 1083,-104 1083,-74 901,-74"/>
<text text-anchor="start" x="909" y="-92" font-family="Helvetica,sans-Serif" font-size="10.00">engine.gameObject.components.</text>
<text text-anchor="middle" x="992" y="-81" font-family="Helvetica,sans-Serif" font-size="10.00">PhysicsBody.getCollisionBodyWidth</text>
</a>
</g>
</g>
<!-- Node11&#45;&gt;Node14 -->
<g id="edge13" class="edge"><title>Node11&#45;&gt;Node14</title>
<path fill="none" stroke="midnightblue" d="M832.218,-146.929C841.722,-144.084 851.207,-140.788 860,-137 877.438,-129.488 878.609,-121.619 896,-114 901.638,-111.53 907.575,-109.259 913.614,-107.181"/>
<polygon fill="midnightblue" stroke="midnightblue" points="914.735,-110.497 923.16,-104.073 912.568,-103.841 914.735,-110.497"/>
</g>
<!-- Node16&#45;&gt;Node8 -->
<g id="edge17" class="edge"><title>Node16&#45;&gt;Node8</title>
<path fill="none" stroke="midnightblue" d="M837.025,-271.804C845.299,-275.18 853.175,-279.494 860,-285 888.156,-307.713 867.985,-335.113 896,-358 898.08,-359.699 900.264,-361.284 902.531,-362.762"/>
<polygon fill="midnightblue" stroke="midnightblue" points="901.22,-366.044 911.642,-367.95 904.684,-359.961 901.22,-366.044"/>
</g>
<!-- Node16&#45;&gt;Node9 -->
<g id="edge18" class="edge"><title>Node16&#45;&gt;Node9</title>
<path fill="none" stroke="midnightblue" d="M837.241,-268.359C852.773,-270.04 869.346,-271.834 885.647,-273.598"/>
<polygon fill="midnightblue" stroke="midnightblue" points="885.431,-277.095 895.75,-274.692 886.184,-270.136 885.431,-277.095"/>
</g>
<!-- Node17 -->
<g id="node17" class="node"><title>Node17</title>
<g id="a_node17"><a xlink:href="../../d0/d7f/classengine_1_1game_object_1_1_game_object.html#a5c379828f3bb19a91935f965c48a91a5" target="_top" xlink:title="engine.gameObject.GameObject.get\lLabel">
<polygon fill="white" stroke="black" points="896,-221 896,-251 1088,-251 1088,-221 896,-221"/>
<text text-anchor="start" x="904" y="-239" font-family="Helvetica,sans-Serif" font-size="10.00">engine.gameObject.GameObject.get</text>
<text text-anchor="middle" x="992" y="-228" font-family="Helvetica,sans-Serif" font-size="10.00">Label</text>
</a>
</g>
</g>
<!-- Node16&#45;&gt;Node17 -->
<g id="edge16" class="edge"><title>Node16&#45;&gt;Node17</title>
<path fill="none" stroke="midnightblue" d="M837.241,-251.975C852.773,-250.361 869.346,-248.639 885.647,-246.946"/>
<polygon fill="midnightblue" stroke="midnightblue" points="886.165,-250.411 895.75,-245.896 885.441,-243.448 886.165,-250.411"/>
</g>
</g>
</svg>
        <g id="navigator" transform="translate(0 0)" fill="#404254">
                <rect fill="#f2f5e9" fill-opacity="0.5" stroke="#606060" stroke-width=".5" x="0" y="0" width="60" height="60"/>
                <use id="zoomplus" xlink:href="#zoomPlus" x="17" y="9" onmousedown="handleZoom(evt,'in')"/>
                <use id="zoomminus" xlink:href="#zoomMin" x="42" y="9" onmousedown="handleZoom(evt,'out')"/>
                <use id="reset" xlink:href="#resetDef" x="30" y="36" onmousedown="handleReset()"/>
                <g id="arrowUp" xlink:href="#dirArrow" transform="translate(30 24)" onmousedown="handlePan(0,-1)">
                  <use xlink:href="#rim" fill="#404040">
                        <set attributeName="fill" to="#808080" begin="arrowUp.mouseover" end="arrowUp.mouseout"/>
                  </use>
                  <path fill="none" stroke="white" stroke-width="1.5" d="M0,-3.0v7 M-2.5,-0.5L0,-3.0L2.5,-0.5"/>
                </g>
                <g id="arrowRight" xlink:href="#dirArrow" transform="rotate(90) translate(36 -43)" onmousedown="handlePan(1,0)">
                  <use xlink:href="#rim" fill="#404040">
                        <set attributeName="fill" to="#808080" begin="arrowRight.mouseover" end="arrowRight.mouseout"/>
                  </use>
                  <path fill="none" stroke="white" stroke-width="1.5" d="M0,-3.0v7 M-2.5,-0.5L0,-3.0L2.5,-0.5"/>
                </g>
                <g id="arrowDown" xlink:href="#dirArrow" transform="rotate(180) translate(-30 -48)" onmousedown="handlePan(0,1)">
                  <use xlink:href="#rim" fill="#404040">
                        <set attributeName="fill" to="#808080" begin="arrowDown.mouseover" end="arrowDown.mouseout"/>
                  </use>
                  <path fill="none" stroke="white" stroke-width="1.5" d="M0,-3.0v7 M-2.5,-0.5L0,-3.0L2.5,-0.5"/>
                </g>
                <g id="arrowLeft" xlink:href="#dirArrow" transform="rotate(270) translate(-36 17)" onmousedown="handlePan(-1,0)">
                  <use xlink:href="#rim" fill="#404040">
                        <set attributeName="fill" to="#808080" begin="arrowLeft.mouseover" end="arrowLeft.mouseout"/>
                  </use>
                  <path fill="none" stroke="white" stroke-width="1.5" d="M0,-3.0v7 M-2.5,-0.5L0,-3.0L2.5,-0.5"/>
                </g>
        </g>
        <svg viewBox="0 0 15 15" width="100%" height="30px" preserveAspectRatio="xMaxYMin meet">
         <g id="arrow_out" transform="scale(0.3 0.3)">
          <a xlink:href="classengine_1_1actions_1_1_make_new_object_from_object_action_a01ffb165d6169f7b0a22733e2b6c61a9_cgraph_org.svg" target="_base">
           <rect id="button" ry="5" rx="5" y="6" x="6" height="38" width="38"
                fill="#f2f5e9" fill-opacity="0.5" stroke="#606060" stroke-width="1.0"/>
           <path id="arrow"
             d="M 11.500037,31.436501 C 11.940474,20.09759 22.043105,11.32322 32.158766,21.979434 L 37.068811,17.246167 C 37.068811,17.246167 37.088388,32 37.088388,32 L 22.160133,31.978069 C 22.160133,31.978069 26.997745,27.140456 26.997745,27.140456 C 18.528582,18.264221 13.291696,25.230495 11.500037,31.436501 z"
             style="fill:#404040;"/>
          </a>
         </g>
        </svg>
</svg>
