<?xml version="1.0" encoding="UTF-8" standalone="no"?>
<!DOCTYPE svg PUBLIC "-//W3C//DTD SVG 1.1//EN"
 "http://www.w3.org/Graphics/SVG/1.1/DTD/svg11.dtd">
<!-- Generated by graphviz version 2.36.0 (20140111.2315)
 -->
<!-- Title: authoring.eventhandlers.AddObjectHandler Pages: 1 -->
<svg width="1356pt" height="680pt"
 viewBox="0.00 0.00 1356.00 680.00" xmlns="http://www.w3.org/2000/svg" xmlns:xlink="http://www.w3.org/1999/xlink">
<g id="graph0" class="graph" transform="scale(1 1) rotate(0) translate(4 676)">
<title>authoring.eventhandlers.AddObjectHandler</title>
<polygon fill="white" stroke="none" points="-4,4 -4,-676 1352,-676 1352,4 -4,4"/>
<!-- Node1 -->
<g id="node1" class="node"><title>Node1</title>
<polygon fill="#bfbfbf" stroke="black" points="1210.5,-193 1210.5,-223 1347.5,-223 1347.5,-193 1210.5,-193"/>
<text text-anchor="start" x="1218.5" y="-211" font-family="Helvetica,sans-Serif" font-size="10.00">authoring.eventhandlers.</text>
<text text-anchor="middle" x="1279" y="-200" font-family="Helvetica,sans-Serif" font-size="10.00">AddObjectHandler</text>
</g>
<!-- Node2 -->
<g id="node2" class="node"><title>Node2</title>
<g id="a_node2"><a xlink:href="../../d3/d6a/interfaceauthoring_1_1eventhandlers_1_1_game_handler.html" target="_top" xlink:title="authoring.eventhandlers.\lGameHandler\&lt; Event \&gt;">
<polygon fill="white" stroke="black" points="918.5,-427 918.5,-457 1055.5,-457 1055.5,-427 918.5,-427"/>
<text text-anchor="start" x="926.5" y="-445" font-family="Helvetica,sans-Serif" font-size="10.00">authoring.eventhandlers.</text>
<text text-anchor="middle" x="987" y="-434" font-family="Helvetica,sans-Serif" font-size="10.00">GameHandler&lt; Event &gt;</text>
</a>
</g>
</g>
<!-- Node2&#45;&gt;Node1 -->
<g id="edge1" class="edge"><title>Node2&#45;&gt;Node1</title>
<path fill="none" stroke="midnightblue" d="M1057.57,-423.679C1063.2,-421.622 1068.74,-419.395 1074,-417 1130.77,-391.134 1147.85,-385.07 1192,-341 1228.78,-304.285 1258.13,-249.289 1270.97,-223.017"/>
<polygon fill="midnightblue" stroke="midnightblue" points="1056.33,-420.401 1048.03,-426.979 1058.62,-427.016 1056.33,-420.401"/>
</g>
<!-- Node3 -->
<g id="node3" class="node"><title>Node3</title>
<g id="a_node3"><a xlink:href="../../d0/d7f/classengine_1_1game_object_1_1_game_object.html" target="_top" xlink:title="engine.gameObject.GameObject">
<polygon fill="white" stroke="black" points="900.5,-388.5 900.5,-407.5 1073.5,-407.5 1073.5,-388.5 900.5,-388.5"/>
<text text-anchor="middle" x="987" y="-395.5" font-family="Helvetica,sans-Serif" font-size="10.00">engine.gameObject.GameObject</text>
</a>
</g>
</g>
<!-- Node3&#45;&gt;Node1 -->
<g id="edge2" class="edge"><title>Node3&#45;&gt;Node1</title>
<path fill="none" stroke="#9a32cd" stroke-dasharray="5,2" d="M1011.39,-382.674C1065.84,-347 1200.54,-258.751 1254.8,-223.201"/>
<polygon fill="#9a32cd" stroke="#9a32cd" points="1009.23,-379.909 1002.78,-388.317 1013.06,-385.764 1009.23,-379.909"/>
<text text-anchor="middle" x="1142" y="-329" font-family="Helvetica,sans-Serif" font-size="10.00"> myNewGameObject</text>
</g>
<!-- Node4 -->
<g id="node4" class="node"><title>Node4</title>
<g id="a_node4"><a xlink:href="../../d7/de6/interfaceengine_1_1game_object_1_1_i_enabled.html" target="_top" xlink:title="engine.gameObject.IEnabled">
<polygon fill="white" stroke="black" points="609,-529.5 609,-548.5 763,-548.5 763,-529.5 609,-529.5"/>
<text text-anchor="middle" x="686" y="-536.5" font-family="Helvetica,sans-Serif" font-size="10.00">engine.gameObject.IEnabled</text>
</a>
</g>
</g>
<!-- Node4&#45;&gt;Node3 -->
<g id="edge3" class="edge"><title>Node4&#45;&gt;Node3</title>
<path fill="none" stroke="midnightblue" d="M746.489,-527.17C755.753,-524.994 765.174,-522.584 774,-520 823.124,-505.615 847.215,-517.55 882,-480 901.79,-458.637 878.792,-436.955 900,-417 904.009,-413.228 908.591,-410.141 913.506,-407.621"/>
<polygon fill="midnightblue" stroke="midnightblue" points="745.507,-523.803 736.534,-529.436 747.062,-530.629 745.507,-523.803"/>
</g>
<!-- Node5 -->
<g id="node5" class="node"><title>Node5</title>
<polygon fill="white" stroke="#bfbfbf" points="620.5,-491.5 620.5,-510.5 751.5,-510.5 751.5,-491.5 620.5,-491.5"/>
<text text-anchor="middle" x="686" y="-498.5" font-family="Helvetica,sans-Serif" font-size="10.00">Iterable&lt; Component &gt;</text>
</g>
<!-- Node5&#45;&gt;Node3 -->
<g id="edge4" class="edge"><title>Node5&#45;&gt;Node3</title>
<path fill="none" stroke="midnightblue" d="M742.577,-489.273C753.037,-486.95 763.868,-484.465 774,-482 822.291,-470.25 843.503,-484.434 882,-453 895.856,-441.686 885.893,-428 900,-417 904.944,-413.145 910.51,-410.037 916.372,-407.537"/>
<polygon fill="midnightblue" stroke="midnightblue" points="741.713,-485.88 732.697,-491.445 743.216,-492.716 741.713,-485.88"/>
</g>
<!-- Node6 -->
<g id="node6" class="node"><title>Node6</title>
<g id="a_node6"><a xlink:href="../../dc/df6/interfaceengine_1_1game_object_1_1_identifiable.html" target="_top" xlink:title="engine.gameObject.Identifiable">
<polygon fill="white" stroke="black" points="603.5,-453.5 603.5,-472.5 768.5,-472.5 768.5,-453.5 603.5,-453.5"/>
<text text-anchor="middle" x="686" y="-460.5" font-family="Helvetica,sans-Serif" font-size="10.00">engine.gameObject.Identifiable</text>
</a>
</g>
</g>
<!-- Node6&#45;&gt;Node3 -->
<g id="edge5" class="edge"><title>Node6&#45;&gt;Node3</title>
<path fill="none" stroke="midnightblue" d="M778.857,-452.323C811.986,-446.844 849.261,-438.759 882,-427 890.613,-423.906 891.442,-420.243 900,-417 910.009,-413.207 920.974,-410.067 931.624,-407.508"/>
<polygon fill="midnightblue" stroke="midnightblue" points="778.042,-448.909 768.718,-453.941 779.145,-455.821 778.042,-448.909"/>
</g>
<!-- Node7 -->
<g id="node7" class="node"><title>Node7</title>
<g id="a_node7"><a xlink:href="../../d4/dac/classengine_1_1game_object_1_1_identifier.html" target="_top" xlink:title="engine.gameObject.Identifier">
<polygon fill="white" stroke="black" points="608.5,-365.5 608.5,-384.5 763.5,-384.5 763.5,-365.5 608.5,-365.5"/>
<text text-anchor="middle" x="686" y="-372.5" font-family="Helvetica,sans-Serif" font-size="10.00">engine.gameObject.Identifier</text>
</a>
</g>
</g>
<!-- Node7&#45;&gt;Node3 -->
<g id="edge6" class="edge"><title>Node7&#45;&gt;Node3</title>
<path fill="none" stroke="#9a32cd" stroke-dasharray="5,2" d="M773.834,-381.68C813.645,-384.742 860.694,-388.361 900.359,-391.412"/>
<polygon fill="#9a32cd" stroke="#9a32cd" points="773.851,-378.171 763.612,-380.893 773.314,-385.15 773.851,-378.171"/>
<text text-anchor="middle" x="837" y="-393" font-family="Helvetica,sans-Serif" font-size="10.00"> myId</text>
</g>
<!-- Node8 -->
<g id="node8" class="node"><title>Node8</title>
<polygon fill="white" stroke="#bfbfbf" points="305,-365.5 305,-384.5 361,-384.5 361,-365.5 305,-365.5"/>
<text text-anchor="middle" x="333" y="-372.5" font-family="Helvetica,sans-Serif" font-size="10.00">Random</text>
</g>
<!-- Node8&#45;&gt;Node7 -->
<g id="edge7" class="edge"><title>Node8&#45;&gt;Node7</title>
<path fill="none" stroke="#9a32cd" stroke-dasharray="5,2" d="M371.457,-375C427.659,-375 535.018,-375 608.295,-375"/>
<polygon fill="#9a32cd" stroke="#9a32cd" points="371.25,-371.5 361.25,-375 371.25,-378.5 371.25,-371.5"/>
<text text-anchor="middle" x="522" y="-378" font-family="Helvetica,sans-Serif" font-size="10.00"> r</text>
</g>
<!-- Node9 -->
<g id="node9" class="node"><title>Node9</title>
<g id="a_node9"><a xlink:href="../../da/d35/classengine_1_1scrolling_1_1_scrolling_utility.html" target="_top" xlink:title="engine.scrolling.Scrolling\lUtility">
<polygon fill="white" stroke="black" points="619,-316 619,-346 753,-346 753,-316 619,-316"/>
<text text-anchor="start" x="627" y="-334" font-family="Helvetica,sans-Serif" font-size="10.00">engine.scrolling.Scrolling</text>
<text text-anchor="middle" x="686" y="-323" font-family="Helvetica,sans-Serif" font-size="10.00">Utility</text>
</a>
</g>
</g>
<!-- Node9&#45;&gt;Node3 -->
<g id="edge8" class="edge"><title>Node9&#45;&gt;Node3</title>
<path fill="none" stroke="#9a32cd" stroke-dasharray="5,2" d="M763.157,-344.389C799.311,-351.115 843.035,-359.786 882,-369 906.443,-374.78 933.792,-382.455 954.308,-388.457"/>
<polygon fill="#9a32cd" stroke="#9a32cd" points="763.639,-340.919 753.17,-342.544 762.368,-347.802 763.639,-340.919"/>
<text text-anchor="middle" x="837" y="-372" font-family="Helvetica,sans-Serif" font-size="10.00"> myScrollingUtility</text>
</g>
<!-- Node10 -->
<g id="node10" class="node"><title>Node10</title>
<polygon fill="white" stroke="#bfbfbf" points="305.5,-327.5 305.5,-346.5 360.5,-346.5 360.5,-327.5 305.5,-327.5"/>
<text text-anchor="middle" x="333" y="-334.5" font-family="Helvetica,sans-Serif" font-size="10.00">Camera</text>
</g>
<!-- Node10&#45;&gt;Node9 -->
<g id="edge9" class="edge"><title>Node10&#45;&gt;Node9</title>
<path fill="none" stroke="#9a32cd" stroke-dasharray="5,2" d="M370.969,-336.368C429.796,-335.362 545.541,-333.384 618.889,-332.13"/>
<polygon fill="#9a32cd" stroke="#9a32cd" points="370.609,-332.874 360.67,-336.544 370.729,-339.873 370.609,-332.874"/>
<text text-anchor="middle" x="522" y="-338" font-family="Helvetica,sans-Serif" font-size="10.00"> myCamera</text>
</g>
<!-- Node11 -->
<g id="node11" class="node"><title>Node11</title>
<polygon fill="white" stroke="#bfbfbf" points="231,-595 231,-625 435,-625 435,-595 231,-595"/>
<text text-anchor="start" x="239" y="-613" font-family="Helvetica,sans-Serif" font-size="10.00">List&lt; engine.gameObject.components.</text>
<text text-anchor="middle" x="333" y="-602" font-family="Helvetica,sans-Serif" font-size="10.00">Component &gt;</text>
</g>
<!-- Node11&#45;&gt;Node3 -->
<g id="edge10" class="edge"><title>Node11&#45;&gt;Node3</title>
<path fill="none" stroke="#9a32cd" stroke-dasharray="5,2" d="M391.99,-627.859C506.312,-659.041 760.225,-707.55 882,-567 925.968,-516.253 854.904,-466.747 900,-417 903.389,-413.262 907.333,-410.171 911.633,-407.624"/>
<polygon fill="#9a32cd" stroke="#9a32cd" points="392.6,-624.396 382.028,-625.088 390.724,-631.14 392.6,-624.396"/>
<text text-anchor="middle" x="686" y="-664" font-family="Helvetica,sans-Serif" font-size="10.00"> myComponents</text>
</g>
<!-- Node24 -->
<g id="node24" class="node"><title>Node24</title>
<g id="a_node24"><a xlink:href="../../d6/d66/classengine_1_1game_object_1_1_default_data.html" target="_top" xlink:title="engine.gameObject.DefaultData">
<polygon fill="white" stroke="black" points="600.5,-567.5 600.5,-586.5 771.5,-586.5 771.5,-567.5 600.5,-567.5"/>
<text text-anchor="middle" x="686" y="-574.5" font-family="Helvetica,sans-Serif" font-size="10.00">engine.gameObject.DefaultData</text>
</a>
</g>
</g>
<!-- Node11&#45;&gt;Node24 -->
<g id="edge24" class="edge"><title>Node11&#45;&gt;Node24</title>
<path fill="none" stroke="#9a32cd" stroke-dasharray="5,2" d="M445.304,-599.535C495.497,-594.817 553.814,-589.334 600.358,-584.958"/>
<polygon fill="#9a32cd" stroke="#9a32cd" points="444.681,-596.079 435.053,-600.499 445.337,-603.048 444.681,-596.079"/>
<text text-anchor="middle" x="522" y="-600" font-family="Helvetica,sans-Serif" font-size="10.00"> myComponents</text>
</g>
<!-- Node12 -->
<g id="node12" class="node"><title>Node12</title>
<g id="a_node12"><a xlink:href="../../d2/d82/classengine_1_1render_1_1_rendered_node.html" target="_top" xlink:title="engine.render.RenderedNode">
<polygon fill="white" stroke="black" points="608,-273.5 608,-292.5 764,-292.5 764,-273.5 608,-273.5"/>
<text text-anchor="middle" x="686" y="-280.5" font-family="Helvetica,sans-Serif" font-size="10.00">engine.render.RenderedNode</text>
</a>
</g>
</g>
<!-- Node12&#45;&gt;Node3 -->
<g id="edge11" class="edge"><title>Node12&#45;&gt;Node3</title>
<path fill="none" stroke="#9a32cd" stroke-dasharray="5,2" d="M733.238,-295.109C746.416,-298.591 760.782,-302.417 774,-306 822.082,-319.033 836.198,-316.405 882,-336 916.401,-350.718 953.243,-374.943 972.5,-388.339"/>
<polygon fill="#9a32cd" stroke="#9a32cd" points="733.992,-291.688 723.43,-292.523 732.207,-298.457 733.992,-291.688"/>
<text text-anchor="middle" x="837" y="-339" font-family="Helvetica,sans-Serif" font-size="10.00"> myRenderedNode</text>
</g>
<!-- Node13 -->
<g id="node13" class="node"><title>Node13</title>
<polygon fill="white" stroke="#bfbfbf" points="310,-125.5 310,-144.5 356,-144.5 356,-125.5 310,-125.5"/>
<text text-anchor="middle" x="333" y="-132.5" font-family="Helvetica,sans-Serif" font-size="10.00">Group</text>
</g>
<!-- Node13&#45;&gt;Node12 -->
<g id="edge12" class="edge"><title>Node13&#45;&gt;Node12</title>
<path fill="none" stroke="midnightblue" d="M366.54,-137.751C389.261,-140.335 420.047,-145.179 446,-154 509.814,-175.69 533.666,-176.053 580,-225 593.124,-238.864 583.116,-252.045 598,-264 602.701,-267.776 607.989,-270.842 613.575,-273.328"/>
<polygon fill="midnightblue" stroke="midnightblue" points="366.714,-134.25 356.403,-136.686 365.983,-141.212 366.714,-134.25"/>
</g>
<!-- Node27 -->
<g id="node27" class="node"><title>Node27</title>
<g id="a_node27"><a xlink:href="../../d6/d32/classauthoring_1_1view_1_1wizards_1_1_wizard.html" target="_top" xlink:title="authoring.view.wizards.Wizard">
<polygon fill="white" stroke="black" points="607,-90.5 607,-109.5 765,-109.5 765,-90.5 607,-90.5"/>
<text text-anchor="middle" x="686" y="-97.5" font-family="Helvetica,sans-Serif" font-size="10.00">authoring.view.wizards.Wizard</text>
</a>
</g>
</g>
<!-- Node13&#45;&gt;Node27 -->
<g id="edge31" class="edge"><title>Node13&#45;&gt;Node27</title>
<path fill="none" stroke="#9a32cd" stroke-dasharray="5,2" d="M366.286,-131.781C420.511,-126.374 531.349,-115.321 606.917,-107.786"/>
<polygon fill="#9a32cd" stroke="#9a32cd" points="365.826,-128.309 356.223,-132.784 366.521,-135.274 365.826,-128.309"/>
<text text-anchor="middle" x="522" y="-125" font-family="Helvetica,sans-Serif" font-size="10.00"> myRoot</text>
</g>
<!-- Node14 -->
<g id="node14" class="node"><title>Node14</title>
<polygon fill="white" stroke="#bfbfbf" points="312,-213.5 312,-232.5 354,-232.5 354,-213.5 312,-213.5"/>
<text text-anchor="middle" x="333" y="-220.5" font-family="Helvetica,sans-Serif" font-size="10.00">Label</text>
</g>
<!-- Node14&#45;&gt;Node12 -->
<g id="edge13" class="edge"><title>Node14&#45;&gt;Node12</title>
<path fill="none" stroke="#9a32cd" stroke-dasharray="5,2" d="M364.286,-222.612C411.652,-222.899 505.548,-227.086 580,-253 588.855,-256.082 589.299,-260.507 598,-264 607.469,-267.802 617.838,-270.906 628.014,-273.42"/>
<polygon fill="#9a32cd" stroke="#9a32cd" points="364.096,-219.112 354.095,-222.608 364.093,-226.112 364.096,-219.112"/>
<text text-anchor="middle" x="522" y="-256" font-family="Helvetica,sans-Serif" font-size="10.00"> myLabel</text>
</g>
<!-- Node15 -->
<g id="node15" class="node"><title>Node15</title>
<polygon fill="white" stroke="#bfbfbf" points="299,-289.5 299,-308.5 367,-308.5 367,-289.5 299,-289.5"/>
<text text-anchor="middle" x="333" y="-296.5" font-family="Helvetica,sans-Serif" font-size="10.00">ImageView</text>
</g>
<!-- Node15&#45;&gt;Node12 -->
<g id="edge14" class="edge"><title>Node15&#45;&gt;Node12</title>
<path fill="none" stroke="#9a32cd" stroke-dasharray="5,2" d="M377.195,-297.031C434.581,-294.415 536.944,-289.749 607.781,-286.52"/>
<polygon fill="#9a32cd" stroke="#9a32cd" points="376.851,-293.543 367.021,-297.495 377.17,-300.536 376.851,-293.543"/>
<text text-anchor="middle" x="522" y="-296" font-family="Helvetica,sans-Serif" font-size="10.00"> myImageView</text>
</g>
<!-- Node16 -->
<g id="node16" class="node"><title>Node16</title>
<polygon fill="white" stroke="#bfbfbf" points="312,-251.5 312,-270.5 354,-270.5 354,-251.5 312,-251.5"/>
<text text-anchor="middle" x="333" y="-258.5" font-family="Helvetica,sans-Serif" font-size="10.00">Node</text>
</g>
<!-- Node16&#45;&gt;Node12 -->
<g id="edge15" class="edge"><title>Node16&#45;&gt;Node12</title>
<path fill="none" stroke="#9a32cd" stroke-dasharray="5,2" d="M364.381,-262.285C410.856,-264.324 502.384,-268.624 580,-274 589.035,-274.626 598.502,-275.346 607.895,-276.101"/>
<polygon fill="#9a32cd" stroke="#9a32cd" points="364.245,-258.776 354.103,-261.839 363.941,-265.77 364.245,-258.776"/>
<text text-anchor="middle" x="522" y="-277" font-family="Helvetica,sans-Serif" font-size="10.00"> myCollisionBody</text>
</g>
<!-- Node17 -->
<g id="node17" class="node"><title>Node17</title>
<polygon fill="white" stroke="#bfbfbf" points="670,-235.5 670,-254.5 702,-254.5 702,-235.5 670,-235.5"/>
<text text-anchor="middle" x="686" y="-242.5" font-family="Helvetica,sans-Serif" font-size="10.00">File</text>
</g>
<!-- Node17&#45;&gt;Node3 -->
<g id="edge16" class="edge"><title>Node17&#45;&gt;Node3</title>
<path fill="none" stroke="#9a32cd" stroke-dasharray="5,2" d="M712.431,-247.194C751.358,-251.494 826.984,-263.626 882,-296 924.939,-321.267 963.379,-368.049 978.816,-388.27"/>
<polygon fill="#9a32cd" stroke="#9a32cd" points="712.555,-243.689 702.252,-246.158 711.846,-250.653 712.555,-243.689"/>
<text text-anchor="middle" x="837" y="-299" font-family="Helvetica,sans-Serif" font-size="10.00"> gameLocationFile</text>
</g>
<!-- Node18 -->
<g id="node18" class="node"><title>Node18</title>
<g id="a_node18"><a xlink:href="../../d9/d9d/classengine_1_1game_object_1_1components_1_1_physics_body.html" target="_top" xlink:title="engine.gameObject.components.\lPhysicsBody">
<polygon fill="white" stroke="black" points="598,-404 598,-434 774,-434 774,-404 598,-404"/>
<text text-anchor="start" x="606" y="-422" font-family="Helvetica,sans-Serif" font-size="10.00">engine.gameObject.components.</text>
<text text-anchor="middle" x="686" y="-411" font-family="Helvetica,sans-Serif" font-size="10.00">PhysicsBody</text>
</a>
</g>
</g>
<!-- Node18&#45;&gt;Node3 -->
<g id="edge17" class="edge"><title>Node18&#45;&gt;Node3</title>
<path fill="none" stroke="#9a32cd" stroke-dasharray="5,2" d="M784.679,-412.14C822.019,-409.517 864.282,-406.549 900.41,-404.011"/>
<polygon fill="#9a32cd" stroke="#9a32cd" points="784.017,-408.677 774.287,-412.869 784.508,-415.66 784.017,-408.677"/>
<text text-anchor="middle" x="837" y="-415" font-family="Helvetica,sans-Serif" font-size="10.00"> myPhysicsBody</text>
</g>
<!-- Node19 -->
<g id="node19" class="node"><title>Node19</title>
<polygon fill="white" stroke="#bfbfbf" points="255,-491 255,-521 411,-521 411,-491 255,-491"/>
<text text-anchor="start" x="263" y="-509" font-family="Helvetica,sans-Serif" font-size="10.00">Map&lt; String, engine.physics.</text>
<text text-anchor="middle" x="333" y="-498" font-family="Helvetica,sans-Serif" font-size="10.00">Scalar &gt;</text>
</g>
<!-- Node19&#45;&gt;Node18 -->
<g id="edge18" class="edge"><title>Node19&#45;&gt;Node18</title>
<path fill="none" stroke="#9a32cd" stroke-dasharray="5,2" d="M421.277,-502.186C470.138,-497.139 530.914,-485.865 580,-461 589.816,-456.027 588.441,-449.452 598,-444 604.689,-440.185 612.005,-436.914 619.462,-434.12"/>
<polygon fill="#9a32cd" stroke="#9a32cd" points="420.659,-498.729 411.04,-503.171 421.329,-505.697 420.659,-498.729"/>
<text text-anchor="middle" x="522" y="-499" font-family="Helvetica,sans-Serif" font-size="10.00"> myConstants</text>
</g>
<!-- Node20 -->
<g id="node20" class="node"><title>Node20</title>
<polygon fill="white" stroke="#bfbfbf" points="255,-442 255,-472 411,-472 411,-442 255,-442"/>
<text text-anchor="start" x="263" y="-460" font-family="Helvetica,sans-Serif" font-size="10.00">Map&lt; String, engine.physics.</text>
<text text-anchor="middle" x="333" y="-449" font-family="Helvetica,sans-Serif" font-size="10.00">Force &gt;</text>
</g>
<!-- Node20&#45;&gt;Node18 -->
<g id="edge19" class="edge"><title>Node20&#45;&gt;Node18</title>
<path fill="none" stroke="#9a32cd" stroke-dasharray="5,2" d="M421.24,-449.244C468.307,-444.87 527.379,-439.073 580,-433 585.846,-432.325 591.871,-431.601 597.94,-430.849"/>
<polygon fill="#9a32cd" stroke="#9a32cd" points="420.716,-445.778 411.081,-450.184 421.361,-452.748 420.716,-445.778"/>
<text text-anchor="middle" x="522" y="-449" font-family="Helvetica,sans-Serif" font-size="10.00"> myActiveForces</text>
</g>
<!-- Node21 -->
<g id="node21" class="node"><title>Node21</title>
<polygon fill="white" stroke="#bfbfbf" points="249.5,-403.5 249.5,-422.5 416.5,-422.5 416.5,-403.5 249.5,-403.5"/>
<text text-anchor="middle" x="333" y="-410.5" font-family="Helvetica,sans-Serif" font-size="10.00">List&lt; engine.physics.Impulse &gt;</text>
</g>
<!-- Node21&#45;&gt;Node18 -->
<g id="edge20" class="edge"><title>Node21&#45;&gt;Node18</title>
<path fill="none" stroke="#9a32cd" stroke-dasharray="5,2" d="M426.818,-414.587C479.831,-415.493 545.892,-416.622 597.92,-417.511"/>
<polygon fill="#9a32cd" stroke="#9a32cd" points="426.796,-411.086 416.738,-414.414 426.676,-418.085 426.796,-411.086"/>
<text text-anchor="middle" x="522" y="-421" font-family="Helvetica,sans-Serif" font-size="10.00"> myImpulses</text>
</g>
<!-- Node22 -->
<g id="node22" class="node"><title>Node22</title>
<g id="a_node22"><a xlink:href="../../d5/d1f/classengine_1_1physics_1_1_vector.html" target="_top" xlink:title="engine.physics.Vector">
<polygon fill="white" stroke="black" points="272.5,-540.5 272.5,-559.5 393.5,-559.5 393.5,-540.5 272.5,-540.5"/>
<text text-anchor="middle" x="333" y="-547.5" font-family="Helvetica,sans-Serif" font-size="10.00">engine.physics.Vector</text>
</a>
</g>
</g>
<!-- Node22&#45;&gt;Node18 -->
<g id="edge21" class="edge"><title>Node22&#45;&gt;Node18</title>
<path fill="none" stroke="#9a32cd" stroke-dasharray="5,2" d="M404.01,-547.238C467.426,-543.289 554.691,-533.777 580,-511 602.919,-490.374 576.387,-465.991 598,-444 601.745,-440.189 606.03,-436.95 610.646,-434.197"/>
<polygon fill="#9a32cd" stroke="#9a32cd" points="403.433,-543.765 393.655,-547.847 403.844,-550.753 403.433,-543.765"/>
<text text-anchor="middle" x="522" y="-567" font-family="Helvetica,sans-Serif" font-size="10.00"> myBalancedForcesMag</text>
<text text-anchor="middle" x="522" y="-556" font-family="Helvetica,sans-Serif" font-size="10.00">myVelocity</text>
<text text-anchor="middle" x="522" y="-545" font-family="Helvetica,sans-Serif" font-size="10.00">myAcceleration</text>
</g>
<!-- Node23 -->
<g id="node23" class="node"><title>Node23</title>
<g id="a_node23"><a xlink:href="../../dc/db5/classengine_1_1physics_1_1_physics_component.html" target="_top" xlink:title="engine.physics.PhysicsComponent">
<polygon fill="white" stroke="black" points="0,-540.5 0,-559.5 182,-559.5 182,-540.5 0,-540.5"/>
<text text-anchor="middle" x="91" y="-547.5" font-family="Helvetica,sans-Serif" font-size="10.00">engine.physics.PhysicsComponent</text>
</a>
</g>
</g>
<!-- Node23&#45;&gt;Node22 -->
<g id="edge22" class="edge"><title>Node23&#45;&gt;Node22</title>
<path fill="none" stroke="midnightblue" d="M192.403,-550C219.624,-550 248.228,-550 272.406,-550"/>
<polygon fill="midnightblue" stroke="midnightblue" points="192.05,-546.5 182.05,-550 192.05,-553.5 192.05,-546.5"/>
</g>
<!-- Node24&#45;&gt;Node3 -->
<g id="edge23" class="edge"><title>Node24&#45;&gt;Node3</title>
<path fill="none" stroke="#9a32cd" stroke-dasharray="5,2" d="M748.255,-565.142C756.966,-563.016 765.76,-560.629 774,-558 823.704,-542.142 849.288,-552.643 882,-512 908.944,-478.523 870.075,-447.842 900,-417 903.62,-413.269 907.796,-410.194 912.315,-407.666"/>
<polygon fill="#9a32cd" stroke="#9a32cd" points="747.426,-561.741 738.488,-567.43 749.023,-568.557 747.426,-561.741"/>
<text text-anchor="middle" x="837" y="-555" font-family="Helvetica,sans-Serif" font-size="10.00"> myDefaultData</text>
</g>
<!-- Node25 -->
<g id="node25" class="node"><title>Node25</title>
<g id="a_node25"><a xlink:href="../../d1/d32/classauthoring_1_1model_1_1collections_1_1_game_objects_collection.html" target="_top" xlink:title="authoring.model.collections.\lGameObjectsCollection">
<polygon fill="white" stroke="black" points="610,-166 610,-196 762,-196 762,-166 610,-166"/>
<text text-anchor="start" x="618" y="-184" font-family="Helvetica,sans-Serif" font-size="10.00">authoring.model.collections.</text>
<text text-anchor="middle" x="686" y="-173" font-family="Helvetica,sans-Serif" font-size="10.00">GameObjectsCollection</text>
</a>
</g>
</g>
<!-- Node25&#45;&gt;Node1 -->
<g id="edge25" class="edge"><title>Node25&#45;&gt;Node1</title>
<path fill="none" stroke="#9a32cd" stroke-dasharray="5,2" d="M772.498,-186.881C779.096,-187.28 785.655,-187.658 792,-188 941.253,-196.045 1116.45,-202.526 1210.36,-205.76"/>
<polygon fill="#9a32cd" stroke="#9a32cd" points="772.319,-183.364 762.123,-186.241 771.888,-190.35 772.319,-183.364"/>
<text text-anchor="middle" x="987" y="-204" font-family="Helvetica,sans-Serif" font-size="10.00"> myGameObjectCollection</text>
</g>
<!-- Node31 -->
<g id="node31" class="node"><title>Node31</title>
<g id="a_node31"><a xlink:href="../../d4/d64/classauthoring_1_1view_1_1wizards_1_1_name_wizard.html" target="_top" xlink:title="authoring.view.wizards.Name\lWizard">
<polygon fill="white" stroke="black" points="909.5,-141 909.5,-171 1064.5,-171 1064.5,-141 909.5,-141"/>
<text text-anchor="start" x="917.5" y="-159" font-family="Helvetica,sans-Serif" font-size="10.00">authoring.view.wizards.Name</text>
<text text-anchor="middle" x="987" y="-148" font-family="Helvetica,sans-Serif" font-size="10.00">Wizard</text>
</a>
</g>
</g>
<!-- Node25&#45;&gt;Node31 -->
<g id="edge34" class="edge"><title>Node25&#45;&gt;Node31</title>
<path fill="none" stroke="#9a32cd" stroke-dasharray="5,2" d="M772.268,-173.871C815.444,-170.261 867.444,-165.913 909.343,-162.409"/>
<polygon fill="#9a32cd" stroke="#9a32cd" points="771.738,-170.403 762.064,-174.724 772.321,-177.378 771.738,-170.403"/>
<text text-anchor="middle" x="837" y="-176" font-family="Helvetica,sans-Serif" font-size="10.00"> myCollection</text>
</g>
<!-- Node26 -->
<g id="node26" class="node"><title>Node26</title>
<g id="a_node26"><a xlink:href="../../d4/d3b/classauthoring_1_1model_1_1collections_1_1_general_collection.html" target="_top" xlink:title="authoring.model.collections.\lGeneralCollection\&lt; GameObject \&gt;">
<polygon fill="white" stroke="black" points="241.5,-164 241.5,-194 424.5,-194 424.5,-164 241.5,-164"/>
<text text-anchor="start" x="249.5" y="-182" font-family="Helvetica,sans-Serif" font-size="10.00">authoring.model.collections.</text>
<text text-anchor="middle" x="333" y="-171" font-family="Helvetica,sans-Serif" font-size="10.00">GeneralCollection&lt; GameObject &gt;</text>
</a>
</g>
</g>
<!-- Node26&#45;&gt;Node25 -->
<g id="edge26" class="edge"><title>Node26&#45;&gt;Node25</title>
<path fill="none" stroke="midnightblue" d="M435.109,-179.576C490.87,-179.894 558.924,-180.282 609.925,-180.572"/>
<polygon fill="midnightblue" stroke="midnightblue" points="434.868,-176.075 424.848,-179.518 434.828,-183.075 434.868,-176.075"/>
</g>
<!-- Node27&#45;&gt;Node1 -->
<g id="edge27" class="edge"><title>Node27&#45;&gt;Node1</title>
<path fill="none" stroke="#9a32cd" stroke-dasharray="5,2" d="M775.721,-97.1479C854.774,-96.3611 973.204,-99.5108 1074,-120 1142.04,-133.83 1215.25,-171.718 1252.73,-192.994"/>
<polygon fill="#9a32cd" stroke="#9a32cd" points="775.273,-93.6531 765.317,-97.2765 775.359,-100.653 775.273,-93.6531"/>
<text text-anchor="middle" x="987" y="-123" font-family="Helvetica,sans-Serif" font-size="10.00"> myWizard</text>
</g>
<!-- Node27&#45;&gt;Node31 -->
<g id="edge33" class="edge"><title>Node27&#45;&gt;Node31</title>
<path fill="none" stroke="midnightblue" d="M738.098,-111.699C755.199,-115.48 774.39,-119.576 792,-123 830.567,-130.5 873.632,-137.921 909.372,-143.82"/>
<polygon fill="midnightblue" stroke="midnightblue" points="738.82,-108.275 728.299,-109.518 737.299,-115.107 738.82,-108.275"/>
</g>
<!-- Node28 -->
<g id="node28" class="node"><title>Node28</title>
<polygon fill="white" stroke="#bfbfbf" points="310.5,-87.5 310.5,-106.5 355.5,-106.5 355.5,-87.5 310.5,-87.5"/>
<text text-anchor="middle" x="333" y="-94.5" font-family="Helvetica,sans-Serif" font-size="10.00">Stage</text>
</g>
<!-- Node28&#45;&gt;Node27 -->
<g id="edge28" class="edge"><title>Node28&#45;&gt;Node27</title>
<path fill="none" stroke="midnightblue" d="M365.704,-97.271C419.728,-97.7327 531.132,-98.6849 606.972,-99.3331"/>
<polygon fill="midnightblue" stroke="midnightblue" points="365.721,-93.7711 355.692,-97.1854 365.661,-100.771 365.721,-93.7711"/>
</g>
<!-- Node29 -->
<g id="node29" class="node"><title>Node29</title>
<polygon fill="white" stroke="#bfbfbf" points="312.5,-49.5 312.5,-68.5 353.5,-68.5 353.5,-49.5 312.5,-49.5"/>
<text text-anchor="middle" x="333" y="-56.5" font-family="Helvetica,sans-Serif" font-size="10.00">VBox</text>
</g>
<!-- Node29&#45;&gt;Node27 -->
<g id="edge29" class="edge"><title>Node29&#45;&gt;Node27</title>
<path fill="none" stroke="#9a32cd" stroke-dasharray="5,2" d="M364.063,-61.5677C410.473,-65.6416 502.331,-74.142 580,-84 594.909,-85.8923 610.967,-88.2013 625.931,-90.47"/>
<polygon fill="#9a32cd" stroke="#9a32cd" points="364.074,-58.0555 353.808,-60.6748 363.467,-65.0291 364.074,-58.0555"/>
<text text-anchor="middle" x="522" y="-87" font-family="Helvetica,sans-Serif" font-size="10.00"> myWindow</text>
</g>
<!-- Node30 -->
<g id="node30" class="node"><title>Node30</title>
<polygon fill="white" stroke="#bfbfbf" points="220.5,-0 220.5,-30 445.5,-30 445.5,-0 220.5,-0"/>
<text text-anchor="start" x="228.5" y="-18" font-family="Helvetica,sans-Serif" font-size="10.00">Map&lt; String, authoring.view.propertiesview.</text>
<text text-anchor="middle" x="333" y="-7" font-family="Helvetica,sans-Serif" font-size="10.00">PropertyTextField &gt;</text>
</g>
<!-- Node30&#45;&gt;Node27 -->
<g id="edge30" class="edge"><title>Node30&#45;&gt;Node27</title>
<path fill="none" stroke="#9a32cd" stroke-dasharray="5,2" d="M455.751,-30.3647C495.754,-36.8458 540.162,-45.592 580,-57 610.679,-65.7851 644.577,-80.671 665.335,-90.4183"/>
<polygon fill="#9a32cd" stroke="#9a32cd" points="456.107,-26.8774 445.681,-28.7655 455.009,-33.7907 456.107,-26.8774"/>
<text text-anchor="middle" x="522" y="-60" font-family="Helvetica,sans-Serif" font-size="10.00"> myMap</text>
</g>
<!-- Node31&#45;&gt;Node1 -->
<g id="edge32" class="edge"><title>Node31&#45;&gt;Node1</title>
<path fill="none" stroke="#9a32cd" stroke-dasharray="5,2" d="M1074.62,-164.53C1111.07,-168.877 1153.81,-174.97 1192,-183 1204.78,-185.687 1218.43,-189.303 1231.01,-192.948"/>
<polygon fill="#9a32cd" stroke="#9a32cd" points="1074.85,-161.034 1064.51,-163.35 1074.04,-167.986 1074.85,-161.034"/>
<text text-anchor="middle" x="1142" y="-186" font-family="Helvetica,sans-Serif" font-size="10.00"> myNameWizard</text>
</g>
</g>
</svg>
