<?xml version="1.0" encoding="UTF-8" standalone="no"?>
<!DOCTYPE svg PUBLIC "-//W3C//DTD SVG 1.1//EN"
 "http://www.w3.org/Graphics/SVG/1.1/DTD/svg11.dtd">
<!-- Generated by graphviz version 2.36.0 (20140111.2315)
 -->
<!-- Title: authoring.eventhandlers.AddObjectHandler Pages: 1 -->
<!--zoomable 703 -->
<svg id="main" version="1.1" xmlns="http://www.w3.org/2000/svg" xmlns:xlink="http://www.w3.org/1999/xlink" xml:space="preserve" onload="init(evt)">
<style type="text/css"><![CDATA[
.edge:hover path { stroke: red; }
.edge:hover polygon { stroke: red; fill: red; }
]]></style>
<script type="text/javascript"><![CDATA[
var edges = document.getElementsByTagName('g');
if (edges && edges.length) {
  for (var i=0;i<edges.length;i++) {
    if (edges[i].id.substr(0,4)=='edge') {
      edges[i].setAttribute('class','edge');
    }
  }
}
]]></script>
        <defs>
                <circle id="rim" cx="0" cy="0" r="7"/>
                <circle id="rim2" cx="0" cy="0" r="3.5"/>
                <g id="zoomPlus">
                        <use xlink:href="#rim" fill="#404040">
                                <set attributeName="fill" to="#808080" begin="zoomplus.mouseover" end="zoomplus.mouseout"/>
                        </use>
                        <path d="M-4,0h8M0,-4v8" fill="none" stroke="white" stroke-width="1.5" pointer-events="none"/>
                </g>
                <g id="zoomMin">
                        <use xlink:href="#rim" fill="#404040">
                                <set attributeName="fill" to="#808080" begin="zoomminus.mouseover" end="zoomminus.mouseout"/>
                        </use>
                        <path d="M-4,0h8" fill="none" stroke="white" stroke-width="1.5" pointer-events="none"/>
                </g>
                <g id="dirArrow">
                        <path fill="none" stroke="white" stroke-width="1.5" d="M0,-3.0v7 M-2.5,-0.5L0,-3.0L2.5,-0.5"/>
                </g>
               <g id="resetDef">
                       <use xlink:href="#rim2" fill="#404040">
                               <set attributeName="fill" to="#808080" begin="reset.mouseover" end="reset.mouseout"/>
                       </use>
               </g>
        </defs>

<script type="text/javascript">
var viewWidth = 1356;
var viewHeight = 703;
var sectionId = 'dynsection-1';
</script>
<script xlink:href="../../svgpan.js"/>
<svg id="graph" class="graph">
<g id="viewport">
<title>authoring.eventhandlers.AddObjectHandler</title>
<polygon fill="white" stroke="none" points="-4,4 -4,-699 1352,-699 1352,4 -4,4"/>
<!-- Node1 -->
<g id="node1" class="node"><title>Node1</title>
<polygon fill="#bfbfbf" stroke="black" points="1210.5,-188 1210.5,-218 1347.5,-218 1347.5,-188 1210.5,-188"/>
<text text-anchor="start" x="1218.5" y="-206" font-family="Helvetica,sans-Serif" font-size="10.00">authoring.eventhandlers.</text>
<text text-anchor="middle" x="1279" y="-195" font-family="Helvetica,sans-Serif" font-size="10.00">AddObjectHandler</text>
</g>
<!-- Node2 -->
<g id="node2" class="node"><title>Node2</title>
<g id="a_node2"><a xlink:href="../../d3/d6a/interfaceauthoring_1_1eventhandlers_1_1_game_handler.html" target="_top" xlink:title="authoring.eventhandlers.\lGameHandler\&lt; Event \&gt;">
<polygon fill="white" stroke="black" points="918.5,-543 918.5,-573 1055.5,-573 1055.5,-543 918.5,-543"/>
<text text-anchor="start" x="926.5" y="-561" font-family="Helvetica,sans-Serif" font-size="10.00">authoring.eventhandlers.</text>
<text text-anchor="middle" x="987" y="-550" font-family="Helvetica,sans-Serif" font-size="10.00">GameHandler&lt; Event &gt;</text>
</a>
</g>
</g>
<!-- Node2&#45;&gt;Node1 -->
<g id="edge1" class="edge"><title>Node2&#45;&gt;Node1</title>
<path fill="none" stroke="midnightblue" d="M1062.7,-538.978C1066.61,-537.156 1070.4,-535.167 1074,-533 1138.6,-494.056 1150.63,-474.082 1192,-411 1235.28,-344.992 1263.81,-253.648 1273.91,-218.049"/>
<polygon fill="midnightblue" stroke="midnightblue" points="1061.23,-535.799 1053.4,-542.938 1063.98,-542.239 1061.23,-535.799"/>
</g>
<!-- Node3 -->
<g id="node3" class="node"><title>Node3</title>
<g id="a_node3"><a xlink:href="../../d0/d7f/classengine_1_1game_object_1_1_game_object.html" target="_top" xlink:title="engine.gameObject.GameObject">
<polygon fill="white" stroke="black" points="900.5,-504.5 900.5,-523.5 1073.5,-523.5 1073.5,-504.5 900.5,-504.5"/>
<text text-anchor="middle" x="987" y="-511.5" font-family="Helvetica,sans-Serif" font-size="10.00">engine.gameObject.GameObject</text>
</a>
</g>
</g>
<!-- Node3&#45;&gt;Node1 -->
<g id="edge2" class="edge"><title>Node3&#45;&gt;Node1</title>
<path fill="none" stroke="#9a32cd" stroke-dasharray="5,2" d="M1004,-496.836C1055.26,-441.868 1214.85,-270.723 1263.67,-218.371"/>
<polygon fill="#9a32cd" stroke="#9a32cd" points="1001.26,-494.651 996.997,-504.351 1006.38,-499.425 1001.26,-494.651"/>
<text text-anchor="middle" x="1142" y="-399" font-family="Helvetica,sans-Serif" font-size="10.00"> myNewGameObject</text>
</g>
<!-- Node4 -->
<g id="node4" class="node"><title>Node4</title>
<g id="a_node4"><a xlink:href="../../d7/de6/interfaceengine_1_1game_object_1_1_i_enabled.html" target="_top" xlink:title="engine.gameObject.IEnabled">
<polygon fill="white" stroke="black" points="609,-675.5 609,-694.5 763,-694.5 763,-675.5 609,-675.5"/>
<text text-anchor="middle" x="686" y="-682.5" font-family="Helvetica,sans-Serif" font-size="10.00">engine.gameObject.IEnabled</text>
</a>
</g>
</g>
<!-- Node4&#45;&gt;Node3 -->
<g id="edge3" class="edge"><title>Node4&#45;&gt;Node3</title>
<path fill="none" stroke="midnightblue" d="M773.188,-687.163C811.565,-683.46 854.262,-672.117 882,-643 915.868,-607.449 866.424,-569.826 900,-534 903.983,-529.75 908.679,-526.321 913.788,-523.562"/>
<polygon fill="midnightblue" stroke="midnightblue" points="772.705,-683.691 763.017,-687.98 773.265,-690.668 772.705,-683.691"/>
</g>
<!-- Node5 -->
<g id="node5" class="node"><title>Node5</title>
<polygon fill="white" stroke="#bfbfbf" points="620.5,-637.5 620.5,-656.5 751.5,-656.5 751.5,-637.5 620.5,-637.5"/>
<text text-anchor="middle" x="686" y="-644.5" font-family="Helvetica,sans-Serif" font-size="10.00">Iterable&lt; Component &gt;</text>
</g>
<!-- Node5&#45;&gt;Node3 -->
<g id="edge4" class="edge"><title>Node5&#45;&gt;Node3</title>
<path fill="none" stroke="midnightblue" d="M761.777,-651.77C802.311,-650.24 850.426,-641.122 882,-611 907.429,-586.741 875.135,-558.837 900,-534 904.23,-529.775 909.167,-526.373 914.497,-523.642"/>
<polygon fill="midnightblue" stroke="midnightblue" points="761.566,-648.274 751.649,-652.004 761.727,-655.272 761.566,-648.274"/>
</g>
<!-- Node6 -->
<g id="node6" class="node"><title>Node6</title>
<g id="a_node6"><a xlink:href="../../dc/df6/interfaceengine_1_1game_object_1_1_identifiable.html" target="_top" xlink:title="engine.gameObject.Identifiable">
<polygon fill="white" stroke="black" points="603.5,-599.5 603.5,-618.5 768.5,-618.5 768.5,-599.5 603.5,-599.5"/>
<text text-anchor="middle" x="686" y="-606.5" font-family="Helvetica,sans-Serif" font-size="10.00">engine.gameObject.Identifiable</text>
</a>
</g>
</g>
<!-- Node6&#45;&gt;Node3 -->
<g id="edge5" class="edge"><title>Node6&#45;&gt;Node3</title>
<path fill="none" stroke="midnightblue" d="M779.272,-614.789C814.686,-612.464 853.418,-603.823 882,-581 899.479,-567.042 883.136,-548.695 900,-534 904.97,-529.67 910.696,-526.23 916.785,-523.503"/>
<polygon fill="midnightblue" stroke="midnightblue" points="778.711,-611.312 768.895,-615.3 779.055,-618.304 778.711,-611.312"/>
</g>
<!-- Node7 -->
<g id="node7" class="node"><title>Node7</title>
<g id="a_node7"><a xlink:href="../../d4/dac/classengine_1_1game_object_1_1_identifier.html" target="_top" xlink:title="engine.gameObject.Identifier">
<polygon fill="white" stroke="black" points="608.5,-561.5 608.5,-580.5 763.5,-580.5 763.5,-561.5 608.5,-561.5"/>
<text text-anchor="middle" x="686" y="-568.5" font-family="Helvetica,sans-Serif" font-size="10.00">engine.gameObject.Identifier</text>
</a>
</g>
</g>
<!-- Node7&#45;&gt;Node3 -->
<g id="edge6" class="edge"><title>Node7&#45;&gt;Node3</title>
<path fill="none" stroke="#9a32cd" stroke-dasharray="5,2" d="M774.011,-568.402C808.493,-565.192 847.955,-558.727 882,-546 891.006,-542.633 891.175,-537.817 900,-534 909.848,-529.74 920.741,-526.314 931.371,-523.585"/>
<polygon fill="#9a32cd" stroke="#9a32cd" points="773.621,-564.923 763.955,-569.26 774.216,-571.897 773.621,-564.923"/>
<text text-anchor="middle" x="837" y="-569" font-family="Helvetica,sans-Serif" font-size="10.00"> myId</text>
</g>
<!-- Node8 -->
<g id="node8" class="node"><title>Node8</title>
<polygon fill="white" stroke="#bfbfbf" points="305,-561.5 305,-580.5 361,-580.5 361,-561.5 305,-561.5"/>
<text text-anchor="middle" x="333" y="-568.5" font-family="Helvetica,sans-Serif" font-size="10.00">Random</text>
</g>
<!-- Node8&#45;&gt;Node7 -->
<g id="edge7" class="edge"><title>Node8&#45;&gt;Node7</title>
<path fill="none" stroke="#9a32cd" stroke-dasharray="5,2" d="M371.457,-571C427.659,-571 535.018,-571 608.295,-571"/>
<polygon fill="#9a32cd" stroke="#9a32cd" points="371.25,-567.5 361.25,-571 371.25,-574.5 371.25,-567.5"/>
<text text-anchor="middle" x="522" y="-574" font-family="Helvetica,sans-Serif" font-size="10.00"> r</text>
</g>
<!-- Node9 -->
<g id="node9" class="node"><title>Node9</title>
<polygon fill="white" stroke="#bfbfbf" points="231,-509 231,-539 435,-539 435,-509 231,-509"/>
<text text-anchor="start" x="239" y="-527" font-family="Helvetica,sans-Serif" font-size="10.00">List&lt; engine.gameObject.components.</text>
<text text-anchor="middle" x="333" y="-516" font-family="Helvetica,sans-Serif" font-size="10.00">Component &gt;</text>
</g>
<!-- Node9&#45;&gt;Node3 -->
<g id="edge8" class="edge"><title>Node9&#45;&gt;Node3</title>
<path fill="none" stroke="#9a32cd" stroke-dasharray="5,2" d="M445.196,-523.678C555.921,-523.146 730.733,-521.736 882,-518 887.961,-517.853 894.113,-517.677 900.308,-517.483"/>
<polygon fill="#9a32cd" stroke="#9a32cd" points="444.999,-520.179 435.016,-523.725 445.032,-527.179 444.999,-520.179"/>
<text text-anchor="middle" x="686" y="-525" font-family="Helvetica,sans-Serif" font-size="10.00"> myComponents</text>
</g>
<!-- Node21 -->
<g id="node21" class="node"><title>Node21</title>
<g id="a_node21"><a xlink:href="../../d6/d66/classengine_1_1game_object_1_1_default_data.html" target="_top" xlink:title="engine.gameObject.DefaultData">
<polygon fill="white" stroke="black" points="600.5,-476.5 600.5,-495.5 771.5,-495.5 771.5,-476.5 600.5,-476.5"/>
<text text-anchor="middle" x="686" y="-483.5" font-family="Helvetica,sans-Serif" font-size="10.00">engine.gameObject.DefaultData</text>
</a>
</g>
</g>
<!-- Node9&#45;&gt;Node21 -->
<g id="edge21" class="edge"><title>Node9&#45;&gt;Node21</title>
<path fill="none" stroke="#9a32cd" stroke-dasharray="5,2" d="M445.142,-509.202C451.52,-508.435 457.84,-507.695 464,-507 509,-501.921 559.249,-497.081 600.448,-493.33"/>
<polygon fill="#9a32cd" stroke="#9a32cd" points="444.592,-505.743 435.089,-510.427 445.439,-512.691 444.592,-505.743"/>
<text text-anchor="middle" x="522" y="-510" font-family="Helvetica,sans-Serif" font-size="10.00"> myComponents</text>
</g>
<!-- Node10 -->
<g id="node10" class="node"><title>Node10</title>
<g id="a_node10"><a xlink:href="../../d2/d82/classengine_1_1render_1_1_rendered_node.html" target="_top" xlink:title="engine.render.RenderedNode">
<polygon fill="white" stroke="black" points="608,-428.5 608,-447.5 764,-447.5 764,-428.5 608,-428.5"/>
<text text-anchor="middle" x="686" y="-435.5" font-family="Helvetica,sans-Serif" font-size="10.00">engine.render.RenderedNode</text>
</a>
</g>
</g>
<!-- Node10&#45;&gt;Node3 -->
<g id="edge9" class="edge"><title>Node10&#45;&gt;Node3</title>
<path fill="none" stroke="#9a32cd" stroke-dasharray="5,2" d="M746.265,-449.62C785.087,-457.586 836.817,-468.876 882,-481 908.163,-488.02 937.547,-497.494 958.391,-504.49"/>
<polygon fill="#9a32cd" stroke="#9a32cd" points="746.679,-446.132 736.181,-447.565 745.281,-452.991 746.679,-446.132"/>
<text text-anchor="middle" x="837" y="-484" font-family="Helvetica,sans-Serif" font-size="10.00"> myRenderedNode</text>
</g>
<!-- Node11 -->
<g id="node11" class="node"><title>Node11</title>
<polygon fill="white" stroke="#bfbfbf" points="310,-225.5 310,-244.5 356,-244.5 356,-225.5 310,-225.5"/>
<text text-anchor="middle" x="333" y="-232.5" font-family="Helvetica,sans-Serif" font-size="10.00">Group</text>
</g>
<!-- Node11&#45;&gt;Node10 -->
<g id="edge10" class="edge"><title>Node11&#45;&gt;Node10</title>
<path fill="none" stroke="midnightblue" d="M366.417,-231.307C391.526,-230.366 425.397,-233.603 446,-254 478.092,-285.771 435.156,-319.253 464,-354 476.748,-369.357 597.696,-409.867 655.072,-428.445"/>
<polygon fill="midnightblue" stroke="midnightblue" points="366.025,-227.824 356.258,-231.928 366.453,-234.811 366.025,-227.824"/>
</g>
<!-- Node24 -->
<g id="node24" class="node"><title>Node24</title>
<g id="a_node24"><a xlink:href="../../d6/d32/classauthoring_1_1view_1_1wizards_1_1_wizard.html" target="_top" xlink:title="authoring.view.wizards.Wizard">
<polygon fill="white" stroke="black" points="607,-89.5 607,-108.5 765,-108.5 765,-89.5 607,-89.5"/>
<text text-anchor="middle" x="686" y="-96.5" font-family="Helvetica,sans-Serif" font-size="10.00">authoring.view.wizards.Wizard</text>
</a>
</g>
</g>
<!-- Node11&#45;&gt;Node24 -->
<g id="edge28" class="edge"><title>Node11&#45;&gt;Node24</title>
<path fill="none" stroke="#9a32cd" stroke-dasharray="5,2" d="M366.54,-233.045C389.498,-230.755 420.569,-225.785 446,-215 455.085,-211.147 455.59,-207.162 464,-202 521.091,-166.958 536.945,-160.561 598,-133 617.954,-123.993 641.056,-115.03 658.438,-108.57"/>
<polygon fill="#9a32cd" stroke="#9a32cd" points="365.953,-229.583 356.297,-233.944 366.564,-236.556 365.953,-229.583"/>
<text text-anchor="middle" x="522" y="-205" font-family="Helvetica,sans-Serif" font-size="10.00"> myRoot</text>
</g>
<!-- Node12 -->
<g id="node12" class="node"><title>Node12</title>
<polygon fill="white" stroke="#bfbfbf" points="312,-428.5 312,-447.5 354,-447.5 354,-428.5 312,-428.5"/>
<text text-anchor="middle" x="333" y="-435.5" font-family="Helvetica,sans-Serif" font-size="10.00">Label</text>
</g>
<!-- Node12&#45;&gt;Node10 -->
<g id="edge11" class="edge"><title>Node12&#45;&gt;Node10</title>
<path fill="none" stroke="#9a32cd" stroke-dasharray="5,2" d="M364.353,-438C418.067,-438 531.401,-438 607.893,-438"/>
<polygon fill="#9a32cd" stroke="#9a32cd" points="364.132,-434.5 354.132,-438 364.132,-441.5 364.132,-434.5"/>
<text text-anchor="middle" x="522" y="-441" font-family="Helvetica,sans-Serif" font-size="10.00"> myLabel</text>
</g>
<!-- Node13 -->
<g id="node13" class="node"><title>Node13</title>
<polygon fill="white" stroke="#bfbfbf" points="299,-390.5 299,-409.5 367,-409.5 367,-390.5 299,-390.5"/>
<text text-anchor="middle" x="333" y="-397.5" font-family="Helvetica,sans-Serif" font-size="10.00">ImageView</text>
</g>
<!-- Node13&#45;&gt;Node10 -->
<g id="edge12" class="edge"><title>Node13&#45;&gt;Node10</title>
<path fill="none" stroke="#9a32cd" stroke-dasharray="5,2" d="M377.351,-403.411C426.548,-407.431 509.16,-414.633 580,-423 593.624,-424.609 608.211,-426.552 622.046,-428.498"/>
<polygon fill="#9a32cd" stroke="#9a32cd" points="377.33,-399.898 367.079,-402.578 376.764,-406.875 377.33,-399.898"/>
<text text-anchor="middle" x="522" y="-426" font-family="Helvetica,sans-Serif" font-size="10.00"> myImageView</text>
</g>
<!-- Node14 -->
<g id="node14" class="node"><title>Node14</title>
<polygon fill="white" stroke="#bfbfbf" points="312,-466.5 312,-485.5 354,-485.5 354,-466.5 312,-466.5"/>
<text text-anchor="middle" x="333" y="-473.5" font-family="Helvetica,sans-Serif" font-size="10.00">Node</text>
</g>
<!-- Node14&#45;&gt;Node10 -->
<g id="edge13" class="edge"><title>Node14&#45;&gt;Node10</title>
<path fill="none" stroke="#9a32cd" stroke-dasharray="5,2" d="M364.077,-472.904C410.445,-468.113 502.178,-458.559 580,-450 589.028,-449.007 598.49,-447.949 607.881,-446.889"/>
<polygon fill="#9a32cd" stroke="#9a32cd" points="363.683,-469.426 354.095,-473.934 364.402,-476.389 363.683,-469.426"/>
<text text-anchor="middle" x="522" y="-466" font-family="Helvetica,sans-Serif" font-size="10.00"> myCollisionBody</text>
</g>
<!-- Node15 -->
<g id="node15" class="node"><title>Node15</title>
<g id="a_node15"><a xlink:href="../../d9/d9d/classengine_1_1game_object_1_1components_1_1_physics_body.html" target="_top" xlink:title="engine.gameObject.components.\lPhysicsBody">
<polygon fill="white" stroke="black" points="598,-296 598,-326 774,-326 774,-296 598,-296"/>
<text text-anchor="start" x="606" y="-314" font-family="Helvetica,sans-Serif" font-size="10.00">engine.gameObject.components.</text>
<text text-anchor="middle" x="686" y="-303" font-family="Helvetica,sans-Serif" font-size="10.00">PhysicsBody</text>
</a>
</g>
</g>
<!-- Node15&#45;&gt;Node3 -->
<g id="edge14" class="edge"><title>Node15&#45;&gt;Node3</title>
<path fill="none" stroke="#9a32cd" stroke-dasharray="5,2" d="M717.933,-332.001C781.801,-375.363 926.098,-473.331 971.822,-504.374"/>
<polygon fill="#9a32cd" stroke="#9a32cd" points="719.713,-328.979 709.474,-326.258 715.781,-334.771 719.713,-328.979"/>
<text text-anchor="middle" x="837" y="-446" font-family="Helvetica,sans-Serif" font-size="10.00"> myPhysicsBody</text>
</g>
<!-- Node16 -->
<g id="node16" class="node"><title>Node16</title>
<polygon fill="white" stroke="#bfbfbf" points="255,-176 255,-206 411,-206 411,-176 255,-176"/>
<text text-anchor="start" x="263" y="-194" font-family="Helvetica,sans-Serif" font-size="10.00">Map&lt; String, engine.physics.</text>
<text text-anchor="middle" x="333" y="-183" font-family="Helvetica,sans-Serif" font-size="10.00">Scalar &gt;</text>
</g>
<!-- Node16&#45;&gt;Node15 -->
<g id="edge15" class="edge"><title>Node16&#45;&gt;Node15</title>
<path fill="none" stroke="#9a32cd" stroke-dasharray="5,2" d="M421.237,-205.726C469.179,-215.429 529.079,-230.228 580,-251 609.938,-263.212 641.854,-282.444 662.534,-295.831"/>
<polygon fill="#9a32cd" stroke="#9a32cd" points="421.686,-202.247 411.196,-203.733 420.323,-209.113 421.686,-202.247"/>
<text text-anchor="middle" x="522" y="-254" font-family="Helvetica,sans-Serif" font-size="10.00"> myConstants</text>
</g>
<!-- Node17 -->
<g id="node17" class="node"><title>Node17</title>
<polygon fill="white" stroke="#bfbfbf" points="255,-340 255,-370 411,-370 411,-340 255,-340"/>
<text text-anchor="start" x="263" y="-358" font-family="Helvetica,sans-Serif" font-size="10.00">Map&lt; String, engine.physics.</text>
<text text-anchor="middle" x="333" y="-347" font-family="Helvetica,sans-Serif" font-size="10.00">Force &gt;</text>
</g>
<!-- Node17&#45;&gt;Node15 -->
<g id="edge16" class="edge"><title>Node17&#45;&gt;Node15</title>
<path fill="none" stroke="#9a32cd" stroke-dasharray="5,2" d="M421.257,-344.062C475.169,-337.304 544.097,-328.663 597.967,-321.91"/>
<polygon fill="#9a32cd" stroke="#9a32cd" points="420.515,-340.627 411.028,-345.344 421.386,-347.573 420.515,-340.627"/>
<text text-anchor="middle" x="522" y="-342" font-family="Helvetica,sans-Serif" font-size="10.00"> myActiveForces</text>
</g>
<!-- Node18 -->
<g id="node18" class="node"><title>Node18</title>
<polygon fill="white" stroke="#bfbfbf" points="249.5,-301.5 249.5,-320.5 416.5,-320.5 416.5,-301.5 249.5,-301.5"/>
<text text-anchor="middle" x="333" y="-308.5" font-family="Helvetica,sans-Serif" font-size="10.00">List&lt; engine.physics.Impulse &gt;</text>
</g>
<!-- Node18&#45;&gt;Node15 -->
<g id="edge17" class="edge"><title>Node18&#45;&gt;Node15</title>
<path fill="none" stroke="#9a32cd" stroke-dasharray="5,2" d="M426.818,-311C479.831,-311 545.892,-311 597.92,-311"/>
<polygon fill="#9a32cd" stroke="#9a32cd" points="426.738,-307.5 416.738,-311 426.738,-314.5 426.738,-307.5"/>
<text text-anchor="middle" x="522" y="-314" font-family="Helvetica,sans-Serif" font-size="10.00"> myImpulses</text>
</g>
<!-- Node19 -->
<g id="node19" class="node"><title>Node19</title>
<g id="a_node19"><a xlink:href="../../d5/d1f/classengine_1_1physics_1_1_vector.html" target="_top" xlink:title="engine.physics.Vector">
<polygon fill="white" stroke="black" points="272.5,-263.5 272.5,-282.5 393.5,-282.5 393.5,-263.5 272.5,-263.5"/>
<text text-anchor="middle" x="333" y="-270.5" font-family="Helvetica,sans-Serif" font-size="10.00">engine.physics.Vector</text>
</a>
</g>
</g>
<!-- Node19&#45;&gt;Node15 -->
<g id="edge18" class="edge"><title>Node19&#45;&gt;Node15</title>
<path fill="none" stroke="#9a32cd" stroke-dasharray="5,2" d="M403.919,-267.122C453.452,-264.453 521.264,-263.831 580,-274 604.567,-278.253 631.037,-287.615 651.254,-295.857"/>
<polygon fill="#9a32cd" stroke="#9a32cd" points="403.416,-263.646 393.636,-267.72 403.822,-270.634 403.416,-263.646"/>
<text text-anchor="middle" x="522" y="-299" font-family="Helvetica,sans-Serif" font-size="10.00"> myBalancedForcesMag</text>
<text text-anchor="middle" x="522" y="-288" font-family="Helvetica,sans-Serif" font-size="10.00">myVelocity</text>
<text text-anchor="middle" x="522" y="-277" font-family="Helvetica,sans-Serif" font-size="10.00">myAcceleration</text>
</g>
<!-- Node20 -->
<g id="node20" class="node"><title>Node20</title>
<g id="a_node20"><a xlink:href="../../dc/db5/classengine_1_1physics_1_1_physics_component.html" target="_top" xlink:title="engine.physics.PhysicsComponent">
<polygon fill="white" stroke="black" points="0,-263.5 0,-282.5 182,-282.5 182,-263.5 0,-263.5"/>
<text text-anchor="middle" x="91" y="-270.5" font-family="Helvetica,sans-Serif" font-size="10.00">engine.physics.PhysicsComponent</text>
</a>
</g>
</g>
<!-- Node20&#45;&gt;Node19 -->
<g id="edge19" class="edge"><title>Node20&#45;&gt;Node19</title>
<path fill="none" stroke="midnightblue" d="M192.403,-273C219.624,-273 248.228,-273 272.406,-273"/>
<polygon fill="midnightblue" stroke="midnightblue" points="192.05,-269.5 182.05,-273 192.05,-276.5 192.05,-269.5"/>
</g>
<!-- Node21&#45;&gt;Node3 -->
<g id="edge20" class="edge"><title>Node21&#45;&gt;Node3</title>
<path fill="none" stroke="#9a32cd" stroke-dasharray="5,2" d="M781.929,-494.89C819.926,-498.448 863.374,-502.517 900.387,-505.983"/>
<polygon fill="#9a32cd" stroke="#9a32cd" points="782.164,-491.396 771.882,-493.949 781.512,-498.366 782.164,-491.396"/>
<text text-anchor="middle" x="837" y="-508" font-family="Helvetica,sans-Serif" font-size="10.00"> myDefaultData</text>
</g>
<!-- Node22 -->
<g id="node22" class="node"><title>Node22</title>
<g id="a_node22"><a xlink:href="../../d1/d32/classauthoring_1_1model_1_1collections_1_1_game_objects_collection.html" target="_top" xlink:title="authoring.model.collections.\lGameObjectsCollection">
<polygon fill="white" stroke="black" points="610,-143 610,-173 762,-173 762,-143 610,-143"/>
<text text-anchor="start" x="618" y="-161" font-family="Helvetica,sans-Serif" font-size="10.00">authoring.model.collections.</text>
<text text-anchor="middle" x="686" y="-150" font-family="Helvetica,sans-Serif" font-size="10.00">GameObjectsCollection</text>
</a>
</g>
</g>
<!-- Node22&#45;&gt;Node1 -->
<g id="edge22" class="edge"><title>Node22&#45;&gt;Node1</title>
<path fill="none" stroke="#9a32cd" stroke-dasharray="5,2" d="M772.464,-168.995C779.07,-169.719 785.64,-170.397 792,-171 941,-185.117 1116.29,-195.01 1210.29,-199.772"/>
<polygon fill="#9a32cd" stroke="#9a32cd" points="772.408,-165.467 762.079,-167.827 771.625,-172.423 772.408,-165.467"/>
<text text-anchor="middle" x="987" y="-195" font-family="Helvetica,sans-Serif" font-size="10.00"> myGameObjectCollection</text>
</g>
<!-- Node28 -->
<g id="node28" class="node"><title>Node28</title>
<g id="a_node28"><a xlink:href="../../d4/d64/classauthoring_1_1view_1_1wizards_1_1_name_wizard.html" target="_top" xlink:title="authoring.view.wizards.Name\lWizard">
<polygon fill="white" stroke="black" points="909.5,-136 909.5,-166 1064.5,-166 1064.5,-136 909.5,-136"/>
<text text-anchor="start" x="917.5" y="-154" font-family="Helvetica,sans-Serif" font-size="10.00">authoring.view.wizards.Name</text>
<text text-anchor="middle" x="987" y="-143" font-family="Helvetica,sans-Serif" font-size="10.00">Wizard</text>
</a>
</g>
</g>
<!-- Node22&#45;&gt;Node28 -->
<g id="edge31" class="edge"><title>Node22&#45;&gt;Node28</title>
<path fill="none" stroke="#9a32cd" stroke-dasharray="5,2" d="M772.268,-156.004C815.444,-154.993 867.444,-153.776 909.343,-152.795"/>
<polygon fill="#9a32cd" stroke="#9a32cd" points="771.98,-152.509 762.064,-156.243 772.144,-159.508 771.98,-152.509"/>
<text text-anchor="middle" x="837" y="-159" font-family="Helvetica,sans-Serif" font-size="10.00"> myCollection</text>
</g>
<!-- Node23 -->
<g id="node23" class="node"><title>Node23</title>
<g id="a_node23"><a xlink:href="../../d4/d3b/classauthoring_1_1model_1_1collections_1_1_general_collection.html" target="_top" xlink:title="authoring.model.collections.\lGeneralCollection\&lt; GameObject \&gt;">
<polygon fill="white" stroke="black" points="241.5,-127 241.5,-157 424.5,-157 424.5,-127 241.5,-127"/>
<text text-anchor="start" x="249.5" y="-145" font-family="Helvetica,sans-Serif" font-size="10.00">authoring.model.collections.</text>
<text text-anchor="middle" x="333" y="-134" font-family="Helvetica,sans-Serif" font-size="10.00">GeneralCollection&lt; GameObject &gt;</text>
</a>
</g>
</g>
<!-- Node23&#45;&gt;Node22 -->
<g id="edge23" class="edge"><title>Node23&#45;&gt;Node22</title>
<path fill="none" stroke="midnightblue" d="M435.109,-146.609C490.87,-149.151 558.924,-152.253 609.925,-154.578"/>
<polygon fill="midnightblue" stroke="midnightblue" points="434.997,-143.1 424.848,-146.141 434.678,-150.093 434.997,-143.1"/>
</g>
<!-- Node24&#45;&gt;Node1 -->
<g id="edge24" class="edge"><title>Node24&#45;&gt;Node1</title>
<path fill="none" stroke="#9a32cd" stroke-dasharray="5,2" d="M775.694,-94.9816C854.729,-93.2144 973.148,-95.0404 1074,-115 1142.11,-128.479 1215.29,-166.509 1252.74,-187.901"/>
<polygon fill="#9a32cd" stroke="#9a32cd" points="775.202,-91.4927 765.292,-95.2401 775.376,-98.4905 775.202,-91.4927"/>
<text text-anchor="middle" x="987" y="-118" font-family="Helvetica,sans-Serif" font-size="10.00"> myWizard</text>
</g>
<!-- Node24&#45;&gt;Node28 -->
<g id="edge30" class="edge"><title>Node24&#45;&gt;Node28</title>
<path fill="none" stroke="midnightblue" d="M751.755,-110.262C798.033,-118.31 860.487,-129.172 909.27,-137.656"/>
<polygon fill="midnightblue" stroke="midnightblue" points="752.293,-106.803 741.841,-108.538 751.094,-113.699 752.293,-106.803"/>
</g>
<!-- Node25 -->
<g id="node25" class="node"><title>Node25</title>
<polygon fill="white" stroke="#bfbfbf" points="310.5,-0.5 310.5,-19.5 355.5,-19.5 355.5,-0.5 310.5,-0.5"/>
<text text-anchor="middle" x="333" y="-7.5" font-family="Helvetica,sans-Serif" font-size="10.00">Stage</text>
</g>
<!-- Node25&#45;&gt;Node24 -->
<g id="edge25" class="edge"><title>Node25&#45;&gt;Node24</title>
<path fill="none" stroke="midnightblue" d="M365.617,-14.4884C388.143,-17.899 419.075,-23.0151 446,-29 506.312,-42.4062 520.742,-48.5128 580,-66 605.658,-73.5717 634.655,-82.7312 655.665,-89.4774"/>
<polygon fill="midnightblue" stroke="midnightblue" points="366.003,-11.0074 355.597,-12.9997 364.974,-17.9314 366.003,-11.0074"/>
</g>
<!-- Node26 -->
<g id="node26" class="node"><title>Node26</title>
<polygon fill="white" stroke="#bfbfbf" points="312.5,-88.5 312.5,-107.5 353.5,-107.5 353.5,-88.5 312.5,-88.5"/>
<text text-anchor="middle" x="333" y="-95.5" font-family="Helvetica,sans-Serif" font-size="10.00">VBox</text>
</g>
<!-- Node26&#45;&gt;Node24 -->
<g id="edge26" class="edge"><title>Node26&#45;&gt;Node24</title>
<path fill="none" stroke="#9a32cd" stroke-dasharray="5,2" d="M363.738,-98.0847C416.953,-98.2363 530.069,-98.5586 606.839,-98.7773"/>
<polygon fill="#9a32cd" stroke="#9a32cd" points="363.633,-94.5845 353.623,-98.0559 363.613,-101.584 363.633,-94.5845"/>
<text text-anchor="middle" x="522" y="-102" font-family="Helvetica,sans-Serif" font-size="10.00"> myWindow</text>
</g>
<!-- Node27 -->
<g id="node27" class="node"><title>Node27</title>
<polygon fill="white" stroke="#bfbfbf" points="220.5,-39 220.5,-69 445.5,-69 445.5,-39 220.5,-39"/>
<text text-anchor="start" x="228.5" y="-57" font-family="Helvetica,sans-Serif" font-size="10.00">Map&lt; String, authoring.view.propertiesview.</text>
<text text-anchor="middle" x="333" y="-46" font-family="Helvetica,sans-Serif" font-size="10.00">PropertyTextField &gt;</text>
</g>
<!-- Node27&#45;&gt;Node24 -->
<g id="edge27" class="edge"><title>Node27&#45;&gt;Node24</title>
<path fill="none" stroke="#9a32cd" stroke-dasharray="5,2" d="M455.492,-68.3141C495.2,-73.1267 539.5,-78.6382 580,-84 592.87,-85.7038 606.614,-87.6068 619.776,-89.4701"/>
<polygon fill="#9a32cd" stroke="#9a32cd" points="455.848,-64.8318 445.5,-67.1062 455.008,-71.7812 455.848,-64.8318"/>
<text text-anchor="middle" x="522" y="-87" font-family="Helvetica,sans-Serif" font-size="10.00"> myMap</text>
</g>
<!-- Node28&#45;&gt;Node1 -->
<g id="edge29" class="edge"><title>Node28&#45;&gt;Node1</title>
<path fill="none" stroke="#9a32cd" stroke-dasharray="5,2" d="M1074.62,-159.53C1111.07,-163.877 1153.81,-169.97 1192,-178 1204.78,-180.687 1218.43,-184.303 1231.01,-187.948"/>
<polygon fill="#9a32cd" stroke="#9a32cd" points="1074.85,-156.034 1064.51,-158.35 1074.04,-162.986 1074.85,-156.034"/>
<text text-anchor="middle" x="1142" y="-181" font-family="Helvetica,sans-Serif" font-size="10.00"> myNameWizard</text>
</g>
</g>
</svg>
        <g id="navigator" transform="translate(0 0)" fill="#404254">
                <rect fill="#f2f5e9" fill-opacity="0.5" stroke="#606060" stroke-width=".5" x="0" y="0" width="60" height="60"/>
                <use id="zoomplus" xlink:href="#zoomPlus" x="17" y="9" onmousedown="handleZoom(evt,'in')"/>
                <use id="zoomminus" xlink:href="#zoomMin" x="42" y="9" onmousedown="handleZoom(evt,'out')"/>
                <use id="reset" xlink:href="#resetDef" x="30" y="36" onmousedown="handleReset()"/>
                <g id="arrowUp" xlink:href="#dirArrow" transform="translate(30 24)" onmousedown="handlePan(0,-1)">
                  <use xlink:href="#rim" fill="#404040">
                        <set attributeName="fill" to="#808080" begin="arrowUp.mouseover" end="arrowUp.mouseout"/>
                  </use>
                  <path fill="none" stroke="white" stroke-width="1.5" d="M0,-3.0v7 M-2.5,-0.5L0,-3.0L2.5,-0.5"/>
                </g>
                <g id="arrowRight" xlink:href="#dirArrow" transform="rotate(90) translate(36 -43)" onmousedown="handlePan(1,0)">
                  <use xlink:href="#rim" fill="#404040">
                        <set attributeName="fill" to="#808080" begin="arrowRight.mouseover" end="arrowRight.mouseout"/>
                  </use>
                  <path fill="none" stroke="white" stroke-width="1.5" d="M0,-3.0v7 M-2.5,-0.5L0,-3.0L2.5,-0.5"/>
                </g>
                <g id="arrowDown" xlink:href="#dirArrow" transform="rotate(180) translate(-30 -48)" onmousedown="handlePan(0,1)">
                  <use xlink:href="#rim" fill="#404040">
                        <set attributeName="fill" to="#808080" begin="arrowDown.mouseover" end="arrowDown.mouseout"/>
                  </use>
                  <path fill="none" stroke="white" stroke-width="1.5" d="M0,-3.0v7 M-2.5,-0.5L0,-3.0L2.5,-0.5"/>
                </g>
                <g id="arrowLeft" xlink:href="#dirArrow" transform="rotate(270) translate(-36 17)" onmousedown="handlePan(-1,0)">
                  <use xlink:href="#rim" fill="#404040">
                        <set attributeName="fill" to="#808080" begin="arrowLeft.mouseover" end="arrowLeft.mouseout"/>
                  </use>
                  <path fill="none" stroke="white" stroke-width="1.5" d="M0,-3.0v7 M-2.5,-0.5L0,-3.0L2.5,-0.5"/>
                </g>
        </g>
        <svg viewBox="0 0 15 15" width="100%" height="30px" preserveAspectRatio="xMaxYMin meet">
         <g id="arrow_out" transform="scale(0.3 0.3)">
          <a xlink:href="classauthoring_1_1eventhandlers_1_1_add_object_handler__coll__graph_org.svg" target="_base">
           <rect id="button" ry="5" rx="5" y="6" x="6" height="38" width="38"
                fill="#f2f5e9" fill-opacity="0.5" stroke="#606060" stroke-width="1.0"/>
           <path id="arrow"
             d="M 11.500037,31.436501 C 11.940474,20.09759 22.043105,11.32322 32.158766,21.979434 L 37.068811,17.246167 C 37.068811,17.246167 37.088388,32 37.088388,32 L 22.160133,31.978069 C 22.160133,31.978069 26.997745,27.140456 26.997745,27.140456 C 18.528582,18.264221 13.291696,25.230495 11.500037,31.436501 z"
             style="fill:#404040;"/>
          </a>
         </g>
        </svg>
</svg>
