<?xml version="1.0" encoding="UTF-8" standalone="no"?>
<!DOCTYPE svg PUBLIC "-//W3C//DTD SVG 1.1//EN"
 "http://www.w3.org/Graphics/SVG/1.1/DTD/svg11.dtd">
<!-- Generated by graphviz version 2.36.0 (20140111.2315)
 -->
<!-- Title: engine.actions.render.FrameRateAction Pages: 1 -->
<!--zoomable 520 -->
<svg id="main" version="1.1" xmlns="http://www.w3.org/2000/svg" xmlns:xlink="http://www.w3.org/1999/xlink" xml:space="preserve" onload="init(evt)">
<style type="text/css"><![CDATA[
.edge:hover path { stroke: red; }
.edge:hover polygon { stroke: red; fill: red; }
]]></style>
<script type="text/javascript"><![CDATA[
var edges = document.getElementsByTagName('g');
if (edges && edges.length) {
  for (var i=0;i<edges.length;i++) {
    if (edges[i].id.substr(0,4)=='edge') {
      edges[i].setAttribute('class','edge');
    }
  }
}
]]></script>
        <defs>
                <circle id="rim" cx="0" cy="0" r="7"/>
                <circle id="rim2" cx="0" cy="0" r="3.5"/>
                <g id="zoomPlus">
                        <use xlink:href="#rim" fill="#404040">
                                <set attributeName="fill" to="#808080" begin="zoomplus.mouseover" end="zoomplus.mouseout"/>
                        </use>
                        <path d="M-4,0h8M0,-4v8" fill="none" stroke="white" stroke-width="1.5" pointer-events="none"/>
                </g>
                <g id="zoomMin">
                        <use xlink:href="#rim" fill="#404040">
                                <set attributeName="fill" to="#808080" begin="zoomminus.mouseover" end="zoomminus.mouseout"/>
                        </use>
                        <path d="M-4,0h8" fill="none" stroke="white" stroke-width="1.5" pointer-events="none"/>
                </g>
                <g id="dirArrow">
                        <path fill="none" stroke="white" stroke-width="1.5" d="M0,-3.0v7 M-2.5,-0.5L0,-3.0L2.5,-0.5"/>
                </g>
               <g id="resetDef">
                       <use xlink:href="#rim2" fill="#404040">
                               <set attributeName="fill" to="#808080" begin="reset.mouseover" end="reset.mouseout"/>
                       </use>
               </g>
        </defs>

<script type="text/javascript">
var viewWidth = 1828;
var viewHeight = 520;
var sectionId = 'dynsection-1';
</script>
<script xlink:href="../../svgpan.js"/>
<svg id="graph" class="graph">
<g id="viewport">
<title>engine.actions.render.FrameRateAction</title>
<polygon fill="white" stroke="none" points="-4,4 -4,-516 1824,-516 1824,4 -4,4"/>
<!-- Node1 -->
<g id="node1" class="node"><title>Node1</title>
<polygon fill="#bfbfbf" stroke="black" points="1666.5,-455 1666.5,-485 1819.5,-485 1819.5,-455 1666.5,-455"/>
<text text-anchor="start" x="1674.5" y="-473" font-family="Helvetica,sans-Serif" font-size="10.00">engine.actions.render.Frame</text>
<text text-anchor="middle" x="1743" y="-462" font-family="Helvetica,sans-Serif" font-size="10.00">RateAction</text>
</g>
<!-- Node2 -->
<g id="node2" class="node"><title>Node2</title>
<g id="a_node2"><a xlink:href="../../d9/dd2/interfaceengine_1_1actions_1_1_action.html" target="_top" xlink:title="engine.actions.Action">
<polygon fill="white" stroke="black" points="1418.5,-460.5 1418.5,-479.5 1537.5,-479.5 1537.5,-460.5 1418.5,-460.5"/>
<text text-anchor="middle" x="1478" y="-467.5" font-family="Helvetica,sans-Serif" font-size="10.00">engine.actions.Action</text>
</a>
</g>
</g>
<!-- Node2&#45;&gt;Node1 -->
<g id="edge1" class="edge"><title>Node2&#45;&gt;Node1</title>
<path fill="none" stroke="midnightblue" d="M1547.74,-470C1584.2,-470 1629.06,-470 1666.48,-470"/>
<polygon fill="midnightblue" stroke="midnightblue" points="1547.7,-466.5 1537.69,-470 1547.69,-473.5 1547.7,-466.5"/>
</g>
<!-- Node3 -->
<g id="node3" class="node"><title>Node3</title>
<g id="a_node3"><a xlink:href="../../d2/d15/interfaceengine_1_1actions_1_1_initializable.html" target="_top" xlink:title="engine.actions.Initializable">
<polygon fill="white" stroke="black" points="1142,-492.5 1142,-511.5 1284,-511.5 1284,-492.5 1142,-492.5"/>
<text text-anchor="middle" x="1213" y="-499.5" font-family="Helvetica,sans-Serif" font-size="10.00">engine.actions.Initializable</text>
</a>
</g>
</g>
<!-- Node3&#45;&gt;Node1 -->
<g id="edge3" class="edge"><title>Node3&#45;&gt;Node1</title>
<path fill="none" stroke="midnightblue" d="M1294.16,-501.34C1381.4,-500.001 1524.9,-495.985 1648,-484 1653.99,-483.416 1660.19,-482.715 1666.41,-481.94"/>
<polygon fill="midnightblue" stroke="midnightblue" points="1294.02,-497.842 1284.07,-501.487 1294.12,-504.841 1294.02,-497.842"/>
</g>
<!-- Node3&#45;&gt;Node2 -->
<g id="edge2" class="edge"><title>Node3&#45;&gt;Node2</title>
<path fill="none" stroke="midnightblue" d="M1294.13,-492.251C1334.11,-487.386 1381.61,-481.606 1418.18,-477.157"/>
<polygon fill="midnightblue" stroke="midnightblue" points="1293.64,-488.784 1284.13,-493.467 1294.48,-495.733 1293.64,-488.784"/>
</g>
<!-- Node4 -->
<g id="node4" class="node"><title>Node4</title>
<g id="a_node4"><a xlink:href="../../d6/d94/classengine_1_1_game_manager.html" target="_top" xlink:title="engine.GameManager">
<polygon fill="white" stroke="black" points="1416.5,-305.5 1416.5,-324.5 1539.5,-324.5 1539.5,-305.5 1416.5,-305.5"/>
<text text-anchor="middle" x="1478" y="-312.5" font-family="Helvetica,sans-Serif" font-size="10.00">engine.GameManager</text>
</a>
</g>
</g>
<!-- Node4&#45;&gt;Node1 -->
<g id="edge4" class="edge"><title>Node4&#45;&gt;Node1</title>
<path fill="none" stroke="#9a32cd" stroke-dasharray="5,2" d="M1504.35,-329.939C1554.47,-359.477 1665.75,-425.061 1716.22,-454.806"/>
<polygon fill="#9a32cd" stroke="#9a32cd" points="1505.84,-326.758 1495.45,-324.696 1502.29,-332.789 1505.84,-326.758"/>
<text text-anchor="middle" x="1603" y="-414" font-family="Helvetica,sans-Serif" font-size="10.00"> myGameManager</text>
</g>
<!-- Node5 -->
<g id="node5" class="node"><title>Node5</title>
<g id="a_node5"><a xlink:href="../../df/de5/classauthoring_1_1model_1_1collections_1_1_levels_collection.html" target="_top" xlink:title="authoring.model.collections.\lLevelsCollection">
<polygon fill="white" stroke="black" points="570,-424 570,-454 722,-454 722,-424 570,-424"/>
<text text-anchor="start" x="578" y="-442" font-family="Helvetica,sans-Serif" font-size="10.00">authoring.model.collections.</text>
<text text-anchor="middle" x="646" y="-431" font-family="Helvetica,sans-Serif" font-size="10.00">LevelsCollection</text>
</a>
</g>
</g>
<!-- Node5&#45;&gt;Node4 -->
<g id="edge5" class="edge"><title>Node5&#45;&gt;Node4</title>
<path fill="none" stroke="#9a32cd" stroke-dasharray="5,2" d="M732.429,-443.526C737.697,-443.713 742.92,-443.874 748,-444 791.542,-445.077 802.46,-445.152 846,-444 1045.55,-438.722 1095.55,-433.552 1294,-412 1340.37,-406.964 1356.46,-419.203 1398,-398 1432.02,-380.636 1459.45,-342.63 1471.04,-324.713"/>
<polygon fill="#9a32cd" stroke="#9a32cd" points="732.395,-440.022 722.269,-443.137 732.128,-447.017 732.395,-440.022"/>
<text text-anchor="middle" x="1074" y="-440" font-family="Helvetica,sans-Serif" font-size="10.00"> myLevels</text>
</g>
<!-- Node7 -->
<g id="node7" class="node"><title>Node7</title>
<g id="a_node7"><a xlink:href="../../df/d67/classengine_1_1level_1_1_level_manager.html" target="_top" xlink:title="engine.level.LevelManager">
<polygon fill="white" stroke="black" points="1141.5,-221.5 1141.5,-240.5 1284.5,-240.5 1284.5,-221.5 1141.5,-221.5"/>
<text text-anchor="middle" x="1213" y="-228.5" font-family="Helvetica,sans-Serif" font-size="10.00">engine.level.LevelManager</text>
</a>
</g>
</g>
<!-- Node5&#45;&gt;Node7 -->
<g id="edge9" class="edge"><title>Node5&#45;&gt;Node7</title>
<path fill="none" stroke="#9a32cd" stroke-dasharray="5,2" d="M732.504,-436.522C809.921,-431.37 925.377,-416.287 1016,-373 1094.11,-335.691 1173.42,-266.478 1201.43,-240.865"/>
<polygon fill="#9a32cd" stroke="#9a32cd" points="732.075,-433.042 722.312,-437.157 732.511,-440.028 732.075,-433.042"/>
<text text-anchor="middle" x="940" y="-423" font-family="Helvetica,sans-Serif" font-size="10.00"> myLevels</text>
</g>
<!-- Node23 -->
<g id="node23" class="node"><title>Node23</title>
<g id="a_node23"><a xlink:href="../../da/d90/classengine_1_1sound_1_1_sound_utility.html" target="_top" xlink:title="engine.sound.SoundUtility">
<polygon fill="white" stroke="black" points="869,-344.5 869,-363.5 1011,-363.5 1011,-344.5 869,-344.5"/>
<text text-anchor="middle" x="940" y="-351.5" font-family="Helvetica,sans-Serif" font-size="10.00">engine.sound.SoundUtility</text>
</a>
</g>
</g>
<!-- Node5&#45;&gt;Node23 -->
<g id="edge27" class="edge"><title>Node5&#45;&gt;Node23</title>
<path fill="none" stroke="#9a32cd" stroke-dasharray="5,2" d="M703.396,-420.957C717.877,-416.526 733.47,-411.93 748,-408 791.187,-396.319 802.956,-397.198 846,-385 868.597,-378.597 893.856,-370.089 912.341,-363.606"/>
<polygon fill="#9a32cd" stroke="#9a32cd" points="702.097,-417.695 693.574,-423.988 704.162,-424.383 702.097,-417.695"/>
<text text-anchor="middle" x="797" y="-411" font-family="Helvetica,sans-Serif" font-size="10.00"> myLevels</text>
</g>
<!-- Node6 -->
<g id="node6" class="node"><title>Node6</title>
<g id="a_node6"><a xlink:href="../../d4/d3b/classauthoring_1_1model_1_1collections_1_1_general_collection.html" target="_top" xlink:title="authoring.model.collections.\lGeneralCollection\&lt; Level \&gt;">
<polygon fill="white" stroke="black" points="249,-424 249,-454 401,-454 401,-424 249,-424"/>
<text text-anchor="start" x="257" y="-442" font-family="Helvetica,sans-Serif" font-size="10.00">authoring.model.collections.</text>
<text text-anchor="middle" x="325" y="-431" font-family="Helvetica,sans-Serif" font-size="10.00">GeneralCollection&lt; Level &gt;</text>
</a>
</g>
</g>
<!-- Node6&#45;&gt;Node5 -->
<g id="edge6" class="edge"><title>Node6&#45;&gt;Node5</title>
<path fill="none" stroke="midnightblue" d="M411.216,-439C460.588,-439 522.186,-439 569.758,-439"/>
<polygon fill="midnightblue" stroke="midnightblue" points="411.195,-435.5 401.195,-439 411.195,-442.5 411.195,-435.5"/>
</g>
<!-- Node7&#45;&gt;Node4 -->
<g id="edge7" class="edge"><title>Node7&#45;&gt;Node4</title>
<path fill="none" stroke="#9a32cd" stroke-dasharray="5,2" d="M1290.31,-242.388C1323.98,-248.728 1363.63,-258.02 1398,-271 1421.94,-280.041 1447.42,-295.407 1462.78,-305.378"/>
<polygon fill="#9a32cd" stroke="#9a32cd" points="1290.53,-238.87 1280.06,-240.514 1289.27,-245.756 1290.53,-238.87"/>
<text text-anchor="middle" x="1355" y="-274" font-family="Helvetica,sans-Serif" font-size="10.00"> myLevelManager</text>
</g>
<!-- Node8 -->
<g id="node8" class="node"><title>Node8</title>
<polygon fill="white" stroke="#bfbfbf" points="890,-163.5 890,-182.5 990,-182.5 990,-163.5 890,-163.5"/>
<text text-anchor="middle" x="940" y="-170.5" font-family="Helvetica,sans-Serif" font-size="10.00">Iterable&lt; Level &gt;</text>
</g>
<!-- Node8&#45;&gt;Node7 -->
<g id="edge8" class="edge"><title>Node8&#45;&gt;Node7</title>
<path fill="none" stroke="midnightblue" d="M1000.37,-184.54C1033.8,-191.157 1076.29,-199.762 1114,-208 1133.29,-212.215 1154.65,-217.19 1172.49,-221.433"/>
<polygon fill="midnightblue" stroke="midnightblue" points="1000.79,-181.056 990.301,-182.553 999.434,-187.923 1000.79,-181.056"/>
</g>
<!-- Node9 -->
<g id="node9" class="node"><title>Node9</title>
<g id="a_node9"><a xlink:href="../../dd/d8d/classengine_1_1render_1_1_renderer.html" target="_top" xlink:title="engine.render.Renderer">
<polygon fill="white" stroke="black" points="876,-125.5 876,-144.5 1004,-144.5 1004,-125.5 876,-125.5"/>
<text text-anchor="middle" x="940" y="-132.5" font-family="Helvetica,sans-Serif" font-size="10.00">engine.render.Renderer</text>
</a>
</g>
</g>
<!-- Node9&#45;&gt;Node4 -->
<g id="edge34" class="edge"><title>Node9&#45;&gt;Node4</title>
<path fill="none" stroke="#9a32cd" stroke-dasharray="5,2" d="M1014.41,-138.085C1109.65,-145.147 1277.8,-168.294 1398,-244 1426.4,-261.887 1454.35,-290.226 1468.13,-305.116"/>
<polygon fill="#9a32cd" stroke="#9a32cd" points="1014.52,-134.584 1004.3,-137.376 1014.03,-141.567 1014.52,-134.584"/>
<text text-anchor="middle" x="1213" y="-196" font-family="Helvetica,sans-Serif" font-size="10.00"> myGameObjectRenderer</text>
</g>
<!-- Node9&#45;&gt;Node7 -->
<g id="edge10" class="edge"><title>Node9&#45;&gt;Node7</title>
<path fill="none" stroke="#9a32cd" stroke-dasharray="5,2" d="M1003.99,-146.657C1037.32,-153.816 1078.56,-164.268 1114,-178 1144.84,-189.951 1178.21,-209.584 1196.96,-221.304"/>
<polygon fill="#9a32cd" stroke="#9a32cd" points="1004.42,-143.171 993.916,-144.541 1002.98,-150.022 1004.42,-143.171"/>
<text text-anchor="middle" x="1074" y="-181" font-family="Helvetica,sans-Serif" font-size="10.00"> myRenderer</text>
</g>
<!-- Node10 -->
<g id="node10" class="node"><title>Node10</title>
<polygon fill="white" stroke="#bfbfbf" points="564,-114 564,-144 728,-144 728,-114 564,-114"/>
<text text-anchor="start" x="572" y="-132" font-family="Helvetica,sans-Serif" font-size="10.00">Map&lt; Identifier, engine.render.</text>
<text text-anchor="middle" x="646" y="-121" font-family="Helvetica,sans-Serif" font-size="10.00">RenderedNode &gt;</text>
</g>
<!-- Node10&#45;&gt;Node9 -->
<g id="edge11" class="edge"><title>Node10&#45;&gt;Node9</title>
<path fill="none" stroke="#9a32cd" stroke-dasharray="5,2" d="M738.598,-130.882C783.16,-131.798 835.611,-132.876 875.674,-133.699"/>
<polygon fill="#9a32cd" stroke="#9a32cd" points="738.408,-127.378 728.338,-130.671 738.264,-134.376 738.408,-127.378"/>
<text text-anchor="middle" x="797" y="-137" font-family="Helvetica,sans-Serif" font-size="10.00"> myRenderedNodes</text>
</g>
<!-- Node11 -->
<g id="node11" class="node"><title>Node11</title>
<g id="a_node11"><a xlink:href="../../d5/d30/classengine_1_1render_1_1_rendered_node_factory.html" target="_top" xlink:title="engine.render.RenderedNode\lFactory">
<polygon fill="white" stroke="black" points="568,-202 568,-232 724,-232 724,-202 568,-202"/>
<text text-anchor="start" x="576" y="-220" font-family="Helvetica,sans-Serif" font-size="10.00">engine.render.RenderedNode</text>
<text text-anchor="middle" x="646" y="-209" font-family="Helvetica,sans-Serif" font-size="10.00">Factory</text>
</a>
</g>
</g>
<!-- Node11&#45;&gt;Node9 -->
<g id="edge12" class="edge"><title>Node11&#45;&gt;Node9</title>
<path fill="none" stroke="#9a32cd" stroke-dasharray="5,2" d="M734.557,-212.744C771.171,-207.704 812.825,-197.457 846,-177 857.049,-170.187 853.124,-161.086 864,-154 869.965,-150.114 876.674,-147.023 883.565,-144.563"/>
<polygon fill="#9a32cd" stroke="#9a32cd" points="733.856,-209.305 724.374,-214.032 734.735,-216.25 733.856,-209.305"/>
<text text-anchor="middle" x="797" y="-213" font-family="Helvetica,sans-Serif" font-size="10.00"> myFactory</text>
</g>
<!-- Node12 -->
<g id="node12" class="node"><title>Node12</title>
<g id="a_node12"><a xlink:href="../../d9/db5/classengine_1_1_file_path_utility.html" target="_top" xlink:title="engine.FilePathUtility">
<polygon fill="white" stroke="black" points="267.5,-350.5 267.5,-369.5 382.5,-369.5 382.5,-350.5 267.5,-350.5"/>
<text text-anchor="middle" x="325" y="-357.5" font-family="Helvetica,sans-Serif" font-size="10.00">engine.FilePathUtility</text>
</a>
</g>
</g>
<!-- Node12&#45;&gt;Node11 -->
<g id="edge13" class="edge"><title>Node12&#45;&gt;Node11</title>
<path fill="none" stroke="#9a32cd" stroke-dasharray="5,2" d="M375.015,-347.678C422.168,-333.968 493.544,-308.157 544,-267 554.891,-258.116 550.589,-249.205 562,-241 566.75,-237.585 571.979,-234.653 577.43,-232.137"/>
<polygon fill="#9a32cd" stroke="#9a32cd" points="374.003,-344.327 365.337,-350.421 375.912,-351.062 374.003,-344.327"/>
<text text-anchor="middle" x="485" y="-334" font-family="Helvetica,sans-Serif" font-size="10.00"> myFilePathUtility</text>
</g>
<!-- Node12&#45;&gt;Node23 -->
<g id="edge30" class="edge"><title>Node12&#45;&gt;Node23</title>
<path fill="none" stroke="#9a32cd" stroke-dasharray="5,2" d="M392.842,-362.511C440.088,-364.156 504.915,-366.154 562,-367 636.658,-368.107 655.367,-369.25 730,-367 781.626,-365.444 794.451,-363.218 846,-360 853.428,-359.536 861.189,-359.045 868.924,-358.552"/>
<polygon fill="#9a32cd" stroke="#9a32cd" points="392.852,-359.009 382.735,-362.155 392.606,-366.005 392.852,-359.009"/>
<text text-anchor="middle" x="646" y="-372" font-family="Helvetica,sans-Serif" font-size="10.00"> myFilePathUtility</text>
</g>
<!-- Node13 -->
<g id="node13" class="node"><title>Node13</title>
<g id="a_node13"><a xlink:href="../../df/d84/classengine_1_1level_1_1_level.html" target="_top" xlink:title="engine.level.Level">
<polygon fill="white" stroke="black" points="595.5,-163.5 595.5,-182.5 696.5,-182.5 696.5,-163.5 595.5,-163.5"/>
<text text-anchor="middle" x="646" y="-170.5" font-family="Helvetica,sans-Serif" font-size="10.00">engine.level.Level</text>
</a>
</g>
</g>
<!-- Node13&#45;&gt;Node7 -->
<g id="edge25" class="edge"><title>Node13&#45;&gt;Node7</title>
<path fill="none" stroke="#9a32cd" stroke-dasharray="5,2" d="M706.758,-179.134C811.805,-189.918 1029.05,-212.219 1141.35,-223.747"/>
<polygon fill="#9a32cd" stroke="#9a32cd" points="706.95,-175.636 696.645,-178.096 706.235,-182.599 706.95,-175.636"/>
<text text-anchor="middle" x="940" y="-214" font-family="Helvetica,sans-Serif" font-size="10.00"> myCurrentLevel</text>
</g>
<!-- Node13&#45;&gt;Node9 -->
<g id="edge14" class="edge"><title>Node13&#45;&gt;Node9</title>
<path fill="none" stroke="#9a32cd" stroke-dasharray="5,2" d="M706.542,-166.282C746.114,-161.703 799.21,-155.342 846,-149 856.193,-147.618 867.002,-146.069 877.506,-144.518"/>
<polygon fill="#9a32cd" stroke="#9a32cd" points="706.062,-162.814 696.529,-167.436 706.864,-169.768 706.062,-162.814"/>
<text text-anchor="middle" x="797" y="-165" font-family="Helvetica,sans-Serif" font-size="10.00"> myCurrentLevel</text>
</g>
<!-- Node14 -->
<g id="node14" class="node"><title>Node14</title>
<g id="a_node14"><a xlink:href="../../d3/d8d/classdata_1_1_observable.html" target="_top" xlink:title="data.Observable">
<polygon fill="white" stroke="black" points="277.5,-149.5 277.5,-168.5 372.5,-168.5 372.5,-149.5 277.5,-149.5"/>
<text text-anchor="middle" x="325" y="-156.5" font-family="Helvetica,sans-Serif" font-size="10.00">data.Observable</text>
</a>
</g>
</g>
<!-- Node14&#45;&gt;Node13 -->
<g id="edge15" class="edge"><title>Node14&#45;&gt;Node13</title>
<path fill="none" stroke="midnightblue" d="M382.85,-161.495C443.23,-164.145 537.733,-168.292 595.257,-170.817"/>
<polygon fill="midnightblue" stroke="midnightblue" points="382.871,-157.993 372.727,-161.051 382.564,-164.986 382.871,-157.993"/>
</g>
<!-- Node15 -->
<g id="node15" class="node"><title>Node15</title>
<polygon fill="white" stroke="#bfbfbf" points="23,-149.5 23,-168.5 161,-168.5 161,-149.5 23,-149.5"/>
<text text-anchor="middle" x="92" y="-156.5" font-family="Helvetica,sans-Serif" font-size="10.00">Vector&lt; data.Observer &gt;</text>
</g>
<!-- Node15&#45;&gt;Node14 -->
<g id="edge16" class="edge"><title>Node15&#45;&gt;Node14</title>
<path fill="none" stroke="#9a32cd" stroke-dasharray="5,2" d="M171.318,-159C206.521,-159 246.882,-159 277.262,-159"/>
<polygon fill="#9a32cd" stroke="#9a32cd" points="171.058,-155.5 161.058,-159 171.058,-162.5 171.058,-155.5"/>
<text text-anchor="middle" x="213" y="-162" font-family="Helvetica,sans-Serif" font-size="10.00"> obs</text>
</g>
<!-- Node16 -->
<g id="node16" class="node"><title>Node16</title>
<g id="a_node16"><a xlink:href="../../dc/df6/interfaceengine_1_1game_object_1_1_identifiable.html" target="_top" xlink:title="engine.gameObject.Identifiable">
<polygon fill="white" stroke="black" points="242.5,-111.5 242.5,-130.5 407.5,-130.5 407.5,-111.5 242.5,-111.5"/>
<text text-anchor="middle" x="325" y="-118.5" font-family="Helvetica,sans-Serif" font-size="10.00">engine.gameObject.Identifiable</text>
</a>
</g>
</g>
<!-- Node16&#45;&gt;Node13 -->
<g id="edge17" class="edge"><title>Node16&#45;&gt;Node13</title>
<path fill="none" stroke="midnightblue" d="M394.724,-132.203C455.151,-142.053 541.637,-156.151 595.498,-164.931"/>
<polygon fill="midnightblue" stroke="midnightblue" points="394.942,-128.692 384.51,-130.538 393.816,-135.601 394.942,-128.692"/>
</g>
<!-- Node17 -->
<g id="node17" class="node"><title>Node17</title>
<g id="a_node17"><a xlink:href="../../d4/dac/classengine_1_1game_object_1_1_identifier.html" target="_top" xlink:title="engine.gameObject.Identifier">
<polygon fill="white" stroke="black" points="247.5,-237.5 247.5,-256.5 402.5,-256.5 402.5,-237.5 247.5,-237.5"/>
<text text-anchor="middle" x="325" y="-244.5" font-family="Helvetica,sans-Serif" font-size="10.00">engine.gameObject.Identifier</text>
</a>
</g>
</g>
<!-- Node17&#45;&gt;Node13 -->
<g id="edge18" class="edge"><title>Node17&#45;&gt;Node13</title>
<path fill="none" stroke="#9a32cd" stroke-dasharray="5,2" d="M412.769,-252.853C455.225,-251.774 505.37,-244.291 544,-220 556.524,-212.125 549.893,-200.502 562,-192 571.799,-185.119 583.706,-180.69 595.407,-177.85"/>
<polygon fill="#9a32cd" stroke="#9a32cd" points="412.666,-249.354 402.716,-252.994 412.765,-256.353 412.666,-249.354"/>
<text text-anchor="middle" x="485" y="-255" font-family="Helvetica,sans-Serif" font-size="10.00"> myId</text>
</g>
<!-- Node18 -->
<g id="node18" class="node"><title>Node18</title>
<polygon fill="white" stroke="#bfbfbf" points="64,-237.5 64,-256.5 120,-256.5 120,-237.5 64,-237.5"/>
<text text-anchor="middle" x="92" y="-244.5" font-family="Helvetica,sans-Serif" font-size="10.00">Random</text>
</g>
<!-- Node18&#45;&gt;Node17 -->
<g id="edge19" class="edge"><title>Node18&#45;&gt;Node17</title>
<path fill="none" stroke="#9a32cd" stroke-dasharray="5,2" d="M130.511,-247C162.046,-247 208.136,-247 247.423,-247"/>
<polygon fill="#9a32cd" stroke="#9a32cd" points="130.406,-243.5 120.406,-247 130.406,-250.5 130.406,-243.5"/>
<text text-anchor="middle" x="213" y="-250" font-family="Helvetica,sans-Serif" font-size="10.00"> r</text>
</g>
<!-- Node19 -->
<g id="node19" class="node"><title>Node19</title>
<g id="a_node19"><a xlink:href="../../d1/d32/classauthoring_1_1model_1_1collections_1_1_game_objects_collection.html" target="_top" xlink:title="authoring.model.collections.\lGameObjectsCollection">
<polygon fill="white" stroke="black" points="249,-24 249,-54 401,-54 401,-24 249,-24"/>
<text text-anchor="start" x="257" y="-42" font-family="Helvetica,sans-Serif" font-size="10.00">authoring.model.collections.</text>
<text text-anchor="middle" x="325" y="-31" font-family="Helvetica,sans-Serif" font-size="10.00">GameObjectsCollection</text>
</a>
</g>
</g>
<!-- Node19&#45;&gt;Node4 -->
<g id="edge35" class="edge"><title>Node19&#45;&gt;Node4</title>
<path fill="none" stroke="#9a32cd" stroke-dasharray="5,2" d="M411.147,-22.8799C475.207,-12.1448 565.294,-0 645,-0 645,-0 645,-0 1214,-0 1377.15,-0 1458.86,-252.059 1474.28,-305.227"/>
<polygon fill="#9a32cd" stroke="#9a32cd" points="410.366,-19.4622 401.094,-24.5886 411.54,-26.3633 410.366,-19.4622"/>
<text text-anchor="middle" x="940" y="-3" font-family="Helvetica,sans-Serif" font-size="10.00"> myGameObjects</text>
</g>
<!-- Node19&#45;&gt;Node7 -->
<g id="edge24" class="edge"><title>Node19&#45;&gt;Node7</title>
<path fill="none" stroke="#9a32cd" stroke-dasharray="5,2" d="M411.163,-39.2472C514.698,-40.805 694.39,-47.5622 846,-74 922.67,-87.3698 941.38,-93.8886 1016,-116 1060.2,-129.098 1081.94,-116.867 1114,-150 1132.77,-169.398 1112.72,-189.116 1132,-208 1137.89,-213.763 1145.12,-218.1 1152.8,-221.361"/>
<polygon fill="#9a32cd" stroke="#9a32cd" points="411.125,-35.7464 401.077,-39.1083 411.028,-42.7457 411.125,-35.7464"/>
<text text-anchor="middle" x="797" y="-88" font-family="Helvetica,sans-Serif" font-size="10.00"> myTemplateObjects</text>
<text text-anchor="middle" x="797" y="-77" font-family="Helvetica,sans-Serif" font-size="10.00">myGameObjects</text>
</g>
<!-- Node19&#45;&gt;Node13 -->
<g id="edge20" class="edge"><title>Node19&#45;&gt;Node13</title>
<path fill="none" stroke="#9a32cd" stroke-dasharray="5,2" d="M411.087,-50.6179C455.267,-60.4887 507.491,-78.656 544,-112 558.695,-125.421 546.738,-140.228 562,-153 571.435,-160.895 583.477,-165.773 595.443,-168.76"/>
<polygon fill="#9a32cd" stroke="#9a32cd" points="411.721,-47.1744 401.211,-48.5176 410.265,-54.0213 411.721,-47.1744"/>
<text text-anchor="middle" x="485" y="-126" font-family="Helvetica,sans-Serif" font-size="10.00"> myDefaultGameObjects</text>
<text text-anchor="middle" x="485" y="-115" font-family="Helvetica,sans-Serif" font-size="10.00">myWorkingGameObjects</text>
</g>
<!-- Node20 -->
<g id="node20" class="node"><title>Node20</title>
<g id="a_node20"><a xlink:href="../../d4/d3b/classauthoring_1_1model_1_1collections_1_1_general_collection.html" target="_top" xlink:title="authoring.model.collections.\lGeneralCollection\&lt; GameObject \&gt;">
<polygon fill="white" stroke="black" points="0.5,-24 0.5,-54 183.5,-54 183.5,-24 0.5,-24"/>
<text text-anchor="start" x="8.5" y="-42" font-family="Helvetica,sans-Serif" font-size="10.00">authoring.model.collections.</text>
<text text-anchor="middle" x="92" y="-31" font-family="Helvetica,sans-Serif" font-size="10.00">GeneralCollection&lt; GameObject &gt;</text>
</a>
</g>
</g>
<!-- Node20&#45;&gt;Node19 -->
<g id="edge21" class="edge"><title>Node20&#45;&gt;Node19</title>
<path fill="none" stroke="midnightblue" d="M193.843,-39C212.335,-39 231.337,-39 248.91,-39"/>
<polygon fill="midnightblue" stroke="midnightblue" points="193.634,-35.5001 183.634,-39 193.634,-42.5001 193.634,-35.5001"/>
</g>
<!-- Node21 -->
<g id="node21" class="node"><title>Node21</title>
<polygon fill="white" stroke="#bfbfbf" points="254.5,-188 254.5,-218 395.5,-218 395.5,-188 254.5,-188"/>
<text text-anchor="start" x="262.5" y="-206" font-family="Helvetica,sans-Serif" font-size="10.00">List&lt; engine.gameObject.</text>
<text text-anchor="middle" x="325" y="-195" font-family="Helvetica,sans-Serif" font-size="10.00">Identifier &gt;</text>
</g>
<!-- Node21&#45;&gt;Node13 -->
<g id="edge22" class="edge"><title>Node21&#45;&gt;Node13</title>
<path fill="none" stroke="#9a32cd" stroke-dasharray="5,2" d="M405.726,-195.502C465.211,-189.908 544.633,-182.439 595.312,-177.673"/>
<polygon fill="#9a32cd" stroke="#9a32cd" points="405.24,-192.032 395.612,-196.453 405.896,-199.002 405.24,-192.032"/>
<text text-anchor="middle" x="485" y="-208" font-family="Helvetica,sans-Serif" font-size="10.00"> myConditionIdList</text>
<text text-anchor="middle" x="485" y="-197" font-family="Helvetica,sans-Serif" font-size="10.00">myGameObjectIdList</text>
</g>
<!-- Node22 -->
<g id="node22" class="node"><title>Node22</title>
<polygon fill="white" stroke="#bfbfbf" points="623,-71.5 623,-90.5 669,-90.5 669,-71.5 623,-71.5"/>
<text text-anchor="middle" x="646" y="-78.5" font-family="Helvetica,sans-Serif" font-size="10.00">Group</text>
</g>
<!-- Node22&#45;&gt;Node4 -->
<g id="edge37" class="edge"><title>Node22&#45;&gt;Node4</title>
<path fill="none" stroke="#9a32cd" stroke-dasharray="5,2" d="M679.281,-80.233C775.209,-78.8264 1066.06,-80.8929 1294,-149 1343.14,-163.683 1359.12,-165.549 1398,-199 1434.94,-230.784 1462.38,-283.706 1472.62,-305.339"/>
<polygon fill="#9a32cd" stroke="#9a32cd" points="679.012,-76.737 669.073,-80.4075 679.131,-83.7359 679.012,-76.737"/>
<text text-anchor="middle" x="1074" y="-113" font-family="Helvetica,sans-Serif" font-size="10.00"> myRootGroup</text>
</g>
<!-- Node22&#45;&gt;Node9 -->
<g id="edge23" class="edge"><title>Node22&#45;&gt;Node9</title>
<path fill="none" stroke="#9a32cd" stroke-dasharray="5,2" d="M679.16,-86.6932C718.523,-93.6905 787.203,-105.992 846,-117 860.387,-119.693 876.01,-122.69 890.272,-125.453"/>
<polygon fill="#9a32cd" stroke="#9a32cd" points="679.56,-83.2096 669.102,-84.9074 678.336,-90.1018 679.56,-83.2096"/>
<text text-anchor="middle" x="797" y="-120" font-family="Helvetica,sans-Serif" font-size="10.00"> myCanvas</text>
</g>
<!-- Node23&#45;&gt;Node4 -->
<g id="edge38" class="edge"><title>Node23&#45;&gt;Node4</title>
<path fill="none" stroke="#9a32cd" stroke-dasharray="5,2" d="M987.515,-365.917C1025.96,-375.12 1082.12,-387.086 1132,-392 1203.65,-399.059 1222.21,-397.49 1294,-392 1340.63,-388.434 1355.02,-394.431 1398,-376 1426.67,-363.708 1454.08,-338.544 1467.83,-324.686"/>
<polygon fill="#9a32cd" stroke="#9a32cd" points="988.195,-362.48 977.651,-363.523 986.543,-369.283 988.195,-362.48"/>
<text text-anchor="middle" x="1213" y="-400" font-family="Helvetica,sans-Serif" font-size="10.00"> mySoundUtility</text>
</g>
<!-- Node23&#45;&gt;Node7 -->
<g id="edge26" class="edge"><title>Node23&#45;&gt;Node7</title>
<path fill="none" stroke="#9a32cd" stroke-dasharray="5,2" d="M959.563,-337.643C977.502,-322.589 1006,-300.598 1034,-287 1067.28,-270.837 1078.68,-275.017 1114,-264 1137.99,-256.515 1165.05,-247.348 1184.65,-240.576"/>
<polygon fill="#9a32cd" stroke="#9a32cd" points="956.978,-335.248 951.654,-344.408 961.528,-340.568 956.978,-335.248"/>
<text text-anchor="middle" x="1074" y="-290" font-family="Helvetica,sans-Serif" font-size="10.00"> mySoundPlayer</text>
</g>
<!-- Node24 -->
<g id="node24" class="node"><title>Node24</title>
<polygon fill="white" stroke="#bfbfbf" points="570,-338.5 570,-357.5 722,-357.5 722,-338.5 570,-338.5"/>
<text text-anchor="middle" x="646" y="-345.5" font-family="Helvetica,sans-Serif" font-size="10.00">Map&lt; String, MediaPlayer &gt;</text>
</g>
<!-- Node24&#45;&gt;Node23 -->
<g id="edge28" class="edge"><title>Node24&#45;&gt;Node23</title>
<path fill="none" stroke="#9a32cd" stroke-dasharray="5,2" d="M732.377,-347.518C767.57,-347.556 808.754,-347.906 846,-349 853.435,-349.218 861.2,-349.52 868.938,-349.867"/>
<polygon fill="#9a32cd" stroke="#9a32cd" points="732.141,-344.018 722.14,-347.515 732.139,-351.018 732.141,-344.018"/>
<text text-anchor="middle" x="797" y="-352" font-family="Helvetica,sans-Serif" font-size="10.00"> myMediaPlayerMap</text>
</g>
<!-- Node25 -->
<g id="node25" class="node"><title>Node25</title>
<polygon fill="white" stroke="#bfbfbf" points="577,-300.5 577,-319.5 715,-319.5 715,-300.5 577,-300.5"/>
<text text-anchor="middle" x="646" y="-307.5" font-family="Helvetica,sans-Serif" font-size="10.00">Map&lt; String, AudioClip &gt;</text>
</g>
<!-- Node25&#45;&gt;Node23 -->
<g id="edge29" class="edge"><title>Node25&#45;&gt;Node23</title>
<path fill="none" stroke="#9a32cd" stroke-dasharray="5,2" d="M725.559,-317.122C762.277,-320.951 806.513,-326.28 846,-333 864.276,-336.11 884.361,-340.519 901.174,-344.494"/>
<polygon fill="#9a32cd" stroke="#9a32cd" points="725.716,-313.62 715.412,-316.082 725.002,-320.583 725.716,-313.62"/>
<text text-anchor="middle" x="797" y="-336" font-family="Helvetica,sans-Serif" font-size="10.00"> myAudioClipMap</text>
</g>
<!-- Node26 -->
<g id="node26" class="node"><title>Node26</title>
<g id="a_node26"><a xlink:href="../../db/d2a/classauthoring_1_1model_1_1collections_1_1_conditions_collection.html" target="_top" xlink:title="authoring.model.collections.\lConditionsCollection">
<polygon fill="white" stroke="black" points="864,-251 864,-281 1016,-281 1016,-251 864,-251"/>
<text text-anchor="start" x="872" y="-269" font-family="Helvetica,sans-Serif" font-size="10.00">authoring.model.collections.</text>
<text text-anchor="middle" x="940" y="-258" font-family="Helvetica,sans-Serif" font-size="10.00">ConditionsCollection</text>
</a>
</g>
</g>
<!-- Node26&#45;&gt;Node4 -->
<g id="edge39" class="edge"><title>Node26&#45;&gt;Node4</title>
<path fill="none" stroke="#9a32cd" stroke-dasharray="5,2" d="M981.188,-285.175C997.235,-291.863 1016.12,-298.553 1034,-302 1048.18,-304.734 1279.56,-304.522 1294,-305 1334.86,-306.352 1380.81,-308.866 1416.45,-311.035"/>
<polygon fill="#9a32cd" stroke="#9a32cd" points="982.167,-281.785 971.598,-281.04 979.395,-288.213 982.167,-281.785"/>
<text text-anchor="middle" x="1213" y="-308" font-family="Helvetica,sans-Serif" font-size="10.00"> myGameConditions</text>
</g>
<!-- Node26&#45;&gt;Node7 -->
<g id="edge31" class="edge"><title>Node26&#45;&gt;Node7</title>
<path fill="none" stroke="#9a32cd" stroke-dasharray="5,2" d="M1026.26,-254.027C1028.87,-253.678 1031.45,-253.335 1034,-253 1069.35,-248.345 1108.68,-243.453 1141.37,-239.468"/>
<polygon fill="#9a32cd" stroke="#9a32cd" points="1025.55,-250.591 1016.11,-255.397 1026.49,-257.529 1025.55,-250.591"/>
<text text-anchor="middle" x="1074" y="-256" font-family="Helvetica,sans-Serif" font-size="10.00"> myConditions</text>
</g>
<!-- Node27 -->
<g id="node27" class="node"><title>Node27</title>
<g id="a_node27"><a xlink:href="../../d4/d3b/classauthoring_1_1model_1_1collections_1_1_general_collection.html" target="_top" xlink:title="authoring.model.collections.\lGeneralCollection\&lt; Condition \&gt;">
<polygon fill="white" stroke="black" points="562,-251 562,-281 730,-281 730,-251 562,-251"/>
<text text-anchor="start" x="570" y="-269" font-family="Helvetica,sans-Serif" font-size="10.00">authoring.model.collections.</text>
<text text-anchor="middle" x="646" y="-258" font-family="Helvetica,sans-Serif" font-size="10.00">GeneralCollection&lt; Condition &gt;</text>
</a>
</g>
</g>
<!-- Node27&#45;&gt;Node26 -->
<g id="edge32" class="edge"><title>Node27&#45;&gt;Node26</title>
<path fill="none" stroke="midnightblue" d="M740.523,-266C780.286,-266 826.039,-266 863.588,-266"/>
<polygon fill="midnightblue" stroke="midnightblue" points="740.285,-262.5 730.285,-266 740.285,-269.5 740.285,-262.5"/>
</g>
<!-- Node28 -->
<g id="node28" class="node"><title>Node28</title>
<polygon fill="white" stroke="#bfbfbf" points="1185,-363.5 1185,-382.5 1241,-382.5 1241,-363.5 1185,-363.5"/>
<text text-anchor="middle" x="1213" y="-370.5" font-family="Helvetica,sans-Serif" font-size="10.00">Timeline</text>
</g>
<!-- Node28&#45;&gt;Node4 -->
<g id="edge33" class="edge"><title>Node28&#45;&gt;Node4</title>
<path fill="none" stroke="#9a32cd" stroke-dasharray="5,2" d="M1251.08,-368.933C1288.53,-364.366 1347.85,-355.865 1398,-343 1417.03,-338.119 1437.96,-330.599 1453.49,-324.581"/>
<polygon fill="#9a32cd" stroke="#9a32cd" points="1250.64,-365.461 1241.13,-370.118 1251.47,-372.412 1250.64,-365.461"/>
<text text-anchor="middle" x="1355" y="-364" font-family="Helvetica,sans-Serif" font-size="10.00"> myAnimation</text>
</g>
<!-- Node29 -->
<g id="node29" class="node"><title>Node29</title>
<polygon fill="white" stroke="#bfbfbf" points="1132.5,-325.5 1132.5,-344.5 1293.5,-344.5 1293.5,-325.5 1132.5,-325.5"/>
<text text-anchor="middle" x="1213" y="-332.5" font-family="Helvetica,sans-Serif" font-size="10.00">EventHandler&lt; ActionEvent &gt;</text>
</g>
<!-- Node29&#45;&gt;Node4 -->
<g id="edge36" class="edge"><title>Node29&#45;&gt;Node4</title>
<path fill="none" stroke="#9a32cd" stroke-dasharray="5,2" d="M1303.95,-328.16C1341.06,-325.337 1383.1,-322.141 1416.45,-319.605"/>
<polygon fill="#9a32cd" stroke="#9a32cd" points="1303.33,-324.697 1293.62,-328.945 1303.86,-331.677 1303.33,-324.697"/>
<text text-anchor="middle" x="1355" y="-331" font-family="Helvetica,sans-Serif" font-size="10.00"> oneFrame</text>
</g>
</g>
</svg>
        <g id="navigator" transform="translate(0 0)" fill="#404254">
                <rect fill="#f2f5e9" fill-opacity="0.5" stroke="#606060" stroke-width=".5" x="0" y="0" width="60" height="60"/>
                <use id="zoomplus" xlink:href="#zoomPlus" x="17" y="9" onmousedown="handleZoom(evt,'in')"/>
                <use id="zoomminus" xlink:href="#zoomMin" x="42" y="9" onmousedown="handleZoom(evt,'out')"/>
                <use id="reset" xlink:href="#resetDef" x="30" y="36" onmousedown="handleReset()"/>
                <g id="arrowUp" xlink:href="#dirArrow" transform="translate(30 24)" onmousedown="handlePan(0,-1)">
                  <use xlink:href="#rim" fill="#404040">
                        <set attributeName="fill" to="#808080" begin="arrowUp.mouseover" end="arrowUp.mouseout"/>
                  </use>
                  <path fill="none" stroke="white" stroke-width="1.5" d="M0,-3.0v7 M-2.5,-0.5L0,-3.0L2.5,-0.5"/>
                </g>
                <g id="arrowRight" xlink:href="#dirArrow" transform="rotate(90) translate(36 -43)" onmousedown="handlePan(1,0)">
                  <use xlink:href="#rim" fill="#404040">
                        <set attributeName="fill" to="#808080" begin="arrowRight.mouseover" end="arrowRight.mouseout"/>
                  </use>
                  <path fill="none" stroke="white" stroke-width="1.5" d="M0,-3.0v7 M-2.5,-0.5L0,-3.0L2.5,-0.5"/>
                </g>
                <g id="arrowDown" xlink:href="#dirArrow" transform="rotate(180) translate(-30 -48)" onmousedown="handlePan(0,1)">
                  <use xlink:href="#rim" fill="#404040">
                        <set attributeName="fill" to="#808080" begin="arrowDown.mouseover" end="arrowDown.mouseout"/>
                  </use>
                  <path fill="none" stroke="white" stroke-width="1.5" d="M0,-3.0v7 M-2.5,-0.5L0,-3.0L2.5,-0.5"/>
                </g>
                <g id="arrowLeft" xlink:href="#dirArrow" transform="rotate(270) translate(-36 17)" onmousedown="handlePan(-1,0)">
                  <use xlink:href="#rim" fill="#404040">
                        <set attributeName="fill" to="#808080" begin="arrowLeft.mouseover" end="arrowLeft.mouseout"/>
                  </use>
                  <path fill="none" stroke="white" stroke-width="1.5" d="M0,-3.0v7 M-2.5,-0.5L0,-3.0L2.5,-0.5"/>
                </g>
        </g>
        <svg viewBox="0 0 15 15" width="100%" height="30px" preserveAspectRatio="xMaxYMin meet">
         <g id="arrow_out" transform="scale(0.3 0.3)">
          <a xlink:href="classengine_1_1actions_1_1render_1_1_frame_rate_action__coll__graph_org.svg" target="_base">
           <rect id="button" ry="5" rx="5" y="6" x="6" height="38" width="38"
                fill="#f2f5e9" fill-opacity="0.5" stroke="#606060" stroke-width="1.0"/>
           <path id="arrow"
             d="M 11.500037,31.436501 C 11.940474,20.09759 22.043105,11.32322 32.158766,21.979434 L 37.068811,17.246167 C 37.068811,17.246167 37.088388,32 37.088388,32 L 22.160133,31.978069 C 22.160133,31.978069 26.997745,27.140456 26.997745,27.140456 C 18.528582,18.264221 13.291696,25.230495 11.500037,31.436501 z"
             style="fill:#404040;"/>
          </a>
         </g>
        </svg>
</svg>
