<?xml version="1.0" encoding="UTF-8" standalone="no"?>
<!DOCTYPE svg PUBLIC "-//W3C//DTD SVG 1.1//EN"
 "http://www.w3.org/Graphics/SVG/1.1/DTD/svg11.dtd">
<!-- Generated by graphviz version 2.36.0 (20140111.2315)
 -->
<!-- Title: engine.actions.MakeNewObjectFromObjectAction Pages: 1 -->
<!--zoomable 841 -->
<svg id="main" version="1.1" xmlns="http://www.w3.org/2000/svg" xmlns:xlink="http://www.w3.org/1999/xlink" xml:space="preserve" onload="init(evt)">
<style type="text/css"><![CDATA[
.edge:hover path { stroke: red; }
.edge:hover polygon { stroke: red; fill: red; }
]]></style>
<script type="text/javascript"><![CDATA[
var edges = document.getElementsByTagName('g');
if (edges && edges.length) {
  for (var i=0;i<edges.length;i++) {
    if (edges[i].id.substr(0,4)=='edge') {
      edges[i].setAttribute('class','edge');
    }
  }
}
]]></script>
        <defs>
                <circle id="rim" cx="0" cy="0" r="7"/>
                <circle id="rim2" cx="0" cy="0" r="3.5"/>
                <g id="zoomPlus">
                        <use xlink:href="#rim" fill="#404040">
                                <set attributeName="fill" to="#808080" begin="zoomplus.mouseover" end="zoomplus.mouseout"/>
                        </use>
                        <path d="M-4,0h8M0,-4v8" fill="none" stroke="white" stroke-width="1.5" pointer-events="none"/>
                </g>
                <g id="zoomMin">
                        <use xlink:href="#rim" fill="#404040">
                                <set attributeName="fill" to="#808080" begin="zoomminus.mouseover" end="zoomminus.mouseout"/>
                        </use>
                        <path d="M-4,0h8" fill="none" stroke="white" stroke-width="1.5" pointer-events="none"/>
                </g>
                <g id="dirArrow">
                        <path fill="none" stroke="white" stroke-width="1.5" d="M0,-3.0v7 M-2.5,-0.5L0,-3.0L2.5,-0.5"/>
                </g>
               <g id="resetDef">
                       <use xlink:href="#rim2" fill="#404040">
                               <set attributeName="fill" to="#808080" begin="reset.mouseover" end="reset.mouseout"/>
                       </use>
               </g>
        </defs>

<script type="text/javascript">
var viewWidth = 1670;
var viewHeight = 841;
var sectionId = 'dynsection-1';
</script>
<script xlink:href="../../svgpan.js"/>
<svg id="graph" class="graph">
<g id="viewport">
<title>engine.actions.MakeNewObjectFromObjectAction</title>
<polygon fill="white" stroke="none" points="-4,4 -4,-837 1666,-837 1666,4 -4,4"/>
<!-- Node1 -->
<g id="node1" class="node"><title>Node1</title>
<polygon fill="#bfbfbf" stroke="black" points="1496,-433 1496,-463 1662,-463 1662,-433 1496,-433"/>
<text text-anchor="start" x="1504" y="-451" font-family="Helvetica,sans-Serif" font-size="10.00">engine.actions.MakeNewObject</text>
<text text-anchor="middle" x="1579" y="-440" font-family="Helvetica,sans-Serif" font-size="10.00">FromObjectAction</text>
</g>
<!-- Node2 -->
<g id="node2" class="node"><title>Node2</title>
<g id="a_node2"><a xlink:href="../../d2/dc5/classengine_1_1actions_1_1_make_new_object_action.html" target="_top" xlink:title="engine.actions.MakeNewObject\lAction">
<polygon fill="white" stroke="black" points="1240,-656 1240,-686 1406,-686 1406,-656 1240,-656"/>
<text text-anchor="start" x="1248" y="-674" font-family="Helvetica,sans-Serif" font-size="10.00">engine.actions.MakeNewObject</text>
<text text-anchor="middle" x="1323" y="-663" font-family="Helvetica,sans-Serif" font-size="10.00">Action</text>
</a>
</g>
</g>
<!-- Node2&#45;&gt;Node1 -->
<g id="edge1" class="edge"><title>Node2&#45;&gt;Node1</title>
<path fill="none" stroke="midnightblue" d="M1349.14,-648.926C1400.61,-603.736 1516.84,-501.698 1560.76,-463.14"/>
<polygon fill="midnightblue" stroke="midnightblue" points="1346.66,-646.444 1341.46,-655.672 1351.28,-651.705 1346.66,-646.444"/>
</g>
<!-- Node3 -->
<g id="node3" class="node"><title>Node3</title>
<g id="a_node3"><a xlink:href="../../d9/dd2/interfaceengine_1_1actions_1_1_action.html" target="_top" xlink:title="engine.actions.Action">
<polygon fill="white" stroke="black" points="962.5,-811.5 962.5,-830.5 1081.5,-830.5 1081.5,-811.5 962.5,-811.5"/>
<text text-anchor="middle" x="1022" y="-818.5" font-family="Helvetica,sans-Serif" font-size="10.00">engine.actions.Action</text>
</a>
</g>
</g>
<!-- Node3&#45;&gt;Node2 -->
<g id="edge2" class="edge"><title>Node3&#45;&gt;Node2</title>
<path fill="none" stroke="midnightblue" d="M1092.16,-824.738C1131.27,-823.956 1179.84,-817.928 1218,-797 1265.5,-770.95 1300.01,-713.633 1314.48,-686.206"/>
<polygon fill="midnightblue" stroke="midnightblue" points="1091.88,-821.24 1081.91,-824.829 1091.94,-828.24 1091.88,-821.24"/>
</g>
<!-- Node4 -->
<g id="node4" class="node"><title>Node4</title>
<g id="a_node4"><a xlink:href="../../d2/d15/interfaceengine_1_1actions_1_1_initializable.html" target="_top" xlink:title="engine.actions.Initializable">
<polygon fill="white" stroke="black" points="609,-792.5 609,-811.5 751,-811.5 751,-792.5 609,-792.5"/>
<text text-anchor="middle" x="680" y="-799.5" font-family="Helvetica,sans-Serif" font-size="10.00">engine.actions.Initializable</text>
</a>
</g>
</g>
<!-- Node4&#45;&gt;Node2 -->
<g id="edge4" class="edge"><title>Node4&#45;&gt;Node2</title>
<path fill="none" stroke="midnightblue" d="M761.532,-801.549C890.641,-799.829 1137.6,-792.149 1218,-759 1256.92,-742.952 1292,-706.676 1309.76,-686.061"/>
<polygon fill="midnightblue" stroke="midnightblue" points="761.264,-798.052 751.308,-801.676 761.351,-805.052 761.264,-798.052"/>
</g>
<!-- Node4&#45;&gt;Node3 -->
<g id="edge3" class="edge"><title>Node4&#45;&gt;Node3</title>
<path fill="none" stroke="midnightblue" d="M761.132,-806.478C822.87,-809.928 906.802,-814.618 962.374,-817.724"/>
<polygon fill="midnightblue" stroke="midnightblue" points="761.216,-802.977 751.036,-805.914 760.825,-809.966 761.216,-802.977"/>
</g>
<!-- Node5 -->
<g id="node5" class="node"><title>Node5</title>
<g id="a_node5"><a xlink:href="../../df/de5/classengine_1_1render_1_1_game_object_renderer.html" target="_top" xlink:title="engine.render.GameObject\lRenderer">
<polygon fill="white" stroke="black" points="949,-656 949,-686 1095,-686 1095,-656 949,-656"/>
<text text-anchor="start" x="957" y="-674" font-family="Helvetica,sans-Serif" font-size="10.00">engine.render.GameObject</text>
<text text-anchor="middle" x="1022" y="-663" font-family="Helvetica,sans-Serif" font-size="10.00">Renderer</text>
</a>
</g>
</g>
<!-- Node5&#45;&gt;Node2 -->
<g id="edge5" class="edge"><title>Node5&#45;&gt;Node2</title>
<path fill="none" stroke="#9a32cd" stroke-dasharray="5,2" d="M1105.55,-671C1147.45,-671 1198.18,-671 1240,-671"/>
<polygon fill="#9a32cd" stroke="#9a32cd" points="1105.38,-667.5 1095.38,-671 1105.38,-674.5 1105.38,-667.5"/>
<text text-anchor="middle" x="1173" y="-674" font-family="Helvetica,sans-Serif" font-size="10.00"> myRenderer</text>
</g>
<!-- Node6 -->
<g id="node6" class="node"><title>Node6</title>
<polygon fill="white" stroke="#bfbfbf" points="598,-686 598,-716 762,-716 762,-686 598,-686"/>
<text text-anchor="start" x="606" y="-704" font-family="Helvetica,sans-Serif" font-size="10.00">Map&lt; Identifier, engine.render.</text>
<text text-anchor="middle" x="680" y="-693" font-family="Helvetica,sans-Serif" font-size="10.00">RenderedNode &gt;</text>
</g>
<!-- Node6&#45;&gt;Node5 -->
<g id="edge6" class="edge"><title>Node6&#45;&gt;Node5</title>
<path fill="none" stroke="#9a32cd" stroke-dasharray="5,2" d="M772.073,-694.142C815.648,-690.731 868.547,-686.403 916,-682 926.585,-681.018 937.764,-679.916 948.723,-678.799"/>
<polygon fill="#9a32cd" stroke="#9a32cd" points="771.764,-690.655 762.067,-694.922 772.308,-697.634 771.764,-690.655"/>
<text text-anchor="middle" x="858" y="-695" font-family="Helvetica,sans-Serif" font-size="10.00"> myRenderedNodes</text>
</g>
<!-- Node7 -->
<g id="node7" class="node"><title>Node7</title>
<g id="a_node7"><a xlink:href="../../df/d84/classengine_1_1level_1_1_level.html" target="_top" xlink:title="engine.level.Level">
<polygon fill="white" stroke="black" points="629.5,-609.5 629.5,-628.5 730.5,-628.5 730.5,-609.5 629.5,-609.5"/>
<text text-anchor="middle" x="680" y="-616.5" font-family="Helvetica,sans-Serif" font-size="10.00">engine.level.Level</text>
</a>
</g>
</g>
<!-- Node7&#45;&gt;Node2 -->
<g id="edge20" class="edge"><title>Node7&#45;&gt;Node2</title>
<path fill="none" stroke="#9a32cd" stroke-dasharray="5,2" d="M740.706,-618.691C823.749,-618.838 978.719,-621.203 1110,-635 1155.85,-639.819 1206.8,-648.367 1247.26,-655.924"/>
<polygon fill="#9a32cd" stroke="#9a32cd" points="740.7,-615.191 730.698,-618.684 740.695,-622.191 740.7,-615.191"/>
<text text-anchor="middle" x="1022" y="-638" font-family="Helvetica,sans-Serif" font-size="10.00"> myCurrentLevel</text>
</g>
<!-- Node7&#45;&gt;Node5 -->
<g id="edge7" class="edge"><title>Node7&#45;&gt;Node5</title>
<path fill="none" stroke="#9a32cd" stroke-dasharray="5,2" d="M740.878,-624.365C788.521,-629.059 856.786,-636.735 916,-647 930.371,-649.491 945.732,-652.693 960.146,-655.94"/>
<polygon fill="#9a32cd" stroke="#9a32cd" points="741.027,-620.863 730.736,-623.38 740.35,-627.83 741.027,-620.863"/>
<text text-anchor="middle" x="858" y="-650" font-family="Helvetica,sans-Serif" font-size="10.00"> myCurrentLevel</text>
</g>
<!-- Node8 -->
<g id="node8" class="node"><title>Node8</title>
<g id="a_node8"><a xlink:href="../../d3/d8d/classdata_1_1_observable.html" target="_top" xlink:title="data.Observable">
<polygon fill="white" stroke="black" points="285.5,-812.5 285.5,-831.5 380.5,-831.5 380.5,-812.5 285.5,-812.5"/>
<text text-anchor="middle" x="333" y="-819.5" font-family="Helvetica,sans-Serif" font-size="10.00">data.Observable</text>
</a>
</g>
</g>
<!-- Node8&#45;&gt;Node7 -->
<g id="edge8" class="edge"><title>Node8&#45;&gt;Node7</title>
<path fill="none" stroke="midnightblue" d="M390.732,-830.234C442.387,-834.238 516.965,-830.655 560,-786 605.981,-738.288 532.691,-686.351 578,-638 591.054,-624.069 610.841,-618.465 629.451,-616.66"/>
<polygon fill="midnightblue" stroke="midnightblue" points="390.994,-826.744 380.723,-829.342 390.373,-833.716 390.994,-826.744"/>
</g>
<!-- Node9 -->
<g id="node9" class="node"><title>Node9</title>
<polygon fill="white" stroke="#bfbfbf" points="23,-812.5 23,-831.5 161,-831.5 161,-812.5 23,-812.5"/>
<text text-anchor="middle" x="92" y="-819.5" font-family="Helvetica,sans-Serif" font-size="10.00">Vector&lt; data.Observer &gt;</text>
</g>
<!-- Node9&#45;&gt;Node8 -->
<g id="edge9" class="edge"><title>Node9&#45;&gt;Node8</title>
<path fill="none" stroke="#9a32cd" stroke-dasharray="5,2" d="M171.605,-822C209.239,-822 253.027,-822 285.333,-822"/>
<polygon fill="#9a32cd" stroke="#9a32cd" points="171.168,-818.5 161.168,-822 171.168,-825.5 171.168,-818.5"/>
<text text-anchor="middle" x="213" y="-825" font-family="Helvetica,sans-Serif" font-size="10.00"> obs</text>
</g>
<!-- Node10 -->
<g id="node10" class="node"><title>Node10</title>
<g id="a_node10"><a xlink:href="../../dc/df6/interfaceengine_1_1game_object_1_1_identifiable.html" target="_top" xlink:title="engine.gameObject.Identifiable">
<polygon fill="white" stroke="black" points="250.5,-529.5 250.5,-548.5 415.5,-548.5 415.5,-529.5 250.5,-529.5"/>
<text text-anchor="middle" x="333" y="-536.5" font-family="Helvetica,sans-Serif" font-size="10.00">engine.gameObject.Identifiable</text>
</a>
</g>
</g>
<!-- Node10&#45;&gt;Node7 -->
<g id="edge10" class="edge"><title>Node10&#45;&gt;Node7</title>
<path fill="none" stroke="midnightblue" d="M385.022,-550.831C453.758,-566.77 574.752,-594.827 637.948,-609.481"/>
<polygon fill="midnightblue" stroke="midnightblue" points="385.805,-547.42 375.272,-548.57 384.223,-554.239 385.805,-547.42"/>
</g>
<!-- Node18 -->
<g id="node18" class="node"><title>Node18</title>
<g id="a_node18"><a xlink:href="../../d0/d7f/classengine_1_1game_object_1_1_game_object.html" target="_top" xlink:title="engine.gameObject.GameObject">
<polygon fill="white" stroke="black" points="1236.5,-256.5 1236.5,-275.5 1409.5,-275.5 1409.5,-256.5 1236.5,-256.5"/>
<text text-anchor="middle" x="1323" y="-263.5" font-family="Helvetica,sans-Serif" font-size="10.00">engine.gameObject.GameObject</text>
</a>
</g>
</g>
<!-- Node10&#45;&gt;Node18 -->
<g id="edge25" class="edge"><title>Node10&#45;&gt;Node18</title>
<path fill="none" stroke="midnightblue" d="M425.828,-547.784C575.885,-558.339 879.962,-563.64 1110,-463 1161.54,-440.453 1175.86,-434.269 1218,-397 1261.94,-358.138 1301.29,-299.042 1315.93,-275.84"/>
<polygon fill="midnightblue" stroke="midnightblue" points="425.959,-544.284 415.732,-547.049 425.451,-551.266 425.959,-544.284"/>
</g>
<!-- Node11 -->
<g id="node11" class="node"><title>Node11</title>
<g id="a_node11"><a xlink:href="../../d4/dac/classengine_1_1game_object_1_1_identifier.html" target="_top" xlink:title="engine.gameObject.Identifier">
<polygon fill="white" stroke="black" points="255.5,-467.5 255.5,-486.5 410.5,-486.5 410.5,-467.5 255.5,-467.5"/>
<text text-anchor="middle" x="333" y="-474.5" font-family="Helvetica,sans-Serif" font-size="10.00">engine.gameObject.Identifier</text>
</a>
</g>
</g>
<!-- Node11&#45;&gt;Node1 -->
<g id="edge21" class="edge"><title>Node11&#45;&gt;Node1</title>
<path fill="none" stroke="#9a32cd" stroke-dasharray="5,2" d="M421.198,-474.967C651.065,-469.609 1271.25,-455.151 1495.59,-449.921"/>
<polygon fill="#9a32cd" stroke="#9a32cd" points="420.795,-471.476 410.879,-475.208 420.958,-478.474 420.795,-471.476"/>
<text text-anchor="middle" x="1022" y="-467" font-family="Helvetica,sans-Serif" font-size="10.00"> objectID</text>
</g>
<!-- Node11&#45;&gt;Node7 -->
<g id="edge11" class="edge"><title>Node11&#45;&gt;Node7</title>
<path fill="none" stroke="#9a32cd" stroke-dasharray="5,2" d="M420.788,-487.023C467.099,-496.431 522.174,-514.665 560,-550 575.741,-564.704 561.69,-580.93 578,-595 592.193,-607.243 611.523,-613.5 629.474,-616.613"/>
<polygon fill="#9a32cd" stroke="#9a32cd" points="421.227,-483.543 410.746,-485.091 419.905,-490.417 421.227,-483.543"/>
<text text-anchor="middle" x="501" y="-553" font-family="Helvetica,sans-Serif" font-size="10.00"> myId</text>
</g>
<!-- Node11&#45;&gt;Node18 -->
<g id="edge26" class="edge"><title>Node11&#45;&gt;Node18</title>
<path fill="none" stroke="#9a32cd" stroke-dasharray="5,2" d="M352.447,-460.683C391.058,-427.657 484.572,-353.448 578,-323 713.527,-278.831 1076.18,-294.294 1218,-280 1230.42,-278.749 1243.63,-277.164 1256.34,-275.515"/>
<polygon fill="#9a32cd" stroke="#9a32cd" points="349.92,-458.241 344.652,-467.433 354.503,-463.533 349.92,-458.241"/>
<text text-anchor="middle" x="858" y="-297" font-family="Helvetica,sans-Serif" font-size="10.00"> myId</text>
</g>
<!-- Node12 -->
<g id="node12" class="node"><title>Node12</title>
<polygon fill="white" stroke="#bfbfbf" points="64,-558.5 64,-577.5 120,-577.5 120,-558.5 64,-558.5"/>
<text text-anchor="middle" x="92" y="-565.5" font-family="Helvetica,sans-Serif" font-size="10.00">Random</text>
</g>
<!-- Node12&#45;&gt;Node2 -->
<g id="edge19" class="edge"><title>Node12&#45;&gt;Node2</title>
<path fill="none" stroke="#9a32cd" stroke-dasharray="5,2" d="M130.542,-568.304C234.297,-569.325 533.691,-573.498 782,-589 928.143,-598.124 964.483,-603.697 1110,-620 1158.1,-625.389 1170.93,-622.713 1218,-634 1240.92,-639.497 1265.83,-648.253 1285.52,-655.868"/>
<polygon fill="#9a32cd" stroke="#9a32cd" points="130.306,-564.801 120.273,-568.207 130.239,-571.801 130.306,-564.801"/>
<text text-anchor="middle" x="680" y="-592" font-family="Helvetica,sans-Serif" font-size="10.00"> r</text>
</g>
<!-- Node12&#45;&gt;Node11 -->
<g id="edge12" class="edge"><title>Node12&#45;&gt;Node11</title>
<path fill="none" stroke="#9a32cd" stroke-dasharray="5,2" d="M127.609,-554.822C176.307,-536.28 263.894,-502.932 306.853,-486.575"/>
<polygon fill="#9a32cd" stroke="#9a32cd" points="126.226,-551.604 118.125,-558.433 128.716,-558.146 126.226,-551.604"/>
<text text-anchor="middle" x="213" y="-529" font-family="Helvetica,sans-Serif" font-size="10.00"> r</text>
</g>
<!-- Node13 -->
<g id="node13" class="node"><title>Node13</title>
<g id="a_node13"><a xlink:href="../../d1/d32/classauthoring_1_1model_1_1collections_1_1_game_objects_collection.html" target="_top" xlink:title="authoring.model.collections.\lGameObjectsCollection">
<polygon fill="white" stroke="black" points="257,-681 257,-711 409,-711 409,-681 257,-681"/>
<text text-anchor="start" x="265" y="-699" font-family="Helvetica,sans-Serif" font-size="10.00">authoring.model.collections.</text>
<text text-anchor="middle" x="333" y="-688" font-family="Helvetica,sans-Serif" font-size="10.00">GameObjectsCollection</text>
</a>
</g>
</g>
<!-- Node13&#45;&gt;Node2 -->
<g id="edge18" class="edge"><title>Node13&#45;&gt;Node2</title>
<path fill="none" stroke="#9a32cd" stroke-dasharray="5,2" d="M419.177,-708.628C465.942,-714.93 525.036,-721.864 578,-725 818.622,-739.249 1102.64,-704.234 1239.75,-684.058"/>
<polygon fill="#9a32cd" stroke="#9a32cd" points="419.47,-705.136 409.089,-707.253 418.525,-712.072 419.47,-705.136"/>
<text text-anchor="middle" x="858" y="-730" font-family="Helvetica,sans-Serif" font-size="10.00"> myMasterList</text>
</g>
<!-- Node13&#45;&gt;Node7 -->
<g id="edge13" class="edge"><title>Node13&#45;&gt;Node7</title>
<path fill="none" stroke="#9a32cd" stroke-dasharray="5,2" d="M403.785,-678.482C452.473,-666.489 519.032,-650.548 578,-638 594.666,-634.454 612.953,-630.909 629.333,-627.859"/>
<polygon fill="#9a32cd" stroke="#9a32cd" points="402.854,-675.107 393.985,-680.903 404.532,-681.903 402.854,-675.107"/>
<text text-anchor="middle" x="501" y="-683" font-family="Helvetica,sans-Serif" font-size="10.00"> myDefaultGameObjects</text>
<text text-anchor="middle" x="501" y="-672" font-family="Helvetica,sans-Serif" font-size="10.00">myWorkingGameObjects</text>
</g>
<!-- Node14 -->
<g id="node14" class="node"><title>Node14</title>
<g id="a_node14"><a xlink:href="../../d4/d3b/classauthoring_1_1model_1_1collections_1_1_general_collection.html" target="_top" xlink:title="authoring.model.collections.\lGeneralCollection\&lt; GameObject \&gt;">
<polygon fill="white" stroke="black" points="0.5,-681 0.5,-711 183.5,-711 183.5,-681 0.5,-681"/>
<text text-anchor="start" x="8.5" y="-699" font-family="Helvetica,sans-Serif" font-size="10.00">authoring.model.collections.</text>
<text text-anchor="middle" x="92" y="-688" font-family="Helvetica,sans-Serif" font-size="10.00">GeneralCollection&lt; GameObject &gt;</text>
</a>
</g>
</g>
<!-- Node14&#45;&gt;Node13 -->
<g id="edge14" class="edge"><title>Node14&#45;&gt;Node13</title>
<path fill="none" stroke="midnightblue" d="M193.979,-696C215.077,-696 236.965,-696 256.925,-696"/>
<polygon fill="midnightblue" stroke="midnightblue" points="193.696,-692.5 183.696,-696 193.696,-699.5 193.696,-692.5"/>
</g>
<!-- Node15 -->
<g id="node15" class="node"><title>Node15</title>
<polygon fill="white" stroke="#bfbfbf" points="262.5,-763 262.5,-793 403.5,-793 403.5,-763 262.5,-763"/>
<text text-anchor="start" x="270.5" y="-781" font-family="Helvetica,sans-Serif" font-size="10.00">List&lt; engine.gameObject.</text>
<text text-anchor="middle" x="333" y="-770" font-family="Helvetica,sans-Serif" font-size="10.00">Identifier &gt;</text>
</g>
<!-- Node15&#45;&gt;Node7 -->
<g id="edge15" class="edge"><title>Node15&#45;&gt;Node7</title>
<path fill="none" stroke="#9a32cd" stroke-dasharray="5,2" d="M413.449,-766.85C461.824,-756.136 521.516,-735.3 560,-695 578.348,-675.787 558.123,-655.626 578,-638 591.951,-625.63 611.341,-620.193 629.406,-618.09"/>
<polygon fill="#9a32cd" stroke="#9a32cd" points="412.685,-763.435 403.623,-768.924 414.13,-770.284 412.685,-763.435"/>
<text text-anchor="middle" x="501" y="-774" font-family="Helvetica,sans-Serif" font-size="10.00"> myConditionIdList</text>
<text text-anchor="middle" x="501" y="-763" font-family="Helvetica,sans-Serif" font-size="10.00">myGameObjectIdList</text>
</g>
<!-- Node16 -->
<g id="node16" class="node"><title>Node16</title>
<polygon fill="white" stroke="#bfbfbf" points="657,-484.5 657,-503.5 703,-503.5 703,-484.5 657,-484.5"/>
<text text-anchor="middle" x="680" y="-491.5" font-family="Helvetica,sans-Serif" font-size="10.00">Group</text>
</g>
<!-- Node16&#45;&gt;Node5 -->
<g id="edge16" class="edge"><title>Node16&#45;&gt;Node5</title>
<path fill="none" stroke="#9a32cd" stroke-dasharray="5,2" d="M712.65,-504.959C760.58,-522.685 852.689,-561.272 916,-616 926.358,-624.954 923.013,-632.83 934,-641 942.205,-647.102 951.745,-652.028 961.44,-655.984"/>
<polygon fill="#9a32cd" stroke="#9a32cd" points="713.713,-501.621 703.119,-501.495 711.321,-508.2 713.713,-501.621"/>
<text text-anchor="middle" x="858" y="-619" font-family="Helvetica,sans-Serif" font-size="10.00"> myCanvas</text>
</g>
<!-- Node24 -->
<g id="node24" class="node"><title>Node24</title>
<g id="a_node24"><a xlink:href="../../d2/d82/classengine_1_1render_1_1_rendered_node.html" target="_top" xlink:title="engine.render.RenderedNode">
<polygon fill="white" stroke="black" points="944,-343.5 944,-362.5 1100,-362.5 1100,-343.5 944,-343.5"/>
<text text-anchor="middle" x="1022" y="-350.5" font-family="Helvetica,sans-Serif" font-size="10.00">engine.render.RenderedNode</text>
</a>
</g>
</g>
<!-- Node16&#45;&gt;Node24 -->
<g id="edge31" class="edge"><title>Node16&#45;&gt;Node24</title>
<path fill="none" stroke="midnightblue" d="M713.389,-494.289C763.557,-492.945 860.084,-482.937 916,-429 935.121,-410.556 914.381,-389.913 934,-372 938.11,-368.247 942.785,-365.174 947.784,-362.664"/>
<polygon fill="midnightblue" stroke="midnightblue" points="713.07,-490.794 703.129,-494.459 713.186,-497.793 713.07,-490.794"/>
</g>
<!-- Node17 -->
<g id="node17" class="node"><title>Node17</title>
<g id="a_node17"><a xlink:href="../../d9/db5/classengine_1_1_file_path_utility.html" target="_top" xlink:title="engine.FilePathUtility">
<polygon fill="white" stroke="black" points="622.5,-647.5 622.5,-666.5 737.5,-666.5 737.5,-647.5 622.5,-647.5"/>
<text text-anchor="middle" x="680" y="-654.5" font-family="Helvetica,sans-Serif" font-size="10.00">engine.FilePathUtility</text>
</a>
</g>
</g>
<!-- Node17&#45;&gt;Node5 -->
<g id="edge17" class="edge"><title>Node17&#45;&gt;Node5</title>
<path fill="none" stroke="#9a32cd" stroke-dasharray="5,2" d="M747.677,-659.746C805.646,-662.132 889.438,-665.583 948.938,-668.033"/>
<polygon fill="#9a32cd" stroke="#9a32cd" points="747.661,-656.242 737.526,-659.328 747.373,-663.236 747.661,-656.242"/>
<text text-anchor="middle" x="858" y="-670" font-family="Helvetica,sans-Serif" font-size="10.00"> myFilePathUtility</text>
</g>
<!-- Node18&#45;&gt;Node1 -->
<g id="edge22" class="edge"><title>Node18&#45;&gt;Node1</title>
<path fill="none" stroke="#9a32cd" stroke-dasharray="5,2" d="M1345.45,-281.373C1393.53,-315.822 1509.4,-398.847 1557.02,-432.97"/>
<polygon fill="#9a32cd" stroke="#9a32cd" points="1347.47,-278.508 1337.3,-275.529 1343.39,-284.198 1347.47,-278.508"/>
<text text-anchor="middle" x="1453" y="-377" font-family="Helvetica,sans-Serif" font-size="10.00"> myObject</text>
</g>
<!-- Node19 -->
<g id="node19" class="node"><title>Node19</title>
<g id="a_node19"><a xlink:href="../../d7/de6/interfaceengine_1_1game_object_1_1_i_enabled.html" target="_top" xlink:title="engine.gameObject.IEnabled">
<polygon fill="white" stroke="black" points="945,-256.5 945,-275.5 1099,-275.5 1099,-256.5 945,-256.5"/>
<text text-anchor="middle" x="1022" y="-263.5" font-family="Helvetica,sans-Serif" font-size="10.00">engine.gameObject.IEnabled</text>
</a>
</g>
</g>
<!-- Node19&#45;&gt;Node18 -->
<g id="edge23" class="edge"><title>Node19&#45;&gt;Node18</title>
<path fill="none" stroke="midnightblue" d="M1109.47,-266C1149.38,-266 1196.62,-266 1236.42,-266"/>
<polygon fill="midnightblue" stroke="midnightblue" points="1109.22,-262.5 1099.22,-266 1109.22,-269.5 1109.22,-262.5"/>
</g>
<!-- Node20 -->
<g id="node20" class="node"><title>Node20</title>
<polygon fill="white" stroke="#bfbfbf" points="956.5,-218.5 956.5,-237.5 1087.5,-237.5 1087.5,-218.5 956.5,-218.5"/>
<text text-anchor="middle" x="1022" y="-225.5" font-family="Helvetica,sans-Serif" font-size="10.00">Iterable&lt; Component &gt;</text>
</g>
<!-- Node20&#45;&gt;Node18 -->
<g id="edge24" class="edge"><title>Node20&#45;&gt;Node18</title>
<path fill="none" stroke="midnightblue" d="M1097.63,-237.485C1143.24,-243.282 1201.39,-250.671 1247.05,-256.475"/>
<polygon fill="midnightblue" stroke="midnightblue" points="1097.87,-233.987 1087.51,-236.199 1096.99,-240.932 1097.87,-233.987"/>
</g>
<!-- Node21 -->
<g id="node21" class="node"><title>Node21</title>
<g id="a_node21"><a xlink:href="../../da/d35/classengine_1_1scrolling_1_1_scrolling_utility.html" target="_top" xlink:title="engine.scrolling.Scrolling\lUtility">
<polygon fill="white" stroke="black" points="955,-103 955,-133 1089,-133 1089,-103 955,-103"/>
<text text-anchor="start" x="963" y="-121" font-family="Helvetica,sans-Serif" font-size="10.00">engine.scrolling.Scrolling</text>
<text text-anchor="middle" x="1022" y="-110" font-family="Helvetica,sans-Serif" font-size="10.00">Utility</text>
</a>
</g>
</g>
<!-- Node21&#45;&gt;Node18 -->
<g id="edge27" class="edge"><title>Node21&#45;&gt;Node18</title>
<path fill="none" stroke="#9a32cd" stroke-dasharray="5,2" d="M1084.03,-136.189C1123.41,-149.042 1175.11,-168.038 1218,-191 1254.31,-210.436 1292.45,-240.948 1310.82,-256.378"/>
<polygon fill="#9a32cd" stroke="#9a32cd" points="1084.89,-132.788 1074.3,-133.055 1082.74,-139.452 1084.89,-132.788"/>
<text text-anchor="middle" x="1173" y="-194" font-family="Helvetica,sans-Serif" font-size="10.00"> myScrollingUtility</text>
</g>
<!-- Node22 -->
<g id="node22" class="node"><title>Node22</title>
<polygon fill="white" stroke="#bfbfbf" points="652.5,-79.5 652.5,-98.5 707.5,-98.5 707.5,-79.5 652.5,-79.5"/>
<text text-anchor="middle" x="680" y="-86.5" font-family="Helvetica,sans-Serif" font-size="10.00">Camera</text>
</g>
<!-- Node22&#45;&gt;Node21 -->
<g id="edge28" class="edge"><title>Node22&#45;&gt;Node21</title>
<path fill="none" stroke="#9a32cd" stroke-dasharray="5,2" d="M717.756,-86.2641C764.178,-83.4708 846.402,-80.7289 916,-90 935.636,-92.6157 956.828,-97.7961 974.997,-102.997"/>
<polygon fill="#9a32cd" stroke="#9a32cd" points="717.34,-82.7834 707.583,-86.9121 717.785,-89.7692 717.34,-82.7834"/>
<text text-anchor="middle" x="858" y="-93" font-family="Helvetica,sans-Serif" font-size="10.00"> myCamera</text>
</g>
<!-- Node23 -->
<g id="node23" class="node"><title>Node23</title>
<polygon fill="white" stroke="#bfbfbf" points="578,-13 578,-43 782,-43 782,-13 578,-13"/>
<text text-anchor="start" x="586" y="-31" font-family="Helvetica,sans-Serif" font-size="10.00">List&lt; engine.gameObject.components.</text>
<text text-anchor="middle" x="680" y="-20" font-family="Helvetica,sans-Serif" font-size="10.00">Component &gt;</text>
</g>
<!-- Node23&#45;&gt;Node18 -->
<g id="edge29" class="edge"><title>Node23&#45;&gt;Node18</title>
<path fill="none" stroke="#9a32cd" stroke-dasharray="5,2" d="M792.683,-36.6164C899.799,-45.8585 1053.36,-61.9486 1110,-82 1208.77,-116.966 1291.17,-222.982 1315.03,-256.044"/>
<polygon fill="#9a32cd" stroke="#9a32cd" points="792.728,-33.1076 782.467,-35.7435 792.132,-40.0822 792.728,-33.1076"/>
<text text-anchor="middle" x="1022" y="-85" font-family="Helvetica,sans-Serif" font-size="10.00"> myComponents</text>
</g>
<!-- Node35 -->
<g id="node35" class="node"><title>Node35</title>
<g id="a_node35"><a xlink:href="../../d6/d66/classengine_1_1game_object_1_1_default_data.html" target="_top" xlink:title="engine.gameObject.DefaultData">
<polygon fill="white" stroke="black" points="936.5,-0.5 936.5,-19.5 1107.5,-19.5 1107.5,-0.5 936.5,-0.5"/>
<text text-anchor="middle" x="1022" y="-7.5" font-family="Helvetica,sans-Serif" font-size="10.00">engine.gameObject.DefaultData</text>
</a>
</g>
</g>
<!-- Node23&#45;&gt;Node35 -->
<g id="edge43" class="edge"><title>Node23&#45;&gt;Node35</title>
<path fill="none" stroke="#9a32cd" stroke-dasharray="5,2" d="M792.29,-22.1082C839.15,-19.6273 892.796,-16.7873 936.349,-14.4815"/>
<polygon fill="#9a32cd" stroke="#9a32cd" points="791.892,-18.6243 782.091,-22.6481 792.262,-25.6145 791.892,-18.6243"/>
<text text-anchor="middle" x="858" y="-25" font-family="Helvetica,sans-Serif" font-size="10.00"> myComponents</text>
</g>
<!-- Node24&#45;&gt;Node18 -->
<g id="edge30" class="edge"><title>Node24&#45;&gt;Node18</title>
<path fill="none" stroke="#9a32cd" stroke-dasharray="5,2" d="M1110.16,-342.803C1144.33,-337.402 1183.54,-329.445 1218,-318 1250.95,-307.057 1286.57,-287.345 1306.4,-275.587"/>
<polygon fill="#9a32cd" stroke="#9a32cd" points="1109.55,-339.355 1100.2,-344.328 1110.61,-346.274 1109.55,-339.355"/>
<text text-anchor="middle" x="1173" y="-343" font-family="Helvetica,sans-Serif" font-size="10.00"> myRenderedNode</text>
</g>
<!-- Node25 -->
<g id="node25" class="node"><title>Node25</title>
<polygon fill="white" stroke="#bfbfbf" points="659,-408.5 659,-427.5 701,-427.5 701,-408.5 659,-408.5"/>
<text text-anchor="middle" x="680" y="-415.5" font-family="Helvetica,sans-Serif" font-size="10.00">Label</text>
</g>
<!-- Node25&#45;&gt;Node24 -->
<g id="edge32" class="edge"><title>Node25&#45;&gt;Node24</title>
<path fill="none" stroke="#9a32cd" stroke-dasharray="5,2" d="M711.304,-418.808C757.372,-418.969 846.956,-415.044 916,-386 925.342,-382.07 924.822,-376.299 934,-372 942.26,-368.131 951.334,-365.036 960.408,-362.564"/>
<polygon fill="#9a32cd" stroke="#9a32cd" points="711.133,-415.307 701.097,-418.702 711.06,-422.306 711.133,-415.307"/>
<text text-anchor="middle" x="858" y="-417" font-family="Helvetica,sans-Serif" font-size="10.00"> myLabel</text>
</g>
<!-- Node26 -->
<g id="node26" class="node"><title>Node26</title>
<polygon fill="white" stroke="#bfbfbf" points="646,-370.5 646,-389.5 714,-389.5 714,-370.5 646,-370.5"/>
<text text-anchor="middle" x="680" y="-377.5" font-family="Helvetica,sans-Serif" font-size="10.00">ImageView</text>
</g>
<!-- Node26&#45;&gt;Node24 -->
<g id="edge33" class="edge"><title>Node26&#45;&gt;Node24</title>
<path fill="none" stroke="#9a32cd" stroke-dasharray="5,2" d="M724.36,-376.557C779.556,-372.173 875.88,-364.524 943.762,-359.134"/>
<polygon fill="#9a32cd" stroke="#9a32cd" points="723.911,-373.081 714.22,-377.362 724.465,-380.059 723.911,-373.081"/>
<text text-anchor="middle" x="858" y="-374" font-family="Helvetica,sans-Serif" font-size="10.00"> myImageView</text>
</g>
<!-- Node27 -->
<g id="node27" class="node"><title>Node27</title>
<polygon fill="white" stroke="#bfbfbf" points="659,-332.5 659,-351.5 701,-351.5 701,-332.5 659,-332.5"/>
<text text-anchor="middle" x="680" y="-339.5" font-family="Helvetica,sans-Serif" font-size="10.00">Node</text>
</g>
<!-- Node27&#45;&gt;Node24 -->
<g id="edge34" class="edge"><title>Node27&#45;&gt;Node24</title>
<path fill="none" stroke="#9a32cd" stroke-dasharray="5,2" d="M711.321,-342.298C756.099,-342.818 842.543,-344.121 916,-347 925.031,-347.354 934.496,-347.795 943.888,-348.277"/>
<polygon fill="#9a32cd" stroke="#9a32cd" points="711.164,-338.797 701.126,-342.185 711.086,-345.796 711.164,-338.797"/>
<text text-anchor="middle" x="858" y="-350" font-family="Helvetica,sans-Serif" font-size="10.00"> myCollisionBody</text>
</g>
<!-- Node28 -->
<g id="node28" class="node"><title>Node28</title>
<polygon fill="white" stroke="#bfbfbf" points="1006,-381.5 1006,-400.5 1038,-400.5 1038,-381.5 1006,-381.5"/>
<text text-anchor="middle" x="1022" y="-388.5" font-family="Helvetica,sans-Serif" font-size="10.00">File</text>
</g>
<!-- Node28&#45;&gt;Node18 -->
<g id="edge35" class="edge"><title>Node28&#45;&gt;Node18</title>
<path fill="none" stroke="#9a32cd" stroke-dasharray="5,2" d="M1048.56,-390.467C1087.1,-388.763 1161.58,-381.919 1218,-355 1259.61,-335.146 1297.88,-294.273 1313.98,-275.639"/>
<polygon fill="#9a32cd" stroke="#9a32cd" points="1048.11,-386.98 1038.24,-390.835 1048.36,-393.976 1048.11,-386.98"/>
<text text-anchor="middle" x="1173" y="-385" font-family="Helvetica,sans-Serif" font-size="10.00"> gameLocationFile</text>
</g>
<!-- Node29 -->
<g id="node29" class="node"><title>Node29</title>
<g id="a_node29"><a xlink:href="../../d9/d9d/classengine_1_1game_object_1_1components_1_1_physics_body.html" target="_top" xlink:title="engine.gameObject.components.\lPhysicsBody">
<polygon fill="white" stroke="black" points="934,-169 934,-199 1110,-199 1110,-169 934,-169"/>
<text text-anchor="start" x="942" y="-187" font-family="Helvetica,sans-Serif" font-size="10.00">engine.gameObject.components.</text>
<text text-anchor="middle" x="1022" y="-176" font-family="Helvetica,sans-Serif" font-size="10.00">PhysicsBody</text>
</a>
</g>
</g>
<!-- Node29&#45;&gt;Node18 -->
<g id="edge36" class="edge"><title>Node29&#45;&gt;Node18</title>
<path fill="none" stroke="#9a32cd" stroke-dasharray="5,2" d="M1113.48,-201.164C1146.62,-208.181 1184.26,-217.009 1218,-227 1246.47,-235.432 1278.33,-247.833 1299.19,-256.376"/>
<polygon fill="#9a32cd" stroke="#9a32cd" points="1113.85,-197.666 1103.35,-199.045 1112.42,-204.518 1113.85,-197.666"/>
<text text-anchor="middle" x="1173" y="-230" font-family="Helvetica,sans-Serif" font-size="10.00"> myPhysicsBody</text>
</g>
<!-- Node30 -->
<g id="node30" class="node"><title>Node30</title>
<polygon fill="white" stroke="#bfbfbf" points="602,-245 602,-275 758,-275 758,-245 602,-245"/>
<text text-anchor="start" x="610" y="-263" font-family="Helvetica,sans-Serif" font-size="10.00">Map&lt; String, engine.physics.</text>
<text text-anchor="middle" x="680" y="-252" font-family="Helvetica,sans-Serif" font-size="10.00">Scalar &gt;</text>
</g>
<!-- Node30&#45;&gt;Node29 -->
<g id="edge37" class="edge"><title>Node30&#45;&gt;Node29</title>
<path fill="none" stroke="#9a32cd" stroke-dasharray="5,2" d="M768.023,-249.111C812.844,-242.244 868.013,-231.823 916,-217 924.365,-214.416 925.773,-211.994 934,-209 943.747,-205.453 954.251,-202.073 964.473,-199.01"/>
<polygon fill="#9a32cd" stroke="#9a32cd" points="767.409,-245.664 758.039,-250.608 768.448,-252.586 767.409,-245.664"/>
<text text-anchor="middle" x="858" y="-247" font-family="Helvetica,sans-Serif" font-size="10.00"> myConstants</text>
</g>
<!-- Node31 -->
<g id="node31" class="node"><title>Node31</title>
<polygon fill="white" stroke="#bfbfbf" points="602,-196 602,-226 758,-226 758,-196 602,-196"/>
<text text-anchor="start" x="610" y="-214" font-family="Helvetica,sans-Serif" font-size="10.00">Map&lt; String, engine.physics.</text>
<text text-anchor="middle" x="680" y="-203" font-family="Helvetica,sans-Serif" font-size="10.00">Force &gt;</text>
</g>
<!-- Node31&#45;&gt;Node29 -->
<g id="edge38" class="edge"><title>Node31&#45;&gt;Node29</title>
<path fill="none" stroke="#9a32cd" stroke-dasharray="5,2" d="M768.15,-204.079C819.059,-200.036 883.089,-194.952 933.976,-190.911"/>
<polygon fill="#9a32cd" stroke="#9a32cd" points="767.843,-200.593 758.151,-204.873 768.397,-207.571 767.843,-200.593"/>
<text text-anchor="middle" x="858" y="-205" font-family="Helvetica,sans-Serif" font-size="10.00"> myActiveForces</text>
</g>
<!-- Node32 -->
<g id="node32" class="node"><title>Node32</title>
<polygon fill="white" stroke="#bfbfbf" points="596.5,-157.5 596.5,-176.5 763.5,-176.5 763.5,-157.5 596.5,-157.5"/>
<text text-anchor="middle" x="680" y="-164.5" font-family="Helvetica,sans-Serif" font-size="10.00">List&lt; engine.physics.Impulse &gt;</text>
</g>
<!-- Node32&#45;&gt;Node29 -->
<g id="edge39" class="edge"><title>Node32&#45;&gt;Node29</title>
<path fill="none" stroke="#9a32cd" stroke-dasharray="5,2" d="M773.872,-171.644C823.709,-174.135 884.77,-177.188 933.726,-179.636"/>
<polygon fill="#9a32cd" stroke="#9a32cd" points="773.901,-168.141 763.739,-171.137 773.551,-175.132 773.901,-168.141"/>
<text text-anchor="middle" x="858" y="-182" font-family="Helvetica,sans-Serif" font-size="10.00"> myImpulses</text>
</g>
<!-- Node33 -->
<g id="node33" class="node"><title>Node33</title>
<g id="a_node33"><a xlink:href="../../d5/d1f/classengine_1_1physics_1_1_vector.html" target="_top" xlink:title="engine.physics.Vector">
<polygon fill="white" stroke="black" points="619.5,-117.5 619.5,-136.5 740.5,-136.5 740.5,-117.5 619.5,-117.5"/>
<text text-anchor="middle" x="680" y="-124.5" font-family="Helvetica,sans-Serif" font-size="10.00">engine.physics.Vector</text>
</a>
</g>
</g>
<!-- Node33&#45;&gt;Node29 -->
<g id="edge40" class="edge"><title>Node33&#45;&gt;Node29</title>
<path fill="none" stroke="#9a32cd" stroke-dasharray="5,2" d="M750.903,-122.634C798.152,-121.39 861.603,-123.061 916,-136 931.015,-139.572 965.962,-156.216 991.427,-168.913"/>
<polygon fill="#9a32cd" stroke="#9a32cd" points="750.66,-119.14 740.774,-122.952 750.879,-126.136 750.66,-119.14"/>
<text text-anchor="middle" x="858" y="-161" font-family="Helvetica,sans-Serif" font-size="10.00"> myBalancedForcesMag</text>
<text text-anchor="middle" x="858" y="-150" font-family="Helvetica,sans-Serif" font-size="10.00">myVelocity</text>
<text text-anchor="middle" x="858" y="-139" font-family="Helvetica,sans-Serif" font-size="10.00">myAcceleration</text>
</g>
<!-- Node34 -->
<g id="node34" class="node"><title>Node34</title>
<g id="a_node34"><a xlink:href="../../dc/db5/classengine_1_1physics_1_1_physics_component.html" target="_top" xlink:title="engine.physics.PhysicsComponent">
<polygon fill="white" stroke="black" points="242,-117.5 242,-136.5 424,-136.5 424,-117.5 242,-117.5"/>
<text text-anchor="middle" x="333" y="-124.5" font-family="Helvetica,sans-Serif" font-size="10.00">engine.physics.PhysicsComponent</text>
</a>
</g>
</g>
<!-- Node34&#45;&gt;Node33 -->
<g id="edge41" class="edge"><title>Node34&#45;&gt;Node33</title>
<path fill="none" stroke="midnightblue" d="M434.456,-127C494.444,-127 568.603,-127 619.429,-127"/>
<polygon fill="midnightblue" stroke="midnightblue" points="434.194,-123.5 424.194,-127 434.194,-130.5 434.194,-123.5"/>
</g>
<!-- Node35&#45;&gt;Node18 -->
<g id="edge42" class="edge"><title>Node35&#45;&gt;Node18</title>
<path fill="none" stroke="#9a32cd" stroke-dasharray="5,2" d="M1118.05,-1.36111C1152.36,-2.83495 1189.59,-10.2568 1218,-31 1296.91,-88.6204 1316.92,-219.635 1321.06,-256.303"/>
<polygon fill="#9a32cd" stroke="#9a32cd" points="1118.07,2.13935 1107.98,-1.09143 1117.89,-4.85813 1118.07,2.13935"/>
<text text-anchor="middle" x="1173" y="-34" font-family="Helvetica,sans-Serif" font-size="10.00"> myDefaultData</text>
</g>
</g>
</svg>
        <g id="navigator" transform="translate(0 0)" fill="#404254">
                <rect fill="#f2f5e9" fill-opacity="0.5" stroke="#606060" stroke-width=".5" x="0" y="0" width="60" height="60"/>
                <use id="zoomplus" xlink:href="#zoomPlus" x="17" y="9" onmousedown="handleZoom(evt,'in')"/>
                <use id="zoomminus" xlink:href="#zoomMin" x="42" y="9" onmousedown="handleZoom(evt,'out')"/>
                <use id="reset" xlink:href="#resetDef" x="30" y="36" onmousedown="handleReset()"/>
                <g id="arrowUp" xlink:href="#dirArrow" transform="translate(30 24)" onmousedown="handlePan(0,-1)">
                  <use xlink:href="#rim" fill="#404040">
                        <set attributeName="fill" to="#808080" begin="arrowUp.mouseover" end="arrowUp.mouseout"/>
                  </use>
                  <path fill="none" stroke="white" stroke-width="1.5" d="M0,-3.0v7 M-2.5,-0.5L0,-3.0L2.5,-0.5"/>
                </g>
                <g id="arrowRight" xlink:href="#dirArrow" transform="rotate(90) translate(36 -43)" onmousedown="handlePan(1,0)">
                  <use xlink:href="#rim" fill="#404040">
                        <set attributeName="fill" to="#808080" begin="arrowRight.mouseover" end="arrowRight.mouseout"/>
                  </use>
                  <path fill="none" stroke="white" stroke-width="1.5" d="M0,-3.0v7 M-2.5,-0.5L0,-3.0L2.5,-0.5"/>
                </g>
                <g id="arrowDown" xlink:href="#dirArrow" transform="rotate(180) translate(-30 -48)" onmousedown="handlePan(0,1)">
                  <use xlink:href="#rim" fill="#404040">
                        <set attributeName="fill" to="#808080" begin="arrowDown.mouseover" end="arrowDown.mouseout"/>
                  </use>
                  <path fill="none" stroke="white" stroke-width="1.5" d="M0,-3.0v7 M-2.5,-0.5L0,-3.0L2.5,-0.5"/>
                </g>
                <g id="arrowLeft" xlink:href="#dirArrow" transform="rotate(270) translate(-36 17)" onmousedown="handlePan(-1,0)">
                  <use xlink:href="#rim" fill="#404040">
                        <set attributeName="fill" to="#808080" begin="arrowLeft.mouseover" end="arrowLeft.mouseout"/>
                  </use>
                  <path fill="none" stroke="white" stroke-width="1.5" d="M0,-3.0v7 M-2.5,-0.5L0,-3.0L2.5,-0.5"/>
                </g>
        </g>
        <svg viewBox="0 0 15 15" width="100%" height="30px" preserveAspectRatio="xMaxYMin meet">
         <g id="arrow_out" transform="scale(0.3 0.3)">
          <a xlink:href="classengine_1_1actions_1_1_make_new_object_from_object_action__coll__graph_org.svg" target="_base">
           <rect id="button" ry="5" rx="5" y="6" x="6" height="38" width="38"
                fill="#f2f5e9" fill-opacity="0.5" stroke="#606060" stroke-width="1.0"/>
           <path id="arrow"
             d="M 11.500037,31.436501 C 11.940474,20.09759 22.043105,11.32322 32.158766,21.979434 L 37.068811,17.246167 C 37.068811,17.246167 37.088388,32 37.088388,32 L 22.160133,31.978069 C 22.160133,31.978069 26.997745,27.140456 26.997745,27.140456 C 18.528582,18.264221 13.291696,25.230495 11.500037,31.436501 z"
             style="fill:#404040;"/>
          </a>
         </g>
        </svg>
</svg>
