<?xml version="1.0" encoding="UTF-8" standalone="no"?>
<!DOCTYPE svg PUBLIC "-//W3C//DTD SVG 1.1//EN"
 "http://www.w3.org/Graphics/SVG/1.1/DTD/svg11.dtd">
<!-- Generated by graphviz version 2.36.0 (20140111.2315)
 -->
<!-- Title: engine.actions.MakeNewObjectFromObjectAction Pages: 1 -->
<!--zoomable 809 -->
<svg id="main" version="1.1" xmlns="http://www.w3.org/2000/svg" xmlns:xlink="http://www.w3.org/1999/xlink" xml:space="preserve" onload="init(evt)">
<style type="text/css"><![CDATA[
.edge:hover path { stroke: red; }
.edge:hover polygon { stroke: red; fill: red; }
]]></style>
<script type="text/javascript"><![CDATA[
var edges = document.getElementsByTagName('g');
if (edges && edges.length) {
  for (var i=0;i<edges.length;i++) {
    if (edges[i].id.substr(0,4)=='edge') {
      edges[i].setAttribute('class','edge');
    }
  }
}
]]></script>
        <defs>
                <circle id="rim" cx="0" cy="0" r="7"/>
                <circle id="rim2" cx="0" cy="0" r="3.5"/>
                <g id="zoomPlus">
                        <use xlink:href="#rim" fill="#404040">
                                <set attributeName="fill" to="#808080" begin="zoomplus.mouseover" end="zoomplus.mouseout"/>
                        </use>
                        <path d="M-4,0h8M0,-4v8" fill="none" stroke="white" stroke-width="1.5" pointer-events="none"/>
                </g>
                <g id="zoomMin">
                        <use xlink:href="#rim" fill="#404040">
                                <set attributeName="fill" to="#808080" begin="zoomminus.mouseover" end="zoomminus.mouseout"/>
                        </use>
                        <path d="M-4,0h8" fill="none" stroke="white" stroke-width="1.5" pointer-events="none"/>
                </g>
                <g id="dirArrow">
                        <path fill="none" stroke="white" stroke-width="1.5" d="M0,-3.0v7 M-2.5,-0.5L0,-3.0L2.5,-0.5"/>
                </g>
               <g id="resetDef">
                       <use xlink:href="#rim2" fill="#404040">
                               <set attributeName="fill" to="#808080" begin="reset.mouseover" end="reset.mouseout"/>
                       </use>
               </g>
        </defs>

<script type="text/javascript">
var viewWidth = 1670;
var viewHeight = 809;
var sectionId = 'dynsection-1';
</script>
<script xlink:href="../../svgpan.js"/>
<svg id="graph" class="graph">
<g id="viewport">
<title>engine.actions.MakeNewObjectFromObjectAction</title>
<polygon fill="white" stroke="none" points="-4,4 -4,-805 1666,-805 1666,4 -4,4"/>
<!-- Node1 -->
<g id="node1" class="node"><title>Node1</title>
<polygon fill="#bfbfbf" stroke="black" points="1496,-629 1496,-659 1662,-659 1662,-629 1496,-629"/>
<text text-anchor="start" x="1504" y="-647" font-family="Helvetica,sans-Serif" font-size="10.00">engine.actions.MakeNewObject</text>
<text text-anchor="middle" x="1579" y="-636" font-family="Helvetica,sans-Serif" font-size="10.00">FromObjectAction</text>
</g>
<!-- Node2 -->
<g id="node2" class="node"><title>Node2</title>
<g id="a_node2"><a xlink:href="../../d2/dc5/classengine_1_1actions_1_1_make_new_object_action.html" target="_top" xlink:title="engine.actions.MakeNewObject\lAction">
<polygon fill="white" stroke="black" points="1240,-629 1240,-659 1406,-659 1406,-629 1240,-629"/>
<text text-anchor="start" x="1248" y="-647" font-family="Helvetica,sans-Serif" font-size="10.00">engine.actions.MakeNewObject</text>
<text text-anchor="middle" x="1323" y="-636" font-family="Helvetica,sans-Serif" font-size="10.00">Action</text>
</a>
</g>
</g>
<!-- Node2&#45;&gt;Node1 -->
<g id="edge1" class="edge"><title>Node2&#45;&gt;Node1</title>
<path fill="none" stroke="midnightblue" d="M1416.34,-644C1442.31,-644 1470.39,-644 1495.73,-644"/>
<polygon fill="midnightblue" stroke="midnightblue" points="1416.12,-640.5 1406.12,-644 1416.12,-647.5 1416.12,-640.5"/>
</g>
<!-- Node3 -->
<g id="node3" class="node"><title>Node3</title>
<g id="a_node3"><a xlink:href="../../d9/dd2/interfaceengine_1_1actions_1_1_action.html" target="_top" xlink:title="engine.actions.Action">
<polygon fill="white" stroke="black" points="962.5,-696.5 962.5,-715.5 1081.5,-715.5 1081.5,-696.5 962.5,-696.5"/>
<text text-anchor="middle" x="1022" y="-703.5" font-family="Helvetica,sans-Serif" font-size="10.00">engine.actions.Action</text>
</a>
</g>
</g>
<!-- Node3&#45;&gt;Node2 -->
<g id="edge2" class="edge"><title>Node3&#45;&gt;Node2</title>
<path fill="none" stroke="midnightblue" d="M1091.99,-701.365C1129.61,-697.876 1176.78,-691.93 1218,-682 1241.55,-676.328 1267.11,-667.034 1287,-659.057"/>
<polygon fill="midnightblue" stroke="midnightblue" points="1091.29,-697.912 1081.64,-702.285 1091.91,-704.885 1091.29,-697.912"/>
</g>
<!-- Node4 -->
<g id="node4" class="node"><title>Node4</title>
<g id="a_node4"><a xlink:href="../../d2/d15/interfaceengine_1_1actions_1_1_initializable.html" target="_top" xlink:title="engine.actions.Initializable">
<polygon fill="white" stroke="black" points="609,-686.5 609,-705.5 751,-705.5 751,-686.5 609,-686.5"/>
<text text-anchor="middle" x="680" y="-693.5" font-family="Helvetica,sans-Serif" font-size="10.00">engine.actions.Initializable</text>
</a>
</g>
</g>
<!-- Node4&#45;&gt;Node2 -->
<g id="edge4" class="edge"><title>Node4&#45;&gt;Node2</title>
<path fill="none" stroke="midnightblue" d="M761.188,-689.495C883.663,-679.559 1116.1,-660.703 1239.78,-650.67"/>
<polygon fill="midnightblue" stroke="midnightblue" points="760.809,-686.014 751.125,-690.311 761.375,-692.991 760.809,-686.014"/>
</g>
<!-- Node4&#45;&gt;Node3 -->
<g id="edge3" class="edge"><title>Node4&#45;&gt;Node3</title>
<path fill="none" stroke="midnightblue" d="M761.132,-698.357C822.87,-700.173 906.802,-702.641 962.374,-704.276"/>
<polygon fill="midnightblue" stroke="midnightblue" points="761.135,-694.855 751.036,-698.06 760.929,-701.852 761.135,-694.855"/>
</g>
<!-- Node5 -->
<g id="node5" class="node"><title>Node5</title>
<g id="a_node5"><a xlink:href="../../dd/d8d/classengine_1_1render_1_1_renderer.html" target="_top" xlink:title="engine.render.Renderer">
<polygon fill="white" stroke="black" points="958,-497.5 958,-516.5 1086,-516.5 1086,-497.5 958,-497.5"/>
<text text-anchor="middle" x="1022" y="-504.5" font-family="Helvetica,sans-Serif" font-size="10.00">engine.render.Renderer</text>
</a>
</g>
</g>
<!-- Node5&#45;&gt;Node2 -->
<g id="edge5" class="edge"><title>Node5&#45;&gt;Node2</title>
<path fill="none" stroke="#9a32cd" stroke-dasharray="5,2" d="M1096.07,-498.585C1134.31,-497.37 1180.78,-501.108 1218,-520 1265.85,-544.291 1300.19,-601.361 1314.55,-628.775"/>
<polygon fill="#9a32cd" stroke="#9a32cd" points="1095.87,-495.09 1086.03,-499.022 1096.17,-502.084 1095.87,-495.09"/>
<text text-anchor="middle" x="1173" y="-523" font-family="Helvetica,sans-Serif" font-size="10.00"> myRenderer</text>
</g>
<!-- Node6 -->
<g id="node6" class="node"><title>Node6</title>
<polygon fill="white" stroke="#bfbfbf" points="598,-477 598,-507 762,-507 762,-477 598,-477"/>
<text text-anchor="start" x="606" y="-495" font-family="Helvetica,sans-Serif" font-size="10.00">Map&lt; Identifier, engine.render.</text>
<text text-anchor="middle" x="680" y="-484" font-family="Helvetica,sans-Serif" font-size="10.00">RenderedNode &gt;</text>
</g>
<!-- Node6&#45;&gt;Node5 -->
<g id="edge6" class="edge"><title>Node6&#45;&gt;Node5</title>
<path fill="none" stroke="#9a32cd" stroke-dasharray="5,2" d="M772.298,-480.159C781.641,-479.277 791.002,-478.527 800,-478 851.467,-474.983 866.093,-465.068 916,-478 924.859,-480.296 925.438,-484.767 934,-488 943.98,-491.768 954.9,-494.886 965.529,-497.429"/>
<polygon fill="#9a32cd" stroke="#9a32cd" points="771.79,-476.693 762.185,-481.164 772.482,-483.658 771.79,-476.693"/>
<text text-anchor="middle" x="858" y="-481" font-family="Helvetica,sans-Serif" font-size="10.00"> myRenderedNodes</text>
</g>
<!-- Node7 -->
<g id="node7" class="node"><title>Node7</title>
<g id="a_node7"><a xlink:href="../../d5/d30/classengine_1_1render_1_1_rendered_node_factory.html" target="_top" xlink:title="engine.render.RenderedNode\lFactory">
<polygon fill="white" stroke="black" points="602,-428 602,-458 758,-458 758,-428 602,-428"/>
<text text-anchor="start" x="610" y="-446" font-family="Helvetica,sans-Serif" font-size="10.00">engine.render.RenderedNode</text>
<text text-anchor="middle" x="680" y="-435" font-family="Helvetica,sans-Serif" font-size="10.00">Factory</text>
</a>
</g>
</g>
<!-- Node7&#45;&gt;Node5 -->
<g id="edge7" class="edge"><title>Node7&#45;&gt;Node5</title>
<path fill="none" stroke="#9a32cd" stroke-dasharray="5,2" d="M768.378,-429.201C815.388,-426.234 872.477,-430.189 916,-457 929.565,-465.356 921.125,-478.615 934,-488 941.121,-493.191 949.384,-497.012 957.928,-499.816"/>
<polygon fill="#9a32cd" stroke="#9a32cd" points="767.914,-425.726 758.202,-429.96 768.434,-432.707 767.914,-425.726"/>
<text text-anchor="middle" x="858" y="-460" font-family="Helvetica,sans-Serif" font-size="10.00"> myFactory</text>
</g>
<!-- Node8 -->
<g id="node8" class="node"><title>Node8</title>
<g id="a_node8"><a xlink:href="../../d9/db5/classengine_1_1_file_path_utility.html" target="_top" xlink:title="engine.FilePathUtility">
<polygon fill="white" stroke="black" points="275.5,-433.5 275.5,-452.5 390.5,-452.5 390.5,-433.5 275.5,-433.5"/>
<text text-anchor="middle" x="333" y="-440.5" font-family="Helvetica,sans-Serif" font-size="10.00">engine.FilePathUtility</text>
</a>
</g>
</g>
<!-- Node8&#45;&gt;Node7 -->
<g id="edge8" class="edge"><title>Node8&#45;&gt;Node7</title>
<path fill="none" stroke="#9a32cd" stroke-dasharray="5,2" d="M400.659,-443C458.188,-443 541.318,-443 601.741,-443"/>
<polygon fill="#9a32cd" stroke="#9a32cd" points="400.583,-439.5 390.583,-443 400.583,-446.5 400.583,-439.5"/>
<text text-anchor="middle" x="501" y="-446" font-family="Helvetica,sans-Serif" font-size="10.00"> myFilePathUtility</text>
</g>
<!-- Node9 -->
<g id="node9" class="node"><title>Node9</title>
<g id="a_node9"><a xlink:href="../../df/d84/classengine_1_1level_1_1_level.html" target="_top" xlink:title="engine.level.Level">
<polygon fill="white" stroke="black" points="629.5,-581.5 629.5,-600.5 730.5,-600.5 730.5,-581.5 629.5,-581.5"/>
<text text-anchor="middle" x="680" y="-588.5" font-family="Helvetica,sans-Serif" font-size="10.00">engine.level.Level</text>
</a>
</g>
</g>
<!-- Node9&#45;&gt;Node2 -->
<g id="edge21" class="edge"><title>Node9&#45;&gt;Node2</title>
<path fill="none" stroke="#9a32cd" stroke-dasharray="5,2" d="M740.811,-595.945C856,-605.47 1108.79,-626.371 1239.73,-637.198"/>
<polygon fill="#9a32cd" stroke="#9a32cd" points="741.019,-592.451 730.765,-595.115 740.442,-599.427 741.019,-592.451"/>
<text text-anchor="middle" x="1022" y="-630" font-family="Helvetica,sans-Serif" font-size="10.00"> myCurrentLevel</text>
</g>
<!-- Node9&#45;&gt;Node5 -->
<g id="edge9" class="edge"><title>Node9&#45;&gt;Node5</title>
<path fill="none" stroke="#9a32cd" stroke-dasharray="5,2" d="M698.553,-574.605C720.386,-555.415 759.722,-524.651 800,-512 851.26,-495.899 912.549,-495.913 957.568,-499.232"/>
<polygon fill="#9a32cd" stroke="#9a32cd" points="696.17,-572.041 691.077,-581.331 700.852,-577.245 696.17,-572.041"/>
<text text-anchor="middle" x="858" y="-515" font-family="Helvetica,sans-Serif" font-size="10.00"> myCurrentLevel</text>
</g>
<!-- Node10 -->
<g id="node10" class="node"><title>Node10</title>
<g id="a_node10"><a xlink:href="../../d3/d8d/classdata_1_1_observable.html" target="_top" xlink:title="data.Observable">
<polygon fill="white" stroke="black" points="285.5,-630.5 285.5,-649.5 380.5,-649.5 380.5,-630.5 285.5,-630.5"/>
<text text-anchor="middle" x="333" y="-637.5" font-family="Helvetica,sans-Serif" font-size="10.00">data.Observable</text>
</a>
</g>
</g>
<!-- Node10&#45;&gt;Node9 -->
<g id="edge10" class="edge"><title>Node10&#45;&gt;Node9</title>
<path fill="none" stroke="midnightblue" d="M390.6,-636.92C436.48,-633.901 502.693,-628.358 560,-619 588.592,-614.331 620.526,-606.68 644.109,-600.555"/>
<polygon fill="midnightblue" stroke="midnightblue" points="390.308,-633.431 380.552,-637.562 390.755,-640.417 390.308,-633.431"/>
</g>
<!-- Node11 -->
<g id="node11" class="node"><title>Node11</title>
<polygon fill="white" stroke="#bfbfbf" points="23,-630.5 23,-649.5 161,-649.5 161,-630.5 23,-630.5"/>
<text text-anchor="middle" x="92" y="-637.5" font-family="Helvetica,sans-Serif" font-size="10.00">Vector&lt; data.Observer &gt;</text>
</g>
<!-- Node11&#45;&gt;Node10 -->
<g id="edge11" class="edge"><title>Node11&#45;&gt;Node10</title>
<path fill="none" stroke="#9a32cd" stroke-dasharray="5,2" d="M171.605,-640C209.239,-640 253.027,-640 285.333,-640"/>
<polygon fill="#9a32cd" stroke="#9a32cd" points="171.168,-636.5 161.168,-640 171.168,-643.5 171.168,-636.5"/>
<text text-anchor="middle" x="213" y="-643" font-family="Helvetica,sans-Serif" font-size="10.00"> obs</text>
</g>
<!-- Node12 -->
<g id="node12" class="node"><title>Node12</title>
<g id="a_node12"><a xlink:href="../../dc/df6/interfaceengine_1_1game_object_1_1_identifiable.html" target="_top" xlink:title="engine.gameObject.Identifiable">
<polygon fill="white" stroke="black" points="250.5,-392.5 250.5,-411.5 415.5,-411.5 415.5,-392.5 250.5,-392.5"/>
<text text-anchor="middle" x="333" y="-399.5" font-family="Helvetica,sans-Serif" font-size="10.00">engine.gameObject.Identifiable</text>
</a>
</g>
</g>
<!-- Node12&#45;&gt;Node9 -->
<g id="edge12" class="edge"><title>Node12&#45;&gt;Node9</title>
<path fill="none" stroke="midnightblue" d="M410.408,-415.592C415.235,-417.967 419.824,-420.747 424,-424 437.488,-434.508 430.059,-445.763 442,-458 504.114,-521.654 603.252,-563.677 651.213,-581.413"/>
<polygon fill="midnightblue" stroke="midnightblue" points="411.447,-412.229 400.877,-411.506 408.689,-418.663 411.447,-412.229"/>
</g>
<!-- Node19 -->
<g id="node19" class="node"><title>Node19</title>
<g id="a_node19"><a xlink:href="../../d0/d7f/classengine_1_1game_object_1_1_game_object.html" target="_top" xlink:title="engine.gameObject.GameObject">
<polygon fill="white" stroke="black" points="1236.5,-383.5 1236.5,-402.5 1409.5,-402.5 1409.5,-383.5 1236.5,-383.5"/>
<text text-anchor="middle" x="1323" y="-390.5" font-family="Helvetica,sans-Serif" font-size="10.00">engine.gameObject.GameObject</text>
</a>
</g>
</g>
<!-- Node12&#45;&gt;Node19 -->
<g id="edge26" class="edge"><title>Node12&#45;&gt;Node19</title>
<path fill="none" stroke="midnightblue" d="M425.952,-401.162C616.373,-399.428 1051.48,-395.464 1236.36,-393.78"/>
<polygon fill="midnightblue" stroke="midnightblue" points="425.66,-397.665 415.693,-401.256 425.724,-404.665 425.66,-397.665"/>
</g>
<!-- Node13 -->
<g id="node13" class="node"><title>Node13</title>
<g id="a_node13"><a xlink:href="../../d4/dac/classengine_1_1game_object_1_1_identifier.html" target="_top" xlink:title="engine.gameObject.Identifier">
<polygon fill="white" stroke="black" points="255.5,-687.5 255.5,-706.5 410.5,-706.5 410.5,-687.5 255.5,-687.5"/>
<text text-anchor="middle" x="333" y="-694.5" font-family="Helvetica,sans-Serif" font-size="10.00">engine.gameObject.Identifier</text>
</a>
</g>
</g>
<!-- Node13&#45;&gt;Node1 -->
<g id="edge22" class="edge"><title>Node13&#45;&gt;Node1</title>
<path fill="none" stroke="#9a32cd" stroke-dasharray="5,2" d="M363.922,-710.807C422.877,-736.708 558.785,-790 679,-790 679,-790 679,-790 1324,-790 1428.27,-790 1528.42,-696.377 1564.19,-659.075"/>
<polygon fill="#9a32cd" stroke="#9a32cd" points="365.039,-707.473 354.48,-706.602 362.191,-713.868 365.039,-707.473"/>
<text text-anchor="middle" x="1022" y="-793" font-family="Helvetica,sans-Serif" font-size="10.00"> objectID</text>
</g>
<!-- Node13&#45;&gt;Node9 -->
<g id="edge13" class="edge"><title>Node13&#45;&gt;Node9</title>
<path fill="none" stroke="#9a32cd" stroke-dasharray="5,2" d="M376.645,-684.667C396.461,-679.062 420.375,-672.475 442,-667 494.155,-653.797 508.728,-656.298 560,-640 595.559,-628.697 635.365,-611.289 658.745,-600.551"/>
<polygon fill="#9a32cd" stroke="#9a32cd" points="375.644,-681.313 366.983,-687.414 377.558,-688.046 375.644,-681.313"/>
<text text-anchor="middle" x="501" y="-670" font-family="Helvetica,sans-Serif" font-size="10.00"> myId</text>
</g>
<!-- Node13&#45;&gt;Node19 -->
<g id="edge27" class="edge"><title>Node13&#45;&gt;Node19</title>
<path fill="none" stroke="#9a32cd" stroke-dasharray="5,2" d="M420.879,-690.276C462.924,-686.874 514.116,-682.514 560,-678 682.405,-665.958 995.681,-661.379 1110,-616 1218.98,-572.74 1296.93,-439.721 1316.95,-402.669"/>
<polygon fill="#9a32cd" stroke="#9a32cd" points="420.36,-686.806 410.674,-691.097 420.922,-693.784 420.36,-686.806"/>
<text text-anchor="middle" x="858" y="-666" font-family="Helvetica,sans-Serif" font-size="10.00"> myId</text>
</g>
<!-- Node14 -->
<g id="node14" class="node"><title>Node14</title>
<polygon fill="white" stroke="#bfbfbf" points="64,-716.5 64,-735.5 120,-735.5 120,-716.5 64,-716.5"/>
<text text-anchor="middle" x="92" y="-723.5" font-family="Helvetica,sans-Serif" font-size="10.00">Random</text>
</g>
<!-- Node14&#45;&gt;Node2 -->
<g id="edge20" class="edge"><title>Node14&#45;&gt;Node2</title>
<path fill="none" stroke="#9a32cd" stroke-dasharray="5,2" d="M130.199,-730.543C177.151,-735.875 260.433,-744 332,-744 332,-744 332,-744 1023,-744 1111.47,-744 1135.29,-735.398 1218,-704 1248.4,-692.46 1280.37,-672.704 1300.71,-659.03"/>
<polygon fill="#9a32cd" stroke="#9a32cd" points="130.526,-727.057 120.19,-729.386 129.722,-734.011 130.526,-727.057"/>
<text text-anchor="middle" x="680" y="-747" font-family="Helvetica,sans-Serif" font-size="10.00"> r</text>
</g>
<!-- Node14&#45;&gt;Node13 -->
<g id="edge14" class="edge"><title>Node14&#45;&gt;Node13</title>
<path fill="none" stroke="#9a32cd" stroke-dasharray="5,2" d="M130.625,-721.435C163.933,-717.393 213.586,-711.368 255.251,-706.313"/>
<polygon fill="#9a32cd" stroke="#9a32cd" points="129.922,-717.994 120.416,-722.673 130.765,-724.943 129.922,-717.994"/>
<text text-anchor="middle" x="213" y="-716" font-family="Helvetica,sans-Serif" font-size="10.00"> r</text>
</g>
<!-- Node15 -->
<g id="node15" class="node"><title>Node15</title>
<g id="a_node15"><a xlink:href="../../d1/d32/classauthoring_1_1model_1_1collections_1_1_game_objects_collection.html" target="_top" xlink:title="authoring.model.collections.\lGameObjectsCollection">
<polygon fill="white" stroke="black" points="257,-518 257,-548 409,-548 409,-518 257,-518"/>
<text text-anchor="start" x="265" y="-536" font-family="Helvetica,sans-Serif" font-size="10.00">authoring.model.collections.</text>
<text text-anchor="middle" x="333" y="-525" font-family="Helvetica,sans-Serif" font-size="10.00">GameObjectsCollection</text>
</a>
</g>
</g>
<!-- Node15&#45;&gt;Node2 -->
<g id="edge19" class="edge"><title>Node15&#45;&gt;Node2</title>
<path fill="none" stroke="#9a32cd" stroke-dasharray="5,2" d="M419.155,-536.28C461.533,-538.228 513.513,-541.093 560,-545 805.229,-565.612 866.065,-576.478 1110,-609 1158.1,-615.413 1170.13,-617.083 1218,-625 1225.52,-626.243 1233.33,-627.582 1241.14,-628.954"/>
<polygon fill="#9a32cd" stroke="#9a32cd" points="419.303,-532.783 409.155,-535.829 418.987,-539.776 419.303,-532.783"/>
<text text-anchor="middle" x="858" y="-586" font-family="Helvetica,sans-Serif" font-size="10.00"> myMasterList</text>
</g>
<!-- Node15&#45;&gt;Node9 -->
<g id="edge15" class="edge"><title>Node15&#45;&gt;Node9</title>
<path fill="none" stroke="#9a32cd" stroke-dasharray="5,2" d="M419.232,-544.802C461.629,-550.932 513.603,-558.836 560,-567 584.701,-571.346 612.151,-576.838 634.457,-581.471"/>
<polygon fill="#9a32cd" stroke="#9a32cd" points="419.625,-541.322 409.228,-543.362 418.628,-548.251 419.625,-541.322"/>
<text text-anchor="middle" x="501" y="-581" font-family="Helvetica,sans-Serif" font-size="10.00"> myDefaultGameObjects</text>
<text text-anchor="middle" x="501" y="-570" font-family="Helvetica,sans-Serif" font-size="10.00">myWorkingGameObjects</text>
</g>
<!-- Node16 -->
<g id="node16" class="node"><title>Node16</title>
<g id="a_node16"><a xlink:href="../../d4/d3b/classauthoring_1_1model_1_1collections_1_1_general_collection.html" target="_top" xlink:title="authoring.model.collections.\lGeneralCollection\&lt; GameObject \&gt;">
<polygon fill="white" stroke="black" points="0.5,-518 0.5,-548 183.5,-548 183.5,-518 0.5,-518"/>
<text text-anchor="start" x="8.5" y="-536" font-family="Helvetica,sans-Serif" font-size="10.00">authoring.model.collections.</text>
<text text-anchor="middle" x="92" y="-525" font-family="Helvetica,sans-Serif" font-size="10.00">GeneralCollection&lt; GameObject &gt;</text>
</a>
</g>
</g>
<!-- Node16&#45;&gt;Node15 -->
<g id="edge16" class="edge"><title>Node16&#45;&gt;Node15</title>
<path fill="none" stroke="midnightblue" d="M193.979,-533C215.077,-533 236.965,-533 256.925,-533"/>
<polygon fill="midnightblue" stroke="midnightblue" points="193.696,-529.5 183.696,-533 193.696,-536.5 193.696,-529.5"/>
</g>
<!-- Node17 -->
<g id="node17" class="node"><title>Node17</title>
<polygon fill="white" stroke="#bfbfbf" points="262.5,-581 262.5,-611 403.5,-611 403.5,-581 262.5,-581"/>
<text text-anchor="start" x="270.5" y="-599" font-family="Helvetica,sans-Serif" font-size="10.00">List&lt; engine.gameObject.</text>
<text text-anchor="middle" x="333" y="-588" font-family="Helvetica,sans-Serif" font-size="10.00">Identifier &gt;</text>
</g>
<!-- Node17&#45;&gt;Node9 -->
<g id="edge17" class="edge"><title>Node17&#45;&gt;Node9</title>
<path fill="none" stroke="#9a32cd" stroke-dasharray="5,2" d="M413.846,-594.843C480.37,-593.879 573.036,-592.536 629.363,-591.719"/>
<polygon fill="#9a32cd" stroke="#9a32cd" points="413.764,-591.344 403.816,-594.988 413.866,-598.343 413.764,-591.344"/>
<text text-anchor="middle" x="501" y="-609" font-family="Helvetica,sans-Serif" font-size="10.00"> myConditionIdList</text>
<text text-anchor="middle" x="501" y="-598" font-family="Helvetica,sans-Serif" font-size="10.00">myGameObjectIdList</text>
</g>
<!-- Node18 -->
<g id="node18" class="node"><title>Node18</title>
<polygon fill="white" stroke="#bfbfbf" points="657,-263.5 657,-282.5 703,-282.5 703,-263.5 657,-263.5"/>
<text text-anchor="middle" x="680" y="-270.5" font-family="Helvetica,sans-Serif" font-size="10.00">Group</text>
</g>
<!-- Node18&#45;&gt;Node5 -->
<g id="edge18" class="edge"><title>Node18&#45;&gt;Node5</title>
<path fill="none" stroke="#9a32cd" stroke-dasharray="5,2" d="M713.392,-272.812C771.22,-273.211 888.739,-277.6 916,-306 944.144,-335.32 906.983,-457.639 934,-488 940.372,-495.161 948.761,-499.967 957.815,-503.14"/>
<polygon fill="#9a32cd" stroke="#9a32cd" points="713.335,-269.312 703.323,-272.778 713.312,-276.311 713.335,-269.312"/>
<text text-anchor="middle" x="858" y="-309" font-family="Helvetica,sans-Serif" font-size="10.00"> myCanvas</text>
</g>
<!-- Node23 -->
<g id="node23" class="node"><title>Node23</title>
<g id="a_node23"><a xlink:href="../../d2/d82/classengine_1_1render_1_1_rendered_node.html" target="_top" xlink:title="engine.render.RenderedNode">
<polygon fill="white" stroke="black" points="944,-55.5 944,-74.5 1100,-74.5 1100,-55.5 944,-55.5"/>
<text text-anchor="middle" x="1022" y="-62.5" font-family="Helvetica,sans-Serif" font-size="10.00">engine.render.RenderedNode</text>
</a>
</g>
</g>
<!-- Node18&#45;&gt;Node23 -->
<g id="edge30" class="edge"><title>Node18&#45;&gt;Node23</title>
<path fill="none" stroke="midnightblue" d="M713.298,-274.024C770.975,-275.116 888.256,-273.751 916,-246 965.658,-196.33 888.331,-142.36 934,-89 939.298,-82.81 946.033,-78.1445 953.403,-74.6395"/>
<polygon fill="midnightblue" stroke="midnightblue" points="713.334,-270.524 703.257,-273.798 713.176,-277.523 713.334,-270.524"/>
</g>
<!-- Node19&#45;&gt;Node1 -->
<g id="edge23" class="edge"><title>Node19&#45;&gt;Node1</title>
<path fill="none" stroke="#9a32cd" stroke-dasharray="5,2" d="M1340.87,-409.67C1387.51,-455.758 1517.7,-584.41 1562.57,-628.75"/>
<polygon fill="#9a32cd" stroke="#9a32cd" points="1343.22,-407.072 1333.65,-402.533 1338.3,-412.052 1343.22,-407.072"/>
<text text-anchor="middle" x="1453" y="-544" font-family="Helvetica,sans-Serif" font-size="10.00"> myObject</text>
</g>
<!-- Node20 -->
<g id="node20" class="node"><title>Node20</title>
<g id="a_node20"><a xlink:href="../../d7/de6/interfaceengine_1_1game_object_1_1_i_enabled.html" target="_top" xlink:title="engine.gameObject.IEnabled">
<polygon fill="white" stroke="black" points="945,-459.5 945,-478.5 1099,-478.5 1099,-459.5 945,-459.5"/>
<text text-anchor="middle" x="1022" y="-466.5" font-family="Helvetica,sans-Serif" font-size="10.00">engine.gameObject.IEnabled</text>
</a>
</g>
</g>
<!-- Node20&#45;&gt;Node19 -->
<g id="edge24" class="edge"><title>Node20&#45;&gt;Node19</title>
<path fill="none" stroke="midnightblue" d="M1084.31,-457.494C1122.91,-449.83 1173.66,-438.989 1218,-427 1244.59,-419.811 1274.42,-409.858 1295.3,-402.579"/>
<polygon fill="midnightblue" stroke="midnightblue" points="1083.4,-454.106 1074.26,-459.471 1084.75,-460.974 1083.4,-454.106"/>
</g>
<!-- Node21 -->
<g id="node21" class="node"><title>Node21</title>
<polygon fill="white" stroke="#bfbfbf" points="956.5,-421.5 956.5,-440.5 1087.5,-440.5 1087.5,-421.5 956.5,-421.5"/>
<text text-anchor="middle" x="1022" y="-428.5" font-family="Helvetica,sans-Serif" font-size="10.00">Iterable&lt; Component &gt;</text>
</g>
<!-- Node21&#45;&gt;Node19 -->
<g id="edge25" class="edge"><title>Node21&#45;&gt;Node19</title>
<path fill="none" stroke="midnightblue" d="M1097.61,-422.019C1133.94,-417.594 1178.26,-412.12 1218,-407 1229.02,-405.58 1240.7,-404.042 1252.09,-402.522"/>
<polygon fill="midnightblue" stroke="midnightblue" points="1097.08,-418.557 1087.58,-423.238 1097.93,-425.505 1097.08,-418.557"/>
</g>
<!-- Node22 -->
<g id="node22" class="node"><title>Node22</title>
<polygon fill="white" stroke="#bfbfbf" points="578,-117 578,-147 782,-147 782,-117 578,-117"/>
<text text-anchor="start" x="586" y="-135" font-family="Helvetica,sans-Serif" font-size="10.00">List&lt; engine.gameObject.components.</text>
<text text-anchor="middle" x="680" y="-124" font-family="Helvetica,sans-Serif" font-size="10.00">Component &gt;</text>
</g>
<!-- Node22&#45;&gt;Node19 -->
<g id="edge28" class="edge"><title>Node22&#45;&gt;Node19</title>
<path fill="none" stroke="#9a32cd" stroke-dasharray="5,2" d="M792.316,-125.249C794.902,-125.158 797.466,-125.074 800,-125 940.446,-120.873 986.46,-120.067 1110,-187 1207.46,-239.806 1291.38,-350.156 1315.23,-383.351"/>
<polygon fill="#9a32cd" stroke="#9a32cd" points="792.115,-121.754 782.257,-125.638 792.385,-128.749 792.115,-121.754"/>
<text text-anchor="middle" x="1022" y="-190" font-family="Helvetica,sans-Serif" font-size="10.00"> myComponents</text>
</g>
<!-- Node33 -->
<g id="node33" class="node"><title>Node33</title>
<g id="a_node33"><a xlink:href="../../d6/d66/classengine_1_1game_object_1_1_default_data.html" target="_top" xlink:title="engine.gameObject.DefaultData">
<polygon fill="white" stroke="black" points="936.5,-207.5 936.5,-226.5 1107.5,-226.5 1107.5,-207.5 936.5,-207.5"/>
<text text-anchor="middle" x="1022" y="-214.5" font-family="Helvetica,sans-Serif" font-size="10.00">engine.gameObject.DefaultData</text>
</a>
</g>
</g>
<!-- Node22&#45;&gt;Node33 -->
<g id="edge41" class="edge"><title>Node22&#45;&gt;Node33</title>
<path fill="none" stroke="#9a32cd" stroke-dasharray="5,2" d="M792.226,-125.899C832.162,-126.874 876.954,-131.706 916,-145 955.337,-158.393 993.525,-190.945 1011.04,-207.294"/>
<polygon fill="#9a32cd" stroke="#9a32cd" points="792.241,-122.399 782.184,-125.731 792.124,-129.398 792.241,-122.399"/>
<text text-anchor="middle" x="858" y="-148" font-family="Helvetica,sans-Serif" font-size="10.00"> myComponents</text>
</g>
<!-- Node23&#45;&gt;Node19 -->
<g id="edge29" class="edge"><title>Node23&#45;&gt;Node19</title>
<path fill="none" stroke="#9a32cd" stroke-dasharray="5,2" d="M1096.86,-54.9876C1136.74,-53.6568 1184.52,-59.1596 1218,-86 1316.13,-164.666 1322.19,-339.972 1322.14,-383.216"/>
<polygon fill="#9a32cd" stroke="#9a32cd" points="1096.46,-51.5028 1086.64,-55.4809 1096.8,-58.4946 1096.46,-51.5028"/>
<text text-anchor="middle" x="1173" y="-89" font-family="Helvetica,sans-Serif" font-size="10.00"> myRenderedNode</text>
</g>
<!-- Node24 -->
<g id="node24" class="node"><title>Node24</title>
<polygon fill="white" stroke="#bfbfbf" points="659,-38.5 659,-57.5 701,-57.5 701,-38.5 659,-38.5"/>
<text text-anchor="middle" x="680" y="-45.5" font-family="Helvetica,sans-Serif" font-size="10.00">Label</text>
</g>
<!-- Node24&#45;&gt;Node23 -->
<g id="edge31" class="edge"><title>Node24&#45;&gt;Node23</title>
<path fill="none" stroke="#9a32cd" stroke-dasharray="5,2" d="M711.356,-47.4893C756.176,-46.9681 842.673,-46.8512 916,-52 927.91,-52.8363 940.541,-54.086 952.76,-55.4852"/>
<polygon fill="#9a32cd" stroke="#9a32cd" points="711.103,-43.9922 701.15,-47.6238 711.195,-50.9916 711.103,-43.9922"/>
<text text-anchor="middle" x="858" y="-55" font-family="Helvetica,sans-Serif" font-size="10.00"> myLabel</text>
</g>
<!-- Node25 -->
<g id="node25" class="node"><title>Node25</title>
<polygon fill="white" stroke="#bfbfbf" points="646,-0.5 646,-19.5 714,-19.5 714,-0.5 646,-0.5"/>
<text text-anchor="middle" x="680" y="-7.5" font-family="Helvetica,sans-Serif" font-size="10.00">ImageView</text>
</g>
<!-- Node25&#45;&gt;Node23 -->
<g id="edge32" class="edge"><title>Node25&#45;&gt;Node23</title>
<path fill="none" stroke="#9a32cd" stroke-dasharray="5,2" d="M724.613,-11.6819C772.081,-14.1113 850.031,-19.8545 916,-33 943.287,-38.4373 973.601,-48.0809 994.615,-55.3645"/>
<polygon fill="#9a32cd" stroke="#9a32cd" points="724.542,-8.17446 714.384,-11.1858 724.203,-15.1662 724.542,-8.17446"/>
<text text-anchor="middle" x="858" y="-36" font-family="Helvetica,sans-Serif" font-size="10.00"> myImageView</text>
</g>
<!-- Node26 -->
<g id="node26" class="node"><title>Node26</title>
<polygon fill="white" stroke="#bfbfbf" points="659,-76.5 659,-95.5 701,-95.5 701,-76.5 659,-76.5"/>
<text text-anchor="middle" x="680" y="-83.5" font-family="Helvetica,sans-Serif" font-size="10.00">Node</text>
</g>
<!-- Node26&#45;&gt;Node23 -->
<g id="edge33" class="edge"><title>Node26&#45;&gt;Node23</title>
<path fill="none" stroke="#9a32cd" stroke-dasharray="5,2" d="M711.45,-84.1193C763.32,-80.9155 870.332,-74.306 943.879,-69.7634"/>
<polygon fill="#9a32cd" stroke="#9a32cd" points="711.016,-80.6393 701.25,-84.7492 711.447,-87.626 711.016,-80.6393"/>
<text text-anchor="middle" x="858" y="-82" font-family="Helvetica,sans-Serif" font-size="10.00"> myCollisionBody</text>
</g>
<!-- Node27 -->
<g id="node27" class="node"><title>Node27</title>
<g id="a_node27"><a xlink:href="../../d9/d9d/classengine_1_1game_object_1_1components_1_1_physics_body.html" target="_top" xlink:title="engine.gameObject.components.\lPhysicsBody">
<polygon fill="white" stroke="black" points="934,-312 934,-342 1110,-342 1110,-312 934,-312"/>
<text text-anchor="start" x="942" y="-330" font-family="Helvetica,sans-Serif" font-size="10.00">engine.gameObject.components.</text>
<text text-anchor="middle" x="1022" y="-319" font-family="Helvetica,sans-Serif" font-size="10.00">PhysicsBody</text>
</a>
</g>
</g>
<!-- Node27&#45;&gt;Node19 -->
<g id="edge34" class="edge"><title>Node27&#45;&gt;Node19</title>
<path fill="none" stroke="#9a32cd" stroke-dasharray="5,2" d="M1107.2,-344.153C1141.6,-351.305 1181.75,-359.835 1218,-368 1239.74,-372.897 1263.95,-378.696 1283.54,-383.476"/>
<polygon fill="#9a32cd" stroke="#9a32cd" points="1107.69,-340.68 1097.19,-342.077 1106.27,-347.534 1107.69,-340.68"/>
<text text-anchor="middle" x="1173" y="-371" font-family="Helvetica,sans-Serif" font-size="10.00"> myPhysicsBody</text>
</g>
<!-- Node28 -->
<g id="node28" class="node"><title>Node28</title>
<polygon fill="white" stroke="#bfbfbf" points="602,-302 602,-332 758,-332 758,-302 602,-302"/>
<text text-anchor="start" x="610" y="-320" font-family="Helvetica,sans-Serif" font-size="10.00">Map&lt; String, engine.physics.</text>
<text text-anchor="middle" x="680" y="-309" font-family="Helvetica,sans-Serif" font-size="10.00">Scalar &gt;</text>
</g>
<!-- Node28&#45;&gt;Node27 -->
<g id="edge35" class="edge"><title>Node28&#45;&gt;Node27</title>
<path fill="none" stroke="#9a32cd" stroke-dasharray="5,2" d="M768.15,-319.563C819.059,-321.061 883.089,-322.944 933.976,-324.44"/>
<polygon fill="#9a32cd" stroke="#9a32cd" points="768.25,-316.065 758.151,-319.269 768.044,-323.062 768.25,-316.065"/>
<text text-anchor="middle" x="858" y="-327" font-family="Helvetica,sans-Serif" font-size="10.00"> myConstants</text>
</g>
<!-- Node29 -->
<g id="node29" class="node"><title>Node29</title>
<polygon fill="white" stroke="#bfbfbf" points="602,-214 602,-244 758,-244 758,-214 602,-214"/>
<text text-anchor="start" x="610" y="-232" font-family="Helvetica,sans-Serif" font-size="10.00">Map&lt; String, engine.physics.</text>
<text text-anchor="middle" x="680" y="-221" font-family="Helvetica,sans-Serif" font-size="10.00">Force &gt;</text>
</g>
<!-- Node29&#45;&gt;Node27 -->
<g id="edge36" class="edge"><title>Node29&#45;&gt;Node27</title>
<path fill="none" stroke="#9a32cd" stroke-dasharray="5,2" d="M768.219,-231.474C813.441,-234.986 868.912,-242.835 916,-260 949.319,-272.146 983.04,-296.227 1002.97,-311.966"/>
<polygon fill="#9a32cd" stroke="#9a32cd" points="768.368,-227.976 758.143,-230.749 767.866,-234.958 768.368,-227.976"/>
<text text-anchor="middle" x="858" y="-263" font-family="Helvetica,sans-Serif" font-size="10.00"> myActiveForces</text>
</g>
<!-- Node30 -->
<g id="node30" class="node"><title>Node30</title>
<polygon fill="white" stroke="#bfbfbf" points="596.5,-351.5 596.5,-370.5 763.5,-370.5 763.5,-351.5 596.5,-351.5"/>
<text text-anchor="middle" x="680" y="-358.5" font-family="Helvetica,sans-Serif" font-size="10.00">List&lt; engine.physics.Impulse &gt;</text>
</g>
<!-- Node30&#45;&gt;Node27 -->
<g id="edge37" class="edge"><title>Node30&#45;&gt;Node27</title>
<path fill="none" stroke="#9a32cd" stroke-dasharray="5,2" d="M773.912,-352.743C817.131,-348.789 869.212,-343.863 916,-339 921.84,-338.393 927.86,-337.75 933.925,-337.09"/>
<polygon fill="#9a32cd" stroke="#9a32cd" points="773.336,-349.281 763.696,-353.674 773.972,-356.252 773.336,-349.281"/>
<text text-anchor="middle" x="858" y="-354" font-family="Helvetica,sans-Serif" font-size="10.00"> myImpulses</text>
</g>
<!-- Node31 -->
<g id="node31" class="node"><title>Node31</title>
<g id="a_node31"><a xlink:href="../../d5/d1f/classengine_1_1physics_1_1_vector.html" target="_top" xlink:title="engine.physics.Vector">
<polygon fill="white" stroke="black" points="619.5,-168.5 619.5,-187.5 740.5,-187.5 740.5,-168.5 619.5,-168.5"/>
<text text-anchor="middle" x="680" y="-175.5" font-family="Helvetica,sans-Serif" font-size="10.00">engine.physics.Vector</text>
</a>
</g>
</g>
<!-- Node31&#45;&gt;Node27 -->
<g id="edge38" class="edge"><title>Node31&#45;&gt;Node27</title>
<path fill="none" stroke="#9a32cd" stroke-dasharray="5,2" d="M743.829,-167.306C794.729,-162.152 865.961,-163.275 916,-198 931.353,-208.654 923.407,-220.604 934,-236 954.442,-265.711 984.675,-294.926 1003.59,-311.942"/>
<polygon fill="#9a32cd" stroke="#9a32cd" points="743.159,-163.859 733.612,-168.451 743.939,-170.815 743.159,-163.859"/>
<text text-anchor="middle" x="858" y="-223" font-family="Helvetica,sans-Serif" font-size="10.00"> myBalancedForcesMag</text>
<text text-anchor="middle" x="858" y="-212" font-family="Helvetica,sans-Serif" font-size="10.00">myVelocity</text>
<text text-anchor="middle" x="858" y="-201" font-family="Helvetica,sans-Serif" font-size="10.00">myAcceleration</text>
</g>
<!-- Node32 -->
<g id="node32" class="node"><title>Node32</title>
<g id="a_node32"><a xlink:href="../../dc/db5/classengine_1_1physics_1_1_physics_component.html" target="_top" xlink:title="engine.physics.PhysicsComponent">
<polygon fill="white" stroke="black" points="242,-168.5 242,-187.5 424,-187.5 424,-168.5 242,-168.5"/>
<text text-anchor="middle" x="333" y="-175.5" font-family="Helvetica,sans-Serif" font-size="10.00">engine.physics.PhysicsComponent</text>
</a>
</g>
</g>
<!-- Node32&#45;&gt;Node31 -->
<g id="edge39" class="edge"><title>Node32&#45;&gt;Node31</title>
<path fill="none" stroke="midnightblue" d="M434.456,-178C494.444,-178 568.603,-178 619.429,-178"/>
<polygon fill="midnightblue" stroke="midnightblue" points="434.194,-174.5 424.194,-178 434.194,-181.5 434.194,-174.5"/>
</g>
<!-- Node33&#45;&gt;Node19 -->
<g id="edge40" class="edge"><title>Node33&#45;&gt;Node19</title>
<path fill="none" stroke="#9a32cd" stroke-dasharray="5,2" d="M1048.28,-231.882C1107.9,-266.977 1256,-354.148 1305.55,-383.317"/>
<polygon fill="#9a32cd" stroke="#9a32cd" points="1049.89,-228.77 1039.5,-226.713 1046.34,-234.802 1049.89,-228.77"/>
<text text-anchor="middle" x="1173" y="-335" font-family="Helvetica,sans-Serif" font-size="10.00"> myDefaultData</text>
</g>
</g>
</svg>
        <g id="navigator" transform="translate(0 0)" fill="#404254">
                <rect fill="#f2f5e9" fill-opacity="0.5" stroke="#606060" stroke-width=".5" x="0" y="0" width="60" height="60"/>
                <use id="zoomplus" xlink:href="#zoomPlus" x="17" y="9" onmousedown="handleZoom(evt,'in')"/>
                <use id="zoomminus" xlink:href="#zoomMin" x="42" y="9" onmousedown="handleZoom(evt,'out')"/>
                <use id="reset" xlink:href="#resetDef" x="30" y="36" onmousedown="handleReset()"/>
                <g id="arrowUp" xlink:href="#dirArrow" transform="translate(30 24)" onmousedown="handlePan(0,-1)">
                  <use xlink:href="#rim" fill="#404040">
                        <set attributeName="fill" to="#808080" begin="arrowUp.mouseover" end="arrowUp.mouseout"/>
                  </use>
                  <path fill="none" stroke="white" stroke-width="1.5" d="M0,-3.0v7 M-2.5,-0.5L0,-3.0L2.5,-0.5"/>
                </g>
                <g id="arrowRight" xlink:href="#dirArrow" transform="rotate(90) translate(36 -43)" onmousedown="handlePan(1,0)">
                  <use xlink:href="#rim" fill="#404040">
                        <set attributeName="fill" to="#808080" begin="arrowRight.mouseover" end="arrowRight.mouseout"/>
                  </use>
                  <path fill="none" stroke="white" stroke-width="1.5" d="M0,-3.0v7 M-2.5,-0.5L0,-3.0L2.5,-0.5"/>
                </g>
                <g id="arrowDown" xlink:href="#dirArrow" transform="rotate(180) translate(-30 -48)" onmousedown="handlePan(0,1)">
                  <use xlink:href="#rim" fill="#404040">
                        <set attributeName="fill" to="#808080" begin="arrowDown.mouseover" end="arrowDown.mouseout"/>
                  </use>
                  <path fill="none" stroke="white" stroke-width="1.5" d="M0,-3.0v7 M-2.5,-0.5L0,-3.0L2.5,-0.5"/>
                </g>
                <g id="arrowLeft" xlink:href="#dirArrow" transform="rotate(270) translate(-36 17)" onmousedown="handlePan(-1,0)">
                  <use xlink:href="#rim" fill="#404040">
                        <set attributeName="fill" to="#808080" begin="arrowLeft.mouseover" end="arrowLeft.mouseout"/>
                  </use>
                  <path fill="none" stroke="white" stroke-width="1.5" d="M0,-3.0v7 M-2.5,-0.5L0,-3.0L2.5,-0.5"/>
                </g>
        </g>
        <svg viewBox="0 0 15 15" width="100%" height="30px" preserveAspectRatio="xMaxYMin meet">
         <g id="arrow_out" transform="scale(0.3 0.3)">
          <a xlink:href="classengine_1_1actions_1_1_make_new_object_from_object_action__coll__graph_org.svg" target="_base">
           <rect id="button" ry="5" rx="5" y="6" x="6" height="38" width="38"
                fill="#f2f5e9" fill-opacity="0.5" stroke="#606060" stroke-width="1.0"/>
           <path id="arrow"
             d="M 11.500037,31.436501 C 11.940474,20.09759 22.043105,11.32322 32.158766,21.979434 L 37.068811,17.246167 C 37.068811,17.246167 37.088388,32 37.088388,32 L 22.160133,31.978069 C 22.160133,31.978069 26.997745,27.140456 26.997745,27.140456 C 18.528582,18.264221 13.291696,25.230495 11.500037,31.436501 z"
             style="fill:#404040;"/>
          </a>
         </g>
        </svg>
</svg>
