<?xml version="1.0" encoding="UTF-8" standalone="no"?>
<!DOCTYPE svg PUBLIC "-//W3C//DTD SVG 1.1//EN"
 "http://www.w3.org/Graphics/SVG/1.1/DTD/svg11.dtd">
<!-- Generated by graphviz version 2.36.0 (20140111.2315)
 -->
<!-- Title: engine.conditions.ButtonPressCondition Pages: 1 -->
<svg width="2082pt" height="689pt"
 viewBox="0.00 0.00 2082.00 688.86" xmlns="http://www.w3.org/2000/svg" xmlns:xlink="http://www.w3.org/1999/xlink">
<g id="graph0" class="graph" transform="scale(1 1) rotate(0) translate(4 684.856)">
<title>engine.conditions.ButtonPressCondition</title>
<polygon fill="white" stroke="none" points="-4,4 -4,-684.856 2078,-684.856 2078,4 -4,4"/>
<!-- Node1 -->
<g id="node1" class="node"><title>Node1</title>
<polygon fill="#bfbfbf" stroke="black" points="1938,-429.856 1938,-459.856 2074,-459.856 2074,-429.856 1938,-429.856"/>
<text text-anchor="start" x="1946" y="-447.856" font-family="Helvetica,sans-Serif" font-size="10.00">engine.conditions.Button</text>
<text text-anchor="middle" x="2006" y="-436.856" font-family="Helvetica,sans-Serif" font-size="10.00">PressCondition</text>
</g>
<!-- Node2 -->
<g id="node2" class="node"><title>Node2</title>
<g id="a_node2"><a xlink:href="../../d1/d3b/classengine_1_1conditions_1_1_condition.html" target="_top" xlink:title="engine.conditions.Condition">
<polygon fill="white" stroke="black" points="1700.5,-546.356 1700.5,-565.356 1849.5,-565.356 1849.5,-546.356 1700.5,-546.356"/>
<text text-anchor="middle" x="1775" y="-553.356" font-family="Helvetica,sans-Serif" font-size="10.00">engine.conditions.Condition</text>
</a>
</g>
</g>
<!-- Node2&#45;&gt;Node1 -->
<g id="edge1" class="edge"><title>Node2&#45;&gt;Node1</title>
<path fill="none" stroke="midnightblue" d="M1805.06,-541.771C1848.32,-520.801 1929.33,-481.535 1973.8,-459.979"/>
<polygon fill="midnightblue" stroke="midnightblue" points="1803.39,-538.688 1795.92,-546.2 1806.45,-544.987 1803.39,-538.688"/>
</g>
<!-- Node3 -->
<g id="node3" class="node"><title>Node3</title>
<g id="a_node3"><a xlink:href="../../dc/df6/interfaceengine_1_1game_object_1_1_identifiable.html" target="_top" xlink:title="engine.gameObject.Identifiable">
<polygon fill="white" stroke="black" points="242.5,-475.356 242.5,-494.356 407.5,-494.356 407.5,-475.356 242.5,-475.356"/>
<text text-anchor="middle" x="325" y="-482.356" font-family="Helvetica,sans-Serif" font-size="10.00">engine.gameObject.Identifiable</text>
</a>
</g>
</g>
<!-- Node3&#45;&gt;Node2 -->
<g id="edge2" class="edge"><title>Node3&#45;&gt;Node2</title>
<path fill="none" stroke="midnightblue" d="M369.533,-497.928C382.581,-502.986 396.475,-509.586 408,-517.856 417.988,-525.022 415.327,-532.757 426,-538.856 511.836,-587.911 546.135,-577.856 645,-577.856 645,-577.856 645,-577.856 1075,-577.856 1303.11,-577.856 1572.88,-566.007 1700.3,-559.701"/>
<polygon fill="midnightblue" stroke="midnightblue" points="370.366,-494.506 359.772,-494.359 367.962,-501.08 370.366,-494.506"/>
</g>
<!-- Node16 -->
<g id="node16" class="node"><title>Node16</title>
<g id="a_node16"><a xlink:href="../../df/d84/classengine_1_1level_1_1_level.html" target="_top" xlink:title="engine.level.Level">
<polygon fill="white" stroke="black" points="595.5,-398.356 595.5,-417.356 696.5,-417.356 696.5,-398.356 595.5,-398.356"/>
<text text-anchor="middle" x="646" y="-405.356" font-family="Helvetica,sans-Serif" font-size="10.00">engine.level.Level</text>
</a>
</g>
</g>
<!-- Node3&#45;&gt;Node16 -->
<g id="edge19" class="edge"><title>Node3&#45;&gt;Node16</title>
<path fill="none" stroke="midnightblue" d="M402.791,-473.567C445.282,-465.938 498.535,-454.068 544,-436.856 552.559,-433.616 553.455,-430.132 562,-426.856 572.49,-422.835 584.067,-419.526 595.161,-416.862"/>
<polygon fill="midnightblue" stroke="midnightblue" points="402.034,-470.147 392.788,-475.321 403.243,-477.041 402.034,-470.147"/>
</g>
<!-- Node4 -->
<g id="node4" class="node"><title>Node4</title>
<g id="a_node4"><a xlink:href="../../d2/d15/interfaceengine_1_1actions_1_1_initializable.html" target="_top" xlink:title="engine.actions.Initializable">
<polygon fill="white" stroke="black" points="1424,-584.356 1424,-603.356 1566,-603.356 1566,-584.356 1424,-584.356"/>
<text text-anchor="middle" x="1495" y="-591.356" font-family="Helvetica,sans-Serif" font-size="10.00">engine.actions.Initializable</text>
</a>
</g>
</g>
<!-- Node4&#45;&gt;Node2 -->
<g id="edge3" class="edge"><title>Node4&#45;&gt;Node2</title>
<path fill="none" stroke="midnightblue" d="M1576.26,-583.904C1609.07,-579.731 1647.37,-574.724 1682,-569.856 1691.92,-568.462 1702.43,-566.921 1712.66,-565.388"/>
<polygon fill="midnightblue" stroke="midnightblue" points="1575.75,-580.441 1566.27,-585.171 1576.63,-587.385 1575.75,-580.441"/>
</g>
<!-- Node5 -->
<g id="node5" class="node"><title>Node5</title>
<g id="a_node5"><a xlink:href="../../d4/dac/classengine_1_1game_object_1_1_identifier.html" target="_top" xlink:title="engine.gameObject.Identifier">
<polygon fill="white" stroke="black" points="247.5,-527.356 247.5,-546.356 402.5,-546.356 402.5,-527.356 247.5,-527.356"/>
<text text-anchor="middle" x="325" y="-534.356" font-family="Helvetica,sans-Serif" font-size="10.00">engine.gameObject.Identifier</text>
</a>
</g>
</g>
<!-- Node5&#45;&gt;Node2 -->
<g id="edge4" class="edge"><title>Node5&#45;&gt;Node2</title>
<path fill="none" stroke="#9a32cd" stroke-dasharray="5,2" d="M348.413,-551.945C368.056,-564.478 397.798,-581.824 426,-591.856 519.222,-625.016 546.056,-631.856 645,-631.856 645,-631.856 645,-631.856 1496,-631.856 1595.57,-631.856 1708.32,-585.932 1753.6,-565.481"/>
<polygon fill="#9a32cd" stroke="#9a32cd" points="350.178,-548.918 339.887,-546.4 346.362,-554.786 350.178,-548.918"/>
<text text-anchor="middle" x="1074" y="-634.856" font-family="Helvetica,sans-Serif" font-size="10.00"> myId</text>
</g>
<!-- Node5&#45;&gt;Node16 -->
<g id="edge20" class="edge"><title>Node5&#45;&gt;Node16</title>
<path fill="none" stroke="#9a32cd" stroke-dasharray="5,2" d="M412.796,-526.584C456.578,-517.471 507.902,-500.28 544,-467.856 558.805,-454.558 546.665,-439.54 562,-426.856 571.454,-419.036 583.503,-414.289 595.47,-411.446"/>
<polygon fill="#9a32cd" stroke="#9a32cd" points="411.849,-523.204 402.713,-528.57 413.201,-530.072 411.849,-523.204"/>
<text text-anchor="middle" x="485" y="-526.856" font-family="Helvetica,sans-Serif" font-size="10.00"> myId</text>
</g>
<!-- Node6 -->
<g id="node6" class="node"><title>Node6</title>
<polygon fill="white" stroke="#bfbfbf" points="64,-527.356 64,-546.356 120,-546.356 120,-527.356 64,-527.356"/>
<text text-anchor="middle" x="92" y="-534.356" font-family="Helvetica,sans-Serif" font-size="10.00">Random</text>
</g>
<!-- Node6&#45;&gt;Node5 -->
<g id="edge5" class="edge"><title>Node6&#45;&gt;Node5</title>
<path fill="none" stroke="#9a32cd" stroke-dasharray="5,2" d="M130.511,-536.856C162.046,-536.856 208.136,-536.856 247.423,-536.856"/>
<polygon fill="#9a32cd" stroke="#9a32cd" points="130.406,-533.356 120.406,-536.856 130.406,-540.356 130.406,-533.356"/>
<text text-anchor="middle" x="213" y="-539.856" font-family="Helvetica,sans-Serif" font-size="10.00"> r</text>
</g>
<!-- Node7 -->
<g id="node7" class="node"><title>Node7</title>
<g id="a_node7"><a xlink:href="../../d6/d94/classengine_1_1_game_manager.html" target="_top" xlink:title="engine.GameManager">
<polygon fill="white" stroke="black" points="1433.5,-435.356 1433.5,-454.356 1556.5,-454.356 1556.5,-435.356 1433.5,-435.356"/>
<text text-anchor="middle" x="1495" y="-442.356" font-family="Helvetica,sans-Serif" font-size="10.00">engine.GameManager</text>
</a>
</g>
</g>
<!-- Node7&#45;&gt;Node2 -->
<g id="edge6" class="edge"><title>Node7&#45;&gt;Node2</title>
<path fill="none" stroke="#9a32cd" stroke-dasharray="5,2" d="M1517.84,-460.318C1536.74,-473.132 1565.18,-491.091 1592,-502.856 1605.6,-508.822 1690.5,-532.723 1739.4,-546.302"/>
<polygon fill="#9a32cd" stroke="#9a32cd" points="1519.6,-457.278 1509.38,-454.49 1515.63,-463.044 1519.6,-457.278"/>
<text text-anchor="middle" x="1637" y="-532.856" font-family="Helvetica,sans-Serif" font-size="10.00"> myGameManager</text>
</g>
<!-- Node8 -->
<g id="node8" class="node"><title>Node8</title>
<g id="a_node8"><a xlink:href="../../df/de5/classauthoring_1_1model_1_1collections_1_1_levels_collection.html" target="_top" xlink:title="authoring.model.collections.\lLevelsCollection">
<polygon fill="white" stroke="black" points="570,-31.856 570,-61.856 722,-61.856 722,-31.856 570,-31.856"/>
<text text-anchor="start" x="578" y="-49.856" font-family="Helvetica,sans-Serif" font-size="10.00">authoring.model.collections.</text>
<text text-anchor="middle" x="646" y="-38.856" font-family="Helvetica,sans-Serif" font-size="10.00">LevelsCollection</text>
</a>
</g>
</g>
<!-- Node8&#45;&gt;Node7 -->
<g id="edge7" class="edge"><title>Node8&#45;&gt;Node7</title>
<path fill="none" stroke="#9a32cd" stroke-dasharray="5,2" d="M718.634,-29.6896C871.262,2.11167 1228.39,50.1744 1398,-147.856 1438.27,-194.874 1376.2,-378.437 1416,-425.856 1420.66,-431.407 1426.64,-435.487 1433.22,-438.465"/>
<polygon fill="#9a32cd" stroke="#9a32cd" points="717.497,-26.3528 708.441,-31.8527 718.95,-33.2002 717.497,-26.3528"/>
<text text-anchor="middle" x="1074" y="-11.856" font-family="Helvetica,sans-Serif" font-size="10.00"> myLevels</text>
</g>
<!-- Node10 -->
<g id="node10" class="node"><title>Node10</title>
<g id="a_node10"><a xlink:href="../../df/d67/classengine_1_1level_1_1_level_manager.html" target="_top" xlink:title="engine.level.LevelManager">
<polygon fill="white" stroke="black" points="1141.5,-318.356 1141.5,-337.356 1284.5,-337.356 1284.5,-318.356 1141.5,-318.356"/>
<text text-anchor="middle" x="1213" y="-325.356" font-family="Helvetica,sans-Serif" font-size="10.00">engine.level.LevelManager</text>
</a>
</g>
</g>
<!-- Node8&#45;&gt;Node10 -->
<g id="edge11" class="edge"><title>Node8&#45;&gt;Node10</title>
<path fill="none" stroke="#9a32cd" stroke-dasharray="5,2" d="M732.592,-48.4586C767.985,-50.3721 809.258,-54.2302 846,-61.856 924.308,-78.1087 945.204,-83.6522 1016,-120.856 1063.84,-145.998 1086.07,-146.584 1114,-192.856 1141.87,-239.028 1094.57,-274.033 1132,-312.856 1134.75,-315.704 1137.85,-318.109 1141.2,-320.133"/>
<polygon fill="#9a32cd" stroke="#9a32cd" points="732.454,-44.9476 722.293,-47.9471 732.107,-51.9389 732.454,-44.9476"/>
<text text-anchor="middle" x="940" y="-123.856" font-family="Helvetica,sans-Serif" font-size="10.00"> myLevels</text>
</g>
<!-- Node23 -->
<g id="node23" class="node"><title>Node23</title>
<g id="a_node23"><a xlink:href="../../da/d90/classengine_1_1sound_1_1_sound_utility.html" target="_top" xlink:title="engine.sound.SoundUtility">
<polygon fill="white" stroke="black" points="869,-141.356 869,-160.356 1011,-160.356 1011,-141.356 869,-141.356"/>
<text text-anchor="middle" x="940" y="-148.356" font-family="Helvetica,sans-Serif" font-size="10.00">engine.sound.SoundUtility</text>
</a>
</g>
</g>
<!-- Node8&#45;&gt;Node23 -->
<g id="edge28" class="edge"><title>Node8&#45;&gt;Node23</title>
<path fill="none" stroke="#9a32cd" stroke-dasharray="5,2" d="M732.271,-57.5424C768.309,-63.9049 810.148,-73.7825 846,-88.856 878.199,-102.394 911.096,-127.546 927.791,-141.287"/>
<polygon fill="#9a32cd" stroke="#9a32cd" points="732.716,-54.0679 722.27,-55.8397 731.541,-60.9686 732.716,-54.0679"/>
<text text-anchor="middle" x="797" y="-91.856" font-family="Helvetica,sans-Serif" font-size="10.00"> myLevels</text>
</g>
<!-- Node9 -->
<g id="node9" class="node"><title>Node9</title>
<g id="a_node9"><a xlink:href="../../d4/d3b/classauthoring_1_1model_1_1collections_1_1_general_collection.html" target="_top" xlink:title="authoring.model.collections.\lGeneralCollection\&lt; Level \&gt;">
<polygon fill="white" stroke="black" points="249,-31.856 249,-61.856 401,-61.856 401,-31.856 249,-31.856"/>
<text text-anchor="start" x="257" y="-49.856" font-family="Helvetica,sans-Serif" font-size="10.00">authoring.model.collections.</text>
<text text-anchor="middle" x="325" y="-38.856" font-family="Helvetica,sans-Serif" font-size="10.00">GeneralCollection&lt; Level &gt;</text>
</a>
</g>
</g>
<!-- Node9&#45;&gt;Node8 -->
<g id="edge8" class="edge"><title>Node9&#45;&gt;Node8</title>
<path fill="none" stroke="midnightblue" d="M411.216,-46.856C460.588,-46.856 522.186,-46.856 569.758,-46.856"/>
<polygon fill="midnightblue" stroke="midnightblue" points="411.195,-43.3561 401.195,-46.856 411.195,-50.3561 411.195,-43.3561"/>
</g>
<!-- Node10&#45;&gt;Node7 -->
<g id="edge9" class="edge"><title>Node10&#45;&gt;Node7</title>
<path fill="none" stroke="#9a32cd" stroke-dasharray="5,2" d="M1268.76,-340.143C1307.83,-350.961 1359.96,-369.776 1398,-399.856 1409.02,-408.574 1404.42,-417.896 1416,-425.856 1421.63,-429.724 1427.96,-432.807 1434.52,-435.265"/>
<polygon fill="#9a32cd" stroke="#9a32cd" points="1269.18,-336.634 1258.62,-337.432 1267.38,-343.396 1269.18,-336.634"/>
<text text-anchor="middle" x="1355" y="-402.856" font-family="Helvetica,sans-Serif" font-size="10.00"> myLevelManager</text>
</g>
<!-- Node11 -->
<g id="node11" class="node"><title>Node11</title>
<polygon fill="white" stroke="#bfbfbf" points="890,-330.356 890,-349.356 990,-349.356 990,-330.356 890,-330.356"/>
<text text-anchor="middle" x="940" y="-337.356" font-family="Helvetica,sans-Serif" font-size="10.00">Iterable&lt; Level &gt;</text>
</g>
<!-- Node11&#45;&gt;Node10 -->
<g id="edge10" class="edge"><title>Node11&#45;&gt;Node10</title>
<path fill="none" stroke="midnightblue" d="M1000.31,-337.23C1041.85,-335.39 1097.53,-332.925 1141.36,-330.984"/>
<polygon fill="midnightblue" stroke="midnightblue" points="999.911,-333.744 990.076,-337.683 1000.22,-340.737 999.911,-333.744"/>
</g>
<!-- Node12 -->
<g id="node12" class="node"><title>Node12</title>
<g id="a_node12"><a xlink:href="../../dd/d8d/classengine_1_1render_1_1_renderer.html" target="_top" xlink:title="engine.render.Renderer">
<polygon fill="white" stroke="black" points="876,-415.356 876,-434.356 1004,-434.356 1004,-415.356 876,-415.356"/>
<text text-anchor="middle" x="940" y="-422.356" font-family="Helvetica,sans-Serif" font-size="10.00">engine.render.Renderer</text>
</a>
</g>
</g>
<!-- Node12&#45;&gt;Node7 -->
<g id="edge35" class="edge"><title>Node12&#45;&gt;Node7</title>
<path fill="none" stroke="#9a32cd" stroke-dasharray="5,2" d="M1014.2,-427.503C1124.43,-431.49 1330.99,-438.961 1433.34,-442.662"/>
<polygon fill="#9a32cd" stroke="#9a32cd" points="1014.29,-424.004 1004.17,-427.141 1014.03,-431 1014.29,-424.004"/>
<text text-anchor="middle" x="1213" y="-440.856" font-family="Helvetica,sans-Serif" font-size="10.00"> myGameObjectRenderer</text>
</g>
<!-- Node12&#45;&gt;Node10 -->
<g id="edge12" class="edge"><title>Node12&#45;&gt;Node10</title>
<path fill="none" stroke="#9a32cd" stroke-dasharray="5,2" d="M985.758,-412.668C1034.95,-399.238 1107.88,-379.211 1114,-376.856 1143.65,-365.453 1176.32,-348.075 1195.45,-337.371"/>
<polygon fill="#9a32cd" stroke="#9a32cd" points="984.684,-409.333 975.958,-415.342 986.527,-416.086 984.684,-409.333"/>
<text text-anchor="middle" x="1074" y="-402.856" font-family="Helvetica,sans-Serif" font-size="10.00"> myRenderer</text>
</g>
<!-- Node13 -->
<g id="node13" class="node"><title>Node13</title>
<polygon fill="white" stroke="#bfbfbf" points="564,-436.856 564,-466.856 728,-466.856 728,-436.856 564,-436.856"/>
<text text-anchor="start" x="572" y="-454.856" font-family="Helvetica,sans-Serif" font-size="10.00">Map&lt; Identifier, engine.render.</text>
<text text-anchor="middle" x="646" y="-443.856" font-family="Helvetica,sans-Serif" font-size="10.00">RenderedNode &gt;</text>
</g>
<!-- Node13&#45;&gt;Node12 -->
<g id="edge13" class="edge"><title>Node13&#45;&gt;Node12</title>
<path fill="none" stroke="#9a32cd" stroke-dasharray="5,2" d="M738.317,-443.412C782.939,-439.286 835.527,-434.424 875.674,-430.712"/>
<polygon fill="#9a32cd" stroke="#9a32cd" points="737.974,-439.929 728.338,-444.335 738.618,-446.899 737.974,-439.929"/>
<text text-anchor="middle" x="797" y="-445.856" font-family="Helvetica,sans-Serif" font-size="10.00"> myRenderedNodes</text>
</g>
<!-- Node14 -->
<g id="node14" class="node"><title>Node14</title>
<g id="a_node14"><a xlink:href="../../d5/d30/classengine_1_1render_1_1_rendered_node_factory.html" target="_top" xlink:title="engine.render.RenderedNode\lFactory">
<polygon fill="white" stroke="black" points="568,-332.856 568,-362.856 724,-362.856 724,-332.856 568,-332.856"/>
<text text-anchor="start" x="576" y="-350.856" font-family="Helvetica,sans-Serif" font-size="10.00">engine.render.RenderedNode</text>
<text text-anchor="middle" x="646" y="-339.856" font-family="Helvetica,sans-Serif" font-size="10.00">Factory</text>
</a>
</g>
</g>
<!-- Node14&#45;&gt;Node12 -->
<g id="edge14" class="edge"><title>Node14&#45;&gt;Node12</title>
<path fill="none" stroke="#9a32cd" stroke-dasharray="5,2" d="M717.159,-365.441C755.315,-375.104 803.307,-387.419 846,-398.856 865.757,-404.149 887.804,-410.302 905.472,-415.293"/>
<polygon fill="#9a32cd" stroke="#9a32cd" points="717.729,-361.975 707.176,-362.916 716.013,-368.761 717.729,-361.975"/>
<text text-anchor="middle" x="797" y="-401.856" font-family="Helvetica,sans-Serif" font-size="10.00"> myFactory</text>
</g>
<!-- Node15 -->
<g id="node15" class="node"><title>Node15</title>
<g id="a_node15"><a xlink:href="../../d9/db5/classengine_1_1_file_path_utility.html" target="_top" xlink:title="engine.FilePathUtility">
<polygon fill="white" stroke="black" points="267.5,-207.356 267.5,-226.356 382.5,-226.356 382.5,-207.356 267.5,-207.356"/>
<text text-anchor="middle" x="325" y="-214.356" font-family="Helvetica,sans-Serif" font-size="10.00">engine.FilePathUtility</text>
</a>
</g>
</g>
<!-- Node15&#45;&gt;Node14 -->
<g id="edge15" class="edge"><title>Node15&#45;&gt;Node14</title>
<path fill="none" stroke="#9a32cd" stroke-dasharray="5,2" d="M358.546,-230.221C418.394,-254.798 545.527,-307.007 608.327,-332.796"/>
<polygon fill="#9a32cd" stroke="#9a32cd" points="359.779,-226.944 349.199,-226.383 357.119,-233.419 359.779,-226.944"/>
<text text-anchor="middle" x="485" y="-308.856" font-family="Helvetica,sans-Serif" font-size="10.00"> myFilePathUtility</text>
</g>
<!-- Node15&#45;&gt;Node23 -->
<g id="edge31" class="edge"><title>Node15&#45;&gt;Node23</title>
<path fill="none" stroke="#9a32cd" stroke-dasharray="5,2" d="M387.553,-205.664C400.241,-203.562 413.534,-201.509 426,-199.856 509.703,-188.759 748.853,-167.388 868.724,-156.926"/>
<polygon fill="#9a32cd" stroke="#9a32cd" points="386.814,-202.24 377.535,-207.354 387.978,-209.142 386.814,-202.24"/>
<text text-anchor="middle" x="646" y="-187.856" font-family="Helvetica,sans-Serif" font-size="10.00"> myFilePathUtility</text>
</g>
<!-- Node16&#45;&gt;Node10 -->
<g id="edge26" class="edge"><title>Node16&#45;&gt;Node10</title>
<path fill="none" stroke="#9a32cd" stroke-dasharray="5,2" d="M706.806,-401.953C795.873,-392.789 968.5,-373.59 1114,-348.856 1132.87,-345.648 1153.62,-341.32 1171.14,-337.426"/>
<polygon fill="#9a32cd" stroke="#9a32cd" points="706.218,-398.495 696.626,-402.994 706.931,-405.459 706.218,-398.495"/>
<text text-anchor="middle" x="940" y="-387.856" font-family="Helvetica,sans-Serif" font-size="10.00"> myCurrentLevel</text>
</g>
<!-- Node16&#45;&gt;Node12 -->
<g id="edge16" class="edge"><title>Node16&#45;&gt;Node12</title>
<path fill="none" stroke="#9a32cd" stroke-dasharray="5,2" d="M706.895,-411.023C746.403,-413.147 799.293,-416.059 846,-418.856 855.69,-419.436 865.947,-420.074 875.972,-420.711"/>
<polygon fill="#9a32cd" stroke="#9a32cd" points="707.068,-407.527 696.895,-410.486 706.693,-414.517 707.068,-407.527"/>
<text text-anchor="middle" x="797" y="-421.856" font-family="Helvetica,sans-Serif" font-size="10.00"> myCurrentLevel</text>
</g>
<!-- Node17 -->
<g id="node17" class="node"><title>Node17</title>
<g id="a_node17"><a xlink:href="../../d3/d8d/classdata_1_1_observable.html" target="_top" xlink:title="data.Observable">
<polygon fill="white" stroke="black" points="277.5,-358.356 277.5,-377.356 372.5,-377.356 372.5,-358.356 277.5,-358.356"/>
<text text-anchor="middle" x="325" y="-365.356" font-family="Helvetica,sans-Serif" font-size="10.00">data.Observable</text>
</a>
</g>
</g>
<!-- Node17&#45;&gt;Node16 -->
<g id="edge17" class="edge"><title>Node17&#45;&gt;Node16</title>
<path fill="none" stroke="midnightblue" d="M382.85,-374.985C443.23,-382.556 537.733,-394.406 595.257,-401.619"/>
<polygon fill="midnightblue" stroke="midnightblue" points="383.085,-371.487 372.727,-373.715 382.214,-378.432 383.085,-371.487"/>
</g>
<!-- Node18 -->
<g id="node18" class="node"><title>Node18</title>
<polygon fill="white" stroke="#bfbfbf" points="23,-358.356 23,-377.356 161,-377.356 161,-358.356 23,-358.356"/>
<text text-anchor="middle" x="92" y="-365.356" font-family="Helvetica,sans-Serif" font-size="10.00">Vector&lt; data.Observer &gt;</text>
</g>
<!-- Node18&#45;&gt;Node17 -->
<g id="edge18" class="edge"><title>Node18&#45;&gt;Node17</title>
<path fill="none" stroke="#9a32cd" stroke-dasharray="5,2" d="M171.318,-367.856C206.521,-367.856 246.882,-367.856 277.262,-367.856"/>
<polygon fill="#9a32cd" stroke="#9a32cd" points="171.058,-364.356 161.058,-367.856 171.058,-371.356 171.058,-364.356"/>
<text text-anchor="middle" x="213" y="-370.856" font-family="Helvetica,sans-Serif" font-size="10.00"> obs</text>
</g>
<!-- Node19 -->
<g id="node19" class="node"><title>Node19</title>
<g id="a_node19"><a xlink:href="../../d1/d32/classauthoring_1_1model_1_1collections_1_1_game_objects_collection.html" target="_top" xlink:title="authoring.model.collections.\lGameObjectsCollection">
<polygon fill="white" stroke="black" points="249,-286.856 249,-316.856 401,-316.856 401,-286.856 249,-286.856"/>
<text text-anchor="start" x="257" y="-304.856" font-family="Helvetica,sans-Serif" font-size="10.00">authoring.model.collections.</text>
<text text-anchor="middle" x="325" y="-293.856" font-family="Helvetica,sans-Serif" font-size="10.00">GameObjectsCollection</text>
</a>
</g>
</g>
<!-- Node19&#45;&gt;Node7 -->
<g id="edge36" class="edge"><title>Node19&#45;&gt;Node7</title>
<path fill="none" stroke="#9a32cd" stroke-dasharray="5,2" d="M362.637,-282.175C381.17,-272.957 404.287,-262.557 426,-255.856 484.577,-237.779 501.041,-239.342 562,-232.856 806.133,-206.881 870.825,-178.071 1114,-211.856 1244.89,-230.04 1314.35,-197.559 1398,-299.856 1433.81,-343.648 1377.99,-383.963 1416,-425.856 1420.78,-431.12 1426.75,-435.041 1433.24,-437.945"/>
<polygon fill="#9a32cd" stroke="#9a32cd" points="361.003,-279.079 353.666,-286.722 364.168,-285.323 361.003,-279.079"/>
<text text-anchor="middle" x="940" y="-203.856" font-family="Helvetica,sans-Serif" font-size="10.00"> myGameObjects</text>
</g>
<!-- Node19&#45;&gt;Node10 -->
<g id="edge25" class="edge"><title>Node19&#45;&gt;Node10</title>
<path fill="none" stroke="#9a32cd" stroke-dasharray="5,2" d="M411.361,-303.982C541.715,-307.28 798.214,-313.969 1016,-320.856 1057.52,-322.169 1103.98,-323.82 1141.24,-325.189"/>
<polygon fill="#9a32cd" stroke="#9a32cd" points="411.136,-300.476 401.051,-303.722 410.96,-307.473 411.136,-300.476"/>
<text text-anchor="middle" x="797" y="-329.856" font-family="Helvetica,sans-Serif" font-size="10.00"> myTemplateObjects</text>
<text text-anchor="middle" x="797" y="-318.856" font-family="Helvetica,sans-Serif" font-size="10.00">myGameObjects</text>
</g>
<!-- Node19&#45;&gt;Node16 -->
<g id="edge21" class="edge"><title>Node19&#45;&gt;Node16</title>
<path fill="none" stroke="#9a32cd" stroke-dasharray="5,2" d="M411.115,-317.882C461.949,-328.35 520.978,-342.349 544,-354.856 553.669,-360.109 552.814,-365.798 562,-371.856 578.914,-383.011 599.858,-392.065 616.475,-398.303"/>
<polygon fill="#9a32cd" stroke="#9a32cd" points="411.568,-314.403 401.071,-315.837 410.172,-321.262 411.568,-314.403"/>
<text text-anchor="middle" x="485" y="-368.856" font-family="Helvetica,sans-Serif" font-size="10.00"> myDefaultGameObjects</text>
<text text-anchor="middle" x="485" y="-357.856" font-family="Helvetica,sans-Serif" font-size="10.00">myWorkingGameObjects</text>
</g>
<!-- Node20 -->
<g id="node20" class="node"><title>Node20</title>
<g id="a_node20"><a xlink:href="../../d4/d3b/classauthoring_1_1model_1_1collections_1_1_general_collection.html" target="_top" xlink:title="authoring.model.collections.\lGeneralCollection\&lt; GameObject \&gt;">
<polygon fill="white" stroke="black" points="0.5,-286.856 0.5,-316.856 183.5,-316.856 183.5,-286.856 0.5,-286.856"/>
<text text-anchor="start" x="8.5" y="-304.856" font-family="Helvetica,sans-Serif" font-size="10.00">authoring.model.collections.</text>
<text text-anchor="middle" x="92" y="-293.856" font-family="Helvetica,sans-Serif" font-size="10.00">GeneralCollection&lt; GameObject &gt;</text>
</a>
</g>
</g>
<!-- Node20&#45;&gt;Node19 -->
<g id="edge22" class="edge"><title>Node20&#45;&gt;Node19</title>
<path fill="none" stroke="midnightblue" d="M193.843,-301.856C212.335,-301.856 231.337,-301.856 248.91,-301.856"/>
<polygon fill="midnightblue" stroke="midnightblue" points="193.634,-298.356 183.634,-301.856 193.634,-305.356 193.634,-298.356"/>
</g>
<!-- Node21 -->
<g id="node21" class="node"><title>Node21</title>
<polygon fill="white" stroke="#bfbfbf" points="254.5,-396.856 254.5,-426.856 395.5,-426.856 395.5,-396.856 254.5,-396.856"/>
<text text-anchor="start" x="262.5" y="-414.856" font-family="Helvetica,sans-Serif" font-size="10.00">List&lt; engine.gameObject.</text>
<text text-anchor="middle" x="325" y="-403.856" font-family="Helvetica,sans-Serif" font-size="10.00">Identifier &gt;</text>
</g>
<!-- Node21&#45;&gt;Node16 -->
<g id="edge23" class="edge"><title>Node21&#45;&gt;Node16</title>
<path fill="none" stroke="#9a32cd" stroke-dasharray="5,2" d="M405.726,-410.856C465.211,-410.11 544.633,-409.115 595.312,-408.479"/>
<polygon fill="#9a32cd" stroke="#9a32cd" points="405.567,-407.358 395.612,-410.983 405.655,-414.357 405.567,-407.358"/>
<text text-anchor="middle" x="485" y="-424.856" font-family="Helvetica,sans-Serif" font-size="10.00"> myConditionIdList</text>
<text text-anchor="middle" x="485" y="-413.856" font-family="Helvetica,sans-Serif" font-size="10.00">myGameObjectIdList</text>
</g>
<!-- Node22 -->
<g id="node22" class="node"><title>Node22</title>
<polygon fill="white" stroke="#bfbfbf" points="623,-494.356 623,-513.356 669,-513.356 669,-494.356 623,-494.356"/>
<text text-anchor="middle" x="646" y="-501.356" font-family="Helvetica,sans-Serif" font-size="10.00">Group</text>
</g>
<!-- Node22&#45;&gt;Node7 -->
<g id="edge38" class="edge"><title>Node22&#45;&gt;Node7</title>
<path fill="none" stroke="#9a32cd" stroke-dasharray="5,2" d="M679.159,-503.395C718.522,-502.714 787.202,-501.145 846,-497.856 1062.38,-485.753 1318.69,-461.992 1433.32,-450.868"/>
<polygon fill="#9a32cd" stroke="#9a32cd" points="679.043,-499.896 669.102,-503.561 679.158,-506.896 679.043,-499.896"/>
<text text-anchor="middle" x="1074" y="-488.856" font-family="Helvetica,sans-Serif" font-size="10.00"> myRootGroup</text>
</g>
<!-- Node22&#45;&gt;Node12 -->
<g id="edge24" class="edge"><title>Node22&#45;&gt;Node12</title>
<path fill="none" stroke="#9a32cd" stroke-dasharray="5,2" d="M678.857,-497.659C718.395,-489.701 787.726,-474.87 846,-457.856 869.517,-450.99 895.78,-441.498 914.383,-434.455"/>
<polygon fill="#9a32cd" stroke="#9a32cd" points="678.123,-494.236 669.001,-499.624 679.492,-501.101 678.123,-494.236"/>
<text text-anchor="middle" x="797" y="-485.856" font-family="Helvetica,sans-Serif" font-size="10.00"> myCanvas</text>
</g>
<!-- Node23&#45;&gt;Node7 -->
<g id="edge39" class="edge"><title>Node23&#45;&gt;Node7</title>
<path fill="none" stroke="#9a32cd" stroke-dasharray="5,2" d="M1021.42,-144.469C1138.57,-137.111 1347.7,-131.964 1398,-183.856 1435.53,-222.577 1381.13,-384.717 1416,-425.856 1420.69,-431.385 1426.69,-435.452 1433.27,-438.422"/>
<polygon fill="#9a32cd" stroke="#9a32cd" points="1021.17,-140.978 1011.42,-145.117 1021.63,-147.963 1021.17,-140.978"/>
<text text-anchor="middle" x="1213" y="-150.856" font-family="Helvetica,sans-Serif" font-size="10.00"> mySoundUtility</text>
</g>
<!-- Node23&#45;&gt;Node10 -->
<g id="edge27" class="edge"><title>Node23&#45;&gt;Node10</title>
<path fill="none" stroke="#9a32cd" stroke-dasharray="5,2" d="M976.182,-164.342C989.037,-169.782 1003.49,-176.513 1016,-183.856 1063.07,-211.477 1070.68,-224.657 1114,-257.856 1122.04,-264.021 1123.85,-265.837 1132,-271.856 1154.78,-288.67 1181.88,-307.378 1197.97,-318.354"/>
<polygon fill="#9a32cd" stroke="#9a32cd" points="977.301,-161.018 966.721,-160.445 974.634,-167.49 977.301,-161.018"/>
<text text-anchor="middle" x="1074" y="-260.856" font-family="Helvetica,sans-Serif" font-size="10.00"> mySoundPlayer</text>
</g>
<!-- Node24 -->
<g id="node24" class="node"><title>Node24</title>
<polygon fill="white" stroke="#bfbfbf" points="570,-81.356 570,-100.356 722,-100.356 722,-81.356 570,-81.356"/>
<text text-anchor="middle" x="646" y="-88.356" font-family="Helvetica,sans-Serif" font-size="10.00">Map&lt; String, MediaPlayer &gt;</text>
</g>
<!-- Node24&#45;&gt;Node23 -->
<g id="edge29" class="edge"><title>Node24&#45;&gt;Node23</title>
<path fill="none" stroke="#9a32cd" stroke-dasharray="5,2" d="M732.447,-101.343C767.818,-106.413 809.113,-113.281 846,-121.856 868.569,-127.102 893.616,-135.039 912.026,-141.284"/>
<polygon fill="#9a32cd" stroke="#9a32cd" points="732.546,-97.8221 722.156,-99.8936 731.57,-104.754 732.546,-97.8221"/>
<text text-anchor="middle" x="797" y="-124.856" font-family="Helvetica,sans-Serif" font-size="10.00"> myMediaPlayerMap</text>
</g>
<!-- Node25 -->
<g id="node25" class="node"><title>Node25</title>
<polygon fill="white" stroke="#bfbfbf" points="577,-119.356 577,-138.356 715,-138.356 715,-119.356 577,-119.356"/>
<text text-anchor="middle" x="646" y="-126.356" font-family="Helvetica,sans-Serif" font-size="10.00">Map&lt; String, AudioClip &gt;</text>
</g>
<!-- Node25&#45;&gt;Node23 -->
<g id="edge30" class="edge"><title>Node25&#45;&gt;Node23</title>
<path fill="none" stroke="#9a32cd" stroke-dasharray="5,2" d="M725.323,-134.757C769.992,-138.123 825.515,-142.306 868.767,-145.565"/>
<polygon fill="#9a32cd" stroke="#9a32cd" points="725.327,-131.248 715.093,-133.986 724.801,-138.228 725.327,-131.248"/>
<text text-anchor="middle" x="797" y="-146.856" font-family="Helvetica,sans-Serif" font-size="10.00"> myAudioClipMap</text>
</g>
<!-- Node26 -->
<g id="node26" class="node"><title>Node26</title>
<g id="a_node26"><a xlink:href="../../db/d2a/classauthoring_1_1model_1_1collections_1_1_conditions_collection.html" target="_top" xlink:title="authoring.model.collections.\lConditionsCollection">
<polygon fill="white" stroke="black" points="864,-242.856 864,-272.856 1016,-272.856 1016,-242.856 864,-242.856"/>
<text text-anchor="start" x="872" y="-260.856" font-family="Helvetica,sans-Serif" font-size="10.00">authoring.model.collections.</text>
<text text-anchor="middle" x="940" y="-249.856" font-family="Helvetica,sans-Serif" font-size="10.00">ConditionsCollection</text>
</a>
</g>
</g>
<!-- Node26&#45;&gt;Node7 -->
<g id="edge40" class="edge"><title>Node26&#45;&gt;Node7</title>
<path fill="none" stroke="#9a32cd" stroke-dasharray="5,2" d="M1026.17,-258.197C1098.91,-260.666 1205.51,-269.5 1294,-297.856 1343.4,-313.687 1365.89,-310.113 1398,-350.856 1419.22,-377.778 1391.8,-401.575 1416,-425.856 1420.92,-430.792 1426.89,-434.525 1433.32,-437.336"/>
<polygon fill="#9a32cd" stroke="#9a32cd" points="1026.23,-254.697 1016.13,-257.889 1026.02,-261.694 1026.23,-254.697"/>
<text text-anchor="middle" x="1213" y="-300.856" font-family="Helvetica,sans-Serif" font-size="10.00"> myGameConditions</text>
</g>
<!-- Node26&#45;&gt;Node10 -->
<g id="edge32" class="edge"><title>Node26&#45;&gt;Node10</title>
<path fill="none" stroke="#9a32cd" stroke-dasharray="5,2" d="M1026.01,-271.056C1054.25,-276.239 1085.7,-282.879 1114,-290.856 1140.61,-298.356 1170.17,-309.993 1189.79,-318.211"/>
<polygon fill="#9a32cd" stroke="#9a32cd" points="1026.63,-267.611 1016.17,-269.284 1025.39,-274.5 1026.63,-267.611"/>
<text text-anchor="middle" x="1074" y="-293.856" font-family="Helvetica,sans-Serif" font-size="10.00"> myConditions</text>
</g>
<!-- Node27 -->
<g id="node27" class="node"><title>Node27</title>
<g id="a_node27"><a xlink:href="../../d4/d3b/classauthoring_1_1model_1_1collections_1_1_general_collection.html" target="_top" xlink:title="authoring.model.collections.\lGeneralCollection\&lt; Condition \&gt;">
<polygon fill="white" stroke="black" points="562,-242.856 562,-272.856 730,-272.856 730,-242.856 562,-242.856"/>
<text text-anchor="start" x="570" y="-260.856" font-family="Helvetica,sans-Serif" font-size="10.00">authoring.model.collections.</text>
<text text-anchor="middle" x="646" y="-249.856" font-family="Helvetica,sans-Serif" font-size="10.00">GeneralCollection&lt; Condition &gt;</text>
</a>
</g>
</g>
<!-- Node27&#45;&gt;Node26 -->
<g id="edge33" class="edge"><title>Node27&#45;&gt;Node26</title>
<path fill="none" stroke="midnightblue" d="M740.523,-257.856C780.286,-257.856 826.039,-257.856 863.588,-257.856"/>
<polygon fill="midnightblue" stroke="midnightblue" points="740.285,-254.356 730.285,-257.856 740.285,-261.356 740.285,-254.356"/>
</g>
<!-- Node28 -->
<g id="node28" class="node"><title>Node28</title>
<polygon fill="white" stroke="#bfbfbf" points="1185,-530.356 1185,-549.356 1241,-549.356 1241,-530.356 1185,-530.356"/>
<text text-anchor="middle" x="1213" y="-537.356" font-family="Helvetica,sans-Serif" font-size="10.00">Timeline</text>
</g>
<!-- Node28&#45;&gt;Node7 -->
<g id="edge34" class="edge"><title>Node28&#45;&gt;Node7</title>
<path fill="none" stroke="#9a32cd" stroke-dasharray="5,2" d="M1251.24,-537.828C1289.29,-534.745 1349.49,-527.033 1398,-507.856 1431.56,-494.591 1465.65,-468.59 1482.75,-454.494"/>
<polygon fill="#9a32cd" stroke="#9a32cd" points="1250.84,-534.348 1241.13,-538.581 1251.36,-541.329 1250.84,-534.348"/>
<text text-anchor="middle" x="1355" y="-533.856" font-family="Helvetica,sans-Serif" font-size="10.00"> myAnimation</text>
</g>
<!-- Node29 -->
<g id="node29" class="node"><title>Node29</title>
<polygon fill="white" stroke="#bfbfbf" points="1132.5,-492.356 1132.5,-511.356 1293.5,-511.356 1293.5,-492.356 1132.5,-492.356"/>
<text text-anchor="middle" x="1213" y="-499.356" font-family="Helvetica,sans-Serif" font-size="10.00">EventHandler&lt; ActionEvent &gt;</text>
</g>
<!-- Node29&#45;&gt;Node7 -->
<g id="edge37" class="edge"><title>Node29&#45;&gt;Node7</title>
<path fill="none" stroke="#9a32cd" stroke-dasharray="5,2" d="M1303.95,-493.793C1334.08,-490.121 1367.71,-484.961 1398,-477.856 1423.22,-471.94 1451.13,-461.937 1470.33,-454.491"/>
<polygon fill="#9a32cd" stroke="#9a32cd" points="1303.4,-490.334 1293.88,-494.981 1304.22,-497.285 1303.4,-490.334"/>
<text text-anchor="middle" x="1355" y="-495.856" font-family="Helvetica,sans-Serif" font-size="10.00"> oneFrame</text>
</g>
<!-- Node30 -->
<g id="node30" class="node"><title>Node30</title>
<polygon fill="white" stroke="#bfbfbf" points="1416,-397.356 1416,-416.356 1574,-416.356 1574,-397.356 1416,-397.356"/>
<text text-anchor="middle" x="1495" y="-404.356" font-family="Helvetica,sans-Serif" font-size="10.00">List&lt; engine.actions.Action &gt;</text>
</g>
<!-- Node30&#45;&gt;Node1 -->
<g id="edge43" class="edge"><title>Node30&#45;&gt;Node1</title>
<path fill="none" stroke="#9a32cd" stroke-dasharray="5,2" d="M1584.28,-413.446C1684.85,-420.955 1846.97,-433.058 1937.8,-439.839"/>
<polygon fill="#9a32cd" stroke="#9a32cd" points="1584.37,-409.944 1574.14,-412.69 1583.85,-416.924 1584.37,-409.944"/>
<text text-anchor="middle" x="1775" y="-436.856" font-family="Helvetica,sans-Serif" font-size="10.00"> myReleaseActions</text>
</g>
<!-- Node30&#45;&gt;Node2 -->
<g id="edge41" class="edge"><title>Node30&#45;&gt;Node2</title>
<path fill="none" stroke="#9a32cd" stroke-dasharray="5,2" d="M1566.61,-420.965C1569.19,-422.44 1571.67,-424.065 1574,-425.856 1587.25,-436.036 1579.13,-448.201 1592,-458.856 1624.37,-485.658 1644.61,-468.669 1682,-487.856 1714.16,-504.359 1747.09,-531.766 1763.44,-546.232"/>
<polygon fill="#9a32cd" stroke="#9a32cd" points="1568,-417.751 1557.48,-416.513 1564.93,-424.043 1568,-417.751"/>
<text text-anchor="middle" x="1637" y="-490.856" font-family="Helvetica,sans-Serif" font-size="10.00"> myActions</text>
</g>
<!-- Node31 -->
<g id="node31" class="node"><title>Node31</title>
<polygon fill="white" stroke="#bfbfbf" points="1434,-660.356 1434,-679.356 1556,-679.356 1556,-660.356 1434,-660.356"/>
<text text-anchor="middle" x="1495" y="-667.356" font-family="Helvetica,sans-Serif" font-size="10.00">Map&lt; String, String &gt;</text>
</g>
<!-- Node31&#45;&gt;Node2 -->
<g id="edge42" class="edge"><title>Node31&#45;&gt;Node2</title>
<path fill="none" stroke="#9a32cd" stroke-dasharray="5,2" d="M1566.59,-671.233C1602.69,-669.395 1646.4,-663.113 1682,-645.856 1721.21,-626.851 1754.06,-584.579 1767.5,-565.514"/>
<polygon fill="#9a32cd" stroke="#9a32cd" points="1565.99,-667.754 1556.14,-671.653 1566.27,-674.748 1565.99,-667.754"/>
<text text-anchor="middle" x="1637" y="-672.856" font-family="Helvetica,sans-Serif" font-size="10.00"> myInputs</text>
</g>
<!-- Node32 -->
<g id="node32" class="node"><title>Node32</title>
<polygon fill="white" stroke="#bfbfbf" points="1726.5,-389.356 1726.5,-408.356 1823.5,-408.356 1823.5,-389.356 1726.5,-389.356"/>
<text text-anchor="middle" x="1775" y="-396.356" font-family="Helvetica,sans-Serif" font-size="10.00">List&lt; KeyCode &gt;</text>
</g>
<!-- Node32&#45;&gt;Node1 -->
<g id="edge44" class="edge"><title>Node32&#45;&gt;Node1</title>
<path fill="none" stroke="#9a32cd" stroke-dasharray="5,2" d="M1833.88,-405.4C1860.3,-408.871 1891.89,-413.705 1920,-419.856 1932.47,-422.585 1945.79,-426.173 1958.1,-429.775"/>
<polygon fill="#9a32cd" stroke="#9a32cd" points="1834.01,-401.888 1823.65,-404.089 1833.12,-408.832 1834.01,-401.888"/>
<text text-anchor="middle" x="1894" y="-422.856" font-family="Helvetica,sans-Serif" font-size="10.00"> myKeyList</text>
</g>
</g>
</svg>
