<?xml version="1.0" encoding="UTF-8" standalone="no"?>
<!DOCTYPE svg PUBLIC "-//W3C//DTD SVG 1.1//EN"
 "http://www.w3.org/Graphics/SVG/1.1/DTD/svg11.dtd">
<!-- Generated by graphviz version 2.36.0 (20140111.2315)
 -->
<!-- Title: authoring.view.icons.GameObjectIcon Pages: 1 -->
<!--zoomable 629 -->
<svg id="main" version="1.1" xmlns="http://www.w3.org/2000/svg" xmlns:xlink="http://www.w3.org/1999/xlink" xml:space="preserve" onload="init(evt)">
<style type="text/css"><![CDATA[
.edge:hover path { stroke: red; }
.edge:hover polygon { stroke: red; fill: red; }
]]></style>
<script type="text/javascript"><![CDATA[
var edges = document.getElementsByTagName('g');
if (edges && edges.length) {
  for (var i=0;i<edges.length;i++) {
    if (edges[i].id.substr(0,4)=='edge') {
      edges[i].setAttribute('class','edge');
    }
  }
}
]]></script>
        <defs>
                <circle id="rim" cx="0" cy="0" r="7"/>
                <circle id="rim2" cx="0" cy="0" r="3.5"/>
                <g id="zoomPlus">
                        <use xlink:href="#rim" fill="#404040">
                                <set attributeName="fill" to="#808080" begin="zoomplus.mouseover" end="zoomplus.mouseout"/>
                        </use>
                        <path d="M-4,0h8M0,-4v8" fill="none" stroke="white" stroke-width="1.5" pointer-events="none"/>
                </g>
                <g id="zoomMin">
                        <use xlink:href="#rim" fill="#404040">
                                <set attributeName="fill" to="#808080" begin="zoomminus.mouseover" end="zoomminus.mouseout"/>
                        </use>
                        <path d="M-4,0h8" fill="none" stroke="white" stroke-width="1.5" pointer-events="none"/>
                </g>
                <g id="dirArrow">
                        <path fill="none" stroke="white" stroke-width="1.5" d="M0,-3.0v7 M-2.5,-0.5L0,-3.0L2.5,-0.5"/>
                </g>
               <g id="resetDef">
                       <use xlink:href="#rim2" fill="#404040">
                               <set attributeName="fill" to="#808080" begin="reset.mouseover" end="reset.mouseout"/>
                       </use>
               </g>
        </defs>

<script type="text/javascript">
var viewWidth = 1588;
var viewHeight = 629;
var sectionId = 'dynsection-1';
</script>
<script xlink:href="../../svgpan.js"/>
<svg id="graph" class="graph">
<g id="viewport">
<title>authoring.view.icons.GameObjectIcon</title>
<polygon fill="white" stroke="none" points="-4,4 -4,-625.129 1584,-625.129 1584,4 -4,4"/>
<!-- Node1 -->
<g id="node1" class="node"><title>Node1</title>
<polygon fill="#bfbfbf" stroke="black" points="1434.5,-350.129 1434.5,-380.129 1579.5,-380.129 1579.5,-350.129 1434.5,-350.129"/>
<text text-anchor="start" x="1442.5" y="-368.129" font-family="Helvetica,sans-Serif" font-size="10.00">authoring.view.icons.Game</text>
<text text-anchor="middle" x="1507" y="-357.129" font-family="Helvetica,sans-Serif" font-size="10.00">ObjectIcon</text>
</g>
<!-- Node2 -->
<g id="node2" class="node"><title>Node2</title>
<g id="a_node2"><a xlink:href="../../d5/d47/classauthoring_1_1view_1_1icons_1_1_image_based_icon.html" target="_top" xlink:title="authoring.view.icons.Image\lBasedIcon">
<polygon fill="white" stroke="black" points="1158,-451.129 1158,-481.129 1304,-481.129 1304,-451.129 1158,-451.129"/>
<text text-anchor="start" x="1166" y="-469.129" font-family="Helvetica,sans-Serif" font-size="10.00">authoring.view.icons.Image</text>
<text text-anchor="middle" x="1231" y="-458.129" font-family="Helvetica,sans-Serif" font-size="10.00">BasedIcon</text>
</a>
</g>
</g>
<!-- Node2&#45;&gt;Node1 -->
<g id="edge1" class="edge"><title>Node2&#45;&gt;Node1</title>
<path fill="none" stroke="midnightblue" d="M1282.18,-447.631C1334.73,-428.262 1416.25,-398.211 1465.05,-380.223"/>
<polygon fill="midnightblue" stroke="midnightblue" points="1280.9,-444.375 1272.72,-451.118 1283.32,-450.943 1280.9,-444.375"/>
</g>
<!-- Node3 -->
<g id="node3" class="node"><title>Node3</title>
<g id="a_node3"><a xlink:href="../../de/d21/classauthoring_1_1view_1_1icons_1_1_file_icon.html" target="_top" xlink:title="authoring.view.icons.FileIcon">
<polygon fill="white" stroke="black" points="855,-542.629 855,-561.629 1005,-561.629 1005,-542.629 855,-542.629"/>
<text text-anchor="middle" x="930" y="-549.629" font-family="Helvetica,sans-Serif" font-size="10.00">authoring.view.icons.FileIcon</text>
</a>
</g>
</g>
<!-- Node3&#45;&gt;Node2 -->
<g id="edge2" class="edge"><title>Node3&#45;&gt;Node2</title>
<path fill="none" stroke="midnightblue" d="M1015.45,-548.735C1050.39,-545.438 1090.87,-539.123 1126,-527.129 1157.5,-516.376 1189.99,-495.449 1210.09,-481.134"/>
<polygon fill="midnightblue" stroke="midnightblue" points="1014.93,-545.267 1005.28,-549.625 1015.54,-552.24 1014.93,-545.267"/>
</g>
<!-- Node4 -->
<g id="node4" class="node"><title>Node4</title>
<g id="a_node4"><a xlink:href="../../dd/db4/classauthoring_1_1view_1_1icons_1_1_base_icon.html" target="_top" xlink:title="authoring.view.icons.BaseIcon">
<polygon fill="white" stroke="black" points="508.5,-562.629 508.5,-581.629 667.5,-581.629 667.5,-562.629 508.5,-562.629"/>
<text text-anchor="middle" x="588" y="-569.629" font-family="Helvetica,sans-Serif" font-size="10.00">authoring.view.icons.BaseIcon</text>
</a>
</g>
</g>
<!-- Node4&#45;&gt;Node3 -->
<g id="edge3" class="edge"><title>Node4&#45;&gt;Node3</title>
<path fill="none" stroke="midnightblue" d="M677.959,-566.896C733.023,-563.657 802.896,-559.547 854.937,-556.486"/>
<polygon fill="midnightblue" stroke="midnightblue" points="677.635,-563.409 667.857,-567.491 678.046,-570.397 677.635,-563.409"/>
</g>
<!-- Node5 -->
<g id="node5" class="node"><title>Node5</title>
<polygon fill="white" stroke="#bfbfbf" points="284.5,-541.629 284.5,-560.629 325.5,-560.629 325.5,-541.629 284.5,-541.629"/>
<text text-anchor="middle" x="305" y="-548.629" font-family="Helvetica,sans-Serif" font-size="10.00">VBox</text>
</g>
<!-- Node5&#45;&gt;Node4 -->
<g id="edge4" class="edge"><title>Node5&#45;&gt;Node4</title>
<path fill="none" stroke="midnightblue" d="M335.833,-553.359C376.562,-556.403 451.053,-561.97 508.374,-566.253"/>
<polygon fill="midnightblue" stroke="midnightblue" points="335.992,-549.861 325.759,-552.606 335.471,-556.842 335.992,-549.861"/>
</g>
<!-- Node6 -->
<g id="node6" class="node"><title>Node6</title>
<g id="a_node6"><a xlink:href="../../d3/d6a/interfaceauthoring_1_1eventhandlers_1_1_game_handler.html" target="_top" xlink:title="authoring.eventhandlers.\lGameHandler\&lt; T extends\l Event \&gt;">
<polygon fill="white" stroke="black" points="234.5,-579.629 234.5,-620.629 375.5,-620.629 375.5,-579.629 234.5,-579.629"/>
<text text-anchor="start" x="242.5" y="-608.629" font-family="Helvetica,sans-Serif" font-size="10.00">authoring.eventhandlers.</text>
<text text-anchor="start" x="242.5" y="-597.629" font-family="Helvetica,sans-Serif" font-size="10.00">GameHandler&lt; T extends</text>
<text text-anchor="middle" x="305" y="-586.629" font-family="Helvetica,sans-Serif" font-size="10.00"> Event &gt;</text>
</a>
</g>
</g>
<!-- Node6&#45;&gt;Node4 -->
<g id="edge5" class="edge"><title>Node6&#45;&gt;Node4</title>
<path fill="none" stroke="#9a32cd" stroke-dasharray="5,2" d="M385.922,-592.166C424.305,-588.341 470.148,-583.773 508.363,-579.965"/>
<polygon fill="#9a32cd" stroke="#9a32cd" points="385.425,-588.698 375.822,-593.172 386.12,-595.663 385.425,-588.698"/>
<text text-anchor="middle" x="441" y="-591.129" font-family="Helvetica,sans-Serif" font-size="10.00"> myOnClick</text>
</g>
<!-- Node7 -->
<g id="node7" class="node"><title>Node7</title>
<polygon fill="white" stroke="#bfbfbf" points="0,-590.629 0,-609.629 176,-609.629 176,-590.629 0,-590.629"/>
<text text-anchor="middle" x="88" y="-597.629" font-family="Helvetica,sans-Serif" font-size="10.00">javafx::event::EventHandler&lt; T &gt;</text>
</g>
<!-- Node7&#45;&gt;Node6 -->
<g id="edge6" class="edge"><title>Node7&#45;&gt;Node6</title>
<path fill="none" stroke="midnightblue" d="M186.169,-600.129C202.366,-600.129 218.879,-600.129 234.218,-600.129"/>
<polygon fill="midnightblue" stroke="midnightblue" points="186.139,-596.629 176.139,-600.129 186.139,-603.629 186.139,-596.629"/>
</g>
<!-- Node8 -->
<g id="node8" class="node"><title>Node8</title>
<polygon fill="white" stroke="#bfbfbf" points="572,-514.629 572,-533.629 604,-533.629 604,-514.629 572,-514.629"/>
<text text-anchor="middle" x="588" y="-521.629" font-family="Helvetica,sans-Serif" font-size="10.00">File</text>
</g>
<!-- Node8&#45;&gt;Node3 -->
<g id="edge7" class="edge"><title>Node8&#45;&gt;Node3</title>
<path fill="none" stroke="#9a32cd" stroke-dasharray="5,2" d="M614.313,-526.214C664.578,-530.353 778.684,-539.75 854.781,-546.017"/>
<polygon fill="#9a32cd" stroke="#9a32cd" points="614.302,-522.701 604.048,-525.369 613.727,-529.678 614.302,-522.701"/>
<text text-anchor="middle" x="766" y="-545.129" font-family="Helvetica,sans-Serif" font-size="10.00"> myGameLocation</text>
</g>
<!-- Node10 -->
<g id="node10" class="node"><title>Node10</title>
<g id="a_node10"><a xlink:href="../../d0/d7f/classengine_1_1game_object_1_1_game_object.html" target="_top" xlink:title="engine.gameObject.GameObject">
<polygon fill="white" stroke="black" points="1144.5,-197.629 1144.5,-216.629 1317.5,-216.629 1317.5,-197.629 1144.5,-197.629"/>
<text text-anchor="middle" x="1231" y="-204.629" font-family="Helvetica,sans-Serif" font-size="10.00">engine.gameObject.GameObject</text>
</a>
</g>
</g>
<!-- Node8&#45;&gt;Node10 -->
<g id="edge23" class="edge"><title>Node8&#45;&gt;Node10</title>
<path fill="none" stroke="#9a32cd" stroke-dasharray="5,2" d="M614.798,-524.144C696.449,-523.791 947.95,-519.54 1018,-481.129 1135.34,-416.788 1208.86,-257.309 1226.09,-216.672"/>
<polygon fill="#9a32cd" stroke="#9a32cd" points="614.432,-520.645 604.441,-524.171 614.45,-527.645 614.432,-520.645"/>
<text text-anchor="middle" x="930" y="-518.129" font-family="Helvetica,sans-Serif" font-size="10.00"> gameLocationFile</text>
</g>
<!-- Node9 -->
<g id="node9" class="node"><title>Node9</title>
<polygon fill="white" stroke="#bfbfbf" points="554,-454.629 554,-473.629 622,-473.629 622,-454.629 554,-454.629"/>
<text text-anchor="middle" x="588" y="-461.629" font-family="Helvetica,sans-Serif" font-size="10.00">ImageView</text>
</g>
<!-- Node9&#45;&gt;Node2 -->
<g id="edge8" class="edge"><title>Node9&#45;&gt;Node2</title>
<path fill="none" stroke="#9a32cd" stroke-dasharray="5,2" d="M632.336,-464.265C740.612,-464.602 1023.85,-465.486 1157.81,-465.904"/>
<polygon fill="#9a32cd" stroke="#9a32cd" points="632.124,-460.764 622.113,-464.233 632.102,-467.764 632.124,-460.764"/>
<text text-anchor="middle" x="930" y="-469.129" font-family="Helvetica,sans-Serif" font-size="10.00"> myImageView</text>
</g>
<!-- Node19 -->
<g id="node19" class="node"><title>Node19</title>
<g id="a_node19"><a xlink:href="../../d2/d82/classengine_1_1render_1_1_rendered_node.html" target="_top" xlink:title="engine.render.RenderedNode">
<polygon fill="white" stroke="black" points="852,-371.629 852,-390.629 1008,-390.629 1008,-371.629 852,-371.629"/>
<text text-anchor="middle" x="930" y="-378.629" font-family="Helvetica,sans-Serif" font-size="10.00">engine.render.RenderedNode</text>
</a>
</g>
</g>
<!-- Node9&#45;&gt;Node19 -->
<g id="edge21" class="edge"><title>Node9&#45;&gt;Node19</title>
<path fill="none" stroke="#9a32cd" stroke-dasharray="5,2" d="M632.258,-455.69C689.791,-444.365 788.374,-424.582 824,-415.129 850.854,-408.004 880.973,-398.042 902.044,-390.744"/>
<polygon fill="#9a32cd" stroke="#9a32cd" points="631.498,-452.272 622.361,-457.634 632.848,-459.141 631.498,-452.272"/>
<text text-anchor="middle" x="766" y="-443.129" font-family="Helvetica,sans-Serif" font-size="10.00"> myImageView</text>
</g>
<!-- Node10&#45;&gt;Node1 -->
<g id="edge9" class="edge"><title>Node10&#45;&gt;Node1</title>
<path fill="none" stroke="#9a32cd" stroke-dasharray="5,2" d="M1257.66,-221.926C1309.75,-251.964 1427.4,-319.802 1479.87,-350.064"/>
<polygon fill="#9a32cd" stroke="#9a32cd" points="1259.14,-218.738 1248.73,-216.775 1255.64,-224.803 1259.14,-218.738"/>
<text text-anchor="middle" x="1376" y="-313.129" font-family="Helvetica,sans-Serif" font-size="10.00"> myGameObject</text>
</g>
<!-- Node11 -->
<g id="node11" class="node"><title>Node11</title>
<g id="a_node11"><a xlink:href="../../d7/de6/interfaceengine_1_1game_object_1_1_i_enabled.html" target="_top" xlink:title="engine.gameObject.IEnabled">
<polygon fill="white" stroke="black" points="853,-235.629 853,-254.629 1007,-254.629 1007,-235.629 853,-235.629"/>
<text text-anchor="middle" x="930" y="-242.629" font-family="Helvetica,sans-Serif" font-size="10.00">engine.gameObject.IEnabled</text>
</a>
</g>
</g>
<!-- Node11&#45;&gt;Node10 -->
<g id="edge10" class="edge"><title>Node11&#45;&gt;Node10</title>
<path fill="none" stroke="midnightblue" d="M1017.74,-234.668C1051.54,-230.535 1090.59,-225.692 1126,-221.129 1137.02,-219.709 1148.7,-218.171 1160.09,-216.652"/>
<polygon fill="midnightblue" stroke="midnightblue" points="1016.93,-231.24 1007.43,-235.926 1017.78,-238.189 1016.93,-231.24"/>
</g>
<!-- Node12 -->
<g id="node12" class="node"><title>Node12</title>
<polygon fill="white" stroke="#bfbfbf" points="864.5,-197.629 864.5,-216.629 995.5,-216.629 995.5,-197.629 864.5,-197.629"/>
<text text-anchor="middle" x="930" y="-204.629" font-family="Helvetica,sans-Serif" font-size="10.00">Iterable&lt; Component &gt;</text>
</g>
<!-- Node12&#45;&gt;Node10 -->
<g id="edge11" class="edge"><title>Node12&#45;&gt;Node10</title>
<path fill="none" stroke="midnightblue" d="M1005.69,-207.129C1047.79,-207.129 1100.55,-207.129 1144.32,-207.129"/>
<polygon fill="midnightblue" stroke="midnightblue" points="1005.51,-203.629 995.51,-207.129 1005.51,-210.629 1005.51,-203.629"/>
</g>
<!-- Node13 -->
<g id="node13" class="node"><title>Node13</title>
<g id="a_node13"><a xlink:href="../../dc/df6/interfaceengine_1_1game_object_1_1_identifiable.html" target="_top" xlink:title="engine.gameObject.Identifiable">
<polygon fill="white" stroke="black" points="847.5,-159.629 847.5,-178.629 1012.5,-178.629 1012.5,-159.629 847.5,-159.629"/>
<text text-anchor="middle" x="930" y="-166.629" font-family="Helvetica,sans-Serif" font-size="10.00">engine.gameObject.Identifiable</text>
</a>
</g>
</g>
<!-- Node13&#45;&gt;Node10 -->
<g id="edge12" class="edge"><title>Node13&#45;&gt;Node10</title>
<path fill="none" stroke="midnightblue" d="M1016.13,-179.949C1059.96,-185.519 1112.91,-192.249 1155.16,-197.618"/>
<polygon fill="midnightblue" stroke="midnightblue" points="1016.43,-176.458 1006.06,-178.669 1015.54,-183.402 1016.43,-176.458"/>
</g>
<!-- Node14 -->
<g id="node14" class="node"><title>Node14</title>
<g id="a_node14"><a xlink:href="../../d4/dac/classengine_1_1game_object_1_1_identifier.html" target="_top" xlink:title="engine.gameObject.Identifier">
<polygon fill="white" stroke="black" points="852.5,-121.629 852.5,-140.629 1007.5,-140.629 1007.5,-121.629 852.5,-121.629"/>
<text text-anchor="middle" x="930" y="-128.629" font-family="Helvetica,sans-Serif" font-size="10.00">engine.gameObject.Identifier</text>
</a>
</g>
</g>
<!-- Node14&#45;&gt;Node10 -->
<g id="edge13" class="edge"><title>Node14&#45;&gt;Node10</title>
<path fill="none" stroke="#9a32cd" stroke-dasharray="5,2" d="M1006.28,-142.317C1042.77,-148.523 1087.03,-157.211 1126,-168.129 1154.78,-176.192 1186.84,-188.789 1207.65,-197.473"/>
<polygon fill="#9a32cd" stroke="#9a32cd" points="1006.64,-138.829 996.2,-140.632 1005.49,-145.733 1006.64,-138.829"/>
<text text-anchor="middle" x="1081" y="-171.129" font-family="Helvetica,sans-Serif" font-size="10.00"> myId</text>
</g>
<!-- Node15 -->
<g id="node15" class="node"><title>Node15</title>
<polygon fill="white" stroke="#bfbfbf" points="560,-118.629 560,-137.629 616,-137.629 616,-118.629 560,-118.629"/>
<text text-anchor="middle" x="588" y="-125.629" font-family="Helvetica,sans-Serif" font-size="10.00">Random</text>
</g>
<!-- Node15&#45;&gt;Node14 -->
<g id="edge14" class="edge"><title>Node15&#45;&gt;Node14</title>
<path fill="none" stroke="#9a32cd" stroke-dasharray="5,2" d="M626.424,-128.46C680.567,-128.937 781.959,-129.832 852.37,-130.453"/>
<polygon fill="#9a32cd" stroke="#9a32cd" points="626.279,-124.958 616.249,-128.37 626.218,-131.958 626.279,-124.958"/>
<text text-anchor="middle" x="766" y="-134.129" font-family="Helvetica,sans-Serif" font-size="10.00"> r</text>
</g>
<!-- Node16 -->
<g id="node16" class="node"><title>Node16</title>
<g id="a_node16"><a xlink:href="../../da/d35/classengine_1_1scrolling_1_1_scrolling_utility.html" target="_top" xlink:title="engine.scrolling.Scrolling\lUtility">
<polygon fill="white" stroke="black" points="863,-72.1293 863,-102.129 997,-102.129 997,-72.1293 863,-72.1293"/>
<text text-anchor="start" x="871" y="-90.1293" font-family="Helvetica,sans-Serif" font-size="10.00">engine.scrolling.Scrolling</text>
<text text-anchor="middle" x="930" y="-79.1293" font-family="Helvetica,sans-Serif" font-size="10.00">Utility</text>
</a>
</g>
</g>
<!-- Node16&#45;&gt;Node10 -->
<g id="edge15" class="edge"><title>Node16&#45;&gt;Node10</title>
<path fill="none" stroke="#9a32cd" stroke-dasharray="5,2" d="M1007.34,-98.6471C1044.26,-105.923 1088.58,-117.226 1126,-134.129 1163.39,-151.02 1201.35,-181.902 1219.31,-197.529"/>
<polygon fill="#9a32cd" stroke="#9a32cd" points="1007.61,-95.1361 997.131,-96.7005 1006.3,-102.012 1007.61,-95.1361"/>
<text text-anchor="middle" x="1081" y="-137.129" font-family="Helvetica,sans-Serif" font-size="10.00"> myScrollingUtility</text>
</g>
<!-- Node17 -->
<g id="node17" class="node"><title>Node17</title>
<polygon fill="white" stroke="#bfbfbf" points="560.5,-77.6293 560.5,-96.6293 615.5,-96.6293 615.5,-77.6293 560.5,-77.6293"/>
<text text-anchor="middle" x="588" y="-84.6293" font-family="Helvetica,sans-Serif" font-size="10.00">Camera</text>
</g>
<!-- Node17&#45;&gt;Node16 -->
<g id="edge16" class="edge"><title>Node17&#45;&gt;Node16</title>
<path fill="none" stroke="#9a32cd" stroke-dasharray="5,2" d="M625.967,-87.1293C682.691,-87.1293 792.038,-87.1293 862.701,-87.1293"/>
<polygon fill="#9a32cd" stroke="#9a32cd" points="625.679,-83.6294 615.679,-87.1293 625.679,-90.6294 625.679,-83.6294"/>
<text text-anchor="middle" x="766" y="-90.1293" font-family="Helvetica,sans-Serif" font-size="10.00"> myCamera</text>
</g>
<!-- Node18 -->
<g id="node18" class="node"><title>Node18</title>
<polygon fill="white" stroke="#bfbfbf" points="486,-8.12929 486,-38.1293 690,-38.1293 690,-8.12929 486,-8.12929"/>
<text text-anchor="start" x="494" y="-26.1293" font-family="Helvetica,sans-Serif" font-size="10.00">List&lt; engine.gameObject.components.</text>
<text text-anchor="middle" x="588" y="-15.1293" font-family="Helvetica,sans-Serif" font-size="10.00">Component &gt;</text>
</g>
<!-- Node18&#45;&gt;Node10 -->
<g id="edge17" class="edge"><title>Node18&#45;&gt;Node10</title>
<path fill="none" stroke="#9a32cd" stroke-dasharray="5,2" d="M700.211,-8.21534C787.396,0.524198 911.39,6.42603 1018,-13.1293 1068.5,-22.3924 1085.7,-22.3144 1126,-54.1293 1178.43,-95.5261 1214.32,-170.657 1225.93,-197.376"/>
<polygon fill="#9a32cd" stroke="#9a32cd" points="699.619,-4.75769 690.031,-9.26538 700.337,-11.7207 699.619,-4.75769"/>
<text text-anchor="middle" x="930" y="-16.1293" font-family="Helvetica,sans-Serif" font-size="10.00"> myComponents</text>
</g>
<!-- Node29 -->
<g id="node29" class="node"><title>Node29</title>
<g id="a_node29"><a xlink:href="../../d6/d66/classengine_1_1game_object_1_1_default_data.html" target="_top" xlink:title="engine.gameObject.DefaultData">
<polygon fill="white" stroke="black" points="844.5,-33.6293 844.5,-52.6293 1015.5,-52.6293 1015.5,-33.6293 844.5,-33.6293"/>
<text text-anchor="middle" x="930" y="-40.6293" font-family="Helvetica,sans-Serif" font-size="10.00">engine.gameObject.DefaultData</text>
</a>
</g>
</g>
<!-- Node18&#45;&gt;Node29 -->
<g id="edge31" class="edge"><title>Node18&#45;&gt;Node29</title>
<path fill="none" stroke="#9a32cd" stroke-dasharray="5,2" d="M700.29,-29.6757C747.15,-32.4322 800.796,-35.5879 844.349,-38.1498"/>
<polygon fill="#9a32cd" stroke="#9a32cd" points="700.279,-26.1691 690.091,-29.0758 699.868,-33.1571 700.279,-26.1691"/>
<text text-anchor="middle" x="766" y="-40.1293" font-family="Helvetica,sans-Serif" font-size="10.00"> myComponents</text>
</g>
<!-- Node19&#45;&gt;Node10 -->
<g id="edge18" class="edge"><title>Node19&#45;&gt;Node10</title>
<path fill="none" stroke="#9a32cd" stroke-dasharray="5,2" d="M960.537,-367.099C999.282,-348.377 1069.03,-313.568 1126,-279.129 1160.02,-258.566 1197.92,-231.088 1217.21,-216.753"/>
<polygon fill="#9a32cd" stroke="#9a32cd" points="958.876,-364.014 951.381,-371.503 961.91,-370.323 958.876,-364.014"/>
<text text-anchor="middle" x="1081" y="-332.129" font-family="Helvetica,sans-Serif" font-size="10.00"> myRenderedNode</text>
</g>
<!-- Node20 -->
<g id="node20" class="node"><title>Node20</title>
<polygon fill="white" stroke="#bfbfbf" points="565,-411.629 565,-430.629 611,-430.629 611,-411.629 565,-411.629"/>
<text text-anchor="middle" x="588" y="-418.629" font-family="Helvetica,sans-Serif" font-size="10.00">Group</text>
</g>
<!-- Node20&#45;&gt;Node19 -->
<g id="edge19" class="edge"><title>Node20&#45;&gt;Node19</title>
<path fill="none" stroke="midnightblue" d="M621.106,-417.352C673.568,-411.18 779.107,-398.764 851.879,-390.202"/>
<polygon fill="midnightblue" stroke="midnightblue" points="620.569,-413.891 611.046,-418.536 621.387,-420.843 620.569,-413.891"/>
</g>
<!-- Node21 -->
<g id="node21" class="node"><title>Node21</title>
<polygon fill="white" stroke="#bfbfbf" points="567,-373.629 567,-392.629 609,-392.629 609,-373.629 567,-373.629"/>
<text text-anchor="middle" x="588" y="-380.629" font-family="Helvetica,sans-Serif" font-size="10.00">Label</text>
</g>
<!-- Node21&#45;&gt;Node19 -->
<g id="edge20" class="edge"><title>Node21&#45;&gt;Node19</title>
<path fill="none" stroke="#9a32cd" stroke-dasharray="5,2" d="M619.479,-382.841C643.52,-382.621 677.901,-382.324 708,-382.129 755.768,-381.821 809.344,-381.576 851.781,-381.405"/>
<polygon fill="#9a32cd" stroke="#9a32cd" points="619.18,-379.343 609.213,-382.936 619.245,-386.343 619.18,-379.343"/>
<text text-anchor="middle" x="766" y="-385.129" font-family="Helvetica,sans-Serif" font-size="10.00"> myLabel</text>
</g>
<!-- Node22 -->
<g id="node22" class="node"><title>Node22</title>
<polygon fill="white" stroke="#bfbfbf" points="567,-335.629 567,-354.629 609,-354.629 609,-335.629 567,-335.629"/>
<text text-anchor="middle" x="588" y="-342.629" font-family="Helvetica,sans-Serif" font-size="10.00">Node</text>
</g>
<!-- Node22&#45;&gt;Node19 -->
<g id="edge22" class="edge"><title>Node22&#45;&gt;Node19</title>
<path fill="none" stroke="#9a32cd" stroke-dasharray="5,2" d="M619.35,-347.588C664.164,-351.305 750.652,-358.809 824,-367.129 835.878,-368.477 848.493,-370.042 860.705,-371.629"/>
<polygon fill="#9a32cd" stroke="#9a32cd" points="619.4,-344.08 609.146,-346.747 618.825,-351.056 619.4,-344.08"/>
<text text-anchor="middle" x="766" y="-370.129" font-family="Helvetica,sans-Serif" font-size="10.00"> myCollisionBody</text>
</g>
<!-- Node23 -->
<g id="node23" class="node"><title>Node23</title>
<g id="a_node23"><a xlink:href="../../d9/d9d/classengine_1_1game_object_1_1components_1_1_physics_body.html" target="_top" xlink:title="engine.gameObject.components.\lPhysicsBody">
<polygon fill="white" stroke="black" points="842,-274.129 842,-304.129 1018,-304.129 1018,-274.129 842,-274.129"/>
<text text-anchor="start" x="850" y="-292.129" font-family="Helvetica,sans-Serif" font-size="10.00">engine.gameObject.components.</text>
<text text-anchor="middle" x="930" y="-281.129" font-family="Helvetica,sans-Serif" font-size="10.00">PhysicsBody</text>
</a>
</g>
</g>
<!-- Node23&#45;&gt;Node10 -->
<g id="edge24" class="edge"><title>Node23&#45;&gt;Node10</title>
<path fill="none" stroke="#9a32cd" stroke-dasharray="5,2" d="M1007.2,-271.765C1043.37,-263.169 1087.09,-252.262 1126,-241.129 1152.3,-233.605 1181.92,-223.788 1202.8,-216.638"/>
<polygon fill="#9a32cd" stroke="#9a32cd" points="1006.14,-268.419 997.214,-274.126 1007.75,-275.232 1006.14,-268.419"/>
<text text-anchor="middle" x="1081" y="-267.129" font-family="Helvetica,sans-Serif" font-size="10.00"> myPhysicsBody</text>
</g>
<!-- Node24 -->
<g id="node24" class="node"><title>Node24</title>
<polygon fill="white" stroke="#bfbfbf" points="510,-286.129 510,-316.129 666,-316.129 666,-286.129 510,-286.129"/>
<text text-anchor="start" x="518" y="-304.129" font-family="Helvetica,sans-Serif" font-size="10.00">Map&lt; String, engine.physics.</text>
<text text-anchor="middle" x="588" y="-293.129" font-family="Helvetica,sans-Serif" font-size="10.00">Scalar &gt;</text>
</g>
<!-- Node24&#45;&gt;Node23 -->
<g id="edge25" class="edge"><title>Node24&#45;&gt;Node23</title>
<path fill="none" stroke="#9a32cd" stroke-dasharray="5,2" d="M676.15,-298.053C727.059,-296.257 791.089,-293.997 841.976,-292.201"/>
<polygon fill="#9a32cd" stroke="#9a32cd" points="676.022,-294.556 666.151,-298.406 676.269,-301.551 676.022,-294.556"/>
<text text-anchor="middle" x="766" y="-300.129" font-family="Helvetica,sans-Serif" font-size="10.00"> myConstants</text>
</g>
<!-- Node25 -->
<g id="node25" class="node"><title>Node25</title>
<polygon fill="white" stroke="#bfbfbf" points="510,-237.129 510,-267.129 666,-267.129 666,-237.129 510,-237.129"/>
<text text-anchor="start" x="518" y="-255.129" font-family="Helvetica,sans-Serif" font-size="10.00">Map&lt; String, engine.physics.</text>
<text text-anchor="middle" x="588" y="-244.129" font-family="Helvetica,sans-Serif" font-size="10.00">Force &gt;</text>
</g>
<!-- Node25&#45;&gt;Node23 -->
<g id="edge26" class="edge"><title>Node25&#45;&gt;Node23</title>
<path fill="none" stroke="#9a32cd" stroke-dasharray="5,2" d="M676.15,-261.613C727.059,-267.153 791.089,-274.121 841.976,-279.659"/>
<polygon fill="#9a32cd" stroke="#9a32cd" points="676.471,-258.128 666.151,-260.525 675.714,-265.087 676.471,-258.128"/>
<text text-anchor="middle" x="766" y="-281.129" font-family="Helvetica,sans-Serif" font-size="10.00"> myActiveForces</text>
</g>
<!-- Node26 -->
<g id="node26" class="node"><title>Node26</title>
<polygon fill="white" stroke="#bfbfbf" points="504.5,-198.629 504.5,-217.629 671.5,-217.629 671.5,-198.629 504.5,-198.629"/>
<text text-anchor="middle" x="588" y="-205.629" font-family="Helvetica,sans-Serif" font-size="10.00">List&lt; engine.physics.Impulse &gt;</text>
</g>
<!-- Node26&#45;&gt;Node23 -->
<g id="edge27" class="edge"><title>Node26&#45;&gt;Node23</title>
<path fill="none" stroke="#9a32cd" stroke-dasharray="5,2" d="M681.445,-215.461C725.895,-221.36 779.134,-231.989 824,-251.129 833.077,-255.002 833.126,-259.813 842,-264.129 849.773,-267.91 858.222,-271.219 866.697,-274.086"/>
<polygon fill="#9a32cd" stroke="#9a32cd" points="681.879,-211.988 671.518,-214.202 680.998,-218.933 681.879,-211.988"/>
<text text-anchor="middle" x="766" y="-254.129" font-family="Helvetica,sans-Serif" font-size="10.00"> myImpulses</text>
</g>
<!-- Node27 -->
<g id="node27" class="node"><title>Node27</title>
<g id="a_node27"><a xlink:href="../../d5/d1f/classengine_1_1physics_1_1_vector.html" target="_top" xlink:title="engine.physics.Vector">
<polygon fill="white" stroke="black" points="527.5,-156.629 527.5,-175.629 648.5,-175.629 648.5,-156.629 527.5,-156.629"/>
<text text-anchor="middle" x="588" y="-163.629" font-family="Helvetica,sans-Serif" font-size="10.00">engine.physics.Vector</text>
</a>
</g>
</g>
<!-- Node27&#45;&gt;Node23 -->
<g id="edge28" class="edge"><title>Node27&#45;&gt;Node23</title>
<path fill="none" stroke="#9a32cd" stroke-dasharray="5,2" d="M636.271,-154.574C688.64,-144.811 772.476,-138.648 824,-183.129 851.915,-207.228 816.733,-237.268 842,-264.129 845.661,-268.021 849.884,-271.32 854.456,-274.116"/>
<polygon fill="#9a32cd" stroke="#9a32cd" points="635.365,-151.185 626.235,-156.56 636.725,-158.052 635.365,-151.185"/>
<text text-anchor="middle" x="766" y="-208.129" font-family="Helvetica,sans-Serif" font-size="10.00"> myBalancedForcesMag</text>
<text text-anchor="middle" x="766" y="-197.129" font-family="Helvetica,sans-Serif" font-size="10.00">myVelocity</text>
<text text-anchor="middle" x="766" y="-186.129" font-family="Helvetica,sans-Serif" font-size="10.00">myAcceleration</text>
</g>
<!-- Node28 -->
<g id="node28" class="node"><title>Node28</title>
<g id="a_node28"><a xlink:href="../../dc/db5/classengine_1_1physics_1_1_physics_component.html" target="_top" xlink:title="engine.physics.PhysicsComponent">
<polygon fill="white" stroke="black" points="214,-156.629 214,-175.629 396,-175.629 396,-156.629 214,-156.629"/>
<text text-anchor="middle" x="305" y="-163.629" font-family="Helvetica,sans-Serif" font-size="10.00">engine.physics.PhysicsComponent</text>
</a>
</g>
</g>
<!-- Node28&#45;&gt;Node27 -->
<g id="edge29" class="edge"><title>Node28&#45;&gt;Node27</title>
<path fill="none" stroke="midnightblue" d="M406.238,-166.129C446.683,-166.129 491.99,-166.129 527.127,-166.129"/>
<polygon fill="midnightblue" stroke="midnightblue" points="406.07,-162.629 396.07,-166.129 406.07,-169.629 406.07,-162.629"/>
</g>
<!-- Node29&#45;&gt;Node10 -->
<g id="edge30" class="edge"><title>Node29&#45;&gt;Node10</title>
<path fill="none" stroke="#9a32cd" stroke-dasharray="5,2" d="M1025.42,-54.2318C1058.97,-61.2211 1095.86,-72.6023 1126,-91.1293 1172.32,-119.597 1210.01,-174.872 1224.08,-197.309"/>
<polygon fill="#9a32cd" stroke="#9a32cd" points="1026.08,-50.7949 1015.59,-52.2877 1024.72,-57.6618 1026.08,-50.7949"/>
<text text-anchor="middle" x="1081" y="-94.1293" font-family="Helvetica,sans-Serif" font-size="10.00"> myDefaultData</text>
</g>
</g>
</svg>
        <g id="navigator" transform="translate(0 0)" fill="#404254">
                <rect fill="#f2f5e9" fill-opacity="0.5" stroke="#606060" stroke-width=".5" x="0" y="0" width="60" height="60"/>
                <use id="zoomplus" xlink:href="#zoomPlus" x="17" y="9" onmousedown="handleZoom(evt,'in')"/>
                <use id="zoomminus" xlink:href="#zoomMin" x="42" y="9" onmousedown="handleZoom(evt,'out')"/>
                <use id="reset" xlink:href="#resetDef" x="30" y="36" onmousedown="handleReset()"/>
                <g id="arrowUp" xlink:href="#dirArrow" transform="translate(30 24)" onmousedown="handlePan(0,-1)">
                  <use xlink:href="#rim" fill="#404040">
                        <set attributeName="fill" to="#808080" begin="arrowUp.mouseover" end="arrowUp.mouseout"/>
                  </use>
                  <path fill="none" stroke="white" stroke-width="1.5" d="M0,-3.0v7 M-2.5,-0.5L0,-3.0L2.5,-0.5"/>
                </g>
                <g id="arrowRight" xlink:href="#dirArrow" transform="rotate(90) translate(36 -43)" onmousedown="handlePan(1,0)">
                  <use xlink:href="#rim" fill="#404040">
                        <set attributeName="fill" to="#808080" begin="arrowRight.mouseover" end="arrowRight.mouseout"/>
                  </use>
                  <path fill="none" stroke="white" stroke-width="1.5" d="M0,-3.0v7 M-2.5,-0.5L0,-3.0L2.5,-0.5"/>
                </g>
                <g id="arrowDown" xlink:href="#dirArrow" transform="rotate(180) translate(-30 -48)" onmousedown="handlePan(0,1)">
                  <use xlink:href="#rim" fill="#404040">
                        <set attributeName="fill" to="#808080" begin="arrowDown.mouseover" end="arrowDown.mouseout"/>
                  </use>
                  <path fill="none" stroke="white" stroke-width="1.5" d="M0,-3.0v7 M-2.5,-0.5L0,-3.0L2.5,-0.5"/>
                </g>
                <g id="arrowLeft" xlink:href="#dirArrow" transform="rotate(270) translate(-36 17)" onmousedown="handlePan(-1,0)">
                  <use xlink:href="#rim" fill="#404040">
                        <set attributeName="fill" to="#808080" begin="arrowLeft.mouseover" end="arrowLeft.mouseout"/>
                  </use>
                  <path fill="none" stroke="white" stroke-width="1.5" d="M0,-3.0v7 M-2.5,-0.5L0,-3.0L2.5,-0.5"/>
                </g>
        </g>
        <svg viewBox="0 0 15 15" width="100%" height="30px" preserveAspectRatio="xMaxYMin meet">
         <g id="arrow_out" transform="scale(0.3 0.3)">
          <a xlink:href="classauthoring_1_1view_1_1icons_1_1_game_object_icon__coll__graph_org.svg" target="_base">
           <rect id="button" ry="5" rx="5" y="6" x="6" height="38" width="38"
                fill="#f2f5e9" fill-opacity="0.5" stroke="#606060" stroke-width="1.0"/>
           <path id="arrow"
             d="M 11.500037,31.436501 C 11.940474,20.09759 22.043105,11.32322 32.158766,21.979434 L 37.068811,17.246167 C 37.068811,17.246167 37.088388,32 37.088388,32 L 22.160133,31.978069 C 22.160133,31.978069 26.997745,27.140456 26.997745,27.140456 C 18.528582,18.264221 13.291696,25.230495 11.500037,31.436501 z"
             style="fill:#404040;"/>
          </a>
         </g>
        </svg>
</svg>
