<?xml version="1.0" encoding="UTF-8" standalone="no"?>
<!DOCTYPE svg PUBLIC "-//W3C//DTD SVG 1.1//EN"
 "http://www.w3.org/Graphics/SVG/1.1/DTD/svg11.dtd">
<!-- Generated by graphviz version 2.36.0 (20140111.2315)
 -->
<!-- Title: authoring.view.icons.GameObjectIcon Pages: 1 -->
<!--zoomable 576 -->
<svg id="main" version="1.1" xmlns="http://www.w3.org/2000/svg" xmlns:xlink="http://www.w3.org/1999/xlink" xml:space="preserve" onload="init(evt)">
<style type="text/css"><![CDATA[
.edge:hover path { stroke: red; }
.edge:hover polygon { stroke: red; fill: red; }
]]></style>
<script type="text/javascript"><![CDATA[
var edges = document.getElementsByTagName('g');
if (edges && edges.length) {
  for (var i=0;i<edges.length;i++) {
    if (edges[i].id.substr(0,4)=='edge') {
      edges[i].setAttribute('class','edge');
    }
  }
}
]]></script>
        <defs>
                <circle id="rim" cx="0" cy="0" r="7"/>
                <circle id="rim2" cx="0" cy="0" r="3.5"/>
                <g id="zoomPlus">
                        <use xlink:href="#rim" fill="#404040">
                                <set attributeName="fill" to="#808080" begin="zoomplus.mouseover" end="zoomplus.mouseout"/>
                        </use>
                        <path d="M-4,0h8M0,-4v8" fill="none" stroke="white" stroke-width="1.5" pointer-events="none"/>
                </g>
                <g id="zoomMin">
                        <use xlink:href="#rim" fill="#404040">
                                <set attributeName="fill" to="#808080" begin="zoomminus.mouseover" end="zoomminus.mouseout"/>
                        </use>
                        <path d="M-4,0h8" fill="none" stroke="white" stroke-width="1.5" pointer-events="none"/>
                </g>
                <g id="dirArrow">
                        <path fill="none" stroke="white" stroke-width="1.5" d="M0,-3.0v7 M-2.5,-0.5L0,-3.0L2.5,-0.5"/>
                </g>
               <g id="resetDef">
                       <use xlink:href="#rim2" fill="#404040">
                               <set attributeName="fill" to="#808080" begin="reset.mouseover" end="reset.mouseout"/>
                       </use>
               </g>
        </defs>

<script type="text/javascript">
var viewWidth = 1588;
var viewHeight = 576;
var sectionId = 'dynsection-1';
</script>
<script xlink:href="../../svgpan.js"/>
<svg id="graph" class="graph">
<g id="viewport">
<title>authoring.view.icons.GameObjectIcon</title>
<polygon fill="white" stroke="none" points="-4,4 -4,-571.513 1584,-571.513 1584,4 -4,4"/>
<!-- Node1 -->
<g id="node1" class="node"><title>Node1</title>
<polygon fill="#bfbfbf" stroke="black" points="1434.5,-306.513 1434.5,-336.513 1579.5,-336.513 1579.5,-306.513 1434.5,-306.513"/>
<text text-anchor="start" x="1442.5" y="-324.513" font-family="Helvetica,sans-Serif" font-size="10.00">authoring.view.icons.Game</text>
<text text-anchor="middle" x="1507" y="-313.513" font-family="Helvetica,sans-Serif" font-size="10.00">ObjectIcon</text>
</g>
<!-- Node2 -->
<g id="node2" class="node"><title>Node2</title>
<g id="a_node2"><a xlink:href="../../d5/d47/classauthoring_1_1view_1_1icons_1_1_image_based_icon.html" target="_top" xlink:title="authoring.view.icons.Image\lBasedIcon">
<polygon fill="white" stroke="black" points="1158,-430.513 1158,-460.513 1304,-460.513 1304,-430.513 1158,-430.513"/>
<text text-anchor="start" x="1166" y="-448.513" font-family="Helvetica,sans-Serif" font-size="10.00">authoring.view.icons.Image</text>
<text text-anchor="middle" x="1231" y="-437.513" font-family="Helvetica,sans-Serif" font-size="10.00">BasedIcon</text>
</a>
</g>
</g>
<!-- Node2&#45;&gt;Node1 -->
<g id="edge1" class="edge"><title>Node2&#45;&gt;Node1</title>
<path fill="none" stroke="midnightblue" d="M1274.72,-426.179C1329.32,-401.469 1422.72,-359.202 1472.48,-336.682"/>
<polygon fill="midnightblue" stroke="midnightblue" points="1272.99,-423.12 1265.32,-430.432 1275.88,-429.497 1272.99,-423.12"/>
</g>
<!-- Node3 -->
<g id="node3" class="node"><title>Node3</title>
<g id="a_node3"><a xlink:href="../../de/d21/classauthoring_1_1view_1_1icons_1_1_file_icon.html" target="_top" xlink:title="authoring.view.icons.FileIcon">
<polygon fill="white" stroke="black" points="855,-475.013 855,-494.013 1005,-494.013 1005,-475.013 855,-475.013"/>
<text text-anchor="middle" x="930" y="-482.013" font-family="Helvetica,sans-Serif" font-size="10.00">authoring.view.icons.FileIcon</text>
</a>
</g>
</g>
<!-- Node3&#45;&gt;Node2 -->
<g id="edge2" class="edge"><title>Node3&#45;&gt;Node2</title>
<path fill="none" stroke="midnightblue" d="M1015.1,-473.849C1049.49,-469.457 1089.66,-464.289 1126,-459.513 1136.3,-458.16 1147.16,-456.715 1157.84,-455.287"/>
<polygon fill="midnightblue" stroke="midnightblue" points="1014.57,-470.388 1005.09,-475.125 1015.45,-477.331 1014.57,-470.388"/>
</g>
<!-- Node4 -->
<g id="node4" class="node"><title>Node4</title>
<g id="a_node4"><a xlink:href="../../dd/db4/classauthoring_1_1view_1_1icons_1_1_base_icon.html" target="_top" xlink:title="authoring.view.icons.BaseIcon">
<polygon fill="white" stroke="black" points="508.5,-509.013 508.5,-528.013 667.5,-528.013 667.5,-509.013 508.5,-509.013"/>
<text text-anchor="middle" x="588" y="-516.013" font-family="Helvetica,sans-Serif" font-size="10.00">authoring.view.icons.BaseIcon</text>
</a>
</g>
</g>
<!-- Node4&#45;&gt;Node3 -->
<g id="edge3" class="edge"><title>Node4&#45;&gt;Node3</title>
<path fill="none" stroke="midnightblue" d="M677.792,-511.96C721.816,-508.455 775.758,-503.779 824,-498.513 836.066,-497.195 848.89,-495.627 861.278,-494.024"/>
<polygon fill="midnightblue" stroke="midnightblue" points="677.385,-508.481 667.692,-512.757 677.936,-515.459 677.385,-508.481"/>
</g>
<!-- Node5 -->
<g id="node5" class="node"><title>Node5</title>
<polygon fill="white" stroke="#bfbfbf" points="284.5,-488.013 284.5,-507.013 325.5,-507.013 325.5,-488.013 284.5,-488.013"/>
<text text-anchor="middle" x="305" y="-495.013" font-family="Helvetica,sans-Serif" font-size="10.00">VBox</text>
</g>
<!-- Node5&#45;&gt;Node4 -->
<g id="edge4" class="edge"><title>Node5&#45;&gt;Node4</title>
<path fill="none" stroke="midnightblue" d="M335.833,-499.742C376.562,-502.786 451.053,-508.353 508.374,-512.637"/>
<polygon fill="midnightblue" stroke="midnightblue" points="335.992,-496.244 325.759,-498.989 335.471,-503.225 335.992,-496.244"/>
</g>
<!-- Node6 -->
<g id="node6" class="node"><title>Node6</title>
<g id="a_node6"><a xlink:href="../../d3/d6a/interfaceauthoring_1_1eventhandlers_1_1_game_handler.html" target="_top" xlink:title="authoring.eventhandlers.\lGameHandler\&lt; T extends\l Event \&gt;">
<polygon fill="white" stroke="black" points="234.5,-526.013 234.5,-567.013 375.5,-567.013 375.5,-526.013 234.5,-526.013"/>
<text text-anchor="start" x="242.5" y="-555.013" font-family="Helvetica,sans-Serif" font-size="10.00">authoring.eventhandlers.</text>
<text text-anchor="start" x="242.5" y="-544.013" font-family="Helvetica,sans-Serif" font-size="10.00">GameHandler&lt; T extends</text>
<text text-anchor="middle" x="305" y="-533.013" font-family="Helvetica,sans-Serif" font-size="10.00"> Event &gt;</text>
</a>
</g>
</g>
<!-- Node6&#45;&gt;Node4 -->
<g id="edge5" class="edge"><title>Node6&#45;&gt;Node4</title>
<path fill="none" stroke="#9a32cd" stroke-dasharray="5,2" d="M385.922,-538.549C424.305,-534.724 470.148,-530.156 508.363,-526.348"/>
<polygon fill="#9a32cd" stroke="#9a32cd" points="385.425,-535.081 375.822,-539.555 386.12,-542.046 385.425,-535.081"/>
<text text-anchor="middle" x="441" y="-537.513" font-family="Helvetica,sans-Serif" font-size="10.00"> myOnClick</text>
</g>
<!-- Node7 -->
<g id="node7" class="node"><title>Node7</title>
<polygon fill="white" stroke="#bfbfbf" points="0,-537.013 0,-556.013 176,-556.013 176,-537.013 0,-537.013"/>
<text text-anchor="middle" x="88" y="-544.013" font-family="Helvetica,sans-Serif" font-size="10.00">javafx::event::EventHandler&lt; T &gt;</text>
</g>
<!-- Node7&#45;&gt;Node6 -->
<g id="edge6" class="edge"><title>Node7&#45;&gt;Node6</title>
<path fill="none" stroke="midnightblue" d="M186.169,-546.513C202.366,-546.513 218.879,-546.513 234.218,-546.513"/>
<polygon fill="midnightblue" stroke="midnightblue" points="186.139,-543.013 176.139,-546.513 186.139,-550.013 186.139,-543.013"/>
</g>
<!-- Node8 -->
<g id="node8" class="node"><title>Node8</title>
<polygon fill="white" stroke="#bfbfbf" points="572,-471.013 572,-490.013 604,-490.013 604,-471.013 572,-471.013"/>
<text text-anchor="middle" x="588" y="-478.013" font-family="Helvetica,sans-Serif" font-size="10.00">File</text>
</g>
<!-- Node8&#45;&gt;Node3 -->
<g id="edge7" class="edge"><title>Node8&#45;&gt;Node3</title>
<path fill="none" stroke="#9a32cd" stroke-dasharray="5,2" d="M614.313,-480.81C664.578,-481.402 778.684,-482.744 854.781,-483.639"/>
<polygon fill="#9a32cd" stroke="#9a32cd" points="614.089,-477.308 604.048,-480.69 614.006,-484.307 614.089,-477.308"/>
<text text-anchor="middle" x="766" y="-486.513" font-family="Helvetica,sans-Serif" font-size="10.00"> myGameLocation</text>
</g>
<!-- Node9 -->
<g id="node9" class="node"><title>Node9</title>
<polygon fill="white" stroke="#bfbfbf" points="554,-426.013 554,-445.013 622,-445.013 622,-426.013 554,-426.013"/>
<text text-anchor="middle" x="588" y="-433.013" font-family="Helvetica,sans-Serif" font-size="10.00">ImageView</text>
</g>
<!-- Node9&#45;&gt;Node2 -->
<g id="edge8" class="edge"><title>Node9&#45;&gt;Node2</title>
<path fill="none" stroke="#9a32cd" stroke-dasharray="5,2" d="M632.336,-436.189C740.612,-437.878 1023.85,-442.297 1157.81,-444.386"/>
<polygon fill="#9a32cd" stroke="#9a32cd" points="632.167,-432.686 622.113,-436.029 632.057,-439.685 632.167,-432.686"/>
<text text-anchor="middle" x="930" y="-445.513" font-family="Helvetica,sans-Serif" font-size="10.00"> myImageView</text>
</g>
<!-- Node17 -->
<g id="node17" class="node"><title>Node17</title>
<g id="a_node17"><a xlink:href="../../d2/d82/classengine_1_1render_1_1_rendered_node.html" target="_top" xlink:title="engine.render.RenderedNode">
<polygon fill="white" stroke="black" points="852,-342.013 852,-361.013 1008,-361.013 1008,-342.013 852,-342.013"/>
<text text-anchor="middle" x="930" y="-349.013" font-family="Helvetica,sans-Serif" font-size="10.00">engine.render.RenderedNode</text>
</a>
</g>
</g>
<!-- Node9&#45;&gt;Node17 -->
<g id="edge19" class="edge"><title>Node9&#45;&gt;Node17</title>
<path fill="none" stroke="#9a32cd" stroke-dasharray="5,2" d="M632.068,-429.812C679.604,-422.975 758.117,-410.068 824,-391.513 853.479,-383.21 886.292,-370.046 907.263,-361.107"/>
<polygon fill="#9a32cd" stroke="#9a32cd" points="631.533,-426.353 622.122,-431.218 632.514,-433.284 631.533,-426.353"/>
<text text-anchor="middle" x="766" y="-420.513" font-family="Helvetica,sans-Serif" font-size="10.00"> myImageView</text>
</g>
<!-- Node10 -->
<g id="node10" class="node"><title>Node10</title>
<g id="a_node10"><a xlink:href="../../d0/d7f/classengine_1_1game_object_1_1_game_object.html" target="_top" xlink:title="engine.gameObject.GameObject">
<polygon fill="white" stroke="black" points="1144.5,-148.013 1144.5,-167.013 1317.5,-167.013 1317.5,-148.013 1144.5,-148.013"/>
<text text-anchor="middle" x="1231" y="-155.013" font-family="Helvetica,sans-Serif" font-size="10.00">engine.gameObject.GameObject</text>
</a>
</g>
</g>
<!-- Node10&#45;&gt;Node1 -->
<g id="edge9" class="edge"><title>Node10&#45;&gt;Node1</title>
<path fill="none" stroke="#9a32cd" stroke-dasharray="5,2" d="M1256.8,-172.357C1308.79,-203.473 1428.68,-275.232 1480.91,-306.497"/>
<polygon fill="#9a32cd" stroke="#9a32cd" points="1258.29,-169.171 1247.92,-167.039 1254.7,-175.178 1258.29,-169.171"/>
<text text-anchor="middle" x="1376" y="-267.513" font-family="Helvetica,sans-Serif" font-size="10.00"> myGameObject</text>
</g>
<!-- Node11 -->
<g id="node11" class="node"><title>Node11</title>
<g id="a_node11"><a xlink:href="../../d7/de6/interfaceengine_1_1game_object_1_1_i_enabled.html" target="_top" xlink:title="engine.gameObject.IEnabled">
<polygon fill="white" stroke="black" points="853,-186.013 853,-205.013 1007,-205.013 1007,-186.013 853,-186.013"/>
<text text-anchor="middle" x="930" y="-193.013" font-family="Helvetica,sans-Serif" font-size="10.00">engine.gameObject.IEnabled</text>
</a>
</g>
</g>
<!-- Node11&#45;&gt;Node10 -->
<g id="edge10" class="edge"><title>Node11&#45;&gt;Node10</title>
<path fill="none" stroke="midnightblue" d="M1017.74,-185.051C1051.54,-180.919 1090.59,-176.075 1126,-171.513 1137.02,-170.092 1148.7,-168.554 1160.09,-167.035"/>
<polygon fill="midnightblue" stroke="midnightblue" points="1016.93,-181.624 1007.43,-186.31 1017.78,-188.572 1016.93,-181.624"/>
</g>
<!-- Node12 -->
<g id="node12" class="node"><title>Node12</title>
<polygon fill="white" stroke="#bfbfbf" points="864.5,-148.013 864.5,-167.013 995.5,-167.013 995.5,-148.013 864.5,-148.013"/>
<text text-anchor="middle" x="930" y="-155.013" font-family="Helvetica,sans-Serif" font-size="10.00">Iterable&lt; Component &gt;</text>
</g>
<!-- Node12&#45;&gt;Node10 -->
<g id="edge11" class="edge"><title>Node12&#45;&gt;Node10</title>
<path fill="none" stroke="midnightblue" d="M1005.69,-157.513C1047.79,-157.513 1100.55,-157.513 1144.32,-157.513"/>
<polygon fill="midnightblue" stroke="midnightblue" points="1005.51,-154.013 995.51,-157.513 1005.51,-161.013 1005.51,-154.013"/>
</g>
<!-- Node13 -->
<g id="node13" class="node"><title>Node13</title>
<g id="a_node13"><a xlink:href="../../dc/df6/interfaceengine_1_1game_object_1_1_identifiable.html" target="_top" xlink:title="engine.gameObject.Identifiable">
<polygon fill="white" stroke="black" points="847.5,-110.013 847.5,-129.013 1012.5,-129.013 1012.5,-110.013 847.5,-110.013"/>
<text text-anchor="middle" x="930" y="-117.013" font-family="Helvetica,sans-Serif" font-size="10.00">engine.gameObject.Identifiable</text>
</a>
</g>
</g>
<!-- Node13&#45;&gt;Node10 -->
<g id="edge12" class="edge"><title>Node13&#45;&gt;Node10</title>
<path fill="none" stroke="midnightblue" d="M1016.13,-130.332C1059.96,-135.902 1112.91,-142.632 1155.16,-148.002"/>
<polygon fill="midnightblue" stroke="midnightblue" points="1016.43,-126.841 1006.06,-129.053 1015.54,-133.785 1016.43,-126.841"/>
</g>
<!-- Node14 -->
<g id="node14" class="node"><title>Node14</title>
<g id="a_node14"><a xlink:href="../../d4/dac/classengine_1_1game_object_1_1_identifier.html" target="_top" xlink:title="engine.gameObject.Identifier">
<polygon fill="white" stroke="black" points="852.5,-72.0126 852.5,-91.0126 1007.5,-91.0126 1007.5,-72.0126 852.5,-72.0126"/>
<text text-anchor="middle" x="930" y="-79.0126" font-family="Helvetica,sans-Serif" font-size="10.00">engine.gameObject.Identifier</text>
</a>
</g>
</g>
<!-- Node14&#45;&gt;Node10 -->
<g id="edge13" class="edge"><title>Node14&#45;&gt;Node10</title>
<path fill="none" stroke="#9a32cd" stroke-dasharray="5,2" d="M1006.28,-92.7C1042.77,-98.9062 1087.03,-107.594 1126,-118.513 1154.78,-126.575 1186.84,-139.172 1207.65,-147.856"/>
<polygon fill="#9a32cd" stroke="#9a32cd" points="1006.64,-89.2125 996.2,-91.0156 1005.49,-96.1167 1006.64,-89.2125"/>
<text text-anchor="middle" x="1081" y="-121.513" font-family="Helvetica,sans-Serif" font-size="10.00"> myId</text>
</g>
<!-- Node15 -->
<g id="node15" class="node"><title>Node15</title>
<polygon fill="white" stroke="#bfbfbf" points="560,-72.0126 560,-91.0126 616,-91.0126 616,-72.0126 560,-72.0126"/>
<text text-anchor="middle" x="588" y="-79.0126" font-family="Helvetica,sans-Serif" font-size="10.00">Random</text>
</g>
<!-- Node15&#45;&gt;Node14 -->
<g id="edge14" class="edge"><title>Node15&#45;&gt;Node14</title>
<path fill="none" stroke="#9a32cd" stroke-dasharray="5,2" d="M626.424,-81.5126C680.567,-81.5126 781.959,-81.5126 852.37,-81.5126"/>
<polygon fill="#9a32cd" stroke="#9a32cd" points="626.249,-78.0127 616.249,-81.5126 626.249,-85.0127 626.249,-78.0127"/>
<text text-anchor="middle" x="766" y="-84.5126" font-family="Helvetica,sans-Serif" font-size="10.00"> r</text>
</g>
<!-- Node16 -->
<g id="node16" class="node"><title>Node16</title>
<polygon fill="white" stroke="#bfbfbf" points="486,-6.51258 486,-36.5126 690,-36.5126 690,-6.51258 486,-6.51258"/>
<text text-anchor="start" x="494" y="-24.5126" font-family="Helvetica,sans-Serif" font-size="10.00">List&lt; engine.gameObject.components.</text>
<text text-anchor="middle" x="588" y="-13.5126" font-family="Helvetica,sans-Serif" font-size="10.00">Component &gt;</text>
</g>
<!-- Node16&#45;&gt;Node10 -->
<g id="edge15" class="edge"><title>Node16&#45;&gt;Node10</title>
<path fill="none" stroke="#9a32cd" stroke-dasharray="5,2" d="M700.216,-7.39603C787.405,0.785222 911.4,6.04082 1018,-13.5126 1068.5,-22.7757 1082.82,-26.7333 1126,-54.5126 1168.1,-81.5988 1206.99,-127.992 1222.68,-147.938"/>
<polygon fill="#9a32cd" stroke="#9a32cd" points="699.653,-3.93406 690.037,-8.38021 700.327,-10.9016 699.653,-3.93406"/>
<text text-anchor="middle" x="930" y="-16.5126" font-family="Helvetica,sans-Serif" font-size="10.00"> myComponents</text>
</g>
<!-- Node27 -->
<g id="node27" class="node"><title>Node27</title>
<g id="a_node27"><a xlink:href="../../d6/d66/classengine_1_1game_object_1_1_default_data.html" target="_top" xlink:title="engine.gameObject.DefaultData">
<polygon fill="white" stroke="black" points="844.5,-34.0126 844.5,-53.0126 1015.5,-53.0126 1015.5,-34.0126 844.5,-34.0126"/>
<text text-anchor="middle" x="930" y="-41.0126" font-family="Helvetica,sans-Serif" font-size="10.00">engine.gameObject.DefaultData</text>
</a>
</g>
</g>
<!-- Node16&#45;&gt;Node27 -->
<g id="edge28" class="edge"><title>Node16&#45;&gt;Node27</title>
<path fill="none" stroke="#9a32cd" stroke-dasharray="5,2" d="M700.29,-28.7137C747.15,-31.7458 800.796,-35.217 844.349,-38.0352"/>
<polygon fill="#9a32cd" stroke="#9a32cd" points="700.296,-25.2068 690.091,-28.0537 699.844,-32.1922 700.296,-25.2068"/>
<text text-anchor="middle" x="766" y="-39.5126" font-family="Helvetica,sans-Serif" font-size="10.00"> myComponents</text>
</g>
<!-- Node17&#45;&gt;Node10 -->
<g id="edge16" class="edge"><title>Node17&#45;&gt;Node10</title>
<path fill="none" stroke="#9a32cd" stroke-dasharray="5,2" d="M955.484,-336.698C992.66,-314.091 1065.43,-269.397 1126,-229.513 1159.01,-207.774 1197.02,-181.01 1216.67,-167.034"/>
<polygon fill="#9a32cd" stroke="#9a32cd" points="953.56,-333.772 946.829,-341.953 957.193,-339.755 953.56,-333.772"/>
<text text-anchor="middle" x="1081" y="-287.513" font-family="Helvetica,sans-Serif" font-size="10.00"> myRenderedNode</text>
</g>
<!-- Node18 -->
<g id="node18" class="node"><title>Node18</title>
<polygon fill="white" stroke="#bfbfbf" points="565,-304.013 565,-323.013 611,-323.013 611,-304.013 565,-304.013"/>
<text text-anchor="middle" x="588" y="-311.013" font-family="Helvetica,sans-Serif" font-size="10.00">Group</text>
</g>
<!-- Node18&#45;&gt;Node17 -->
<g id="edge17" class="edge"><title>Node18&#45;&gt;Node17</title>
<path fill="none" stroke="midnightblue" d="M621.106,-317.101C673.568,-322.964 779.107,-334.76 851.879,-342.893"/>
<polygon fill="midnightblue" stroke="midnightblue" points="621.373,-313.609 611.046,-315.977 620.596,-320.566 621.373,-313.609"/>
</g>
<!-- Node19 -->
<g id="node19" class="node"><title>Node19</title>
<polygon fill="white" stroke="#bfbfbf" points="567,-380.013 567,-399.013 609,-399.013 609,-380.013 567,-380.013"/>
<text text-anchor="middle" x="588" y="-387.013" font-family="Helvetica,sans-Serif" font-size="10.00">Label</text>
</g>
<!-- Node19&#45;&gt;Node17 -->
<g id="edge18" class="edge"><title>Node19&#45;&gt;Node17</title>
<path fill="none" stroke="#9a32cd" stroke-dasharray="5,2" d="M619.315,-386.194C664.084,-381.285 750.518,-371.777 824,-363.513 833.025,-362.498 842.486,-361.426 851.876,-360.359"/>
<polygon fill="#9a32cd" stroke="#9a32cd" points="618.68,-382.742 609.121,-387.311 619.443,-389.701 618.68,-382.742"/>
<text text-anchor="middle" x="766" y="-379.513" font-family="Helvetica,sans-Serif" font-size="10.00"> myLabel</text>
</g>
<!-- Node20 -->
<g id="node20" class="node"><title>Node20</title>
<polygon fill="white" stroke="#bfbfbf" points="567,-342.013 567,-361.013 609,-361.013 609,-342.013 567,-342.013"/>
<text text-anchor="middle" x="588" y="-349.013" font-family="Helvetica,sans-Serif" font-size="10.00">Node</text>
</g>
<!-- Node20&#45;&gt;Node17 -->
<g id="edge20" class="edge"><title>Node20&#45;&gt;Node17</title>
<path fill="none" stroke="#9a32cd" stroke-dasharray="5,2" d="M619.45,-351.513C671.32,-351.513 778.332,-351.513 851.879,-351.513"/>
<polygon fill="#9a32cd" stroke="#9a32cd" points="619.25,-348.013 609.25,-351.513 619.25,-355.013 619.25,-348.013"/>
<text text-anchor="middle" x="766" y="-354.513" font-family="Helvetica,sans-Serif" font-size="10.00"> myCollisionBody</text>
</g>
<!-- Node21 -->
<g id="node21" class="node"><title>Node21</title>
<g id="a_node21"><a xlink:href="../../d9/d9d/classengine_1_1game_object_1_1components_1_1_physics_body.html" target="_top" xlink:title="engine.gameObject.components.\lPhysicsBody">
<polygon fill="white" stroke="black" points="842,-224.513 842,-254.513 1018,-254.513 1018,-224.513 842,-224.513"/>
<text text-anchor="start" x="850" y="-242.513" font-family="Helvetica,sans-Serif" font-size="10.00">engine.gameObject.components.</text>
<text text-anchor="middle" x="930" y="-231.513" font-family="Helvetica,sans-Serif" font-size="10.00">PhysicsBody</text>
</a>
</g>
</g>
<!-- Node21&#45;&gt;Node10 -->
<g id="edge21" class="edge"><title>Node21&#45;&gt;Node10</title>
<path fill="none" stroke="#9a32cd" stroke-dasharray="5,2" d="M1007.2,-222.148C1043.37,-213.552 1087.09,-202.646 1126,-191.513 1152.3,-183.988 1181.92,-174.171 1202.8,-167.021"/>
<polygon fill="#9a32cd" stroke="#9a32cd" points="1006.14,-218.803 997.214,-224.509 1007.75,-225.615 1006.14,-218.803"/>
<text text-anchor="middle" x="1081" y="-217.513" font-family="Helvetica,sans-Serif" font-size="10.00"> myPhysicsBody</text>
</g>
<!-- Node22 -->
<g id="node22" class="node"><title>Node22</title>
<polygon fill="white" stroke="#bfbfbf" points="510,-174.513 510,-204.513 666,-204.513 666,-174.513 510,-174.513"/>
<text text-anchor="start" x="518" y="-192.513" font-family="Helvetica,sans-Serif" font-size="10.00">Map&lt; String, engine.physics.</text>
<text text-anchor="middle" x="588" y="-181.513" font-family="Helvetica,sans-Serif" font-size="10.00">Scalar &gt;</text>
</g>
<!-- Node22&#45;&gt;Node21 -->
<g id="edge22" class="edge"><title>Node22&#45;&gt;Node21</title>
<path fill="none" stroke="#9a32cd" stroke-dasharray="5,2" d="M676.338,-191.569C720.889,-193.878 775.723,-198.665 824,-208.513 832.263,-210.198 833.946,-212.014 842,-214.513 852.657,-217.818 864.095,-221.213 875.06,-224.394"/>
<polygon fill="#9a32cd" stroke="#9a32cd" points="676.28,-188.062 666.122,-191.073 675.941,-195.054 676.28,-188.062"/>
<text text-anchor="middle" x="766" y="-211.513" font-family="Helvetica,sans-Serif" font-size="10.00"> myConstants</text>
</g>
<!-- Node23 -->
<g id="node23" class="node"><title>Node23</title>
<polygon fill="white" stroke="#bfbfbf" points="510,-125.513 510,-155.513 666,-155.513 666,-125.513 510,-125.513"/>
<text text-anchor="start" x="518" y="-143.513" font-family="Helvetica,sans-Serif" font-size="10.00">Map&lt; String, engine.physics.</text>
<text text-anchor="middle" x="588" y="-132.513" font-family="Helvetica,sans-Serif" font-size="10.00">Force &gt;</text>
</g>
<!-- Node23&#45;&gt;Node21 -->
<g id="edge23" class="edge"><title>Node23&#45;&gt;Node21</title>
<path fill="none" stroke="#9a32cd" stroke-dasharray="5,2" d="M676.114,-136.69C723.853,-138.801 781.73,-148.685 824,-179.513 838.133,-189.82 828.485,-203.408 842,-214.513 846.736,-218.404 852.047,-221.689 857.65,-224.464"/>
<polygon fill="#9a32cd" stroke="#9a32cd" points="676.202,-133.191 666.09,-136.353 675.967,-140.187 676.202,-133.191"/>
<text text-anchor="middle" x="766" y="-182.513" font-family="Helvetica,sans-Serif" font-size="10.00"> myActiveForces</text>
</g>
<!-- Node24 -->
<g id="node24" class="node"><title>Node24</title>
<polygon fill="white" stroke="#bfbfbf" points="504.5,-266.013 504.5,-285.013 671.5,-285.013 671.5,-266.013 504.5,-266.013"/>
<text text-anchor="middle" x="588" y="-273.013" font-family="Helvetica,sans-Serif" font-size="10.00">List&lt; engine.physics.Impulse &gt;</text>
</g>
<!-- Node24&#45;&gt;Node21 -->
<g id="edge24" class="edge"><title>Node24&#45;&gt;Node21</title>
<path fill="none" stroke="#9a32cd" stroke-dasharray="5,2" d="M681.806,-270.407C725.109,-267.512 777.289,-263.293 824,-257.513 831.067,-256.638 838.383,-255.62 845.713,-254.52"/>
<polygon fill="#9a32cd" stroke="#9a32cd" points="681.32,-266.932 671.57,-271.078 681.778,-273.917 681.32,-266.932"/>
<text text-anchor="middle" x="766" y="-272.513" font-family="Helvetica,sans-Serif" font-size="10.00"> myImpulses</text>
</g>
<!-- Node25 -->
<g id="node25" class="node"><title>Node25</title>
<g id="a_node25"><a xlink:href="../../d5/d1f/classengine_1_1physics_1_1_vector.html" target="_top" xlink:title="engine.physics.Vector">
<polygon fill="white" stroke="black" points="527.5,-224.013 527.5,-243.013 648.5,-243.013 648.5,-224.013 527.5,-224.013"/>
<text text-anchor="middle" x="588" y="-231.013" font-family="Helvetica,sans-Serif" font-size="10.00">engine.physics.Vector</text>
</a>
</g>
</g>
<!-- Node25&#45;&gt;Node21 -->
<g id="edge25" class="edge"><title>Node25&#45;&gt;Node21</title>
<path fill="none" stroke="#9a32cd" stroke-dasharray="5,2" d="M658.969,-226.841C705.733,-223.363 768.605,-220.576 824,-224.513 829.786,-224.924 835.738,-225.461 841.727,-226.087"/>
<polygon fill="#9a32cd" stroke="#9a32cd" points="658.645,-223.355 648.944,-227.615 659.184,-230.334 658.645,-223.355"/>
<text text-anchor="middle" x="766" y="-249.513" font-family="Helvetica,sans-Serif" font-size="10.00"> myBalancedForcesMag</text>
<text text-anchor="middle" x="766" y="-238.513" font-family="Helvetica,sans-Serif" font-size="10.00">myVelocity</text>
<text text-anchor="middle" x="766" y="-227.513" font-family="Helvetica,sans-Serif" font-size="10.00">myAcceleration</text>
</g>
<!-- Node26 -->
<g id="node26" class="node"><title>Node26</title>
<g id="a_node26"><a xlink:href="../../dc/db5/classengine_1_1physics_1_1_physics_component.html" target="_top" xlink:title="engine.physics.PhysicsComponent">
<polygon fill="white" stroke="black" points="214,-224.013 214,-243.013 396,-243.013 396,-224.013 214,-224.013"/>
<text text-anchor="middle" x="305" y="-231.013" font-family="Helvetica,sans-Serif" font-size="10.00">engine.physics.PhysicsComponent</text>
</a>
</g>
</g>
<!-- Node26&#45;&gt;Node25 -->
<g id="edge26" class="edge"><title>Node26&#45;&gt;Node25</title>
<path fill="none" stroke="midnightblue" d="M406.238,-233.513C446.683,-233.513 491.99,-233.513 527.127,-233.513"/>
<polygon fill="midnightblue" stroke="midnightblue" points="406.07,-230.013 396.07,-233.513 406.07,-237.013 406.07,-230.013"/>
</g>
<!-- Node27&#45;&gt;Node10 -->
<g id="edge27" class="edge"><title>Node27&#45;&gt;Node10</title>
<path fill="none" stroke="#9a32cd" stroke-dasharray="5,2" d="M1022.26,-54.8423C1055.8,-61.0213 1093.5,-70.4033 1126,-84.5126 1163.64,-100.854 1201.48,-131.985 1219.37,-147.789"/>
<polygon fill="#9a32cd" stroke="#9a32cd" points="1022.45,-51.3218 1011.99,-53.0258 1021.23,-58.2148 1022.45,-51.3218"/>
<text text-anchor="middle" x="1081" y="-87.5126" font-family="Helvetica,sans-Serif" font-size="10.00"> myDefaultData</text>
</g>
</g>
</svg>
        <g id="navigator" transform="translate(0 0)" fill="#404254">
                <rect fill="#f2f5e9" fill-opacity="0.5" stroke="#606060" stroke-width=".5" x="0" y="0" width="60" height="60"/>
                <use id="zoomplus" xlink:href="#zoomPlus" x="17" y="9" onmousedown="handleZoom(evt,'in')"/>
                <use id="zoomminus" xlink:href="#zoomMin" x="42" y="9" onmousedown="handleZoom(evt,'out')"/>
                <use id="reset" xlink:href="#resetDef" x="30" y="36" onmousedown="handleReset()"/>
                <g id="arrowUp" xlink:href="#dirArrow" transform="translate(30 24)" onmousedown="handlePan(0,-1)">
                  <use xlink:href="#rim" fill="#404040">
                        <set attributeName="fill" to="#808080" begin="arrowUp.mouseover" end="arrowUp.mouseout"/>
                  </use>
                  <path fill="none" stroke="white" stroke-width="1.5" d="M0,-3.0v7 M-2.5,-0.5L0,-3.0L2.5,-0.5"/>
                </g>
                <g id="arrowRight" xlink:href="#dirArrow" transform="rotate(90) translate(36 -43)" onmousedown="handlePan(1,0)">
                  <use xlink:href="#rim" fill="#404040">
                        <set attributeName="fill" to="#808080" begin="arrowRight.mouseover" end="arrowRight.mouseout"/>
                  </use>
                  <path fill="none" stroke="white" stroke-width="1.5" d="M0,-3.0v7 M-2.5,-0.5L0,-3.0L2.5,-0.5"/>
                </g>
                <g id="arrowDown" xlink:href="#dirArrow" transform="rotate(180) translate(-30 -48)" onmousedown="handlePan(0,1)">
                  <use xlink:href="#rim" fill="#404040">
                        <set attributeName="fill" to="#808080" begin="arrowDown.mouseover" end="arrowDown.mouseout"/>
                  </use>
                  <path fill="none" stroke="white" stroke-width="1.5" d="M0,-3.0v7 M-2.5,-0.5L0,-3.0L2.5,-0.5"/>
                </g>
                <g id="arrowLeft" xlink:href="#dirArrow" transform="rotate(270) translate(-36 17)" onmousedown="handlePan(-1,0)">
                  <use xlink:href="#rim" fill="#404040">
                        <set attributeName="fill" to="#808080" begin="arrowLeft.mouseover" end="arrowLeft.mouseout"/>
                  </use>
                  <path fill="none" stroke="white" stroke-width="1.5" d="M0,-3.0v7 M-2.5,-0.5L0,-3.0L2.5,-0.5"/>
                </g>
        </g>
        <svg viewBox="0 0 15 15" width="100%" height="30px" preserveAspectRatio="xMaxYMin meet">
         <g id="arrow_out" transform="scale(0.3 0.3)">
          <a xlink:href="classauthoring_1_1view_1_1icons_1_1_game_object_icon__coll__graph_org.svg" target="_base">
           <rect id="button" ry="5" rx="5" y="6" x="6" height="38" width="38"
                fill="#f2f5e9" fill-opacity="0.5" stroke="#606060" stroke-width="1.0"/>
           <path id="arrow"
             d="M 11.500037,31.436501 C 11.940474,20.09759 22.043105,11.32322 32.158766,21.979434 L 37.068811,17.246167 C 37.068811,17.246167 37.088388,32 37.088388,32 L 22.160133,31.978069 C 22.160133,31.978069 26.997745,27.140456 26.997745,27.140456 C 18.528582,18.264221 13.291696,25.230495 11.500037,31.436501 z"
             style="fill:#404040;"/>
          </a>
         </g>
        </svg>
</svg>
