<?xml version="1.0" encoding="UTF-8" standalone="no"?>
<!DOCTYPE svg PUBLIC "-//W3C//DTD SVG 1.1//EN"
 "http://www.w3.org/Graphics/SVG/1.1/DTD/svg11.dtd">
<!-- Generated by graphviz version 2.36.0 (20140111.2315)
 -->
<!-- Title: engine.render.Renderer.createAndAssignRenderedNode Pages: 1 -->
<svg width="864pt" height="545pt"
 viewBox="0.00 0.00 864.00 545.00" xmlns="http://www.w3.org/2000/svg" xmlns:xlink="http://www.w3.org/1999/xlink">
<g id="graph0" class="graph" transform="scale(1 1) rotate(0) translate(4 541)">
<title>engine.render.Renderer.createAndAssignRenderedNode</title>
<polygon fill="white" stroke="none" points="-4,4 -4,-541 860,-541 860,4 -4,4"/>
<!-- Node1 -->
<g id="node1" class="node"><title>Node1</title>
<polygon fill="#bfbfbf" stroke="black" points="0.5,-131 0.5,-161 161.5,-161 161.5,-131 0.5,-131"/>
<text text-anchor="start" x="8.5" y="-149" font-family="Helvetica,sans-Serif" font-size="10.00">engine.render.Renderer.create</text>
<text text-anchor="middle" x="81" y="-138" font-family="Helvetica,sans-Serif" font-size="10.00">AndAssignRenderedNode</text>
</g>
<!-- Node2 -->
<g id="node2" class="node"><title>Node2</title>
<g id="a_node2"><a xlink:href="../../d5/d30/classengine_1_1render_1_1_rendered_node_factory.html#a359dcce722371dfb49b79528930c1b05" target="_top" xlink:title="engine.render.RenderedNode\lFactory.createRenderedNode">
<polygon fill="white" stroke="black" points="216,-180 216,-210 372,-210 372,-180 216,-180"/>
<text text-anchor="start" x="224" y="-198" font-family="Helvetica,sans-Serif" font-size="10.00">engine.render.RenderedNode</text>
<text text-anchor="middle" x="294" y="-187" font-family="Helvetica,sans-Serif" font-size="10.00">Factory.createRenderedNode</text>
</a>
</g>
</g>
<!-- Node1&#45;&gt;Node2 -->
<g id="edge1" class="edge"><title>Node1&#45;&gt;Node2</title>
<path fill="none" stroke="midnightblue" d="M146.741,-161.035C169.425,-166.302 195.079,-172.26 218.497,-177.698"/>
<polygon fill="midnightblue" stroke="midnightblue" points="217.849,-181.141 228.382,-179.994 219.432,-174.322 217.849,-181.141"/>
</g>
<!-- Node19 -->
<g id="node19" class="node"><title>Node19</title>
<g id="a_node19"><a xlink:href="../../d0/d7f/classengine_1_1game_object_1_1_game_object.html#accd456b2eaab9c7056de825a28b066c8" target="_top" xlink:title="engine.gameObject.GameObject.get\lIdentifier">
<polygon fill="white" stroke="black" points="198,-131 198,-161 390,-161 390,-131 198,-131"/>
<text text-anchor="start" x="206" y="-149" font-family="Helvetica,sans-Serif" font-size="10.00">engine.gameObject.GameObject.get</text>
<text text-anchor="middle" x="294" y="-138" font-family="Helvetica,sans-Serif" font-size="10.00">Identifier</text>
</a>
</g>
</g>
<!-- Node1&#45;&gt;Node19 -->
<g id="edge20" class="edge"><title>Node1&#45;&gt;Node19</title>
<path fill="none" stroke="midnightblue" d="M161.77,-146C170.242,-146 178.949,-146 187.656,-146"/>
<polygon fill="midnightblue" stroke="midnightblue" points="187.861,-149.5 197.861,-146 187.861,-142.5 187.861,-149.5"/>
</g>
<!-- Node20 -->
<g id="node20" class="node"><title>Node20</title>
<g id="a_node20"><a xlink:href="../../d0/d7f/classengine_1_1game_object_1_1_game_object.html#ab09d473d8c2afe8cefb2ce2481bc66fd" target="_top" xlink:title="engine.gameObject.GameObject.set\lRenderedNode">
<polygon fill="white" stroke="black" points="198.5,-82 198.5,-112 389.5,-112 389.5,-82 198.5,-82"/>
<text text-anchor="start" x="206.5" y="-100" font-family="Helvetica,sans-Serif" font-size="10.00">engine.gameObject.GameObject.set</text>
<text text-anchor="middle" x="294" y="-89" font-family="Helvetica,sans-Serif" font-size="10.00">RenderedNode</text>
</a>
</g>
</g>
<!-- Node1&#45;&gt;Node20 -->
<g id="edge21" class="edge"><title>Node1&#45;&gt;Node20</title>
<path fill="none" stroke="midnightblue" d="M146.741,-130.965C169.425,-125.698 195.079,-119.74 218.497,-114.302"/>
<polygon fill="midnightblue" stroke="midnightblue" points="219.432,-117.678 228.382,-112.006 217.849,-110.859 219.432,-117.678"/>
</g>
<!-- Node3 -->
<g id="node3" class="node"><title>Node3</title>
<g id="a_node3"><a xlink:href="../../d5/d30/classengine_1_1render_1_1_rendered_node_factory.html#ac14d2f5a3da79d92c967fe22bc82c1ed" target="_top" xlink:title="engine.render.RenderedNode\lFactory.createCollisionBody">
<polygon fill="white" stroke="black" points="449,-434 449,-464 605,-464 605,-434 449,-434"/>
<text text-anchor="start" x="457" y="-452" font-family="Helvetica,sans-Serif" font-size="10.00">engine.render.RenderedNode</text>
<text text-anchor="middle" x="527" y="-441" font-family="Helvetica,sans-Serif" font-size="10.00">Factory.createCollisionBody</text>
</a>
</g>
</g>
<!-- Node2&#45;&gt;Node3 -->
<g id="edge2" class="edge"><title>Node2&#45;&gt;Node3</title>
<path fill="none" stroke="midnightblue" d="M307.213,-210.345C329.883,-238.622 380.324,-300.58 426,-350 451.29,-377.362 481.939,-407.26 502.586,-426.961"/>
<polygon fill="midnightblue" stroke="midnightblue" points="500.318,-429.633 509.978,-433.985 505.14,-424.559 500.318,-429.633"/>
</g>
<!-- Node7 -->
<g id="node7" class="node"><title>Node7</title>
<g id="a_node7"><a xlink:href="../../d5/d30/classengine_1_1render_1_1_rendered_node_factory.html#ae9ab86f88eb96945a412e561179aa070" target="_top" xlink:title="engine.render.RenderedNode\lFactory.createImageAndView">
<polygon fill="white" stroke="black" points="449,-311 449,-341 605,-341 605,-311 449,-311"/>
<text text-anchor="start" x="457" y="-329" font-family="Helvetica,sans-Serif" font-size="10.00">engine.render.RenderedNode</text>
<text text-anchor="middle" x="527" y="-318" font-family="Helvetica,sans-Serif" font-size="10.00">Factory.createImageAndView</text>
</a>
</g>
</g>
<!-- Node2&#45;&gt;Node7 -->
<g id="edge6" class="edge"><title>Node2&#45;&gt;Node7</title>
<path fill="none" stroke="midnightblue" d="M309.194,-210.113C331.735,-233.206 378.09,-277.105 426,-301 430.854,-303.421 435.961,-305.619 441.192,-307.613"/>
<polygon fill="midnightblue" stroke="midnightblue" points="440.121,-310.947 450.716,-310.987 442.458,-304.349 440.121,-310.947"/>
</g>
<!-- Node11 -->
<g id="node11" class="node"><title>Node11</title>
<g id="a_node11"><a xlink:href="../../d5/d30/classengine_1_1render_1_1_rendered_node_factory.html#a4e1f4508b1c12b958bd3c88a35a4e872" target="_top" xlink:title="engine.render.RenderedNode\lFactory.createLabel">
<polygon fill="white" stroke="black" points="449,-262 449,-292 605,-292 605,-262 449,-262"/>
<text text-anchor="start" x="457" y="-280" font-family="Helvetica,sans-Serif" font-size="10.00">engine.render.RenderedNode</text>
<text text-anchor="middle" x="527" y="-269" font-family="Helvetica,sans-Serif" font-size="10.00">Factory.createLabel</text>
</a>
</g>
</g>
<!-- Node2&#45;&gt;Node11 -->
<g id="edge10" class="edge"><title>Node2&#45;&gt;Node11</title>
<path fill="none" stroke="midnightblue" d="M325.662,-210.066C351.855,-222.514 390.776,-240.026 426,-252 433.589,-254.58 441.583,-257.022 449.609,-259.296"/>
<polygon fill="midnightblue" stroke="midnightblue" points="448.819,-262.709 459.389,-261.984 450.674,-255.959 448.819,-262.709"/>
</g>
<!-- Node13 -->
<g id="node13" class="node"><title>Node13</title>
<g id="a_node13"><a xlink:href="../../d0/d7f/classengine_1_1game_object_1_1_game_object.html#ae94fe532960bd29f64c2dc19ec0af798" target="_top" xlink:title="engine.gameObject.GameObject.getID">
<polygon fill="white" stroke="black" points="426,-223.5 426,-242.5 628,-242.5 628,-223.5 426,-223.5"/>
<text text-anchor="middle" x="527" y="-230.5" font-family="Helvetica,sans-Serif" font-size="10.00">engine.gameObject.GameObject.getID</text>
</a>
</g>
</g>
<!-- Node2&#45;&gt;Node13 -->
<g id="edge14" class="edge"><title>Node2&#45;&gt;Node13</title>
<path fill="none" stroke="midnightblue" d="M372.241,-207.706C400.037,-212.279 431.165,-217.4 458.106,-221.831"/>
<polygon fill="midnightblue" stroke="midnightblue" points="457.775,-225.324 468.21,-223.493 458.911,-218.417 457.775,-225.324"/>
</g>
<!-- Node14 -->
<g id="node14" class="node"><title>Node14</title>
<g id="a_node14"><a xlink:href="../../d0/d7f/classengine_1_1game_object_1_1_game_object.html#a606c7293c2bfac0af1fb42143bf527f6" target="_top" xlink:title="engine.gameObject.GameObject.getX">
<polygon fill="white" stroke="black" points="428,-185.5 428,-204.5 626,-204.5 626,-185.5 428,-185.5"/>
<text text-anchor="middle" x="527" y="-192.5" font-family="Helvetica,sans-Serif" font-size="10.00">engine.gameObject.GameObject.getX</text>
</a>
</g>
</g>
<!-- Node2&#45;&gt;Node14 -->
<g id="edge15" class="edge"><title>Node2&#45;&gt;Node14</title>
<path fill="none" stroke="midnightblue" d="M372.241,-195C386.873,-195 402.429,-195 417.812,-195"/>
<polygon fill="midnightblue" stroke="midnightblue" points="417.883,-198.5 427.883,-195 417.883,-191.5 417.883,-198.5"/>
</g>
<!-- Node15 -->
<g id="node15" class="node"><title>Node15</title>
<g id="a_node15"><a xlink:href="../../d0/d7f/classengine_1_1game_object_1_1_game_object.html#a1988806ef560c9384f3844d0666a9450" target="_top" xlink:title="engine.gameObject.GameObject.getY">
<polygon fill="white" stroke="black" points="428.5,-147.5 428.5,-166.5 625.5,-166.5 625.5,-147.5 428.5,-147.5"/>
<text text-anchor="middle" x="527" y="-154.5" font-family="Helvetica,sans-Serif" font-size="10.00">engine.gameObject.GameObject.getY</text>
</a>
</g>
</g>
<!-- Node2&#45;&gt;Node15 -->
<g id="edge16" class="edge"><title>Node2&#45;&gt;Node15</title>
<path fill="none" stroke="midnightblue" d="M372.241,-182.294C400.037,-177.721 431.165,-172.6 458.106,-168.169"/>
<polygon fill="midnightblue" stroke="midnightblue" points="458.911,-171.583 468.21,-166.507 457.775,-164.676 458.911,-171.583"/>
</g>
<!-- Node16 -->
<g id="node16" class="node"><title>Node16</title>
<g id="a_node16"><a xlink:href="../../d2/d82/classengine_1_1render_1_1_rendered_node.html#ad73c81ad48b40faea3818c9a7bbfdcf0" target="_top" xlink:title="engine.render.RenderedNode.set\lCollisionBody">
<polygon fill="white" stroke="black" points="440,-98 440,-128 614,-128 614,-98 440,-98"/>
<text text-anchor="start" x="448" y="-116" font-family="Helvetica,sans-Serif" font-size="10.00">engine.render.RenderedNode.set</text>
<text text-anchor="middle" x="527" y="-105" font-family="Helvetica,sans-Serif" font-size="10.00">CollisionBody</text>
</a>
</g>
</g>
<!-- Node2&#45;&gt;Node16 -->
<g id="edge17" class="edge"><title>Node2&#45;&gt;Node16</title>
<path fill="none" stroke="midnightblue" d="M366.943,-179.966C374.935,-177.163 382.785,-173.867 390,-170 408.868,-159.888 407.07,-147.996 426,-138 430.484,-135.632 435.201,-133.482 440.043,-131.531"/>
<polygon fill="midnightblue" stroke="midnightblue" points="441.332,-134.786 449.484,-128.019 438.891,-128.226 441.332,-134.786"/>
</g>
<!-- Node17 -->
<g id="node17" class="node"><title>Node17</title>
<g id="a_node17"><a xlink:href="../../d2/d82/classengine_1_1render_1_1_rendered_node.html#a520a8c03b505d10c69e010e603cadfdd" target="_top" xlink:title="engine.render.RenderedNode.set\lImageView">
<polygon fill="white" stroke="black" points="440,-49 440,-79 614,-79 614,-49 440,-49"/>
<text text-anchor="start" x="448" y="-67" font-family="Helvetica,sans-Serif" font-size="10.00">engine.render.RenderedNode.set</text>
<text text-anchor="middle" x="527" y="-56" font-family="Helvetica,sans-Serif" font-size="10.00">ImageView</text>
</a>
</g>
</g>
<!-- Node2&#45;&gt;Node17 -->
<g id="edge18" class="edge"><title>Node2&#45;&gt;Node17</title>
<path fill="none" stroke="midnightblue" d="M372.223,-181.332C378.635,-178.272 384.685,-174.543 390,-170 420.256,-144.14 395.464,-113.529 426,-88 427.592,-86.6687 429.246,-85.4089 430.953,-84.2167"/>
<polygon fill="midnightblue" stroke="midnightblue" points="433.147,-86.9794 439.884,-78.8025 429.519,-80.9934 433.147,-86.9794"/>
</g>
<!-- Node18 -->
<g id="node18" class="node"><title>Node18</title>
<g id="a_node18"><a xlink:href="../../d2/d82/classengine_1_1render_1_1_rendered_node.html#a312c663dd1144ff206ecfa1ea8c95a81" target="_top" xlink:title="engine.render.RenderedNode.set\lLabel">
<polygon fill="white" stroke="black" points="440,-0 440,-30 614,-30 614,-0 440,-0"/>
<text text-anchor="start" x="448" y="-18" font-family="Helvetica,sans-Serif" font-size="10.00">engine.render.RenderedNode.set</text>
<text text-anchor="middle" x="527" y="-7" font-family="Helvetica,sans-Serif" font-size="10.00">Label</text>
</a>
</g>
</g>
<!-- Node2&#45;&gt;Node18 -->
<g id="edge19" class="edge"><title>Node2&#45;&gt;Node18</title>
<path fill="none" stroke="midnightblue" d="M372.032,-182.59C378.644,-179.287 384.786,-175.157 390,-170 432.927,-127.537 382.613,-80.9931 426,-39 427.668,-37.3858 429.424,-35.8736 431.256,-34.4573"/>
<polygon fill="midnightblue" stroke="midnightblue" points="433.325,-37.2847 439.726,-28.8422 429.457,-31.4501 433.325,-37.2847"/>
</g>
<!-- Node4 -->
<g id="node4" class="node"><title>Node4</title>
<g id="a_node4"><a xlink:href="../../d9/d9d/classengine_1_1game_object_1_1components_1_1_physics_body.html#aba2ed3bce8ee8e404907c88b144626fc" target="_top" xlink:title="engine.gameObject.components.\lPhysicsBody.getCollisionBodyHeight">
<polygon fill="white" stroke="black" points="666,-507 666,-537 854,-537 854,-507 666,-507"/>
<text text-anchor="start" x="674" y="-525" font-family="Helvetica,sans-Serif" font-size="10.00">engine.gameObject.components.</text>
<text text-anchor="middle" x="760" y="-514" font-family="Helvetica,sans-Serif" font-size="10.00">PhysicsBody.getCollisionBodyHeight</text>
</a>
</g>
</g>
<!-- Node3&#45;&gt;Node4 -->
<g id="edge3" class="edge"><title>Node3&#45;&gt;Node4</title>
<path fill="none" stroke="midnightblue" d="M567.881,-464.047C594.836,-473.975 631.332,-486.955 664,-497 672.026,-499.468 680.478,-501.911 688.897,-504.248"/>
<polygon fill="midnightblue" stroke="midnightblue" points="688.167,-507.677 698.736,-506.938 690.013,-500.925 688.167,-507.677"/>
</g>
<!-- Node5 -->
<g id="node5" class="node"><title>Node5</title>
<g id="a_node5"><a xlink:href="../../d9/d9d/classengine_1_1game_object_1_1components_1_1_physics_body.html#ae64e43632570392c3118b3d00af853fc" target="_top" xlink:title="engine.gameObject.components.\lPhysicsBody.getCollisionBodyWidth">
<polygon fill="white" stroke="black" points="669,-458 669,-488 851,-488 851,-458 669,-458"/>
<text text-anchor="start" x="677" y="-476" font-family="Helvetica,sans-Serif" font-size="10.00">engine.gameObject.components.</text>
<text text-anchor="middle" x="760" y="-465" font-family="Helvetica,sans-Serif" font-size="10.00">PhysicsBody.getCollisionBodyWidth</text>
</a>
</g>
</g>
<!-- Node3&#45;&gt;Node5 -->
<g id="edge4" class="edge"><title>Node3&#45;&gt;Node5</title>
<path fill="none" stroke="midnightblue" d="M605.241,-457.025C622.235,-458.791 640.475,-460.686 658.242,-462.532"/>
<polygon fill="midnightblue" stroke="midnightblue" points="658.327,-466.059 668.635,-463.611 659.051,-459.097 658.327,-466.059"/>
</g>
<!-- Node6 -->
<g id="node6" class="node"><title>Node6</title>
<g id="a_node6"><a xlink:href="../../d0/d7f/classengine_1_1game_object_1_1_game_object.html#a60c5b6933aac9969491a3562a963c043" target="_top" xlink:title="engine.gameObject.GameObject.get\lPhysicsBody">
<polygon fill="white" stroke="black" points="664,-409 664,-439 856,-439 856,-409 664,-409"/>
<text text-anchor="start" x="672" y="-427" font-family="Helvetica,sans-Serif" font-size="10.00">engine.gameObject.GameObject.get</text>
<text text-anchor="middle" x="760" y="-416" font-family="Helvetica,sans-Serif" font-size="10.00">PhysicsBody</text>
</a>
</g>
</g>
<!-- Node3&#45;&gt;Node6 -->
<g id="edge5" class="edge"><title>Node3&#45;&gt;Node6</title>
<path fill="none" stroke="midnightblue" d="M605.241,-440.641C620.773,-438.96 637.346,-437.166 653.647,-435.402"/>
<polygon fill="midnightblue" stroke="midnightblue" points="654.184,-438.864 663.75,-434.308 653.431,-431.905 654.184,-438.864"/>
</g>
<!-- Node8 -->
<g id="node8" class="node"><title>Node8</title>
<g id="a_node8"><a xlink:href="../../d0/d7f/classengine_1_1game_object_1_1_game_object.html#ae8b88e1cf489e935426e2e252defbae0" target="_top" xlink:title="engine.gameObject.GameObject.get\lCurrentImageName">
<polygon fill="white" stroke="black" points="664,-360 664,-390 856,-390 856,-360 664,-360"/>
<text text-anchor="start" x="672" y="-378" font-family="Helvetica,sans-Serif" font-size="10.00">engine.gameObject.GameObject.get</text>
<text text-anchor="middle" x="760" y="-367" font-family="Helvetica,sans-Serif" font-size="10.00">CurrentImageName</text>
</a>
</g>
</g>
<!-- Node7&#45;&gt;Node8 -->
<g id="edge7" class="edge"><title>Node7&#45;&gt;Node8</title>
<path fill="none" stroke="midnightblue" d="M598.877,-341.035C624.044,-346.373 652.55,-352.42 678.464,-357.917"/>
<polygon fill="midnightblue" stroke="midnightblue" points="677.748,-361.343 688.257,-359.994 679.201,-354.495 677.748,-361.343"/>
</g>
<!-- Node9 -->
<g id="node9" class="node"><title>Node9</title>
<g id="a_node9"><a xlink:href="../../d0/d7f/classengine_1_1game_object_1_1_game_object.html#aaeb5730a3b51fe9cb3d817ea7172cfc2" target="_top" xlink:title="engine.gameObject.GameObject.get\lHeight">
<polygon fill="white" stroke="black" points="664,-262 664,-292 856,-292 856,-262 664,-262"/>
<text text-anchor="start" x="672" y="-280" font-family="Helvetica,sans-Serif" font-size="10.00">engine.gameObject.GameObject.get</text>
<text text-anchor="middle" x="760" y="-269" font-family="Helvetica,sans-Serif" font-size="10.00">Height</text>
</a>
</g>
</g>
<!-- Node7&#45;&gt;Node9 -->
<g id="edge8" class="edge"><title>Node7&#45;&gt;Node9</title>
<path fill="none" stroke="midnightblue" d="M598.877,-310.965C624.044,-305.627 652.55,-299.58 678.464,-294.083"/>
<polygon fill="midnightblue" stroke="midnightblue" points="679.201,-297.505 688.257,-292.006 677.748,-290.657 679.201,-297.505"/>
</g>
<!-- Node10 -->
<g id="node10" class="node"><title>Node10</title>
<g id="a_node10"><a xlink:href="../../d0/d7f/classengine_1_1game_object_1_1_game_object.html#a31aa2c854220621b49fc5575b50b9342" target="_top" xlink:title="engine.gameObject.GameObject.get\lWidth">
<polygon fill="white" stroke="black" points="664,-311 664,-341 856,-341 856,-311 664,-311"/>
<text text-anchor="start" x="672" y="-329" font-family="Helvetica,sans-Serif" font-size="10.00">engine.gameObject.GameObject.get</text>
<text text-anchor="middle" x="760" y="-318" font-family="Helvetica,sans-Serif" font-size="10.00">Width</text>
</a>
</g>
</g>
<!-- Node7&#45;&gt;Node10 -->
<g id="edge9" class="edge"><title>Node7&#45;&gt;Node10</title>
<path fill="none" stroke="midnightblue" d="M605.241,-326C620.773,-326 637.346,-326 653.647,-326"/>
<polygon fill="midnightblue" stroke="midnightblue" points="653.75,-329.5 663.75,-326 653.75,-322.5 653.75,-329.5"/>
</g>
<!-- Node11&#45;&gt;Node9 -->
<g id="edge11" class="edge"><title>Node11&#45;&gt;Node9</title>
<path fill="none" stroke="midnightblue" d="M605.241,-277C620.773,-277 637.346,-277 653.647,-277"/>
<polygon fill="midnightblue" stroke="midnightblue" points="653.75,-280.5 663.75,-277 653.75,-273.5 653.75,-280.5"/>
</g>
<!-- Node11&#45;&gt;Node10 -->
<g id="edge13" class="edge"><title>Node11&#45;&gt;Node10</title>
<path fill="none" stroke="midnightblue" d="M598.877,-292.035C624.044,-297.373 652.55,-303.42 678.464,-308.917"/>
<polygon fill="midnightblue" stroke="midnightblue" points="677.748,-312.343 688.257,-310.994 679.201,-305.495 677.748,-312.343"/>
</g>
<!-- Node12 -->
<g id="node12" class="node"><title>Node12</title>
<g id="a_node12"><a xlink:href="../../d0/d7f/classengine_1_1game_object_1_1_game_object.html#a5c379828f3bb19a91935f965c48a91a5" target="_top" xlink:title="engine.gameObject.GameObject.get\lLabel">
<polygon fill="white" stroke="black" points="664,-213 664,-243 856,-243 856,-213 664,-213"/>
<text text-anchor="start" x="672" y="-231" font-family="Helvetica,sans-Serif" font-size="10.00">engine.gameObject.GameObject.get</text>
<text text-anchor="middle" x="760" y="-220" font-family="Helvetica,sans-Serif" font-size="10.00">Label</text>
</a>
</g>
</g>
<!-- Node11&#45;&gt;Node12 -->
<g id="edge12" class="edge"><title>Node11&#45;&gt;Node12</title>
<path fill="none" stroke="midnightblue" d="M598.877,-261.965C624.044,-256.627 652.55,-250.58 678.464,-245.083"/>
<polygon fill="midnightblue" stroke="midnightblue" points="679.201,-248.505 688.257,-243.006 677.748,-241.657 679.201,-248.505"/>
</g>
</g>
</svg>
