<?xml version="1.0" encoding="UTF-8" standalone="no"?>
<!DOCTYPE svg PUBLIC "-//W3C//DTD SVG 1.1//EN"
 "http://www.w3.org/Graphics/SVG/1.1/DTD/svg11.dtd">
<!-- Generated by graphviz version 2.36.0 (20140111.2315)
 -->
<!-- Title: engine.render.Renderer.renderGameObjects Pages: 1 -->
<svg width="1074pt" height="457pt"
 viewBox="0.00 0.00 1074.00 457.00" xmlns="http://www.w3.org/2000/svg" xmlns:xlink="http://www.w3.org/1999/xlink">
<g id="graph0" class="graph" transform="scale(1 1) rotate(0) translate(4 453)">
<title>engine.render.Renderer.renderGameObjects</title>
<polygon fill="white" stroke="none" points="-4,4 -4,-453 1070,-453 1070,4 -4,4"/>
<!-- Node1 -->
<g id="node1" class="node"><title>Node1</title>
<polygon fill="#bfbfbf" stroke="black" points="0,-98 0,-128 162,-128 162,-98 0,-98"/>
<text text-anchor="start" x="8" y="-116" font-family="Helvetica,sans-Serif" font-size="10.00">engine.render.Renderer.render</text>
<text text-anchor="middle" x="81" y="-105" font-family="Helvetica,sans-Serif" font-size="10.00">GameObjects</text>
</g>
<!-- Node2 -->
<g id="node2" class="node"><title>Node2</title>
<g id="a_node2"><a xlink:href="../../dd/d8d/classengine_1_1render_1_1_renderer.html#a569f6bb2f9c218ed015949dff459b1ee" target="_top" xlink:title="engine.render.Renderer.create\lAndAssignRenderedNode">
<polygon fill="white" stroke="black" points="204.5,-187 204.5,-217 365.5,-217 365.5,-187 204.5,-187"/>
<text text-anchor="start" x="212.5" y="-205" font-family="Helvetica,sans-Serif" font-size="10.00">engine.render.Renderer.create</text>
<text text-anchor="middle" x="285" y="-194" font-family="Helvetica,sans-Serif" font-size="10.00">AndAssignRenderedNode</text>
</a>
</g>
</g>
<!-- Node1&#45;&gt;Node2 -->
<g id="edge1" class="edge"><title>Node1&#45;&gt;Node2</title>
<path fill="none" stroke="midnightblue" d="M109.693,-128.003C132.926,-140.307 167.163,-157.787 198,-171 208.052,-175.307 218.924,-179.541 229.445,-183.43"/>
<polygon fill="midnightblue" stroke="midnightblue" points="228.382,-186.768 238.976,-186.897 230.774,-180.189 228.382,-186.768"/>
</g>
<!-- Node20 -->
<g id="node20" class="node"><title>Node20</title>
<g id="a_node20"><a xlink:href="../../d0/d7f/classengine_1_1game_object_1_1_game_object.html#accd456b2eaab9c7056de825a28b066c8" target="_top" xlink:title="engine.gameObject.GameObject.get\lIdentifier">
<polygon fill="white" stroke="black" points="408,-140 408,-170 600,-170 600,-140 408,-140"/>
<text text-anchor="start" x="416" y="-158" font-family="Helvetica,sans-Serif" font-size="10.00">engine.gameObject.GameObject.get</text>
<text text-anchor="middle" x="504" y="-147" font-family="Helvetica,sans-Serif" font-size="10.00">Identifier</text>
</a>
</g>
</g>
<!-- Node1&#45;&gt;Node20 -->
<g id="edge25" class="edge"><title>Node1&#45;&gt;Node20</title>
<path fill="none" stroke="midnightblue" d="M146.142,-128.001C162.935,-131.453 181.078,-134.762 198,-137 264.114,-145.743 338.854,-150.24 397.8,-152.553"/>
<polygon fill="midnightblue" stroke="midnightblue" points="397.742,-156.053 407.867,-152.933 398.006,-149.058 397.742,-156.053"/>
</g>
<!-- Node22 -->
<g id="node22" class="node"><title>Node22</title>
<g id="a_node22"><a xlink:href="../../df/d84/classengine_1_1level_1_1_level.html#af2921158eda86e1f909575ee468eec5c" target="_top" xlink:title="engine.level.Level.getGame\lObjectIterator">
<polygon fill="white" stroke="black" points="210.5,-98 210.5,-128 359.5,-128 359.5,-98 210.5,-98"/>
<text text-anchor="start" x="218.5" y="-116" font-family="Helvetica,sans-Serif" font-size="10.00">engine.level.Level.getGame</text>
<text text-anchor="middle" x="285" y="-105" font-family="Helvetica,sans-Serif" font-size="10.00">ObjectIterator</text>
</a>
</g>
</g>
<!-- Node1&#45;&gt;Node22 -->
<g id="edge23" class="edge"><title>Node1&#45;&gt;Node22</title>
<path fill="none" stroke="midnightblue" d="M162.126,-113C174.642,-113 187.605,-113 200.2,-113"/>
<polygon fill="midnightblue" stroke="midnightblue" points="200.207,-116.5 210.207,-113 200.207,-109.5 200.207,-116.5"/>
</g>
<!-- Node24 -->
<g id="node24" class="node"><title>Node24</title>
<g id="a_node24"><a xlink:href="../../d4/dac/classengine_1_1game_object_1_1_identifier.html#aa2630b5024b9595e43afe0bf53229433" target="_top" xlink:title="engine.gameObject.Identifier.get\lUniqueId">
<polygon fill="white" stroke="black" points="198.5,-49 198.5,-79 371.5,-79 371.5,-49 198.5,-49"/>
<text text-anchor="start" x="206.5" y="-67" font-family="Helvetica,sans-Serif" font-size="10.00">engine.gameObject.Identifier.get</text>
<text text-anchor="middle" x="285" y="-56" font-family="Helvetica,sans-Serif" font-size="10.00">UniqueId</text>
</a>
</g>
</g>
<!-- Node1&#45;&gt;Node24 -->
<g id="edge26" class="edge"><title>Node1&#45;&gt;Node24</title>
<path fill="none" stroke="midnightblue" d="M143.979,-97.9654C165.599,-92.7211 190.037,-86.7931 212.375,-81.3745"/>
<polygon fill="midnightblue" stroke="midnightblue" points="213.245,-84.765 222.138,-79.0062 211.594,-77.9623 213.245,-84.765"/>
</g>
<!-- Node25 -->
<g id="node25" class="node"><title>Node25</title>
<g id="a_node25"><a xlink:href="../../dd/d8d/classengine_1_1render_1_1_renderer.html#a10b850c208c44a1137b099d1967c6e9b" target="_top" xlink:title="engine.render.Renderer.set\lBackGroundImage">
<polygon fill="white" stroke="black" points="212,-0 212,-30 358,-30 358,-0 212,-0"/>
<text text-anchor="start" x="220" y="-18" font-family="Helvetica,sans-Serif" font-size="10.00">engine.render.Renderer.set</text>
<text text-anchor="middle" x="285" y="-7" font-family="Helvetica,sans-Serif" font-size="10.00">BackGroundImage</text>
</a>
</g>
</g>
<!-- Node1&#45;&gt;Node25 -->
<g id="edge27" class="edge"><title>Node1&#45;&gt;Node25</title>
<path fill="none" stroke="midnightblue" d="M101.505,-97.9878C123.767,-81.4837 161.793,-55.169 198,-39 202.454,-37.011 207.113,-35.1483 211.858,-33.411"/>
<polygon fill="midnightblue" stroke="midnightblue" points="213.372,-36.5912 221.683,-30.0206 211.088,-29.9741 213.372,-36.5912"/>
</g>
<!-- Node3 -->
<g id="node3" class="node"><title>Node3</title>
<g id="a_node3"><a xlink:href="../../d5/d30/classengine_1_1render_1_1_rendered_node_factory.html#a359dcce722371dfb49b79528930c1b05" target="_top" xlink:title="engine.render.RenderedNode\lFactory.createRenderedNode">
<polygon fill="white" stroke="black" points="426,-238 426,-268 582,-268 582,-238 426,-238"/>
<text text-anchor="start" x="434" y="-256" font-family="Helvetica,sans-Serif" font-size="10.00">engine.render.RenderedNode</text>
<text text-anchor="middle" x="504" y="-245" font-family="Helvetica,sans-Serif" font-size="10.00">Factory.createRenderedNode</text>
</a>
</g>
</g>
<!-- Node2&#45;&gt;Node3 -->
<g id="edge2" class="edge"><title>Node2&#45;&gt;Node3</title>
<path fill="none" stroke="midnightblue" d="M349.933,-217.026C374.766,-222.862 403.369,-229.584 429.079,-235.627"/>
<polygon fill="midnightblue" stroke="midnightblue" points="428.613,-239.113 439.149,-237.994 430.215,-232.298 428.613,-239.113"/>
</g>
<!-- Node2&#45;&gt;Node20 -->
<g id="edge21" class="edge"><title>Node2&#45;&gt;Node20</title>
<path fill="none" stroke="midnightblue" d="M355.257,-187C377.082,-182.272 401.356,-177.015 423.818,-172.15"/>
<polygon fill="midnightblue" stroke="midnightblue" points="424.624,-175.557 433.657,-170.019 423.143,-168.715 424.624,-175.557"/>
</g>
<!-- Node21 -->
<g id="node21" class="node"><title>Node21</title>
<g id="a_node21"><a xlink:href="../../d0/d7f/classengine_1_1game_object_1_1_game_object.html#ab09d473d8c2afe8cefb2ce2481bc66fd" target="_top" xlink:title="engine.gameObject.GameObject.set\lRenderedNode">
<polygon fill="white" stroke="black" points="408.5,-189 408.5,-219 599.5,-219 599.5,-189 408.5,-189"/>
<text text-anchor="start" x="416.5" y="-207" font-family="Helvetica,sans-Serif" font-size="10.00">engine.gameObject.GameObject.set</text>
<text text-anchor="middle" x="504" y="-196" font-family="Helvetica,sans-Serif" font-size="10.00">RenderedNode</text>
</a>
</g>
</g>
<!-- Node2&#45;&gt;Node21 -->
<g id="edge22" class="edge"><title>Node2&#45;&gt;Node21</title>
<path fill="none" stroke="midnightblue" d="M365.571,-202.733C376.221,-202.832 387.272,-202.933 398.272,-203.035"/>
<polygon fill="midnightblue" stroke="midnightblue" points="398.314,-206.535 408.346,-203.128 398.379,-199.536 398.314,-206.535"/>
</g>
<!-- Node4 -->
<g id="node4" class="node"><title>Node4</title>
<g id="a_node4"><a xlink:href="../../d5/d30/classengine_1_1render_1_1_rendered_node_factory.html#ac14d2f5a3da79d92c967fe22bc82c1ed" target="_top" xlink:title="engine.render.RenderedNode\lFactory.createCollisionBody">
<polygon fill="white" stroke="black" points="659,-272 659,-302 815,-302 815,-272 659,-272"/>
<text text-anchor="start" x="667" y="-290" font-family="Helvetica,sans-Serif" font-size="10.00">engine.render.RenderedNode</text>
<text text-anchor="middle" x="737" y="-279" font-family="Helvetica,sans-Serif" font-size="10.00">Factory.createCollisionBody</text>
</a>
</g>
</g>
<!-- Node3&#45;&gt;Node4 -->
<g id="edge3" class="edge"><title>Node3&#45;&gt;Node4</title>
<path fill="none" stroke="midnightblue" d="M582.241,-264.369C603.624,-267.516 626.979,-270.954 648.883,-274.178"/>
<polygon fill="midnightblue" stroke="midnightblue" points="648.429,-277.648 658.832,-275.642 649.448,-270.723 648.429,-277.648"/>
</g>
<!-- Node8 -->
<g id="node8" class="node"><title>Node8</title>
<g id="a_node8"><a xlink:href="../../d5/d30/classengine_1_1render_1_1_rendered_node_factory.html#ae9ab86f88eb96945a412e561179aa070" target="_top" xlink:title="engine.render.RenderedNode\lFactory.createImageAndView">
<polygon fill="white" stroke="black" points="659,-59 659,-89 815,-89 815,-59 659,-59"/>
<text text-anchor="start" x="667" y="-77" font-family="Helvetica,sans-Serif" font-size="10.00">engine.render.RenderedNode</text>
<text text-anchor="middle" x="737" y="-66" font-family="Helvetica,sans-Serif" font-size="10.00">Factory.createImageAndView</text>
</a>
</g>
</g>
<!-- Node3&#45;&gt;Node8 -->
<g id="edge7" class="edge"><title>Node3&#45;&gt;Node8</title>
<path fill="none" stroke="midnightblue" d="M582.011,-240.568C588.627,-237.27 594.776,-233.147 600,-228 642.401,-186.223 593.342,-140.514 636,-99 640.088,-95.0217 644.708,-91.6465 649.665,-88.7859"/>
<polygon fill="midnightblue" stroke="midnightblue" points="651.523,-91.7704 658.908,-84.1735 648.397,-85.507 651.523,-91.7704"/>
</g>
<!-- Node12 -->
<g id="node12" class="node"><title>Node12</title>
<g id="a_node12"><a xlink:href="../../d5/d30/classengine_1_1render_1_1_rendered_node_factory.html#a4e1f4508b1c12b958bd3c88a35a4e872" target="_top" xlink:title="engine.render.RenderedNode\lFactory.createLabel">
<polygon fill="white" stroke="black" points="659,-223 659,-253 815,-253 815,-223 659,-223"/>
<text text-anchor="start" x="667" y="-241" font-family="Helvetica,sans-Serif" font-size="10.00">engine.render.RenderedNode</text>
<text text-anchor="middle" x="737" y="-230" font-family="Helvetica,sans-Serif" font-size="10.00">Factory.createLabel</text>
</a>
</g>
</g>
<!-- Node3&#45;&gt;Node12 -->
<g id="edge11" class="edge"><title>Node3&#45;&gt;Node12</title>
<path fill="none" stroke="midnightblue" d="M582.241,-247.984C603.527,-246.602 626.769,-245.093 648.587,-243.676"/>
<polygon fill="midnightblue" stroke="midnightblue" points="649.08,-247.152 658.832,-243.011 648.626,-240.166 649.08,-247.152"/>
</g>
<!-- Node14 -->
<g id="node14" class="node"><title>Node14</title>
<g id="a_node14"><a xlink:href="../../d0/d7f/classengine_1_1game_object_1_1_game_object.html#ae94fe532960bd29f64c2dc19ec0af798" target="_top" xlink:title="engine.gameObject.GameObject.getID">
<polygon fill="white" stroke="black" points="636,-184.5 636,-203.5 838,-203.5 838,-184.5 636,-184.5"/>
<text text-anchor="middle" x="737" y="-191.5" font-family="Helvetica,sans-Serif" font-size="10.00">engine.gameObject.GameObject.getID</text>
</a>
</g>
</g>
<!-- Node3&#45;&gt;Node14 -->
<g id="edge15" class="edge"><title>Node3&#45;&gt;Node14</title>
<path fill="none" stroke="midnightblue" d="M567.2,-237.946C578.205,-234.91 589.499,-231.551 600,-228 616.42,-222.448 619.397,-217.978 636,-213 645.331,-210.202 655.281,-207.729 665.149,-205.569"/>
<polygon fill="midnightblue" stroke="midnightblue" points="665.895,-208.989 674.965,-203.514 664.46,-202.138 665.895,-208.989"/>
</g>
<!-- Node15 -->
<g id="node15" class="node"><title>Node15</title>
<g id="a_node15"><a xlink:href="../../d0/d7f/classengine_1_1game_object_1_1_game_object.html#a606c7293c2bfac0af1fb42143bf527f6" target="_top" xlink:title="engine.gameObject.GameObject.getX">
<polygon fill="white" stroke="black" points="638,-146.5 638,-165.5 836,-165.5 836,-146.5 638,-146.5"/>
<text text-anchor="middle" x="737" y="-153.5" font-family="Helvetica,sans-Serif" font-size="10.00">engine.gameObject.GameObject.getX</text>
</a>
</g>
</g>
<!-- Node3&#45;&gt;Node15 -->
<g id="edge16" class="edge"><title>Node3&#45;&gt;Node15</title>
<path fill="none" stroke="midnightblue" d="M582.353,-237.844C588.59,-235.093 594.57,-231.841 600,-228 623.246,-211.554 612.196,-190.628 636,-175 639.009,-173.025 642.172,-171.243 645.445,-169.638"/>
<polygon fill="midnightblue" stroke="midnightblue" points="647.122,-172.727 654.928,-165.563 644.358,-166.296 647.122,-172.727"/>
</g>
<!-- Node16 -->
<g id="node16" class="node"><title>Node16</title>
<g id="a_node16"><a xlink:href="../../d0/d7f/classengine_1_1game_object_1_1_game_object.html#a1988806ef560c9384f3844d0666a9450" target="_top" xlink:title="engine.gameObject.GameObject.getY">
<polygon fill="white" stroke="black" points="638.5,-108.5 638.5,-127.5 835.5,-127.5 835.5,-108.5 638.5,-108.5"/>
<text text-anchor="middle" x="737" y="-115.5" font-family="Helvetica,sans-Serif" font-size="10.00">engine.gameObject.GameObject.getY</text>
</a>
</g>
</g>
<!-- Node3&#45;&gt;Node16 -->
<g id="edge17" class="edge"><title>Node3&#45;&gt;Node16</title>
<path fill="none" stroke="midnightblue" d="M582.402,-239.538C588.778,-236.436 594.769,-232.641 600,-228 632.535,-199.134 602.481,-164.717 636,-137 637.826,-135.49 639.735,-134.087 641.713,-132.782"/>
<polygon fill="midnightblue" stroke="midnightblue" points="643.789,-135.629 650.787,-127.675 640.356,-129.529 643.789,-135.629"/>
</g>
<!-- Node17 -->
<g id="node17" class="node"><title>Node17</title>
<g id="a_node17"><a xlink:href="../../d2/d82/classengine_1_1render_1_1_rendered_node.html#ad73c81ad48b40faea3818c9a7bbfdcf0" target="_top" xlink:title="engine.render.RenderedNode.set\lCollisionBody">
<polygon fill="white" stroke="black" points="650,-419 650,-449 824,-449 824,-419 650,-419"/>
<text text-anchor="start" x="658" y="-437" font-family="Helvetica,sans-Serif" font-size="10.00">engine.render.RenderedNode.set</text>
<text text-anchor="middle" x="737" y="-426" font-family="Helvetica,sans-Serif" font-size="10.00">CollisionBody</text>
</a>
</g>
</g>
<!-- Node3&#45;&gt;Node17 -->
<g id="edge18" class="edge"><title>Node3&#45;&gt;Node17</title>
<path fill="none" stroke="midnightblue" d="M513.253,-268.155C531.193,-299.599 576.92,-372.072 636,-409 639.403,-411.127 642.976,-413.073 646.665,-414.853"/>
<polygon fill="midnightblue" stroke="midnightblue" points="645.474,-418.152 656.039,-418.947 648.275,-411.737 645.474,-418.152"/>
</g>
<!-- Node18 -->
<g id="node18" class="node"><title>Node18</title>
<g id="a_node18"><a xlink:href="../../d2/d82/classengine_1_1render_1_1_rendered_node.html#a520a8c03b505d10c69e010e603cadfdd" target="_top" xlink:title="engine.render.RenderedNode.set\lImageView">
<polygon fill="white" stroke="black" points="650,-370 650,-400 824,-400 824,-370 650,-370"/>
<text text-anchor="start" x="658" y="-388" font-family="Helvetica,sans-Serif" font-size="10.00">engine.render.RenderedNode.set</text>
<text text-anchor="middle" x="737" y="-377" font-family="Helvetica,sans-Serif" font-size="10.00">ImageView</text>
</a>
</g>
</g>
<!-- Node3&#45;&gt;Node18 -->
<g id="edge19" class="edge"><title>Node3&#45;&gt;Node18</title>
<path fill="none" stroke="midnightblue" d="M519.164,-268.262C541.664,-291.581 587.966,-335.905 636,-360 640.679,-362.347 645.594,-364.484 650.63,-366.428"/>
<polygon fill="midnightblue" stroke="midnightblue" points="649.84,-369.863 660.435,-369.935 652.197,-363.272 649.84,-369.863"/>
</g>
<!-- Node19 -->
<g id="node19" class="node"><title>Node19</title>
<g id="a_node19"><a xlink:href="../../d2/d82/classengine_1_1render_1_1_rendered_node.html#a312c663dd1144ff206ecfa1ea8c95a81" target="_top" xlink:title="engine.render.RenderedNode.set\lLabel">
<polygon fill="white" stroke="black" points="650,-321 650,-351 824,-351 824,-321 650,-321"/>
<text text-anchor="start" x="658" y="-339" font-family="Helvetica,sans-Serif" font-size="10.00">engine.render.RenderedNode.set</text>
<text text-anchor="middle" x="737" y="-328" font-family="Helvetica,sans-Serif" font-size="10.00">Label</text>
</a>
</g>
</g>
<!-- Node3&#45;&gt;Node19 -->
<g id="edge20" class="edge"><title>Node3&#45;&gt;Node19</title>
<path fill="none" stroke="midnightblue" d="M535.109,-268.11C561.286,-280.811 600.48,-298.798 636,-311 643.52,-313.583 651.443,-316.023 659.401,-318.291"/>
<polygon fill="midnightblue" stroke="midnightblue" points="658.53,-321.682 669.101,-320.971 660.394,-314.935 658.53,-321.682"/>
</g>
<!-- Node5 -->
<g id="node5" class="node"><title>Node5</title>
<g id="a_node5"><a xlink:href="../../d9/d9d/classengine_1_1game_object_1_1components_1_1_physics_body.html#aba2ed3bce8ee8e404907c88b144626fc" target="_top" xlink:title="engine.gameObject.components.\lPhysicsBody.getCollisionBodyHeight">
<polygon fill="white" stroke="black" points="876,-367 876,-397 1064,-397 1064,-367 876,-367"/>
<text text-anchor="start" x="884" y="-385" font-family="Helvetica,sans-Serif" font-size="10.00">engine.gameObject.components.</text>
<text text-anchor="middle" x="970" y="-374" font-family="Helvetica,sans-Serif" font-size="10.00">PhysicsBody.getCollisionBodyHeight</text>
</a>
</g>
</g>
<!-- Node4&#45;&gt;Node5 -->
<g id="edge4" class="edge"><title>Node4&#45;&gt;Node5</title>
<path fill="none" stroke="midnightblue" d="M815.23,-300.796C823.238,-303.82 830.997,-307.506 838,-312 859.556,-325.832 852.53,-343.035 874,-357 877.19,-359.075 880.545,-360.978 884.013,-362.723"/>
<polygon fill="midnightblue" stroke="midnightblue" points="882.867,-366.046 893.42,-366.986 885.756,-359.67 882.867,-366.046"/>
</g>
<!-- Node6 -->
<g id="node6" class="node"><title>Node6</title>
<g id="a_node6"><a xlink:href="../../d9/d9d/classengine_1_1game_object_1_1components_1_1_physics_body.html#ae64e43632570392c3118b3d00af853fc" target="_top" xlink:title="engine.gameObject.components.\lPhysicsBody.getCollisionBodyWidth">
<polygon fill="white" stroke="black" points="879,-318 879,-348 1061,-348 1061,-318 879,-318"/>
<text text-anchor="start" x="887" y="-336" font-family="Helvetica,sans-Serif" font-size="10.00">engine.gameObject.components.</text>
<text text-anchor="middle" x="970" y="-325" font-family="Helvetica,sans-Serif" font-size="10.00">PhysicsBody.getCollisionBodyWidth</text>
</a>
</g>
</g>
<!-- Node4&#45;&gt;Node6 -->
<g id="edge5" class="edge"><title>Node4&#45;&gt;Node6</title>
<path fill="none" stroke="midnightblue" d="M813.638,-302.062C835.989,-306.513 860.609,-311.416 883.534,-315.981"/>
<polygon fill="midnightblue" stroke="midnightblue" points="883.096,-319.462 893.587,-317.983 884.463,-312.597 883.096,-319.462"/>
</g>
<!-- Node7 -->
<g id="node7" class="node"><title>Node7</title>
<g id="a_node7"><a xlink:href="../../d0/d7f/classengine_1_1game_object_1_1_game_object.html#a60c5b6933aac9969491a3562a963c043" target="_top" xlink:title="engine.gameObject.GameObject.get\lPhysicsBody">
<polygon fill="white" stroke="black" points="874,-269 874,-299 1066,-299 1066,-269 874,-269"/>
<text text-anchor="start" x="882" y="-287" font-family="Helvetica,sans-Serif" font-size="10.00">engine.gameObject.GameObject.get</text>
<text text-anchor="middle" x="970" y="-276" font-family="Helvetica,sans-Serif" font-size="10.00">PhysicsBody</text>
</a>
</g>
</g>
<!-- Node4&#45;&gt;Node7 -->
<g id="edge6" class="edge"><title>Node4&#45;&gt;Node7</title>
<path fill="none" stroke="midnightblue" d="M815.241,-285.997C830.773,-285.795 847.346,-285.58 863.647,-285.368"/>
<polygon fill="midnightblue" stroke="midnightblue" points="863.796,-288.867 873.75,-285.237 863.705,-281.867 863.796,-288.867"/>
</g>
<!-- Node9 -->
<g id="node9" class="node"><title>Node9</title>
<g id="a_node9"><a xlink:href="../../d0/d7f/classengine_1_1game_object_1_1_game_object.html#ae8b88e1cf489e935426e2e252defbae0" target="_top" xlink:title="engine.gameObject.GameObject.get\lCurrentImageName">
<polygon fill="white" stroke="black" points="874,-59 874,-89 1066,-89 1066,-59 874,-59"/>
<text text-anchor="start" x="882" y="-77" font-family="Helvetica,sans-Serif" font-size="10.00">engine.gameObject.GameObject.get</text>
<text text-anchor="middle" x="970" y="-66" font-family="Helvetica,sans-Serif" font-size="10.00">CurrentImageName</text>
</a>
</g>
</g>
<!-- Node8&#45;&gt;Node9 -->
<g id="edge8" class="edge"><title>Node8&#45;&gt;Node9</title>
<path fill="none" stroke="midnightblue" d="M815.241,-74C830.773,-74 847.346,-74 863.647,-74"/>
<polygon fill="midnightblue" stroke="midnightblue" points="863.75,-77.5001 873.75,-74 863.75,-70.5001 863.75,-77.5001"/>
</g>
<!-- Node10 -->
<g id="node10" class="node"><title>Node10</title>
<g id="a_node10"><a xlink:href="../../d0/d7f/classengine_1_1game_object_1_1_game_object.html#aaeb5730a3b51fe9cb3d817ea7172cfc2" target="_top" xlink:title="engine.gameObject.GameObject.get\lHeight">
<polygon fill="white" stroke="black" points="874,-169 874,-199 1066,-199 1066,-169 874,-169"/>
<text text-anchor="start" x="882" y="-187" font-family="Helvetica,sans-Serif" font-size="10.00">engine.gameObject.GameObject.get</text>
<text text-anchor="middle" x="970" y="-176" font-family="Helvetica,sans-Serif" font-size="10.00">Height</text>
</a>
</g>
</g>
<!-- Node8&#45;&gt;Node10 -->
<g id="edge9" class="edge"><title>Node8&#45;&gt;Node10</title>
<path fill="none" stroke="midnightblue" d="M815.204,-86.8782C823.306,-90.0692 831.093,-94.0457 838,-99 862.043,-116.245 850.407,-137.144 874,-155 878.757,-158.6 883.963,-161.757 889.409,-164.524"/>
<polygon fill="midnightblue" stroke="midnightblue" points="888.219,-167.829 898.767,-168.823 891.141,-161.468 888.219,-167.829"/>
</g>
<!-- Node11 -->
<g id="node11" class="node"><title>Node11</title>
<g id="a_node11"><a xlink:href="../../d0/d7f/classengine_1_1game_object_1_1_game_object.html#a31aa2c854220621b49fc5575b50b9342" target="_top" xlink:title="engine.gameObject.GameObject.get\lWidth">
<polygon fill="white" stroke="black" points="874,-116 874,-146 1066,-146 1066,-116 874,-116"/>
<text text-anchor="start" x="882" y="-134" font-family="Helvetica,sans-Serif" font-size="10.00">engine.gameObject.GameObject.get</text>
<text text-anchor="middle" x="970" y="-123" font-family="Helvetica,sans-Serif" font-size="10.00">Width</text>
</a>
</g>
</g>
<!-- Node8&#45;&gt;Node11 -->
<g id="edge10" class="edge"><title>Node8&#45;&gt;Node11</title>
<path fill="none" stroke="midnightblue" d="M798.995,-89.0506C829.39,-96.5507 866.319,-105.663 897.984,-113.476"/>
<polygon fill="midnightblue" stroke="midnightblue" points="897.517,-116.966 908.064,-115.964 899.194,-110.17 897.517,-116.966"/>
</g>
<!-- Node12&#45;&gt;Node10 -->
<g id="edge12" class="edge"><title>Node12&#45;&gt;Node10</title>
<path fill="none" stroke="midnightblue" d="M802.346,-222.958C831.012,-216.257 864.946,-208.324 894.687,-201.372"/>
<polygon fill="midnightblue" stroke="midnightblue" points="895.658,-204.739 904.598,-199.055 894.064,-197.923 895.658,-204.739"/>
</g>
<!-- Node12&#45;&gt;Node11 -->
<g id="edge14" class="edge"><title>Node12&#45;&gt;Node11</title>
<path fill="none" stroke="midnightblue" d="M815.122,-225.007C823.239,-221.837 831.052,-217.897 838,-213 861.578,-196.384 850.773,-176.103 874,-159 878.413,-155.75 883.2,-152.876 888.2,-150.333"/>
<polygon fill="midnightblue" stroke="midnightblue" points="889.77,-153.464 897.393,-146.106 886.845,-147.104 889.77,-153.464"/>
</g>
<!-- Node13 -->
<g id="node13" class="node"><title>Node13</title>
<g id="a_node13"><a xlink:href="../../d0/d7f/classengine_1_1game_object_1_1_game_object.html#a5c379828f3bb19a91935f965c48a91a5" target="_top" xlink:title="engine.gameObject.GameObject.get\lLabel">
<polygon fill="white" stroke="black" points="874,-220 874,-250 1066,-250 1066,-220 874,-220"/>
<text text-anchor="start" x="882" y="-238" font-family="Helvetica,sans-Serif" font-size="10.00">engine.gameObject.GameObject.get</text>
<text text-anchor="middle" x="970" y="-227" font-family="Helvetica,sans-Serif" font-size="10.00">Label</text>
</a>
</g>
</g>
<!-- Node12&#45;&gt;Node13 -->
<g id="edge13" class="edge"><title>Node12&#45;&gt;Node13</title>
<path fill="none" stroke="midnightblue" d="M815.241,-236.997C830.773,-236.795 847.346,-236.58 863.647,-236.368"/>
<polygon fill="midnightblue" stroke="midnightblue" points="863.796,-239.867 873.75,-236.237 863.705,-232.867 863.796,-239.867"/>
</g>
<!-- Node23 -->
<g id="node23" class="node"><title>Node23</title>
<g id="a_node23"><a xlink:href="../../d4/d3b/classauthoring_1_1model_1_1collections_1_1_general_collection.html#a79482ff667a22bb0d5b702c03261fe8d" target="_top" xlink:title="authoring.model.collections.\lGeneralCollection.iterator">
<polygon fill="white" stroke="black" points="428,-91 428,-121 580,-121 580,-91 428,-91"/>
<text text-anchor="start" x="436" y="-109" font-family="Helvetica,sans-Serif" font-size="10.00">authoring.model.collections.</text>
<text text-anchor="middle" x="504" y="-98" font-family="Helvetica,sans-Serif" font-size="10.00">GeneralCollection.iterator</text>
</a>
</g>
</g>
<!-- Node22&#45;&gt;Node23 -->
<g id="edge24" class="edge"><title>Node22&#45;&gt;Node23</title>
<path fill="none" stroke="midnightblue" d="M359.769,-110.62C378.412,-110.019 398.584,-109.368 417.742,-108.75"/>
<polygon fill="midnightblue" stroke="midnightblue" points="418.076,-112.241 427.958,-108.421 417.851,-105.245 418.076,-112.241"/>
</g>
<!-- Node25&#45;&gt;Node8 -->
<g id="edge28" class="edge"><title>Node25&#45;&gt;Node8</title>
<path fill="none" stroke="midnightblue" d="M356.779,-30.0176C373.523,-33.2666 391.352,-36.4793 408,-39 489.325,-51.3138 582.641,-60.8274 648.894,-66.8068"/>
<polygon fill="midnightblue" stroke="midnightblue" points="648.606,-70.2949 658.878,-67.6996 649.229,-63.3228 648.606,-70.2949"/>
</g>
<!-- Node26 -->
<g id="node26" class="node"><title>Node26</title>
<g id="a_node26"><a xlink:href="../../df/d84/classengine_1_1level_1_1_level.html#a5dc36c31fcc8e0b5cbe2a942ec101fdb" target="_top" xlink:title="engine.level.Level.getBackground\lImage">
<polygon fill="white" stroke="black" points="415.5,-0 415.5,-30 592.5,-30 592.5,-0 415.5,-0"/>
<text text-anchor="start" x="423.5" y="-18" font-family="Helvetica,sans-Serif" font-size="10.00">engine.level.Level.getBackground</text>
<text text-anchor="middle" x="504" y="-7" font-family="Helvetica,sans-Serif" font-size="10.00">Image</text>
</a>
</g>
</g>
<!-- Node25&#45;&gt;Node26 -->
<g id="edge29" class="edge"><title>Node25&#45;&gt;Node26</title>
<path fill="none" stroke="midnightblue" d="M358.258,-15C373.226,-15 389.234,-15 404.947,-15"/>
<polygon fill="midnightblue" stroke="midnightblue" points="405.217,-18.5001 415.217,-15 405.217,-11.5001 405.217,-18.5001"/>
</g>
</g>
</svg>
