<?xml version="1.0" encoding="UTF-8" standalone="no"?>
<!DOCTYPE svg PUBLIC "-//W3C//DTD SVG 1.1//EN"
 "http://www.w3.org/Graphics/SVG/1.1/DTD/svg11.dtd">
<!-- Generated by graphviz version 2.36.0 (20140111.2315)
 -->
<!-- Title: engine.render.Renderer.removeRenderedNode Pages: 1 -->
<svg width="388pt" height="283pt"
 viewBox="0.00 0.00 388.00 283.00" xmlns="http://www.w3.org/2000/svg" xmlns:xlink="http://www.w3.org/1999/xlink">
<g id="graph0" class="graph" transform="scale(1 1) rotate(0) translate(4 279)">
<title>engine.render.Renderer.removeRenderedNode</title>
<polygon fill="white" stroke="none" points="-4,4 -4,-279 384,-279 384,4 -4,4"/>
<!-- Node1 -->
<g id="node1" class="node"><title>Node1</title>
<polygon fill="#bfbfbf" stroke="black" points="0.5,-122 0.5,-152 167.5,-152 167.5,-122 0.5,-122"/>
<text text-anchor="start" x="8.5" y="-140" font-family="Helvetica,sans-Serif" font-size="10.00">engine.render.Renderer.remove</text>
<text text-anchor="middle" x="84" y="-129" font-family="Helvetica,sans-Serif" font-size="10.00">RenderedNode</text>
</g>
<!-- Node2 -->
<g id="node2" class="node"><title>Node2</title>
<g id="a_node2"><a xlink:href="../../de/d2b/classengine_1_1actions_1_1render_1_1_erase_canvas.html#acd8682c95e3804579eb323afa299f2a3" target="_top" xlink:title="engine.actions.render.Erase\lCanvas.applyRender">
<polygon fill="white" stroke="black" points="217,-245 217,-275 367,-275 367,-245 217,-245"/>
<text text-anchor="start" x="225" y="-263" font-family="Helvetica,sans-Serif" font-size="10.00">engine.actions.render.Erase</text>
<text text-anchor="middle" x="292" y="-252" font-family="Helvetica,sans-Serif" font-size="10.00">Canvas.applyRender</text>
</a>
</g>
</g>
<!-- Node1&#45;&gt;Node2 -->
<g id="edge1" class="edge"><title>Node1&#45;&gt;Node2</title>
<path fill="none" stroke="midnightblue" d="M106.614,-159.545C129.038,-181.713 166.075,-215.045 204,-235 211.232,-238.805 219.116,-242.096 227.088,-244.925"/>
<polygon fill="midnightblue" stroke="midnightblue" points="108.849,-156.83 99.3146,-152.21 103.887,-161.767 108.849,-156.83"/>
</g>
<!-- Node3 -->
<g id="node3" class="node"><title>Node3</title>
<g id="a_node3"><a xlink:href="../../d0/d2e/classengine_1_1actions_1_1_delete_interacting_objects_action.html#a1a86173d122fd3b90254342a5e2a7837" target="_top" xlink:title="engine.actions.DeleteInteracting\lObjectsAction.execute">
<polygon fill="white" stroke="black" points="206,-196 206,-226 378,-226 378,-196 206,-196"/>
<text text-anchor="start" x="214" y="-214" font-family="Helvetica,sans-Serif" font-size="10.00">engine.actions.DeleteInteracting</text>
<text text-anchor="middle" x="292" y="-203" font-family="Helvetica,sans-Serif" font-size="10.00">ObjectsAction.execute</text>
</a>
</g>
</g>
<!-- Node1&#45;&gt;Node3 -->
<g id="edge2" class="edge"><title>Node1&#45;&gt;Node3</title>
<path fill="none" stroke="midnightblue" d="M127.973,-156.044C150.402,-165.638 178.431,-177.093 204,-186 213.943,-189.464 224.641,-192.827 235.017,-195.905"/>
<polygon fill="midnightblue" stroke="midnightblue" points="129.295,-152.802 118.727,-152.058 126.525,-159.231 129.295,-152.802"/>
</g>
<!-- Node4 -->
<g id="node4" class="node"><title>Node4</title>
<g id="a_node4"><a xlink:href="../../db/db5/classengine_1_1actions_1_1render_1_1_change_image_type_action.html#a09110a0a08bac229b9e2feddf1d3378c" target="_top" xlink:title="engine.actions.render.Change\lImageTypeAction.execute">
<polygon fill="white" stroke="black" points="212,-147 212,-177 372,-177 372,-147 212,-147"/>
<text text-anchor="start" x="220" y="-165" font-family="Helvetica,sans-Serif" font-size="10.00">engine.actions.render.Change</text>
<text text-anchor="middle" x="292" y="-154" font-family="Helvetica,sans-Serif" font-size="10.00">ImageTypeAction.execute</text>
</a>
</g>
</g>
<!-- Node1&#45;&gt;Node4 -->
<g id="edge3" class="edge"><title>Node1&#45;&gt;Node4</title>
<path fill="none" stroke="midnightblue" d="M177.565,-148.234C188.969,-149.618 200.546,-151.023 211.728,-152.38"/>
<polygon fill="midnightblue" stroke="midnightblue" points="177.95,-144.755 167.601,-147.024 177.107,-151.704 177.95,-144.755"/>
</g>
<!-- Node5 -->
<g id="node5" class="node"><title>Node5</title>
<g id="a_node5"><a xlink:href="../../d8/dfe/classengine_1_1actions_1_1_change_image_i_d_action.html#a5517685ef0d4cc94928f226255299f78" target="_top" xlink:title="engine.actions.ChangeImage\lIDAction.execute">
<polygon fill="white" stroke="black" points="214,-98 214,-128 370,-128 370,-98 214,-98"/>
<text text-anchor="start" x="222" y="-116" font-family="Helvetica,sans-Serif" font-size="10.00">engine.actions.ChangeImage</text>
<text text-anchor="middle" x="292" y="-105" font-family="Helvetica,sans-Serif" font-size="10.00">IDAction.execute</text>
</a>
</g>
</g>
<!-- Node1&#45;&gt;Node5 -->
<g id="edge4" class="edge"><title>Node1&#45;&gt;Node5</title>
<path fill="none" stroke="midnightblue" d="M177.666,-126.204C189.718,-124.8 201.961,-123.373 213.725,-122.003"/>
<polygon fill="midnightblue" stroke="midnightblue" points="177.129,-122.743 167.601,-127.377 177.939,-129.696 177.129,-122.743"/>
</g>
<!-- Node6 -->
<g id="node6" class="node"><title>Node6</title>
<g id="a_node6"><a xlink:href="../../da/d60/classengine_1_1actions_1_1_delete_type_action.html#a087b7d237e7e6527a701a0db7eec7825" target="_top" xlink:title="engine.actions.DeleteType\lAction.execute">
<polygon fill="white" stroke="black" points="221,-49 221,-79 363,-79 363,-49 221,-49"/>
<text text-anchor="start" x="229" y="-67" font-family="Helvetica,sans-Serif" font-size="10.00">engine.actions.DeleteType</text>
<text text-anchor="middle" x="292" y="-56" font-family="Helvetica,sans-Serif" font-size="10.00">Action.execute</text>
</a>
</g>
</g>
<!-- Node1&#45;&gt;Node6 -->
<g id="edge5" class="edge"><title>Node1&#45;&gt;Node6</title>
<path fill="none" stroke="midnightblue" d="M129.039,-117.968C151.302,-108.672 178.863,-97.6553 204,-89 214.104,-85.5209 224.979,-82.1261 235.502,-79.0164"/>
<polygon fill="midnightblue" stroke="midnightblue" points="127.389,-114.864 119.529,-121.968 130.104,-121.317 127.389,-114.864"/>
</g>
<!-- Node7 -->
<g id="node7" class="node"><title>Node7</title>
<g id="a_node7"><a xlink:href="../../d4/d9f/classengine_1_1actions_1_1_label_int_increment_action.html#ac110c3332e6d26e169e7e45d537a8d3f" target="_top" xlink:title="engine.actions.LabelIntIncrement\lAction.execute">
<polygon fill="white" stroke="black" points="204,-0 204,-30 380,-30 380,-0 204,-0"/>
<text text-anchor="start" x="212" y="-18" font-family="Helvetica,sans-Serif" font-size="10.00">engine.actions.LabelIntIncrement</text>
<text text-anchor="middle" x="292" y="-7" font-family="Helvetica,sans-Serif" font-size="10.00">Action.execute</text>
</a>
</g>
</g>
<!-- Node1&#45;&gt;Node7 -->
<g id="edge6" class="edge"><title>Node1&#45;&gt;Node7</title>
<path fill="none" stroke="midnightblue" d="M106.659,-114.696C129.117,-92.7629 166.181,-59.7781 204,-40 211.242,-36.2129 219.131,-32.9328 227.106,-30.11"/>
<polygon fill="midnightblue" stroke="midnightblue" points="103.979,-112.425 99.3467,-121.953 108.91,-117.393 103.979,-112.425"/>
</g>
</g>
</svg>
