<?xml version="1.0" encoding="UTF-8" standalone="no"?>
<!DOCTYPE svg PUBLIC "-//W3C//DTD SVG 1.1//EN"
 "http://www.w3.org/Graphics/SVG/1.1/DTD/svg11.dtd">
<!-- Generated by graphviz version 2.36.0 (20140111.2315)
 -->
<!-- Title: engine.render.Renderer.createAndAssignRenderedNode Pages: 1 -->
<!--zoomable 405 -->
<svg id="main" version="1.1" xmlns="http://www.w3.org/2000/svg" xmlns:xlink="http://www.w3.org/1999/xlink" xml:space="preserve" onload="init(evt)">
<style type="text/css"><![CDATA[
.edge:hover path { stroke: red; }
.edge:hover polygon { stroke: red; fill: red; }
]]></style>
<script type="text/javascript"><![CDATA[
var edges = document.getElementsByTagName('g');
if (edges && edges.length) {
  for (var i=0;i<edges.length;i++) {
    if (edges[i].id.substr(0,4)=='edge') {
      edges[i].setAttribute('class','edge');
    }
  }
}
]]></script>
        <defs>
                <circle id="rim" cx="0" cy="0" r="7"/>
                <circle id="rim2" cx="0" cy="0" r="3.5"/>
                <g id="zoomPlus">
                        <use xlink:href="#rim" fill="#404040">
                                <set attributeName="fill" to="#808080" begin="zoomplus.mouseover" end="zoomplus.mouseout"/>
                        </use>
                        <path d="M-4,0h8M0,-4v8" fill="none" stroke="white" stroke-width="1.5" pointer-events="none"/>
                </g>
                <g id="zoomMin">
                        <use xlink:href="#rim" fill="#404040">
                                <set attributeName="fill" to="#808080" begin="zoomminus.mouseover" end="zoomminus.mouseout"/>
                        </use>
                        <path d="M-4,0h8" fill="none" stroke="white" stroke-width="1.5" pointer-events="none"/>
                </g>
                <g id="dirArrow">
                        <path fill="none" stroke="white" stroke-width="1.5" d="M0,-3.0v7 M-2.5,-0.5L0,-3.0L2.5,-0.5"/>
                </g>
               <g id="resetDef">
                       <use xlink:href="#rim2" fill="#404040">
                               <set attributeName="fill" to="#808080" begin="reset.mouseover" end="reset.mouseout"/>
                       </use>
               </g>
        </defs>

<script type="text/javascript">
var viewWidth = 1210;
var viewHeight = 405;
var sectionId = 'dynsection-2';
</script>
<script xlink:href="../../svgpan.js"/>
<svg id="graph" class="graph">
<g id="viewport">
<title>engine.render.Renderer.createAndAssignRenderedNode</title>
<polygon fill="white" stroke="none" points="-4,4 -4,-401 1206,-401 1206,4 -4,4"/>
<!-- Node1 -->
<g id="node1" class="node"><title>Node1</title>
<polygon fill="#bfbfbf" stroke="black" points="0.5,-195 0.5,-225 161.5,-225 161.5,-195 0.5,-195"/>
<text text-anchor="start" x="8.5" y="-213" font-family="Helvetica,sans-Serif" font-size="10.00">engine.render.Renderer.create</text>
<text text-anchor="middle" x="81" y="-202" font-family="Helvetica,sans-Serif" font-size="10.00">AndAssignRenderedNode</text>
</g>
<!-- Node2 -->
<g id="node2" class="node"><title>Node2</title>
<g id="a_node2"><a xlink:href="../../d3/dbb/classengine_1_1actions_1_1render_1_1_paint_canvas.html#a3f4cb25dfb09aa686debf838e806b010" target="_top" xlink:title="engine.actions.render.Paint\lCanvas.applyRender">
<polygon fill="white" stroke="black" points="214,-367 214,-397 360,-397 360,-367 214,-367"/>
<text text-anchor="start" x="222" y="-385" font-family="Helvetica,sans-Serif" font-size="10.00">engine.actions.render.Paint</text>
<text text-anchor="middle" x="287" y="-374" font-family="Helvetica,sans-Serif" font-size="10.00">Canvas.applyRender</text>
</a>
</g>
</g>
<!-- Node1&#45;&gt;Node2 -->
<g id="edge1" class="edge"><title>Node1&#45;&gt;Node2</title>
<path fill="none" stroke="midnightblue" d="M94.5107,-233.947C112.83,-266.661 150.048,-324.91 198,-357 203.808,-360.887 210.219,-364.176 216.854,-366.958"/>
<polygon fill="midnightblue" stroke="midnightblue" points="97.5163,-232.149 89.6459,-225.056 91.3754,-235.509 97.5163,-232.149"/>
</g>
<!-- Node3 -->
<g id="node3" class="node"><title>Node3</title>
<g id="a_node3"><a xlink:href="../../dd/d57/classengine_1_1actions_1_1_make_new_object_from_location_action.html#a2ebd225d5e10817ac79f4044867afa98" target="_top" xlink:title="engine.actions.MakeNewObject\lFromLocationAction.execute">
<polygon fill="white" stroke="black" points="204,-318 204,-348 370,-348 370,-318 204,-318"/>
<text text-anchor="start" x="212" y="-336" font-family="Helvetica,sans-Serif" font-size="10.00">engine.actions.MakeNewObject</text>
<text text-anchor="middle" x="287" y="-325" font-family="Helvetica,sans-Serif" font-size="10.00">FromLocationAction.execute</text>
</a>
</g>
</g>
<!-- Node1&#45;&gt;Node3 -->
<g id="edge2" class="edge"><title>Node1&#45;&gt;Node3</title>
<path fill="none" stroke="midnightblue" d="M102.945,-232.596C124.706,-254.803 160.736,-288.165 198,-308 205.15,-311.806 212.944,-315.088 220.841,-317.903"/>
<polygon fill="midnightblue" stroke="midnightblue" points="105.323,-230.02 95.8641,-225.246 100.282,-234.876 105.323,-230.02"/>
</g>
<!-- Node4 -->
<g id="node4" class="node"><title>Node4</title>
<g id="a_node4"><a xlink:href="../../db/db5/classengine_1_1actions_1_1render_1_1_change_image_type_action.html#a09110a0a08bac229b9e2feddf1d3378c" target="_top" xlink:title="engine.actions.render.Change\lImageTypeAction.execute">
<polygon fill="white" stroke="black" points="207,-269 207,-299 367,-299 367,-269 207,-269"/>
<text text-anchor="start" x="215" y="-287" font-family="Helvetica,sans-Serif" font-size="10.00">engine.actions.render.Change</text>
<text text-anchor="middle" x="287" y="-276" font-family="Helvetica,sans-Serif" font-size="10.00">ImageTypeAction.execute</text>
</a>
</g>
</g>
<!-- Node1&#45;&gt;Node4 -->
<g id="edge3" class="edge"><title>Node1&#45;&gt;Node4</title>
<path fill="none" stroke="midnightblue" d="M123.89,-229.165C145.729,-238.78 173.029,-250.216 198,-259 207.888,-262.478 218.527,-265.825 228.872,-268.876"/>
<polygon fill="midnightblue" stroke="midnightblue" points="125.139,-225.89 114.579,-225.031 122.298,-232.288 125.139,-225.89"/>
</g>
<!-- Node5 -->
<g id="node5" class="node"><title>Node5</title>
<g id="a_node5"><a xlink:href="../../db/d61/classengine_1_1actions_1_1_make_new_object_from_object_action.html#a01ffb165d6169f7b0a22733e2b6c61a9" target="_top" xlink:title="engine.actions.MakeNewObject\lFromObjectAction.execute">
<polygon fill="white" stroke="black" points="204,-220 204,-250 370,-250 370,-220 204,-220"/>
<text text-anchor="start" x="212" y="-238" font-family="Helvetica,sans-Serif" font-size="10.00">engine.actions.MakeNewObject</text>
<text text-anchor="middle" x="287" y="-227" font-family="Helvetica,sans-Serif" font-size="10.00">FromObjectAction.execute</text>
</a>
</g>
</g>
<!-- Node1&#45;&gt;Node5 -->
<g id="edge4" class="edge"><title>Node1&#45;&gt;Node5</title>
<path fill="none" stroke="midnightblue" d="M171.902,-221.017C182.566,-222.324 193.409,-223.653 203.955,-224.946"/>
<polygon fill="midnightblue" stroke="midnightblue" points="172.1,-217.516 161.748,-219.773 171.248,-224.464 172.1,-217.516"/>
</g>
<!-- Node6 -->
<g id="node6" class="node"><title>Node6</title>
<g id="a_node6"><a xlink:href="../../d8/dfe/classengine_1_1actions_1_1_change_image_i_d_action.html#a5517685ef0d4cc94928f226255299f78" target="_top" xlink:title="engine.actions.ChangeImage\lIDAction.execute">
<polygon fill="white" stroke="black" points="209,-171 209,-201 365,-201 365,-171 209,-171"/>
<text text-anchor="start" x="217" y="-189" font-family="Helvetica,sans-Serif" font-size="10.00">engine.actions.ChangeImage</text>
<text text-anchor="middle" x="287" y="-178" font-family="Helvetica,sans-Serif" font-size="10.00">IDAction.execute</text>
</a>
</g>
</g>
<!-- Node1&#45;&gt;Node6 -->
<g id="edge5" class="edge"><title>Node1&#45;&gt;Node6</title>
<path fill="none" stroke="midnightblue" d="M172.03,-199.408C184.355,-197.958 196.917,-196.48 208.981,-195.061"/>
<polygon fill="midnightblue" stroke="midnightblue" points="171.271,-195.973 161.748,-200.618 172.089,-202.925 171.271,-195.973"/>
</g>
<!-- Node7 -->
<g id="node7" class="node"><title>Node7</title>
<g id="a_node7"><a xlink:href="../../d4/d9f/classengine_1_1actions_1_1_label_int_increment_action.html#ac110c3332e6d26e169e7e45d537a8d3f" target="_top" xlink:title="engine.actions.LabelIntIncrement\lAction.execute">
<polygon fill="white" stroke="black" points="199,-122 199,-152 375,-152 375,-122 199,-122"/>
<text text-anchor="start" x="207" y="-140" font-family="Helvetica,sans-Serif" font-size="10.00">engine.actions.LabelIntIncrement</text>
<text text-anchor="middle" x="287" y="-129" font-family="Helvetica,sans-Serif" font-size="10.00">Action.execute</text>
</a>
</g>
</g>
<!-- Node1&#45;&gt;Node7 -->
<g id="edge6" class="edge"><title>Node1&#45;&gt;Node7</title>
<path fill="none" stroke="midnightblue" d="M124.636,-190.972C146.365,-181.63 173.343,-170.572 198,-162 208.051,-158.506 218.869,-155.128 229.363,-152.046"/>
<polygon fill="midnightblue" stroke="midnightblue" points="123.143,-187.804 115.359,-194.992 125.927,-194.227 123.143,-187.804"/>
</g>
<!-- Node8 -->
<g id="node8" class="node"><title>Node8</title>
<g id="a_node8"><a xlink:href="../../da/d16/classengine_1_1actions_1_1_make_new_random_object_action.html#a82ccd5604bd05170e416e41b32020f00" target="_top" xlink:title="engine.actions.MakeNewRandom\lObjectAction.makeRandomObject">
<polygon fill="white" stroke="black" points="198,-73 198,-103 376,-103 376,-73 198,-73"/>
<text text-anchor="start" x="206" y="-91" font-family="Helvetica,sans-Serif" font-size="10.00">engine.actions.MakeNewRandom</text>
<text text-anchor="middle" x="287" y="-80" font-family="Helvetica,sans-Serif" font-size="10.00">ObjectAction.makeRandomObject</text>
</a>
</g>
</g>
<!-- Node1&#45;&gt;Node8 -->
<g id="edge7" class="edge"><title>Node1&#45;&gt;Node8</title>
<path fill="none" stroke="midnightblue" d="M102.99,-187.645C124.787,-165.672 160.844,-132.657 198,-113 205.16,-109.212 212.959,-105.941 220.86,-103.132"/>
<polygon fill="midnightblue" stroke="midnightblue" points="100.375,-185.314 95.8969,-194.917 105.385,-190.202 100.375,-185.314"/>
</g>
<!-- Node10 -->
<g id="node10" class="node"><title>Node10</title>
<g id="a_node10"><a xlink:href="../../dd/d8d/classengine_1_1render_1_1_renderer.html#a189dda9a8463274afe267959860f0dee" target="_top" xlink:title="engine.render.Renderer.render\lGameObjects">
<polygon fill="white" stroke="black" points="206,-24 206,-54 368,-54 368,-24 206,-24"/>
<text text-anchor="start" x="214" y="-42" font-family="Helvetica,sans-Serif" font-size="10.00">engine.render.Renderer.render</text>
<text text-anchor="middle" x="287" y="-31" font-family="Helvetica,sans-Serif" font-size="10.00">GameObjects</text>
</a>
</g>
</g>
<!-- Node1&#45;&gt;Node10 -->
<g id="edge9" class="edge"><title>Node1&#45;&gt;Node10</title>
<path fill="none" stroke="midnightblue" d="M94.8365,-185.715C113.304,-153.135 150.441,-95.7127 198,-64 203.814,-60.1231 210.229,-56.8403 216.867,-54.062"/>
<polygon fill="midnightblue" stroke="midnightblue" points="91.7053,-184.145 89.9215,-194.588 97.8286,-187.537 91.7053,-184.145"/>
</g>
<!-- Node9 -->
<g id="node9" class="node"><title>Node9</title>
<g id="a_node9"><a xlink:href="../../da/d16/classengine_1_1actions_1_1_make_new_random_object_action.html#aa831c4b818ed75f812bf8ba0d453c942" target="_top" xlink:title="engine.actions.MakeNewRandom\lObjectAction.execute">
<polygon fill="white" stroke="black" points="416.5,-73 416.5,-103 591.5,-103 591.5,-73 416.5,-73"/>
<text text-anchor="start" x="424.5" y="-91" font-family="Helvetica,sans-Serif" font-size="10.00">engine.actions.MakeNewRandom</text>
<text text-anchor="middle" x="504" y="-80" font-family="Helvetica,sans-Serif" font-size="10.00">ObjectAction.execute</text>
</a>
</g>
</g>
<!-- Node8&#45;&gt;Node9 -->
<g id="edge8" class="edge"><title>Node8&#45;&gt;Node9</title>
<path fill="none" stroke="midnightblue" d="M386.135,-88C396.252,-88 406.48,-88 416.458,-88"/>
<polygon fill="midnightblue" stroke="midnightblue" points="386.069,-84.5001 376.069,-88 386.069,-91.5001 386.069,-84.5001"/>
</g>
<!-- Node11 -->
<g id="node11" class="node"><title>Node11</title>
<g id="a_node11"><a xlink:href="../../df/d67/classengine_1_1level_1_1_level_manager.html#a523599892453015eed0f1b506979af8a" target="_top" xlink:title="engine.level.LevelManager.initialize\lCurrentLevel">
<polygon fill="white" stroke="black" points="412,-24 412,-54 596,-54 596,-24 412,-24"/>
<text text-anchor="start" x="420" y="-42" font-family="Helvetica,sans-Serif" font-size="10.00">engine.level.LevelManager.initialize</text>
<text text-anchor="middle" x="504" y="-31" font-family="Helvetica,sans-Serif" font-size="10.00">CurrentLevel</text>
</a>
</g>
</g>
<!-- Node10&#45;&gt;Node11 -->
<g id="edge10" class="edge"><title>Node10&#45;&gt;Node11</title>
<path fill="none" stroke="midnightblue" d="M378.147,-39C389.224,-39 400.555,-39 411.65,-39"/>
<polygon fill="midnightblue" stroke="midnightblue" points="378.058,-35.5001 368.058,-39 378.058,-42.5001 378.058,-35.5001"/>
</g>
<!-- Node12 -->
<g id="node12" class="node"><title>Node12</title>
<g id="a_node12"><a xlink:href="../../df/d67/classengine_1_1level_1_1_level_manager.html#a1d0f314bbf304bf86067ab87b832d2e0" target="_top" xlink:title="engine.level.LevelManager.find\lAndSetStartLevel">
<polygon fill="white" stroke="black" points="632.5,-49 632.5,-79 795.5,-79 795.5,-49 632.5,-49"/>
<text text-anchor="start" x="640.5" y="-67" font-family="Helvetica,sans-Serif" font-size="10.00">engine.level.LevelManager.find</text>
<text text-anchor="middle" x="714" y="-56" font-family="Helvetica,sans-Serif" font-size="10.00">AndSetStartLevel</text>
</a>
</g>
</g>
<!-- Node11&#45;&gt;Node12 -->
<g id="edge11" class="edge"><title>Node11&#45;&gt;Node12</title>
<path fill="none" stroke="midnightblue" d="M606.403,-51.1878C615.089,-52.2318 623.799,-53.2787 632.291,-54.2994"/>
<polygon fill="midnightblue" stroke="midnightblue" points="606.578,-47.6838 596.232,-49.9654 605.743,-54.6338 606.578,-47.6838"/>
</g>
<!-- Node14 -->
<g id="node14" class="node"><title>Node14</title>
<g id="a_node14"><a xlink:href="../../df/d67/classengine_1_1level_1_1_level_manager.html#ad89101547413fe335873b050fd091c79" target="_top" xlink:title="engine.level.LevelManager.set\lCurrentLevel">
<polygon fill="white" stroke="black" points="633.5,-0 633.5,-30 794.5,-30 794.5,-0 633.5,-0"/>
<text text-anchor="start" x="641.5" y="-18" font-family="Helvetica,sans-Serif" font-size="10.00">engine.level.LevelManager.set</text>
<text text-anchor="middle" x="714" y="-7" font-family="Helvetica,sans-Serif" font-size="10.00">CurrentLevel</text>
</a>
</g>
</g>
<!-- Node11&#45;&gt;Node14 -->
<g id="edge13" class="edge"><title>Node11&#45;&gt;Node14</title>
<path fill="none" stroke="midnightblue" d="M606.39,-27.3012C615.41,-26.2604 624.456,-25.2166 633.257,-24.2011"/>
<polygon fill="midnightblue" stroke="midnightblue" points="605.765,-23.85 596.232,-28.4733 606.567,-30.8039 605.765,-23.85"/>
</g>
<!-- Node13 -->
<g id="node13" class="node"><title>Node13</title>
<g id="a_node13"><a xlink:href="../../df/d67/classengine_1_1level_1_1_level_manager.html#a587b50d02654d70122a28bcda169bb8d" target="_top" xlink:title="engine.level.LevelManager.\lLevelManager">
<polygon fill="white" stroke="black" points="850,-49 850,-79 996,-79 996,-49 850,-49"/>
<text text-anchor="start" x="858" y="-67" font-family="Helvetica,sans-Serif" font-size="10.00">engine.level.LevelManager.</text>
<text text-anchor="middle" x="923" y="-56" font-family="Helvetica,sans-Serif" font-size="10.00">LevelManager</text>
</a>
</g>
</g>
<!-- Node12&#45;&gt;Node13 -->
<g id="edge12" class="edge"><title>Node12&#45;&gt;Node13</title>
<path fill="none" stroke="midnightblue" d="M805.735,-64C820.442,-64 835.497,-64 849.69,-64"/>
<polygon fill="midnightblue" stroke="midnightblue" points="805.624,-60.5001 795.624,-64 805.624,-67.5001 805.624,-60.5001"/>
</g>
<!-- Node15 -->
<g id="node15" class="node"><title>Node15</title>
<g id="a_node15"><a xlink:href="../../df/d67/classengine_1_1level_1_1_level_manager.html#ad3c392cf6260c53428255fb596442692" target="_top" xlink:title="engine.level.LevelManager.change\lToLevel">
<polygon fill="white" stroke="black" points="832.5,-0 832.5,-30 1013.5,-30 1013.5,-0 832.5,-0"/>
<text text-anchor="start" x="840.5" y="-18" font-family="Helvetica,sans-Serif" font-size="10.00">engine.level.LevelManager.change</text>
<text text-anchor="middle" x="923" y="-7" font-family="Helvetica,sans-Serif" font-size="10.00">ToLevel</text>
</a>
</g>
</g>
<!-- Node14&#45;&gt;Node15 -->
<g id="edge14" class="edge"><title>Node14&#45;&gt;Node15</title>
<path fill="none" stroke="midnightblue" d="M804.917,-15C814.001,-15 823.228,-15 832.31,-15"/>
<polygon fill="midnightblue" stroke="midnightblue" points="804.736,-11.5001 794.736,-15 804.735,-18.5001 804.736,-11.5001"/>
</g>
<!-- Node16 -->
<g id="node16" class="node"><title>Node16</title>
<g id="a_node16"><a xlink:href="../../d1/d73/classengine_1_1actions_1_1_change_level_action.html#a8190adf308768b0d12f6432d0cf0fbc4" target="_top" xlink:title="engine.actions.ChangeLevel\lAction.execute">
<polygon fill="white" stroke="black" points="1050.5,-0 1050.5,-30 1201.5,-30 1201.5,-0 1050.5,-0"/>
<text text-anchor="start" x="1058.5" y="-18" font-family="Helvetica,sans-Serif" font-size="10.00">engine.actions.ChangeLevel</text>
<text text-anchor="middle" x="1126" y="-7" font-family="Helvetica,sans-Serif" font-size="10.00">Action.execute</text>
</a>
</g>
</g>
<!-- Node15&#45;&gt;Node16 -->
<g id="edge15" class="edge"><title>Node15&#45;&gt;Node16</title>
<path fill="none" stroke="midnightblue" d="M1023.71,-15C1032.65,-15 1041.61,-15 1050.29,-15"/>
<polygon fill="midnightblue" stroke="midnightblue" points="1023.62,-11.5001 1013.62,-15 1023.62,-18.5001 1023.62,-11.5001"/>
</g>
</g>
</svg>
        <g id="navigator" transform="translate(0 0)" fill="#404254">
                <rect fill="#f2f5e9" fill-opacity="0.5" stroke="#606060" stroke-width=".5" x="0" y="0" width="60" height="60"/>
                <use id="zoomplus" xlink:href="#zoomPlus" x="17" y="9" onmousedown="handleZoom(evt,'in')"/>
                <use id="zoomminus" xlink:href="#zoomMin" x="42" y="9" onmousedown="handleZoom(evt,'out')"/>
                <use id="reset" xlink:href="#resetDef" x="30" y="36" onmousedown="handleReset()"/>
                <g id="arrowUp" xlink:href="#dirArrow" transform="translate(30 24)" onmousedown="handlePan(0,-1)">
                  <use xlink:href="#rim" fill="#404040">
                        <set attributeName="fill" to="#808080" begin="arrowUp.mouseover" end="arrowUp.mouseout"/>
                  </use>
                  <path fill="none" stroke="white" stroke-width="1.5" d="M0,-3.0v7 M-2.5,-0.5L0,-3.0L2.5,-0.5"/>
                </g>
                <g id="arrowRight" xlink:href="#dirArrow" transform="rotate(90) translate(36 -43)" onmousedown="handlePan(1,0)">
                  <use xlink:href="#rim" fill="#404040">
                        <set attributeName="fill" to="#808080" begin="arrowRight.mouseover" end="arrowRight.mouseout"/>
                  </use>
                  <path fill="none" stroke="white" stroke-width="1.5" d="M0,-3.0v7 M-2.5,-0.5L0,-3.0L2.5,-0.5"/>
                </g>
                <g id="arrowDown" xlink:href="#dirArrow" transform="rotate(180) translate(-30 -48)" onmousedown="handlePan(0,1)">
                  <use xlink:href="#rim" fill="#404040">
                        <set attributeName="fill" to="#808080" begin="arrowDown.mouseover" end="arrowDown.mouseout"/>
                  </use>
                  <path fill="none" stroke="white" stroke-width="1.5" d="M0,-3.0v7 M-2.5,-0.5L0,-3.0L2.5,-0.5"/>
                </g>
                <g id="arrowLeft" xlink:href="#dirArrow" transform="rotate(270) translate(-36 17)" onmousedown="handlePan(-1,0)">
                  <use xlink:href="#rim" fill="#404040">
                        <set attributeName="fill" to="#808080" begin="arrowLeft.mouseover" end="arrowLeft.mouseout"/>
                  </use>
                  <path fill="none" stroke="white" stroke-width="1.5" d="M0,-3.0v7 M-2.5,-0.5L0,-3.0L2.5,-0.5"/>
                </g>
        </g>
        <svg viewBox="0 0 15 15" width="100%" height="30px" preserveAspectRatio="xMaxYMin meet">
         <g id="arrow_out" transform="scale(0.3 0.3)">
          <a xlink:href="classengine_1_1render_1_1_renderer_a569f6bb2f9c218ed015949dff459b1ee_icgraph_org.svg" target="_base">
           <rect id="button" ry="5" rx="5" y="6" x="6" height="38" width="38"
                fill="#f2f5e9" fill-opacity="0.5" stroke="#606060" stroke-width="1.0"/>
           <path id="arrow"
             d="M 11.500037,31.436501 C 11.940474,20.09759 22.043105,11.32322 32.158766,21.979434 L 37.068811,17.246167 C 37.068811,17.246167 37.088388,32 37.088388,32 L 22.160133,31.978069 C 22.160133,31.978069 26.997745,27.140456 26.997745,27.140456 C 18.528582,18.264221 13.291696,25.230495 11.500037,31.436501 z"
             style="fill:#404040;"/>
          </a>
         </g>
        </svg>
</svg>
