<?xml version="1.0" encoding="UTF-8" standalone="no"?>
<!DOCTYPE svg PUBLIC "-//W3C//DTD SVG 1.1//EN"
 "http://www.w3.org/Graphics/SVG/1.1/DTD/svg11.dtd">
<!-- Generated by graphviz version 2.36.0 (20140111.2315)
 -->
<!-- Title: authoring.view.wizards.ConditionRadioButton Pages: 1 -->
<svg width="2130pt" height="651pt"
 viewBox="0.00 0.00 2130.00 650.86" xmlns="http://www.w3.org/2000/svg" xmlns:xlink="http://www.w3.org/1999/xlink">
<g id="graph0" class="graph" transform="scale(1 1) rotate(0) translate(4 646.856)">
<title>authoring.view.wizards.ConditionRadioButton</title>
<polygon fill="white" stroke="none" points="-4,4 -4,-646.856 2126,-646.856 2126,4 -4,4"/>
<!-- Node1 -->
<g id="node1" class="node"><title>Node1</title>
<polygon fill="#bfbfbf" stroke="black" points="1950.5,-527.856 1950.5,-557.856 2121.5,-557.856 2121.5,-527.856 1950.5,-527.856"/>
<text text-anchor="start" x="1958.5" y="-545.856" font-family="Helvetica,sans-Serif" font-size="10.00">authoring.view.wizards.Condition</text>
<text text-anchor="middle" x="2036" y="-534.856" font-family="Helvetica,sans-Serif" font-size="10.00">RadioButton</text>
</g>
<!-- Node2 -->
<g id="node2" class="node"><title>Node2</title>
<polygon fill="white" stroke="#bfbfbf" points="1737.5,-549.356 1737.5,-568.356 1812.5,-568.356 1812.5,-549.356 1737.5,-549.356"/>
<text text-anchor="middle" x="1775" y="-556.356" font-family="Helvetica,sans-Serif" font-size="10.00">RadioButton</text>
</g>
<!-- Node2&#45;&gt;Node1 -->
<g id="edge1" class="edge"><title>Node2&#45;&gt;Node1</title>
<path fill="none" stroke="midnightblue" d="M1822.62,-555.976C1858.08,-553.785 1907.84,-550.712 1950.28,-548.09"/>
<polygon fill="midnightblue" stroke="midnightblue" points="1822.32,-552.488 1812.56,-556.598 1822.76,-559.474 1822.32,-552.488"/>
</g>
<!-- Node3 -->
<g id="node3" class="node"><title>Node3</title>
<g id="a_node3"><a xlink:href="../../d1/d3b/classengine_1_1conditions_1_1_condition.html" target="_top" xlink:title="engine.conditions.Condition">
<polygon fill="white" stroke="black" points="1700.5,-511.356 1700.5,-530.356 1849.5,-530.356 1849.5,-511.356 1700.5,-511.356"/>
<text text-anchor="middle" x="1775" y="-518.356" font-family="Helvetica,sans-Serif" font-size="10.00">engine.conditions.Condition</text>
</a>
</g>
</g>
<!-- Node3&#45;&gt;Node1 -->
<g id="edge2" class="edge"><title>Node3&#45;&gt;Node1</title>
<path fill="none" stroke="#9a32cd" stroke-dasharray="5,2" d="M1859.63,-527.96C1888.66,-530.425 1921.21,-533.19 1950.32,-535.663"/>
<polygon fill="#9a32cd" stroke="#9a32cd" points="1859.79,-524.461 1849.53,-527.102 1859.19,-531.435 1859.79,-524.461"/>
<text text-anchor="middle" x="1900" y="-536.856" font-family="Helvetica,sans-Serif" font-size="10.00"> myCondition</text>
</g>
<!-- Node4 -->
<g id="node4" class="node"><title>Node4</title>
<g id="a_node4"><a xlink:href="../../dc/df6/interfaceengine_1_1game_object_1_1_identifiable.html" target="_top" xlink:title="engine.gameObject.Identifiable">
<polygon fill="white" stroke="black" points="242.5,-482.356 242.5,-501.356 407.5,-501.356 407.5,-482.356 242.5,-482.356"/>
<text text-anchor="middle" x="325" y="-489.356" font-family="Helvetica,sans-Serif" font-size="10.00">engine.gameObject.Identifiable</text>
</a>
</g>
</g>
<!-- Node4&#45;&gt;Node3 -->
<g id="edge3" class="edge"><title>Node4&#45;&gt;Node3</title>
<path fill="none" stroke="midnightblue" d="M376.514,-504.82C387.567,-509.11 398.723,-514.686 408,-521.856 419.12,-530.451 414.023,-540.502 426,-547.856 509.718,-599.264 546.758,-577.856 645,-577.856 645,-577.856 645,-577.856 1075,-577.856 1305.73,-577.856 1577.89,-546.623 1703.71,-530.397"/>
<polygon fill="midnightblue" stroke="midnightblue" points="377.472,-501.445 366.877,-501.372 375.114,-508.036 377.472,-501.445"/>
</g>
<!-- Node17 -->
<g id="node17" class="node"><title>Node17</title>
<g id="a_node17"><a xlink:href="../../df/d84/classengine_1_1level_1_1_level.html" target="_top" xlink:title="engine.level.Level">
<polygon fill="white" stroke="black" points="595.5,-393.356 595.5,-412.356 696.5,-412.356 696.5,-393.356 595.5,-393.356"/>
<text text-anchor="middle" x="646" y="-400.356" font-family="Helvetica,sans-Serif" font-size="10.00">engine.level.Level</text>
</a>
</g>
</g>
<!-- Node4&#45;&gt;Node17 -->
<g id="edge20" class="edge"><title>Node4&#45;&gt;Node17</title>
<path fill="none" stroke="midnightblue" d="M417.645,-487.097C458.87,-481.439 506.563,-469.727 544,-445.856 555.242,-438.688 550.819,-429.12 562,-421.856 571.917,-415.413 583.741,-411.142 595.312,-408.313"/>
<polygon fill="midnightblue" stroke="midnightblue" points="417.067,-483.643 407.589,-488.377 417.951,-490.587 417.067,-483.643"/>
</g>
<!-- Node5 -->
<g id="node5" class="node"><title>Node5</title>
<g id="a_node5"><a xlink:href="../../d2/d15/interfaceengine_1_1actions_1_1_initializable.html" target="_top" xlink:title="engine.actions.Initializable">
<polygon fill="white" stroke="black" points="1424,-584.356 1424,-603.356 1566,-603.356 1566,-584.356 1424,-584.356"/>
<text text-anchor="middle" x="1495" y="-591.356" font-family="Helvetica,sans-Serif" font-size="10.00">engine.actions.Initializable</text>
</a>
</g>
</g>
<!-- Node5&#45;&gt;Node3 -->
<g id="edge4" class="edge"><title>Node5&#45;&gt;Node3</title>
<path fill="none" stroke="midnightblue" d="M1576.58,-598.606C1611.46,-597.018 1651.25,-589.974 1682,-569.856 1695.01,-561.343 1687.54,-549.153 1700,-539.856 1705.21,-535.97 1711.14,-532.876 1717.31,-530.412"/>
<polygon fill="midnightblue" stroke="midnightblue" points="1576.3,-595.113 1566.41,-598.924 1576.51,-602.11 1576.3,-595.113"/>
</g>
<!-- Node6 -->
<g id="node6" class="node"><title>Node6</title>
<g id="a_node6"><a xlink:href="../../d4/dac/classengine_1_1game_object_1_1_identifier.html" target="_top" xlink:title="engine.gameObject.Identifier">
<polygon fill="white" stroke="black" points="247.5,-531.356 247.5,-550.356 402.5,-550.356 402.5,-531.356 247.5,-531.356"/>
<text text-anchor="middle" x="325" y="-538.356" font-family="Helvetica,sans-Serif" font-size="10.00">engine.gameObject.Identifier</text>
</a>
</g>
</g>
<!-- Node6&#45;&gt;Node3 -->
<g id="edge5" class="edge"><title>Node6&#45;&gt;Node3</title>
<path fill="none" stroke="#9a32cd" stroke-dasharray="5,2" d="M349.94,-555.583C369.673,-567.093 398.747,-582.639 426,-591.856 519.728,-623.556 546.056,-631.856 645,-631.856 645,-631.856 645,-631.856 1496,-631.856 1580.04,-631.856 1619.12,-653.605 1682,-597.856 1702.2,-579.951 1680.45,-558.462 1700,-539.856 1704.04,-536.016 1708.74,-532.924 1713.78,-530.439"/>
<polygon fill="#9a32cd" stroke="#9a32cd" points="351.697,-552.555 341.312,-550.459 348.123,-558.574 351.697,-552.555"/>
<text text-anchor="middle" x="1074" y="-634.856" font-family="Helvetica,sans-Serif" font-size="10.00"> myId</text>
</g>
<!-- Node6&#45;&gt;Node17 -->
<g id="edge21" class="edge"><title>Node6&#45;&gt;Node17</title>
<path fill="none" stroke="#9a32cd" stroke-dasharray="5,2" d="M412.619,-535.965C457.117,-529.114 509.159,-513.732 544,-479.856 563.351,-461.041 542.205,-440.204 562,-421.856 571.107,-413.415 583.174,-408.468 595.278,-405.63"/>
<polygon fill="#9a32cd" stroke="#9a32cd" points="412.072,-532.508 402.663,-537.377 413.055,-539.438 412.072,-532.508"/>
<text text-anchor="middle" x="485" y="-535.856" font-family="Helvetica,sans-Serif" font-size="10.00"> myId</text>
</g>
<!-- Node7 -->
<g id="node7" class="node"><title>Node7</title>
<polygon fill="white" stroke="#bfbfbf" points="64,-531.356 64,-550.356 120,-550.356 120,-531.356 64,-531.356"/>
<text text-anchor="middle" x="92" y="-538.356" font-family="Helvetica,sans-Serif" font-size="10.00">Random</text>
</g>
<!-- Node7&#45;&gt;Node6 -->
<g id="edge6" class="edge"><title>Node7&#45;&gt;Node6</title>
<path fill="none" stroke="#9a32cd" stroke-dasharray="5,2" d="M130.511,-540.856C162.046,-540.856 208.136,-540.856 247.423,-540.856"/>
<polygon fill="#9a32cd" stroke="#9a32cd" points="130.406,-537.356 120.406,-540.856 130.406,-544.356 130.406,-537.356"/>
<text text-anchor="middle" x="213" y="-543.856" font-family="Helvetica,sans-Serif" font-size="10.00"> r</text>
</g>
<!-- Node8 -->
<g id="node8" class="node"><title>Node8</title>
<g id="a_node8"><a xlink:href="../../d6/d94/classengine_1_1_game_manager.html" target="_top" xlink:title="engine.GameManager">
<polygon fill="white" stroke="black" points="1433.5,-435.356 1433.5,-454.356 1556.5,-454.356 1556.5,-435.356 1433.5,-435.356"/>
<text text-anchor="middle" x="1495" y="-442.356" font-family="Helvetica,sans-Serif" font-size="10.00">engine.GameManager</text>
</a>
</g>
</g>
<!-- Node8&#45;&gt;Node3 -->
<g id="edge7" class="edge"><title>Node8&#45;&gt;Node3</title>
<path fill="none" stroke="#9a32cd" stroke-dasharray="5,2" d="M1540.78,-457.099C1596.01,-472.196 1688.71,-497.539 1739,-511.287"/>
<polygon fill="#9a32cd" stroke="#9a32cd" points="1541.5,-453.666 1530.93,-454.405 1539.65,-460.418 1541.5,-453.666"/>
<text text-anchor="middle" x="1637" y="-497.856" font-family="Helvetica,sans-Serif" font-size="10.00"> myGameManager</text>
</g>
<!-- Node9 -->
<g id="node9" class="node"><title>Node9</title>
<g id="a_node9"><a xlink:href="../../df/de5/classauthoring_1_1model_1_1collections_1_1_levels_collection.html" target="_top" xlink:title="authoring.model.collections.\lLevelsCollection">
<polygon fill="white" stroke="black" points="570,-31.856 570,-61.856 722,-61.856 722,-31.856 570,-31.856"/>
<text text-anchor="start" x="578" y="-49.856" font-family="Helvetica,sans-Serif" font-size="10.00">authoring.model.collections.</text>
<text text-anchor="middle" x="646" y="-38.856" font-family="Helvetica,sans-Serif" font-size="10.00">LevelsCollection</text>
</a>
</g>
</g>
<!-- Node9&#45;&gt;Node8 -->
<g id="edge8" class="edge"><title>Node9&#45;&gt;Node8</title>
<path fill="none" stroke="#9a32cd" stroke-dasharray="5,2" d="M718.634,-29.6896C871.262,2.11167 1228.39,50.1744 1398,-147.856 1438.27,-194.874 1376.2,-378.437 1416,-425.856 1420.66,-431.407 1426.64,-435.487 1433.22,-438.465"/>
<polygon fill="#9a32cd" stroke="#9a32cd" points="717.497,-26.3528 708.441,-31.8527 718.95,-33.2002 717.497,-26.3528"/>
<text text-anchor="middle" x="1074" y="-11.856" font-family="Helvetica,sans-Serif" font-size="10.00"> myLevels</text>
</g>
<!-- Node11 -->
<g id="node11" class="node"><title>Node11</title>
<g id="a_node11"><a xlink:href="../../df/d67/classengine_1_1level_1_1_level_manager.html" target="_top" xlink:title="engine.level.LevelManager">
<polygon fill="white" stroke="black" points="1141.5,-318.356 1141.5,-337.356 1284.5,-337.356 1284.5,-318.356 1141.5,-318.356"/>
<text text-anchor="middle" x="1213" y="-325.356" font-family="Helvetica,sans-Serif" font-size="10.00">engine.level.LevelManager</text>
</a>
</g>
</g>
<!-- Node9&#45;&gt;Node11 -->
<g id="edge12" class="edge"><title>Node9&#45;&gt;Node11</title>
<path fill="none" stroke="#9a32cd" stroke-dasharray="5,2" d="M732.592,-48.4586C767.985,-50.3721 809.258,-54.2302 846,-61.856 924.308,-78.1087 945.204,-83.6522 1016,-120.856 1063.84,-145.998 1086.07,-146.584 1114,-192.856 1141.87,-239.028 1094.57,-274.033 1132,-312.856 1134.75,-315.704 1137.85,-318.109 1141.2,-320.133"/>
<polygon fill="#9a32cd" stroke="#9a32cd" points="732.454,-44.9476 722.293,-47.9471 732.107,-51.9389 732.454,-44.9476"/>
<text text-anchor="middle" x="940" y="-123.856" font-family="Helvetica,sans-Serif" font-size="10.00"> myLevels</text>
</g>
<!-- Node24 -->
<g id="node24" class="node"><title>Node24</title>
<g id="a_node24"><a xlink:href="../../da/d90/classengine_1_1sound_1_1_sound_utility.html" target="_top" xlink:title="engine.sound.SoundUtility">
<polygon fill="white" stroke="black" points="869,-141.356 869,-160.356 1011,-160.356 1011,-141.356 869,-141.356"/>
<text text-anchor="middle" x="940" y="-148.356" font-family="Helvetica,sans-Serif" font-size="10.00">engine.sound.SoundUtility</text>
</a>
</g>
</g>
<!-- Node9&#45;&gt;Node24 -->
<g id="edge29" class="edge"><title>Node9&#45;&gt;Node24</title>
<path fill="none" stroke="#9a32cd" stroke-dasharray="5,2" d="M732.271,-57.5424C768.309,-63.9049 810.148,-73.7825 846,-88.856 878.199,-102.394 911.096,-127.546 927.791,-141.287"/>
<polygon fill="#9a32cd" stroke="#9a32cd" points="732.716,-54.0679 722.27,-55.8397 731.541,-60.9686 732.716,-54.0679"/>
<text text-anchor="middle" x="797" y="-91.856" font-family="Helvetica,sans-Serif" font-size="10.00"> myLevels</text>
</g>
<!-- Node10 -->
<g id="node10" class="node"><title>Node10</title>
<g id="a_node10"><a xlink:href="../../d4/d3b/classauthoring_1_1model_1_1collections_1_1_general_collection.html" target="_top" xlink:title="authoring.model.collections.\lGeneralCollection\&lt; Level \&gt;">
<polygon fill="white" stroke="black" points="249,-31.856 249,-61.856 401,-61.856 401,-31.856 249,-31.856"/>
<text text-anchor="start" x="257" y="-49.856" font-family="Helvetica,sans-Serif" font-size="10.00">authoring.model.collections.</text>
<text text-anchor="middle" x="325" y="-38.856" font-family="Helvetica,sans-Serif" font-size="10.00">GeneralCollection&lt; Level &gt;</text>
</a>
</g>
</g>
<!-- Node10&#45;&gt;Node9 -->
<g id="edge9" class="edge"><title>Node10&#45;&gt;Node9</title>
<path fill="none" stroke="midnightblue" d="M411.216,-46.856C460.588,-46.856 522.186,-46.856 569.758,-46.856"/>
<polygon fill="midnightblue" stroke="midnightblue" points="411.195,-43.3561 401.195,-46.856 411.195,-50.3561 411.195,-43.3561"/>
</g>
<!-- Node11&#45;&gt;Node8 -->
<g id="edge10" class="edge"><title>Node11&#45;&gt;Node8</title>
<path fill="none" stroke="#9a32cd" stroke-dasharray="5,2" d="M1268.76,-340.143C1307.83,-350.961 1359.96,-369.776 1398,-399.856 1409.02,-408.574 1404.42,-417.896 1416,-425.856 1421.63,-429.724 1427.96,-432.807 1434.52,-435.265"/>
<polygon fill="#9a32cd" stroke="#9a32cd" points="1269.18,-336.634 1258.62,-337.432 1267.38,-343.396 1269.18,-336.634"/>
<text text-anchor="middle" x="1355" y="-402.856" font-family="Helvetica,sans-Serif" font-size="10.00"> myLevelManager</text>
</g>
<!-- Node12 -->
<g id="node12" class="node"><title>Node12</title>
<polygon fill="white" stroke="#bfbfbf" points="890,-330.356 890,-349.356 990,-349.356 990,-330.356 890,-330.356"/>
<text text-anchor="middle" x="940" y="-337.356" font-family="Helvetica,sans-Serif" font-size="10.00">Iterable&lt; Level &gt;</text>
</g>
<!-- Node12&#45;&gt;Node11 -->
<g id="edge11" class="edge"><title>Node12&#45;&gt;Node11</title>
<path fill="none" stroke="midnightblue" d="M1000.31,-337.23C1041.85,-335.39 1097.53,-332.925 1141.36,-330.984"/>
<polygon fill="midnightblue" stroke="midnightblue" points="999.911,-333.744 990.076,-337.683 1000.22,-340.737 999.911,-333.744"/>
</g>
<!-- Node13 -->
<g id="node13" class="node"><title>Node13</title>
<g id="a_node13"><a xlink:href="../../dd/d8d/classengine_1_1render_1_1_renderer.html" target="_top" xlink:title="engine.render.Renderer">
<polygon fill="white" stroke="black" points="876,-415.356 876,-434.356 1004,-434.356 1004,-415.356 876,-415.356"/>
<text text-anchor="middle" x="940" y="-422.356" font-family="Helvetica,sans-Serif" font-size="10.00">engine.render.Renderer</text>
</a>
</g>
</g>
<!-- Node13&#45;&gt;Node8 -->
<g id="edge36" class="edge"><title>Node13&#45;&gt;Node8</title>
<path fill="none" stroke="#9a32cd" stroke-dasharray="5,2" d="M1014.2,-427.503C1124.43,-431.49 1330.99,-438.961 1433.34,-442.662"/>
<polygon fill="#9a32cd" stroke="#9a32cd" points="1014.29,-424.004 1004.17,-427.141 1014.03,-431 1014.29,-424.004"/>
<text text-anchor="middle" x="1213" y="-440.856" font-family="Helvetica,sans-Serif" font-size="10.00"> myGameObjectRenderer</text>
</g>
<!-- Node13&#45;&gt;Node11 -->
<g id="edge13" class="edge"><title>Node13&#45;&gt;Node11</title>
<path fill="none" stroke="#9a32cd" stroke-dasharray="5,2" d="M985.758,-412.668C1034.95,-399.238 1107.88,-379.211 1114,-376.856 1143.65,-365.453 1176.32,-348.075 1195.45,-337.371"/>
<polygon fill="#9a32cd" stroke="#9a32cd" points="984.684,-409.333 975.958,-415.342 986.527,-416.086 984.684,-409.333"/>
<text text-anchor="middle" x="1074" y="-402.856" font-family="Helvetica,sans-Serif" font-size="10.00"> myRenderer</text>
</g>
<!-- Node14 -->
<g id="node14" class="node"><title>Node14</title>
<polygon fill="white" stroke="#bfbfbf" points="564,-431.856 564,-461.856 728,-461.856 728,-431.856 564,-431.856"/>
<text text-anchor="start" x="572" y="-449.856" font-family="Helvetica,sans-Serif" font-size="10.00">Map&lt; Identifier, engine.render.</text>
<text text-anchor="middle" x="646" y="-438.856" font-family="Helvetica,sans-Serif" font-size="10.00">RenderedNode &gt;</text>
</g>
<!-- Node14&#45;&gt;Node13 -->
<g id="edge14" class="edge"><title>Node14&#45;&gt;Node13</title>
<path fill="none" stroke="#9a32cd" stroke-dasharray="5,2" d="M738.317,-439.976C782.939,-436.614 835.527,-432.652 875.674,-429.627"/>
<polygon fill="#9a32cd" stroke="#9a32cd" points="738.047,-436.486 728.338,-440.728 738.573,-443.467 738.047,-436.486"/>
<text text-anchor="middle" x="797" y="-442.856" font-family="Helvetica,sans-Serif" font-size="10.00"> myRenderedNodes</text>
</g>
<!-- Node15 -->
<g id="node15" class="node"><title>Node15</title>
<g id="a_node15"><a xlink:href="../../d5/d30/classengine_1_1render_1_1_rendered_node_factory.html" target="_top" xlink:title="engine.render.RenderedNode\lFactory">
<polygon fill="white" stroke="black" points="568,-332.856 568,-362.856 724,-362.856 724,-332.856 568,-332.856"/>
<text text-anchor="start" x="576" y="-350.856" font-family="Helvetica,sans-Serif" font-size="10.00">engine.render.RenderedNode</text>
<text text-anchor="middle" x="646" y="-339.856" font-family="Helvetica,sans-Serif" font-size="10.00">Factory</text>
</a>
</g>
</g>
<!-- Node15&#45;&gt;Node13 -->
<g id="edge15" class="edge"><title>Node15&#45;&gt;Node13</title>
<path fill="none" stroke="#9a32cd" stroke-dasharray="5,2" d="M724.28,-365.253C761.26,-373.894 806.076,-384.829 846,-395.856 867.682,-401.845 891.937,-409.438 910.239,-415.353"/>
<polygon fill="#9a32cd" stroke="#9a32cd" points="724.601,-361.734 714.069,-362.878 723.016,-368.552 724.601,-361.734"/>
<text text-anchor="middle" x="797" y="-398.856" font-family="Helvetica,sans-Serif" font-size="10.00"> myFactory</text>
</g>
<!-- Node16 -->
<g id="node16" class="node"><title>Node16</title>
<g id="a_node16"><a xlink:href="../../d9/db5/classengine_1_1_file_path_utility.html" target="_top" xlink:title="engine.FilePathUtility">
<polygon fill="white" stroke="black" points="267.5,-207.356 267.5,-226.356 382.5,-226.356 382.5,-207.356 267.5,-207.356"/>
<text text-anchor="middle" x="325" y="-214.356" font-family="Helvetica,sans-Serif" font-size="10.00">engine.FilePathUtility</text>
</a>
</g>
</g>
<!-- Node16&#45;&gt;Node15 -->
<g id="edge16" class="edge"><title>Node16&#45;&gt;Node15</title>
<path fill="none" stroke="#9a32cd" stroke-dasharray="5,2" d="M358.546,-230.221C418.394,-254.798 545.527,-307.007 608.327,-332.796"/>
<polygon fill="#9a32cd" stroke="#9a32cd" points="359.779,-226.944 349.199,-226.383 357.119,-233.419 359.779,-226.944"/>
<text text-anchor="middle" x="485" y="-308.856" font-family="Helvetica,sans-Serif" font-size="10.00"> myFilePathUtility</text>
</g>
<!-- Node16&#45;&gt;Node24 -->
<g id="edge32" class="edge"><title>Node16&#45;&gt;Node24</title>
<path fill="none" stroke="#9a32cd" stroke-dasharray="5,2" d="M387.553,-205.664C400.241,-203.562 413.534,-201.509 426,-199.856 509.703,-188.759 748.853,-167.388 868.724,-156.926"/>
<polygon fill="#9a32cd" stroke="#9a32cd" points="386.814,-202.24 377.535,-207.354 387.978,-209.142 386.814,-202.24"/>
<text text-anchor="middle" x="646" y="-187.856" font-family="Helvetica,sans-Serif" font-size="10.00"> myFilePathUtility</text>
</g>
<!-- Node17&#45;&gt;Node11 -->
<g id="edge27" class="edge"><title>Node17&#45;&gt;Node11</title>
<path fill="none" stroke="#9a32cd" stroke-dasharray="5,2" d="M706.821,-397.791C795.907,-389.83 968.557,-372.791 1114,-348.856 1133.06,-345.72 1154.01,-341.355 1171.64,-337.417"/>
<polygon fill="#9a32cd" stroke="#9a32cd" points="706.291,-394.324 696.639,-398.694 706.909,-401.297 706.291,-394.324"/>
<text text-anchor="middle" x="940" y="-384.856" font-family="Helvetica,sans-Serif" font-size="10.00"> myCurrentLevel</text>
</g>
<!-- Node17&#45;&gt;Node13 -->
<g id="edge17" class="edge"><title>Node17&#45;&gt;Node13</title>
<path fill="none" stroke="#9a32cd" stroke-dasharray="5,2" d="M706.727,-407.356C756.02,-411.07 825.772,-416.325 875.955,-420.106"/>
<polygon fill="#9a32cd" stroke="#9a32cd" points="706.769,-403.849 696.534,-406.588 706.243,-410.83 706.769,-403.849"/>
<text text-anchor="middle" x="797" y="-420.856" font-family="Helvetica,sans-Serif" font-size="10.00"> myCurrentLevel</text>
</g>
<!-- Node18 -->
<g id="node18" class="node"><title>Node18</title>
<g id="a_node18"><a xlink:href="../../d3/d8d/classdata_1_1_observable.html" target="_top" xlink:title="data.Observable">
<polygon fill="white" stroke="black" points="277.5,-373.356 277.5,-392.356 372.5,-392.356 372.5,-373.356 277.5,-373.356"/>
<text text-anchor="middle" x="325" y="-380.356" font-family="Helvetica,sans-Serif" font-size="10.00">data.Observable</text>
</a>
</g>
</g>
<!-- Node18&#45;&gt;Node17 -->
<g id="edge18" class="edge"><title>Node18&#45;&gt;Node17</title>
<path fill="none" stroke="midnightblue" d="M382.85,-386.42C443.23,-390.206 537.733,-396.131 595.257,-399.737"/>
<polygon fill="midnightblue" stroke="midnightblue" points="382.926,-382.918 372.727,-385.786 382.488,-389.905 382.926,-382.918"/>
</g>
<!-- Node19 -->
<g id="node19" class="node"><title>Node19</title>
<polygon fill="white" stroke="#bfbfbf" points="23,-373.356 23,-392.356 161,-392.356 161,-373.356 23,-373.356"/>
<text text-anchor="middle" x="92" y="-380.356" font-family="Helvetica,sans-Serif" font-size="10.00">Vector&lt; data.Observer &gt;</text>
</g>
<!-- Node19&#45;&gt;Node18 -->
<g id="edge19" class="edge"><title>Node19&#45;&gt;Node18</title>
<path fill="none" stroke="#9a32cd" stroke-dasharray="5,2" d="M171.318,-382.856C206.521,-382.856 246.882,-382.856 277.262,-382.856"/>
<polygon fill="#9a32cd" stroke="#9a32cd" points="171.058,-379.356 161.058,-382.856 171.058,-386.356 171.058,-379.356"/>
<text text-anchor="middle" x="213" y="-385.856" font-family="Helvetica,sans-Serif" font-size="10.00"> obs</text>
</g>
<!-- Node20 -->
<g id="node20" class="node"><title>Node20</title>
<g id="a_node20"><a xlink:href="../../d1/d32/classauthoring_1_1model_1_1collections_1_1_game_objects_collection.html" target="_top" xlink:title="authoring.model.collections.\lGameObjectsCollection">
<polygon fill="white" stroke="black" points="249,-286.856 249,-316.856 401,-316.856 401,-286.856 249,-286.856"/>
<text text-anchor="start" x="257" y="-304.856" font-family="Helvetica,sans-Serif" font-size="10.00">authoring.model.collections.</text>
<text text-anchor="middle" x="325" y="-293.856" font-family="Helvetica,sans-Serif" font-size="10.00">GameObjectsCollection</text>
</a>
</g>
</g>
<!-- Node20&#45;&gt;Node8 -->
<g id="edge37" class="edge"><title>Node20&#45;&gt;Node8</title>
<path fill="none" stroke="#9a32cd" stroke-dasharray="5,2" d="M362.637,-282.175C381.17,-272.957 404.287,-262.557 426,-255.856 484.577,-237.779 501.041,-239.342 562,-232.856 806.133,-206.881 870.825,-178.071 1114,-211.856 1244.89,-230.04 1314.35,-197.559 1398,-299.856 1433.81,-343.648 1377.99,-383.963 1416,-425.856 1420.78,-431.12 1426.75,-435.041 1433.24,-437.945"/>
<polygon fill="#9a32cd" stroke="#9a32cd" points="361.003,-279.079 353.666,-286.722 364.168,-285.323 361.003,-279.079"/>
<text text-anchor="middle" x="940" y="-203.856" font-family="Helvetica,sans-Serif" font-size="10.00"> myGameObjects</text>
</g>
<!-- Node20&#45;&gt;Node11 -->
<g id="edge26" class="edge"><title>Node20&#45;&gt;Node11</title>
<path fill="none" stroke="#9a32cd" stroke-dasharray="5,2" d="M411.361,-303.982C541.715,-307.28 798.214,-313.969 1016,-320.856 1057.52,-322.169 1103.98,-323.82 1141.24,-325.189"/>
<polygon fill="#9a32cd" stroke="#9a32cd" points="411.136,-300.476 401.051,-303.722 410.96,-307.473 411.136,-300.476"/>
<text text-anchor="middle" x="797" y="-329.856" font-family="Helvetica,sans-Serif" font-size="10.00"> myTemplateObjects</text>
<text text-anchor="middle" x="797" y="-318.856" font-family="Helvetica,sans-Serif" font-size="10.00">myGameObjects</text>
</g>
<!-- Node20&#45;&gt;Node17 -->
<g id="edge22" class="edge"><title>Node20&#45;&gt;Node17</title>
<path fill="none" stroke="#9a32cd" stroke-dasharray="5,2" d="M397.611,-319.495C440.543,-330.741 495.951,-346.444 544,-363.856 552.231,-366.839 553.896,-368.545 562,-371.856 580.654,-379.477 601.951,-387.416 618.301,-393.352"/>
<polygon fill="#9a32cd" stroke="#9a32cd" points="398.374,-316.077 387.815,-316.949 396.613,-322.852 398.374,-316.077"/>
<text text-anchor="middle" x="485" y="-377.856" font-family="Helvetica,sans-Serif" font-size="10.00"> myDefaultGameObjects</text>
<text text-anchor="middle" x="485" y="-366.856" font-family="Helvetica,sans-Serif" font-size="10.00">myWorkingGameObjects</text>
</g>
<!-- Node21 -->
<g id="node21" class="node"><title>Node21</title>
<g id="a_node21"><a xlink:href="../../d4/d3b/classauthoring_1_1model_1_1collections_1_1_general_collection.html" target="_top" xlink:title="authoring.model.collections.\lGeneralCollection\&lt; GameObject \&gt;">
<polygon fill="white" stroke="black" points="0.5,-286.856 0.5,-316.856 183.5,-316.856 183.5,-286.856 0.5,-286.856"/>
<text text-anchor="start" x="8.5" y="-304.856" font-family="Helvetica,sans-Serif" font-size="10.00">authoring.model.collections.</text>
<text text-anchor="middle" x="92" y="-293.856" font-family="Helvetica,sans-Serif" font-size="10.00">GeneralCollection&lt; GameObject &gt;</text>
</a>
</g>
</g>
<!-- Node21&#45;&gt;Node20 -->
<g id="edge23" class="edge"><title>Node21&#45;&gt;Node20</title>
<path fill="none" stroke="midnightblue" d="M193.843,-301.856C212.335,-301.856 231.337,-301.856 248.91,-301.856"/>
<polygon fill="midnightblue" stroke="midnightblue" points="193.634,-298.356 183.634,-301.856 193.634,-305.356 193.634,-298.356"/>
</g>
<!-- Node22 -->
<g id="node22" class="node"><title>Node22</title>
<polygon fill="white" stroke="#bfbfbf" points="254.5,-411.856 254.5,-441.856 395.5,-441.856 395.5,-411.856 254.5,-411.856"/>
<text text-anchor="start" x="262.5" y="-429.856" font-family="Helvetica,sans-Serif" font-size="10.00">List&lt; engine.gameObject.</text>
<text text-anchor="middle" x="325" y="-418.856" font-family="Helvetica,sans-Serif" font-size="10.00">Identifier &gt;</text>
</g>
<!-- Node22&#45;&gt;Node17 -->
<g id="edge24" class="edge"><title>Node22&#45;&gt;Node17</title>
<path fill="none" stroke="#9a32cd" stroke-dasharray="5,2" d="M405.726,-420.858C465.211,-416.382 544.633,-410.407 595.312,-406.594"/>
<polygon fill="#9a32cd" stroke="#9a32cd" points="405.321,-417.378 395.612,-421.619 405.846,-424.359 405.321,-417.378"/>
<text text-anchor="middle" x="485" y="-433.856" font-family="Helvetica,sans-Serif" font-size="10.00"> myConditionIdList</text>
<text text-anchor="middle" x="485" y="-422.856" font-family="Helvetica,sans-Serif" font-size="10.00">myGameObjectIdList</text>
</g>
<!-- Node23 -->
<g id="node23" class="node"><title>Node23</title>
<polygon fill="white" stroke="#bfbfbf" points="623,-489.356 623,-508.356 669,-508.356 669,-489.356 623,-489.356"/>
<text text-anchor="middle" x="646" y="-496.356" font-family="Helvetica,sans-Serif" font-size="10.00">Group</text>
</g>
<!-- Node23&#45;&gt;Node8 -->
<g id="edge39" class="edge"><title>Node23&#45;&gt;Node8</title>
<path fill="none" stroke="#9a32cd" stroke-dasharray="5,2" d="M679.155,-498.319C718.514,-497.563 787.189,-495.919 846,-492.856 1062.3,-481.59 1318.65,-460.223 1433.31,-450.244"/>
<polygon fill="#9a32cd" stroke="#9a32cd" points="679.032,-494.821 669.099,-498.506 679.162,-501.82 679.032,-494.821"/>
<text text-anchor="middle" x="1074" y="-484.856" font-family="Helvetica,sans-Serif" font-size="10.00"> myRootGroup</text>
</g>
<!-- Node23&#45;&gt;Node13 -->
<g id="edge25" class="edge"><title>Node23&#45;&gt;Node13</title>
<path fill="none" stroke="#9a32cd" stroke-dasharray="5,2" d="M679.113,-492.727C718.64,-484.961 787.692,-470.669 846,-454.856 868.268,-448.817 893.124,-440.728 911.532,-434.471"/>
<polygon fill="#9a32cd" stroke="#9a32cd" points="678.398,-489.301 669.252,-494.65 679.737,-496.172 678.398,-489.301"/>
<text text-anchor="middle" x="797" y="-481.856" font-family="Helvetica,sans-Serif" font-size="10.00"> myCanvas</text>
</g>
<!-- Node24&#45;&gt;Node8 -->
<g id="edge40" class="edge"><title>Node24&#45;&gt;Node8</title>
<path fill="none" stroke="#9a32cd" stroke-dasharray="5,2" d="M1021.42,-144.469C1138.57,-137.111 1347.7,-131.964 1398,-183.856 1435.53,-222.577 1381.13,-384.717 1416,-425.856 1420.69,-431.385 1426.69,-435.452 1433.27,-438.422"/>
<polygon fill="#9a32cd" stroke="#9a32cd" points="1021.17,-140.978 1011.42,-145.117 1021.63,-147.963 1021.17,-140.978"/>
<text text-anchor="middle" x="1213" y="-150.856" font-family="Helvetica,sans-Serif" font-size="10.00"> mySoundUtility</text>
</g>
<!-- Node24&#45;&gt;Node11 -->
<g id="edge28" class="edge"><title>Node24&#45;&gt;Node11</title>
<path fill="none" stroke="#9a32cd" stroke-dasharray="5,2" d="M976.182,-164.342C989.037,-169.782 1003.49,-176.513 1016,-183.856 1063.07,-211.477 1070.68,-224.657 1114,-257.856 1122.04,-264.021 1123.85,-265.837 1132,-271.856 1154.78,-288.67 1181.88,-307.378 1197.97,-318.354"/>
<polygon fill="#9a32cd" stroke="#9a32cd" points="977.301,-161.018 966.721,-160.445 974.634,-167.49 977.301,-161.018"/>
<text text-anchor="middle" x="1074" y="-260.856" font-family="Helvetica,sans-Serif" font-size="10.00"> mySoundPlayer</text>
</g>
<!-- Node25 -->
<g id="node25" class="node"><title>Node25</title>
<polygon fill="white" stroke="#bfbfbf" points="570,-81.356 570,-100.356 722,-100.356 722,-81.356 570,-81.356"/>
<text text-anchor="middle" x="646" y="-88.356" font-family="Helvetica,sans-Serif" font-size="10.00">Map&lt; String, MediaPlayer &gt;</text>
</g>
<!-- Node25&#45;&gt;Node24 -->
<g id="edge30" class="edge"><title>Node25&#45;&gt;Node24</title>
<path fill="none" stroke="#9a32cd" stroke-dasharray="5,2" d="M732.447,-101.343C767.818,-106.413 809.113,-113.281 846,-121.856 868.569,-127.102 893.616,-135.039 912.026,-141.284"/>
<polygon fill="#9a32cd" stroke="#9a32cd" points="732.546,-97.8221 722.156,-99.8936 731.57,-104.754 732.546,-97.8221"/>
<text text-anchor="middle" x="797" y="-124.856" font-family="Helvetica,sans-Serif" font-size="10.00"> myMediaPlayerMap</text>
</g>
<!-- Node26 -->
<g id="node26" class="node"><title>Node26</title>
<polygon fill="white" stroke="#bfbfbf" points="577,-119.356 577,-138.356 715,-138.356 715,-119.356 577,-119.356"/>
<text text-anchor="middle" x="646" y="-126.356" font-family="Helvetica,sans-Serif" font-size="10.00">Map&lt; String, AudioClip &gt;</text>
</g>
<!-- Node26&#45;&gt;Node24 -->
<g id="edge31" class="edge"><title>Node26&#45;&gt;Node24</title>
<path fill="none" stroke="#9a32cd" stroke-dasharray="5,2" d="M725.323,-134.757C769.992,-138.123 825.515,-142.306 868.767,-145.565"/>
<polygon fill="#9a32cd" stroke="#9a32cd" points="725.327,-131.248 715.093,-133.986 724.801,-138.228 725.327,-131.248"/>
<text text-anchor="middle" x="797" y="-146.856" font-family="Helvetica,sans-Serif" font-size="10.00"> myAudioClipMap</text>
</g>
<!-- Node27 -->
<g id="node27" class="node"><title>Node27</title>
<g id="a_node27"><a xlink:href="../../db/d2a/classauthoring_1_1model_1_1collections_1_1_conditions_collection.html" target="_top" xlink:title="authoring.model.collections.\lConditionsCollection">
<polygon fill="white" stroke="black" points="864,-242.856 864,-272.856 1016,-272.856 1016,-242.856 864,-242.856"/>
<text text-anchor="start" x="872" y="-260.856" font-family="Helvetica,sans-Serif" font-size="10.00">authoring.model.collections.</text>
<text text-anchor="middle" x="940" y="-249.856" font-family="Helvetica,sans-Serif" font-size="10.00">ConditionsCollection</text>
</a>
</g>
</g>
<!-- Node27&#45;&gt;Node8 -->
<g id="edge41" class="edge"><title>Node27&#45;&gt;Node8</title>
<path fill="none" stroke="#9a32cd" stroke-dasharray="5,2" d="M1026.17,-258.197C1098.91,-260.666 1205.51,-269.5 1294,-297.856 1343.4,-313.687 1365.89,-310.113 1398,-350.856 1419.22,-377.778 1391.8,-401.575 1416,-425.856 1420.92,-430.792 1426.89,-434.525 1433.32,-437.336"/>
<polygon fill="#9a32cd" stroke="#9a32cd" points="1026.23,-254.697 1016.13,-257.889 1026.02,-261.694 1026.23,-254.697"/>
<text text-anchor="middle" x="1213" y="-300.856" font-family="Helvetica,sans-Serif" font-size="10.00"> myGameConditions</text>
</g>
<!-- Node27&#45;&gt;Node11 -->
<g id="edge33" class="edge"><title>Node27&#45;&gt;Node11</title>
<path fill="none" stroke="#9a32cd" stroke-dasharray="5,2" d="M1026.01,-271.056C1054.25,-276.239 1085.7,-282.879 1114,-290.856 1140.61,-298.356 1170.17,-309.993 1189.79,-318.211"/>
<polygon fill="#9a32cd" stroke="#9a32cd" points="1026.63,-267.611 1016.17,-269.284 1025.39,-274.5 1026.63,-267.611"/>
<text text-anchor="middle" x="1074" y="-293.856" font-family="Helvetica,sans-Serif" font-size="10.00"> myConditions</text>
</g>
<!-- Node28 -->
<g id="node28" class="node"><title>Node28</title>
<g id="a_node28"><a xlink:href="../../d4/d3b/classauthoring_1_1model_1_1collections_1_1_general_collection.html" target="_top" xlink:title="authoring.model.collections.\lGeneralCollection\&lt; Condition \&gt;">
<polygon fill="white" stroke="black" points="562,-242.856 562,-272.856 730,-272.856 730,-242.856 562,-242.856"/>
<text text-anchor="start" x="570" y="-260.856" font-family="Helvetica,sans-Serif" font-size="10.00">authoring.model.collections.</text>
<text text-anchor="middle" x="646" y="-249.856" font-family="Helvetica,sans-Serif" font-size="10.00">GeneralCollection&lt; Condition &gt;</text>
</a>
</g>
</g>
<!-- Node28&#45;&gt;Node27 -->
<g id="edge34" class="edge"><title>Node28&#45;&gt;Node27</title>
<path fill="none" stroke="midnightblue" d="M740.523,-257.856C780.286,-257.856 826.039,-257.856 863.588,-257.856"/>
<polygon fill="midnightblue" stroke="midnightblue" points="740.285,-254.356 730.285,-257.856 740.285,-261.356 740.285,-254.356"/>
</g>
<!-- Node29 -->
<g id="node29" class="node"><title>Node29</title>
<polygon fill="white" stroke="#bfbfbf" points="1185,-530.356 1185,-549.356 1241,-549.356 1241,-530.356 1185,-530.356"/>
<text text-anchor="middle" x="1213" y="-537.356" font-family="Helvetica,sans-Serif" font-size="10.00">Timeline</text>
</g>
<!-- Node29&#45;&gt;Node8 -->
<g id="edge35" class="edge"><title>Node29&#45;&gt;Node8</title>
<path fill="none" stroke="#9a32cd" stroke-dasharray="5,2" d="M1251.24,-537.828C1289.29,-534.745 1349.49,-527.033 1398,-507.856 1431.56,-494.591 1465.65,-468.59 1482.75,-454.494"/>
<polygon fill="#9a32cd" stroke="#9a32cd" points="1250.84,-534.348 1241.13,-538.581 1251.36,-541.329 1250.84,-534.348"/>
<text text-anchor="middle" x="1355" y="-533.856" font-family="Helvetica,sans-Serif" font-size="10.00"> myAnimation</text>
</g>
<!-- Node30 -->
<g id="node30" class="node"><title>Node30</title>
<polygon fill="white" stroke="#bfbfbf" points="1132.5,-492.356 1132.5,-511.356 1293.5,-511.356 1293.5,-492.356 1132.5,-492.356"/>
<text text-anchor="middle" x="1213" y="-499.356" font-family="Helvetica,sans-Serif" font-size="10.00">EventHandler&lt; ActionEvent &gt;</text>
</g>
<!-- Node30&#45;&gt;Node8 -->
<g id="edge38" class="edge"><title>Node30&#45;&gt;Node8</title>
<path fill="none" stroke="#9a32cd" stroke-dasharray="5,2" d="M1303.95,-493.793C1334.08,-490.121 1367.71,-484.961 1398,-477.856 1423.22,-471.94 1451.13,-461.937 1470.33,-454.491"/>
<polygon fill="#9a32cd" stroke="#9a32cd" points="1303.4,-490.334 1293.88,-494.981 1304.22,-497.285 1303.4,-490.334"/>
<text text-anchor="middle" x="1355" y="-495.856" font-family="Helvetica,sans-Serif" font-size="10.00"> oneFrame</text>
</g>
<!-- Node31 -->
<g id="node31" class="node"><title>Node31</title>
<polygon fill="white" stroke="#bfbfbf" points="1416,-397.356 1416,-416.356 1574,-416.356 1574,-397.356 1416,-397.356"/>
<text text-anchor="middle" x="1495" y="-404.356" font-family="Helvetica,sans-Serif" font-size="10.00">List&lt; engine.actions.Action &gt;</text>
</g>
<!-- Node31&#45;&gt;Node3 -->
<g id="edge42" class="edge"><title>Node31&#45;&gt;Node3</title>
<path fill="none" stroke="#9a32cd" stroke-dasharray="5,2" d="M1546.39,-418.812C1555.59,-421.086 1565.1,-423.495 1574,-425.856 1622.27,-438.657 1636.9,-435.42 1682,-456.856 1713.63,-471.889 1746.26,-497.423 1762.85,-511.258"/>
<polygon fill="#9a32cd" stroke="#9a32cd" points="1547.11,-415.385 1536.56,-416.406 1545.44,-422.185 1547.11,-415.385"/>
<text text-anchor="middle" x="1637" y="-459.856" font-family="Helvetica,sans-Serif" font-size="10.00"> myActions</text>
</g>
<!-- Node32 -->
<g id="node32" class="node"><title>Node32</title>
<polygon fill="white" stroke="#bfbfbf" points="1434,-359.356 1434,-378.356 1556,-378.356 1556,-359.356 1434,-359.356"/>
<text text-anchor="middle" x="1495" y="-366.356" font-family="Helvetica,sans-Serif" font-size="10.00">Map&lt; String, String &gt;</text>
</g>
<!-- Node32&#45;&gt;Node3 -->
<g id="edge43" class="edge"><title>Node32&#45;&gt;Node3</title>
<path fill="none" stroke="#9a32cd" stroke-dasharray="5,2" d="M1566.26,-376.332C1602.87,-382.678 1647.14,-394.367 1682,-415.856 1723.06,-441.168 1755.87,-490.575 1768.45,-511.322"/>
<polygon fill="#9a32cd" stroke="#9a32cd" points="1566.59,-372.839 1556.15,-374.68 1565.46,-379.747 1566.59,-372.839"/>
<text text-anchor="middle" x="1637" y="-418.856" font-family="Helvetica,sans-Serif" font-size="10.00"> myInputs</text>
</g>
</g>
</svg>
