<?xml version="1.0" encoding="UTF-8" standalone="no"?>
<!DOCTYPE svg PUBLIC "-//W3C//DTD SVG 1.1//EN"
 "http://www.w3.org/Graphics/SVG/1.1/DTD/svg11.dtd">
<!-- Generated by graphviz version 2.36.0 (20140111.2315)
 -->
<!-- Title: authoring.eventhandlers.DeleteGameObjectHandler Pages: 1 -->
<svg width="1754pt" height="1036pt"
 viewBox="0.00 0.00 1754.00 1036.00" xmlns="http://www.w3.org/2000/svg" xmlns:xlink="http://www.w3.org/1999/xlink">
<g id="graph0" class="graph" transform="scale(1 1) rotate(0) translate(4 1032)">
<title>authoring.eventhandlers.DeleteGameObjectHandler</title>
<polygon fill="white" stroke="none" points="-4,4 -4,-1032 1750,-1032 1750,4 -4,4"/>
<!-- Node1 -->
<g id="node1" class="node"><title>Node1</title>
<polygon fill="#bfbfbf" stroke="black" points="1600,-347 1600,-377 1746,-377 1746,-347 1600,-347"/>
<text text-anchor="start" x="1608" y="-365" font-family="Helvetica,sans-Serif" font-size="10.00">authoring.eventhandlers.</text>
<text text-anchor="middle" x="1673" y="-354" font-family="Helvetica,sans-Serif" font-size="10.00">DeleteGameObjectHandler</text>
</g>
<!-- Node2 -->
<g id="node2" class="node"><title>Node2</title>
<g id="a_node2"><a xlink:href="../../d3/d6a/interfaceauthoring_1_1eventhandlers_1_1_game_handler.html" target="_top" xlink:title="authoring.eventhandlers.\lGameHandler\&lt; Event \&gt;">
<polygon fill="white" stroke="black" points="1325.5,-422 1325.5,-452 1462.5,-452 1462.5,-422 1325.5,-422"/>
<text text-anchor="start" x="1333.5" y="-440" font-family="Helvetica,sans-Serif" font-size="10.00">authoring.eventhandlers.</text>
<text text-anchor="middle" x="1394" y="-429" font-family="Helvetica,sans-Serif" font-size="10.00">GameHandler&lt; Event &gt;</text>
</a>
</g>
</g>
<!-- Node2&#45;&gt;Node1 -->
<g id="edge1" class="edge"><title>Node2&#45;&gt;Node1</title>
<path fill="none" stroke="midnightblue" d="M1472.4,-421.306C1506.28,-413.898 1546.34,-404.4 1582,-394 1598.88,-389.078 1617.21,-382.745 1632.89,-377.015"/>
<polygon fill="midnightblue" stroke="midnightblue" points="1471.59,-417.9 1462.56,-423.438 1473.08,-424.741 1471.59,-417.9"/>
</g>
<!-- Node3 -->
<g id="node3" class="node"><title>Node3</title>
<g id="a_node3"><a xlink:href="../../df/de5/classauthoring_1_1model_1_1collections_1_1_levels_collection.html" target="_top" xlink:title="authoring.model.collections.\lLevelsCollection">
<polygon fill="white" stroke="black" points="1318,-373 1318,-403 1470,-403 1470,-373 1318,-373"/>
<text text-anchor="start" x="1326" y="-391" font-family="Helvetica,sans-Serif" font-size="10.00">authoring.model.collections.</text>
<text text-anchor="middle" x="1394" y="-380" font-family="Helvetica,sans-Serif" font-size="10.00">LevelsCollection</text>
</a>
</g>
</g>
<!-- Node3&#45;&gt;Node1 -->
<g id="edge2" class="edge"><title>Node3&#45;&gt;Node1</title>
<path fill="none" stroke="#9a32cd" stroke-dasharray="5,2" d="M1480.39,-379.985C1518.55,-376.403 1563.05,-372.226 1599.56,-368.8"/>
<polygon fill="#9a32cd" stroke="#9a32cd" points="1479.95,-376.51 1470.33,-380.93 1480.61,-383.48 1479.95,-376.51"/>
<text text-anchor="middle" x="1537" y="-382" font-family="Helvetica,sans-Serif" font-size="10.00"> myLevelsCol</text>
</g>
<!-- Node4 -->
<g id="node4" class="node"><title>Node4</title>
<g id="a_node4"><a xlink:href="../../d4/d3b/classauthoring_1_1model_1_1collections_1_1_general_collection.html" target="_top" xlink:title="authoring.model.collections.\lGeneralCollection\&lt; Level \&gt;">
<polygon fill="white" stroke="black" points="981,-685 981,-715 1133,-715 1133,-685 981,-685"/>
<text text-anchor="start" x="989" y="-703" font-family="Helvetica,sans-Serif" font-size="10.00">authoring.model.collections.</text>
<text text-anchor="middle" x="1057" y="-692" font-family="Helvetica,sans-Serif" font-size="10.00">GeneralCollection&lt; Level &gt;</text>
</a>
</g>
</g>
<!-- Node4&#45;&gt;Node3 -->
<g id="edge3" class="edge"><title>Node4&#45;&gt;Node3</title>
<path fill="none" stroke="midnightblue" d="M1142.9,-686.436C1196.37,-673.083 1261.58,-646.904 1296,-596 1319.01,-561.965 1287.95,-443.772 1314,-412 1316.82,-408.564 1320.11,-405.607 1323.72,-403.066"/>
<polygon fill="midnightblue" stroke="midnightblue" points="1141.98,-683.058 1133.06,-688.784 1143.6,-689.867 1141.98,-683.058"/>
</g>
<!-- Node5 -->
<g id="node5" class="node"><title>Node5</title>
<g id="a_node5"><a xlink:href="../../d4/d04/classauthoring_1_1view_1_1levelview_1_1_levels_view.html" target="_top" xlink:title="authoring.view.levelview.\lLevelsView">
<polygon fill="white" stroke="black" points="991,-108 991,-138 1123,-138 1123,-108 991,-108"/>
<text text-anchor="start" x="999" y="-126" font-family="Helvetica,sans-Serif" font-size="10.00">authoring.view.levelview.</text>
<text text-anchor="middle" x="1057" y="-115" font-family="Helvetica,sans-Serif" font-size="10.00">LevelsView</text>
</a>
</g>
</g>
<!-- Node5&#45;&gt;Node1 -->
<g id="edge4" class="edge"><title>Node5&#45;&gt;Node1</title>
<path fill="none" stroke="#9a32cd" stroke-dasharray="5,2" d="M1133.1,-131.955C1180.67,-138.977 1242.99,-150.689 1296,-169 1436.79,-217.63 1590.72,-310.494 1648.43,-346.861"/>
<polygon fill="#9a32cd" stroke="#9a32cd" points="1133.58,-128.488 1123.18,-130.527 1132.58,-135.416 1133.58,-128.488"/>
<text text-anchor="middle" x="1394" y="-250" font-family="Helvetica,sans-Serif" font-size="10.00"> myLevelsView</text>
</g>
<!-- Node6 -->
<g id="node6" class="node"><title>Node6</title>
<g id="a_node6"><a xlink:href="../../d0/d3f/classauthoring_1_1view_1_1baseclasses_1_1_tab_view.html" target="_top" xlink:title="authoring.view.baseclasses.\lTabView">
<polygon fill="white" stroke="black" points="636.5,-39 636.5,-69 785.5,-69 785.5,-39 636.5,-39"/>
<text text-anchor="start" x="644.5" y="-57" font-family="Helvetica,sans-Serif" font-size="10.00">authoring.view.baseclasses.</text>
<text text-anchor="middle" x="711" y="-46" font-family="Helvetica,sans-Serif" font-size="10.00">TabView</text>
</a>
</g>
</g>
<!-- Node6&#45;&gt;Node5 -->
<g id="edge5" class="edge"><title>Node6&#45;&gt;Node5</title>
<path fill="none" stroke="midnightblue" d="M795.741,-64.4806C842.084,-70.9749 900.548,-80.3126 952,-92 971.291,-96.382 992.253,-102.384 1010.27,-107.941"/>
<polygon fill="midnightblue" stroke="midnightblue" points="796.129,-61.001 785.744,-63.0972 795.169,-67.9349 796.129,-61.001"/>
</g>
<!-- Node7 -->
<g id="node7" class="node"><title>Node7</title>
<polygon fill="white" stroke="#bfbfbf" points="305,-37.5 305,-56.5 361,-56.5 361,-37.5 305,-37.5"/>
<text text-anchor="middle" x="333" y="-44.5" font-family="Helvetica,sans-Serif" font-size="10.00">TabPane</text>
</g>
<!-- Node7&#45;&gt;Node6 -->
<g id="edge6" class="edge"><title>Node7&#45;&gt;Node6</title>
<path fill="none" stroke="midnightblue" d="M371.048,-47.6897C432.447,-48.8328 556.419,-51.1408 636.205,-52.6262"/>
<polygon fill="midnightblue" stroke="midnightblue" points="371.104,-44.1903 361.041,-47.5034 370.974,-51.1891 371.104,-44.1903"/>
</g>
<!-- Node8 -->
<g id="node8" class="node"><title>Node8</title>
<polygon fill="white" stroke="#bfbfbf" points="286.5,-86.5 286.5,-105.5 379.5,-105.5 379.5,-86.5 286.5,-86.5"/>
<text text-anchor="middle" x="333" y="-93.5" font-family="Helvetica,sans-Serif" font-size="10.00">ResourceBundle</text>
</g>
<!-- Node8&#45;&gt;Node6 -->
<g id="edge7" class="edge"><title>Node8&#45;&gt;Node6</title>
<path fill="none" stroke="#9a32cd" stroke-dasharray="5,2" d="M389.652,-89.5098C412.662,-86.8442 439.614,-83.7451 464,-81 521.852,-74.4876 587.38,-67.305 636.251,-61.9862"/>
<polygon fill="#9a32cd" stroke="#9a32cd" points="389.247,-86.0332 379.717,-90.6621 390.054,-92.9866 389.247,-86.0332"/>
<text text-anchor="middle" x="522" y="-84" font-family="Helvetica,sans-Serif" font-size="10.00"> myLanguage</text>
</g>
<!-- Node14 -->
<g id="node14" class="node"><title>Node14</title>
<g id="a_node14"><a xlink:href="../../de/d93/classauthoring_1_1view_1_1baseclasses_1_1_collection_view.html" target="_top" xlink:title="authoring.view.baseclasses.\lCollectionView">
<polygon fill="white" stroke="black" points="982.5,-157 982.5,-187 1131.5,-187 1131.5,-157 982.5,-157"/>
<text text-anchor="start" x="990.5" y="-175" font-family="Helvetica,sans-Serif" font-size="10.00">authoring.view.baseclasses.</text>
<text text-anchor="middle" x="1057" y="-164" font-family="Helvetica,sans-Serif" font-size="10.00">CollectionView</text>
</a>
</g>
</g>
<!-- Node8&#45;&gt;Node14 -->
<g id="edge15" class="edge"><title>Node8&#45;&gt;Node14</title>
<path fill="none" stroke="#9a32cd" stroke-dasharray="5,2" d="M389.813,-95.5468C521.822,-95.124 849.819,-98.0534 952,-136 960.789,-139.264 961.423,-143.214 970,-147 978.392,-150.705 987.484,-154.03 996.508,-156.953"/>
<polygon fill="#9a32cd" stroke="#9a32cd" points="389.514,-92.0479 379.528,-95.5879 389.542,-99.0478 389.514,-92.0479"/>
<text text-anchor="middle" x="711" y="-115" font-family="Helvetica,sans-Serif" font-size="10.00"> myLanguage</text>
</g>
<!-- Node9 -->
<g id="node9" class="node"><title>Node9</title>
<g id="a_node9"><a xlink:href="../../d2/d4f/interfacedata_1_1_observer.html" target="_top" xlink:title="data.Observer">
<polygon fill="white" stroke="black" points="668.5,-0.5 668.5,-19.5 753.5,-19.5 753.5,-0.5 668.5,-0.5"/>
<text text-anchor="middle" x="711" y="-7.5" font-family="Helvetica,sans-Serif" font-size="10.00">data.Observer</text>
</a>
</g>
</g>
<!-- Node9&#45;&gt;Node5 -->
<g id="edge8" class="edge"><title>Node9&#45;&gt;Node5</title>
<path fill="none" stroke="midnightblue" d="M763.749,-17.2852C782.805,-20.3592 804.492,-24.3198 824,-29 881.957,-42.9048 896.894,-46.2905 952,-69 979.462,-80.3174 1009.43,-96.2897 1030.11,-107.926"/>
<polygon fill="midnightblue" stroke="midnightblue" points="764.18,-13.8101 753.758,-15.7147 763.093,-20.7252 764.18,-13.8101"/>
</g>
<!-- Node10 -->
<g id="node10" class="node"><title>Node10</title>
<polygon fill="white" stroke="#bfbfbf" points="695,-501.5 695,-520.5 727,-520.5 727,-501.5 695,-501.5"/>
<text text-anchor="middle" x="711" y="-508.5" font-family="Helvetica,sans-Serif" font-size="10.00">File</text>
</g>
<!-- Node10&#45;&gt;Node5 -->
<g id="edge9" class="edge"><title>Node10&#45;&gt;Node5</title>
<path fill="none" stroke="#9a32cd" stroke-dasharray="5,2" d="M737.601,-510.178C796.447,-508.033 937.426,-501.333 952,-486 977.987,-458.66 946.404,-176.428 970,-147 975.527,-140.107 982.857,-135.093 990.912,-131.464"/>
<polygon fill="#9a32cd" stroke="#9a32cd" points="737.174,-506.691 727.302,-510.538 737.418,-513.687 737.174,-506.691"/>
<text text-anchor="middle" x="897" y="-508" font-family="Helvetica,sans-Serif" font-size="10.00"> myGameLocation</text>
</g>
<!-- Node24 -->
<g id="node24" class="node"><title>Node24</title>
<g id="a_node24"><a xlink:href="../../d0/d7f/classengine_1_1game_object_1_1_game_object.html" target="_top" xlink:title="engine.gameObject.GameObject">
<polygon fill="white" stroke="black" points="970.5,-646.5 970.5,-665.5 1143.5,-665.5 1143.5,-646.5 970.5,-646.5"/>
<text text-anchor="middle" x="1057" y="-653.5" font-family="Helvetica,sans-Serif" font-size="10.00">engine.gameObject.GameObject</text>
</a>
</g>
</g>
<!-- Node10&#45;&gt;Node24 -->
<g id="edge41" class="edge"><title>Node10&#45;&gt;Node24</title>
<path fill="none" stroke="#9a32cd" stroke-dasharray="5,2" d="M737.185,-511.106C782.698,-512.285 880.547,-519.407 952,-557 995.46,-579.866 1033.62,-626.165 1048.9,-646.292"/>
<polygon fill="#9a32cd" stroke="#9a32cd" points="737.1,-507.604 727.038,-510.922 736.973,-514.603 737.1,-507.604"/>
<text text-anchor="middle" x="897" y="-560" font-family="Helvetica,sans-Serif" font-size="10.00"> gameLocationFile</text>
</g>
<!-- Node11 -->
<g id="node11" class="node"><title>Node11</title>
<g id="a_node11"><a xlink:href="../../d3/d6a/interfaceauthoring_1_1eventhandlers_1_1_game_handler.html" target="_top" xlink:title="authoring.eventhandlers.\lGameHandler\&lt; T extends\l Event \&gt;">
<polygon fill="white" stroke="black" points="640.5,-190.5 640.5,-231.5 781.5,-231.5 781.5,-190.5 640.5,-190.5"/>
<text text-anchor="start" x="648.5" y="-219.5" font-family="Helvetica,sans-Serif" font-size="10.00">authoring.eventhandlers.</text>
<text text-anchor="start" x="648.5" y="-208.5" font-family="Helvetica,sans-Serif" font-size="10.00">GameHandler&lt; T extends</text>
<text text-anchor="middle" x="711" y="-197.5" font-family="Helvetica,sans-Serif" font-size="10.00"> Event &gt;</text>
</a>
</g>
</g>
<!-- Node11&#45;&gt;Node5 -->
<g id="edge10" class="edge"><title>Node11&#45;&gt;Node5</title>
<path fill="none" stroke="#9a32cd" stroke-dasharray="5,2" d="M782.716,-187.437C801.856,-181.405 822.636,-175.169 842,-170 891.431,-156.805 947.992,-144.502 990.547,-135.795"/>
<polygon fill="#9a32cd" stroke="#9a32cd" points="781.641,-184.106 773.171,-190.47 783.761,-190.777 781.641,-184.106"/>
<text text-anchor="middle" x="897" y="-173" font-family="Helvetica,sans-Serif" font-size="10.00"> myEvents</text>
</g>
<!-- Node13 -->
<g id="node13" class="node"><title>Node13</title>
<g id="a_node13"><a xlink:href="../../d4/d9e/classauthoring_1_1view_1_1propertiesview_1_1_properties_view.html" target="_top" xlink:title="authoring.view.propertiesview.\lPropertiesView">
<polygon fill="white" stroke="black" points="1314.5,-324 1314.5,-354 1473.5,-354 1473.5,-324 1314.5,-324"/>
<text text-anchor="start" x="1322.5" y="-342" font-family="Helvetica,sans-Serif" font-size="10.00">authoring.view.propertiesview.</text>
<text text-anchor="middle" x="1394" y="-331" font-family="Helvetica,sans-Serif" font-size="10.00">PropertiesView</text>
</a>
</g>
</g>
<!-- Node11&#45;&gt;Node13 -->
<g id="edge50" class="edge"><title>Node11&#45;&gt;Node13</title>
<path fill="none" stroke="#9a32cd" stroke-dasharray="5,2" d="M791.698,-217.687C838.56,-222.185 898.857,-228.955 952,-238 1091.57,-261.755 1253.23,-302.13 1336.67,-323.944"/>
<polygon fill="#9a32cd" stroke="#9a32cd" points="791.893,-214.189 781.608,-216.733 791.234,-221.158 791.893,-214.189"/>
<text text-anchor="middle" x="1057" y="-280" font-family="Helvetica,sans-Serif" font-size="10.00"> myButtonBehaviors</text>
</g>
<!-- Node11&#45;&gt;Node14 -->
<g id="edge16" class="edge"><title>Node11&#45;&gt;Node14</title>
<path fill="none" stroke="#9a32cd" stroke-dasharray="5,2" d="M791.75,-201.959C849.247,-195.44 926.277,-186.707 982.329,-180.352"/>
<polygon fill="#9a32cd" stroke="#9a32cd" points="791.156,-198.503 781.614,-203.108 791.944,-205.459 791.156,-198.503"/>
<text text-anchor="middle" x="897" y="-200" font-family="Helvetica,sans-Serif" font-size="10.00"> myIconEvents</text>
</g>
<!-- Node17 -->
<g id="node17" class="node"><title>Node17</title>
<g id="a_node17"><a xlink:href="../../da/d8d/classauthoring_1_1view_1_1propertiesview_1_1_game_object_properties.html" target="_top" xlink:title="authoring.view.propertiesview.\lGameObjectProperties">
<polygon fill="white" stroke="black" points="977.5,-324 977.5,-354 1136.5,-354 1136.5,-324 977.5,-324"/>
<text text-anchor="start" x="985.5" y="-342" font-family="Helvetica,sans-Serif" font-size="10.00">authoring.view.propertiesview.</text>
<text text-anchor="middle" x="1057" y="-331" font-family="Helvetica,sans-Serif" font-size="10.00">GameObjectProperties</text>
</a>
</g>
</g>
<!-- Node11&#45;&gt;Node17 -->
<g id="edge26" class="edge"><title>Node11&#45;&gt;Node17</title>
<path fill="none" stroke="#9a32cd" stroke-dasharray="5,2" d="M791.522,-226.634C849.792,-238.698 923.487,-255.4 952,-268 984.994,-282.58 1018.66,-307.86 1038.43,-323.991"/>
<polygon fill="#9a32cd" stroke="#9a32cd" points="792.076,-223.174 781.575,-224.588 790.665,-230.031 792.076,-223.174"/>
<text text-anchor="middle" x="897" y="-293" font-family="Helvetica,sans-Serif" font-size="10.00"> myDeleteHandler</text>
<text text-anchor="middle" x="897" y="-282" font-family="Helvetica,sans-Serif" font-size="10.00">mySaveAsNewHandler</text>
<text text-anchor="middle" x="897" y="-271" font-family="Helvetica,sans-Serif" font-size="10.00">myEditHandler</text>
</g>
<!-- Node12 -->
<g id="node12" class="node"><title>Node12</title>
<polygon fill="white" stroke="#bfbfbf" points="245,-201.5 245,-220.5 421,-220.5 421,-201.5 245,-201.5"/>
<text text-anchor="middle" x="333" y="-208.5" font-family="Helvetica,sans-Serif" font-size="10.00">javafx::event::EventHandler&lt; T &gt;</text>
</g>
<!-- Node12&#45;&gt;Node11 -->
<g id="edge11" class="edge"><title>Node12&#45;&gt;Node11</title>
<path fill="none" stroke="midnightblue" d="M431.532,-211C496.932,-211 581.511,-211 640.213,-211"/>
<polygon fill="midnightblue" stroke="midnightblue" points="431.207,-207.5 421.207,-211 431.207,-214.5 431.207,-207.5"/>
</g>
<!-- Node13&#45;&gt;Node1 -->
<g id="edge12" class="edge"><title>Node13&#45;&gt;Node1</title>
<path fill="none" stroke="#9a32cd" stroke-dasharray="5,2" d="M1484.2,-341.36C1515.21,-342.693 1550.19,-344.769 1582,-348 1587.82,-348.591 1593.84,-349.304 1599.88,-350.091"/>
<polygon fill="#9a32cd" stroke="#9a32cd" points="1483.98,-337.848 1473.84,-340.936 1483.69,-344.842 1483.98,-337.848"/>
<text text-anchor="middle" x="1537" y="-351" font-family="Helvetica,sans-Serif" font-size="10.00"> myPropertiesView</text>
</g>
<!-- Node14&#45;&gt;Node13 -->
<g id="edge13" class="edge"><title>Node14&#45;&gt;Node13</title>
<path fill="none" stroke="midnightblue" d="M1141.65,-170.222C1189.84,-172.74 1249.82,-182.182 1296,-210 1341.84,-237.617 1373.28,-295.833 1386.28,-323.615"/>
<polygon fill="midnightblue" stroke="midnightblue" points="1141.7,-166.721 1131.56,-169.786 1141.4,-173.715 1141.7,-166.721"/>
</g>
<!-- Node15 -->
<g id="node15" class="node"><title>Node15</title>
<polygon fill="white" stroke="#bfbfbf" points="678,-135.5 678,-154.5 744,-154.5 744,-135.5 678,-135.5"/>
<text text-anchor="middle" x="711" y="-142.5" font-family="Helvetica,sans-Serif" font-size="10.00">ScrollPane</text>
</g>
<!-- Node15&#45;&gt;Node14 -->
<g id="edge14" class="edge"><title>Node15&#45;&gt;Node14</title>
<path fill="none" stroke="midnightblue" d="M754.434,-141.767C802.557,-138.849 883.267,-136.223 952,-145 970.781,-147.398 991.019,-152.139 1008.6,-156.988"/>
<polygon fill="midnightblue" stroke="midnightblue" points="754.141,-138.279 744.385,-142.41 754.588,-145.264 754.141,-138.279"/>
</g>
<!-- Node16 -->
<g id="node16" class="node"><title>Node16</title>
<polygon fill="white" stroke="#bfbfbf" points="312.5,-457.5 312.5,-476.5 353.5,-476.5 353.5,-457.5 312.5,-457.5"/>
<text text-anchor="middle" x="333" y="-464.5" font-family="Helvetica,sans-Serif" font-size="10.00">VBox</text>
</g>
<!-- Node16&#45;&gt;Node13 -->
<g id="edge17" class="edge"><title>Node16&#45;&gt;Node13</title>
<path fill="none" stroke="#9a32cd" stroke-dasharray="5,2" d="M363.84,-468.414C453.429,-472.172 727.718,-480.113 952,-449 1027.23,-438.564 1238.68,-381.625 1338.95,-354.02"/>
<polygon fill="#9a32cd" stroke="#9a32cd" points="363.754,-464.907 353.611,-467.969 363.45,-471.901 363.754,-464.907"/>
<text text-anchor="middle" x="897" y="-465" font-family="Helvetica,sans-Serif" font-size="10.00"> myContents</text>
</g>
<!-- Node18 -->
<g id="node18" class="node"><title>Node18</title>
<g id="a_node18"><a xlink:href="../../de/d73/classauthoring_1_1view_1_1propertiesview_1_1_properties.html" target="_top" xlink:title="authoring.view.propertiesview.\lProperties">
<polygon fill="white" stroke="black" points="631.5,-316 631.5,-346 790.5,-346 790.5,-316 631.5,-316"/>
<text text-anchor="start" x="639.5" y="-334" font-family="Helvetica,sans-Serif" font-size="10.00">authoring.view.propertiesview.</text>
<text text-anchor="middle" x="711" y="-323" font-family="Helvetica,sans-Serif" font-size="10.00">Properties</text>
</a>
</g>
</g>
<!-- Node16&#45;&gt;Node18 -->
<g id="edge20" class="edge"><title>Node16&#45;&gt;Node18</title>
<path fill="none" stroke="midnightblue" d="M363.702,-462.866C386.696,-459.076 419.058,-452.442 446,-442 518.579,-413.872 525.302,-382.819 598,-355 608.586,-350.949 620.011,-347.512 631.376,-344.617"/>
<polygon fill="midnightblue" stroke="midnightblue" points="362.88,-459.452 353.541,-464.456 363.962,-466.368 362.88,-459.452"/>
</g>
<!-- Node17&#45;&gt;Node13 -->
<g id="edge18" class="edge"><title>Node17&#45;&gt;Node13</title>
<path fill="none" stroke="#9a32cd" stroke-dasharray="5,2" d="M1146.78,-339C1198.88,-339 1264.13,-339 1314.37,-339"/>
<polygon fill="#9a32cd" stroke="#9a32cd" points="1146.54,-335.5 1136.54,-339 1146.54,-342.5 1146.54,-335.5"/>
<text text-anchor="middle" x="1229" y="-342" font-family="Helvetica,sans-Serif" font-size="10.00"> myGameObjectsProperties</text>
</g>
<!-- Node18&#45;&gt;Node17 -->
<g id="edge19" class="edge"><title>Node18&#45;&gt;Node17</title>
<path fill="none" stroke="midnightblue" d="M800.939,-333.068C855.551,-334.338 924.864,-335.95 977.447,-337.173"/>
<polygon fill="midnightblue" stroke="midnightblue" points="800.999,-329.569 790.921,-332.835 800.836,-336.567 800.999,-329.569"/>
</g>
<!-- Node19 -->
<g id="node19" class="node"><title>Node19</title>
<polygon fill="white" stroke="#bfbfbf" points="220.5,-316 220.5,-346 445.5,-346 445.5,-316 220.5,-316"/>
<text text-anchor="start" x="228.5" y="-334" font-family="Helvetica,sans-Serif" font-size="10.00">Map&lt; String, authoring.view.propertiesview.</text>
<text text-anchor="middle" x="333" y="-323" font-family="Helvetica,sans-Serif" font-size="10.00">PropertyField &gt;</text>
</g>
<!-- Node19&#45;&gt;Node18 -->
<g id="edge21" class="edge"><title>Node19&#45;&gt;Node18</title>
<path fill="none" stroke="#9a32cd" stroke-dasharray="5,2" d="M455.808,-331C513.415,-331 580.528,-331 631.323,-331"/>
<polygon fill="#9a32cd" stroke="#9a32cd" points="455.54,-327.5 445.54,-331 455.54,-334.5 455.54,-327.5"/>
<text text-anchor="middle" x="522" y="-334" font-family="Helvetica,sans-Serif" font-size="10.00"> myMap</text>
</g>
<!-- Node20 -->
<g id="node20" class="node"><title>Node20</title>
<polygon fill="white" stroke="#bfbfbf" points="640.5,-277.5 640.5,-296.5 781.5,-296.5 781.5,-277.5 640.5,-277.5"/>
<text text-anchor="middle" x="711" y="-284.5" font-family="Helvetica,sans-Serif" font-size="10.00">Map&lt; String, CheckBox &gt;</text>
</g>
<!-- Node20&#45;&gt;Node17 -->
<g id="edge22" class="edge"><title>Node20&#45;&gt;Node17</title>
<path fill="none" stroke="#9a32cd" stroke-dasharray="5,2" d="M791.766,-297.072C838.528,-303.201 898.703,-311.472 952,-320 960.246,-321.32 968.847,-322.77 977.415,-324.264"/>
<polygon fill="#9a32cd" stroke="#9a32cd" points="792.066,-293.582 781.697,-295.759 791.16,-300.523 792.066,-293.582"/>
<text text-anchor="middle" x="897" y="-323" font-family="Helvetica,sans-Serif" font-size="10.00"> booleanProperties</text>
</g>
<!-- Node21 -->
<g id="node21" class="node"><title>Node21</title>
<polygon fill="white" stroke="#bfbfbf" points="598.5,-365 598.5,-395 823.5,-395 823.5,-365 598.5,-365"/>
<text text-anchor="start" x="606.5" y="-383" font-family="Helvetica,sans-Serif" font-size="10.00">Map&lt; String, authoring.view.propertiesview.</text>
<text text-anchor="middle" x="711" y="-372" font-family="Helvetica,sans-Serif" font-size="10.00">PropertyTextField &gt;</text>
</g>
<!-- Node21&#45;&gt;Node17 -->
<g id="edge23" class="edge"><title>Node21&#45;&gt;Node17</title>
<path fill="none" stroke="#9a32cd" stroke-dasharray="5,2" d="M833.77,-365.487C881.453,-359.804 934.782,-353.448 977.244,-348.387"/>
<polygon fill="#9a32cd" stroke="#9a32cd" points="833.202,-362.03 823.687,-366.688 834.031,-368.98 833.202,-362.03"/>
<text text-anchor="middle" x="897" y="-401" font-family="Helvetica,sans-Serif" font-size="10.00"> physicsProperties</text>
<text text-anchor="middle" x="897" y="-390" font-family="Helvetica,sans-Serif" font-size="10.00">wizardProperties</text>
<text text-anchor="middle" x="897" y="-379" font-family="Helvetica,sans-Serif" font-size="10.00">concreteTextProperties</text>
<text text-anchor="middle" x="897" y="-368" font-family="Helvetica,sans-Serif" font-size="10.00">inherentTextProperties</text>
</g>
<!-- Node22 -->
<g id="node22" class="node"><title>Node22</title>
<g id="a_node22"><a xlink:href="../../dd/db2/classauthoring_1_1view_1_1baseclasses_1_1_accordion_container.html" target="_top" xlink:title="authoring.view.baseclasses.\lAccordionContainer">
<polygon fill="white" stroke="black" points="636.5,-414 636.5,-444 785.5,-444 785.5,-414 636.5,-414"/>
<text text-anchor="start" x="644.5" y="-432" font-family="Helvetica,sans-Serif" font-size="10.00">authoring.view.baseclasses.</text>
<text text-anchor="middle" x="711" y="-421" font-family="Helvetica,sans-Serif" font-size="10.00">AccordionContainer</text>
</a>
</g>
</g>
<!-- Node22&#45;&gt;Node17 -->
<g id="edge24" class="edge"><title>Node22&#45;&gt;Node17</title>
<path fill="none" stroke="#9a32cd" stroke-dasharray="5,2" d="M795.685,-434.477C842.868,-434.869 902.163,-430.769 952,-413 987.484,-400.348 1021.7,-371.867 1040.69,-354.159"/>
<polygon fill="#9a32cd" stroke="#9a32cd" points="795.555,-430.975 785.503,-434.322 795.448,-437.974 795.555,-430.975"/>
<text text-anchor="middle" x="897" y="-437" font-family="Helvetica,sans-Serif" font-size="10.00"> myAccordion</text>
</g>
<!-- Node23 -->
<g id="node23" class="node"><title>Node23</title>
<polygon fill="white" stroke="#bfbfbf" points="301,-413.5 301,-432.5 365,-432.5 365,-413.5 301,-413.5"/>
<text text-anchor="middle" x="333" y="-420.5" font-family="Helvetica,sans-Serif" font-size="10.00">Accordion</text>
</g>
<!-- Node23&#45;&gt;Node22 -->
<g id="edge25" class="edge"><title>Node23&#45;&gt;Node22</title>
<path fill="none" stroke="midnightblue" d="M375.39,-423.66C438.172,-424.662 558.396,-426.581 636.34,-427.825"/>
<polygon fill="midnightblue" stroke="midnightblue" points="375.144,-420.156 365.09,-423.496 375.032,-427.155 375.144,-420.156"/>
</g>
<!-- Node24&#45;&gt;Node13 -->
<g id="edge27" class="edge"><title>Node24&#45;&gt;Node13</title>
<path fill="none" stroke="#9a32cd" stroke-dasharray="5,2" d="M1079.3,-640.513C1100.28,-625.29 1133.27,-601.435 1162,-581 1221.28,-538.834 1257.88,-548.958 1296,-487 1325.18,-439.571 1277.7,-405.232 1314,-363 1316.9,-359.63 1320.25,-356.725 1323.91,-354.22"/>
<polygon fill="#9a32cd" stroke="#9a32cd" points="1077.13,-637.766 1071.09,-646.473 1081.24,-643.43 1077.13,-637.766"/>
<text text-anchor="middle" x="1229" y="-584" font-family="Helvetica,sans-Serif" font-size="10.00"> myCurrentGameObject</text>
</g>
<!-- Node25 -->
<g id="node25" class="node"><title>Node25</title>
<g id="a_node25"><a xlink:href="../../d7/de6/interfaceengine_1_1game_object_1_1_i_enabled.html" target="_top" xlink:title="engine.gameObject.IEnabled">
<polygon fill="white" stroke="black" points="634,-703.5 634,-722.5 788,-722.5 788,-703.5 634,-703.5"/>
<text text-anchor="middle" x="711" y="-710.5" font-family="Helvetica,sans-Serif" font-size="10.00">engine.gameObject.IEnabled</text>
</a>
</g>
</g>
<!-- Node25&#45;&gt;Node24 -->
<g id="edge28" class="edge"><title>Node25&#45;&gt;Node24</title>
<path fill="none" stroke="midnightblue" d="M798.365,-702.42C844.158,-696.393 901.284,-688.213 952,-679 960.063,-677.535 961.999,-676.773 970,-675 983.884,-671.924 999.03,-668.575 1012.69,-665.558"/>
<polygon fill="midnightblue" stroke="midnightblue" points="797.64,-698.985 788.177,-703.75 798.546,-705.926 797.64,-698.985"/>
</g>
<!-- Node26 -->
<g id="node26" class="node"><title>Node26</title>
<polygon fill="white" stroke="#bfbfbf" points="645.5,-665.5 645.5,-684.5 776.5,-684.5 776.5,-665.5 645.5,-665.5"/>
<text text-anchor="middle" x="711" y="-672.5" font-family="Helvetica,sans-Serif" font-size="10.00">Iterable&lt; Component &gt;</text>
</g>
<!-- Node26&#45;&gt;Node24 -->
<g id="edge29" class="edge"><title>Node26&#45;&gt;Node24</title>
<path fill="none" stroke="midnightblue" d="M786.912,-670.862C840.984,-667.876 914.094,-663.838 970.46,-660.725"/>
<polygon fill="midnightblue" stroke="midnightblue" points="786.495,-667.38 776.704,-671.426 786.882,-674.369 786.495,-667.38"/>
</g>
<!-- Node27 -->
<g id="node27" class="node"><title>Node27</title>
<g id="a_node27"><a xlink:href="../../dc/df6/interfaceengine_1_1game_object_1_1_identifiable.html" target="_top" xlink:title="engine.gameObject.Identifiable">
<polygon fill="white" stroke="black" points="628.5,-627.5 628.5,-646.5 793.5,-646.5 793.5,-627.5 628.5,-627.5"/>
<text text-anchor="middle" x="711" y="-634.5" font-family="Helvetica,sans-Serif" font-size="10.00">engine.gameObject.Identifiable</text>
</a>
</g>
</g>
<!-- Node27&#45;&gt;Node24 -->
<g id="edge30" class="edge"><title>Node27&#45;&gt;Node24</title>
<path fill="none" stroke="midnightblue" d="M803.689,-642.064C855.388,-644.92 919.569,-648.465 970.262,-651.264"/>
<polygon fill="midnightblue" stroke="midnightblue" points="803.701,-638.56 793.523,-641.503 803.315,-645.549 803.701,-638.56"/>
</g>
<!-- Node28 -->
<g id="node28" class="node"><title>Node28</title>
<g id="a_node28"><a xlink:href="../../d4/dac/classengine_1_1game_object_1_1_identifier.html" target="_top" xlink:title="engine.gameObject.Identifier">
<polygon fill="white" stroke="black" points="633.5,-589.5 633.5,-608.5 788.5,-608.5 788.5,-589.5 633.5,-589.5"/>
<text text-anchor="middle" x="711" y="-596.5" font-family="Helvetica,sans-Serif" font-size="10.00">engine.gameObject.Identifier</text>
</a>
</g>
</g>
<!-- Node28&#45;&gt;Node24 -->
<g id="edge31" class="edge"><title>Node28&#45;&gt;Node24</title>
<path fill="none" stroke="#9a32cd" stroke-dasharray="5,2" d="M798.748,-607.736C844.531,-612.968 901.53,-620.465 952,-630 975.591,-634.457 1001.81,-641.024 1022.03,-646.443"/>
<polygon fill="#9a32cd" stroke="#9a32cd" points="798.89,-604.23 788.561,-606.588 798.106,-611.185 798.89,-604.23"/>
<text text-anchor="middle" x="897" y="-633" font-family="Helvetica,sans-Serif" font-size="10.00"> myId</text>
</g>
<!-- Node29 -->
<g id="node29" class="node"><title>Node29</title>
<polygon fill="white" stroke="#bfbfbf" points="305,-586.5 305,-605.5 361,-605.5 361,-586.5 305,-586.5"/>
<text text-anchor="middle" x="333" y="-593.5" font-family="Helvetica,sans-Serif" font-size="10.00">Random</text>
</g>
<!-- Node29&#45;&gt;Node28 -->
<g id="edge32" class="edge"><title>Node29&#45;&gt;Node28</title>
<path fill="none" stroke="#9a32cd" stroke-dasharray="5,2" d="M371.298,-596.298C432.013,-596.782 553.435,-597.751 633.188,-598.387"/>
<polygon fill="#9a32cd" stroke="#9a32cd" points="371.069,-592.796 361.041,-596.216 371.013,-599.796 371.069,-592.796"/>
<text text-anchor="middle" x="522" y="-601" font-family="Helvetica,sans-Serif" font-size="10.00"> r</text>
</g>
<!-- Node30 -->
<g id="node30" class="node"><title>Node30</title>
<g id="a_node30"><a xlink:href="../../da/d35/classengine_1_1scrolling_1_1_scrolling_utility.html" target="_top" xlink:title="engine.scrolling.Scrolling\lUtility">
<polygon fill="white" stroke="black" points="644,-540 644,-570 778,-570 778,-540 644,-540"/>
<text text-anchor="start" x="652" y="-558" font-family="Helvetica,sans-Serif" font-size="10.00">engine.scrolling.Scrolling</text>
<text text-anchor="middle" x="711" y="-547" font-family="Helvetica,sans-Serif" font-size="10.00">Utility</text>
</a>
</g>
</g>
<!-- Node30&#45;&gt;Node24 -->
<g id="edge33" class="edge"><title>Node30&#45;&gt;Node24</title>
<path fill="none" stroke="#9a32cd" stroke-dasharray="5,2" d="M788.165,-562.645C836.17,-568.994 898.895,-580.135 952,-599 986.147,-611.131 1022.5,-633.523 1041.88,-646.334"/>
<polygon fill="#9a32cd" stroke="#9a32cd" points="788.517,-559.161 778.153,-561.361 787.627,-566.105 788.517,-559.161"/>
<text text-anchor="middle" x="897" y="-602" font-family="Helvetica,sans-Serif" font-size="10.00"> myScrollingUtility</text>
</g>
<!-- Node31 -->
<g id="node31" class="node"><title>Node31</title>
<polygon fill="white" stroke="#bfbfbf" points="305.5,-545.5 305.5,-564.5 360.5,-564.5 360.5,-545.5 305.5,-545.5"/>
<text text-anchor="middle" x="333" y="-552.5" font-family="Helvetica,sans-Serif" font-size="10.00">Camera</text>
</g>
<!-- Node31&#45;&gt;Node30 -->
<g id="edge34" class="edge"><title>Node31&#45;&gt;Node30</title>
<path fill="none" stroke="#9a32cd" stroke-dasharray="5,2" d="M371.047,-555C434.427,-555 564.484,-555 643.786,-555"/>
<polygon fill="#9a32cd" stroke="#9a32cd" points="370.74,-551.5 360.74,-555 370.74,-558.5 370.74,-551.5"/>
<text text-anchor="middle" x="522" y="-558" font-family="Helvetica,sans-Serif" font-size="10.00"> myCamera</text>
</g>
<!-- Node32 -->
<g id="node32" class="node"><title>Node32</title>
<polygon fill="white" stroke="#bfbfbf" points="231,-956 231,-986 435,-986 435,-956 231,-956"/>
<text text-anchor="start" x="239" y="-974" font-family="Helvetica,sans-Serif" font-size="10.00">List&lt; engine.gameObject.components.</text>
<text text-anchor="middle" x="333" y="-963" font-family="Helvetica,sans-Serif" font-size="10.00">Component &gt;</text>
</g>
<!-- Node32&#45;&gt;Node24 -->
<g id="edge35" class="edge"><title>Node32&#45;&gt;Node24</title>
<path fill="none" stroke="#9a32cd" stroke-dasharray="5,2" d="M399.706,-988.474C527.559,-1018.05 809.704,-1060.78 952,-907 987.12,-869.045 936.082,-714.033 970,-675 973.209,-671.307 976.96,-668.24 981.067,-665.7"/>
<polygon fill="#9a32cd" stroke="#9a32cd" points="400.2,-984.995 389.664,-986.105 398.593,-991.808 400.2,-984.995"/>
<text text-anchor="middle" x="711" y="-1020" font-family="Helvetica,sans-Serif" font-size="10.00"> myComponents</text>
</g>
<!-- Node44 -->
<g id="node44" class="node"><title>Node44</title>
<g id="a_node44"><a xlink:href="../../d6/d66/classengine_1_1game_object_1_1_default_data.html" target="_top" xlink:title="engine.gameObject.DefaultData">
<polygon fill="white" stroke="black" points="625.5,-898.5 625.5,-917.5 796.5,-917.5 796.5,-898.5 625.5,-898.5"/>
<text text-anchor="middle" x="711" y="-905.5" font-family="Helvetica,sans-Serif" font-size="10.00">engine.gameObject.DefaultData</text>
</a>
</g>
</g>
<!-- Node32&#45;&gt;Node44 -->
<g id="edge49" class="edge"><title>Node32&#45;&gt;Node44</title>
<path fill="none" stroke="#9a32cd" stroke-dasharray="5,2" d="M423.899,-954.097C437.331,-951.66 451.022,-949.226 464,-947 526.224,-936.326 597.487,-925.142 647.24,-917.501"/>
<polygon fill="#9a32cd" stroke="#9a32cd" points="422.904,-950.721 413.693,-955.958 424.159,-957.607 422.904,-950.721"/>
<text text-anchor="middle" x="522" y="-950" font-family="Helvetica,sans-Serif" font-size="10.00"> myComponents</text>
</g>
<!-- Node33 -->
<g id="node33" class="node"><title>Node33</title>
<g id="a_node33"><a xlink:href="../../d2/d82/classengine_1_1render_1_1_rendered_node.html" target="_top" xlink:title="engine.render.RenderedNode">
<polygon fill="white" stroke="black" points="633,-840.5 633,-859.5 789,-859.5 789,-840.5 633,-840.5"/>
<text text-anchor="middle" x="711" y="-847.5" font-family="Helvetica,sans-Serif" font-size="10.00">engine.render.RenderedNode</text>
</a>
</g>
</g>
<!-- Node33&#45;&gt;Node24 -->
<g id="edge36" class="edge"><title>Node33&#45;&gt;Node24</title>
<path fill="none" stroke="#9a32cd" stroke-dasharray="5,2" d="M775.38,-838.1C829.952,-824.564 906.842,-797.068 952,-744 972.539,-719.863 947.171,-696.983 970,-675 973.965,-671.182 978.516,-668.062 983.409,-665.519"/>
<polygon fill="#9a32cd" stroke="#9a32cd" points="774.376,-834.741 765.463,-840.468 776.002,-841.55 774.376,-834.741"/>
<text text-anchor="middle" x="897" y="-817" font-family="Helvetica,sans-Serif" font-size="10.00"> myRenderedNode</text>
</g>
<!-- Node34 -->
<g id="node34" class="node"><title>Node34</title>
<polygon fill="white" stroke="#bfbfbf" points="310,-916.5 310,-935.5 356,-935.5 356,-916.5 310,-916.5"/>
<text text-anchor="middle" x="333" y="-923.5" font-family="Helvetica,sans-Serif" font-size="10.00">Group</text>
</g>
<!-- Node34&#45;&gt;Node33 -->
<g id="edge37" class="edge"><title>Node34&#45;&gt;Node33</title>
<path fill="none" stroke="midnightblue" d="M366.233,-923.118C413.53,-918.506 504.325,-908.194 580,-891 616.693,-882.663 657.955,-868.866 683.955,-859.608"/>
<polygon fill="midnightblue" stroke="midnightblue" points="365.896,-919.634 356.274,-924.067 366.561,-926.603 365.896,-919.634"/>
</g>
<!-- Node35 -->
<g id="node35" class="node"><title>Node35</title>
<polygon fill="white" stroke="#bfbfbf" points="312,-878.5 312,-897.5 354,-897.5 354,-878.5 312,-878.5"/>
<text text-anchor="middle" x="333" y="-885.5" font-family="Helvetica,sans-Serif" font-size="10.00">Label</text>
</g>
<!-- Node35&#45;&gt;Node33 -->
<g id="edge38" class="edge"><title>Node35&#45;&gt;Node33</title>
<path fill="none" stroke="#9a32cd" stroke-dasharray="5,2" d="M364.089,-885.398C410.473,-881.34 502.226,-873.122 580,-865 597.06,-863.218 615.365,-861.183 632.696,-859.198"/>
<polygon fill="#9a32cd" stroke="#9a32cd" points="363.762,-881.913 354.104,-886.269 364.37,-888.887 363.762,-881.913"/>
<text text-anchor="middle" x="522" y="-879" font-family="Helvetica,sans-Serif" font-size="10.00"> myLabel</text>
</g>
<!-- Node36 -->
<g id="node36" class="node"><title>Node36</title>
<polygon fill="white" stroke="#bfbfbf" points="299,-840.5 299,-859.5 367,-859.5 367,-840.5 299,-840.5"/>
<text text-anchor="middle" x="333" y="-847.5" font-family="Helvetica,sans-Serif" font-size="10.00">ImageView</text>
</g>
<!-- Node36&#45;&gt;Node33 -->
<g id="edge39" class="edge"><title>Node36&#45;&gt;Node33</title>
<path fill="none" stroke="#9a32cd" stroke-dasharray="5,2" d="M377.3,-850C439.636,-850 555.64,-850 632.847,-850"/>
<polygon fill="#9a32cd" stroke="#9a32cd" points="377.038,-846.5 367.038,-850 377.038,-853.5 377.038,-846.5"/>
<text text-anchor="middle" x="522" y="-853" font-family="Helvetica,sans-Serif" font-size="10.00"> myImageView</text>
</g>
<!-- Node37 -->
<g id="node37" class="node"><title>Node37</title>
<polygon fill="white" stroke="#bfbfbf" points="312,-802.5 312,-821.5 354,-821.5 354,-802.5 312,-802.5"/>
<text text-anchor="middle" x="333" y="-809.5" font-family="Helvetica,sans-Serif" font-size="10.00">Node</text>
</g>
<!-- Node37&#45;&gt;Node33 -->
<g id="edge40" class="edge"><title>Node37&#45;&gt;Node33</title>
<path fill="none" stroke="#9a32cd" stroke-dasharray="5,2" d="M364.089,-814.602C410.473,-818.66 502.226,-826.878 580,-835 597.06,-836.782 615.365,-838.817 632.696,-840.802"/>
<polygon fill="#9a32cd" stroke="#9a32cd" points="364.37,-811.113 354.104,-813.731 363.762,-818.087 364.37,-811.113"/>
<text text-anchor="middle" x="522" y="-838" font-family="Helvetica,sans-Serif" font-size="10.00"> myCollisionBody</text>
</g>
<!-- Node38 -->
<g id="node38" class="node"><title>Node38</title>
<g id="a_node38"><a xlink:href="../../d9/d9d/classengine_1_1game_object_1_1components_1_1_physics_body.html" target="_top" xlink:title="engine.gameObject.components.\lPhysicsBody">
<polygon fill="white" stroke="black" points="623,-742 623,-772 799,-772 799,-742 623,-742"/>
<text text-anchor="start" x="631" y="-760" font-family="Helvetica,sans-Serif" font-size="10.00">engine.gameObject.components.</text>
<text text-anchor="middle" x="711" y="-749" font-family="Helvetica,sans-Serif" font-size="10.00">PhysicsBody</text>
</a>
</g>
</g>
<!-- Node38&#45;&gt;Node24 -->
<g id="edge42" class="edge"><title>Node38&#45;&gt;Node24</title>
<path fill="none" stroke="#9a32cd" stroke-dasharray="5,2" d="M789.84,-739.737C801.3,-737.163 812.96,-734.526 824,-732 880.959,-718.969 903.991,-735.305 952,-702 963.85,-693.779 958.098,-683.145 970,-675 975.678,-671.114 982.018,-668.007 988.611,-665.526"/>
<polygon fill="#9a32cd" stroke="#9a32cd" points="788.833,-736.376 779.841,-741.978 790.364,-743.206 788.833,-736.376"/>
<text text-anchor="middle" x="897" y="-732" font-family="Helvetica,sans-Serif" font-size="10.00"> myPhysicsBody</text>
</g>
<!-- Node39 -->
<g id="node39" class="node"><title>Node39</title>
<polygon fill="white" stroke="#bfbfbf" points="255,-753 255,-783 411,-783 411,-753 255,-753"/>
<text text-anchor="start" x="263" y="-771" font-family="Helvetica,sans-Serif" font-size="10.00">Map&lt; String, engine.physics.</text>
<text text-anchor="middle" x="333" y="-760" font-family="Helvetica,sans-Serif" font-size="10.00">Scalar &gt;</text>
</g>
<!-- Node39&#45;&gt;Node38 -->
<g id="edge43" class="edge"><title>Node39&#45;&gt;Node38</title>
<path fill="none" stroke="#9a32cd" stroke-dasharray="5,2" d="M421.751,-765.433C482.27,-763.662 562.38,-761.319 622.784,-759.552"/>
<polygon fill="#9a32cd" stroke="#9a32cd" points="421.345,-761.943 411.452,-765.734 421.55,-768.94 421.345,-761.943"/>
<text text-anchor="middle" x="522" y="-768" font-family="Helvetica,sans-Serif" font-size="10.00"> myConstants</text>
</g>
<!-- Node40 -->
<g id="node40" class="node"><title>Node40</title>
<polygon fill="white" stroke="#bfbfbf" points="255,-704 255,-734 411,-734 411,-704 255,-704"/>
<text text-anchor="start" x="263" y="-722" font-family="Helvetica,sans-Serif" font-size="10.00">Map&lt; String, engine.physics.</text>
<text text-anchor="middle" x="333" y="-711" font-family="Helvetica,sans-Serif" font-size="10.00">Force &gt;</text>
</g>
<!-- Node40&#45;&gt;Node38 -->
<g id="edge44" class="edge"><title>Node40&#45;&gt;Node38</title>
<path fill="none" stroke="#9a32cd" stroke-dasharray="5,2" d="M421.751,-727.868C482.27,-733.985 562.38,-742.081 622.784,-748.186"/>
<polygon fill="#9a32cd" stroke="#9a32cd" points="421.753,-724.351 411.452,-726.828 421.049,-731.315 421.753,-724.351"/>
<text text-anchor="middle" x="522" y="-747" font-family="Helvetica,sans-Serif" font-size="10.00"> myActiveForces</text>
</g>
<!-- Node41 -->
<g id="node41" class="node"><title>Node41</title>
<polygon fill="white" stroke="#bfbfbf" points="249.5,-665.5 249.5,-684.5 416.5,-684.5 416.5,-665.5 249.5,-665.5"/>
<text text-anchor="middle" x="333" y="-672.5" font-family="Helvetica,sans-Serif" font-size="10.00">List&lt; engine.physics.Impulse &gt;</text>
</g>
<!-- Node41&#45;&gt;Node38 -->
<g id="edge45" class="edge"><title>Node41&#45;&gt;Node38</title>
<path fill="none" stroke="#9a32cd" stroke-dasharray="5,2" d="M400.848,-686.237C415.716,-688.765 431.398,-691.454 446,-694 505.604,-704.393 524.734,-693.377 580,-718 589.258,-722.125 588.832,-727.68 598,-732 606.2,-735.864 615.024,-739.144 623.99,-741.926"/>
<polygon fill="#9a32cd" stroke="#9a32cd" points="401.152,-682.739 390.707,-684.516 399.981,-689.64 401.152,-682.739"/>
<text text-anchor="middle" x="522" y="-721" font-family="Helvetica,sans-Serif" font-size="10.00"> myImpulses</text>
</g>
<!-- Node42 -->
<g id="node42" class="node"><title>Node42</title>
<g id="a_node42"><a xlink:href="../../d5/d1f/classengine_1_1physics_1_1_vector.html" target="_top" xlink:title="engine.physics.Vector">
<polygon fill="white" stroke="black" points="272.5,-624.5 272.5,-643.5 393.5,-643.5 393.5,-624.5 272.5,-624.5"/>
<text text-anchor="middle" x="333" y="-631.5" font-family="Helvetica,sans-Serif" font-size="10.00">engine.physics.Vector</text>
</a>
</g>
</g>
<!-- Node42&#45;&gt;Node38 -->
<g id="edge46" class="edge"><title>Node42&#45;&gt;Node38</title>
<path fill="none" stroke="#9a32cd" stroke-dasharray="5,2" d="M390.892,-623.088C445.948,-616.023 528.432,-615.175 580,-660 604.895,-681.639 574.382,-708.974 598,-732 605.061,-738.884 613.579,-744.041 622.727,-747.881"/>
<polygon fill="#9a32cd" stroke="#9a32cd" points="390.367,-619.627 380.944,-624.47 391.331,-626.561 390.367,-619.627"/>
<text text-anchor="middle" x="522" y="-685" font-family="Helvetica,sans-Serif" font-size="10.00"> myBalancedForcesMag</text>
<text text-anchor="middle" x="522" y="-674" font-family="Helvetica,sans-Serif" font-size="10.00">myVelocity</text>
<text text-anchor="middle" x="522" y="-663" font-family="Helvetica,sans-Serif" font-size="10.00">myAcceleration</text>
</g>
<!-- Node43 -->
<g id="node43" class="node"><title>Node43</title>
<g id="a_node43"><a xlink:href="../../dc/db5/classengine_1_1physics_1_1_physics_component.html" target="_top" xlink:title="engine.physics.PhysicsComponent">
<polygon fill="white" stroke="black" points="0,-624.5 0,-643.5 182,-643.5 182,-624.5 0,-624.5"/>
<text text-anchor="middle" x="91" y="-631.5" font-family="Helvetica,sans-Serif" font-size="10.00">engine.physics.PhysicsComponent</text>
</a>
</g>
</g>
<!-- Node43&#45;&gt;Node42 -->
<g id="edge47" class="edge"><title>Node43&#45;&gt;Node42</title>
<path fill="none" stroke="midnightblue" d="M192.403,-634C219.624,-634 248.228,-634 272.406,-634"/>
<polygon fill="midnightblue" stroke="midnightblue" points="192.05,-630.5 182.05,-634 192.05,-637.5 192.05,-630.5"/>
</g>
<!-- Node44&#45;&gt;Node24 -->
<g id="edge48" class="edge"><title>Node44&#45;&gt;Node24</title>
<path fill="none" stroke="#9a32cd" stroke-dasharray="5,2" d="M806.815,-900.87C857.621,-891.874 916.829,-872.089 952,-829 995.575,-775.616 923.797,-726.126 970,-675 973.383,-671.256 977.323,-668.162 981.62,-665.612"/>
<polygon fill="#9a32cd" stroke="#9a32cd" points="806.071,-897.445 796.776,-902.529 807.212,-904.352 806.071,-897.445"/>
<text text-anchor="middle" x="897" y="-895" font-family="Helvetica,sans-Serif" font-size="10.00"> myDefaultData</text>
</g>
</g>
</svg>
