<?xml version="1.0" encoding="UTF-8" standalone="no"?>
<!DOCTYPE svg PUBLIC "-//W3C//DTD SVG 1.1//EN"
 "http://www.w3.org/Graphics/SVG/1.1/DTD/svg11.dtd">
<!-- Generated by graphviz version 2.36.0 (20140111.2315)
 -->
<!-- Title: authoring.eventhandlers.SaveAsNewHandler Pages: 1 -->
<svg width="1664pt" height="916pt"
 viewBox="0.00 0.00 1664.00 916.00" xmlns="http://www.w3.org/2000/svg" xmlns:xlink="http://www.w3.org/1999/xlink">
<g id="graph0" class="graph" transform="scale(1 1) rotate(0) translate(4 912)">
<title>authoring.eventhandlers.SaveAsNewHandler</title>
<polygon fill="white" stroke="none" points="-4,4 -4,-912 1660,-912 1660,4 -4,4"/>
<!-- Node1 -->
<g id="node1" class="node"><title>Node1</title>
<polygon fill="#bfbfbf" stroke="black" points="1518.5,-762 1518.5,-792 1655.5,-792 1655.5,-762 1518.5,-762"/>
<text text-anchor="start" x="1526.5" y="-780" font-family="Helvetica,sans-Serif" font-size="10.00">authoring.eventhandlers.</text>
<text text-anchor="middle" x="1587" y="-769" font-family="Helvetica,sans-Serif" font-size="10.00">SaveAsNewHandler</text>
</g>
<!-- Node2 -->
<g id="node2" class="node"><title>Node2</title>
<g id="a_node2"><a xlink:href="../../d3/d6a/interfaceauthoring_1_1eventhandlers_1_1_game_handler.html" target="_top" xlink:title="authoring.eventhandlers.\lGameHandler\&lt; Event \&gt;">
<polygon fill="white" stroke="black" points="1283.5,-878 1283.5,-908 1420.5,-908 1420.5,-878 1283.5,-878"/>
<text text-anchor="start" x="1291.5" y="-896" font-family="Helvetica,sans-Serif" font-size="10.00">authoring.eventhandlers.</text>
<text text-anchor="middle" x="1352" y="-885" font-family="Helvetica,sans-Serif" font-size="10.00">GameHandler&lt; Event &gt;</text>
</a>
</g>
</g>
<!-- Node2&#45;&gt;Node1 -->
<g id="edge1" class="edge"><title>Node2&#45;&gt;Node1</title>
<path fill="none" stroke="midnightblue" d="M1430.44,-885.18C1453.77,-880.622 1478.8,-873.41 1500,-862 1532.17,-844.69 1560.34,-811.643 1575.08,-792.248"/>
<polygon fill="midnightblue" stroke="midnightblue" points="1429.77,-881.744 1420.56,-886.975 1431.02,-888.631 1429.77,-881.744"/>
</g>
<!-- Node3 -->
<g id="node3" class="node"><title>Node3</title>
<g id="a_node3"><a xlink:href="../../d0/d7f/classengine_1_1game_object_1_1_game_object.html" target="_top" xlink:title="engine.gameObject.GameObject">
<polygon fill="white" stroke="black" points="928.5,-254.5 928.5,-273.5 1101.5,-273.5 1101.5,-254.5 928.5,-254.5"/>
<text text-anchor="middle" x="1015" y="-261.5" font-family="Helvetica,sans-Serif" font-size="10.00">engine.gameObject.GameObject</text>
</a>
</g>
</g>
<!-- Node3&#45;&gt;Node1 -->
<g id="edge2" class="edge"><title>Node3&#45;&gt;Node1</title>
<path fill="none" stroke="#9a32cd" stroke-dasharray="5,2" d="M1052.55,-277.275C1101.64,-296.228 1190.06,-334.423 1254,-385 1406.49,-505.613 1540.02,-705.069 1576.31,-761.625"/>
<polygon fill="#9a32cd" stroke="#9a32cd" points="1053.58,-273.921 1042.99,-273.633 1051.09,-280.463 1053.58,-273.921"/>
<text text-anchor="middle" x="1352" y="-565" font-family="Helvetica,sans-Serif" font-size="10.00"> myNewGameObject</text>
</g>
<!-- Node24 -->
<g id="node24" class="node"><title>Node24</title>
<g id="a_node24"><a xlink:href="../../d4/d9e/classauthoring_1_1view_1_1propertiesview_1_1_properties_view.html" target="_top" xlink:title="authoring.view.propertiesview.\lPropertiesView">
<polygon fill="white" stroke="black" points="1272.5,-633 1272.5,-663 1431.5,-663 1431.5,-633 1272.5,-633"/>
<text text-anchor="start" x="1280.5" y="-651" font-family="Helvetica,sans-Serif" font-size="10.00">authoring.view.propertiesview.</text>
<text text-anchor="middle" x="1352" y="-640" font-family="Helvetica,sans-Serif" font-size="10.00">PropertiesView</text>
</a>
</g>
</g>
<!-- Node3&#45;&gt;Node24 -->
<g id="edge40" class="edge"><title>Node3&#45;&gt;Node24</title>
<path fill="none" stroke="#9a32cd" stroke-dasharray="5,2" d="M1031.38,-281.625C1088.02,-346.558 1284.53,-571.803 1337.66,-632.713"/>
<polygon fill="#9a32cd" stroke="#9a32cd" points="1033.83,-279.113 1024.62,-273.878 1028.55,-283.714 1033.83,-279.113"/>
<text text-anchor="middle" x="1187" y="-538" font-family="Helvetica,sans-Serif" font-size="10.00"> myCurrentGameObject</text>
</g>
<!-- Node4 -->
<g id="node4" class="node"><title>Node4</title>
<g id="a_node4"><a xlink:href="../../d7/de6/interfaceengine_1_1game_object_1_1_i_enabled.html" target="_top" xlink:title="engine.gameObject.IEnabled">
<polygon fill="white" stroke="black" points="613,-188.5 613,-207.5 767,-207.5 767,-188.5 613,-188.5"/>
<text text-anchor="middle" x="690" y="-195.5" font-family="Helvetica,sans-Serif" font-size="10.00">engine.gameObject.IEnabled</text>
</a>
</g>
</g>
<!-- Node4&#45;&gt;Node3 -->
<g id="edge3" class="edge"><title>Node4&#45;&gt;Node3</title>
<path fill="none" stroke="midnightblue" d="M749.283,-209.542C793.427,-218.325 855.559,-230.773 910,-242 929.521,-246.026 951.081,-250.57 969.485,-254.479"/>
<polygon fill="midnightblue" stroke="midnightblue" points="749.797,-206.076 739.307,-207.559 748.432,-212.941 749.797,-206.076"/>
</g>
<!-- Node5 -->
<g id="node5" class="node"><title>Node5</title>
<polygon fill="white" stroke="#bfbfbf" points="624.5,-150.5 624.5,-169.5 755.5,-169.5 755.5,-150.5 624.5,-150.5"/>
<text text-anchor="middle" x="690" y="-157.5" font-family="Helvetica,sans-Serif" font-size="10.00">Iterable&lt; Component &gt;</text>
</g>
<!-- Node5&#45;&gt;Node3 -->
<g id="edge4" class="edge"><title>Node5&#45;&gt;Node3</title>
<path fill="none" stroke="midnightblue" d="M750.309,-171.642C760.898,-173.931 771.801,-176.426 782,-179 839.539,-193.521 854.389,-196.288 910,-217 940.266,-228.272 974.152,-244.244 994.779,-254.361"/>
<polygon fill="midnightblue" stroke="midnightblue" points="750.796,-168.168 740.287,-169.515 749.342,-175.015 750.796,-168.168"/>
</g>
<!-- Node6 -->
<g id="node6" class="node"><title>Node6</title>
<g id="a_node6"><a xlink:href="../../dc/df6/interfaceengine_1_1game_object_1_1_identifiable.html" target="_top" xlink:title="engine.gameObject.Identifiable">
<polygon fill="white" stroke="black" points="607.5,-112.5 607.5,-131.5 772.5,-131.5 772.5,-112.5 607.5,-112.5"/>
<text text-anchor="middle" x="690" y="-119.5" font-family="Helvetica,sans-Serif" font-size="10.00">engine.gameObject.Identifiable</text>
</a>
</g>
</g>
<!-- Node6&#45;&gt;Node3 -->
<g id="edge5" class="edge"><title>Node6&#45;&gt;Node3</title>
<path fill="none" stroke="midnightblue" d="M768.064,-133.493C811.542,-142.118 865.835,-156.58 910,-180 948.959,-200.659 987.376,-236.923 1004.6,-254.249"/>
<polygon fill="midnightblue" stroke="midnightblue" points="768.591,-130.03 758.111,-131.582 767.271,-136.905 768.591,-130.03"/>
</g>
<!-- Node7 -->
<g id="node7" class="node"><title>Node7</title>
<g id="a_node7"><a xlink:href="../../d4/dac/classengine_1_1game_object_1_1_identifier.html" target="_top" xlink:title="engine.gameObject.Identifier">
<polygon fill="white" stroke="black" points="612.5,-356.5 612.5,-375.5 767.5,-375.5 767.5,-356.5 612.5,-356.5"/>
<text text-anchor="middle" x="690" y="-363.5" font-family="Helvetica,sans-Serif" font-size="10.00">engine.gameObject.Identifier</text>
</a>
</g>
</g>
<!-- Node7&#45;&gt;Node3 -->
<g id="edge6" class="edge"><title>Node7&#45;&gt;Node3</title>
<path fill="none" stroke="#9a32cd" stroke-dasharray="5,2" d="M777.511,-360.47C818.68,-355.771 867.974,-347.078 910,-331 946.911,-316.879 984.489,-288.445 1002.71,-273.567"/>
<polygon fill="#9a32cd" stroke="#9a32cd" points="777.067,-356.997 767.502,-361.553 777.82,-363.957 777.067,-356.997"/>
<text text-anchor="middle" x="855" y="-360" font-family="Helvetica,sans-Serif" font-size="10.00"> myId</text>
</g>
<!-- Node8 -->
<g id="node8" class="node"><title>Node8</title>
<polygon fill="white" stroke="#bfbfbf" points="305,-391.5 305,-410.5 361,-410.5 361,-391.5 305,-391.5"/>
<text text-anchor="middle" x="333" y="-398.5" font-family="Helvetica,sans-Serif" font-size="10.00">Random</text>
</g>
<!-- Node8&#45;&gt;Node7 -->
<g id="edge7" class="edge"><title>Node8&#45;&gt;Node7</title>
<path fill="none" stroke="#9a32cd" stroke-dasharray="5,2" d="M371.289,-397.706C419.5,-393.402 506.052,-385.527 580,-378 590.512,-376.93 601.589,-375.76 612.492,-374.584"/>
<polygon fill="#9a32cd" stroke="#9a32cd" points="370.966,-394.22 361.316,-398.594 371.587,-401.193 370.966,-394.22"/>
<text text-anchor="middle" x="522" y="-393" font-family="Helvetica,sans-Serif" font-size="10.00"> r</text>
</g>
<!-- Node9 -->
<g id="node9" class="node"><title>Node9</title>
<polygon fill="white" stroke="#bfbfbf" points="231,-225 231,-255 435,-255 435,-225 231,-225"/>
<text text-anchor="start" x="239" y="-243" font-family="Helvetica,sans-Serif" font-size="10.00">List&lt; engine.gameObject.components.</text>
<text text-anchor="middle" x="333" y="-232" font-family="Helvetica,sans-Serif" font-size="10.00">Component &gt;</text>
</g>
<!-- Node9&#45;&gt;Node3 -->
<g id="edge8" class="edge"><title>Node9&#45;&gt;Node3</title>
<path fill="none" stroke="#9a32cd" stroke-dasharray="5,2" d="M445.173,-246.856C451.543,-247.244 457.853,-247.628 464,-248 662.059,-259.989 711.615,-271.814 910,-268 915.962,-267.885 922.114,-267.734 928.31,-267.557"/>
<polygon fill="#9a32cd" stroke="#9a32cd" points="445.325,-243.359 435.13,-246.243 444.898,-250.346 445.325,-243.359"/>
<text text-anchor="middle" x="690" y="-272" font-family="Helvetica,sans-Serif" font-size="10.00"> myComponents</text>
</g>
<!-- Node21 -->
<g id="node21" class="node"><title>Node21</title>
<g id="a_node21"><a xlink:href="../../d6/d66/classengine_1_1game_object_1_1_default_data.html" target="_top" xlink:title="engine.gameObject.DefaultData">
<polygon fill="white" stroke="black" points="604.5,-226.5 604.5,-245.5 775.5,-245.5 775.5,-226.5 604.5,-226.5"/>
<text text-anchor="middle" x="690" y="-233.5" font-family="Helvetica,sans-Serif" font-size="10.00">engine.gameObject.DefaultData</text>
</a>
</g>
</g>
<!-- Node9&#45;&gt;Node21 -->
<g id="edge21" class="edge"><title>Node9&#45;&gt;Node21</title>
<path fill="none" stroke="#9a32cd" stroke-dasharray="5,2" d="M445.171,-237.297C451.541,-237.185 457.852,-237.085 464,-237 510.383,-236.362 562.149,-236.101 604.323,-236.004"/>
<polygon fill="#9a32cd" stroke="#9a32cd" points="445.062,-233.799 435.128,-237.482 445.191,-240.797 445.062,-233.799"/>
<text text-anchor="middle" x="522" y="-240" font-family="Helvetica,sans-Serif" font-size="10.00"> myComponents</text>
</g>
<!-- Node10 -->
<g id="node10" class="node"><title>Node10</title>
<g id="a_node10"><a xlink:href="../../d2/d82/classengine_1_1render_1_1_rendered_node.html" target="_top" xlink:title="engine.render.RenderedNode">
<polygon fill="white" stroke="black" points="612,-318.5 612,-337.5 768,-337.5 768,-318.5 612,-318.5"/>
<text text-anchor="middle" x="690" y="-325.5" font-family="Helvetica,sans-Serif" font-size="10.00">engine.render.RenderedNode</text>
</a>
</g>
</g>
<!-- Node10&#45;&gt;Node3 -->
<g id="edge9" class="edge"><title>Node10&#45;&gt;Node3</title>
<path fill="none" stroke="#9a32cd" stroke-dasharray="5,2" d="M778.134,-318.386C818.514,-313.136 866.979,-305.701 910,-296 936.537,-290.016 966.126,-280.639 986.937,-273.579"/>
<polygon fill="#9a32cd" stroke="#9a32cd" points="777.526,-314.935 768.05,-319.674 778.413,-321.879 777.526,-314.935"/>
<text text-anchor="middle" x="855" y="-319" font-family="Helvetica,sans-Serif" font-size="10.00"> myRenderedNode</text>
</g>
<!-- Node11 -->
<g id="node11" class="node"><title>Node11</title>
<polygon fill="white" stroke="#bfbfbf" points="310,-469.5 310,-488.5 356,-488.5 356,-469.5 310,-469.5"/>
<text text-anchor="middle" x="333" y="-476.5" font-family="Helvetica,sans-Serif" font-size="10.00">Group</text>
</g>
<!-- Node11&#45;&gt;Node10 -->
<g id="edge10" class="edge"><title>Node11&#45;&gt;Node10</title>
<path fill="none" stroke="midnightblue" d="M366.249,-474.628C388.836,-471.161 419.582,-465.625 446,-458 507.533,-440.24 536.46,-451.968 580,-405 598.349,-385.206 578.029,-365.157 598,-347 602.18,-343.2 606.917,-340.084 611.982,-337.536"/>
<polygon fill="midnightblue" stroke="midnightblue" points="365.56,-471.192 356.181,-476.12 366.586,-478.116 365.56,-471.192"/>
</g>
<!-- Node39 -->
<g id="node39" class="node"><title>Node39</title>
<g id="a_node39"><a xlink:href="../../d6/d32/classauthoring_1_1view_1_1wizards_1_1_wizard.html" target="_top" xlink:title="authoring.view.wizards.Wizard">
<polygon fill="white" stroke="black" points="611,-748.5 611,-767.5 769,-767.5 769,-748.5 611,-748.5"/>
<text text-anchor="middle" x="690" y="-755.5" font-family="Helvetica,sans-Serif" font-size="10.00">authoring.view.wizards.Wizard</text>
</a>
</g>
</g>
<!-- Node11&#45;&gt;Node39 -->
<g id="edge47" class="edge"><title>Node11&#45;&gt;Node39</title>
<path fill="none" stroke="#9a32cd" stroke-dasharray="5,2" d="M366.084,-475.719C425.781,-470.385 550.54,-463.122 580,-492 619.301,-530.525 561.759,-697.583 598,-739 601.72,-743.251 606.123,-746.695 610.954,-749.473"/>
<polygon fill="#9a32cd" stroke="#9a32cd" points="365.703,-472.239 356.07,-476.65 366.351,-479.209 365.703,-472.239"/>
<text text-anchor="middle" x="522" y="-495" font-family="Helvetica,sans-Serif" font-size="10.00"> myRoot</text>
</g>
<!-- Node12 -->
<g id="node12" class="node"><title>Node12</title>
<polygon fill="white" stroke="#bfbfbf" points="312,-277.5 312,-296.5 354,-296.5 354,-277.5 312,-277.5"/>
<text text-anchor="middle" x="333" y="-284.5" font-family="Helvetica,sans-Serif" font-size="10.00">Label</text>
</g>
<!-- Node12&#45;&gt;Node10 -->
<g id="edge11" class="edge"><title>Node12&#45;&gt;Node10</title>
<path fill="none" stroke="#9a32cd" stroke-dasharray="5,2" d="M364.117,-289.626C410.537,-293.771 502.338,-302.359 580,-312 595.374,-313.909 611.932,-316.211 627.385,-318.468"/>
<polygon fill="#9a32cd" stroke="#9a32cd" points="364.393,-286.137 354.123,-288.74 363.775,-293.109 364.393,-286.137"/>
<text text-anchor="middle" x="522" y="-315" font-family="Helvetica,sans-Serif" font-size="10.00"> myLabel</text>
</g>
<!-- Node13 -->
<g id="node13" class="node"><title>Node13</title>
<polygon fill="white" stroke="#bfbfbf" points="299,-353.5 299,-372.5 367,-372.5 367,-353.5 299,-353.5"/>
<text text-anchor="middle" x="333" y="-360.5" font-family="Helvetica,sans-Serif" font-size="10.00">ImageView</text>
</g>
<!-- Node13&#45;&gt;Node10 -->
<g id="edge12" class="edge"><title>Node13&#45;&gt;Node10</title>
<path fill="none" stroke="#9a32cd" stroke-dasharray="5,2" d="M377.321,-359.515C426.491,-355.469 509.078,-348.399 580,-341 590.33,-339.922 601.202,-338.714 611.917,-337.48"/>
<polygon fill="#9a32cd" stroke="#9a32cd" points="376.736,-356.051 367.055,-360.356 377.308,-363.028 376.736,-356.051"/>
<text text-anchor="middle" x="522" y="-355" font-family="Helvetica,sans-Serif" font-size="10.00"> myImageView</text>
</g>
<!-- Node14 -->
<g id="node14" class="node"><title>Node14</title>
<polygon fill="white" stroke="#bfbfbf" points="312,-315.5 312,-334.5 354,-334.5 354,-315.5 312,-315.5"/>
<text text-anchor="middle" x="333" y="-322.5" font-family="Helvetica,sans-Serif" font-size="10.00">Node</text>
</g>
<!-- Node14&#45;&gt;Node10 -->
<g id="edge13" class="edge"><title>Node14&#45;&gt;Node10</title>
<path fill="none" stroke="#9a32cd" stroke-dasharray="5,2" d="M364.115,-325.254C418.425,-325.713 534.334,-326.693 611.984,-327.349"/>
<polygon fill="#9a32cd" stroke="#9a32cd" points="364.133,-321.755 354.103,-325.17 364.074,-328.754 364.133,-321.755"/>
<text text-anchor="middle" x="522" y="-331" font-family="Helvetica,sans-Serif" font-size="10.00"> myCollisionBody</text>
</g>
<!-- Node15 -->
<g id="node15" class="node"><title>Node15</title>
<g id="a_node15"><a xlink:href="../../d9/d9d/classengine_1_1game_object_1_1components_1_1_physics_body.html" target="_top" xlink:title="engine.gameObject.components.\lPhysicsBody">
<polygon fill="white" stroke="black" points="602,-63 602,-93 778,-93 778,-63 602,-63"/>
<text text-anchor="start" x="610" y="-81" font-family="Helvetica,sans-Serif" font-size="10.00">engine.gameObject.components.</text>
<text text-anchor="middle" x="690" y="-70" font-family="Helvetica,sans-Serif" font-size="10.00">PhysicsBody</text>
</a>
</g>
</g>
<!-- Node15&#45;&gt;Node3 -->
<g id="edge14" class="edge"><title>Node15&#45;&gt;Node3</title>
<path fill="none" stroke="#9a32cd" stroke-dasharray="5,2" d="M788.353,-84.4825C828.515,-90.7832 873.984,-102.896 910,-126 962.27,-159.531 998.007,-229.064 1009.77,-254.453"/>
<polygon fill="#9a32cd" stroke="#9a32cd" points="788.668,-80.9914 778.266,-83.0028 787.652,-87.9172 788.668,-80.9914"/>
<text text-anchor="middle" x="855" y="-129" font-family="Helvetica,sans-Serif" font-size="10.00"> myPhysicsBody</text>
</g>
<!-- Node16 -->
<g id="node16" class="node"><title>Node16</title>
<polygon fill="white" stroke="#bfbfbf" points="255,-88 255,-118 411,-118 411,-88 255,-88"/>
<text text-anchor="start" x="263" y="-106" font-family="Helvetica,sans-Serif" font-size="10.00">Map&lt; String, engine.physics.</text>
<text text-anchor="middle" x="333" y="-95" font-family="Helvetica,sans-Serif" font-size="10.00">Scalar &gt;</text>
</g>
<!-- Node16&#45;&gt;Node15 -->
<g id="edge15" class="edge"><title>Node16&#45;&gt;Node15</title>
<path fill="none" stroke="#9a32cd" stroke-dasharray="5,2" d="M421.104,-96.8659C476.079,-92.9944 546.836,-88.0115 601.825,-84.1391"/>
<polygon fill="#9a32cd" stroke="#9a32cd" points="420.759,-93.3814 411.03,-97.5754 421.251,-100.364 420.759,-93.3814"/>
<text text-anchor="middle" x="522" y="-97" font-family="Helvetica,sans-Serif" font-size="10.00"> myConstants</text>
</g>
<!-- Node17 -->
<g id="node17" class="node"><title>Node17</title>
<polygon fill="white" stroke="#bfbfbf" points="255,-39 255,-69 411,-69 411,-39 255,-39"/>
<text text-anchor="start" x="263" y="-57" font-family="Helvetica,sans-Serif" font-size="10.00">Map&lt; String, engine.physics.</text>
<text text-anchor="middle" x="333" y="-46" font-family="Helvetica,sans-Serif" font-size="10.00">Force &gt;</text>
</g>
<!-- Node17&#45;&gt;Node15 -->
<g id="edge16" class="edge"><title>Node17&#45;&gt;Node15</title>
<path fill="none" stroke="#9a32cd" stroke-dasharray="5,2" d="M421.172,-59.4927C468.219,-62.5018 527.295,-66.3519 580,-70 587.098,-70.4913 594.456,-71.0104 601.845,-71.5385"/>
<polygon fill="#9a32cd" stroke="#9a32cd" points="421.22,-55.9888 411.018,-58.8443 420.774,-62.9745 421.22,-55.9888"/>
<text text-anchor="middle" x="522" y="-73" font-family="Helvetica,sans-Serif" font-size="10.00"> myActiveForces</text>
</g>
<!-- Node18 -->
<g id="node18" class="node"><title>Node18</title>
<polygon fill="white" stroke="#bfbfbf" points="249.5,-0.5 249.5,-19.5 416.5,-19.5 416.5,-0.5 249.5,-0.5"/>
<text text-anchor="middle" x="333" y="-7.5" font-family="Helvetica,sans-Serif" font-size="10.00">List&lt; engine.physics.Impulse &gt;</text>
</g>
<!-- Node18&#45;&gt;Node15 -->
<g id="edge17" class="edge"><title>Node18&#45;&gt;Node15</title>
<path fill="none" stroke="#9a32cd" stroke-dasharray="5,2" d="M420.511,-20.8784C467.863,-27.4551 527.431,-36.7449 580,-48 599.48,-52.1708 620.648,-57.7503 639.103,-62.9657"/>
<polygon fill="#9a32cd" stroke="#9a32cd" points="420.983,-17.4103 410.599,-19.5164 420.03,-24.3452 420.983,-17.4103"/>
<text text-anchor="middle" x="522" y="-51" font-family="Helvetica,sans-Serif" font-size="10.00"> myImpulses</text>
</g>
<!-- Node19 -->
<g id="node19" class="node"><title>Node19</title>
<g id="a_node19"><a xlink:href="../../d5/d1f/classengine_1_1physics_1_1_vector.html" target="_top" xlink:title="engine.physics.Vector">
<polygon fill="white" stroke="black" points="272.5,-137.5 272.5,-156.5 393.5,-156.5 393.5,-137.5 272.5,-137.5"/>
<text text-anchor="middle" x="333" y="-144.5" font-family="Helvetica,sans-Serif" font-size="10.00">engine.physics.Vector</text>
</a>
</g>
</g>
<!-- Node19&#45;&gt;Node15 -->
<g id="edge18" class="edge"><title>Node19&#45;&gt;Node15</title>
<path fill="none" stroke="#9a32cd" stroke-dasharray="5,2" d="M403.678,-139.414C453.27,-133.245 521.255,-123.221 580,-109 588.196,-107.016 589.931,-105.451 598,-103 609.13,-99.6187 621.087,-96.19 632.554,-93.0002"/>
<polygon fill="#9a32cd" stroke="#9a32cd" points="403.2,-135.946 393.699,-140.634 404.05,-142.895 403.2,-135.946"/>
<text text-anchor="middle" x="522" y="-156" font-family="Helvetica,sans-Serif" font-size="10.00"> myBalancedForcesMag</text>
<text text-anchor="middle" x="522" y="-145" font-family="Helvetica,sans-Serif" font-size="10.00">myVelocity</text>
<text text-anchor="middle" x="522" y="-134" font-family="Helvetica,sans-Serif" font-size="10.00">myAcceleration</text>
</g>
<!-- Node20 -->
<g id="node20" class="node"><title>Node20</title>
<g id="a_node20"><a xlink:href="../../dc/db5/classengine_1_1physics_1_1_physics_component.html" target="_top" xlink:title="engine.physics.PhysicsComponent">
<polygon fill="white" stroke="black" points="0,-137.5 0,-156.5 182,-156.5 182,-137.5 0,-137.5"/>
<text text-anchor="middle" x="91" y="-144.5" font-family="Helvetica,sans-Serif" font-size="10.00">engine.physics.PhysicsComponent</text>
</a>
</g>
</g>
<!-- Node20&#45;&gt;Node19 -->
<g id="edge19" class="edge"><title>Node20&#45;&gt;Node19</title>
<path fill="none" stroke="midnightblue" d="M192.403,-147C219.624,-147 248.228,-147 272.406,-147"/>
<polygon fill="midnightblue" stroke="midnightblue" points="192.05,-143.5 182.05,-147 192.05,-150.5 192.05,-143.5"/>
</g>
<!-- Node21&#45;&gt;Node3 -->
<g id="edge20" class="edge"><title>Node21&#45;&gt;Node3</title>
<path fill="none" stroke="#9a32cd" stroke-dasharray="5,2" d="M785.94,-244.23C831.014,-248.137 884.473,-252.772 928.3,-256.571"/>
<polygon fill="#9a32cd" stroke="#9a32cd" points="786.129,-240.733 775.864,-243.357 785.525,-247.707 786.129,-240.733"/>
<text text-anchor="middle" x="855" y="-258" font-family="Helvetica,sans-Serif" font-size="10.00"> myDefaultData</text>
</g>
<!-- Node22 -->
<g id="node22" class="node"><title>Node22</title>
<g id="a_node22"><a xlink:href="../../d1/d32/classauthoring_1_1model_1_1collections_1_1_game_objects_collection.html" target="_top" xlink:title="authoring.model.collections.\lGameObjectsCollection">
<polygon fill="white" stroke="black" points="939,-829 939,-859 1091,-859 1091,-829 939,-829"/>
<text text-anchor="start" x="947" y="-847" font-family="Helvetica,sans-Serif" font-size="10.00">authoring.model.collections.</text>
<text text-anchor="middle" x="1015" y="-836" font-family="Helvetica,sans-Serif" font-size="10.00">GameObjectsCollection</text>
</a>
</g>
</g>
<!-- Node22&#45;&gt;Node1 -->
<g id="edge22" class="edge"><title>Node22&#45;&gt;Node1</title>
<path fill="none" stroke="#9a32cd" stroke-dasharray="5,2" d="M1101.32,-843.038C1146.76,-841.865 1203.53,-839.347 1254,-834 1364.3,-822.315 1390.7,-810.862 1500,-792 1505.97,-790.969 1512.18,-789.894 1518.4,-788.814"/>
<polygon fill="#9a32cd" stroke="#9a32cd" points="1101.13,-839.542 1091.21,-843.282 1101.3,-846.54 1101.13,-839.542"/>
<text text-anchor="middle" x="1352" y="-834" font-family="Helvetica,sans-Serif" font-size="10.00"> myGameObjectCollection</text>
</g>
<!-- Node38 -->
<g id="node38" class="node"><title>Node38</title>
<g id="a_node38"><a xlink:href="../../d4/d64/classauthoring_1_1view_1_1wizards_1_1_name_wizard.html" target="_top" xlink:title="authoring.view.wizards.Name\lWizard">
<polygon fill="white" stroke="black" points="1274.5,-762 1274.5,-792 1429.5,-792 1429.5,-762 1274.5,-762"/>
<text text-anchor="start" x="1282.5" y="-780" font-family="Helvetica,sans-Serif" font-size="10.00">authoring.view.wizards.Name</text>
<text text-anchor="middle" x="1352" y="-769" font-family="Helvetica,sans-Serif" font-size="10.00">Wizard</text>
</a>
</g>
</g>
<!-- Node22&#45;&gt;Node38 -->
<g id="edge48" class="edge"><title>Node22&#45;&gt;Node38</title>
<path fill="none" stroke="#9a32cd" stroke-dasharray="5,2" d="M1099.24,-826.968C1106.26,-825.6 1113.25,-824.261 1120,-823 1179.4,-811.908 1194.79,-812.088 1254,-800 1265.79,-797.594 1278.32,-794.799 1290.33,-792.004"/>
<polygon fill="#9a32cd" stroke="#9a32cd" points="1098.1,-823.624 1088.96,-828.987 1099.45,-830.493 1098.1,-823.624"/>
<text text-anchor="middle" x="1187" y="-826" font-family="Helvetica,sans-Serif" font-size="10.00"> myCollection</text>
</g>
<!-- Node23 -->
<g id="node23" class="node"><title>Node23</title>
<g id="a_node23"><a xlink:href="../../d4/d3b/classauthoring_1_1model_1_1collections_1_1_general_collection.html" target="_top" xlink:title="authoring.model.collections.\lGeneralCollection\&lt; GameObject \&gt;">
<polygon fill="white" stroke="black" points="598.5,-829 598.5,-859 781.5,-859 781.5,-829 598.5,-829"/>
<text text-anchor="start" x="606.5" y="-847" font-family="Helvetica,sans-Serif" font-size="10.00">authoring.model.collections.</text>
<text text-anchor="middle" x="690" y="-836" font-family="Helvetica,sans-Serif" font-size="10.00">GeneralCollection&lt; GameObject &gt;</text>
</a>
</g>
</g>
<!-- Node23&#45;&gt;Node22 -->
<g id="edge23" class="edge"><title>Node23&#45;&gt;Node22</title>
<path fill="none" stroke="midnightblue" d="M791.841,-844C839.36,-844 895.076,-844 938.824,-844"/>
<polygon fill="midnightblue" stroke="midnightblue" points="791.833,-840.5 781.833,-844 791.833,-847.5 791.833,-840.5"/>
</g>
<!-- Node24&#45;&gt;Node1 -->
<g id="edge24" class="edge"><title>Node24&#45;&gt;Node1</title>
<path fill="none" stroke="#9a32cd" stroke-dasharray="5,2" d="M1389.07,-667.972C1435.89,-693.889 1516.54,-738.542 1558.63,-761.846"/>
<polygon fill="#9a32cd" stroke="#9a32cd" points="1390.63,-664.832 1380.18,-663.05 1387.24,-670.956 1390.63,-664.832"/>
<text text-anchor="middle" x="1475" y="-730" font-family="Helvetica,sans-Serif" font-size="10.00"> myProps</text>
</g>
<!-- Node25 -->
<g id="node25" class="node"><title>Node25</title>
<g id="a_node25"><a xlink:href="../../de/d93/classauthoring_1_1view_1_1baseclasses_1_1_collection_view.html" target="_top" xlink:title="authoring.view.baseclasses.\lCollectionView">
<polygon fill="white" stroke="black" points="940.5,-665 940.5,-695 1089.5,-695 1089.5,-665 940.5,-665"/>
<text text-anchor="start" x="948.5" y="-683" font-family="Helvetica,sans-Serif" font-size="10.00">authoring.view.baseclasses.</text>
<text text-anchor="middle" x="1015" y="-672" font-family="Helvetica,sans-Serif" font-size="10.00">CollectionView</text>
</a>
</g>
</g>
<!-- Node25&#45;&gt;Node24 -->
<g id="edge25" class="edge"><title>Node25&#45;&gt;Node24</title>
<path fill="none" stroke="midnightblue" d="M1099.55,-672.019C1152.47,-666.964 1220.46,-660.469 1272.4,-655.508"/>
<polygon fill="midnightblue" stroke="midnightblue" points="1099.14,-668.542 1089.52,-672.977 1099.8,-675.511 1099.14,-668.542"/>
</g>
<!-- Node26 -->
<g id="node26" class="node"><title>Node26</title>
<polygon fill="white" stroke="#bfbfbf" points="657,-672.5 657,-691.5 723,-691.5 723,-672.5 657,-672.5"/>
<text text-anchor="middle" x="690" y="-679.5" font-family="Helvetica,sans-Serif" font-size="10.00">ScrollPane</text>
</g>
<!-- Node26&#45;&gt;Node25 -->
<g id="edge26" class="edge"><title>Node26&#45;&gt;Node25</title>
<path fill="none" stroke="midnightblue" d="M733.451,-681.737C785.988,-681.412 876.327,-680.852 940.283,-680.456"/>
<polygon fill="midnightblue" stroke="midnightblue" points="733.129,-678.239 723.151,-681.801 733.173,-685.239 733.129,-678.239"/>
</g>
<!-- Node27 -->
<g id="node27" class="node"><title>Node27</title>
<polygon fill="white" stroke="#bfbfbf" points="643.5,-710.5 643.5,-729.5 736.5,-729.5 736.5,-710.5 643.5,-710.5"/>
<text text-anchor="middle" x="690" y="-717.5" font-family="Helvetica,sans-Serif" font-size="10.00">ResourceBundle</text>
</g>
<!-- Node27&#45;&gt;Node25 -->
<g id="edge27" class="edge"><title>Node27&#45;&gt;Node25</title>
<path fill="none" stroke="#9a32cd" stroke-dasharray="5,2" d="M746.73,-713.627C791.008,-708.505 854.498,-701.03 910,-694 919.85,-692.752 930.22,-691.401 940.442,-690.048"/>
<polygon fill="#9a32cd" stroke="#9a32cd" points="746.278,-710.156 736.745,-714.78 747.081,-717.11 746.278,-710.156"/>
<text text-anchor="middle" x="855" y="-710" font-family="Helvetica,sans-Serif" font-size="10.00"> myLanguage</text>
</g>
<!-- Node28 -->
<g id="node28" class="node"><title>Node28</title>
<g id="a_node28"><a xlink:href="../../d3/d6a/interfaceauthoring_1_1eventhandlers_1_1_game_handler.html" target="_top" xlink:title="authoring.eventhandlers.\lGameHandler\&lt; T extends\l Event \&gt;">
<polygon fill="white" stroke="black" points="619.5,-612.5 619.5,-653.5 760.5,-653.5 760.5,-612.5 619.5,-612.5"/>
<text text-anchor="start" x="627.5" y="-641.5" font-family="Helvetica,sans-Serif" font-size="10.00">authoring.eventhandlers.</text>
<text text-anchor="start" x="627.5" y="-630.5" font-family="Helvetica,sans-Serif" font-size="10.00">GameHandler&lt; T extends</text>
<text text-anchor="middle" x="690" y="-619.5" font-family="Helvetica,sans-Serif" font-size="10.00"> Event &gt;</text>
</a>
</g>
</g>
<!-- Node28&#45;&gt;Node24 -->
<g id="edge41" class="edge"><title>Node28&#45;&gt;Node24</title>
<path fill="none" stroke="#9a32cd" stroke-dasharray="5,2" d="M770.773,-634.813C898.133,-637.708 1145.91,-643.339 1272.47,-646.215"/>
<polygon fill="#9a32cd" stroke="#9a32cd" points="770.772,-631.312 760.695,-634.584 770.613,-638.31 770.772,-631.312"/>
<text text-anchor="middle" x="1015" y="-645" font-family="Helvetica,sans-Serif" font-size="10.00"> myButtonBehaviors</text>
</g>
<!-- Node28&#45;&gt;Node25 -->
<g id="edge28" class="edge"><title>Node28&#45;&gt;Node25</title>
<path fill="none" stroke="#9a32cd" stroke-dasharray="5,2" d="M770.838,-644.617C822.646,-652.156 889.669,-661.908 940.226,-669.265"/>
<polygon fill="#9a32cd" stroke="#9a32cd" points="771.088,-641.117 760.689,-643.14 770.08,-648.044 771.088,-641.117"/>
<text text-anchor="middle" x="855" y="-667" font-family="Helvetica,sans-Serif" font-size="10.00"> myIconEvents</text>
</g>
<!-- Node31 -->
<g id="node31" class="node"><title>Node31</title>
<g id="a_node31"><a xlink:href="../../da/d8d/classauthoring_1_1view_1_1propertiesview_1_1_game_object_properties.html" target="_top" xlink:title="authoring.view.propertiesview.\lGameObjectProperties">
<polygon fill="white" stroke="black" points="935.5,-513 935.5,-543 1094.5,-543 1094.5,-513 935.5,-513"/>
<text text-anchor="start" x="943.5" y="-531" font-family="Helvetica,sans-Serif" font-size="10.00">authoring.view.propertiesview.</text>
<text text-anchor="middle" x="1015" y="-520" font-family="Helvetica,sans-Serif" font-size="10.00">GameObjectProperties</text>
</a>
</g>
</g>
<!-- Node28&#45;&gt;Node31 -->
<g id="edge39" class="edge"><title>Node28&#45;&gt;Node31</title>
<path fill="none" stroke="#9a32cd" stroke-dasharray="5,2" d="M763.645,-608.074C770.014,-604.995 776.226,-601.636 782,-598 791.311,-592.136 790.247,-586.096 800,-581 844.268,-557.87 861.527,-570.041 910,-558 927.964,-553.538 947.501,-548.068 964.74,-543.027"/>
<polygon fill="#9a32cd" stroke="#9a32cd" points="761.868,-605.038 754.234,-612.384 764.783,-611.402 761.868,-605.038"/>
<text text-anchor="middle" x="855" y="-606" font-family="Helvetica,sans-Serif" font-size="10.00"> myDeleteHandler</text>
<text text-anchor="middle" x="855" y="-595" font-family="Helvetica,sans-Serif" font-size="10.00">mySaveAsNewHandler</text>
<text text-anchor="middle" x="855" y="-584" font-family="Helvetica,sans-Serif" font-size="10.00">myEditHandler</text>
</g>
<!-- Node29 -->
<g id="node29" class="node"><title>Node29</title>
<polygon fill="white" stroke="#bfbfbf" points="245,-623.5 245,-642.5 421,-642.5 421,-623.5 245,-623.5"/>
<text text-anchor="middle" x="333" y="-630.5" font-family="Helvetica,sans-Serif" font-size="10.00">javafx::event::EventHandler&lt; T &gt;</text>
</g>
<!-- Node29&#45;&gt;Node28 -->
<g id="edge29" class="edge"><title>Node29&#45;&gt;Node28</title>
<path fill="none" stroke="midnightblue" d="M431.467,-633C490.984,-633 565.686,-633 619.285,-633"/>
<polygon fill="midnightblue" stroke="midnightblue" points="431.297,-629.5 421.297,-633 431.297,-636.5 431.297,-629.5"/>
</g>
<!-- Node30 -->
<g id="node30" class="node"><title>Node30</title>
<polygon fill="white" stroke="#bfbfbf" points="312.5,-748.5 312.5,-767.5 353.5,-767.5 353.5,-748.5 312.5,-748.5"/>
<text text-anchor="middle" x="333" y="-755.5" font-family="Helvetica,sans-Serif" font-size="10.00">VBox</text>
</g>
<!-- Node30&#45;&gt;Node24 -->
<g id="edge30" class="edge"><title>Node30&#45;&gt;Node24</title>
<path fill="none" stroke="#9a32cd" stroke-dasharray="5,2" d="M363.853,-762.176C390.159,-765.68 429.546,-770.503 464,-773 523.426,-777.308 538.425,-776.111 598,-777 679.769,-778.22 700.228,-777.958 782,-777 838.901,-776.333 853.727,-782.455 910,-774 1067.09,-750.397 1101.45,-721.308 1254,-677 1269.36,-672.539 1286.06,-667.585 1301.2,-663.052"/>
<polygon fill="#9a32cd" stroke="#9a32cd" points="364.152,-758.684 353.773,-760.812 363.213,-765.621 364.152,-758.684"/>
<text text-anchor="middle" x="855" y="-781" font-family="Helvetica,sans-Serif" font-size="10.00"> myContents</text>
</g>
<!-- Node32 -->
<g id="node32" class="node"><title>Node32</title>
<g id="a_node32"><a xlink:href="../../de/d73/classauthoring_1_1view_1_1propertiesview_1_1_properties.html" target="_top" xlink:title="authoring.view.propertiesview.\lProperties">
<polygon fill="white" stroke="black" points="610.5,-483 610.5,-513 769.5,-513 769.5,-483 610.5,-483"/>
<text text-anchor="start" x="618.5" y="-501" font-family="Helvetica,sans-Serif" font-size="10.00">authoring.view.propertiesview.</text>
<text text-anchor="middle" x="690" y="-490" font-family="Helvetica,sans-Serif" font-size="10.00">Properties</text>
</a>
</g>
</g>
<!-- Node30&#45;&gt;Node32 -->
<g id="edge33" class="edge"><title>Node30&#45;&gt;Node32</title>
<path fill="none" stroke="midnightblue" d="M363.889,-757.932C416.654,-756.048 525.847,-743.894 580,-678 622.632,-626.125 555.473,-579.961 598,-528 602.952,-521.95 609.153,-517.11 615.977,-513.24"/>
<polygon fill="midnightblue" stroke="midnightblue" points="363.73,-754.435 353.823,-758.19 363.909,-761.433 363.73,-754.435"/>
</g>
<!-- Node30&#45;&gt;Node39 -->
<g id="edge45" class="edge"><title>Node30&#45;&gt;Node39</title>
<path fill="none" stroke="#9a32cd" stroke-dasharray="5,2" d="M363.834,-758C417.779,-758 533.148,-758 610.924,-758"/>
<polygon fill="#9a32cd" stroke="#9a32cd" points="363.592,-754.5 353.592,-758 363.592,-761.5 363.592,-754.5"/>
<text text-anchor="middle" x="522" y="-761" font-family="Helvetica,sans-Serif" font-size="10.00"> myWindow</text>
</g>
<!-- Node31&#45;&gt;Node24 -->
<g id="edge31" class="edge"><title>Node31&#45;&gt;Node24</title>
<path fill="none" stroke="#9a32cd" stroke-dasharray="5,2" d="M1080.27,-545.809C1128.61,-559.79 1196.18,-580.586 1254,-603 1277.02,-611.924 1302.3,-623.722 1321.28,-632.998"/>
<polygon fill="#9a32cd" stroke="#9a32cd" points="1081.14,-542.418 1070.57,-543.018 1079.21,-549.145 1081.14,-542.418"/>
<text text-anchor="middle" x="1187" y="-606" font-family="Helvetica,sans-Serif" font-size="10.00"> myGameObjectsProperties</text>
</g>
<!-- Node32&#45;&gt;Node31 -->
<g id="edge32" class="edge"><title>Node32&#45;&gt;Node31</title>
<path fill="none" stroke="midnightblue" d="M779.814,-506.249C828.503,-510.771 888.33,-516.328 935.326,-520.693"/>
<polygon fill="midnightblue" stroke="midnightblue" points="779.883,-502.74 769.602,-505.3 779.235,-509.71 779.883,-502.74"/>
</g>
<!-- Node33 -->
<g id="node33" class="node"><title>Node33</title>
<polygon fill="white" stroke="#bfbfbf" points="220.5,-509 220.5,-539 445.5,-539 445.5,-509 220.5,-509"/>
<text text-anchor="start" x="228.5" y="-527" font-family="Helvetica,sans-Serif" font-size="10.00">Map&lt; String, authoring.view.propertiesview.</text>
<text text-anchor="middle" x="333" y="-516" font-family="Helvetica,sans-Serif" font-size="10.00">PropertyField &gt;</text>
</g>
<!-- Node33&#45;&gt;Node32 -->
<g id="edge34" class="edge"><title>Node33&#45;&gt;Node32</title>
<path fill="none" stroke="#9a32cd" stroke-dasharray="5,2" d="M455.962,-515.068C507.07,-511.324 565.009,-507.081 610.33,-503.762"/>
<polygon fill="#9a32cd" stroke="#9a32cd" points="455.555,-511.588 445.837,-515.809 456.066,-518.569 455.555,-511.588"/>
<text text-anchor="middle" x="522" y="-518" font-family="Helvetica,sans-Serif" font-size="10.00"> myMap</text>
</g>
<!-- Node34 -->
<g id="node34" class="node"><title>Node34</title>
<polygon fill="white" stroke="#bfbfbf" points="619.5,-444.5 619.5,-463.5 760.5,-463.5 760.5,-444.5 619.5,-444.5"/>
<text text-anchor="middle" x="690" y="-451.5" font-family="Helvetica,sans-Serif" font-size="10.00">Map&lt; String, CheckBox &gt;</text>
</g>
<!-- Node34&#45;&gt;Node31 -->
<g id="edge35" class="edge"><title>Node34&#45;&gt;Node31</title>
<path fill="none" stroke="#9a32cd" stroke-dasharray="5,2" d="M766.174,-465.149C808.69,-472.097 862.657,-481.996 910,-494 930.807,-499.276 953.509,-506.518 972.378,-512.964"/>
<polygon fill="#9a32cd" stroke="#9a32cd" points="766.609,-461.674 756.179,-463.535 765.494,-468.584 766.609,-461.674"/>
<text text-anchor="middle" x="855" y="-497" font-family="Helvetica,sans-Serif" font-size="10.00"> booleanProperties</text>
</g>
<!-- Node35 -->
<g id="node35" class="node"><title>Node35</title>
<polygon fill="white" stroke="#bfbfbf" points="220.5,-566 220.5,-596 445.5,-596 445.5,-566 220.5,-566"/>
<text text-anchor="start" x="228.5" y="-584" font-family="Helvetica,sans-Serif" font-size="10.00">Map&lt; String, authoring.view.propertiesview.</text>
<text text-anchor="middle" x="333" y="-573" font-family="Helvetica,sans-Serif" font-size="10.00">PropertyTextField &gt;</text>
</g>
<!-- Node35&#45;&gt;Node31 -->
<g id="edge36" class="edge"><title>Node35&#45;&gt;Node31</title>
<path fill="none" stroke="#9a32cd" stroke-dasharray="5,2" d="M455.773,-570.628C500.492,-566.878 551.538,-562.667 598,-559 715.502,-549.726 851.736,-539.715 935.394,-533.652"/>
<polygon fill="#9a32cd" stroke="#9a32cd" points="455.411,-567.146 445.739,-571.47 455.997,-574.121 455.411,-567.146"/>
<text text-anchor="middle" x="690" y="-595" font-family="Helvetica,sans-Serif" font-size="10.00"> physicsProperties</text>
<text text-anchor="middle" x="690" y="-584" font-family="Helvetica,sans-Serif" font-size="10.00">wizardProperties</text>
<text text-anchor="middle" x="690" y="-573" font-family="Helvetica,sans-Serif" font-size="10.00">concreteTextProperties</text>
<text text-anchor="middle" x="690" y="-562" font-family="Helvetica,sans-Serif" font-size="10.00">inherentTextProperties</text>
</g>
<!-- Node35&#45;&gt;Node39 -->
<g id="edge46" class="edge"><title>Node35&#45;&gt;Node39</title>
<path fill="none" stroke="#9a32cd" stroke-dasharray="5,2" d="M410.845,-599.161C422.936,-603.28 435.047,-608.195 446,-614 523.281,-654.961 519.13,-701.189 598,-739 606.15,-742.907 615.089,-746.014 624.081,-748.484"/>
<polygon fill="#9a32cd" stroke="#9a32cd" points="411.768,-595.781 401.176,-596.027 409.609,-602.44 411.768,-595.781"/>
<text text-anchor="middle" x="522" y="-730" font-family="Helvetica,sans-Serif" font-size="10.00"> myMap</text>
</g>
<!-- Node36 -->
<g id="node36" class="node"><title>Node36</title>
<g id="a_node36"><a xlink:href="../../dd/db2/classauthoring_1_1view_1_1baseclasses_1_1_accordion_container.html" target="_top" xlink:title="authoring.view.baseclasses.\lAccordionContainer">
<polygon fill="white" stroke="black" points="615.5,-395 615.5,-425 764.5,-425 764.5,-395 615.5,-395"/>
<text text-anchor="start" x="623.5" y="-413" font-family="Helvetica,sans-Serif" font-size="10.00">authoring.view.baseclasses.</text>
<text text-anchor="middle" x="690" y="-402" font-family="Helvetica,sans-Serif" font-size="10.00">AccordionContainer</text>
</a>
</g>
</g>
<!-- Node36&#45;&gt;Node31 -->
<g id="edge37" class="edge"><title>Node36&#45;&gt;Node31</title>
<path fill="none" stroke="#9a32cd" stroke-dasharray="5,2" d="M774.559,-420.145C816.409,-427.149 867.155,-438.622 910,-457 943.151,-471.22 976.772,-496.604 996.486,-512.854"/>
<polygon fill="#9a32cd" stroke="#9a32cd" points="775.105,-416.688 764.674,-418.545 773.986,-423.598 775.105,-416.688"/>
<text text-anchor="middle" x="855" y="-460" font-family="Helvetica,sans-Serif" font-size="10.00"> myAccordion</text>
</g>
<!-- Node37 -->
<g id="node37" class="node"><title>Node37</title>
<polygon fill="white" stroke="#bfbfbf" points="301,-429.5 301,-448.5 365,-448.5 365,-429.5 301,-429.5"/>
<text text-anchor="middle" x="333" y="-436.5" font-family="Helvetica,sans-Serif" font-size="10.00">Accordion</text>
</g>
<!-- Node37&#45;&gt;Node36 -->
<g id="edge38" class="edge"><title>Node37&#45;&gt;Node36</title>
<path fill="none" stroke="midnightblue" d="M375.215,-435.633C433.96,-430.834 542.697,-421.952 615.453,-416.008"/>
<polygon fill="midnightblue" stroke="midnightblue" points="374.875,-432.149 365.193,-436.452 375.445,-439.126 374.875,-432.149"/>
</g>
<!-- Node38&#45;&gt;Node1 -->
<g id="edge42" class="edge"><title>Node38&#45;&gt;Node1</title>
<path fill="none" stroke="#9a32cd" stroke-dasharray="5,2" d="M1439.83,-777C1465.78,-777 1493.83,-777 1518.36,-777"/>
<polygon fill="#9a32cd" stroke="#9a32cd" points="1439.62,-773.5 1429.62,-777 1439.62,-780.5 1439.62,-773.5"/>
<text text-anchor="middle" x="1475" y="-780" font-family="Helvetica,sans-Serif" font-size="10.00"> myWizard</text>
</g>
<!-- Node39&#45;&gt;Node38 -->
<g id="edge43" class="edge"><title>Node39&#45;&gt;Node38</title>
<path fill="none" stroke="midnightblue" d="M779.644,-760.552C909.988,-764.304 1151.19,-771.248 1274.33,-774.793"/>
<polygon fill="midnightblue" stroke="midnightblue" points="779.399,-757.043 769.302,-760.254 779.198,-764.041 779.399,-757.043"/>
</g>
<!-- Node40 -->
<g id="node40" class="node"><title>Node40</title>
<polygon fill="white" stroke="#bfbfbf" points="310.5,-811.5 310.5,-830.5 355.5,-830.5 355.5,-811.5 310.5,-811.5"/>
<text text-anchor="middle" x="333" y="-818.5" font-family="Helvetica,sans-Serif" font-size="10.00">Stage</text>
</g>
<!-- Node40&#45;&gt;Node39 -->
<g id="edge44" class="edge"><title>Node40&#45;&gt;Node39</title>
<path fill="none" stroke="midnightblue" d="M365.827,-815.352C426.723,-804.545 560.326,-780.835 635.282,-767.533"/>
<polygon fill="midnightblue" stroke="midnightblue" points="364.907,-811.96 355.672,-817.154 366.13,-818.853 364.907,-811.96"/>
</g>
</g>
</svg>
