<?xml version="1.0" encoding="UTF-8" standalone="no"?>
<!DOCTYPE svg PUBLIC "-//W3C//DTD SVG 1.1//EN"
 "http://www.w3.org/Graphics/SVG/1.1/DTD/svg11.dtd">
<!-- Generated by graphviz version 2.36.0 (20140111.2315)
 -->
<!-- Title: authoring.eventhandlers.GameObjectDragHandler Pages: 1 -->
<svg width="1756pt" height="967pt"
 viewBox="0.00 0.00 1756.00 966.77" xmlns="http://www.w3.org/2000/svg" xmlns:xlink="http://www.w3.org/1999/xlink">
<g id="graph0" class="graph" transform="scale(1 1) rotate(0) translate(4 962.773)">
<title>authoring.eventhandlers.GameObjectDragHandler</title>
<polygon fill="white" stroke="none" points="-4,4 -4,-962.773 1752,-962.773 1752,4 -4,4"/>
<!-- Node1 -->
<g id="node1" class="node"><title>Node1</title>
<polygon fill="#bfbfbf" stroke="black" points="1610.5,-835.773 1610.5,-865.773 1747.5,-865.773 1747.5,-835.773 1610.5,-835.773"/>
<text text-anchor="start" x="1618.5" y="-853.773" font-family="Helvetica,sans-Serif" font-size="10.00">authoring.eventhandlers.</text>
<text text-anchor="middle" x="1679" y="-842.773" font-family="Helvetica,sans-Serif" font-size="10.00">GameObjectDragHandler</text>
</g>
<!-- Node2 -->
<g id="node2" class="node"><title>Node2</title>
<g id="a_node2"><a xlink:href="../../d3/d6a/interfaceauthoring_1_1eventhandlers_1_1_game_handler.html" target="_top" xlink:title="authoring.eventhandlers.\lGameHandler\&lt; MouseEvent \&gt;">
<polygon fill="white" stroke="black" points="1314,-910.773 1314,-940.773 1478,-940.773 1478,-910.773 1314,-910.773"/>
<text text-anchor="start" x="1322" y="-928.773" font-family="Helvetica,sans-Serif" font-size="10.00">authoring.eventhandlers.</text>
<text text-anchor="middle" x="1396" y="-917.773" font-family="Helvetica,sans-Serif" font-size="10.00">GameHandler&lt; MouseEvent &gt;</text>
</a>
</g>
</g>
<!-- Node2&#45;&gt;Node1 -->
<g id="edge1" class="edge"><title>Node2&#45;&gt;Node1</title>
<path fill="none" stroke="midnightblue" d="M1487.47,-908.562C1520.61,-901.54 1558.25,-892.721 1592,-882.773 1608.35,-877.954 1626.06,-871.573 1641.13,-865.777"/>
<polygon fill="midnightblue" stroke="midnightblue" points="1486.4,-905.208 1477.33,-910.683 1487.84,-912.06 1486.4,-905.208"/>
</g>
<!-- Node3 -->
<g id="node3" class="node"><title>Node3</title>
<g id="a_node3"><a xlink:href="../../df/de5/classauthoring_1_1model_1_1collections_1_1_levels_collection.html" target="_top" xlink:title="authoring.model.collections.\lLevelsCollection">
<polygon fill="white" stroke="black" points="1320,-861.773 1320,-891.773 1472,-891.773 1472,-861.773 1320,-861.773"/>
<text text-anchor="start" x="1328" y="-879.773" font-family="Helvetica,sans-Serif" font-size="10.00">authoring.model.collections.</text>
<text text-anchor="middle" x="1396" y="-868.773" font-family="Helvetica,sans-Serif" font-size="10.00">LevelsCollection</text>
</a>
</g>
</g>
<!-- Node3&#45;&gt;Node1 -->
<g id="edge2" class="edge"><title>Node3&#45;&gt;Node1</title>
<path fill="none" stroke="#9a32cd" stroke-dasharray="5,2" d="M1482.28,-868.882C1523.28,-865.089 1571.74,-860.605 1610.18,-857.048"/>
<polygon fill="#9a32cd" stroke="#9a32cd" points="1481.94,-865.399 1472.3,-869.805 1482.58,-872.369 1481.94,-865.399"/>
<text text-anchor="middle" x="1544" y="-870.773" font-family="Helvetica,sans-Serif" font-size="10.00"> myLevelsCollection</text>
</g>
<!-- Node4 -->
<g id="node4" class="node"><title>Node4</title>
<g id="a_node4"><a xlink:href="../../d4/d3b/classauthoring_1_1model_1_1collections_1_1_general_collection.html" target="_top" xlink:title="authoring.model.collections.\lGeneralCollection\&lt; Level \&gt;">
<polygon fill="white" stroke="black" points="981,-927.773 981,-957.773 1133,-957.773 1133,-927.773 981,-927.773"/>
<text text-anchor="start" x="989" y="-945.773" font-family="Helvetica,sans-Serif" font-size="10.00">authoring.model.collections.</text>
<text text-anchor="middle" x="1057" y="-934.773" font-family="Helvetica,sans-Serif" font-size="10.00">GeneralCollection&lt; Level &gt;</text>
</a>
</g>
</g>
<!-- Node4&#45;&gt;Node3 -->
<g id="edge3" class="edge"><title>Node4&#45;&gt;Node3</title>
<path fill="none" stroke="midnightblue" d="M1143.3,-942.662C1189.82,-940.092 1247.62,-932.727 1296,-913.773 1305.19,-910.173 1305.14,-905.125 1314,-900.773 1320.84,-897.409 1328.25,-894.422 1335.71,-891.796"/>
<polygon fill="midnightblue" stroke="midnightblue" points="1143.07,-939.17 1133.25,-943.154 1143.41,-946.161 1143.07,-939.17"/>
</g>
<!-- Node5 -->
<g id="node5" class="node"><title>Node5</title>
<g id="a_node5"><a xlink:href="../../d4/d04/classauthoring_1_1view_1_1levelview_1_1_levels_view.html" target="_top" xlink:title="authoring.view.levelview.\lLevelsView">
<polygon fill="white" stroke="black" points="1330,-812.773 1330,-842.773 1462,-842.773 1462,-812.773 1330,-812.773"/>
<text text-anchor="start" x="1338" y="-830.773" font-family="Helvetica,sans-Serif" font-size="10.00">authoring.view.levelview.</text>
<text text-anchor="middle" x="1396" y="-819.773" font-family="Helvetica,sans-Serif" font-size="10.00">LevelsView</text>
</a>
</g>
</g>
<!-- Node5&#45;&gt;Node1 -->
<g id="edge4" class="edge"><title>Node5&#45;&gt;Node1</title>
<path fill="none" stroke="#9a32cd" stroke-dasharray="5,2" d="M1472.16,-829.22C1508.44,-830.434 1552.56,-832.667 1592,-836.773 1598.02,-837.4 1604.26,-838.172 1610.5,-839.03"/>
<polygon fill="#9a32cd" stroke="#9a32cd" points="1472.25,-825.721 1462.14,-828.904 1472.02,-832.717 1472.25,-825.721"/>
<text text-anchor="middle" x="1544" y="-839.773" font-family="Helvetica,sans-Serif" font-size="10.00"> myLevelView</text>
</g>
<!-- Node6 -->
<g id="node6" class="node"><title>Node6</title>
<g id="a_node6"><a xlink:href="../../d0/d3f/classauthoring_1_1view_1_1baseclasses_1_1_tab_view.html" target="_top" xlink:title="authoring.view.baseclasses.\lTabView">
<polygon fill="white" stroke="black" points="982.5,-839.773 982.5,-869.773 1131.5,-869.773 1131.5,-839.773 982.5,-839.773"/>
<text text-anchor="start" x="990.5" y="-857.773" font-family="Helvetica,sans-Serif" font-size="10.00">authoring.view.baseclasses.</text>
<text text-anchor="middle" x="1057" y="-846.773" font-family="Helvetica,sans-Serif" font-size="10.00">TabView</text>
</a>
</g>
</g>
<!-- Node6&#45;&gt;Node5 -->
<g id="edge5" class="edge"><title>Node6&#45;&gt;Node5</title>
<path fill="none" stroke="midnightblue" d="M1141.81,-848.058C1199.95,-843.4 1276.28,-837.284 1329.87,-832.991"/>
<polygon fill="midnightblue" stroke="midnightblue" points="1141.23,-844.594 1131.54,-848.881 1141.79,-851.571 1141.23,-844.594"/>
</g>
<!-- Node7 -->
<g id="node7" class="node"><title>Node7</title>
<polygon fill="white" stroke="#bfbfbf" points="683,-864.273 683,-883.273 739,-883.273 739,-864.273 683,-864.273"/>
<text text-anchor="middle" x="711" y="-871.273" font-family="Helvetica,sans-Serif" font-size="10.00">TabPane</text>
</g>
<!-- Node7&#45;&gt;Node6 -->
<g id="edge6" class="edge"><title>Node7&#45;&gt;Node6</title>
<path fill="none" stroke="midnightblue" d="M749.388,-871.708C805.002,-868.636 910.635,-862.802 982.184,-858.85"/>
<polygon fill="midnightblue" stroke="midnightblue" points="749.072,-868.22 739.281,-872.266 749.458,-875.209 749.072,-868.22"/>
</g>
<!-- Node8 -->
<g id="node8" class="node"><title>Node8</title>
<polygon fill="white" stroke="#bfbfbf" points="664.5,-818.273 664.5,-837.273 757.5,-837.273 757.5,-818.273 664.5,-818.273"/>
<text text-anchor="middle" x="711" y="-825.273" font-family="Helvetica,sans-Serif" font-size="10.00">ResourceBundle</text>
</g>
<!-- Node8&#45;&gt;Node6 -->
<g id="edge7" class="edge"><title>Node8&#45;&gt;Node6</title>
<path fill="none" stroke="#9a32cd" stroke-dasharray="5,2" d="M767.821,-832.154C826.206,-836.737 918.128,-843.952 982.411,-848.997"/>
<polygon fill="#9a32cd" stroke="#9a32cd" points="767.924,-828.652 757.681,-831.358 767.376,-835.63 767.924,-828.652"/>
<text text-anchor="middle" x="897" y="-849.773" font-family="Helvetica,sans-Serif" font-size="10.00"> myLanguage</text>
</g>
<!-- Node14 -->
<g id="node14" class="node"><title>Node14</title>
<g id="a_node14"><a xlink:href="../../de/d93/classauthoring_1_1view_1_1baseclasses_1_1_collection_view.html" target="_top" xlink:title="authoring.view.baseclasses.\lCollectionView">
<polygon fill="white" stroke="black" points="982.5,-751.773 982.5,-781.773 1131.5,-781.773 1131.5,-751.773 982.5,-751.773"/>
<text text-anchor="start" x="990.5" y="-769.773" font-family="Helvetica,sans-Serif" font-size="10.00">authoring.view.baseclasses.</text>
<text text-anchor="middle" x="1057" y="-758.773" font-family="Helvetica,sans-Serif" font-size="10.00">CollectionView</text>
</a>
</g>
</g>
<!-- Node8&#45;&gt;Node14 -->
<g id="edge15" class="edge"><title>Node8&#45;&gt;Node14</title>
<path fill="none" stroke="#9a32cd" stroke-dasharray="5,2" d="M767.662,-819.047C816.365,-811.281 888.977,-799.384 952,-787.773 962.144,-785.904 972.827,-783.848 983.327,-781.776"/>
<polygon fill="#9a32cd" stroke="#9a32cd" points="766.97,-815.613 757.644,-820.64 768.07,-822.526 766.97,-815.613"/>
<text text-anchor="middle" x="897" y="-809.773" font-family="Helvetica,sans-Serif" font-size="10.00"> myLanguage</text>
</g>
<!-- Node9 -->
<g id="node9" class="node"><title>Node9</title>
<g id="a_node9"><a xlink:href="../../d2/d4f/interfacedata_1_1_observer.html" target="_top" xlink:title="data.Observer">
<polygon fill="white" stroke="black" points="1014.5,-801.273 1014.5,-820.273 1099.5,-820.273 1099.5,-801.273 1014.5,-801.273"/>
<text text-anchor="middle" x="1057" y="-808.273" font-family="Helvetica,sans-Serif" font-size="10.00">data.Observer</text>
</a>
</g>
</g>
<!-- Node9&#45;&gt;Node5 -->
<g id="edge8" class="edge"><title>Node9&#45;&gt;Node5</title>
<path fill="none" stroke="midnightblue" d="M1109.88,-813.39C1168.97,-816.371 1265.6,-821.245 1329.74,-824.481"/>
<polygon fill="midnightblue" stroke="midnightblue" points="1109.82,-809.883 1099.66,-812.875 1109.47,-816.874 1109.82,-809.883"/>
</g>
<!-- Node10 -->
<g id="node10" class="node"><title>Node10</title>
<polygon fill="white" stroke="#bfbfbf" points="1041,-889.273 1041,-908.273 1073,-908.273 1073,-889.273 1041,-889.273"/>
<text text-anchor="middle" x="1057" y="-896.273" font-family="Helvetica,sans-Serif" font-size="10.00">File</text>
</g>
<!-- Node10&#45;&gt;Node5 -->
<g id="edge9" class="edge"><title>Node10&#45;&gt;Node5</title>
<path fill="none" stroke="#9a32cd" stroke-dasharray="5,2" d="M1083.13,-895.053C1126.73,-888.419 1219.06,-873.559 1296,-855.773 1312.18,-852.031 1329.68,-847.313 1345.39,-842.821"/>
<polygon fill="#9a32cd" stroke="#9a32cd" points="1082.51,-891.608 1073.14,-896.559 1083.55,-898.53 1082.51,-891.608"/>
<text text-anchor="middle" x="1229" y="-884.773" font-family="Helvetica,sans-Serif" font-size="10.00"> myGameLocation</text>
</g>
<!-- Node11 -->
<g id="node11" class="node"><title>Node11</title>
<g id="a_node11"><a xlink:href="../../d3/d6a/interfaceauthoring_1_1eventhandlers_1_1_game_handler.html" target="_top" xlink:title="authoring.eventhandlers.\lGameHandler\&lt; T extends\l Event \&gt;">
<polygon fill="white" stroke="black" points="640.5,-688.273 640.5,-729.273 781.5,-729.273 781.5,-688.273 640.5,-688.273"/>
<text text-anchor="start" x="648.5" y="-717.273" font-family="Helvetica,sans-Serif" font-size="10.00">authoring.eventhandlers.</text>
<text text-anchor="start" x="648.5" y="-706.273" font-family="Helvetica,sans-Serif" font-size="10.00">GameHandler&lt; T extends</text>
<text text-anchor="middle" x="711" y="-695.273" font-family="Helvetica,sans-Serif" font-size="10.00"> Event &gt;</text>
</a>
</g>
</g>
<!-- Node11&#45;&gt;Node5 -->
<g id="edge10" class="edge"><title>Node11&#45;&gt;Node5</title>
<path fill="none" stroke="#9a32cd" stroke-dasharray="5,2" d="M791.827,-705.333C879.275,-703.295 1023.18,-705.044 1144,-730.773 1227.39,-748.532 1319.44,-790.267 1365.43,-812.768"/>
<polygon fill="#9a32cd" stroke="#9a32cd" points="791.618,-701.837 781.711,-705.592 791.797,-708.835 791.618,-701.837"/>
<text text-anchor="middle" x="1057" y="-733.773" font-family="Helvetica,sans-Serif" font-size="10.00"> myEvents</text>
</g>
<!-- Node13 -->
<g id="node13" class="node"><title>Node13</title>
<g id="a_node13"><a xlink:href="../../d4/d9e/classauthoring_1_1view_1_1propertiesview_1_1_properties_view.html" target="_top" xlink:title="authoring.view.propertiesview.\lPropertiesView">
<polygon fill="white" stroke="black" points="1316.5,-621.773 1316.5,-651.773 1475.5,-651.773 1475.5,-621.773 1316.5,-621.773"/>
<text text-anchor="start" x="1324.5" y="-639.773" font-family="Helvetica,sans-Serif" font-size="10.00">authoring.view.propertiesview.</text>
<text text-anchor="middle" x="1396" y="-628.773" font-family="Helvetica,sans-Serif" font-size="10.00">PropertiesView</text>
</a>
</g>
</g>
<!-- Node11&#45;&gt;Node13 -->
<g id="edge47" class="edge"><title>Node11&#45;&gt;Node13</title>
<path fill="none" stroke="#9a32cd" stroke-dasharray="5,2" d="M791.591,-700.383C923.309,-686.497 1185.08,-658.902 1316.25,-645.075"/>
<polygon fill="#9a32cd" stroke="#9a32cd" points="791.143,-696.91 781.565,-701.44 791.877,-703.872 791.143,-696.91"/>
<text text-anchor="middle" x="1057" y="-684.773" font-family="Helvetica,sans-Serif" font-size="10.00"> myButtonBehaviors</text>
</g>
<!-- Node11&#45;&gt;Node14 -->
<g id="edge16" class="edge"><title>Node11&#45;&gt;Node14</title>
<path fill="none" stroke="#9a32cd" stroke-dasharray="5,2" d="M791.948,-723.858C808.483,-726.886 825.797,-729.991 842,-732.773 888.531,-740.763 940.87,-749.09 982.14,-755.504"/>
<polygon fill="#9a32cd" stroke="#9a32cd" points="792.239,-720.353 781.771,-721.986 790.973,-727.237 792.239,-720.353"/>
<text text-anchor="middle" x="897" y="-753.773" font-family="Helvetica,sans-Serif" font-size="10.00"> myIconEvents</text>
</g>
<!-- Node17 -->
<g id="node17" class="node"><title>Node17</title>
<g id="a_node17"><a xlink:href="../../da/d8d/classauthoring_1_1view_1_1propertiesview_1_1_game_object_properties.html" target="_top" xlink:title="authoring.view.propertiesview.\lGameObjectProperties">
<polygon fill="white" stroke="black" points="977.5,-551.773 977.5,-581.773 1136.5,-581.773 1136.5,-551.773 977.5,-551.773"/>
<text text-anchor="start" x="985.5" y="-569.773" font-family="Helvetica,sans-Serif" font-size="10.00">authoring.view.propertiesview.</text>
<text text-anchor="middle" x="1057" y="-558.773" font-family="Helvetica,sans-Serif" font-size="10.00">GameObjectProperties</text>
</a>
</g>
</g>
<!-- Node11&#45;&gt;Node17 -->
<g id="edge26" class="edge"><title>Node11&#45;&gt;Node17</title>
<path fill="none" stroke="#9a32cd" stroke-dasharray="5,2" d="M761.719,-683.708C785.592,-672.324 814.852,-659.305 842,-649.773 889.599,-633.061 904.927,-639.915 952,-621.773 980.397,-610.829 1010.97,-593.992 1031.56,-581.83"/>
<polygon fill="#9a32cd" stroke="#9a32cd" points="760.004,-680.65 752.515,-688.144 763.043,-686.956 760.004,-680.65"/>
<text text-anchor="middle" x="897" y="-674.773" font-family="Helvetica,sans-Serif" font-size="10.00"> myDeleteHandler</text>
<text text-anchor="middle" x="897" y="-663.773" font-family="Helvetica,sans-Serif" font-size="10.00">mySaveAsNewHandler</text>
<text text-anchor="middle" x="897" y="-652.773" font-family="Helvetica,sans-Serif" font-size="10.00">myEditHandler</text>
</g>
<!-- Node12 -->
<g id="node12" class="node"><title>Node12</title>
<polygon fill="white" stroke="#bfbfbf" points="245,-699.273 245,-718.273 421,-718.273 421,-699.273 245,-699.273"/>
<text text-anchor="middle" x="333" y="-706.273" font-family="Helvetica,sans-Serif" font-size="10.00">javafx::event::EventHandler&lt; T &gt;</text>
</g>
<!-- Node12&#45;&gt;Node11 -->
<g id="edge11" class="edge"><title>Node12&#45;&gt;Node11</title>
<path fill="none" stroke="midnightblue" d="M431.532,-708.773C496.932,-708.773 581.511,-708.773 640.213,-708.773"/>
<polygon fill="midnightblue" stroke="midnightblue" points="431.207,-705.273 421.207,-708.773 431.207,-712.273 431.207,-705.273"/>
</g>
<!-- Node13&#45;&gt;Node1 -->
<g id="edge12" class="edge"><title>Node13&#45;&gt;Node1</title>
<path fill="none" stroke="#9a32cd" stroke-dasharray="5,2" d="M1424.92,-658.034C1481.66,-701.244 1609.21,-798.386 1658.26,-835.742"/>
<polygon fill="#9a32cd" stroke="#9a32cd" points="1426.84,-655.095 1416.76,-651.821 1422.59,-660.664 1426.84,-655.095"/>
<text text-anchor="middle" x="1544" y="-784.773" font-family="Helvetica,sans-Serif" font-size="10.00"> myProperties</text>
</g>
<!-- Node14&#45;&gt;Node13 -->
<g id="edge13" class="edge"><title>Node14&#45;&gt;Node13</title>
<path fill="none" stroke="midnightblue" d="M1122.56,-748.798C1171.05,-734.538 1238.68,-713.02 1296,-688.773 1321.57,-677.957 1349.46,-662.999 1369.11,-651.902"/>
<polygon fill="midnightblue" stroke="midnightblue" points="1121.44,-745.479 1112.82,-751.64 1123.4,-752.198 1121.44,-745.479"/>
</g>
<!-- Node15 -->
<g id="node15" class="node"><title>Node15</title>
<polygon fill="white" stroke="#bfbfbf" points="678,-771.273 678,-790.273 744,-790.273 744,-771.273 678,-771.273"/>
<text text-anchor="middle" x="711" y="-778.273" font-family="Helvetica,sans-Serif" font-size="10.00">ScrollPane</text>
</g>
<!-- Node15&#45;&gt;Node14 -->
<g id="edge14" class="edge"><title>Node15&#45;&gt;Node14</title>
<path fill="none" stroke="midnightblue" d="M754.1,-779.06C810.813,-776.752 912.649,-772.607 982.227,-769.775"/>
<polygon fill="midnightblue" stroke="midnightblue" points="753.903,-775.565 744.054,-779.468 754.188,-782.559 753.903,-775.565"/>
</g>
<!-- Node16 -->
<g id="node16" class="node"><title>Node16</title>
<polygon fill="white" stroke="#bfbfbf" points="312.5,-446.273 312.5,-465.273 353.5,-465.273 353.5,-446.273 312.5,-446.273"/>
<text text-anchor="middle" x="333" y="-453.273" font-family="Helvetica,sans-Serif" font-size="10.00">VBox</text>
</g>
<!-- Node16&#45;&gt;Node13 -->
<g id="edge17" class="edge"><title>Node16&#45;&gt;Node13</title>
<path fill="none" stroke="#9a32cd" stroke-dasharray="5,2" d="M363.714,-455.325C412.584,-454.614 512.988,-453.256 598,-452.773 698.443,-452.202 723.857,-444.996 824,-452.773 1041.29,-469.647 1094.97,-501.596 1296,-585.773 1321.32,-596.377 1349.01,-610.908 1368.65,-621.748"/>
<polygon fill="#9a32cd" stroke="#9a32cd" points="363.487,-451.828 353.54,-455.475 363.59,-458.827 363.487,-451.828"/>
<text text-anchor="middle" x="897" y="-469.773" font-family="Helvetica,sans-Serif" font-size="10.00"> myContents</text>
</g>
<!-- Node18 -->
<g id="node18" class="node"><title>Node18</title>
<g id="a_node18"><a xlink:href="../../de/d73/classauthoring_1_1view_1_1propertiesview_1_1_properties.html" target="_top" xlink:title="authoring.view.propertiesview.\lProperties">
<polygon fill="white" stroke="black" points="631.5,-500.773 631.5,-530.773 790.5,-530.773 790.5,-500.773 631.5,-500.773"/>
<text text-anchor="start" x="639.5" y="-518.773" font-family="Helvetica,sans-Serif" font-size="10.00">authoring.view.propertiesview.</text>
<text text-anchor="middle" x="711" y="-507.773" font-family="Helvetica,sans-Serif" font-size="10.00">Properties</text>
</a>
</g>
</g>
<!-- Node16&#45;&gt;Node18 -->
<g id="edge20" class="edge"><title>Node16&#45;&gt;Node18</title>
<path fill="none" stroke="midnightblue" d="M363.866,-460.539C421.167,-469.683 548.224,-489.958 631.423,-503.234"/>
<polygon fill="midnightblue" stroke="midnightblue" points="364.113,-457.034 353.686,-458.914 363.009,-463.947 364.113,-457.034"/>
</g>
<!-- Node17&#45;&gt;Node13 -->
<g id="edge18" class="edge"><title>Node17&#45;&gt;Node13</title>
<path fill="none" stroke="#9a32cd" stroke-dasharray="5,2" d="M1140.14,-583.835C1195.9,-595.417 1268.94,-610.589 1322.53,-621.721"/>
<polygon fill="#9a32cd" stroke="#9a32cd" points="1140.8,-580.397 1130.29,-581.79 1139.37,-587.25 1140.8,-580.397"/>
<text text-anchor="middle" x="1229" y="-619.773" font-family="Helvetica,sans-Serif" font-size="10.00"> myGameObjectsProperties</text>
</g>
<!-- Node18&#45;&gt;Node17 -->
<g id="edge19" class="edge"><title>Node18&#45;&gt;Node17</title>
<path fill="none" stroke="midnightblue" d="M800.797,-523.31C846.204,-527.784 902.242,-534.262 952,-542.773 966.429,-545.241 981.857,-548.471 996.293,-551.759"/>
<polygon fill="midnightblue" stroke="midnightblue" points="800.976,-519.811 790.685,-522.329 800.3,-526.778 800.976,-519.811"/>
</g>
<!-- Node19 -->
<g id="node19" class="node"><title>Node19</title>
<polygon fill="white" stroke="#bfbfbf" points="220.5,-500.773 220.5,-530.773 445.5,-530.773 445.5,-500.773 220.5,-500.773"/>
<text text-anchor="start" x="228.5" y="-518.773" font-family="Helvetica,sans-Serif" font-size="10.00">Map&lt; String, authoring.view.propertiesview.</text>
<text text-anchor="middle" x="333" y="-507.773" font-family="Helvetica,sans-Serif" font-size="10.00">PropertyField &gt;</text>
</g>
<!-- Node19&#45;&gt;Node18 -->
<g id="edge21" class="edge"><title>Node19&#45;&gt;Node18</title>
<path fill="none" stroke="#9a32cd" stroke-dasharray="5,2" d="M455.808,-515.773C513.415,-515.773 580.528,-515.773 631.323,-515.773"/>
<polygon fill="#9a32cd" stroke="#9a32cd" points="455.54,-512.273 445.54,-515.773 455.54,-519.273 455.54,-512.273"/>
<text text-anchor="middle" x="522" y="-518.773" font-family="Helvetica,sans-Serif" font-size="10.00"> myMap</text>
</g>
<!-- Node20 -->
<g id="node20" class="node"><title>Node20</title>
<polygon fill="white" stroke="#bfbfbf" points="640.5,-462.273 640.5,-481.273 781.5,-481.273 781.5,-462.273 640.5,-462.273"/>
<text text-anchor="middle" x="711" y="-469.273" font-family="Helvetica,sans-Serif" font-size="10.00">Map&lt; String, CheckBox &gt;</text>
</g>
<!-- Node20&#45;&gt;Node17 -->
<g id="edge22" class="edge"><title>Node20&#45;&gt;Node17</title>
<path fill="none" stroke="#9a32cd" stroke-dasharray="5,2" d="M791.861,-479.608C839.277,-485.763 900.082,-496.305 952,-513.773 980.426,-523.337 1010.74,-539.557 1031.27,-551.54"/>
<polygon fill="#9a32cd" stroke="#9a32cd" points="792.007,-476.099 781.649,-478.324 791.134,-483.045 792.007,-476.099"/>
<text text-anchor="middle" x="897" y="-516.773" font-family="Helvetica,sans-Serif" font-size="10.00"> booleanProperties</text>
</g>
<!-- Node21 -->
<g id="node21" class="node"><title>Node21</title>
<polygon fill="white" stroke="#bfbfbf" points="598.5,-549.773 598.5,-579.773 823.5,-579.773 823.5,-549.773 598.5,-549.773"/>
<text text-anchor="start" x="606.5" y="-567.773" font-family="Helvetica,sans-Serif" font-size="10.00">Map&lt; String, authoring.view.propertiesview.</text>
<text text-anchor="middle" x="711" y="-556.773" font-family="Helvetica,sans-Serif" font-size="10.00">PropertyTextField &gt;</text>
</g>
<!-- Node21&#45;&gt;Node17 -->
<g id="edge23" class="edge"><title>Node21&#45;&gt;Node17</title>
<path fill="none" stroke="#9a32cd" stroke-dasharray="5,2" d="M833.742,-549.331C836.519,-549.127 839.275,-548.94 842,-548.773 890.797,-545.781 903.29,-544.589 952,-548.773 960.398,-549.494 969.136,-550.538 977.821,-551.764"/>
<polygon fill="#9a32cd" stroke="#9a32cd" points="833.297,-545.855 823.608,-550.141 833.855,-552.833 833.297,-545.855"/>
<text text-anchor="middle" x="897" y="-584.773" font-family="Helvetica,sans-Serif" font-size="10.00"> physicsProperties</text>
<text text-anchor="middle" x="897" y="-573.773" font-family="Helvetica,sans-Serif" font-size="10.00">wizardProperties</text>
<text text-anchor="middle" x="897" y="-562.773" font-family="Helvetica,sans-Serif" font-size="10.00">concreteTextProperties</text>
<text text-anchor="middle" x="897" y="-551.773" font-family="Helvetica,sans-Serif" font-size="10.00">inherentTextProperties</text>
</g>
<!-- Node22 -->
<g id="node22" class="node"><title>Node22</title>
<g id="a_node22"><a xlink:href="../../dd/db2/classauthoring_1_1view_1_1baseclasses_1_1_accordion_container.html" target="_top" xlink:title="authoring.view.baseclasses.\lAccordionContainer">
<polygon fill="white" stroke="black" points="636.5,-599.773 636.5,-629.773 785.5,-629.773 785.5,-599.773 636.5,-599.773"/>
<text text-anchor="start" x="644.5" y="-617.773" font-family="Helvetica,sans-Serif" font-size="10.00">authoring.view.baseclasses.</text>
<text text-anchor="middle" x="711" y="-606.773" font-family="Helvetica,sans-Serif" font-size="10.00">AccordionContainer</text>
</a>
</g>
</g>
<!-- Node22&#45;&gt;Node17 -->
<g id="edge24" class="edge"><title>Node22&#45;&gt;Node17</title>
<path fill="none" stroke="#9a32cd" stroke-dasharray="5,2" d="M795.63,-610.27C841.939,-606.985 900.406,-601.534 952,-592.773 968.605,-589.953 986.468,-585.878 1002.62,-581.787"/>
<polygon fill="#9a32cd" stroke="#9a32cd" points="795.376,-606.779 785.64,-610.959 795.858,-613.763 795.376,-606.779"/>
<text text-anchor="middle" x="897" y="-609.773" font-family="Helvetica,sans-Serif" font-size="10.00"> myAccordion</text>
</g>
<!-- Node23 -->
<g id="node23" class="node"><title>Node23</title>
<polygon fill="white" stroke="#bfbfbf" points="301,-605.273 301,-624.273 365,-624.273 365,-605.273 301,-605.273"/>
<text text-anchor="middle" x="333" y="-612.273" font-family="Helvetica,sans-Serif" font-size="10.00">Accordion</text>
</g>
<!-- Node23&#45;&gt;Node22 -->
<g id="edge25" class="edge"><title>Node23&#45;&gt;Node22</title>
<path fill="none" stroke="midnightblue" d="M375.39,-614.773C438.172,-614.773 558.396,-614.773 636.34,-614.773"/>
<polygon fill="midnightblue" stroke="midnightblue" points="375.09,-611.273 365.09,-614.773 375.09,-618.273 375.09,-611.273"/>
</g>
<!-- Node24 -->
<g id="node24" class="node"><title>Node24</title>
<g id="a_node24"><a xlink:href="../../d0/d7f/classengine_1_1game_object_1_1_game_object.html" target="_top" xlink:title="engine.gameObject.GameObject">
<polygon fill="white" stroke="black" points="970.5,-245.273 970.5,-264.273 1143.5,-264.273 1143.5,-245.273 970.5,-245.273"/>
<text text-anchor="middle" x="1057" y="-252.273" font-family="Helvetica,sans-Serif" font-size="10.00">engine.gameObject.GameObject</text>
</a>
</g>
</g>
<!-- Node24&#45;&gt;Node13 -->
<g id="edge27" class="edge"><title>Node24&#45;&gt;Node13</title>
<path fill="none" stroke="#9a32cd" stroke-dasharray="5,2" d="M1090.97,-268.507C1141.37,-290.996 1237.83,-340.137 1296,-408.773 1353.34,-476.424 1382.42,-582.383 1391.66,-621.554"/>
<polygon fill="#9a32cd" stroke="#9a32cd" points="1092.09,-265.178 1081.53,-264.367 1089.28,-271.589 1092.09,-265.178"/>
<text text-anchor="middle" x="1229" y="-411.773" font-family="Helvetica,sans-Serif" font-size="10.00"> myCurrentGameObject</text>
</g>
<!-- Node25 -->
<g id="node25" class="node"><title>Node25</title>
<g id="a_node25"><a xlink:href="../../d7/de6/interfaceengine_1_1game_object_1_1_i_enabled.html" target="_top" xlink:title="engine.gameObject.IEnabled">
<polygon fill="white" stroke="black" points="634,-121.273 634,-140.273 788,-140.273 788,-121.273 634,-121.273"/>
<text text-anchor="middle" x="711" y="-128.273" font-family="Helvetica,sans-Serif" font-size="10.00">engine.gameObject.IEnabled</text>
</a>
</g>
</g>
<!-- Node25&#45;&gt;Node24 -->
<g id="edge28" class="edge"><title>Node25&#45;&gt;Node24</title>
<path fill="none" stroke="midnightblue" d="M792.262,-142.203C803.014,-144.37 813.833,-146.883 824,-149.773 908.839,-173.89 1002.34,-224.185 1039.48,-245.211"/>
<polygon fill="midnightblue" stroke="midnightblue" points="792.908,-138.764 782.427,-140.31 791.585,-145.637 792.908,-138.764"/>
</g>
<!-- Node26 -->
<g id="node26" class="node"><title>Node26</title>
<polygon fill="white" stroke="#bfbfbf" points="645.5,-83.273 645.5,-102.273 776.5,-102.273 776.5,-83.273 645.5,-83.273"/>
<text text-anchor="middle" x="711" y="-90.273" font-family="Helvetica,sans-Serif" font-size="10.00">Iterable&lt; Component &gt;</text>
</g>
<!-- Node26&#45;&gt;Node24 -->
<g id="edge29" class="edge"><title>Node26&#45;&gt;Node24</title>
<path fill="none" stroke="midnightblue" d="M786.643,-99.9016C836.372,-107.319 901.597,-122.365 952,-152.773 994.659,-178.509 1033.25,-225.038 1048.77,-245.118"/>
<polygon fill="midnightblue" stroke="midnightblue" points="786.988,-96.4156 776.595,-98.4746 786.003,-103.346 786.988,-96.4156"/>
</g>
<!-- Node27 -->
<g id="node27" class="node"><title>Node27</title>
<g id="a_node27"><a xlink:href="../../dc/df6/interfaceengine_1_1game_object_1_1_identifiable.html" target="_top" xlink:title="engine.gameObject.Identifiable">
<polygon fill="white" stroke="black" points="628.5,-45.273 628.5,-64.273 793.5,-64.273 793.5,-45.273 628.5,-45.273"/>
<text text-anchor="middle" x="711" y="-52.273" font-family="Helvetica,sans-Serif" font-size="10.00">engine.gameObject.Identifiable</text>
</a>
</g>
</g>
<!-- Node27&#45;&gt;Node24 -->
<g id="edge30" class="edge"><title>Node27&#45;&gt;Node24</title>
<path fill="none" stroke="midnightblue" d="M803.585,-58.5048C851.379,-64.3135 908.737,-77.7064 952,-107.773 1005.4,-144.882 1040.68,-218.732 1052.03,-245.121"/>
<polygon fill="midnightblue" stroke="midnightblue" points="803.868,-55.0147 793.54,-57.3771 803.087,-61.971 803.868,-55.0147"/>
</g>
<!-- Node28 -->
<g id="node28" class="node"><title>Node28</title>
<g id="a_node28"><a xlink:href="../../d4/dac/classengine_1_1game_object_1_1_identifier.html" target="_top" xlink:title="engine.gameObject.Identifier">
<polygon fill="white" stroke="black" points="633.5,-386.273 633.5,-405.273 788.5,-405.273 788.5,-386.273 633.5,-386.273"/>
<text text-anchor="middle" x="711" y="-393.273" font-family="Helvetica,sans-Serif" font-size="10.00">engine.gameObject.Identifier</text>
</a>
</g>
</g>
<!-- Node28&#45;&gt;Node24 -->
<g id="edge31" class="edge"><title>Node28&#45;&gt;Node24</title>
<path fill="none" stroke="#9a32cd" stroke-dasharray="5,2" d="M798.963,-401.537C846.54,-401.148 905.156,-394.677 952,-370.773 1000.91,-345.816 1037.65,-287.499 1050.76,-264.421"/>
<polygon fill="#9a32cd" stroke="#9a32cd" points="798.681,-398.036 788.678,-401.528 798.675,-405.036 798.681,-398.036"/>
<text text-anchor="middle" x="897" y="-402.773" font-family="Helvetica,sans-Serif" font-size="10.00"> myId</text>
</g>
<!-- Node29 -->
<g id="node29" class="node"><title>Node29</title>
<polygon fill="white" stroke="#bfbfbf" points="305,-391.273 305,-410.273 361,-410.273 361,-391.273 305,-391.273"/>
<text text-anchor="middle" x="333" y="-398.273" font-family="Helvetica,sans-Serif" font-size="10.00">Random</text>
</g>
<!-- Node29&#45;&gt;Node28 -->
<g id="edge32" class="edge"><title>Node29&#45;&gt;Node28</title>
<path fill="none" stroke="#9a32cd" stroke-dasharray="5,2" d="M371.298,-400.277C432.013,-399.47 553.435,-397.855 633.188,-396.794"/>
<polygon fill="#9a32cd" stroke="#9a32cd" points="370.994,-396.781 361.041,-400.413 371.087,-403.78 370.994,-396.781"/>
<text text-anchor="middle" x="522" y="-402.773" font-family="Helvetica,sans-Serif" font-size="10.00"> r</text>
</g>
<!-- Node30 -->
<g id="node30" class="node"><title>Node30</title>
<polygon fill="white" stroke="#bfbfbf" points="231,-341.773 231,-371.773 435,-371.773 435,-341.773 231,-341.773"/>
<text text-anchor="start" x="239" y="-359.773" font-family="Helvetica,sans-Serif" font-size="10.00">List&lt; engine.gameObject.components.</text>
<text text-anchor="middle" x="333" y="-348.773" font-family="Helvetica,sans-Serif" font-size="10.00">Component &gt;</text>
</g>
<!-- Node30&#45;&gt;Node24 -->
<g id="edge33" class="edge"><title>Node30&#45;&gt;Node24</title>
<path fill="none" stroke="#9a32cd" stroke-dasharray="5,2" d="M445.148,-362.853C571.329,-366.268 781.742,-361.292 952,-304.773 984.323,-294.043 1019.58,-275.515 1039.62,-264.277"/>
<polygon fill="#9a32cd" stroke="#9a32cd" points="445.182,-359.353 435.084,-362.558 444.977,-366.35 445.182,-359.353"/>
<text text-anchor="middle" x="711" y="-364.773" font-family="Helvetica,sans-Serif" font-size="10.00"> myComponents</text>
</g>
<!-- Node42 -->
<g id="node42" class="node"><title>Node42</title>
<g id="a_node42"><a xlink:href="../../d6/d66/classengine_1_1game_object_1_1_default_data.html" target="_top" xlink:title="engine.gameObject.DefaultData">
<polygon fill="white" stroke="black" points="625.5,-301.273 625.5,-320.273 796.5,-320.273 796.5,-301.273 625.5,-301.273"/>
<text text-anchor="middle" x="711" y="-308.273" font-family="Helvetica,sans-Serif" font-size="10.00">engine.gameObject.DefaultData</text>
</a>
</g>
</g>
<!-- Node30&#45;&gt;Node42 -->
<g id="edge46" class="edge"><title>Node30&#45;&gt;Node42</title>
<path fill="none" stroke="#9a32cd" stroke-dasharray="5,2" d="M414.935,-339.849C431.134,-336.846 448.069,-333.979 464,-331.773 517.392,-324.381 577.687,-319.184 625.221,-315.809"/>
<polygon fill="#9a32cd" stroke="#9a32cd" points="414.136,-336.438 404.959,-341.732 415.434,-343.317 414.136,-336.438"/>
<text text-anchor="middle" x="522" y="-334.773" font-family="Helvetica,sans-Serif" font-size="10.00"> myComponents</text>
</g>
<!-- Node31 -->
<g id="node31" class="node"><title>Node31</title>
<g id="a_node31"><a xlink:href="../../d2/d82/classengine_1_1render_1_1_rendered_node.html" target="_top" xlink:title="engine.render.RenderedNode">
<polygon fill="white" stroke="black" points="633,-245.273 633,-264.273 789,-264.273 789,-245.273 633,-245.273"/>
<text text-anchor="middle" x="711" y="-252.273" font-family="Helvetica,sans-Serif" font-size="10.00">engine.render.RenderedNode</text>
</a>
</g>
</g>
<!-- Node31&#45;&gt;Node24 -->
<g id="edge34" class="edge"><title>Node31&#45;&gt;Node24</title>
<path fill="none" stroke="#9a32cd" stroke-dasharray="5,2" d="M799.487,-254.773C851.889,-254.773 918.219,-254.773 970.3,-254.773"/>
<polygon fill="#9a32cd" stroke="#9a32cd" points="799.2,-251.273 789.2,-254.773 799.2,-258.273 799.2,-251.273"/>
<text text-anchor="middle" x="897" y="-257.773" font-family="Helvetica,sans-Serif" font-size="10.00"> myRenderedNode</text>
</g>
<!-- Node32 -->
<g id="node32" class="node"><title>Node32</title>
<polygon fill="white" stroke="#bfbfbf" points="310,-303.273 310,-322.273 356,-322.273 356,-303.273 310,-303.273"/>
<text text-anchor="middle" x="333" y="-310.273" font-family="Helvetica,sans-Serif" font-size="10.00">Group</text>
</g>
<!-- Node32&#45;&gt;Node31 -->
<g id="edge35" class="edge"><title>Node32&#45;&gt;Node31</title>
<path fill="none" stroke="midnightblue" d="M366.358,-309.772C413.523,-305.185 503.835,-295.592 580,-282.773 610.508,-277.638 644.696,-270.207 670.353,-264.291"/>
<polygon fill="midnightblue" stroke="midnightblue" points="365.768,-306.313 356.148,-310.753 366.437,-313.281 365.768,-306.313"/>
</g>
<!-- Node33 -->
<g id="node33" class="node"><title>Node33</title>
<polygon fill="white" stroke="#bfbfbf" points="312,-265.273 312,-284.273 354,-284.273 354,-265.273 312,-265.273"/>
<text text-anchor="middle" x="333" y="-272.273" font-family="Helvetica,sans-Serif" font-size="10.00">Label</text>
</g>
<!-- Node33&#45;&gt;Node31 -->
<g id="edge36" class="edge"><title>Node33&#45;&gt;Node31</title>
<path fill="none" stroke="#9a32cd" stroke-dasharray="5,2" d="M364.523,-273.149C422.48,-270.067 550.061,-263.28 632.911,-258.873"/>
<polygon fill="#9a32cd" stroke="#9a32cd" points="364.015,-269.671 354.215,-273.698 364.387,-276.661 364.015,-269.671"/>
<text text-anchor="middle" x="522" y="-270.773" font-family="Helvetica,sans-Serif" font-size="10.00"> myLabel</text>
</g>
<!-- Node34 -->
<g id="node34" class="node"><title>Node34</title>
<polygon fill="white" stroke="#bfbfbf" points="299,-227.273 299,-246.273 367,-246.273 367,-227.273 299,-227.273"/>
<text text-anchor="middle" x="333" y="-234.273" font-family="Helvetica,sans-Serif" font-size="10.00">ImageView</text>
</g>
<!-- Node34&#45;&gt;Node31 -->
<g id="edge37" class="edge"><title>Node34&#45;&gt;Node31</title>
<path fill="none" stroke="#9a32cd" stroke-dasharray="5,2" d="M377.339,-235.631C426.524,-234.681 509.126,-234.139 580,-238.773 601.103,-240.153 624.03,-242.642 644.67,-245.252"/>
<polygon fill="#9a32cd" stroke="#9a32cd" points="376.995,-232.137 367.07,-235.844 377.14,-239.135 376.995,-232.137"/>
<text text-anchor="middle" x="522" y="-241.773" font-family="Helvetica,sans-Serif" font-size="10.00"> myImageView</text>
</g>
<!-- Node35 -->
<g id="node35" class="node"><title>Node35</title>
<polygon fill="white" stroke="#bfbfbf" points="312,-189.273 312,-208.273 354,-208.273 354,-189.273 312,-189.273"/>
<text text-anchor="middle" x="333" y="-196.273" font-family="Helvetica,sans-Serif" font-size="10.00">Node</text>
</g>
<!-- Node35&#45;&gt;Node31 -->
<g id="edge38" class="edge"><title>Node35&#45;&gt;Node31</title>
<path fill="none" stroke="#9a32cd" stroke-dasharray="5,2" d="M364.279,-199.857C410.914,-201.891 502.992,-207.356 580,-220.773 614.474,-226.779 653.18,-237.42 679.324,-245.202"/>
<polygon fill="#9a32cd" stroke="#9a32cd" points="364.374,-196.358 354.237,-199.442 364.084,-203.352 364.374,-196.358"/>
<text text-anchor="middle" x="522" y="-223.773" font-family="Helvetica,sans-Serif" font-size="10.00"> myCollisionBody</text>
</g>
<!-- Node36 -->
<g id="node36" class="node"><title>Node36</title>
<g id="a_node36"><a xlink:href="../../d9/d9d/classengine_1_1game_object_1_1components_1_1_physics_body.html" target="_top" xlink:title="engine.gameObject.components.\lPhysicsBody">
<polygon fill="white" stroke="black" points="623,-159.773 623,-189.773 799,-189.773 799,-159.773 623,-159.773"/>
<text text-anchor="start" x="631" y="-177.773" font-family="Helvetica,sans-Serif" font-size="10.00">engine.gameObject.components.</text>
<text text-anchor="middle" x="711" y="-166.773" font-family="Helvetica,sans-Serif" font-size="10.00">PhysicsBody</text>
</a>
</g>
</g>
<!-- Node36&#45;&gt;Node24 -->
<g id="edge39" class="edge"><title>Node36&#45;&gt;Node24</title>
<path fill="none" stroke="#9a32cd" stroke-dasharray="5,2" d="M786.779,-192.164C856.702,-208.425 958.543,-232.109 1014.8,-245.192"/>
<polygon fill="#9a32cd" stroke="#9a32cd" points="787.237,-188.677 776.704,-189.82 785.651,-195.495 787.237,-188.677"/>
<text text-anchor="middle" x="897" y="-232.773" font-family="Helvetica,sans-Serif" font-size="10.00"> myPhysicsBody</text>
</g>
<!-- Node37 -->
<g id="node37" class="node"><title>Node37</title>
<polygon fill="white" stroke="#bfbfbf" points="255,-139.773 255,-169.773 411,-169.773 411,-139.773 255,-139.773"/>
<text text-anchor="start" x="263" y="-157.773" font-family="Helvetica,sans-Serif" font-size="10.00">Map&lt; String, engine.physics.</text>
<text text-anchor="middle" x="333" y="-146.773" font-family="Helvetica,sans-Serif" font-size="10.00">Scalar &gt;</text>
</g>
<!-- Node37&#45;&gt;Node36 -->
<g id="edge40" class="edge"><title>Node37&#45;&gt;Node36</title>
<path fill="none" stroke="#9a32cd" stroke-dasharray="5,2" d="M421.187,-158.152C468.238,-160.107 527.313,-162.772 580,-165.773 593.891,-166.564 608.61,-167.495 622.958,-168.452"/>
<polygon fill="#9a32cd" stroke="#9a32cd" points="421.167,-154.649 411.031,-157.734 420.878,-161.643 421.167,-154.649"/>
<text text-anchor="middle" x="522" y="-168.773" font-family="Helvetica,sans-Serif" font-size="10.00"> myConstants</text>
</g>
<!-- Node38 -->
<g id="node38" class="node"><title>Node38</title>
<polygon fill="white" stroke="#bfbfbf" points="255,-90.773 255,-120.773 411,-120.773 411,-90.773 255,-90.773"/>
<text text-anchor="start" x="263" y="-108.773" font-family="Helvetica,sans-Serif" font-size="10.00">Map&lt; String, engine.physics.</text>
<text text-anchor="middle" x="333" y="-97.773" font-family="Helvetica,sans-Serif" font-size="10.00">Force &gt;</text>
</g>
<!-- Node38&#45;&gt;Node36 -->
<g id="edge41" class="edge"><title>Node38&#45;&gt;Node36</title>
<path fill="none" stroke="#9a32cd" stroke-dasharray="5,2" d="M421.38,-118.713C468.486,-126.007 527.552,-135.668 580,-145.773 580.442,-145.858 611.201,-152.719 642.684,-159.746"/>
<polygon fill="#9a32cd" stroke="#9a32cd" points="421.627,-115.209 411.211,-117.146 420.561,-122.128 421.627,-115.209"/>
<text text-anchor="middle" x="522" y="-148.773" font-family="Helvetica,sans-Serif" font-size="10.00"> myActiveForces</text>
</g>
<!-- Node39 -->
<g id="node39" class="node"><title>Node39</title>
<polygon fill="white" stroke="#bfbfbf" points="249.5,-52.273 249.5,-71.273 416.5,-71.273 416.5,-52.273 249.5,-52.273"/>
<text text-anchor="middle" x="333" y="-59.273" font-family="Helvetica,sans-Serif" font-size="10.00">List&lt; engine.physics.Impulse &gt;</text>
</g>
<!-- Node39&#45;&gt;Node36 -->
<g id="edge42" class="edge"><title>Node39&#45;&gt;Node36</title>
<path fill="none" stroke="#9a32cd" stroke-dasharray="5,2" d="M403.76,-73.0276C417.772,-75.4512 432.374,-78.0939 446,-80.773 505.883,-92.5474 532.519,-72.4302 580,-110.773 594.852,-122.767 583.144,-137.784 598,-149.773 605.364,-155.716 613.852,-160.315 622.792,-163.863"/>
<polygon fill="#9a32cd" stroke="#9a32cd" points="404.131,-69.5403 393.684,-71.3041 402.951,-76.4401 404.131,-69.5403"/>
<text text-anchor="middle" x="522" y="-113.773" font-family="Helvetica,sans-Serif" font-size="10.00"> myImpulses</text>
</g>
<!-- Node40 -->
<g id="node40" class="node"><title>Node40</title>
<g id="a_node40"><a xlink:href="../../d5/d1f/classengine_1_1physics_1_1_vector.html" target="_top" xlink:title="engine.physics.Vector">
<polygon fill="white" stroke="black" points="272.5,-1.27296 272.5,-20.273 393.5,-20.273 393.5,-1.27296 272.5,-1.27296"/>
<text text-anchor="middle" x="333" y="-8.27296" font-family="Helvetica,sans-Serif" font-size="10.00">engine.physics.Vector</text>
</a>
</g>
</g>
<!-- Node40&#45;&gt;Node36 -->
<g id="edge43" class="edge"><title>Node40&#45;&gt;Node36</title>
<path fill="none" stroke="#9a32cd" stroke-dasharray="5,2" d="M403.666,-1.1666C458.888,2.26167 534.148,-3.07064 580,-47.773 612.961,-79.908 566.189,-116.499 598,-149.773 604.953,-157.045 613.521,-162.421 622.796,-166.366"/>
<polygon fill="#9a32cd" stroke="#9a32cd" points="403.318,2.31744 393.6,-1.90117 403.828,-4.664 403.318,2.31744"/>
<text text-anchor="middle" x="522" y="-72.773" font-family="Helvetica,sans-Serif" font-size="10.00"> myBalancedForcesMag</text>
<text text-anchor="middle" x="522" y="-61.773" font-family="Helvetica,sans-Serif" font-size="10.00">myVelocity</text>
<text text-anchor="middle" x="522" y="-50.773" font-family="Helvetica,sans-Serif" font-size="10.00">myAcceleration</text>
</g>
<!-- Node41 -->
<g id="node41" class="node"><title>Node41</title>
<g id="a_node41"><a xlink:href="../../dc/db5/classengine_1_1physics_1_1_physics_component.html" target="_top" xlink:title="engine.physics.PhysicsComponent">
<polygon fill="white" stroke="black" points="0,-1.27296 0,-20.273 182,-20.273 182,-1.27296 0,-1.27296"/>
<text text-anchor="middle" x="91" y="-8.27296" font-family="Helvetica,sans-Serif" font-size="10.00">engine.physics.PhysicsComponent</text>
</a>
</g>
</g>
<!-- Node41&#45;&gt;Node40 -->
<g id="edge44" class="edge"><title>Node41&#45;&gt;Node40</title>
<path fill="none" stroke="midnightblue" d="M192.403,-10.773C219.624,-10.773 248.228,-10.773 272.406,-10.773"/>
<polygon fill="midnightblue" stroke="midnightblue" points="192.05,-7.27306 182.05,-10.773 192.05,-14.2731 192.05,-7.27306"/>
</g>
<!-- Node42&#45;&gt;Node24 -->
<g id="edge45" class="edge"><title>Node42&#45;&gt;Node24</title>
<path fill="none" stroke="#9a32cd" stroke-dasharray="5,2" d="M780.668,-299.595C844.151,-289.26 937.477,-274.067 997.497,-264.297"/>
<polygon fill="#9a32cd" stroke="#9a32cd" points="780.053,-296.148 770.745,-301.21 781.177,-303.058 780.053,-296.148"/>
<text text-anchor="middle" x="897" y="-292.773" font-family="Helvetica,sans-Serif" font-size="10.00"> myDefaultData</text>
</g>
</g>
</svg>
