<?xml version="1.0" encoding="UTF-8" standalone="no"?>
<!DOCTYPE svg PUBLIC "-//W3C//DTD SVG 1.1//EN"
 "http://www.w3.org/Graphics/SVG/1.1/DTD/svg11.dtd">
<!-- Generated by graphviz version 2.36.0 (20140111.2315)
 -->
<!-- Title: engine.actions.render.PaintCanvas Pages: 1 -->
<svg width="1466pt" height="260pt"
 viewBox="0.00 0.00 1466.00 260.00" xmlns="http://www.w3.org/2000/svg" xmlns:xlink="http://www.w3.org/1999/xlink">
<g id="graph0" class="graph" transform="scale(1 1) rotate(0) translate(4 256)">
<title>engine.actions.render.PaintCanvas</title>
<polygon fill="white" stroke="none" points="-4,4 -4,-256 1462,-256 1462,4 -4,4"/>
<!-- Node1 -->
<g id="node1" class="node"><title>Node1</title>
<polygon fill="#bfbfbf" stroke="black" points="1312,-148 1312,-178 1458,-178 1458,-148 1312,-148"/>
<text text-anchor="start" x="1320" y="-166" font-family="Helvetica,sans-Serif" font-size="10.00">engine.actions.render.Paint</text>
<text text-anchor="middle" x="1385" y="-155" font-family="Helvetica,sans-Serif" font-size="10.00">Canvas</text>
</g>
<!-- Node2 -->
<g id="node2" class="node"><title>Node2</title>
<g id="a_node2"><a xlink:href="../../da/d10/classengine_1_1actions_1_1render_1_1_render_action.html" target="_top" xlink:title="engine.actions.render.Render\lAction">
<polygon fill="white" stroke="black" points="1118,-148 1118,-178 1274,-178 1274,-148 1118,-148"/>
<text text-anchor="start" x="1126" y="-166" font-family="Helvetica,sans-Serif" font-size="10.00">engine.actions.render.Render</text>
<text text-anchor="middle" x="1196" y="-155" font-family="Helvetica,sans-Serif" font-size="10.00">Action</text>
</a>
</g>
</g>
<!-- Node2&#45;&gt;Node1 -->
<g id="edge1" class="edge"><title>Node2&#45;&gt;Node1</title>
<path fill="none" stroke="midnightblue" d="M1284.15,-163C1293.42,-163 1302.77,-163 1311.84,-163"/>
<polygon fill="midnightblue" stroke="midnightblue" points="1284.14,-159.5 1274.14,-163 1284.14,-166.5 1284.14,-159.5"/>
</g>
<!-- Node3 -->
<g id="node3" class="node"><title>Node3</title>
<g id="a_node3"><a xlink:href="../../d9/dd2/interfaceengine_1_1actions_1_1_action.html" target="_top" xlink:title="engine.actions.Action">
<polygon fill="white" stroke="black" points="867.5,-230.5 867.5,-249.5 986.5,-249.5 986.5,-230.5 867.5,-230.5"/>
<text text-anchor="middle" x="927" y="-237.5" font-family="Helvetica,sans-Serif" font-size="10.00">engine.actions.Action</text>
</a>
</g>
</g>
<!-- Node3&#45;&gt;Node2 -->
<g id="edge2" class="edge"><title>Node3&#45;&gt;Node2</title>
<path fill="none" stroke="midnightblue" d="M996.725,-236.259C1028.75,-233.046 1066.99,-227.079 1100,-216 1126.86,-206.987 1154.86,-190.34 1173.44,-178.1"/>
<polygon fill="midnightblue" stroke="midnightblue" points="996.191,-232.793 986.559,-237.208 996.842,-239.763 996.191,-232.793"/>
</g>
<!-- Node4 -->
<g id="node4" class="node"><title>Node4</title>
<g id="a_node4"><a xlink:href="../../d2/d15/interfaceengine_1_1actions_1_1_initializable.html" target="_top" xlink:title="engine.actions.Initializable">
<polygon fill="white" stroke="black" points="573,-204.5 573,-223.5 715,-223.5 715,-204.5 573,-204.5"/>
<text text-anchor="middle" x="644" y="-211.5" font-family="Helvetica,sans-Serif" font-size="10.00">engine.actions.Initializable</text>
</a>
</g>
</g>
<!-- Node4&#45;&gt;Node2 -->
<g id="edge4" class="edge"><title>Node4&#45;&gt;Node2</title>
<path fill="none" stroke="midnightblue" d="M725.478,-208.083C816.482,-201.165 969.046,-188.877 1100,-175 1105.79,-174.387 1111.77,-173.717 1117.78,-173.018"/>
<polygon fill="midnightblue" stroke="midnightblue" points="724.942,-204.614 715.235,-208.859 725.471,-211.594 724.942,-204.614"/>
</g>
<!-- Node4&#45;&gt;Node3 -->
<g id="edge3" class="edge"><title>Node4&#45;&gt;Node3</title>
<path fill="none" stroke="midnightblue" d="M725.256,-221.426C770.476,-225.61 825.966,-230.744 867.136,-234.554"/>
<polygon fill="midnightblue" stroke="midnightblue" points="725.463,-217.93 715.183,-220.494 724.818,-224.9 725.463,-217.93"/>
</g>
<!-- Node5 -->
<g id="node5" class="node"><title>Node5</title>
<g id="a_node5"><a xlink:href="../../dd/d8d/classengine_1_1render_1_1_renderer.html" target="_top" xlink:title="engine.render.Renderer">
<polygon fill="white" stroke="black" points="863,-100.5 863,-119.5 991,-119.5 991,-100.5 863,-100.5"/>
<text text-anchor="middle" x="927" y="-107.5" font-family="Helvetica,sans-Serif" font-size="10.00">engine.render.Renderer</text>
</a>
</g>
</g>
<!-- Node5&#45;&gt;Node2 -->
<g id="edge5" class="edge"><title>Node5&#45;&gt;Node2</title>
<path fill="none" stroke="#9a32cd" stroke-dasharray="5,2" d="M1001.34,-120.353C1031.96,-125.085 1067.83,-131.165 1100,-138 1113.51,-140.871 1127.98,-144.428 1141.46,-147.949"/>
<polygon fill="#9a32cd" stroke="#9a32cd" points="1001.59,-116.849 991.174,-118.8 1000.53,-123.769 1001.59,-116.849"/>
<text text-anchor="middle" x="1058" y="-141" font-family="Helvetica,sans-Serif" font-size="10.00"> myRenderer</text>
</g>
<!-- Node6 -->
<g id="node6" class="node"><title>Node6</title>
<polygon fill="white" stroke="#bfbfbf" points="562,-49 562,-79 726,-79 726,-49 562,-49"/>
<text text-anchor="start" x="570" y="-67" font-family="Helvetica,sans-Serif" font-size="10.00">Map&lt; Identifier, engine.render.</text>
<text text-anchor="middle" x="644" y="-56" font-family="Helvetica,sans-Serif" font-size="10.00">RenderedNode &gt;</text>
</g>
<!-- Node6&#45;&gt;Node5 -->
<g id="edge6" class="edge"><title>Node6&#45;&gt;Node5</title>
<path fill="none" stroke="#9a32cd" stroke-dasharray="5,2" d="M736.361,-73.8303C768.594,-77.8275 805.015,-82.9454 838,-89 855.148,-92.1476 873.97,-96.5138 889.79,-100.45"/>
<polygon fill="#9a32cd" stroke="#9a32cd" points="736.403,-70.3095 726.052,-72.572 735.554,-77.2579 736.403,-70.3095"/>
<text text-anchor="middle" x="791" y="-92" font-family="Helvetica,sans-Serif" font-size="10.00"> myRenderedNodes</text>
</g>
<!-- Node7 -->
<g id="node7" class="node"><title>Node7</title>
<g id="a_node7"><a xlink:href="../../d5/d30/classengine_1_1render_1_1_rendered_node_factory.html" target="_top" xlink:title="engine.render.RenderedNode\lFactory">
<polygon fill="white" stroke="black" points="566,-0 566,-30 722,-30 722,-0 566,-0"/>
<text text-anchor="start" x="574" y="-18" font-family="Helvetica,sans-Serif" font-size="10.00">engine.render.RenderedNode</text>
<text text-anchor="middle" x="644" y="-7" font-family="Helvetica,sans-Serif" font-size="10.00">Factory</text>
</a>
</g>
</g>
<!-- Node7&#45;&gt;Node5 -->
<g id="edge7" class="edge"><title>Node7&#45;&gt;Node5</title>
<path fill="none" stroke="#9a32cd" stroke-dasharray="5,2" d="M732.034,-21.2498C767.535,-27.2987 807.352,-38.9047 838,-61 850.305,-69.8714 843.894,-80.8581 856,-90 861.749,-94.3416 868.408,-97.7413 875.288,-100.403"/>
<polygon fill="#9a32cd" stroke="#9a32cd" points="732.57,-17.7911 722.146,-19.6869 731.477,-24.7053 732.57,-17.7911"/>
<text text-anchor="middle" x="791" y="-64" font-family="Helvetica,sans-Serif" font-size="10.00"> myFactory</text>
</g>
<!-- Node8 -->
<g id="node8" class="node"><title>Node8</title>
<g id="a_node8"><a xlink:href="../../d9/db5/classengine_1_1_file_path_utility.html" target="_top" xlink:title="engine.FilePathUtility">
<polygon fill="white" stroke="black" points="267.5,-5.5 267.5,-24.5 382.5,-24.5 382.5,-5.5 267.5,-5.5"/>
<text text-anchor="middle" x="325" y="-12.5" font-family="Helvetica,sans-Serif" font-size="10.00">engine.FilePathUtility</text>
</a>
</g>
</g>
<!-- Node8&#45;&gt;Node7 -->
<g id="edge8" class="edge"><title>Node8&#45;&gt;Node7</title>
<path fill="none" stroke="#9a32cd" stroke-dasharray="5,2" d="M392.85,-15C443.452,-15 513.04,-15 565.975,-15"/>
<polygon fill="#9a32cd" stroke="#9a32cd" points="392.673,-11.5001 382.673,-15 392.673,-18.5001 392.673,-11.5001"/>
<text text-anchor="middle" x="485" y="-18" font-family="Helvetica,sans-Serif" font-size="10.00"> myFilePathUtility</text>
</g>
<!-- Node9 -->
<g id="node9" class="node"><title>Node9</title>
<g id="a_node9"><a xlink:href="../../df/d84/classengine_1_1level_1_1_level.html" target="_top" xlink:title="engine.level.Level">
<polygon fill="white" stroke="black" points="593.5,-144.5 593.5,-163.5 694.5,-163.5 694.5,-144.5 593.5,-144.5"/>
<text text-anchor="middle" x="644" y="-151.5" font-family="Helvetica,sans-Serif" font-size="10.00">engine.level.Level</text>
</a>
</g>
</g>
<!-- Node9&#45;&gt;Node2 -->
<g id="edge20" class="edge"><title>Node9&#45;&gt;Node2</title>
<path fill="none" stroke="#9a32cd" stroke-dasharray="5,2" d="M705.046,-154.983C805.424,-156.625 1007.17,-159.926 1117.9,-161.738"/>
<polygon fill="#9a32cd" stroke="#9a32cd" points="704.835,-151.479 694.779,-154.815 704.72,-158.478 704.835,-151.479"/>
<text text-anchor="middle" x="927" y="-163" font-family="Helvetica,sans-Serif" font-size="10.00"> myLevel</text>
</g>
<!-- Node9&#45;&gt;Node5 -->
<g id="edge9" class="edge"><title>Node9&#45;&gt;Node5</title>
<path fill="none" stroke="#9a32cd" stroke-dasharray="5,2" d="M704.786,-144.263C717.715,-142.178 731.312,-140.001 744,-138 783.631,-131.749 828.145,-124.898 863.23,-119.537"/>
<polygon fill="#9a32cd" stroke="#9a32cd" points="703.905,-140.86 694.591,-145.91 705.021,-147.77 703.905,-140.86"/>
<text text-anchor="middle" x="791" y="-141" font-family="Helvetica,sans-Serif" font-size="10.00"> myCurrentLevel</text>
</g>
<!-- Node10 -->
<g id="node10" class="node"><title>Node10</title>
<g id="a_node10"><a xlink:href="../../d3/d8d/classdata_1_1_observable.html" target="_top" xlink:title="data.Observable">
<polygon fill="white" stroke="black" points="277.5,-182.5 277.5,-201.5 372.5,-201.5 372.5,-182.5 277.5,-182.5"/>
<text text-anchor="middle" x="325" y="-189.5" font-family="Helvetica,sans-Serif" font-size="10.00">data.Observable</text>
</a>
</g>
</g>
<!-- Node10&#45;&gt;Node9 -->
<g id="edge10" class="edge"><title>Node10&#45;&gt;Node9</title>
<path fill="none" stroke="midnightblue" d="M383.045,-186.206C427.058,-181.618 489.44,-174.859 544,-168 560.103,-165.975 577.65,-163.562 593.437,-161.314"/>
<polygon fill="midnightblue" stroke="midnightblue" points="382.412,-182.753 372.827,-187.266 383.135,-189.715 382.412,-182.753"/>
</g>
<!-- Node11 -->
<g id="node11" class="node"><title>Node11</title>
<polygon fill="white" stroke="#bfbfbf" points="23,-182.5 23,-201.5 161,-201.5 161,-182.5 23,-182.5"/>
<text text-anchor="middle" x="92" y="-189.5" font-family="Helvetica,sans-Serif" font-size="10.00">Vector&lt; data.Observer &gt;</text>
</g>
<!-- Node11&#45;&gt;Node10 -->
<g id="edge11" class="edge"><title>Node11&#45;&gt;Node10</title>
<path fill="none" stroke="#9a32cd" stroke-dasharray="5,2" d="M171.318,-192C206.521,-192 246.882,-192 277.262,-192"/>
<polygon fill="#9a32cd" stroke="#9a32cd" points="171.058,-188.5 161.058,-192 171.058,-195.5 171.058,-188.5"/>
<text text-anchor="middle" x="213" y="-195" font-family="Helvetica,sans-Serif" font-size="10.00"> obs</text>
</g>
<!-- Node12 -->
<g id="node12" class="node"><title>Node12</title>
<g id="a_node12"><a xlink:href="../../dc/df6/interfaceengine_1_1game_object_1_1_identifiable.html" target="_top" xlink:title="engine.gameObject.Identifiable">
<polygon fill="white" stroke="black" points="242.5,-144.5 242.5,-163.5 407.5,-163.5 407.5,-144.5 242.5,-144.5"/>
<text text-anchor="middle" x="325" y="-151.5" font-family="Helvetica,sans-Serif" font-size="10.00">engine.gameObject.Identifiable</text>
</a>
</g>
</g>
<!-- Node12&#45;&gt;Node9 -->
<g id="edge12" class="edge"><title>Node12&#45;&gt;Node9</title>
<path fill="none" stroke="midnightblue" d="M417.781,-154C475.002,-154 546.417,-154 593.295,-154"/>
<polygon fill="midnightblue" stroke="midnightblue" points="417.635,-150.5 407.635,-154 417.635,-157.5 417.635,-150.5"/>
</g>
<!-- Node13 -->
<g id="node13" class="node"><title>Node13</title>
<g id="a_node13"><a xlink:href="../../d4/dac/classengine_1_1game_object_1_1_identifier.html" target="_top" xlink:title="engine.gameObject.Identifier">
<polygon fill="white" stroke="black" points="247.5,-106.5 247.5,-125.5 402.5,-125.5 402.5,-106.5 247.5,-106.5"/>
<text text-anchor="middle" x="325" y="-113.5" font-family="Helvetica,sans-Serif" font-size="10.00">engine.gameObject.Identifier</text>
</a>
</g>
</g>
<!-- Node13&#45;&gt;Node9 -->
<g id="edge13" class="edge"><title>Node13&#45;&gt;Node9</title>
<path fill="none" stroke="#9a32cd" stroke-dasharray="5,2" d="M412.522,-124.22C452.575,-128.258 500.763,-133.447 544,-139 560.121,-141.071 577.673,-143.63 593.459,-146.044"/>
<polygon fill="#9a32cd" stroke="#9a32cd" points="412.821,-120.733 402.522,-123.219 412.123,-127.698 412.821,-120.733"/>
<text text-anchor="middle" x="485" y="-142" font-family="Helvetica,sans-Serif" font-size="10.00"> myId</text>
</g>
<!-- Node14 -->
<g id="node14" class="node"><title>Node14</title>
<polygon fill="white" stroke="#bfbfbf" points="64,-106.5 64,-125.5 120,-125.5 120,-106.5 64,-106.5"/>
<text text-anchor="middle" x="92" y="-113.5" font-family="Helvetica,sans-Serif" font-size="10.00">Random</text>
</g>
<!-- Node14&#45;&gt;Node13 -->
<g id="edge14" class="edge"><title>Node14&#45;&gt;Node13</title>
<path fill="none" stroke="#9a32cd" stroke-dasharray="5,2" d="M130.511,-116C162.046,-116 208.136,-116 247.423,-116"/>
<polygon fill="#9a32cd" stroke="#9a32cd" points="130.406,-112.5 120.406,-116 130.406,-119.5 130.406,-112.5"/>
<text text-anchor="middle" x="213" y="-119" font-family="Helvetica,sans-Serif" font-size="10.00"> r</text>
</g>
<!-- Node15 -->
<g id="node15" class="node"><title>Node15</title>
<g id="a_node15"><a xlink:href="../../d1/d32/classauthoring_1_1model_1_1collections_1_1_game_objects_collection.html" target="_top" xlink:title="authoring.model.collections.\lGameObjectsCollection">
<polygon fill="white" stroke="black" points="249,-57 249,-87 401,-87 401,-57 249,-57"/>
<text text-anchor="start" x="257" y="-75" font-family="Helvetica,sans-Serif" font-size="10.00">authoring.model.collections.</text>
<text text-anchor="middle" x="325" y="-64" font-family="Helvetica,sans-Serif" font-size="10.00">GameObjectsCollection</text>
</a>
</g>
</g>
<!-- Node15&#45;&gt;Node9 -->
<g id="edge15" class="edge"><title>Node15&#45;&gt;Node9</title>
<path fill="none" stroke="#9a32cd" stroke-dasharray="5,2" d="M411.246,-67.5908C453.883,-69.1292 504.645,-76.9388 544,-101 555.991,-108.331 550.756,-118.567 562,-127 572.436,-134.827 585.268,-140.463 597.616,-144.49"/>
<polygon fill="#9a32cd" stroke="#9a32cd" points="411.243,-64.0897 401.158,-67.3366 411.066,-71.0875 411.243,-64.0897"/>
<text text-anchor="middle" x="485" y="-115" font-family="Helvetica,sans-Serif" font-size="10.00"> myDefaultGameObjects</text>
<text text-anchor="middle" x="485" y="-104" font-family="Helvetica,sans-Serif" font-size="10.00">myWorkingGameObjects</text>
</g>
<!-- Node16 -->
<g id="node16" class="node"><title>Node16</title>
<g id="a_node16"><a xlink:href="../../d4/d3b/classauthoring_1_1model_1_1collections_1_1_general_collection.html" target="_top" xlink:title="authoring.model.collections.\lGeneralCollection\&lt; GameObject \&gt;">
<polygon fill="white" stroke="black" points="0.5,-57 0.5,-87 183.5,-87 183.5,-57 0.5,-57"/>
<text text-anchor="start" x="8.5" y="-75" font-family="Helvetica,sans-Serif" font-size="10.00">authoring.model.collections.</text>
<text text-anchor="middle" x="92" y="-64" font-family="Helvetica,sans-Serif" font-size="10.00">GeneralCollection&lt; GameObject &gt;</text>
</a>
</g>
</g>
<!-- Node16&#45;&gt;Node15 -->
<g id="edge16" class="edge"><title>Node16&#45;&gt;Node15</title>
<path fill="none" stroke="midnightblue" d="M193.843,-72C212.335,-72 231.337,-72 248.91,-72"/>
<polygon fill="midnightblue" stroke="midnightblue" points="193.634,-68.5001 183.634,-72 193.634,-75.5001 193.634,-68.5001"/>
</g>
<!-- Node17 -->
<g id="node17" class="node"><title>Node17</title>
<polygon fill="white" stroke="#bfbfbf" points="254.5,-221 254.5,-251 395.5,-251 395.5,-221 254.5,-221"/>
<text text-anchor="start" x="262.5" y="-239" font-family="Helvetica,sans-Serif" font-size="10.00">List&lt; engine.gameObject.</text>
<text text-anchor="middle" x="325" y="-228" font-family="Helvetica,sans-Serif" font-size="10.00">Identifier &gt;</text>
</g>
<!-- Node17&#45;&gt;Node9 -->
<g id="edge17" class="edge"><title>Node17&#45;&gt;Node9</title>
<path fill="none" stroke="#9a32cd" stroke-dasharray="5,2" d="M405.833,-221.327C447.351,-213.058 498.747,-201.821 544,-189 569.959,-181.645 598.991,-171.097 618.867,-163.505"/>
<polygon fill="#9a32cd" stroke="#9a32cd" points="404.907,-217.942 395.774,-223.311 406.262,-224.81 404.907,-217.942"/>
<text text-anchor="middle" x="485" y="-232" font-family="Helvetica,sans-Serif" font-size="10.00"> myConditionIdList</text>
<text text-anchor="middle" x="485" y="-221" font-family="Helvetica,sans-Serif" font-size="10.00">myGameObjectIdList</text>
</g>
<!-- Node18 -->
<g id="node18" class="node"><title>Node18</title>
<polygon fill="white" stroke="#bfbfbf" points="621,-98.5 621,-117.5 667,-117.5 667,-98.5 621,-98.5"/>
<text text-anchor="middle" x="644" y="-105.5" font-family="Helvetica,sans-Serif" font-size="10.00">Group</text>
</g>
<!-- Node18&#45;&gt;Node5 -->
<g id="edge18" class="edge"><title>Node18&#45;&gt;Node5</title>
<path fill="none" stroke="#9a32cd" stroke-dasharray="5,2" d="M677.038,-106.264C715.336,-104.436 781.36,-102.071 838,-104 845.958,-104.271 854.314,-104.679 862.578,-105.158"/>
<polygon fill="#9a32cd" stroke="#9a32cd" points="676.817,-102.77 667.003,-106.761 677.164,-109.762 676.817,-102.77"/>
<text text-anchor="middle" x="791" y="-107" font-family="Helvetica,sans-Serif" font-size="10.00"> myCanvas</text>
</g>
<!-- Node19 -->
<g id="node19" class="node"><title>Node19</title>
<polygon fill="white" stroke="#bfbfbf" points="856.5,-51 856.5,-81 997.5,-81 997.5,-51 856.5,-51"/>
<text text-anchor="start" x="864.5" y="-69" font-family="Helvetica,sans-Serif" font-size="10.00">List&lt; engine.gameObject.</text>
<text text-anchor="middle" x="927" y="-58" font-family="Helvetica,sans-Serif" font-size="10.00">GameObject &gt;</text>
</g>
<!-- Node19&#45;&gt;Node2 -->
<g id="edge19" class="edge"><title>Node19&#45;&gt;Node2</title>
<path fill="none" stroke="#9a32cd" stroke-dasharray="5,2" d="M1007.45,-81.114C1037.06,-87.9734 1070.61,-97.228 1100,-109 1126.06,-119.439 1153.74,-135.856 1172.46,-147.85"/>
<polygon fill="#9a32cd" stroke="#9a32cd" points="1008.09,-77.6717 997.568,-78.8795 1006.55,-84.4993 1008.09,-77.6717"/>
<text text-anchor="middle" x="1058" y="-112" font-family="Helvetica,sans-Serif" font-size="10.00"> myGameObjects</text>
</g>
</g>
</svg>
