<?xml version="1.0" encoding="UTF-8" standalone="no"?>
<!DOCTYPE svg PUBLIC "-//W3C//DTD SVG 1.1//EN"
 "http://www.w3.org/Graphics/SVG/1.1/DTD/svg11.dtd">
<!-- Generated by graphviz version 2.36.0 (20140111.2315)
 -->
<!-- Title: engine.FilePathUtility.getFilePath Pages: 1 -->
<!--zoomable 136 -->
<svg id="main" version="1.1" xmlns="http://www.w3.org/2000/svg" xmlns:xlink="http://www.w3.org/1999/xlink" xml:space="preserve" onload="init(evt)">
<style type="text/css"><![CDATA[
.edge:hover path { stroke: red; }
.edge:hover polygon { stroke: red; fill: red; }
]]></style>
<script type="text/javascript"><![CDATA[
var edges = document.getElementsByTagName('g');
if (edges && edges.length) {
  for (var i=0;i<edges.length;i++) {
    if (edges[i].id.substr(0,4)=='edge') {
      edges[i].setAttribute('class','edge');
    }
  }
}
]]></script>
        <defs>
                <circle id="rim" cx="0" cy="0" r="7"/>
                <circle id="rim2" cx="0" cy="0" r="3.5"/>
                <g id="zoomPlus">
                        <use xlink:href="#rim" fill="#404040">
                                <set attributeName="fill" to="#808080" begin="zoomplus.mouseover" end="zoomplus.mouseout"/>
                        </use>
                        <path d="M-4,0h8M0,-4v8" fill="none" stroke="white" stroke-width="1.5" pointer-events="none"/>
                </g>
                <g id="zoomMin">
                        <use xlink:href="#rim" fill="#404040">
                                <set attributeName="fill" to="#808080" begin="zoomminus.mouseover" end="zoomminus.mouseout"/>
                        </use>
                        <path d="M-4,0h8" fill="none" stroke="white" stroke-width="1.5" pointer-events="none"/>
                </g>
                <g id="dirArrow">
                        <path fill="none" stroke="white" stroke-width="1.5" d="M0,-3.0v7 M-2.5,-0.5L0,-3.0L2.5,-0.5"/>
                </g>
               <g id="resetDef">
                       <use xlink:href="#rim2" fill="#404040">
                               <set attributeName="fill" to="#808080" begin="reset.mouseover" end="reset.mouseout"/>
                       </use>
               </g>
        </defs>

<script type="text/javascript">
var viewWidth = 942;
var viewHeight = 136;
var sectionId = 'dynsection-0';
</script>
<script xlink:href="../../svgpan.js"/>
<svg id="graph" class="graph">
<g id="viewport">
<title>engine.FilePathUtility.getFilePath</title>
<polygon fill="white" stroke="none" points="-4,4 -4,-132 938,-132 938,4 -4,4"/>
<!-- Node1 -->
<g id="node1" class="node"><title>Node1</title>
<polygon fill="#bfbfbf" stroke="black" points="0,-49 0,-79 132,-79 132,-49 0,-49"/>
<text text-anchor="start" x="8" y="-67" font-family="Helvetica,sans-Serif" font-size="10.00">engine.FilePathUtility.get</text>
<text text-anchor="middle" x="66" y="-56" font-family="Helvetica,sans-Serif" font-size="10.00">FilePath</text>
</g>
<!-- Node2 -->
<g id="node2" class="node"><title>Node2</title>
<g id="a_node2"><a xlink:href="../../d5/d30/classengine_1_1render_1_1_rendered_node_factory.html#a1178ba059358e91c384ceb3182361783" target="_top" xlink:title="engine.render.RenderedNode\lFactory.createImageAndView">
<polygon fill="white" stroke="black" points="175,-98 175,-128 331,-128 331,-98 175,-98"/>
<text text-anchor="start" x="183" y="-116" font-family="Helvetica,sans-Serif" font-size="10.00">engine.render.RenderedNode</text>
<text text-anchor="middle" x="253" y="-105" font-family="Helvetica,sans-Serif" font-size="10.00">Factory.createImageAndView</text>
</a>
</g>
</g>
<!-- Node1&#45;&gt;Node2 -->
<g id="edge1" class="edge"><title>Node1&#45;&gt;Node2</title>
<path fill="none" stroke="midnightblue" d="M133.535,-81.6229C153.775,-86.9837 175.82,-92.8225 195.344,-97.9938"/>
<polygon fill="midnightblue" stroke="midnightblue" points="134.326,-78.2117 123.763,-79.0346 132.534,-84.9784 134.326,-78.2117"/>
</g>
<!-- Node3 -->
<g id="node3" class="node"><title>Node3</title>
<g id="a_node3"><a xlink:href="../../da/d90/classengine_1_1sound_1_1_sound_utility.html#a235ca79c125952cfc650d8bc8f2effb0" target="_top" xlink:title="engine.sound.SoundUtility.make\lAudioClip">
<polygon fill="white" stroke="black" points="168,-49 168,-79 338,-79 338,-49 168,-49"/>
<text text-anchor="start" x="176" y="-67" font-family="Helvetica,sans-Serif" font-size="10.00">engine.sound.SoundUtility.make</text>
<text text-anchor="middle" x="253" y="-56" font-family="Helvetica,sans-Serif" font-size="10.00">AudioClip</text>
</a>
</g>
</g>
<!-- Node1&#45;&gt;Node3 -->
<g id="edge2" class="edge"><title>Node1&#45;&gt;Node3</title>
<path fill="none" stroke="midnightblue" d="M142.374,-64C150.791,-64 159.404,-64 167.921,-64"/>
<polygon fill="midnightblue" stroke="midnightblue" points="142.224,-60.5001 132.224,-64 142.224,-67.5001 142.224,-60.5001"/>
</g>
<!-- Node6 -->
<g id="node6" class="node"><title>Node6</title>
<g id="a_node6"><a xlink:href="../../da/d90/classengine_1_1sound_1_1_sound_utility.html#adb8f89d8b00a32d8777dda7406f24a72" target="_top" xlink:title="engine.sound.SoundUtility.make\lMediaPlayer">
<polygon fill="white" stroke="black" points="168,-0 168,-30 338,-30 338,-0 168,-0"/>
<text text-anchor="start" x="176" y="-18" font-family="Helvetica,sans-Serif" font-size="10.00">engine.sound.SoundUtility.make</text>
<text text-anchor="middle" x="253" y="-7" font-family="Helvetica,sans-Serif" font-size="10.00">MediaPlayer</text>
</a>
</g>
</g>
<!-- Node1&#45;&gt;Node6 -->
<g id="edge5" class="edge"><title>Node1&#45;&gt;Node6</title>
<path fill="none" stroke="midnightblue" d="M133.535,-46.3771C153.775,-41.0163 175.82,-35.1775 195.344,-30.0062"/>
<polygon fill="midnightblue" stroke="midnightblue" points="132.534,-43.0216 123.763,-48.9654 134.326,-49.7883 132.534,-43.0216"/>
</g>
<!-- Node4 -->
<g id="node4" class="node"><title>Node4</title>
<g id="a_node4"><a xlink:href="../../da/d90/classengine_1_1sound_1_1_sound_utility.html#a59253967753035aaf21c8537a1804593" target="_top" xlink:title="engine.sound.SoundUtility.add\lAudioClip">
<polygon fill="white" stroke="black" points="374.5,-49 374.5,-79 535.5,-79 535.5,-49 374.5,-49"/>
<text text-anchor="start" x="382.5" y="-67" font-family="Helvetica,sans-Serif" font-size="10.00">engine.sound.SoundUtility.add</text>
<text text-anchor="middle" x="455" y="-56" font-family="Helvetica,sans-Serif" font-size="10.00">AudioClip</text>
</a>
</g>
</g>
<!-- Node3&#45;&gt;Node4 -->
<g id="edge3" class="edge"><title>Node3&#45;&gt;Node4</title>
<path fill="none" stroke="midnightblue" d="M348.384,-64C357.062,-64 365.797,-64 374.326,-64"/>
<polygon fill="midnightblue" stroke="midnightblue" points="348.238,-60.5001 338.238,-64 348.238,-67.5001 348.238,-60.5001"/>
</g>
<!-- Node5 -->
<g id="node5" class="node"><title>Node5</title>
<g id="a_node5"><a xlink:href="../../d0/d34/classengine_1_1actions_1_1_audio_clip_action.html#a4de65f4e48df8f2fca0500c1bd4cb927" target="_top" xlink:title="engine.actions.AudioClip\lAction.initialize">
<polygon fill="white" stroke="black" points="596,-49 596,-79 730,-79 730,-49 596,-49"/>
<text text-anchor="start" x="604" y="-67" font-family="Helvetica,sans-Serif" font-size="10.00">engine.actions.AudioClip</text>
<text text-anchor="middle" x="663" y="-56" font-family="Helvetica,sans-Serif" font-size="10.00">Action.initialize</text>
</a>
</g>
</g>
<!-- Node4&#45;&gt;Node5 -->
<g id="edge4" class="edge"><title>Node4&#45;&gt;Node5</title>
<path fill="none" stroke="midnightblue" d="M546.012,-64C562.786,-64 580.027,-64 595.917,-64"/>
<polygon fill="midnightblue" stroke="midnightblue" points="545.645,-60.5001 535.645,-64 545.645,-67.5001 545.645,-60.5001"/>
</g>
<!-- Node7 -->
<g id="node7" class="node"><title>Node7</title>
<g id="a_node7"><a xlink:href="../../da/d90/classengine_1_1sound_1_1_sound_utility.html#a21f1f38d8a6e76a788320f4560396775" target="_top" xlink:title="engine.sound.SoundUtility.add\lBackGroundMusic">
<polygon fill="white" stroke="black" points="374.5,-0 374.5,-30 535.5,-30 535.5,-0 374.5,-0"/>
<text text-anchor="start" x="382.5" y="-18" font-family="Helvetica,sans-Serif" font-size="10.00">engine.sound.SoundUtility.add</text>
<text text-anchor="middle" x="455" y="-7" font-family="Helvetica,sans-Serif" font-size="10.00">BackGroundMusic</text>
</a>
</g>
</g>
<!-- Node6&#45;&gt;Node7 -->
<g id="edge6" class="edge"><title>Node6&#45;&gt;Node7</title>
<path fill="none" stroke="midnightblue" d="M348.384,-15C357.062,-15 365.797,-15 374.326,-15"/>
<polygon fill="midnightblue" stroke="midnightblue" points="348.238,-11.5001 338.238,-15 348.238,-18.5001 348.238,-11.5001"/>
</g>
<!-- Node8 -->
<g id="node8" class="node"><title>Node8</title>
<g id="a_node8"><a xlink:href="../../da/d90/classengine_1_1sound_1_1_sound_utility.html#aa4e90b186e13a618fb1a8973061e49ae" target="_top" xlink:title="engine.sound.SoundUtility.initialize\lMusic">
<polygon fill="white" stroke="black" points="572,-0 572,-30 754,-30 754,-0 572,-0"/>
<text text-anchor="start" x="580" y="-18" font-family="Helvetica,sans-Serif" font-size="10.00">engine.sound.SoundUtility.initialize</text>
<text text-anchor="middle" x="663" y="-7" font-family="Helvetica,sans-Serif" font-size="10.00">Music</text>
</a>
</g>
</g>
<!-- Node7&#45;&gt;Node8 -->
<g id="edge7" class="edge"><title>Node7&#45;&gt;Node8</title>
<path fill="none" stroke="midnightblue" d="M545.764,-15C554.447,-15 563.258,-15 571.944,-15"/>
<polygon fill="midnightblue" stroke="midnightblue" points="545.645,-11.5001 535.645,-15 545.645,-18.5001 545.645,-11.5001"/>
</g>
<!-- Node9 -->
<g id="node9" class="node"><title>Node9</title>
<g id="a_node9"><a xlink:href="../../da/d90/classengine_1_1sound_1_1_sound_utility.html#a3aaf5fc7cc7ac828eb3b6438f32c5b83" target="_top" xlink:title="engine.sound.SoundUtility.\lSoundUtility">
<polygon fill="white" stroke="black" points="790.5,-0 790.5,-30 933.5,-30 933.5,-0 790.5,-0"/>
<text text-anchor="start" x="798.5" y="-18" font-family="Helvetica,sans-Serif" font-size="10.00">engine.sound.SoundUtility.</text>
<text text-anchor="middle" x="862" y="-7" font-family="Helvetica,sans-Serif" font-size="10.00">SoundUtility</text>
</a>
</g>
</g>
<!-- Node8&#45;&gt;Node9 -->
<g id="edge8" class="edge"><title>Node8&#45;&gt;Node9</title>
<path fill="none" stroke="midnightblue" d="M764.422,-15C773.187,-15 781.932,-15 790.378,-15"/>
<polygon fill="midnightblue" stroke="midnightblue" points="764.14,-11.5001 754.14,-15 764.14,-18.5001 764.14,-11.5001"/>
</g>
</g>
</svg>
        <g id="navigator" transform="translate(0 0)" fill="#404254">
                <rect fill="#f2f5e9" fill-opacity="0.5" stroke="#606060" stroke-width=".5" x="0" y="0" width="60" height="60"/>
                <use id="zoomplus" xlink:href="#zoomPlus" x="17" y="9" onmousedown="handleZoom(evt,'in')"/>
                <use id="zoomminus" xlink:href="#zoomMin" x="42" y="9" onmousedown="handleZoom(evt,'out')"/>
                <use id="reset" xlink:href="#resetDef" x="30" y="36" onmousedown="handleReset()"/>
                <g id="arrowUp" xlink:href="#dirArrow" transform="translate(30 24)" onmousedown="handlePan(0,-1)">
                  <use xlink:href="#rim" fill="#404040">
                        <set attributeName="fill" to="#808080" begin="arrowUp.mouseover" end="arrowUp.mouseout"/>
                  </use>
                  <path fill="none" stroke="white" stroke-width="1.5" d="M0,-3.0v7 M-2.5,-0.5L0,-3.0L2.5,-0.5"/>
                </g>
                <g id="arrowRight" xlink:href="#dirArrow" transform="rotate(90) translate(36 -43)" onmousedown="handlePan(1,0)">
                  <use xlink:href="#rim" fill="#404040">
                        <set attributeName="fill" to="#808080" begin="arrowRight.mouseover" end="arrowRight.mouseout"/>
                  </use>
                  <path fill="none" stroke="white" stroke-width="1.5" d="M0,-3.0v7 M-2.5,-0.5L0,-3.0L2.5,-0.5"/>
                </g>
                <g id="arrowDown" xlink:href="#dirArrow" transform="rotate(180) translate(-30 -48)" onmousedown="handlePan(0,1)">
                  <use xlink:href="#rim" fill="#404040">
                        <set attributeName="fill" to="#808080" begin="arrowDown.mouseover" end="arrowDown.mouseout"/>
                  </use>
                  <path fill="none" stroke="white" stroke-width="1.5" d="M0,-3.0v7 M-2.5,-0.5L0,-3.0L2.5,-0.5"/>
                </g>
                <g id="arrowLeft" xlink:href="#dirArrow" transform="rotate(270) translate(-36 17)" onmousedown="handlePan(-1,0)">
                  <use xlink:href="#rim" fill="#404040">
                        <set attributeName="fill" to="#808080" begin="arrowLeft.mouseover" end="arrowLeft.mouseout"/>
                  </use>
                  <path fill="none" stroke="white" stroke-width="1.5" d="M0,-3.0v7 M-2.5,-0.5L0,-3.0L2.5,-0.5"/>
                </g>
        </g>
        <svg viewBox="0 0 15 15" width="100%" height="30px" preserveAspectRatio="xMaxYMin meet">
         <g id="arrow_out" transform="scale(0.3 0.3)">
          <a xlink:href="classengine_1_1_file_path_utility_ad8a72da93bd719a750bd549ed92a37d7_icgraph_org.svg" target="_base">
           <rect id="button" ry="5" rx="5" y="6" x="6" height="38" width="38"
                fill="#f2f5e9" fill-opacity="0.5" stroke="#606060" stroke-width="1.0"/>
           <path id="arrow"
             d="M 11.500037,31.436501 C 11.940474,20.09759 22.043105,11.32322 32.158766,21.979434 L 37.068811,17.246167 C 37.068811,17.246167 37.088388,32 37.088388,32 L 22.160133,31.978069 C 22.160133,31.978069 26.997745,27.140456 26.997745,27.140456 C 18.528582,18.264221 13.291696,25.230495 11.500037,31.436501 z"
             style="fill:#404040;"/>
          </a>
         </g>
        </svg>
</svg>
