<?xml version="1.0" encoding="UTF-8" standalone="no"?>
<!DOCTYPE svg PUBLIC "-//W3C//DTD SVG 1.1//EN"
 "http://www.w3.org/Graphics/SVG/1.1/DTD/svg11.dtd">
<!-- Generated by graphviz version 2.36.0 (20140111.2315)
 -->
<!-- Title: engine.render.RenderedNodeFactory.createCollisionBody Pages: 1 -->
<svg width="1594pt" height="405pt"
 viewBox="0.00 0.00 1594.00 405.00" xmlns="http://www.w3.org/2000/svg" xmlns:xlink="http://www.w3.org/1999/xlink">
<g id="graph0" class="graph" transform="scale(1 1) rotate(0) translate(4 401)">
<title>engine.render.RenderedNodeFactory.createCollisionBody</title>
<polygon fill="white" stroke="none" points="-4,4 -4,-401 1590,-401 1590,4 -4,4"/>
<!-- Node1 -->
<g id="node1" class="node"><title>Node1</title>
<polygon fill="#bfbfbf" stroke="black" points="0,-195 0,-225 156,-225 156,-195 0,-195"/>
<text text-anchor="start" x="8" y="-213" font-family="Helvetica,sans-Serif" font-size="10.00">engine.render.RenderedNode</text>
<text text-anchor="middle" x="78" y="-202" font-family="Helvetica,sans-Serif" font-size="10.00">Factory.createCollisionBody</text>
</g>
<!-- Node2 -->
<g id="node2" class="node"><title>Node2</title>
<g id="a_node2"><a xlink:href="../../d5/d30/classengine_1_1render_1_1_rendered_node_factory.html#a359dcce722371dfb49b79528930c1b05" target="_top" xlink:title="engine.render.RenderedNode\lFactory.createRenderedNode">
<polygon fill="white" stroke="black" points="192,-195 192,-225 348,-225 348,-195 192,-195"/>
<text text-anchor="start" x="200" y="-213" font-family="Helvetica,sans-Serif" font-size="10.00">engine.render.RenderedNode</text>
<text text-anchor="middle" x="270" y="-202" font-family="Helvetica,sans-Serif" font-size="10.00">Factory.createRenderedNode</text>
</a>
</g>
</g>
<!-- Node1&#45;&gt;Node2 -->
<g id="edge1" class="edge"><title>Node1&#45;&gt;Node2</title>
<path fill="none" stroke="midnightblue" d="M166.062,-210C174.677,-210 183.38,-210 191.884,-210"/>
<polygon fill="midnightblue" stroke="midnightblue" points="166.006,-206.5 156.006,-210 166.006,-213.5 166.006,-206.5"/>
</g>
<!-- Node3 -->
<g id="node3" class="node"><title>Node3</title>
<g id="a_node3"><a xlink:href="../../dd/d8d/classengine_1_1render_1_1_renderer.html#a569f6bb2f9c218ed015949dff459b1ee" target="_top" xlink:title="engine.render.Renderer.create\lAndAssignRenderedNode">
<polygon fill="white" stroke="black" points="384.5,-195 384.5,-225 545.5,-225 545.5,-195 384.5,-195"/>
<text text-anchor="start" x="392.5" y="-213" font-family="Helvetica,sans-Serif" font-size="10.00">engine.render.Renderer.create</text>
<text text-anchor="middle" x="465" y="-202" font-family="Helvetica,sans-Serif" font-size="10.00">AndAssignRenderedNode</text>
</a>
</g>
</g>
<!-- Node2&#45;&gt;Node3 -->
<g id="edge2" class="edge"><title>Node2&#45;&gt;Node3</title>
<path fill="none" stroke="midnightblue" d="M358.291,-210C367.018,-210 375.846,-210 384.487,-210"/>
<polygon fill="midnightblue" stroke="midnightblue" points="358.111,-206.5 348.111,-210 358.111,-213.5 358.111,-206.5"/>
</g>
<!-- Node4 -->
<g id="node4" class="node"><title>Node4</title>
<g id="a_node4"><a xlink:href="../../d8/dfe/classengine_1_1actions_1_1_change_image_i_d_action.html#a5517685ef0d4cc94928f226255299f78" target="_top" xlink:title="engine.actions.ChangeImage\lIDAction.execute">
<polygon fill="white" stroke="black" points="593,-367 593,-397 749,-397 749,-367 593,-367"/>
<text text-anchor="start" x="601" y="-385" font-family="Helvetica,sans-Serif" font-size="10.00">engine.actions.ChangeImage</text>
<text text-anchor="middle" x="671" y="-374" font-family="Helvetica,sans-Serif" font-size="10.00">IDAction.execute</text>
</a>
</g>
</g>
<!-- Node3&#45;&gt;Node4 -->
<g id="edge3" class="edge"><title>Node3&#45;&gt;Node4</title>
<path fill="none" stroke="midnightblue" d="M478.511,-233.947C496.83,-266.661 534.048,-324.91 582,-357 587.808,-360.887 594.219,-364.176 600.854,-366.958"/>
<polygon fill="midnightblue" stroke="midnightblue" points="481.516,-232.149 473.646,-225.056 475.375,-235.509 481.516,-232.149"/>
</g>
<!-- Node5 -->
<g id="node5" class="node"><title>Node5</title>
<g id="a_node5"><a xlink:href="../../d4/d9f/classengine_1_1actions_1_1_label_int_increment_action.html#ac110c3332e6d26e169e7e45d537a8d3f" target="_top" xlink:title="engine.actions.LabelIntIncrement\lAction.execute">
<polygon fill="white" stroke="black" points="583,-318 583,-348 759,-348 759,-318 583,-318"/>
<text text-anchor="start" x="591" y="-336" font-family="Helvetica,sans-Serif" font-size="10.00">engine.actions.LabelIntIncrement</text>
<text text-anchor="middle" x="671" y="-325" font-family="Helvetica,sans-Serif" font-size="10.00">Action.execute</text>
</a>
</g>
</g>
<!-- Node3&#45;&gt;Node5 -->
<g id="edge4" class="edge"><title>Node3&#45;&gt;Node5</title>
<path fill="none" stroke="midnightblue" d="M486.945,-232.596C508.706,-254.803 544.736,-288.165 582,-308 589.15,-311.806 596.944,-315.088 604.841,-317.903"/>
<polygon fill="midnightblue" stroke="midnightblue" points="489.323,-230.02 479.864,-225.246 484.282,-234.876 489.323,-230.02"/>
</g>
<!-- Node6 -->
<g id="node6" class="node"><title>Node6</title>
<g id="a_node6"><a xlink:href="../../dd/d57/classengine_1_1actions_1_1_make_new_object_from_location_action.html#a2ebd225d5e10817ac79f4044867afa98" target="_top" xlink:title="engine.actions.MakeNewObject\lFromLocationAction.execute">
<polygon fill="white" stroke="black" points="588,-269 588,-299 754,-299 754,-269 588,-269"/>
<text text-anchor="start" x="596" y="-287" font-family="Helvetica,sans-Serif" font-size="10.00">engine.actions.MakeNewObject</text>
<text text-anchor="middle" x="671" y="-276" font-family="Helvetica,sans-Serif" font-size="10.00">FromLocationAction.execute</text>
</a>
</g>
</g>
<!-- Node3&#45;&gt;Node6 -->
<g id="edge5" class="edge"><title>Node3&#45;&gt;Node6</title>
<path fill="none" stroke="midnightblue" d="M507.89,-229.165C529.729,-238.78 557.029,-250.216 582,-259 591.888,-262.478 602.527,-265.825 612.872,-268.876"/>
<polygon fill="midnightblue" stroke="midnightblue" points="509.139,-225.89 498.579,-225.031 506.298,-232.288 509.139,-225.89"/>
</g>
<!-- Node7 -->
<g id="node7" class="node"><title>Node7</title>
<g id="a_node7"><a xlink:href="../../db/d61/classengine_1_1actions_1_1_make_new_object_from_object_action.html#a01ffb165d6169f7b0a22733e2b6c61a9" target="_top" xlink:title="engine.actions.MakeNewObject\lFromObjectAction.execute">
<polygon fill="white" stroke="black" points="588,-220 588,-250 754,-250 754,-220 588,-220"/>
<text text-anchor="start" x="596" y="-238" font-family="Helvetica,sans-Serif" font-size="10.00">engine.actions.MakeNewObject</text>
<text text-anchor="middle" x="671" y="-227" font-family="Helvetica,sans-Serif" font-size="10.00">FromObjectAction.execute</text>
</a>
</g>
</g>
<!-- Node3&#45;&gt;Node7 -->
<g id="edge6" class="edge"><title>Node3&#45;&gt;Node7</title>
<path fill="none" stroke="midnightblue" d="M555.902,-221.017C566.566,-222.324 577.409,-223.653 587.955,-224.946"/>
<polygon fill="midnightblue" stroke="midnightblue" points="556.1,-217.516 545.748,-219.773 555.248,-224.464 556.1,-217.516"/>
</g>
<!-- Node8 -->
<g id="node8" class="node"><title>Node8</title>
<g id="a_node8"><a xlink:href="../../da/d16/classengine_1_1actions_1_1_make_new_random_object_action.html#a82ccd5604bd05170e416e41b32020f00" target="_top" xlink:title="engine.actions.MakeNewRandom\lObjectAction.makeRandomObject">
<polygon fill="white" stroke="black" points="582,-171 582,-201 760,-201 760,-171 582,-171"/>
<text text-anchor="start" x="590" y="-189" font-family="Helvetica,sans-Serif" font-size="10.00">engine.actions.MakeNewRandom</text>
<text text-anchor="middle" x="671" y="-178" font-family="Helvetica,sans-Serif" font-size="10.00">ObjectAction.makeRandomObject</text>
</a>
</g>
</g>
<!-- Node3&#45;&gt;Node8 -->
<g id="edge7" class="edge"><title>Node3&#45;&gt;Node8</title>
<path fill="none" stroke="midnightblue" d="M555.828,-199.432C564.473,-198.415 573.237,-197.384 581.865,-196.369"/>
<polygon fill="midnightblue" stroke="midnightblue" points="555.271,-195.973 545.748,-200.618 556.089,-202.925 555.271,-195.973"/>
</g>
<!-- Node10 -->
<g id="node10" class="node"><title>Node10</title>
<g id="a_node10"><a xlink:href="../../db/db5/classengine_1_1actions_1_1render_1_1_change_image_type_action.html#a09110a0a08bac229b9e2feddf1d3378c" target="_top" xlink:title="engine.actions.render.Change\lImageTypeAction.execute">
<polygon fill="white" stroke="black" points="591,-122 591,-152 751,-152 751,-122 591,-122"/>
<text text-anchor="start" x="599" y="-140" font-family="Helvetica,sans-Serif" font-size="10.00">engine.actions.render.Change</text>
<text text-anchor="middle" x="671" y="-129" font-family="Helvetica,sans-Serif" font-size="10.00">ImageTypeAction.execute</text>
</a>
</g>
</g>
<!-- Node3&#45;&gt;Node10 -->
<g id="edge9" class="edge"><title>Node3&#45;&gt;Node10</title>
<path fill="none" stroke="midnightblue" d="M508.636,-190.972C530.365,-181.63 557.343,-170.572 582,-162 592.051,-158.506 602.869,-155.128 613.363,-152.046"/>
<polygon fill="midnightblue" stroke="midnightblue" points="507.143,-187.804 499.359,-194.992 509.927,-194.227 507.143,-187.804"/>
</g>
<!-- Node11 -->
<g id="node11" class="node"><title>Node11</title>
<g id="a_node11"><a xlink:href="../../d3/dbb/classengine_1_1actions_1_1render_1_1_paint_canvas.html#a3f4cb25dfb09aa686debf838e806b010" target="_top" xlink:title="engine.actions.render.Paint\lCanvas.applyRender">
<polygon fill="white" stroke="black" points="598,-73 598,-103 744,-103 744,-73 598,-73"/>
<text text-anchor="start" x="606" y="-91" font-family="Helvetica,sans-Serif" font-size="10.00">engine.actions.render.Paint</text>
<text text-anchor="middle" x="671" y="-80" font-family="Helvetica,sans-Serif" font-size="10.00">Canvas.applyRender</text>
</a>
</g>
</g>
<!-- Node3&#45;&gt;Node11 -->
<g id="edge10" class="edge"><title>Node3&#45;&gt;Node11</title>
<path fill="none" stroke="midnightblue" d="M486.99,-187.645C508.787,-165.672 544.844,-132.657 582,-113 589.16,-109.212 596.959,-105.941 604.86,-103.132"/>
<polygon fill="midnightblue" stroke="midnightblue" points="484.375,-185.314 479.897,-194.917 489.385,-190.202 484.375,-185.314"/>
</g>
<!-- Node12 -->
<g id="node12" class="node"><title>Node12</title>
<g id="a_node12"><a xlink:href="../../dd/d8d/classengine_1_1render_1_1_renderer.html#a189dda9a8463274afe267959860f0dee" target="_top" xlink:title="engine.render.Renderer.render\lGameObjects">
<polygon fill="white" stroke="black" points="590,-24 590,-54 752,-54 752,-24 590,-24"/>
<text text-anchor="start" x="598" y="-42" font-family="Helvetica,sans-Serif" font-size="10.00">engine.render.Renderer.render</text>
<text text-anchor="middle" x="671" y="-31" font-family="Helvetica,sans-Serif" font-size="10.00">GameObjects</text>
</a>
</g>
</g>
<!-- Node3&#45;&gt;Node12 -->
<g id="edge11" class="edge"><title>Node3&#45;&gt;Node12</title>
<path fill="none" stroke="midnightblue" d="M478.837,-185.715C497.304,-153.135 534.441,-95.7127 582,-64 587.814,-60.1231 594.229,-56.8403 600.867,-54.062"/>
<polygon fill="midnightblue" stroke="midnightblue" points="475.705,-184.145 473.921,-194.588 481.829,-187.537 475.705,-184.145"/>
</g>
<!-- Node9 -->
<g id="node9" class="node"><title>Node9</title>
<g id="a_node9"><a xlink:href="../../da/d16/classengine_1_1actions_1_1_make_new_random_object_action.html#aa831c4b818ed75f812bf8ba0d453c942" target="_top" xlink:title="engine.actions.MakeNewRandom\lObjectAction.execute">
<polygon fill="white" stroke="black" points="800.5,-171 800.5,-201 975.5,-201 975.5,-171 800.5,-171"/>
<text text-anchor="start" x="808.5" y="-189" font-family="Helvetica,sans-Serif" font-size="10.00">engine.actions.MakeNewRandom</text>
<text text-anchor="middle" x="888" y="-178" font-family="Helvetica,sans-Serif" font-size="10.00">ObjectAction.execute</text>
</a>
</g>
</g>
<!-- Node8&#45;&gt;Node9 -->
<g id="edge8" class="edge"><title>Node8&#45;&gt;Node9</title>
<path fill="none" stroke="midnightblue" d="M770.135,-186C780.252,-186 790.48,-186 800.458,-186"/>
<polygon fill="midnightblue" stroke="midnightblue" points="770.069,-182.5 760.069,-186 770.069,-189.5 770.069,-182.5"/>
</g>
<!-- Node13 -->
<g id="node13" class="node"><title>Node13</title>
<g id="a_node13"><a xlink:href="../../df/d67/classengine_1_1level_1_1_level_manager.html#a523599892453015eed0f1b506979af8a" target="_top" xlink:title="engine.level.LevelManager.initialize\lCurrentLevel">
<polygon fill="white" stroke="black" points="796,-24 796,-54 980,-54 980,-24 796,-24"/>
<text text-anchor="start" x="804" y="-42" font-family="Helvetica,sans-Serif" font-size="10.00">engine.level.LevelManager.initialize</text>
<text text-anchor="middle" x="888" y="-31" font-family="Helvetica,sans-Serif" font-size="10.00">CurrentLevel</text>
</a>
</g>
</g>
<!-- Node12&#45;&gt;Node13 -->
<g id="edge12" class="edge"><title>Node12&#45;&gt;Node13</title>
<path fill="none" stroke="midnightblue" d="M762.147,-39C773.224,-39 784.555,-39 795.65,-39"/>
<polygon fill="midnightblue" stroke="midnightblue" points="762.058,-35.5001 752.058,-39 762.058,-42.5001 762.058,-35.5001"/>
</g>
<!-- Node14 -->
<g id="node14" class="node"><title>Node14</title>
<g id="a_node14"><a xlink:href="../../df/d67/classengine_1_1level_1_1_level_manager.html#a1d0f314bbf304bf86067ab87b832d2e0" target="_top" xlink:title="engine.level.LevelManager.find\lAndSetStartLevel">
<polygon fill="white" stroke="black" points="1016.5,-49 1016.5,-79 1179.5,-79 1179.5,-49 1016.5,-49"/>
<text text-anchor="start" x="1024.5" y="-67" font-family="Helvetica,sans-Serif" font-size="10.00">engine.level.LevelManager.find</text>
<text text-anchor="middle" x="1098" y="-56" font-family="Helvetica,sans-Serif" font-size="10.00">AndSetStartLevel</text>
</a>
</g>
</g>
<!-- Node13&#45;&gt;Node14 -->
<g id="edge13" class="edge"><title>Node13&#45;&gt;Node14</title>
<path fill="none" stroke="midnightblue" d="M990.403,-51.1878C999.089,-52.2318 1007.8,-53.2787 1016.29,-54.2994"/>
<polygon fill="midnightblue" stroke="midnightblue" points="990.578,-47.6838 980.232,-49.9654 989.743,-54.6338 990.578,-47.6838"/>
</g>
<!-- Node16 -->
<g id="node16" class="node"><title>Node16</title>
<g id="a_node16"><a xlink:href="../../df/d67/classengine_1_1level_1_1_level_manager.html#ad89101547413fe335873b050fd091c79" target="_top" xlink:title="engine.level.LevelManager.set\lCurrentLevel">
<polygon fill="white" stroke="black" points="1017.5,-0 1017.5,-30 1178.5,-30 1178.5,-0 1017.5,-0"/>
<text text-anchor="start" x="1025.5" y="-18" font-family="Helvetica,sans-Serif" font-size="10.00">engine.level.LevelManager.set</text>
<text text-anchor="middle" x="1098" y="-7" font-family="Helvetica,sans-Serif" font-size="10.00">CurrentLevel</text>
</a>
</g>
</g>
<!-- Node13&#45;&gt;Node16 -->
<g id="edge15" class="edge"><title>Node13&#45;&gt;Node16</title>
<path fill="none" stroke="midnightblue" d="M990.39,-27.3012C999.41,-26.2604 1008.46,-25.2166 1017.26,-24.2011"/>
<polygon fill="midnightblue" stroke="midnightblue" points="989.765,-23.85 980.232,-28.4733 990.567,-30.8039 989.765,-23.85"/>
</g>
<!-- Node15 -->
<g id="node15" class="node"><title>Node15</title>
<g id="a_node15"><a xlink:href="../../df/d67/classengine_1_1level_1_1_level_manager.html#a587b50d02654d70122a28bcda169bb8d" target="_top" xlink:title="engine.level.LevelManager.\lLevelManager">
<polygon fill="white" stroke="black" points="1234,-49 1234,-79 1380,-79 1380,-49 1234,-49"/>
<text text-anchor="start" x="1242" y="-67" font-family="Helvetica,sans-Serif" font-size="10.00">engine.level.LevelManager.</text>
<text text-anchor="middle" x="1307" y="-56" font-family="Helvetica,sans-Serif" font-size="10.00">LevelManager</text>
</a>
</g>
</g>
<!-- Node14&#45;&gt;Node15 -->
<g id="edge14" class="edge"><title>Node14&#45;&gt;Node15</title>
<path fill="none" stroke="midnightblue" d="M1189.74,-64C1204.44,-64 1219.5,-64 1233.69,-64"/>
<polygon fill="midnightblue" stroke="midnightblue" points="1189.62,-60.5001 1179.62,-64 1189.62,-67.5001 1189.62,-60.5001"/>
</g>
<!-- Node17 -->
<g id="node17" class="node"><title>Node17</title>
<g id="a_node17"><a xlink:href="../../df/d67/classengine_1_1level_1_1_level_manager.html#ad3c392cf6260c53428255fb596442692" target="_top" xlink:title="engine.level.LevelManager.change\lToLevel">
<polygon fill="white" stroke="black" points="1216.5,-0 1216.5,-30 1397.5,-30 1397.5,-0 1216.5,-0"/>
<text text-anchor="start" x="1224.5" y="-18" font-family="Helvetica,sans-Serif" font-size="10.00">engine.level.LevelManager.change</text>
<text text-anchor="middle" x="1307" y="-7" font-family="Helvetica,sans-Serif" font-size="10.00">ToLevel</text>
</a>
</g>
</g>
<!-- Node16&#45;&gt;Node17 -->
<g id="edge16" class="edge"><title>Node16&#45;&gt;Node17</title>
<path fill="none" stroke="midnightblue" d="M1188.92,-15C1198,-15 1207.23,-15 1216.31,-15"/>
<polygon fill="midnightblue" stroke="midnightblue" points="1188.74,-11.5001 1178.74,-15 1188.74,-18.5001 1188.74,-11.5001"/>
</g>
<!-- Node18 -->
<g id="node18" class="node"><title>Node18</title>
<g id="a_node18"><a xlink:href="../../d1/d73/classengine_1_1actions_1_1_change_level_action.html#a8190adf308768b0d12f6432d0cf0fbc4" target="_top" xlink:title="engine.actions.ChangeLevel\lAction.execute">
<polygon fill="white" stroke="black" points="1434.5,-0 1434.5,-30 1585.5,-30 1585.5,-0 1434.5,-0"/>
<text text-anchor="start" x="1442.5" y="-18" font-family="Helvetica,sans-Serif" font-size="10.00">engine.actions.ChangeLevel</text>
<text text-anchor="middle" x="1510" y="-7" font-family="Helvetica,sans-Serif" font-size="10.00">Action.execute</text>
</a>
</g>
</g>
<!-- Node17&#45;&gt;Node18 -->
<g id="edge17" class="edge"><title>Node17&#45;&gt;Node18</title>
<path fill="none" stroke="midnightblue" d="M1407.71,-15C1416.65,-15 1425.61,-15 1434.29,-15"/>
<polygon fill="midnightblue" stroke="midnightblue" points="1407.62,-11.5001 1397.62,-15 1407.62,-18.5001 1407.62,-11.5001"/>
</g>
</g>
</svg>
