<?xml version="1.0" encoding="UTF-8" standalone="no"?>
<!DOCTYPE svg PUBLIC "-//W3C//DTD SVG 1.1//EN"
 "http://www.w3.org/Graphics/SVG/1.1/DTD/svg11.dtd">
<!-- Generated by graphviz version 2.36.0 (20140111.2315)
 -->
<!-- Title: engine.render.RenderedNodeFactory.createImageAndView Pages: 1 -->
<!--zoomable 405 -->
<svg id="main" version="1.1" xmlns="http://www.w3.org/2000/svg" xmlns:xlink="http://www.w3.org/1999/xlink" xml:space="preserve" onload="init(evt)">
<style type="text/css"><![CDATA[
.edge:hover path { stroke: red; }
.edge:hover polygon { stroke: red; fill: red; }
]]></style>
<script type="text/javascript"><![CDATA[
var edges = document.getElementsByTagName('g');
if (edges && edges.length) {
  for (var i=0;i<edges.length;i++) {
    if (edges[i].id.substr(0,4)=='edge') {
      edges[i].setAttribute('class','edge');
    }
  }
}
]]></script>
        <defs>
                <circle id="rim" cx="0" cy="0" r="7"/>
                <circle id="rim2" cx="0" cy="0" r="3.5"/>
                <g id="zoomPlus">
                        <use xlink:href="#rim" fill="#404040">
                                <set attributeName="fill" to="#808080" begin="zoomplus.mouseover" end="zoomplus.mouseout"/>
                        </use>
                        <path d="M-4,0h8M0,-4v8" fill="none" stroke="white" stroke-width="1.5" pointer-events="none"/>
                </g>
                <g id="zoomMin">
                        <use xlink:href="#rim" fill="#404040">
                                <set attributeName="fill" to="#808080" begin="zoomminus.mouseover" end="zoomminus.mouseout"/>
                        </use>
                        <path d="M-4,0h8" fill="none" stroke="white" stroke-width="1.5" pointer-events="none"/>
                </g>
                <g id="dirArrow">
                        <path fill="none" stroke="white" stroke-width="1.5" d="M0,-3.0v7 M-2.5,-0.5L0,-3.0L2.5,-0.5"/>
                </g>
               <g id="resetDef">
                       <use xlink:href="#rim2" fill="#404040">
                               <set attributeName="fill" to="#808080" begin="reset.mouseover" end="reset.mouseout"/>
                       </use>
               </g>
        </defs>

<script type="text/javascript">
var viewWidth = 1594;
var viewHeight = 405;
var sectionId = 'dynsection-4';
</script>
<script xlink:href="../../svgpan.js"/>
<svg id="graph" class="graph">
<g id="viewport">
<title>engine.render.RenderedNodeFactory.createImageAndView</title>
<polygon fill="white" stroke="none" points="-4,4 -4,-401 1590,-401 1590,4 -4,4"/>
<!-- Node1 -->
<g id="node1" class="node"><title>Node1</title>
<polygon fill="#bfbfbf" stroke="black" points="0,-97 0,-127 156,-127 156,-97 0,-97"/>
<text text-anchor="start" x="8" y="-115" font-family="Helvetica,sans-Serif" font-size="10.00">engine.render.RenderedNode</text>
<text text-anchor="middle" x="78" y="-104" font-family="Helvetica,sans-Serif" font-size="10.00">Factory.createImageAndView</text>
</g>
<!-- Node2 -->
<g id="node2" class="node"><title>Node2</title>
<g id="a_node2"><a xlink:href="../../d5/d30/classengine_1_1render_1_1_rendered_node_factory.html#a359dcce722371dfb49b79528930c1b05" target="_top" xlink:title="engine.render.RenderedNode\lFactory.createRenderedNode">
<polygon fill="white" stroke="black" points="192,-120 192,-150 348,-150 348,-120 192,-120"/>
<text text-anchor="start" x="200" y="-138" font-family="Helvetica,sans-Serif" font-size="10.00">engine.render.RenderedNode</text>
<text text-anchor="middle" x="270" y="-127" font-family="Helvetica,sans-Serif" font-size="10.00">Factory.createRenderedNode</text>
</a>
</g>
</g>
<!-- Node1&#45;&gt;Node2 -->
<g id="edge1" class="edge"><title>Node1&#45;&gt;Node2</title>
<path fill="none" stroke="midnightblue" d="M166.062,-122.539C174.677,-123.582 183.38,-124.635 191.884,-125.665"/>
<polygon fill="midnightblue" stroke="midnightblue" points="166.355,-119.049 156.006,-121.322 165.513,-125.998 166.355,-119.049"/>
</g>
<!-- Node19 -->
<g id="node19" class="node"><title>Node19</title>
<g id="a_node19"><a xlink:href="../../dd/d8d/classengine_1_1render_1_1_renderer.html#a10b850c208c44a1137b099d1967c6e9b" target="_top" xlink:title="engine.render.Renderer.set\lBackGroundImage">
<polygon fill="white" stroke="black" points="392,-73 392,-103 538,-103 538,-73 392,-73"/>
<text text-anchor="start" x="400" y="-91" font-family="Helvetica,sans-Serif" font-size="10.00">engine.render.Renderer.set</text>
<text text-anchor="middle" x="465" y="-80" font-family="Helvetica,sans-Serif" font-size="10.00">BackGroundImage</text>
</a>
</g>
</g>
<!-- Node1&#45;&gt;Node19 -->
<g id="edge18" class="edge"><title>Node1&#45;&gt;Node19</title>
<path fill="none" stroke="midnightblue" d="M166.729,-106.531C234.829,-102.286 328.088,-96.4725 391.882,-92.4957"/>
<polygon fill="midnightblue" stroke="midnightblue" points="166.21,-103.057 156.447,-107.172 166.646,-110.043 166.21,-103.057"/>
</g>
<!-- Node3 -->
<g id="node3" class="node"><title>Node3</title>
<g id="a_node3"><a xlink:href="../../dd/d8d/classengine_1_1render_1_1_renderer.html#a569f6bb2f9c218ed015949dff459b1ee" target="_top" xlink:title="engine.render.Renderer.create\lAndAssignRenderedNode">
<polygon fill="white" stroke="black" points="384.5,-171 384.5,-201 545.5,-201 545.5,-171 384.5,-171"/>
<text text-anchor="start" x="392.5" y="-189" font-family="Helvetica,sans-Serif" font-size="10.00">engine.render.Renderer.create</text>
<text text-anchor="middle" x="465" y="-178" font-family="Helvetica,sans-Serif" font-size="10.00">AndAssignRenderedNode</text>
</a>
</g>
</g>
<!-- Node2&#45;&gt;Node3 -->
<g id="edge2" class="edge"><title>Node2&#45;&gt;Node3</title>
<path fill="none" stroke="midnightblue" d="M337.734,-152.634C360.368,-158.615 385.425,-165.237 407.211,-170.994"/>
<polygon fill="midnightblue" stroke="midnightblue" points="338.425,-149.197 327.862,-150.026 336.636,-155.965 338.425,-149.197"/>
</g>
<!-- Node4 -->
<g id="node4" class="node"><title>Node4</title>
<g id="a_node4"><a xlink:href="../../d8/dfe/classengine_1_1actions_1_1_change_image_i_d_action.html#a5517685ef0d4cc94928f226255299f78" target="_top" xlink:title="engine.actions.ChangeImage\lIDAction.execute">
<polygon fill="white" stroke="black" points="593,-367 593,-397 749,-397 749,-367 593,-367"/>
<text text-anchor="start" x="601" y="-385" font-family="Helvetica,sans-Serif" font-size="10.00">engine.actions.ChangeImage</text>
<text text-anchor="middle" x="671" y="-374" font-family="Helvetica,sans-Serif" font-size="10.00">IDAction.execute</text>
</a>
</g>
</g>
<!-- Node3&#45;&gt;Node4 -->
<g id="edge3" class="edge"><title>Node3&#45;&gt;Node4</title>
<path fill="none" stroke="midnightblue" d="M476.112,-210.799C492.635,-248.188 528.978,-318.684 582,-357 587.407,-360.907 593.408,-364.205 599.663,-366.989"/>
<polygon fill="midnightblue" stroke="midnightblue" points="479.145,-208.991 471.98,-201.186 472.714,-211.755 479.145,-208.991"/>
</g>
<!-- Node5 -->
<g id="node5" class="node"><title>Node5</title>
<g id="a_node5"><a xlink:href="../../d4/d9f/classengine_1_1actions_1_1_label_int_increment_action.html#ac110c3332e6d26e169e7e45d537a8d3f" target="_top" xlink:title="engine.actions.LabelIntIncrement\lAction.execute">
<polygon fill="white" stroke="black" points="583,-318 583,-348 759,-348 759,-318 583,-318"/>
<text text-anchor="start" x="591" y="-336" font-family="Helvetica,sans-Serif" font-size="10.00">engine.actions.LabelIntIncrement</text>
<text text-anchor="middle" x="671" y="-325" font-family="Helvetica,sans-Serif" font-size="10.00">Action.execute</text>
</a>
</g>
</g>
<!-- Node3&#45;&gt;Node5 -->
<g id="edge4" class="edge"><title>Node3&#45;&gt;Node5</title>
<path fill="none" stroke="midnightblue" d="M482.21,-209.527C502.435,-237.123 539.569,-282.352 582,-308 588.388,-311.862 595.397,-315.148 602.583,-317.94"/>
<polygon fill="midnightblue" stroke="midnightblue" points="484.929,-207.314 476.252,-201.234 479.244,-211.398 484.929,-207.314"/>
</g>
<!-- Node6 -->
<g id="node6" class="node"><title>Node6</title>
<g id="a_node6"><a xlink:href="../../dd/d57/classengine_1_1actions_1_1_make_new_object_from_location_action.html#a2ebd225d5e10817ac79f4044867afa98" target="_top" xlink:title="engine.actions.MakeNewObject\lFromLocationAction.execute">
<polygon fill="white" stroke="black" points="588,-269 588,-299 754,-299 754,-269 588,-269"/>
<text text-anchor="start" x="596" y="-287" font-family="Helvetica,sans-Serif" font-size="10.00">engine.actions.MakeNewObject</text>
<text text-anchor="middle" x="671" y="-276" font-family="Helvetica,sans-Serif" font-size="10.00">FromLocationAction.execute</text>
</a>
</g>
</g>
<!-- Node3&#45;&gt;Node6 -->
<g id="edge5" class="edge"><title>Node3&#45;&gt;Node6</title>
<path fill="none" stroke="midnightblue" d="M494.126,-206.917C516.86,-223.011 550.201,-244.828 582,-259 590.414,-262.75 599.532,-266.084 608.604,-268.998"/>
<polygon fill="midnightblue" stroke="midnightblue" points="496.123,-204.042 485.958,-201.056 492.043,-209.729 496.123,-204.042"/>
</g>
<!-- Node7 -->
<g id="node7" class="node"><title>Node7</title>
<g id="a_node7"><a xlink:href="../../db/d61/classengine_1_1actions_1_1_make_new_object_from_object_action.html#a01ffb165d6169f7b0a22733e2b6c61a9" target="_top" xlink:title="engine.actions.MakeNewObject\lFromObjectAction.execute">
<polygon fill="white" stroke="black" points="588,-220 588,-250 754,-250 754,-220 588,-220"/>
<text text-anchor="start" x="596" y="-238" font-family="Helvetica,sans-Serif" font-size="10.00">engine.actions.MakeNewObject</text>
<text text-anchor="middle" x="671" y="-227" font-family="Helvetica,sans-Serif" font-size="10.00">FromObjectAction.execute</text>
</a>
</g>
</g>
<!-- Node3&#45;&gt;Node7 -->
<g id="edge6" class="edge"><title>Node3&#45;&gt;Node7</title>
<path fill="none" stroke="midnightblue" d="M538.457,-203.404C561.024,-208.824 585.702,-214.752 607.525,-219.994"/>
<polygon fill="midnightblue" stroke="midnightblue" points="539.134,-199.967 528.593,-201.035 537.499,-206.773 539.134,-199.967"/>
</g>
<!-- Node8 -->
<g id="node8" class="node"><title>Node8</title>
<g id="a_node8"><a xlink:href="../../da/d16/classengine_1_1actions_1_1_make_new_random_object_action.html#a82ccd5604bd05170e416e41b32020f00" target="_top" xlink:title="engine.actions.MakeNewRandom\lObjectAction.makeRandomObject">
<polygon fill="white" stroke="black" points="582,-171 582,-201 760,-201 760,-171 582,-171"/>
<text text-anchor="start" x="590" y="-189" font-family="Helvetica,sans-Serif" font-size="10.00">engine.actions.MakeNewRandom</text>
<text text-anchor="middle" x="671" y="-178" font-family="Helvetica,sans-Serif" font-size="10.00">ObjectAction.makeRandomObject</text>
</a>
</g>
</g>
<!-- Node3&#45;&gt;Node8 -->
<g id="edge7" class="edge"><title>Node3&#45;&gt;Node8</title>
<path fill="none" stroke="midnightblue" d="M555.828,-186C564.473,-186 573.237,-186 581.865,-186"/>
<polygon fill="midnightblue" stroke="midnightblue" points="555.748,-182.5 545.748,-186 555.748,-189.5 555.748,-182.5"/>
</g>
<!-- Node10 -->
<g id="node10" class="node"><title>Node10</title>
<g id="a_node10"><a xlink:href="../../db/db5/classengine_1_1actions_1_1render_1_1_change_image_type_action.html#a09110a0a08bac229b9e2feddf1d3378c" target="_top" xlink:title="engine.actions.render.Change\lImageTypeAction.execute">
<polygon fill="white" stroke="black" points="591,-122 591,-152 751,-152 751,-122 591,-122"/>
<text text-anchor="start" x="599" y="-140" font-family="Helvetica,sans-Serif" font-size="10.00">engine.actions.render.Change</text>
<text text-anchor="middle" x="671" y="-129" font-family="Helvetica,sans-Serif" font-size="10.00">ImageTypeAction.execute</text>
</a>
</g>
</g>
<!-- Node3&#45;&gt;Node10 -->
<g id="edge9" class="edge"><title>Node3&#45;&gt;Node10</title>
<path fill="none" stroke="midnightblue" d="M538.457,-168.596C561.024,-163.176 585.702,-157.248 607.525,-152.006"/>
<polygon fill="midnightblue" stroke="midnightblue" points="537.499,-165.227 528.593,-170.965 539.134,-172.033 537.499,-165.227"/>
</g>
<!-- Node11 -->
<g id="node11" class="node"><title>Node11</title>
<g id="a_node11"><a xlink:href="../../d3/dbb/classengine_1_1actions_1_1render_1_1_paint_canvas.html#a3f4cb25dfb09aa686debf838e806b010" target="_top" xlink:title="engine.actions.render.Paint\lCanvas.applyRender">
<polygon fill="white" stroke="black" points="598,-73 598,-103 744,-103 744,-73 598,-73"/>
<text text-anchor="start" x="606" y="-91" font-family="Helvetica,sans-Serif" font-size="10.00">engine.actions.render.Paint</text>
<text text-anchor="middle" x="671" y="-80" font-family="Helvetica,sans-Serif" font-size="10.00">Canvas.applyRender</text>
</a>
</g>
</g>
<!-- Node3&#45;&gt;Node11 -->
<g id="edge10" class="edge"><title>Node3&#45;&gt;Node11</title>
<path fill="none" stroke="midnightblue" d="M493.629,-164.979C516.323,-148.572 549.852,-126.243 582,-112 589.529,-108.664 597.63,-105.694 605.76,-103.077"/>
<polygon fill="midnightblue" stroke="midnightblue" points="491.483,-162.213 485.488,-170.948 495.622,-167.858 491.483,-162.213"/>
</g>
<!-- Node12 -->
<g id="node12" class="node"><title>Node12</title>
<g id="a_node12"><a xlink:href="../../dd/d8d/classengine_1_1render_1_1_renderer.html#a189dda9a8463274afe267959860f0dee" target="_top" xlink:title="engine.render.Renderer.render\lGameObjects">
<polygon fill="white" stroke="black" points="590,-24 590,-54 752,-54 752,-24 590,-24"/>
<text text-anchor="start" x="598" y="-42" font-family="Helvetica,sans-Serif" font-size="10.00">engine.render.Renderer.render</text>
<text text-anchor="middle" x="671" y="-31" font-family="Helvetica,sans-Serif" font-size="10.00">GameObjects</text>
</a>
</g>
</g>
<!-- Node3&#45;&gt;Node12 -->
<g id="edge11" class="edge"><title>Node3&#45;&gt;Node12</title>
<path fill="none" stroke="midnightblue" d="M492.419,-163.842C508.617,-149.717 529.366,-130.626 546,-112 564.001,-91.8445 559.723,-78.2967 582,-63 586.961,-59.5937 592.388,-56.6699 598.033,-54.1603"/>
<polygon fill="midnightblue" stroke="midnightblue" points="489.698,-161.567 484.41,-170.747 494.269,-166.868 489.698,-161.567"/>
</g>
<!-- Node9 -->
<g id="node9" class="node"><title>Node9</title>
<g id="a_node9"><a xlink:href="../../da/d16/classengine_1_1actions_1_1_make_new_random_object_action.html#aa831c4b818ed75f812bf8ba0d453c942" target="_top" xlink:title="engine.actions.MakeNewRandom\lObjectAction.execute">
<polygon fill="white" stroke="black" points="800.5,-171 800.5,-201 975.5,-201 975.5,-171 800.5,-171"/>
<text text-anchor="start" x="808.5" y="-189" font-family="Helvetica,sans-Serif" font-size="10.00">engine.actions.MakeNewRandom</text>
<text text-anchor="middle" x="888" y="-178" font-family="Helvetica,sans-Serif" font-size="10.00">ObjectAction.execute</text>
</a>
</g>
</g>
<!-- Node8&#45;&gt;Node9 -->
<g id="edge8" class="edge"><title>Node8&#45;&gt;Node9</title>
<path fill="none" stroke="midnightblue" d="M770.135,-186C780.252,-186 790.48,-186 800.458,-186"/>
<polygon fill="midnightblue" stroke="midnightblue" points="770.069,-182.5 760.069,-186 770.069,-189.5 770.069,-182.5"/>
</g>
<!-- Node13 -->
<g id="node13" class="node"><title>Node13</title>
<g id="a_node13"><a xlink:href="../../df/d67/classengine_1_1level_1_1_level_manager.html#a523599892453015eed0f1b506979af8a" target="_top" xlink:title="engine.level.LevelManager.initialize\lCurrentLevel">
<polygon fill="white" stroke="black" points="796,-24 796,-54 980,-54 980,-24 796,-24"/>
<text text-anchor="start" x="804" y="-42" font-family="Helvetica,sans-Serif" font-size="10.00">engine.level.LevelManager.initialize</text>
<text text-anchor="middle" x="888" y="-31" font-family="Helvetica,sans-Serif" font-size="10.00">CurrentLevel</text>
</a>
</g>
</g>
<!-- Node12&#45;&gt;Node13 -->
<g id="edge12" class="edge"><title>Node12&#45;&gt;Node13</title>
<path fill="none" stroke="midnightblue" d="M762.147,-39C773.224,-39 784.555,-39 795.65,-39"/>
<polygon fill="midnightblue" stroke="midnightblue" points="762.058,-35.5001 752.058,-39 762.058,-42.5001 762.058,-35.5001"/>
</g>
<!-- Node14 -->
<g id="node14" class="node"><title>Node14</title>
<g id="a_node14"><a xlink:href="../../df/d67/classengine_1_1level_1_1_level_manager.html#a1d0f314bbf304bf86067ab87b832d2e0" target="_top" xlink:title="engine.level.LevelManager.find\lAndSetStartLevel">
<polygon fill="white" stroke="black" points="1016.5,-49 1016.5,-79 1179.5,-79 1179.5,-49 1016.5,-49"/>
<text text-anchor="start" x="1024.5" y="-67" font-family="Helvetica,sans-Serif" font-size="10.00">engine.level.LevelManager.find</text>
<text text-anchor="middle" x="1098" y="-56" font-family="Helvetica,sans-Serif" font-size="10.00">AndSetStartLevel</text>
</a>
</g>
</g>
<!-- Node13&#45;&gt;Node14 -->
<g id="edge13" class="edge"><title>Node13&#45;&gt;Node14</title>
<path fill="none" stroke="midnightblue" d="M990.403,-51.1878C999.089,-52.2318 1007.8,-53.2787 1016.29,-54.2994"/>
<polygon fill="midnightblue" stroke="midnightblue" points="990.578,-47.6838 980.232,-49.9654 989.743,-54.6338 990.578,-47.6838"/>
</g>
<!-- Node16 -->
<g id="node16" class="node"><title>Node16</title>
<g id="a_node16"><a xlink:href="../../df/d67/classengine_1_1level_1_1_level_manager.html#ad89101547413fe335873b050fd091c79" target="_top" xlink:title="engine.level.LevelManager.set\lCurrentLevel">
<polygon fill="white" stroke="black" points="1017.5,-0 1017.5,-30 1178.5,-30 1178.5,-0 1017.5,-0"/>
<text text-anchor="start" x="1025.5" y="-18" font-family="Helvetica,sans-Serif" font-size="10.00">engine.level.LevelManager.set</text>
<text text-anchor="middle" x="1098" y="-7" font-family="Helvetica,sans-Serif" font-size="10.00">CurrentLevel</text>
</a>
</g>
</g>
<!-- Node13&#45;&gt;Node16 -->
<g id="edge15" class="edge"><title>Node13&#45;&gt;Node16</title>
<path fill="none" stroke="midnightblue" d="M990.39,-27.3012C999.41,-26.2604 1008.46,-25.2166 1017.26,-24.2011"/>
<polygon fill="midnightblue" stroke="midnightblue" points="989.765,-23.85 980.232,-28.4733 990.567,-30.8039 989.765,-23.85"/>
</g>
<!-- Node15 -->
<g id="node15" class="node"><title>Node15</title>
<g id="a_node15"><a xlink:href="../../df/d67/classengine_1_1level_1_1_level_manager.html#a587b50d02654d70122a28bcda169bb8d" target="_top" xlink:title="engine.level.LevelManager.\lLevelManager">
<polygon fill="white" stroke="black" points="1234,-49 1234,-79 1380,-79 1380,-49 1234,-49"/>
<text text-anchor="start" x="1242" y="-67" font-family="Helvetica,sans-Serif" font-size="10.00">engine.level.LevelManager.</text>
<text text-anchor="middle" x="1307" y="-56" font-family="Helvetica,sans-Serif" font-size="10.00">LevelManager</text>
</a>
</g>
</g>
<!-- Node14&#45;&gt;Node15 -->
<g id="edge14" class="edge"><title>Node14&#45;&gt;Node15</title>
<path fill="none" stroke="midnightblue" d="M1189.74,-64C1204.44,-64 1219.5,-64 1233.69,-64"/>
<polygon fill="midnightblue" stroke="midnightblue" points="1189.62,-60.5001 1179.62,-64 1189.62,-67.5001 1189.62,-60.5001"/>
</g>
<!-- Node17 -->
<g id="node17" class="node"><title>Node17</title>
<g id="a_node17"><a xlink:href="../../df/d67/classengine_1_1level_1_1_level_manager.html#ad3c392cf6260c53428255fb596442692" target="_top" xlink:title="engine.level.LevelManager.change\lToLevel">
<polygon fill="white" stroke="black" points="1216.5,-0 1216.5,-30 1397.5,-30 1397.5,-0 1216.5,-0"/>
<text text-anchor="start" x="1224.5" y="-18" font-family="Helvetica,sans-Serif" font-size="10.00">engine.level.LevelManager.change</text>
<text text-anchor="middle" x="1307" y="-7" font-family="Helvetica,sans-Serif" font-size="10.00">ToLevel</text>
</a>
</g>
</g>
<!-- Node16&#45;&gt;Node17 -->
<g id="edge16" class="edge"><title>Node16&#45;&gt;Node17</title>
<path fill="none" stroke="midnightblue" d="M1188.92,-15C1198,-15 1207.23,-15 1216.31,-15"/>
<polygon fill="midnightblue" stroke="midnightblue" points="1188.74,-11.5001 1178.74,-15 1188.74,-18.5001 1188.74,-11.5001"/>
</g>
<!-- Node18 -->
<g id="node18" class="node"><title>Node18</title>
<g id="a_node18"><a xlink:href="../../d1/d73/classengine_1_1actions_1_1_change_level_action.html#a8190adf308768b0d12f6432d0cf0fbc4" target="_top" xlink:title="engine.actions.ChangeLevel\lAction.execute">
<polygon fill="white" stroke="black" points="1434.5,-0 1434.5,-30 1585.5,-30 1585.5,-0 1434.5,-0"/>
<text text-anchor="start" x="1442.5" y="-18" font-family="Helvetica,sans-Serif" font-size="10.00">engine.actions.ChangeLevel</text>
<text text-anchor="middle" x="1510" y="-7" font-family="Helvetica,sans-Serif" font-size="10.00">Action.execute</text>
</a>
</g>
</g>
<!-- Node17&#45;&gt;Node18 -->
<g id="edge17" class="edge"><title>Node17&#45;&gt;Node18</title>
<path fill="none" stroke="midnightblue" d="M1407.71,-15C1416.65,-15 1425.61,-15 1434.29,-15"/>
<polygon fill="midnightblue" stroke="midnightblue" points="1407.62,-11.5001 1397.62,-15 1407.62,-18.5001 1407.62,-11.5001"/>
</g>
<!-- Node19&#45;&gt;Node12 -->
<g id="edge19" class="edge"><title>Node19&#45;&gt;Node12</title>
<path fill="none" stroke="midnightblue" d="M538.457,-70.5962C561.024,-65.1757 585.702,-59.248 607.525,-54.0062"/>
<polygon fill="midnightblue" stroke="midnightblue" points="537.499,-67.2266 528.593,-72.9654 539.134,-74.033 537.499,-67.2266"/>
</g>
</g>
</svg>
        <g id="navigator" transform="translate(0 0)" fill="#404254">
                <rect fill="#f2f5e9" fill-opacity="0.5" stroke="#606060" stroke-width=".5" x="0" y="0" width="60" height="60"/>
                <use id="zoomplus" xlink:href="#zoomPlus" x="17" y="9" onmousedown="handleZoom(evt,'in')"/>
                <use id="zoomminus" xlink:href="#zoomMin" x="42" y="9" onmousedown="handleZoom(evt,'out')"/>
                <use id="reset" xlink:href="#resetDef" x="30" y="36" onmousedown="handleReset()"/>
                <g id="arrowUp" xlink:href="#dirArrow" transform="translate(30 24)" onmousedown="handlePan(0,-1)">
                  <use xlink:href="#rim" fill="#404040">
                        <set attributeName="fill" to="#808080" begin="arrowUp.mouseover" end="arrowUp.mouseout"/>
                  </use>
                  <path fill="none" stroke="white" stroke-width="1.5" d="M0,-3.0v7 M-2.5,-0.5L0,-3.0L2.5,-0.5"/>
                </g>
                <g id="arrowRight" xlink:href="#dirArrow" transform="rotate(90) translate(36 -43)" onmousedown="handlePan(1,0)">
                  <use xlink:href="#rim" fill="#404040">
                        <set attributeName="fill" to="#808080" begin="arrowRight.mouseover" end="arrowRight.mouseout"/>
                  </use>
                  <path fill="none" stroke="white" stroke-width="1.5" d="M0,-3.0v7 M-2.5,-0.5L0,-3.0L2.5,-0.5"/>
                </g>
                <g id="arrowDown" xlink:href="#dirArrow" transform="rotate(180) translate(-30 -48)" onmousedown="handlePan(0,1)">
                  <use xlink:href="#rim" fill="#404040">
                        <set attributeName="fill" to="#808080" begin="arrowDown.mouseover" end="arrowDown.mouseout"/>
                  </use>
                  <path fill="none" stroke="white" stroke-width="1.5" d="M0,-3.0v7 M-2.5,-0.5L0,-3.0L2.5,-0.5"/>
                </g>
                <g id="arrowLeft" xlink:href="#dirArrow" transform="rotate(270) translate(-36 17)" onmousedown="handlePan(-1,0)">
                  <use xlink:href="#rim" fill="#404040">
                        <set attributeName="fill" to="#808080" begin="arrowLeft.mouseover" end="arrowLeft.mouseout"/>
                  </use>
                  <path fill="none" stroke="white" stroke-width="1.5" d="M0,-3.0v7 M-2.5,-0.5L0,-3.0L2.5,-0.5"/>
                </g>
        </g>
        <svg viewBox="0 0 15 15" width="100%" height="30px" preserveAspectRatio="xMaxYMin meet">
         <g id="arrow_out" transform="scale(0.3 0.3)">
          <a xlink:href="classengine_1_1render_1_1_rendered_node_factory_ae9ab86f88eb96945a412e561179aa070_icgraph_org.svg" target="_base">
           <rect id="button" ry="5" rx="5" y="6" x="6" height="38" width="38"
                fill="#f2f5e9" fill-opacity="0.5" stroke="#606060" stroke-width="1.0"/>
           <path id="arrow"
             d="M 11.500037,31.436501 C 11.940474,20.09759 22.043105,11.32322 32.158766,21.979434 L 37.068811,17.246167 C 37.068811,17.246167 37.088388,32 37.088388,32 L 22.160133,31.978069 C 22.160133,31.978069 26.997745,27.140456 26.997745,27.140456 C 18.528582,18.264221 13.291696,25.230495 11.500037,31.436501 z"
             style="fill:#404040;"/>
          </a>
         </g>
        </svg>
</svg>
