<?xml version="1.0" encoding="UTF-8" standalone="no"?>
<!DOCTYPE svg PUBLIC "-//W3C//DTD SVG 1.1//EN"
 "http://www.w3.org/Graphics/SVG/1.1/DTD/svg11.dtd">
<!-- Generated by graphviz version 2.36.0 (20140111.2315)
 -->
<!-- Title: engine.render.RenderedNodeFactory.createRenderedNode Pages: 1 -->
<svg width="630pt" height="545pt"
 viewBox="0.00 0.00 630.00 545.00" xmlns="http://www.w3.org/2000/svg" xmlns:xlink="http://www.w3.org/1999/xlink">
<g id="graph0" class="graph" transform="scale(1 1) rotate(0) translate(4 541)">
<title>engine.render.RenderedNodeFactory.createRenderedNode</title>
<polygon fill="white" stroke="none" points="-4,4 -4,-541 626,-541 626,4 -4,4"/>
<!-- Node1 -->
<g id="node1" class="node"><title>Node1</title>
<polygon fill="#bfbfbf" stroke="black" points="0,-180 0,-210 156,-210 156,-180 0,-180"/>
<text text-anchor="start" x="8" y="-198" font-family="Helvetica,sans-Serif" font-size="10.00">engine.render.RenderedNode</text>
<text text-anchor="middle" x="78" y="-187" font-family="Helvetica,sans-Serif" font-size="10.00">Factory.createRenderedNode</text>
</g>
<!-- Node2 -->
<g id="node2" class="node"><title>Node2</title>
<g id="a_node2"><a xlink:href="../../d5/d30/classengine_1_1render_1_1_rendered_node_factory.html#ac14d2f5a3da79d92c967fe22bc82c1ed" target="_top" xlink:title="engine.render.RenderedNode\lFactory.createCollisionBody">
<polygon fill="white" stroke="black" points="215,-434 215,-464 371,-464 371,-434 215,-434"/>
<text text-anchor="start" x="223" y="-452" font-family="Helvetica,sans-Serif" font-size="10.00">engine.render.RenderedNode</text>
<text text-anchor="middle" x="293" y="-441" font-family="Helvetica,sans-Serif" font-size="10.00">Factory.createCollisionBody</text>
</a>
</g>
</g>
<!-- Node1&#45;&gt;Node2 -->
<g id="edge1" class="edge"><title>Node1&#45;&gt;Node2</title>
<path fill="none" stroke="midnightblue" d="M88.84,-210.128C107.594,-238.572 150.313,-301.519 192,-350 216.151,-378.087 246.775,-407.634 267.731,-427.057"/>
<polygon fill="midnightblue" stroke="midnightblue" points="265.527,-429.785 275.255,-433.981 270.267,-424.634 265.527,-429.785"/>
</g>
<!-- Node6 -->
<g id="node6" class="node"><title>Node6</title>
<g id="a_node6"><a xlink:href="../../d5/d30/classengine_1_1render_1_1_rendered_node_factory.html#ae9ab86f88eb96945a412e561179aa070" target="_top" xlink:title="engine.render.RenderedNode\lFactory.createImageAndView">
<polygon fill="white" stroke="black" points="215,-311 215,-341 371,-341 371,-311 215,-311"/>
<text text-anchor="start" x="223" y="-329" font-family="Helvetica,sans-Serif" font-size="10.00">engine.render.RenderedNode</text>
<text text-anchor="middle" x="293" y="-318" font-family="Helvetica,sans-Serif" font-size="10.00">Factory.createImageAndView</text>
</a>
</g>
</g>
<!-- Node1&#45;&gt;Node6 -->
<g id="edge5" class="edge"><title>Node1&#45;&gt;Node6</title>
<path fill="none" stroke="midnightblue" d="M90.7827,-210.194C109.61,-233.394 148.783,-277.435 192,-301 196.245,-303.314 200.707,-305.419 205.294,-307.332"/>
<polygon fill="midnightblue" stroke="midnightblue" points="204.264,-310.685 214.854,-310.995 206.769,-304.149 204.264,-310.685"/>
</g>
<!-- Node10 -->
<g id="node10" class="node"><title>Node10</title>
<g id="a_node10"><a xlink:href="../../d5/d30/classengine_1_1render_1_1_rendered_node_factory.html#a4e1f4508b1c12b958bd3c88a35a4e872" target="_top" xlink:title="engine.render.RenderedNode\lFactory.createLabel">
<polygon fill="white" stroke="black" points="215,-262 215,-292 371,-292 371,-262 215,-262"/>
<text text-anchor="start" x="223" y="-280" font-family="Helvetica,sans-Serif" font-size="10.00">engine.render.RenderedNode</text>
<text text-anchor="middle" x="293" y="-269" font-family="Helvetica,sans-Serif" font-size="10.00">Factory.createLabel</text>
</a>
</g>
</g>
<!-- Node1&#45;&gt;Node10 -->
<g id="edge9" class="edge"><title>Node1&#45;&gt;Node10</title>
<path fill="none" stroke="midnightblue" d="M104.741,-210.064C127.176,-222.681 160.903,-240.434 192,-252 198.861,-254.552 206.083,-256.927 213.375,-259.116"/>
<polygon fill="midnightblue" stroke="midnightblue" points="212.756,-262.58 223.335,-261.985 214.694,-255.853 212.756,-262.58"/>
</g>
<!-- Node12 -->
<g id="node12" class="node"><title>Node12</title>
<g id="a_node12"><a xlink:href="../../d0/d7f/classengine_1_1game_object_1_1_game_object.html#ae94fe532960bd29f64c2dc19ec0af798" target="_top" xlink:title="engine.gameObject.GameObject.getID">
<polygon fill="white" stroke="black" points="192,-223.5 192,-242.5 394,-242.5 394,-223.5 192,-223.5"/>
<text text-anchor="middle" x="293" y="-230.5" font-family="Helvetica,sans-Serif" font-size="10.00">engine.gameObject.GameObject.getID</text>
</a>
</g>
</g>
<!-- Node1&#45;&gt;Node12 -->
<g id="edge13" class="edge"><title>Node1&#45;&gt;Node12</title>
<path fill="none" stroke="midnightblue" d="M156.199,-208.773C180.052,-213.028 206.032,-217.663 228.821,-221.729"/>
<polygon fill="midnightblue" stroke="midnightblue" points="228.252,-225.182 238.712,-223.493 229.482,-218.291 228.252,-225.182"/>
</g>
<!-- Node13 -->
<g id="node13" class="node"><title>Node13</title>
<g id="a_node13"><a xlink:href="../../d0/d7f/classengine_1_1game_object_1_1_game_object.html#a606c7293c2bfac0af1fb42143bf527f6" target="_top" xlink:title="engine.gameObject.GameObject.getX">
<polygon fill="white" stroke="black" points="194,-185.5 194,-204.5 392,-204.5 392,-185.5 194,-185.5"/>
<text text-anchor="middle" x="293" y="-192.5" font-family="Helvetica,sans-Serif" font-size="10.00">engine.gameObject.GameObject.getX</text>
</a>
</g>
</g>
<!-- Node1&#45;&gt;Node13 -->
<g id="edge14" class="edge"><title>Node1&#45;&gt;Node13</title>
<path fill="none" stroke="midnightblue" d="M156.199,-195C165.205,-195 174.513,-195 183.839,-195"/>
<polygon fill="midnightblue" stroke="midnightblue" points="183.951,-198.5 193.951,-195 183.951,-191.5 183.951,-198.5"/>
</g>
<!-- Node14 -->
<g id="node14" class="node"><title>Node14</title>
<g id="a_node14"><a xlink:href="../../d0/d7f/classengine_1_1game_object_1_1_game_object.html#a1988806ef560c9384f3844d0666a9450" target="_top" xlink:title="engine.gameObject.GameObject.getY">
<polygon fill="white" stroke="black" points="194.5,-147.5 194.5,-166.5 391.5,-166.5 391.5,-147.5 194.5,-147.5"/>
<text text-anchor="middle" x="293" y="-154.5" font-family="Helvetica,sans-Serif" font-size="10.00">engine.gameObject.GameObject.getY</text>
</a>
</g>
</g>
<!-- Node1&#45;&gt;Node14 -->
<g id="edge15" class="edge"><title>Node1&#45;&gt;Node14</title>
<path fill="none" stroke="midnightblue" d="M156.199,-181.227C180.052,-176.972 206.032,-172.337 228.821,-168.271"/>
<polygon fill="midnightblue" stroke="midnightblue" points="229.482,-171.709 238.712,-166.507 228.252,-164.818 229.482,-171.709"/>
</g>
<!-- Node15 -->
<g id="node15" class="node"><title>Node15</title>
<g id="a_node15"><a xlink:href="../../d2/d82/classengine_1_1render_1_1_rendered_node.html#ad73c81ad48b40faea3818c9a7bbfdcf0" target="_top" xlink:title="engine.render.RenderedNode.set\lCollisionBody">
<polygon fill="white" stroke="black" points="206,-98 206,-128 380,-128 380,-98 206,-98"/>
<text text-anchor="start" x="214" y="-116" font-family="Helvetica,sans-Serif" font-size="10.00">engine.render.RenderedNode.set</text>
<text text-anchor="middle" x="293" y="-105" font-family="Helvetica,sans-Serif" font-size="10.00">CollisionBody</text>
</a>
</g>
</g>
<!-- Node1&#45;&gt;Node15 -->
<g id="edge16" class="edge"><title>Node1&#45;&gt;Node15</title>
<path fill="none" stroke="midnightblue" d="M104.741,-179.936C127.176,-167.319 160.903,-149.566 192,-138 198.861,-135.448 206.083,-133.073 213.375,-130.884"/>
<polygon fill="midnightblue" stroke="midnightblue" points="214.694,-134.147 223.335,-128.015 212.756,-127.42 214.694,-134.147"/>
</g>
<!-- Node16 -->
<g id="node16" class="node"><title>Node16</title>
<g id="a_node16"><a xlink:href="../../d2/d82/classengine_1_1render_1_1_rendered_node.html#a520a8c03b505d10c69e010e603cadfdd" target="_top" xlink:title="engine.render.RenderedNode.set\lImageView">
<polygon fill="white" stroke="black" points="206,-49 206,-79 380,-79 380,-49 206,-49"/>
<text text-anchor="start" x="214" y="-67" font-family="Helvetica,sans-Serif" font-size="10.00">engine.render.RenderedNode.set</text>
<text text-anchor="middle" x="293" y="-56" font-family="Helvetica,sans-Serif" font-size="10.00">ImageView</text>
</a>
</g>
</g>
<!-- Node1&#45;&gt;Node16 -->
<g id="edge17" class="edge"><title>Node1&#45;&gt;Node16</title>
<path fill="none" stroke="midnightblue" d="M90.4169,-179.992C109.042,-156.605 148.298,-111.695 192,-88 195.476,-86.1151 199.1,-84.3768 202.818,-82.7737"/>
<polygon fill="midnightblue" stroke="midnightblue" points="204.212,-85.9865 212.23,-79.061 201.643,-79.4748 204.212,-85.9865"/>
</g>
<!-- Node17 -->
<g id="node17" class="node"><title>Node17</title>
<g id="a_node17"><a xlink:href="../../d2/d82/classengine_1_1render_1_1_rendered_node.html#a312c663dd1144ff206ecfa1ea8c95a81" target="_top" xlink:title="engine.render.RenderedNode.set\lLabel">
<polygon fill="white" stroke="black" points="206,-0 206,-30 380,-30 380,-0 206,-0"/>
<text text-anchor="start" x="214" y="-18" font-family="Helvetica,sans-Serif" font-size="10.00">engine.render.RenderedNode.set</text>
<text text-anchor="middle" x="293" y="-7" font-family="Helvetica,sans-Serif" font-size="10.00">Label</text>
</a>
</g>
</g>
<!-- Node1&#45;&gt;Node17 -->
<g id="edge18" class="edge"><title>Node1&#45;&gt;Node17</title>
<path fill="none" stroke="midnightblue" d="M85.5149,-179.799C99.846,-148.268 137.247,-75.6386 192,-39 194.434,-37.371 196.968,-35.8522 199.577,-34.4362"/>
<polygon fill="midnightblue" stroke="midnightblue" points="201.238,-37.5204 208.708,-30.007 198.183,-31.2223 201.238,-37.5204"/>
</g>
<!-- Node3 -->
<g id="node3" class="node"><title>Node3</title>
<g id="a_node3"><a xlink:href="../../d9/d9d/classengine_1_1game_object_1_1components_1_1_physics_body.html#aba2ed3bce8ee8e404907c88b144626fc" target="_top" xlink:title="engine.gameObject.components.\lPhysicsBody.getCollisionBodyHeight">
<polygon fill="white" stroke="black" points="432,-507 432,-537 620,-537 620,-507 432,-507"/>
<text text-anchor="start" x="440" y="-525" font-family="Helvetica,sans-Serif" font-size="10.00">engine.gameObject.components.</text>
<text text-anchor="middle" x="526" y="-514" font-family="Helvetica,sans-Serif" font-size="10.00">PhysicsBody.getCollisionBodyHeight</text>
</a>
</g>
</g>
<!-- Node2&#45;&gt;Node3 -->
<g id="edge2" class="edge"><title>Node2&#45;&gt;Node3</title>
<path fill="none" stroke="midnightblue" d="M333.881,-464.047C360.836,-473.975 397.332,-486.955 430,-497 438.026,-499.468 446.478,-501.911 454.897,-504.248"/>
<polygon fill="midnightblue" stroke="midnightblue" points="454.167,-507.677 464.736,-506.938 456.013,-500.925 454.167,-507.677"/>
</g>
<!-- Node4 -->
<g id="node4" class="node"><title>Node4</title>
<g id="a_node4"><a xlink:href="../../d9/d9d/classengine_1_1game_object_1_1components_1_1_physics_body.html#ae64e43632570392c3118b3d00af853fc" target="_top" xlink:title="engine.gameObject.components.\lPhysicsBody.getCollisionBodyWidth">
<polygon fill="white" stroke="black" points="435,-458 435,-488 617,-488 617,-458 435,-458"/>
<text text-anchor="start" x="443" y="-476" font-family="Helvetica,sans-Serif" font-size="10.00">engine.gameObject.components.</text>
<text text-anchor="middle" x="526" y="-465" font-family="Helvetica,sans-Serif" font-size="10.00">PhysicsBody.getCollisionBodyWidth</text>
</a>
</g>
</g>
<!-- Node2&#45;&gt;Node4 -->
<g id="edge3" class="edge"><title>Node2&#45;&gt;Node4</title>
<path fill="none" stroke="midnightblue" d="M371.241,-457.025C388.235,-458.791 406.475,-460.686 424.242,-462.532"/>
<polygon fill="midnightblue" stroke="midnightblue" points="424.327,-466.059 434.635,-463.611 425.051,-459.097 424.327,-466.059"/>
</g>
<!-- Node5 -->
<g id="node5" class="node"><title>Node5</title>
<g id="a_node5"><a xlink:href="../../d0/d7f/classengine_1_1game_object_1_1_game_object.html#a60c5b6933aac9969491a3562a963c043" target="_top" xlink:title="engine.gameObject.GameObject.get\lPhysicsBody">
<polygon fill="white" stroke="black" points="430,-409 430,-439 622,-439 622,-409 430,-409"/>
<text text-anchor="start" x="438" y="-427" font-family="Helvetica,sans-Serif" font-size="10.00">engine.gameObject.GameObject.get</text>
<text text-anchor="middle" x="526" y="-416" font-family="Helvetica,sans-Serif" font-size="10.00">PhysicsBody</text>
</a>
</g>
</g>
<!-- Node2&#45;&gt;Node5 -->
<g id="edge4" class="edge"><title>Node2&#45;&gt;Node5</title>
<path fill="none" stroke="midnightblue" d="M371.241,-440.641C386.773,-438.96 403.346,-437.166 419.647,-435.402"/>
<polygon fill="midnightblue" stroke="midnightblue" points="420.184,-438.864 429.75,-434.308 419.431,-431.905 420.184,-438.864"/>
</g>
<!-- Node7 -->
<g id="node7" class="node"><title>Node7</title>
<g id="a_node7"><a xlink:href="../../d0/d7f/classengine_1_1game_object_1_1_game_object.html#ae8b88e1cf489e935426e2e252defbae0" target="_top" xlink:title="engine.gameObject.GameObject.get\lCurrentImageName">
<polygon fill="white" stroke="black" points="430,-360 430,-390 622,-390 622,-360 430,-360"/>
<text text-anchor="start" x="438" y="-378" font-family="Helvetica,sans-Serif" font-size="10.00">engine.gameObject.GameObject.get</text>
<text text-anchor="middle" x="526" y="-367" font-family="Helvetica,sans-Serif" font-size="10.00">CurrentImageName</text>
</a>
</g>
</g>
<!-- Node6&#45;&gt;Node7 -->
<g id="edge6" class="edge"><title>Node6&#45;&gt;Node7</title>
<path fill="none" stroke="midnightblue" d="M364.877,-341.035C390.044,-346.373 418.55,-352.42 444.464,-357.917"/>
<polygon fill="midnightblue" stroke="midnightblue" points="443.748,-361.343 454.257,-359.994 445.201,-354.495 443.748,-361.343"/>
</g>
<!-- Node8 -->
<g id="node8" class="node"><title>Node8</title>
<g id="a_node8"><a xlink:href="../../d0/d7f/classengine_1_1game_object_1_1_game_object.html#aaeb5730a3b51fe9cb3d817ea7172cfc2" target="_top" xlink:title="engine.gameObject.GameObject.get\lHeight">
<polygon fill="white" stroke="black" points="430,-262 430,-292 622,-292 622,-262 430,-262"/>
<text text-anchor="start" x="438" y="-280" font-family="Helvetica,sans-Serif" font-size="10.00">engine.gameObject.GameObject.get</text>
<text text-anchor="middle" x="526" y="-269" font-family="Helvetica,sans-Serif" font-size="10.00">Height</text>
</a>
</g>
</g>
<!-- Node6&#45;&gt;Node8 -->
<g id="edge7" class="edge"><title>Node6&#45;&gt;Node8</title>
<path fill="none" stroke="midnightblue" d="M364.877,-310.965C390.044,-305.627 418.55,-299.58 444.464,-294.083"/>
<polygon fill="midnightblue" stroke="midnightblue" points="445.201,-297.505 454.257,-292.006 443.748,-290.657 445.201,-297.505"/>
</g>
<!-- Node9 -->
<g id="node9" class="node"><title>Node9</title>
<g id="a_node9"><a xlink:href="../../d0/d7f/classengine_1_1game_object_1_1_game_object.html#a31aa2c854220621b49fc5575b50b9342" target="_top" xlink:title="engine.gameObject.GameObject.get\lWidth">
<polygon fill="white" stroke="black" points="430,-311 430,-341 622,-341 622,-311 430,-311"/>
<text text-anchor="start" x="438" y="-329" font-family="Helvetica,sans-Serif" font-size="10.00">engine.gameObject.GameObject.get</text>
<text text-anchor="middle" x="526" y="-318" font-family="Helvetica,sans-Serif" font-size="10.00">Width</text>
</a>
</g>
</g>
<!-- Node6&#45;&gt;Node9 -->
<g id="edge8" class="edge"><title>Node6&#45;&gt;Node9</title>
<path fill="none" stroke="midnightblue" d="M371.241,-326C386.773,-326 403.346,-326 419.647,-326"/>
<polygon fill="midnightblue" stroke="midnightblue" points="419.75,-329.5 429.75,-326 419.75,-322.5 419.75,-329.5"/>
</g>
<!-- Node10&#45;&gt;Node8 -->
<g id="edge10" class="edge"><title>Node10&#45;&gt;Node8</title>
<path fill="none" stroke="midnightblue" d="M371.241,-277C386.773,-277 403.346,-277 419.647,-277"/>
<polygon fill="midnightblue" stroke="midnightblue" points="419.75,-280.5 429.75,-277 419.75,-273.5 419.75,-280.5"/>
</g>
<!-- Node10&#45;&gt;Node9 -->
<g id="edge12" class="edge"><title>Node10&#45;&gt;Node9</title>
<path fill="none" stroke="midnightblue" d="M364.877,-292.035C390.044,-297.373 418.55,-303.42 444.464,-308.917"/>
<polygon fill="midnightblue" stroke="midnightblue" points="443.748,-312.343 454.257,-310.994 445.201,-305.495 443.748,-312.343"/>
</g>
<!-- Node11 -->
<g id="node11" class="node"><title>Node11</title>
<g id="a_node11"><a xlink:href="../../d0/d7f/classengine_1_1game_object_1_1_game_object.html#a5c379828f3bb19a91935f965c48a91a5" target="_top" xlink:title="engine.gameObject.GameObject.get\lLabel">
<polygon fill="white" stroke="black" points="430,-213 430,-243 622,-243 622,-213 430,-213"/>
<text text-anchor="start" x="438" y="-231" font-family="Helvetica,sans-Serif" font-size="10.00">engine.gameObject.GameObject.get</text>
<text text-anchor="middle" x="526" y="-220" font-family="Helvetica,sans-Serif" font-size="10.00">Label</text>
</a>
</g>
</g>
<!-- Node10&#45;&gt;Node11 -->
<g id="edge11" class="edge"><title>Node10&#45;&gt;Node11</title>
<path fill="none" stroke="midnightblue" d="M364.877,-261.965C390.044,-256.627 418.55,-250.58 444.464,-245.083"/>
<polygon fill="midnightblue" stroke="midnightblue" points="445.201,-248.505 454.257,-243.006 443.748,-241.657 445.201,-248.505"/>
</g>
</g>
</svg>
