<?xml version="1.0" encoding="UTF-8" standalone="no"?>
<!DOCTYPE svg PUBLIC "-//W3C//DTD SVG 1.1//EN"
 "http://www.w3.org/Graphics/SVG/1.1/DTD/svg11.dtd">
<!-- Generated by graphviz version 2.36.0 (20140111.2315)
 -->
<!-- Title: engine.conditions.GameObjectCondition Pages: 1 -->
<!--zoomable 770 -->
<svg id="main" version="1.1" xmlns="http://www.w3.org/2000/svg" xmlns:xlink="http://www.w3.org/1999/xlink" xml:space="preserve" onload="init(evt)">
<style type="text/css"><![CDATA[
.edge:hover path { stroke: red; }
.edge:hover polygon { stroke: red; fill: red; }
]]></style>
<script type="text/javascript"><![CDATA[
var edges = document.getElementsByTagName('g');
if (edges && edges.length) {
  for (var i=0;i<edges.length;i++) {
    if (edges[i].id.substr(0,4)=='edge') {
      edges[i].setAttribute('class','edge');
    }
  }
}
]]></script>
        <defs>
                <circle id="rim" cx="0" cy="0" r="7"/>
                <circle id="rim2" cx="0" cy="0" r="3.5"/>
                <g id="zoomPlus">
                        <use xlink:href="#rim" fill="#404040">
                                <set attributeName="fill" to="#808080" begin="zoomplus.mouseover" end="zoomplus.mouseout"/>
                        </use>
                        <path d="M-4,0h8M0,-4v8" fill="none" stroke="white" stroke-width="1.5" pointer-events="none"/>
                </g>
                <g id="zoomMin">
                        <use xlink:href="#rim" fill="#404040">
                                <set attributeName="fill" to="#808080" begin="zoomminus.mouseover" end="zoomminus.mouseout"/>
                        </use>
                        <path d="M-4,0h8" fill="none" stroke="white" stroke-width="1.5" pointer-events="none"/>
                </g>
                <g id="dirArrow">
                        <path fill="none" stroke="white" stroke-width="1.5" d="M0,-3.0v7 M-2.5,-0.5L0,-3.0L2.5,-0.5"/>
                </g>
               <g id="resetDef">
                       <use xlink:href="#rim2" fill="#404040">
                               <set attributeName="fill" to="#808080" begin="reset.mouseover" end="reset.mouseout"/>
                       </use>
               </g>
        </defs>

<script type="text/javascript">
var viewWidth = 2060;
var viewHeight = 770;
var sectionId = 'dynsection-1';
</script>
<script xlink:href="../../svgpan.js"/>
<svg id="graph" class="graph">
<g id="viewport">
<title>engine.conditions.GameObjectCondition</title>
<polygon fill="white" stroke="none" points="-4,4 -4,-766 2056,-766 2056,4 -4,4"/>
<!-- Node1 -->
<g id="node1" class="node"><title>Node1</title>
<polygon fill="#bfbfbf" stroke="black" points="1888,-154 1888,-184 2052,-184 2052,-154 1888,-154"/>
<text text-anchor="start" x="1896" y="-172" font-family="Helvetica,sans-Serif" font-size="10.00">engine.conditions.GameObject</text>
<text text-anchor="middle" x="1970" y="-161" font-family="Helvetica,sans-Serif" font-size="10.00">Condition</text>
</g>
<!-- Node2 -->
<g id="node2" class="node"><title>Node2</title>
<g id="a_node2"><a xlink:href="../../d1/d3b/classengine_1_1conditions_1_1_condition.html" target="_top" xlink:title="engine.conditions.Condition">
<polygon fill="white" stroke="black" points="1700.5,-159.5 1700.5,-178.5 1849.5,-178.5 1849.5,-159.5 1700.5,-159.5"/>
<text text-anchor="middle" x="1775" y="-166.5" font-family="Helvetica,sans-Serif" font-size="10.00">engine.conditions.Condition</text>
</a>
</g>
</g>
<!-- Node2&#45;&gt;Node1 -->
<g id="edge1" class="edge"><title>Node2&#45;&gt;Node1</title>
<path fill="none" stroke="midnightblue" d="M1859.63,-169C1869.03,-169 1878.6,-169 1887.96,-169"/>
<polygon fill="midnightblue" stroke="midnightblue" points="1859.52,-165.5 1849.52,-169 1859.52,-172.5 1859.52,-165.5"/>
</g>
<!-- Node3 -->
<g id="node3" class="node"><title>Node3</title>
<g id="a_node3"><a xlink:href="../../dc/df6/interfaceengine_1_1game_object_1_1_identifiable.html" target="_top" xlink:title="engine.gameObject.Identifiable">
<polygon fill="white" stroke="black" points="242.5,-159.5 242.5,-178.5 407.5,-178.5 407.5,-159.5 242.5,-159.5"/>
<text text-anchor="middle" x="325" y="-166.5" font-family="Helvetica,sans-Serif" font-size="10.00">engine.gameObject.Identifiable</text>
</a>
</g>
</g>
<!-- Node3&#45;&gt;Node2 -->
<g id="edge2" class="edge"><title>Node3&#45;&gt;Node2</title>
<path fill="none" stroke="midnightblue" d="M417.564,-160.65C481.283,-155.549 568.244,-150 645,-150 645,-150 645,-150 1496,-150 1565.42,-150 1644.37,-155.97 1700.34,-161.217"/>
<polygon fill="midnightblue" stroke="midnightblue" points="417.226,-157.165 407.542,-161.463 417.793,-164.142 417.226,-157.165"/>
</g>
<!-- Node16 -->
<g id="node16" class="node"><title>Node16</title>
<g id="a_node16"><a xlink:href="../../df/d84/classengine_1_1level_1_1_level.html" target="_top" xlink:title="engine.level.Level">
<polygon fill="white" stroke="black" points="595.5,-216.5 595.5,-235.5 696.5,-235.5 696.5,-216.5 595.5,-216.5"/>
<text text-anchor="middle" x="646" y="-223.5" font-family="Helvetica,sans-Serif" font-size="10.00">engine.level.Level</text>
</a>
</g>
</g>
<!-- Node3&#45;&gt;Node16 -->
<g id="edge19" class="edge"><title>Node3&#45;&gt;Node16</title>
<path fill="none" stroke="midnightblue" d="M389.592,-180.363C450.119,-191.178 539.957,-207.231 595.373,-217.132"/>
<polygon fill="midnightblue" stroke="midnightblue" points="389.853,-176.854 379.393,-178.541 388.622,-183.745 389.853,-176.854"/>
</g>
<!-- Node4 -->
<g id="node4" class="node"><title>Node4</title>
<g id="a_node4"><a xlink:href="../../d2/d15/interfaceengine_1_1actions_1_1_initializable.html" target="_top" xlink:title="engine.actions.Initializable">
<polygon fill="white" stroke="black" points="1424,-102.5 1424,-121.5 1566,-121.5 1566,-102.5 1424,-102.5"/>
<text text-anchor="middle" x="1495" y="-109.5" font-family="Helvetica,sans-Serif" font-size="10.00">engine.actions.Initializable</text>
</a>
</g>
</g>
<!-- Node4&#45;&gt;Node2 -->
<g id="edge3" class="edge"><title>Node4&#45;&gt;Node2</title>
<path fill="none" stroke="midnightblue" d="M1576.48,-118.549C1609.48,-122.224 1647.86,-127.778 1682,-136 1706.42,-141.881 1733.35,-151.991 1751.73,-159.476"/>
<polygon fill="midnightblue" stroke="midnightblue" points="1576.75,-115.057 1566.43,-117.468 1576,-122.017 1576.75,-115.057"/>
</g>
<!-- Node5 -->
<g id="node5" class="node"><title>Node5</title>
<g id="a_node5"><a xlink:href="../../d4/dac/classengine_1_1game_object_1_1_identifier.html" target="_top" xlink:title="engine.gameObject.Identifier">
<polygon fill="white" stroke="black" points="247.5,-8.5 247.5,-27.5 402.5,-27.5 402.5,-8.5 247.5,-8.5"/>
<text text-anchor="middle" x="325" y="-15.5" font-family="Helvetica,sans-Serif" font-size="10.00">engine.gameObject.Identifier</text>
</a>
</g>
</g>
<!-- Node5&#45;&gt;Node2 -->
<g id="edge4" class="edge"><title>Node5&#45;&gt;Node2</title>
<path fill="none" stroke="#9a32cd" stroke-dasharray="5,2" d="M412.701,-10.4611C476.814,-5.53105 566.283,-0 645,-0 645,-0 645,-0 1075,-0 1349.74,-0 1426.33,-16.4068 1682,-117 1711.19,-128.487 1742.44,-147.829 1759.96,-159.408"/>
<polygon fill="#9a32cd" stroke="#9a32cd" points="412.332,-6.97916 402.635,-11.2463 412.877,-13.958 412.332,-6.97916"/>
<text text-anchor="middle" x="1074" y="-3" font-family="Helvetica,sans-Serif" font-size="10.00"> myId</text>
</g>
<!-- Node5&#45;&gt;Node16 -->
<g id="edge20" class="edge"><title>Node5&#45;&gt;Node16</title>
<path fill="none" stroke="#9a32cd" stroke-dasharray="5,2" d="M412.67,-23.482C458.388,-31.05 511.571,-48.1227 544,-86 579.36,-127.301 525.07,-167.097 562,-207 570.635,-216.33 582.835,-221.536 595.231,-224.335"/>
<polygon fill="#9a32cd" stroke="#9a32cd" points="413.152,-20.0151 402.739,-21.9652 412.096,-26.9349 413.152,-20.0151"/>
<text text-anchor="middle" x="485" y="-89" font-family="Helvetica,sans-Serif" font-size="10.00"> myId</text>
</g>
<!-- Node6 -->
<g id="node6" class="node"><title>Node6</title>
<polygon fill="white" stroke="#bfbfbf" points="64,-8.5 64,-27.5 120,-27.5 120,-8.5 64,-8.5"/>
<text text-anchor="middle" x="92" y="-15.5" font-family="Helvetica,sans-Serif" font-size="10.00">Random</text>
</g>
<!-- Node6&#45;&gt;Node5 -->
<g id="edge5" class="edge"><title>Node6&#45;&gt;Node5</title>
<path fill="none" stroke="#9a32cd" stroke-dasharray="5,2" d="M130.511,-18C162.046,-18 208.136,-18 247.423,-18"/>
<polygon fill="#9a32cd" stroke="#9a32cd" points="130.406,-14.5001 120.406,-18 130.406,-21.5001 130.406,-14.5001"/>
<text text-anchor="middle" x="213" y="-21" font-family="Helvetica,sans-Serif" font-size="10.00"> r</text>
</g>
<!-- Node7 -->
<g id="node7" class="node"><title>Node7</title>
<g id="a_node7"><a xlink:href="../../d6/d94/classengine_1_1_game_manager.html" target="_top" xlink:title="engine.GameManager">
<polygon fill="white" stroke="black" points="1433.5,-321.5 1433.5,-340.5 1556.5,-340.5 1556.5,-321.5 1433.5,-321.5"/>
<text text-anchor="middle" x="1495" y="-328.5" font-family="Helvetica,sans-Serif" font-size="10.00">engine.GameManager</text>
</a>
</g>
</g>
<!-- Node7&#45;&gt;Node2 -->
<g id="edge6" class="edge"><title>Node7&#45;&gt;Node2</title>
<path fill="none" stroke="#9a32cd" stroke-dasharray="5,2" d="M1523.55,-316.734C1560.19,-297.573 1626.75,-262.098 1682,-229 1710.14,-212.144 1741.99,-190.853 1759.87,-178.696"/>
<polygon fill="#9a32cd" stroke="#9a32cd" points="1521.73,-313.739 1514.48,-321.466 1524.96,-319.946 1521.73,-313.739"/>
<text text-anchor="middle" x="1637" y="-281" font-family="Helvetica,sans-Serif" font-size="10.00"> myGameManager</text>
</g>
<!-- Node8 -->
<g id="node8" class="node"><title>Node8</title>
<g id="a_node8"><a xlink:href="../../df/de5/classauthoring_1_1model_1_1collections_1_1_levels_collection.html" target="_top" xlink:title="authoring.model.collections.\lLevelsCollection">
<polygon fill="white" stroke="black" points="570,-654 570,-684 722,-684 722,-654 570,-654"/>
<text text-anchor="start" x="578" y="-672" font-family="Helvetica,sans-Serif" font-size="10.00">authoring.model.collections.</text>
<text text-anchor="middle" x="646" y="-661" font-family="Helvetica,sans-Serif" font-size="10.00">LevelsCollection</text>
</a>
</g>
</g>
<!-- Node8&#45;&gt;Node7 -->
<g id="edge7" class="edge"><title>Node8&#45;&gt;Node7</title>
<path fill="none" stroke="#9a32cd" stroke-dasharray="5,2" d="M732.209,-673.104C859.355,-676.188 1104.1,-670.273 1294,-594 1343.94,-573.943 1361.74,-571.761 1398,-532 1453.77,-470.852 1483.38,-371.479 1491.6,-340.518"/>
<polygon fill="#9a32cd" stroke="#9a32cd" points="732.232,-669.603 722.142,-672.835 732.045,-676.601 732.232,-669.603"/>
<text text-anchor="middle" x="1074" y="-660" font-family="Helvetica,sans-Serif" font-size="10.00"> myLevels</text>
</g>
<!-- Node10 -->
<g id="node10" class="node"><title>Node10</title>
<g id="a_node10"><a xlink:href="../../df/d67/classengine_1_1level_1_1_level_manager.html" target="_top" xlink:title="engine.level.LevelManager">
<polygon fill="white" stroke="black" points="1141.5,-477.5 1141.5,-496.5 1284.5,-496.5 1284.5,-477.5 1141.5,-477.5"/>
<text text-anchor="middle" x="1213" y="-484.5" font-family="Helvetica,sans-Serif" font-size="10.00">engine.level.LevelManager</text>
</a>
</g>
</g>
<!-- Node8&#45;&gt;Node10 -->
<g id="edge11" class="edge"><title>Node8&#45;&gt;Node10</title>
<path fill="none" stroke="#9a32cd" stroke-dasharray="5,2" d="M732.335,-663.071C829.577,-653.398 990.938,-628.305 1114,-564 1149.86,-545.261 1185.62,-512.813 1202.3,-496.682"/>
<polygon fill="#9a32cd" stroke="#9a32cd" points="731.875,-659.599 722.257,-664.041 732.546,-666.567 731.875,-659.599"/>
<text text-anchor="middle" x="940" y="-646" font-family="Helvetica,sans-Serif" font-size="10.00"> myLevels</text>
</g>
<!-- Node23 -->
<g id="node23" class="node"><title>Node23</title>
<g id="a_node23"><a xlink:href="../../da/d90/classengine_1_1sound_1_1_sound_utility.html" target="_top" xlink:title="engine.sound.SoundUtility">
<polygon fill="white" stroke="black" points="869,-565.5 869,-584.5 1011,-584.5 1011,-565.5 869,-565.5"/>
<text text-anchor="middle" x="940" y="-572.5" font-family="Helvetica,sans-Serif" font-size="10.00">engine.sound.SoundUtility</text>
</a>
</g>
</g>
<!-- Node8&#45;&gt;Node23 -->
<g id="edge28" class="edge"><title>Node8&#45;&gt;Node23</title>
<path fill="none" stroke="#9a32cd" stroke-dasharray="5,2" d="M694.567,-650.234C711.31,-643.987 730.353,-637.282 748,-632 790.86,-619.171 803.136,-621.815 846,-609 869.882,-601.86 896.546,-591.9 915.179,-584.606"/>
<polygon fill="#9a32cd" stroke="#9a32cd" points="693.122,-647.038 685.003,-653.845 695.594,-653.587 693.122,-647.038"/>
<text text-anchor="middle" x="797" y="-635" font-family="Helvetica,sans-Serif" font-size="10.00"> myLevels</text>
</g>
<!-- Node9 -->
<g id="node9" class="node"><title>Node9</title>
<g id="a_node9"><a xlink:href="../../d4/d3b/classauthoring_1_1model_1_1collections_1_1_general_collection.html" target="_top" xlink:title="authoring.model.collections.\lGeneralCollection\&lt; Level \&gt;">
<polygon fill="white" stroke="black" points="249,-732 249,-762 401,-762 401,-732 249,-732"/>
<text text-anchor="start" x="257" y="-750" font-family="Helvetica,sans-Serif" font-size="10.00">authoring.model.collections.</text>
<text text-anchor="middle" x="325" y="-739" font-family="Helvetica,sans-Serif" font-size="10.00">GeneralCollection&lt; Level &gt;</text>
</a>
</g>
</g>
<!-- Node9&#45;&gt;Node8 -->
<g id="edge8" class="edge"><title>Node9&#45;&gt;Node8</title>
<path fill="none" stroke="midnightblue" d="M397.337,-729.557C453.23,-715.89 530.184,-697.074 583.411,-684.059"/>
<polygon fill="midnightblue" stroke="midnightblue" points="396.389,-726.186 387.506,-731.961 398.052,-732.985 396.389,-726.186"/>
</g>
<!-- Node10&#45;&gt;Node7 -->
<g id="edge9" class="edge"><title>Node10&#45;&gt;Node7</title>
<path fill="none" stroke="#9a32cd" stroke-dasharray="5,2" d="M1295.23,-481.637C1328.94,-476.505 1367.28,-466.679 1398,-448 1443.35,-420.427 1476.9,-363.521 1489.04,-340.741"/>
<polygon fill="#9a32cd" stroke="#9a32cd" points="1294.34,-478.227 1284.93,-483.084 1295.32,-485.159 1294.34,-478.227"/>
<text text-anchor="middle" x="1355" y="-482" font-family="Helvetica,sans-Serif" font-size="10.00"> myLevelManager</text>
</g>
<!-- Node11 -->
<g id="node11" class="node"><title>Node11</title>
<polygon fill="white" stroke="#bfbfbf" points="890,-521.5 890,-540.5 990,-540.5 990,-521.5 890,-521.5"/>
<text text-anchor="middle" x="940" y="-528.5" font-family="Helvetica,sans-Serif" font-size="10.00">Iterable&lt; Level &gt;</text>
</g>
<!-- Node11&#45;&gt;Node10 -->
<g id="edge10" class="edge"><title>Node11&#45;&gt;Node10</title>
<path fill="none" stroke="midnightblue" d="M1000.32,-521.997C1033.73,-516.861 1076.22,-510.225 1114,-504 1128.31,-501.642 1143.78,-499.001 1158.11,-496.517"/>
<polygon fill="midnightblue" stroke="midnightblue" points="999.606,-518.565 990.252,-523.54 1000.67,-525.484 999.606,-518.565"/>
</g>
<!-- Node12 -->
<g id="node12" class="node"><title>Node12</title>
<g id="a_node12"><a xlink:href="../../dd/d8d/classengine_1_1render_1_1_renderer.html" target="_top" xlink:title="engine.render.Renderer">
<polygon fill="white" stroke="black" points="876,-302.5 876,-321.5 1004,-321.5 1004,-302.5 876,-302.5"/>
<text text-anchor="middle" x="940" y="-309.5" font-family="Helvetica,sans-Serif" font-size="10.00">engine.render.Renderer</text>
</a>
</g>
</g>
<!-- Node12&#45;&gt;Node7 -->
<g id="edge35" class="edge"><title>Node12&#45;&gt;Node7</title>
<path fill="none" stroke="#9a32cd" stroke-dasharray="5,2" d="M1014.2,-314.515C1124.43,-318.302 1330.99,-325.399 1433.34,-328.916"/>
<polygon fill="#9a32cd" stroke="#9a32cd" points="1014.28,-311.016 1004.17,-314.17 1014.04,-318.012 1014.28,-311.016"/>
<text text-anchor="middle" x="1213" y="-328" font-family="Helvetica,sans-Serif" font-size="10.00"> myGameObjectRenderer</text>
</g>
<!-- Node12&#45;&gt;Node10 -->
<g id="edge12" class="edge"><title>Node12&#45;&gt;Node10</title>
<path fill="none" stroke="#9a32cd" stroke-dasharray="5,2" d="M989.22,-325.392C998.967,-329.794 1008.51,-335.543 1016,-343 1030.68,-357.617 1020.69,-370.127 1034,-386 1067.28,-425.671 1086.74,-423.84 1132,-449 1151.08,-459.609 1173.61,-470.141 1189.89,-477.416"/>
<polygon fill="#9a32cd" stroke="#9a32cd" points="990.453,-322.115 979.872,-321.574 987.806,-328.595 990.453,-322.115"/>
<text text-anchor="middle" x="1074" y="-442" font-family="Helvetica,sans-Serif" font-size="10.00"> myRenderer</text>
</g>
<!-- Node13 -->
<g id="node13" class="node"><title>Node13</title>
<polygon fill="white" stroke="#bfbfbf" points="564,-297 564,-327 728,-327 728,-297 564,-297"/>
<text text-anchor="start" x="572" y="-315" font-family="Helvetica,sans-Serif" font-size="10.00">Map&lt; Identifier, engine.render.</text>
<text text-anchor="middle" x="646" y="-304" font-family="Helvetica,sans-Serif" font-size="10.00">RenderedNode &gt;</text>
</g>
<!-- Node13&#45;&gt;Node12 -->
<g id="edge13" class="edge"><title>Node13&#45;&gt;Node12</title>
<path fill="none" stroke="#9a32cd" stroke-dasharray="5,2" d="M738.598,-312C783.16,-312 835.611,-312 875.674,-312"/>
<polygon fill="#9a32cd" stroke="#9a32cd" points="738.338,-308.5 728.338,-312 738.338,-315.5 738.338,-308.5"/>
<text text-anchor="middle" x="797" y="-315" font-family="Helvetica,sans-Serif" font-size="10.00"> myRenderedNodes</text>
</g>
<!-- Node14 -->
<g id="node14" class="node"><title>Node14</title>
<g id="a_node14"><a xlink:href="../../d5/d30/classengine_1_1render_1_1_rendered_node_factory.html" target="_top" xlink:title="engine.render.RenderedNode\lFactory">
<polygon fill="white" stroke="black" points="568,-385 568,-415 724,-415 724,-385 568,-385"/>
<text text-anchor="start" x="576" y="-403" font-family="Helvetica,sans-Serif" font-size="10.00">engine.render.RenderedNode</text>
<text text-anchor="middle" x="646" y="-392" font-family="Helvetica,sans-Serif" font-size="10.00">Factory</text>
</a>
</g>
</g>
<!-- Node14&#45;&gt;Node12 -->
<g id="edge14" class="edge"><title>Node14&#45;&gt;Node12</title>
<path fill="none" stroke="#9a32cd" stroke-dasharray="5,2" d="M706.715,-382.004C767.503,-363.684 859.415,-335.984 907.364,-321.534"/>
<polygon fill="#9a32cd" stroke="#9a32cd" points="705.43,-378.736 696.865,-384.972 707.449,-385.438 705.43,-378.736"/>
<text text-anchor="middle" x="797" y="-373" font-family="Helvetica,sans-Serif" font-size="10.00"> myFactory</text>
</g>
<!-- Node15 -->
<g id="node15" class="node"><title>Node15</title>
<g id="a_node15"><a xlink:href="../../d9/db5/classengine_1_1_file_path_utility.html" target="_top" xlink:title="engine.FilePathUtility">
<polygon fill="white" stroke="black" points="267.5,-514.5 267.5,-533.5 382.5,-533.5 382.5,-514.5 267.5,-514.5"/>
<text text-anchor="middle" x="325" y="-521.5" font-family="Helvetica,sans-Serif" font-size="10.00">engine.FilePathUtility</text>
</a>
</g>
</g>
<!-- Node15&#45;&gt;Node14 -->
<g id="edge15" class="edge"><title>Node15&#45;&gt;Node14</title>
<path fill="none" stroke="#9a32cd" stroke-dasharray="5,2" d="M355.484,-510.159C399.72,-489.703 486.172,-450.92 562,-424 570.764,-420.889 580.151,-417.877 589.346,-415.098"/>
<polygon fill="#9a32cd" stroke="#9a32cd" points="353.791,-507.086 346.195,-514.473 356.739,-513.435 353.791,-507.086"/>
<text text-anchor="middle" x="485" y="-482" font-family="Helvetica,sans-Serif" font-size="10.00"> myFilePathUtility</text>
</g>
<!-- Node15&#45;&gt;Node23 -->
<g id="edge31" class="edge"><title>Node15&#45;&gt;Node23</title>
<path fill="none" stroke="#9a32cd" stroke-dasharray="5,2" d="M361.523,-536.812C407.189,-552.539 489.277,-578.314 562,-588 687.13,-604.666 720.036,-592.259 846,-584 853.446,-583.512 861.219,-582.908 868.96,-582.247"/>
<polygon fill="#9a32cd" stroke="#9a32cd" points="362.671,-533.506 352.077,-533.522 360.369,-540.116 362.671,-533.506"/>
<text text-anchor="middle" x="646" y="-600" font-family="Helvetica,sans-Serif" font-size="10.00"> myFilePathUtility</text>
</g>
<!-- Node16&#45;&gt;Node10 -->
<g id="edge26" class="edge"><title>Node16&#45;&gt;Node10</title>
<path fill="none" stroke="#9a32cd" stroke-dasharray="5,2" d="M706.76,-225.31C720.319,-225.181 734.655,-225.066 748,-225 869.774,-224.397 913.899,-215.632 1016,-282 1070.07,-317.146 1079.9,-334.269 1114,-389 1125.61,-407.633 1118.13,-417.98 1132,-435 1147.59,-454.134 1172.13,-468.611 1189.93,-477.369"/>
<polygon fill="#9a32cd" stroke="#9a32cd" points="706.537,-221.812 696.573,-225.411 706.607,-228.812 706.537,-221.812"/>
<text text-anchor="middle" x="940" y="-285" font-family="Helvetica,sans-Serif" font-size="10.00"> myCurrentLevel</text>
</g>
<!-- Node16&#45;&gt;Node12 -->
<g id="edge16" class="edge"><title>Node16&#45;&gt;Node12</title>
<path fill="none" stroke="#9a32cd" stroke-dasharray="5,2" d="M688.99,-238.508C707.134,-243.904 728.609,-250.277 748,-256 803.514,-272.383 868.15,-291.301 906.206,-302.423"/>
<polygon fill="#9a32cd" stroke="#9a32cd" points="689.869,-235.118 679.287,-235.622 687.873,-241.828 689.869,-235.118"/>
<text text-anchor="middle" x="797" y="-287" font-family="Helvetica,sans-Serif" font-size="10.00"> myCurrentLevel</text>
</g>
<!-- Node17 -->
<g id="node17" class="node"><title>Node17</title>
<g id="a_node17"><a xlink:href="../../d3/d8d/classdata_1_1_observable.html" target="_top" xlink:title="data.Observable">
<polygon fill="white" stroke="black" points="277.5,-216.5 277.5,-235.5 372.5,-235.5 372.5,-216.5 277.5,-216.5"/>
<text text-anchor="middle" x="325" y="-223.5" font-family="Helvetica,sans-Serif" font-size="10.00">data.Observable</text>
</a>
</g>
</g>
<!-- Node17&#45;&gt;Node16 -->
<g id="edge17" class="edge"><title>Node17&#45;&gt;Node16</title>
<path fill="none" stroke="midnightblue" d="M382.85,-226C443.23,-226 537.733,-226 595.257,-226"/>
<polygon fill="midnightblue" stroke="midnightblue" points="382.727,-222.5 372.727,-226 382.727,-229.5 382.727,-222.5"/>
</g>
<!-- Node18 -->
<g id="node18" class="node"><title>Node18</title>
<polygon fill="white" stroke="#bfbfbf" points="23,-216.5 23,-235.5 161,-235.5 161,-216.5 23,-216.5"/>
<text text-anchor="middle" x="92" y="-223.5" font-family="Helvetica,sans-Serif" font-size="10.00">Vector&lt; data.Observer &gt;</text>
</g>
<!-- Node18&#45;&gt;Node17 -->
<g id="edge18" class="edge"><title>Node18&#45;&gt;Node17</title>
<path fill="none" stroke="#9a32cd" stroke-dasharray="5,2" d="M171.318,-226C206.521,-226 246.882,-226 277.262,-226"/>
<polygon fill="#9a32cd" stroke="#9a32cd" points="171.058,-222.5 161.058,-226 171.058,-229.5 171.058,-222.5"/>
<text text-anchor="middle" x="213" y="-229" font-family="Helvetica,sans-Serif" font-size="10.00"> obs</text>
</g>
<!-- Node19 -->
<g id="node19" class="node"><title>Node19</title>
<g id="a_node19"><a xlink:href="../../d1/d32/classauthoring_1_1model_1_1collections_1_1_game_objects_collection.html" target="_top" xlink:title="authoring.model.collections.\lGameObjectsCollection">
<polygon fill="white" stroke="black" points="249,-403 249,-433 401,-433 401,-403 249,-403"/>
<text text-anchor="start" x="257" y="-421" font-family="Helvetica,sans-Serif" font-size="10.00">authoring.model.collections.</text>
<text text-anchor="middle" x="325" y="-410" font-family="Helvetica,sans-Serif" font-size="10.00">GameObjectsCollection</text>
</a>
</g>
</g>
<!-- Node19&#45;&gt;Node1 -->
<g id="edge43" class="edge"><title>Node19&#45;&gt;Node1</title>
<path fill="none" stroke="#9a32cd" stroke-dasharray="5,2" d="M348.039,-440.512C364.805,-457.846 388.275,-482.558 408,-505 502.285,-612.27 502.183,-722 645,-722 645,-722 645,-722 1776,-722 1893.32,-722 1955.95,-272.708 1967.16,-184.078"/>
<polygon fill="#9a32cd" stroke="#9a32cd" points="350.321,-437.839 340.844,-433.102 345.299,-442.715 350.321,-437.839"/>
<text text-anchor="middle" x="1213" y="-725" font-family="Helvetica,sans-Serif" font-size="10.00"> myGameObjects</text>
</g>
<!-- Node19&#45;&gt;Node7 -->
<g id="edge36" class="edge"><title>Node19&#45;&gt;Node7</title>
<path fill="none" stroke="#9a32cd" stroke-dasharray="5,2" d="M404.668,-400.946C450.371,-391.722 509.186,-381.016 562,-375 654.392,-364.476 1305.12,-340.585 1398,-336 1409.42,-335.436 1421.6,-334.816 1433.32,-334.21"/>
<polygon fill="#9a32cd" stroke="#9a32cd" points="403.927,-397.525 394.827,-402.95 405.324,-404.384 403.927,-397.525"/>
<text text-anchor="middle" x="940" y="-362" font-family="Helvetica,sans-Serif" font-size="10.00"> myGameObjects</text>
</g>
<!-- Node19&#45;&gt;Node10 -->
<g id="edge25" class="edge"><title>Node19&#45;&gt;Node10</title>
<path fill="none" stroke="#9a32cd" stroke-dasharray="5,2" d="M352.288,-439.512C371.438,-453.748 398.705,-471.182 426,-479 558.994,-517.093 974.347,-499.865 1141.39,-491.05"/>
<polygon fill="#9a32cd" stroke="#9a32cd" points="354.159,-436.536 344.089,-433.242 349.906,-442.097 354.159,-436.536"/>
<text text-anchor="middle" x="797" y="-517" font-family="Helvetica,sans-Serif" font-size="10.00"> myTemplateObjects</text>
<text text-anchor="middle" x="797" y="-506" font-family="Helvetica,sans-Serif" font-size="10.00">myGameObjects</text>
</g>
<!-- Node19&#45;&gt;Node16 -->
<g id="edge21" class="edge"><title>Node19&#45;&gt;Node16</title>
<path fill="none" stroke="#9a32cd" stroke-dasharray="5,2" d="M344.775,-395.243C363.544,-373.632 394.127,-341.358 426,-320 487.01,-279.118 568.7,-249.737 613.062,-235.563"/>
<polygon fill="#9a32cd" stroke="#9a32cd" points="342.018,-393.082 338.183,-402.959 347.34,-397.63 342.018,-393.082"/>
<text text-anchor="middle" x="485" y="-334" font-family="Helvetica,sans-Serif" font-size="10.00"> myDefaultGameObjects</text>
<text text-anchor="middle" x="485" y="-323" font-family="Helvetica,sans-Serif" font-size="10.00">myWorkingGameObjects</text>
</g>
<!-- Node20 -->
<g id="node20" class="node"><title>Node20</title>
<g id="a_node20"><a xlink:href="../../d4/d3b/classauthoring_1_1model_1_1collections_1_1_general_collection.html" target="_top" xlink:title="authoring.model.collections.\lGeneralCollection\&lt; GameObject \&gt;">
<polygon fill="white" stroke="black" points="0.5,-403 0.5,-433 183.5,-433 183.5,-403 0.5,-403"/>
<text text-anchor="start" x="8.5" y="-421" font-family="Helvetica,sans-Serif" font-size="10.00">authoring.model.collections.</text>
<text text-anchor="middle" x="92" y="-410" font-family="Helvetica,sans-Serif" font-size="10.00">GeneralCollection&lt; GameObject &gt;</text>
</a>
</g>
</g>
<!-- Node20&#45;&gt;Node19 -->
<g id="edge22" class="edge"><title>Node20&#45;&gt;Node19</title>
<path fill="none" stroke="midnightblue" d="M193.843,-418C212.335,-418 231.337,-418 248.91,-418"/>
<polygon fill="midnightblue" stroke="midnightblue" points="193.634,-414.5 183.634,-418 193.634,-421.5 193.634,-414.5"/>
</g>
<!-- Node21 -->
<g id="node21" class="node"><title>Node21</title>
<polygon fill="white" stroke="#bfbfbf" points="254.5,-65 254.5,-95 395.5,-95 395.5,-65 254.5,-65"/>
<text text-anchor="start" x="262.5" y="-83" font-family="Helvetica,sans-Serif" font-size="10.00">List&lt; engine.gameObject.</text>
<text text-anchor="middle" x="325" y="-72" font-family="Helvetica,sans-Serif" font-size="10.00">Identifier &gt;</text>
</g>
<!-- Node21&#45;&gt;Node1 -->
<g id="edge44" class="edge"><title>Node21&#45;&gt;Node1</title>
<path fill="none" stroke="#9a32cd" stroke-dasharray="5,2" d="M405.187,-63.1558C412.206,-61.9683 419.218,-60.8909 426,-60 522.701,-47.2968 547.468,-46 645,-46 645,-46 645,-46 1075,-46 1345.18,-46 1416.15,-30.8712 1682,-79 1773.98,-95.6509 1877.65,-133.018 1931.69,-153.991"/>
<polygon fill="#9a32cd" stroke="#9a32cd" points="404.166,-59.7818 394.926,-64.9653 405.382,-66.6755 404.166,-59.7818"/>
<text text-anchor="middle" x="1213" y="-49" font-family="Helvetica,sans-Serif" font-size="10.00"> myGameObjectIDs</text>
</g>
<!-- Node21&#45;&gt;Node16 -->
<g id="edge23" class="edge"><title>Node21&#45;&gt;Node16</title>
<path fill="none" stroke="#9a32cd" stroke-dasharray="5,2" d="M405.437,-93.3777C451.047,-104.731 506.524,-125.293 544,-162 559.389,-177.073 545.632,-192.997 562,-207 571.323,-214.976 583.326,-219.777 595.29,-222.624"/>
<polygon fill="#9a32cd" stroke="#9a32cd" points="406.107,-89.9393 395.568,-91.0244 404.483,-96.7484 406.107,-89.9393"/>
<text text-anchor="middle" x="485" y="-176" font-family="Helvetica,sans-Serif" font-size="10.00"> myConditionIdList</text>
<text text-anchor="middle" x="485" y="-165" font-family="Helvetica,sans-Serif" font-size="10.00">myGameObjectIdList</text>
</g>
<!-- Node22 -->
<g id="node22" class="node"><title>Node22</title>
<polygon fill="white" stroke="#bfbfbf" points="623,-178.5 623,-197.5 669,-197.5 669,-178.5 623,-178.5"/>
<text text-anchor="middle" x="646" y="-185.5" font-family="Helvetica,sans-Serif" font-size="10.00">Group</text>
</g>
<!-- Node22&#45;&gt;Node7 -->
<g id="edge38" class="edge"><title>Node22&#45;&gt;Node7</title>
<path fill="none" stroke="#9a32cd" stroke-dasharray="5,2" d="M679.263,-186.981C774.01,-184.422 1059.52,-179.802 1294,-208 1340.91,-213.641 1356.76,-206.952 1398,-230 1408.82,-236.048 1463.87,-297.176 1485.38,-321.292"/>
<polygon fill="#9a32cd" stroke="#9a32cd" points="679.069,-183.485 669.172,-187.266 679.267,-190.483 679.069,-183.485"/>
<text text-anchor="middle" x="1074" y="-196" font-family="Helvetica,sans-Serif" font-size="10.00"> myRootGroup</text>
</g>
<!-- Node22&#45;&gt;Node12 -->
<g id="edge24" class="edge"><title>Node22&#45;&gt;Node12</title>
<path fill="none" stroke="#9a32cd" stroke-dasharray="5,2" d="M679.388,-194.816C694.788,-198.209 713.415,-202.535 730,-207 782.125,-221.033 802.48,-211.063 846,-243 857.331,-251.315 853.649,-259.493 864,-269 879.586,-283.315 900.755,-294.906 916.629,-302.431"/>
<polygon fill="#9a32cd" stroke="#9a32cd" points="679.822,-191.329 669.307,-192.626 678.336,-198.169 679.822,-191.329"/>
<text text-anchor="middle" x="797" y="-246" font-family="Helvetica,sans-Serif" font-size="10.00"> myCanvas</text>
</g>
<!-- Node23&#45;&gt;Node7 -->
<g id="edge39" class="edge"><title>Node23&#45;&gt;Node7</title>
<path fill="none" stroke="#9a32cd" stroke-dasharray="5,2" d="M1021.35,-581.272C1119.77,-584.712 1287.07,-576.321 1398,-494 1453.65,-452.703 1482.78,-368.75 1491.3,-340.511"/>
<polygon fill="#9a32cd" stroke="#9a32cd" points="1021.29,-577.767 1011.16,-580.865 1021.01,-584.762 1021.29,-577.767"/>
<text text-anchor="middle" x="1213" y="-582" font-family="Helvetica,sans-Serif" font-size="10.00"> mySoundUtility</text>
</g>
<!-- Node23&#45;&gt;Node10 -->
<g id="edge27" class="edge"><title>Node23&#45;&gt;Node10</title>
<path fill="none" stroke="#9a32cd" stroke-dasharray="5,2" d="M987.349,-562.804C1022.39,-553.296 1071.54,-539.337 1114,-525 1139.93,-516.243 1169.12,-504.702 1188.85,-496.646"/>
<polygon fill="#9a32cd" stroke="#9a32cd" points="986.149,-559.502 977.406,-565.486 987.972,-566.261 986.149,-559.502"/>
<text text-anchor="middle" x="1074" y="-552" font-family="Helvetica,sans-Serif" font-size="10.00"> mySoundPlayer</text>
</g>
<!-- Node24 -->
<g id="node24" class="node"><title>Node24</title>
<polygon fill="white" stroke="#bfbfbf" points="570,-521.5 570,-540.5 722,-540.5 722,-521.5 570,-521.5"/>
<text text-anchor="middle" x="646" y="-528.5" font-family="Helvetica,sans-Serif" font-size="10.00">Map&lt; String, MediaPlayer &gt;</text>
</g>
<!-- Node24&#45;&gt;Node23 -->
<g id="edge29" class="edge"><title>Node24&#45;&gt;Node23</title>
<path fill="none" stroke="#9a32cd" stroke-dasharray="5,2" d="M732.529,-541.008C767.744,-545.432 808.905,-550.993 846,-557 861.26,-559.471 877.852,-562.555 892.741,-565.467"/>
<polygon fill="#9a32cd" stroke="#9a32cd" points="732.639,-537.495 722.283,-539.732 731.774,-544.442 732.639,-537.495"/>
<text text-anchor="middle" x="797" y="-560" font-family="Helvetica,sans-Serif" font-size="10.00"> myMediaPlayerMap</text>
</g>
<!-- Node25 -->
<g id="node25" class="node"><title>Node25</title>
<polygon fill="white" stroke="#bfbfbf" points="577,-559.5 577,-578.5 715,-578.5 715,-559.5 577,-559.5"/>
<text text-anchor="middle" x="646" y="-566.5" font-family="Helvetica,sans-Serif" font-size="10.00">Map&lt; String, AudioClip &gt;</text>
</g>
<!-- Node25&#45;&gt;Node23 -->
<g id="edge30" class="edge"><title>Node25&#45;&gt;Node23</title>
<path fill="none" stroke="#9a32cd" stroke-dasharray="5,2" d="M725.284,-570.548C761.945,-571.28 806.21,-572.172 846,-573 853.427,-573.155 861.188,-573.318 868.923,-573.482"/>
<polygon fill="#9a32cd" stroke="#9a32cd" points="725.223,-567.046 715.156,-570.346 725.084,-574.045 725.223,-567.046"/>
<text text-anchor="middle" x="797" y="-576" font-family="Helvetica,sans-Serif" font-size="10.00"> myAudioClipMap</text>
</g>
<!-- Node26 -->
<g id="node26" class="node"><title>Node26</title>
<g id="a_node26"><a xlink:href="../../db/d2a/classauthoring_1_1model_1_1collections_1_1_conditions_collection.html" target="_top" xlink:title="authoring.model.collections.\lConditionsCollection">
<polygon fill="white" stroke="black" points="864,-434 864,-464 1016,-464 1016,-434 864,-434"/>
<text text-anchor="start" x="872" y="-452" font-family="Helvetica,sans-Serif" font-size="10.00">authoring.model.collections.</text>
<text text-anchor="middle" x="940" y="-441" font-family="Helvetica,sans-Serif" font-size="10.00">ConditionsCollection</text>
</a>
</g>
</g>
<!-- Node26&#45;&gt;Node7 -->
<g id="edge40" class="edge"><title>Node26&#45;&gt;Node7</title>
<path fill="none" stroke="#9a32cd" stroke-dasharray="5,2" d="M1026.37,-437.247C1118.85,-423.561 1270.31,-398.364 1398,-364 1422.51,-357.405 1449.82,-347.788 1469.03,-340.635"/>
<polygon fill="#9a32cd" stroke="#9a32cd" points="1025.6,-433.822 1016.22,-438.738 1026.62,-440.747 1025.6,-433.822"/>
<text text-anchor="middle" x="1213" y="-423" font-family="Helvetica,sans-Serif" font-size="10.00"> myGameConditions</text>
</g>
<!-- Node26&#45;&gt;Node10 -->
<g id="edge32" class="edge"><title>Node26&#45;&gt;Node10</title>
<path fill="none" stroke="#9a32cd" stroke-dasharray="5,2" d="M1026.27,-456.96C1054.28,-459.949 1085.53,-463.684 1114,-468 1131.31,-470.623 1150.21,-474.134 1166.76,-477.424"/>
<polygon fill="#9a32cd" stroke="#9a32cd" points="1026.42,-453.456 1016.11,-455.892 1025.69,-460.418 1026.42,-453.456"/>
<text text-anchor="middle" x="1074" y="-471" font-family="Helvetica,sans-Serif" font-size="10.00"> myConditions</text>
</g>
<!-- Node27 -->
<g id="node27" class="node"><title>Node27</title>
<g id="a_node27"><a xlink:href="../../d4/d3b/classauthoring_1_1model_1_1collections_1_1_general_collection.html" target="_top" xlink:title="authoring.model.collections.\lGeneralCollection\&lt; Condition \&gt;">
<polygon fill="white" stroke="black" points="562,-434 562,-464 730,-464 730,-434 562,-434"/>
<text text-anchor="start" x="570" y="-452" font-family="Helvetica,sans-Serif" font-size="10.00">authoring.model.collections.</text>
<text text-anchor="middle" x="646" y="-441" font-family="Helvetica,sans-Serif" font-size="10.00">GeneralCollection&lt; Condition &gt;</text>
</a>
</g>
</g>
<!-- Node27&#45;&gt;Node26 -->
<g id="edge33" class="edge"><title>Node27&#45;&gt;Node26</title>
<path fill="none" stroke="midnightblue" d="M740.523,-449C780.286,-449 826.039,-449 863.588,-449"/>
<polygon fill="midnightblue" stroke="midnightblue" points="740.285,-445.5 730.285,-449 740.285,-452.5 740.285,-445.5"/>
</g>
<!-- Node28 -->
<g id="node28" class="node"><title>Node28</title>
<polygon fill="white" stroke="#bfbfbf" points="1185,-255.5 1185,-274.5 1241,-274.5 1241,-255.5 1185,-255.5"/>
<text text-anchor="middle" x="1213" y="-262.5" font-family="Helvetica,sans-Serif" font-size="10.00">Timeline</text>
</g>
<!-- Node28&#45;&gt;Node7 -->
<g id="edge34" class="edge"><title>Node28&#45;&gt;Node7</title>
<path fill="none" stroke="#9a32cd" stroke-dasharray="5,2" d="M1251.04,-265.719C1288.69,-267.259 1348.37,-271.945 1398,-286 1427.4,-294.326 1459.04,-310.776 1477.65,-321.312"/>
<polygon fill="#9a32cd" stroke="#9a32cd" points="1251.15,-262.22 1241.03,-265.362 1250.9,-269.216 1251.15,-262.22"/>
<text text-anchor="middle" x="1355" y="-289" font-family="Helvetica,sans-Serif" font-size="10.00"> myAnimation</text>
</g>
<!-- Node29 -->
<g id="node29" class="node"><title>Node29</title>
<polygon fill="white" stroke="#bfbfbf" points="1132.5,-217.5 1132.5,-236.5 1293.5,-236.5 1293.5,-217.5 1132.5,-217.5"/>
<text text-anchor="middle" x="1213" y="-224.5" font-family="Helvetica,sans-Serif" font-size="10.00">EventHandler&lt; ActionEvent &gt;</text>
</g>
<!-- Node29&#45;&gt;Node7 -->
<g id="edge37" class="edge"><title>Node29&#45;&gt;Node7</title>
<path fill="none" stroke="#9a32cd" stroke-dasharray="5,2" d="M1304.18,-232.029C1334.89,-236.11 1368.82,-243.325 1398,-256 1434.47,-271.841 1469.15,-304.863 1485,-321.289"/>
<polygon fill="#9a32cd" stroke="#9a32cd" points="1304.25,-228.511 1293.9,-230.762 1303.39,-235.459 1304.25,-228.511"/>
<text text-anchor="middle" x="1355" y="-259" font-family="Helvetica,sans-Serif" font-size="10.00"> oneFrame</text>
</g>
<!-- Node30 -->
<g id="node30" class="node"><title>Node30</title>
<polygon fill="white" stroke="#bfbfbf" points="1416,-216.5 1416,-235.5 1574,-235.5 1574,-216.5 1416,-216.5"/>
<text text-anchor="middle" x="1495" y="-223.5" font-family="Helvetica,sans-Serif" font-size="10.00">List&lt; engine.actions.Action &gt;</text>
</g>
<!-- Node30&#45;&gt;Node2 -->
<g id="edge41" class="edge"><title>Node30&#45;&gt;Node2</title>
<path fill="none" stroke="#9a32cd" stroke-dasharray="5,2" d="M1582.97,-215.028C1614.36,-210.387 1649.95,-204.338 1682,-197 1703.81,-192.007 1727.99,-184.57 1746.09,-178.615"/>
<polygon fill="#9a32cd" stroke="#9a32cd" points="1582.32,-211.584 1572.93,-216.485 1583.33,-218.511 1582.32,-211.584"/>
<text text-anchor="middle" x="1637" y="-217" font-family="Helvetica,sans-Serif" font-size="10.00"> myActions</text>
</g>
<!-- Node31 -->
<g id="node31" class="node"><title>Node31</title>
<polygon fill="white" stroke="#bfbfbf" points="1434,-178.5 1434,-197.5 1556,-197.5 1556,-178.5 1434,-178.5"/>
<text text-anchor="middle" x="1495" y="-185.5" font-family="Helvetica,sans-Serif" font-size="10.00">Map&lt; String, String &gt;</text>
</g>
<!-- Node31&#45;&gt;Node2 -->
<g id="edge42" class="edge"><title>Node31&#45;&gt;Node2</title>
<path fill="none" stroke="#9a32cd" stroke-dasharray="5,2" d="M1566.49,-183.182C1607.45,-180.383 1658.98,-176.861 1700.44,-174.027"/>
<polygon fill="#9a32cd" stroke="#9a32cd" points="1566.06,-179.703 1556.32,-183.877 1566.54,-186.687 1566.06,-179.703"/>
<text text-anchor="middle" x="1637" y="-185" font-family="Helvetica,sans-Serif" font-size="10.00"> myInputs</text>
</g>
</g>
</svg>
        <g id="navigator" transform="translate(0 0)" fill="#404254">
                <rect fill="#f2f5e9" fill-opacity="0.5" stroke="#606060" stroke-width=".5" x="0" y="0" width="60" height="60"/>
                <use id="zoomplus" xlink:href="#zoomPlus" x="17" y="9" onmousedown="handleZoom(evt,'in')"/>
                <use id="zoomminus" xlink:href="#zoomMin" x="42" y="9" onmousedown="handleZoom(evt,'out')"/>
                <use id="reset" xlink:href="#resetDef" x="30" y="36" onmousedown="handleReset()"/>
                <g id="arrowUp" xlink:href="#dirArrow" transform="translate(30 24)" onmousedown="handlePan(0,-1)">
                  <use xlink:href="#rim" fill="#404040">
                        <set attributeName="fill" to="#808080" begin="arrowUp.mouseover" end="arrowUp.mouseout"/>
                  </use>
                  <path fill="none" stroke="white" stroke-width="1.5" d="M0,-3.0v7 M-2.5,-0.5L0,-3.0L2.5,-0.5"/>
                </g>
                <g id="arrowRight" xlink:href="#dirArrow" transform="rotate(90) translate(36 -43)" onmousedown="handlePan(1,0)">
                  <use xlink:href="#rim" fill="#404040">
                        <set attributeName="fill" to="#808080" begin="arrowRight.mouseover" end="arrowRight.mouseout"/>
                  </use>
                  <path fill="none" stroke="white" stroke-width="1.5" d="M0,-3.0v7 M-2.5,-0.5L0,-3.0L2.5,-0.5"/>
                </g>
                <g id="arrowDown" xlink:href="#dirArrow" transform="rotate(180) translate(-30 -48)" onmousedown="handlePan(0,1)">
                  <use xlink:href="#rim" fill="#404040">
                        <set attributeName="fill" to="#808080" begin="arrowDown.mouseover" end="arrowDown.mouseout"/>
                  </use>
                  <path fill="none" stroke="white" stroke-width="1.5" d="M0,-3.0v7 M-2.5,-0.5L0,-3.0L2.5,-0.5"/>
                </g>
                <g id="arrowLeft" xlink:href="#dirArrow" transform="rotate(270) translate(-36 17)" onmousedown="handlePan(-1,0)">
                  <use xlink:href="#rim" fill="#404040">
                        <set attributeName="fill" to="#808080" begin="arrowLeft.mouseover" end="arrowLeft.mouseout"/>
                  </use>
                  <path fill="none" stroke="white" stroke-width="1.5" d="M0,-3.0v7 M-2.5,-0.5L0,-3.0L2.5,-0.5"/>
                </g>
        </g>
        <svg viewBox="0 0 15 15" width="100%" height="30px" preserveAspectRatio="xMaxYMin meet">
         <g id="arrow_out" transform="scale(0.3 0.3)">
          <a xlink:href="classengine_1_1conditions_1_1_game_object_condition__coll__graph_org.svg" target="_base">
           <rect id="button" ry="5" rx="5" y="6" x="6" height="38" width="38"
                fill="#f2f5e9" fill-opacity="0.5" stroke="#606060" stroke-width="1.0"/>
           <path id="arrow"
             d="M 11.500037,31.436501 C 11.940474,20.09759 22.043105,11.32322 32.158766,21.979434 L 37.068811,17.246167 C 37.068811,17.246167 37.088388,32 37.088388,32 L 22.160133,31.978069 C 22.160133,31.978069 26.997745,27.140456 26.997745,27.140456 C 18.528582,18.264221 13.291696,25.230495 11.500037,31.436501 z"
             style="fill:#404040;"/>
          </a>
         </g>
        </svg>
</svg>
