<?xml version="1.0" encoding="UTF-8" standalone="no"?>
<!DOCTYPE svg PUBLIC "-//W3C//DTD SVG 1.1//EN"
 "http://www.w3.org/Graphics/SVG/1.1/DTD/svg11.dtd">
<!-- Generated by graphviz version 2.36.0 (20140111.2315)
 -->
<!-- Title: engine.actions.IDAction Pages: 1 -->
<svg width="668pt" height="126pt"
 viewBox="0.00 0.00 668.00 126.00" xmlns="http://www.w3.org/2000/svg" xmlns:xlink="http://www.w3.org/1999/xlink">
<g id="graph0" class="graph" transform="scale(1 1) rotate(0) translate(4 122)">
<title>engine.actions.IDAction</title>
<polygon fill="white" stroke="none" points="-4,4 -4,-122 664,-122 664,4 -4,4"/>
<!-- Node1 -->
<g id="node1" class="node"><title>Node1</title>
<polygon fill="#bfbfbf" stroke="black" points="334.5,-49.5 334.5,-68.5 463.5,-68.5 463.5,-49.5 334.5,-49.5"/>
<text text-anchor="middle" x="399" y="-56.5" font-family="Helvetica,sans-Serif" font-size="10.00">engine.actions.IDAction</text>
</g>
<!-- Node4 -->
<g id="node4" class="node"><title>Node4</title>
<g id="a_node4"><a xlink:href="../../d8/dfe/classengine_1_1actions_1_1_change_image_i_d_action.html" target="_top" xlink:title="engine.actions.ChangeImage\lIDAction">
<polygon fill="white" stroke="black" points="502,-88 502,-118 658,-118 658,-88 502,-88"/>
<text text-anchor="start" x="510" y="-106" font-family="Helvetica,sans-Serif" font-size="10.00">engine.actions.ChangeImage</text>
<text text-anchor="middle" x="580" y="-95" font-family="Helvetica,sans-Serif" font-size="10.00">IDAction</text>
</a>
</g>
</g>
<!-- Node1&#45;&gt;Node4 -->
<g id="edge4" class="edge"><title>Node1&#45;&gt;Node4</title>
<path fill="none" stroke="midnightblue" d="M448.635,-70.955C469.929,-76.1892 495.152,-82.3893 517.711,-87.9346"/>
<polygon fill="midnightblue" stroke="midnightblue" points="449.387,-67.5356 438.84,-68.5473 447.716,-74.3333 449.387,-67.5356"/>
</g>
<!-- Node5 -->
<g id="node5" class="node"><title>Node5</title>
<g id="a_node5"><a xlink:href="../../df/d4c/classengine_1_1actions_1_1_delete_id_action.html" target="_top" xlink:title="engine.actions.DeleteIdAction">
<polygon fill="white" stroke="black" points="500.5,-49.5 500.5,-68.5 659.5,-68.5 659.5,-49.5 500.5,-49.5"/>
<text text-anchor="middle" x="580" y="-56.5" font-family="Helvetica,sans-Serif" font-size="10.00">engine.actions.DeleteIdAction</text>
</a>
</g>
</g>
<!-- Node1&#45;&gt;Node5 -->
<g id="edge5" class="edge"><title>Node1&#45;&gt;Node5</title>
<path fill="none" stroke="midnightblue" d="M473.754,-59C482.492,-59 491.436,-59 500.24,-59"/>
<polygon fill="midnightblue" stroke="midnightblue" points="473.613,-55.5001 463.613,-59 473.613,-62.5001 473.613,-55.5001"/>
</g>
<!-- Node6 -->
<g id="node6" class="node"><title>Node6</title>
<g id="a_node6"><a xlink:href="../../df/de5/classengine_1_1actions_1_1_rotate_image_i_d_action.html" target="_top" xlink:title="engine.actions.RotateImage\lIDAction">
<polygon fill="white" stroke="black" points="505,-0 505,-30 655,-30 655,-0 505,-0"/>
<text text-anchor="start" x="513" y="-18" font-family="Helvetica,sans-Serif" font-size="10.00">engine.actions.RotateImage</text>
<text text-anchor="middle" x="580" y="-7" font-family="Helvetica,sans-Serif" font-size="10.00">IDAction</text>
</a>
</g>
</g>
<!-- Node1&#45;&gt;Node6 -->
<g id="edge6" class="edge"><title>Node1&#45;&gt;Node6</title>
<path fill="none" stroke="midnightblue" d="M448.635,-47.045C469.929,-41.8108 495.152,-35.6107 517.711,-30.0654"/>
<polygon fill="midnightblue" stroke="midnightblue" points="447.716,-43.6667 438.84,-49.4527 449.387,-50.4644 447.716,-43.6667"/>
</g>
<!-- Node2 -->
<g id="node2" class="node"><title>Node2</title>
<g id="a_node2"><a xlink:href="../../d9/dd2/interfaceengine_1_1actions_1_1_action.html" target="_top" xlink:title="engine.actions.Action">
<polygon fill="white" stroke="black" points="178.5,-30.5 178.5,-49.5 297.5,-49.5 297.5,-30.5 178.5,-30.5"/>
<text text-anchor="middle" x="238" y="-37.5" font-family="Helvetica,sans-Serif" font-size="10.00">engine.actions.Action</text>
</a>
</g>
</g>
<!-- Node2&#45;&gt;Node1 -->
<g id="edge1" class="edge"><title>Node2&#45;&gt;Node1</title>
<path fill="none" stroke="midnightblue" d="M307.964,-48.2409C316.751,-49.291 325.714,-50.3621 334.412,-51.4014"/>
<polygon fill="midnightblue" stroke="midnightblue" points="308.099,-44.7323 297.754,-47.0209 307.268,-51.6828 308.099,-44.7323"/>
</g>
<!-- Node3 -->
<g id="node3" class="node"><title>Node3</title>
<g id="a_node3"><a xlink:href="../../d2/d15/interfaceengine_1_1actions_1_1_initializable.html" target="_top" xlink:title="engine.actions.Initializable">
<polygon fill="white" stroke="black" points="0,-49.5 0,-68.5 142,-68.5 142,-49.5 0,-49.5"/>
<text text-anchor="middle" x="71" y="-56.5" font-family="Helvetica,sans-Serif" font-size="10.00">engine.actions.Initializable</text>
</a>
</g>
</g>
<!-- Node3&#45;&gt;Node1 -->
<g id="edge3" class="edge"><title>Node3&#45;&gt;Node1</title>
<path fill="none" stroke="midnightblue" d="M152.595,-59C208.692,-59 282.457,-59 334.416,-59"/>
<polygon fill="midnightblue" stroke="midnightblue" points="152.336,-55.5001 142.336,-59 152.336,-62.5001 152.336,-55.5001"/>
</g>
<!-- Node3&#45;&gt;Node2 -->
<g id="edge2" class="edge"><title>Node3&#45;&gt;Node2</title>
<path fill="none" stroke="midnightblue" d="M152.638,-49.7145C161.344,-48.7119 170.077,-47.7062 178.451,-46.742"/>
<polygon fill="midnightblue" stroke="midnightblue" points="151.987,-46.2661 142.453,-50.8872 152.788,-53.2202 151.987,-46.2661"/>
</g>
</g>
</svg>
