<?xml version="1.0" encoding="UTF-8" standalone="no"?>
<!DOCTYPE svg PUBLIC "-//W3C//DTD SVG 1.1//EN"
 "http://www.w3.org/Graphics/SVG/1.1/DTD/svg11.dtd">
<!-- Generated by graphviz version 2.36.0 (20140111.2315)
 -->
<!-- Title: engine.actions.ChangeLevelAction Pages: 1 -->
<svg width="1558pt" height="535pt"
 viewBox="0.00 0.00 1558.00 534.92" xmlns="http://www.w3.org/2000/svg" xmlns:xlink="http://www.w3.org/1999/xlink">
<g id="graph0" class="graph" transform="scale(1 1) rotate(0) translate(4 530.924)">
<title>engine.actions.ChangeLevelAction</title>
<polygon fill="white" stroke="none" points="-4,4 -4,-530.924 1554,-530.924 1554,4 -4,4"/>
<!-- Node1 -->
<g id="node1" class="node"><title>Node1</title>
<polygon fill="#bfbfbf" stroke="black" points="1398.5,-275.924 1398.5,-305.924 1549.5,-305.924 1549.5,-275.924 1398.5,-275.924"/>
<text text-anchor="start" x="1406.5" y="-293.924" font-family="Helvetica,sans-Serif" font-size="10.00">engine.actions.ChangeLevel</text>
<text text-anchor="middle" x="1474" y="-282.924" font-family="Helvetica,sans-Serif" font-size="10.00">Action</text>
</g>
<!-- Node2 -->
<g id="node2" class="node"><title>Node2</title>
<g id="a_node2"><a xlink:href="../../d9/dd2/interfaceengine_1_1actions_1_1_action.html" target="_top" xlink:title="engine.actions.Action">
<polygon fill="white" stroke="black" points="1144.5,-361.424 1144.5,-380.424 1263.5,-380.424 1263.5,-361.424 1144.5,-361.424"/>
<text text-anchor="middle" x="1204" y="-368.424" font-family="Helvetica,sans-Serif" font-size="10.00">engine.actions.Action</text>
</a>
</g>
</g>
<!-- Node2&#45;&gt;Node1 -->
<g id="edge1" class="edge"><title>Node2&#45;&gt;Node1</title>
<path fill="none" stroke="midnightblue" d="M1246.72,-358.47C1294.22,-344.291 1371.8,-321.133 1422.63,-305.959"/>
<polygon fill="midnightblue" stroke="midnightblue" points="1245.64,-355.139 1237.06,-361.353 1247.64,-361.847 1245.64,-355.139"/>
</g>
<!-- Node3 -->
<g id="node3" class="node"><title>Node3</title>
<g id="a_node3"><a xlink:href="../../d2/d15/interfaceengine_1_1actions_1_1_initializable.html" target="_top" xlink:title="engine.actions.Initializable">
<polygon fill="white" stroke="black" points="869,-507.424 869,-526.424 1011,-526.424 1011,-507.424 869,-507.424"/>
<text text-anchor="middle" x="940" y="-514.424" font-family="Helvetica,sans-Serif" font-size="10.00">engine.actions.Initializable</text>
</a>
</g>
</g>
<!-- Node3&#45;&gt;Node1 -->
<g id="edge3" class="edge"><title>Node3&#45;&gt;Node1</title>
<path fill="none" stroke="midnightblue" d="M1021.68,-520.844C1051.27,-520.182 1084.68,-516.924 1114,-507.924 1259.16,-463.365 1406.01,-347.445 1455.5,-305.962"/>
<polygon fill="midnightblue" stroke="midnightblue" points="1021.34,-517.348 1011.38,-520.975 1021.42,-524.347 1021.34,-517.348"/>
</g>
<!-- Node3&#45;&gt;Node2 -->
<g id="edge2" class="edge"><title>Node3&#45;&gt;Node2</title>
<path fill="none" stroke="midnightblue" d="M1021.41,-512.902C1052.14,-508.448 1086.4,-499.722 1114,-482.924 1156.64,-456.972 1187.19,-402.728 1198.35,-380.618"/>
<polygon fill="midnightblue" stroke="midnightblue" points="1020.6,-509.479 1011.14,-514.255 1021.51,-516.419 1020.6,-509.479"/>
</g>
<!-- Node4 -->
<g id="node4" class="node"><title>Node4</title>
<g id="a_node4"><a xlink:href="../../df/d67/classengine_1_1level_1_1_level_manager.html" target="_top" xlink:title="engine.level.LevelManager">
<polygon fill="white" stroke="black" points="1132.5,-228.424 1132.5,-247.424 1275.5,-247.424 1275.5,-228.424 1132.5,-228.424"/>
<text text-anchor="middle" x="1204" y="-235.424" font-family="Helvetica,sans-Serif" font-size="10.00">engine.level.LevelManager</text>
</a>
</g>
</g>
<!-- Node4&#45;&gt;Node1 -->
<g id="edge4" class="edge"><title>Node4&#45;&gt;Node1</title>
<path fill="none" stroke="#9a32cd" stroke-dasharray="5,2" d="M1263.25,-249.444C1302.87,-257.28 1355.65,-267.717 1398.35,-276.161"/>
<polygon fill="#9a32cd" stroke="#9a32cd" points="1263.71,-245.967 1253.22,-247.46 1262.35,-252.834 1263.71,-245.967"/>
<text text-anchor="middle" x="1337" y="-275.924" font-family="Helvetica,sans-Serif" font-size="10.00"> myLevelManager</text>
</g>
<!-- Node5 -->
<g id="node5" class="node"><title>Node5</title>
<polygon fill="white" stroke="#bfbfbf" points="890,-210.424 890,-229.424 990,-229.424 990,-210.424 890,-210.424"/>
<text text-anchor="middle" x="940" y="-217.424" font-family="Helvetica,sans-Serif" font-size="10.00">Iterable&lt; Level &gt;</text>
</g>
<!-- Node5&#45;&gt;Node4 -->
<g id="edge5" class="edge"><title>Node5&#45;&gt;Node4</title>
<path fill="none" stroke="midnightblue" d="M1000.46,-224.008C1039.57,-226.696 1090.95,-230.226 1132.18,-233.058"/>
<polygon fill="midnightblue" stroke="midnightblue" points="1000.5,-220.503 990.28,-223.309 1000.02,-227.487 1000.5,-220.503"/>
</g>
<!-- Node6 -->
<g id="node6" class="node"><title>Node6</title>
<g id="a_node6"><a xlink:href="../../df/de5/classauthoring_1_1model_1_1collections_1_1_levels_collection.html" target="_top" xlink:title="authoring.model.collections.\lLevelsCollection">
<polygon fill="white" stroke="black" points="570,-456.924 570,-486.924 722,-486.924 722,-456.924 570,-456.924"/>
<text text-anchor="start" x="578" y="-474.924" font-family="Helvetica,sans-Serif" font-size="10.00">authoring.model.collections.</text>
<text text-anchor="middle" x="646" y="-463.924" font-family="Helvetica,sans-Serif" font-size="10.00">LevelsCollection</text>
</a>
</g>
</g>
<!-- Node6&#45;&gt;Node4 -->
<g id="edge6" class="edge"><title>Node6&#45;&gt;Node4</title>
<path fill="none" stroke="#9a32cd" stroke-dasharray="5,2" d="M732.567,-470.745C767.956,-469.008 809.233,-465.358 846,-457.924 924.248,-442.102 943.489,-433.319 1016,-399.924 1061.97,-378.752 1075.25,-374.478 1114,-341.924 1149.66,-311.964 1182.89,-266.917 1196.5,-247.447"/>
<polygon fill="#9a32cd" stroke="#9a32cd" points="732.103,-467.262 722.269,-471.205 732.415,-474.255 732.103,-467.262"/>
<text text-anchor="middle" x="940" y="-455.924" font-family="Helvetica,sans-Serif" font-size="10.00"> myLevels</text>
</g>
<!-- Node22 -->
<g id="node22" class="node"><title>Node22</title>
<g id="a_node22"><a xlink:href="../../da/d90/classengine_1_1sound_1_1_sound_utility.html" target="_top" xlink:title="engine.sound.SoundUtility">
<polygon fill="white" stroke="black" points="869,-371.424 869,-390.424 1011,-390.424 1011,-371.424 869,-371.424"/>
<text text-anchor="middle" x="940" y="-378.424" font-family="Helvetica,sans-Serif" font-size="10.00">engine.sound.SoundUtility</text>
</a>
</g>
</g>
<!-- Node6&#45;&gt;Node22 -->
<g id="edge25" class="edge"><title>Node6&#45;&gt;Node22</title>
<path fill="none" stroke="#9a32cd" stroke-dasharray="5,2" d="M717.152,-454.443C727.492,-451.9 738.019,-449.33 748,-446.924 791.493,-436.438 803.701,-438.498 846,-423.924 873.077,-414.595 902.88,-399.992 921.27,-390.439"/>
<polygon fill="#9a32cd" stroke="#9a32cd" points="716.193,-451.074 707.321,-456.866 717.868,-457.871 716.193,-451.074"/>
<text text-anchor="middle" x="797" y="-449.924" font-family="Helvetica,sans-Serif" font-size="10.00"> myLevels</text>
</g>
<!-- Node7 -->
<g id="node7" class="node"><title>Node7</title>
<g id="a_node7"><a xlink:href="../../d4/d3b/classauthoring_1_1model_1_1collections_1_1_general_collection.html" target="_top" xlink:title="authoring.model.collections.\lGeneralCollection\&lt; Level \&gt;">
<polygon fill="white" stroke="black" points="249,-456.924 249,-486.924 401,-486.924 401,-456.924 249,-456.924"/>
<text text-anchor="start" x="257" y="-474.924" font-family="Helvetica,sans-Serif" font-size="10.00">authoring.model.collections.</text>
<text text-anchor="middle" x="325" y="-463.924" font-family="Helvetica,sans-Serif" font-size="10.00">GeneralCollection&lt; Level &gt;</text>
</a>
</g>
</g>
<!-- Node7&#45;&gt;Node6 -->
<g id="edge7" class="edge"><title>Node7&#45;&gt;Node6</title>
<path fill="none" stroke="midnightblue" d="M411.216,-471.924C460.588,-471.924 522.186,-471.924 569.758,-471.924"/>
<polygon fill="midnightblue" stroke="midnightblue" points="411.195,-468.424 401.195,-471.924 411.195,-475.424 411.195,-468.424"/>
</g>
<!-- Node8 -->
<g id="node8" class="node"><title>Node8</title>
<g id="a_node8"><a xlink:href="../../dd/d8d/classengine_1_1render_1_1_renderer.html" target="_top" xlink:title="engine.render.Renderer">
<polygon fill="white" stroke="black" points="876,-248.424 876,-267.424 1004,-267.424 1004,-248.424 876,-248.424"/>
<text text-anchor="middle" x="940" y="-255.424" font-family="Helvetica,sans-Serif" font-size="10.00">engine.render.Renderer</text>
</a>
</g>
</g>
<!-- Node8&#45;&gt;Node4 -->
<g id="edge8" class="edge"><title>Node8&#45;&gt;Node4</title>
<path fill="none" stroke="#9a32cd" stroke-dasharray="5,2" d="M1014.27,-252.33C1051.14,-249.516 1095.62,-246.12 1132.15,-243.332"/>
<polygon fill="#9a32cd" stroke="#9a32cd" points="1013.79,-248.857 1004.09,-253.108 1014.33,-255.836 1013.79,-248.857"/>
<text text-anchor="middle" x="1074" y="-253.924" font-family="Helvetica,sans-Serif" font-size="10.00"> myRenderer</text>
</g>
<!-- Node9 -->
<g id="node9" class="node"><title>Node9</title>
<polygon fill="white" stroke="#bfbfbf" points="564,-195.924 564,-225.924 728,-225.924 728,-195.924 564,-195.924"/>
<text text-anchor="start" x="572" y="-213.924" font-family="Helvetica,sans-Serif" font-size="10.00">Map&lt; Identifier, engine.render.</text>
<text text-anchor="middle" x="646" y="-202.924" font-family="Helvetica,sans-Serif" font-size="10.00">RenderedNode &gt;</text>
</g>
<!-- Node9&#45;&gt;Node8 -->
<g id="edge9" class="edge"><title>Node9&#45;&gt;Node8</title>
<path fill="none" stroke="#9a32cd" stroke-dasharray="5,2" d="M738.689,-224.896C772.444,-230.122 810.978,-236.184 846,-241.924 858.449,-243.964 871.823,-246.225 884.439,-248.388"/>
<polygon fill="#9a32cd" stroke="#9a32cd" points="738.793,-221.371 728.376,-223.302 737.724,-228.289 738.793,-221.371"/>
<text text-anchor="middle" x="797" y="-244.924" font-family="Helvetica,sans-Serif" font-size="10.00"> myRenderedNodes</text>
</g>
<!-- Node10 -->
<g id="node10" class="node"><title>Node10</title>
<g id="a_node10"><a xlink:href="../../d5/d30/classengine_1_1render_1_1_rendered_node_factory.html" target="_top" xlink:title="engine.render.RenderedNode\lFactory">
<polygon fill="white" stroke="black" points="568,-283.924 568,-313.924 724,-313.924 724,-283.924 568,-283.924"/>
<text text-anchor="start" x="576" y="-301.924" font-family="Helvetica,sans-Serif" font-size="10.00">engine.render.RenderedNode</text>
<text text-anchor="middle" x="646" y="-290.924" font-family="Helvetica,sans-Serif" font-size="10.00">Factory</text>
</a>
</g>
</g>
<!-- Node10&#45;&gt;Node8 -->
<g id="edge10" class="edge"><title>Node10&#45;&gt;Node8</title>
<path fill="none" stroke="#9a32cd" stroke-dasharray="5,2" d="M734.226,-288.103C769.03,-283.635 809.443,-278.259 846,-272.924 857.49,-271.247 869.76,-269.346 881.494,-267.475"/>
<polygon fill="#9a32cd" stroke="#9a32cd" points="733.568,-284.658 724.093,-289.398 734.456,-291.602 733.568,-284.658"/>
<text text-anchor="middle" x="797" y="-289.924" font-family="Helvetica,sans-Serif" font-size="10.00"> myFactory</text>
</g>
<!-- Node11 -->
<g id="node11" class="node"><title>Node11</title>
<g id="a_node11"><a xlink:href="../../d9/db5/classengine_1_1_file_path_utility.html" target="_top" xlink:title="engine.FilePathUtility">
<polygon fill="white" stroke="black" points="267.5,-378.424 267.5,-397.424 382.5,-397.424 382.5,-378.424 267.5,-378.424"/>
<text text-anchor="middle" x="325" y="-385.424" font-family="Helvetica,sans-Serif" font-size="10.00">engine.FilePathUtility</text>
</a>
</g>
</g>
<!-- Node11&#45;&gt;Node10 -->
<g id="edge11" class="edge"><title>Node11&#45;&gt;Node10</title>
<path fill="none" stroke="#9a32cd" stroke-dasharray="5,2" d="M370.038,-375.637C427.703,-359.549 528.75,-331.357 590.976,-313.996"/>
<polygon fill="#9a32cd" stroke="#9a32cd" points="368.83,-372.341 360.139,-378.399 370.711,-379.083 368.83,-372.341"/>
<text text-anchor="middle" x="485" y="-362.924" font-family="Helvetica,sans-Serif" font-size="10.00"> myFilePathUtility</text>
</g>
<!-- Node11&#45;&gt;Node22 -->
<g id="edge28" class="edge"><title>Node11&#45;&gt;Node22</title>
<path fill="none" stroke="#9a32cd" stroke-dasharray="5,2" d="M392.904,-393.744C492.099,-401.29 683.918,-411.726 846,-395.924 859.347,-394.622 873.686,-392.616 887.011,-390.489"/>
<polygon fill="#9a32cd" stroke="#9a32cd" points="392.967,-390.238 382.726,-392.955 392.426,-397.218 392.967,-390.238"/>
<text text-anchor="middle" x="646" y="-407.924" font-family="Helvetica,sans-Serif" font-size="10.00"> myFilePathUtility</text>
</g>
<!-- Node12 -->
<g id="node12" class="node"><title>Node12</title>
<g id="a_node12"><a xlink:href="../../df/d84/classengine_1_1level_1_1_level.html" target="_top" xlink:title="engine.level.Level">
<polygon fill="white" stroke="black" points="595.5,-156.424 595.5,-175.424 696.5,-175.424 696.5,-156.424 595.5,-156.424"/>
<text text-anchor="middle" x="646" y="-163.424" font-family="Helvetica,sans-Serif" font-size="10.00">engine.level.Level</text>
</a>
</g>
</g>
<!-- Node12&#45;&gt;Node4 -->
<g id="edge23" class="edge"><title>Node12&#45;&gt;Node4</title>
<path fill="none" stroke="#9a32cd" stroke-dasharray="5,2" d="M706.982,-166.403C780.311,-167.774 907.99,-172.703 1016,-189.924 1072.27,-198.895 1136.27,-217.118 1172.92,-228.35"/>
<polygon fill="#9a32cd" stroke="#9a32cd" points="706.624,-162.896 696.566,-166.225 706.505,-169.895 706.624,-162.896"/>
<text text-anchor="middle" x="940" y="-192.924" font-family="Helvetica,sans-Serif" font-size="10.00"> myCurrentLevel</text>
</g>
<!-- Node12&#45;&gt;Node8 -->
<g id="edge12" class="edge"><title>Node12&#45;&gt;Node8</title>
<path fill="none" stroke="#9a32cd" stroke-dasharray="5,2" d="M706.922,-174.785C756.998,-183.085 823.694,-196.499 846,-211.924 857.862,-220.126 852.224,-230.597 864,-238.924 869.484,-242.801 875.686,-245.889 882.118,-248.347"/>
<polygon fill="#9a32cd" stroke="#9a32cd" points="707.261,-171.294 696.829,-173.143 706.137,-178.203 707.261,-171.294"/>
<text text-anchor="middle" x="797" y="-214.924" font-family="Helvetica,sans-Serif" font-size="10.00"> myCurrentLevel</text>
</g>
<!-- Node13 -->
<g id="node13" class="node"><title>Node13</title>
<g id="a_node13"><a xlink:href="../../d3/d8d/classdata_1_1_observable.html" target="_top" xlink:title="data.Observable">
<polygon fill="white" stroke="black" points="277.5,-161.424 277.5,-180.424 372.5,-180.424 372.5,-161.424 277.5,-161.424"/>
<text text-anchor="middle" x="325" y="-168.424" font-family="Helvetica,sans-Serif" font-size="10.00">data.Observable</text>
</a>
</g>
</g>
<!-- Node13&#45;&gt;Node12 -->
<g id="edge13" class="edge"><title>Node13&#45;&gt;Node12</title>
<path fill="none" stroke="midnightblue" d="M382.85,-170.033C443.23,-169.086 537.733,-167.605 595.257,-166.703"/>
<polygon fill="midnightblue" stroke="midnightblue" points="382.671,-166.535 372.727,-170.191 382.781,-173.534 382.671,-166.535"/>
</g>
<!-- Node14 -->
<g id="node14" class="node"><title>Node14</title>
<polygon fill="white" stroke="#bfbfbf" points="23,-161.424 23,-180.424 161,-180.424 161,-161.424 23,-161.424"/>
<text text-anchor="middle" x="92" y="-168.424" font-family="Helvetica,sans-Serif" font-size="10.00">Vector&lt; data.Observer &gt;</text>
</g>
<!-- Node14&#45;&gt;Node13 -->
<g id="edge14" class="edge"><title>Node14&#45;&gt;Node13</title>
<path fill="none" stroke="#9a32cd" stroke-dasharray="5,2" d="M171.318,-170.924C206.521,-170.924 246.882,-170.924 277.262,-170.924"/>
<polygon fill="#9a32cd" stroke="#9a32cd" points="171.058,-167.424 161.058,-170.924 171.058,-174.424 171.058,-167.424"/>
<text text-anchor="middle" x="213" y="-173.924" font-family="Helvetica,sans-Serif" font-size="10.00"> obs</text>
</g>
<!-- Node15 -->
<g id="node15" class="node"><title>Node15</title>
<g id="a_node15"><a xlink:href="../../dc/df6/interfaceengine_1_1game_object_1_1_identifiable.html" target="_top" xlink:title="engine.gameObject.Identifiable">
<polygon fill="white" stroke="black" points="242.5,-123.424 242.5,-142.424 407.5,-142.424 407.5,-123.424 242.5,-123.424"/>
<text text-anchor="middle" x="325" y="-130.424" font-family="Helvetica,sans-Serif" font-size="10.00">engine.gameObject.Identifiable</text>
</a>
</g>
</g>
<!-- Node15&#45;&gt;Node12 -->
<g id="edge15" class="edge"><title>Node15&#45;&gt;Node12</title>
<path fill="none" stroke="midnightblue" d="M417.979,-142.439C475.763,-148.416 548.047,-155.894 595.318,-160.784"/>
<polygon fill="midnightblue" stroke="midnightblue" points="418.043,-138.927 407.736,-141.379 417.323,-145.89 418.043,-138.927"/>
</g>
<!-- Node16 -->
<g id="node16" class="node"><title>Node16</title>
<g id="a_node16"><a xlink:href="../../d4/dac/classengine_1_1game_object_1_1_identifier.html" target="_top" xlink:title="engine.gameObject.Identifier">
<polygon fill="white" stroke="black" points="247.5,-77.4237 247.5,-96.4237 402.5,-96.4237 402.5,-77.4237 247.5,-77.4237"/>
<text text-anchor="middle" x="325" y="-84.4237" font-family="Helvetica,sans-Serif" font-size="10.00">engine.gameObject.Identifier</text>
</a>
</g>
</g>
<!-- Node16&#45;&gt;Node1 -->
<g id="edge31" class="edge"><title>Node16&#45;&gt;Node1</title>
<path fill="none" stroke="#9a32cd" stroke-dasharray="5,2" d="M412.757,-83.1543C476.898,-80.6893 566.377,-77.9237 645,-77.9237 645,-77.9237 645,-77.9237 1205,-77.9237 1332.19,-77.9237 1434.01,-226.766 1464,-275.605"/>
<polygon fill="#9a32cd" stroke="#9a32cd" points="412.542,-79.6599 402.686,-83.5469 412.815,-86.6546 412.542,-79.6599"/>
<text text-anchor="middle" x="940" y="-80.9237" font-family="Helvetica,sans-Serif" font-size="10.00"> levelID</text>
</g>
<!-- Node16&#45;&gt;Node12 -->
<g id="edge16" class="edge"><title>Node16&#45;&gt;Node12</title>
<path fill="none" stroke="#9a32cd" stroke-dasharray="5,2" d="M412.687,-92.3256C454.223,-97.6748 503.597,-108.218 544,-128.924 553.793,-133.942 552.326,-140.681 562,-145.924 572.165,-151.432 583.84,-155.441 595.163,-158.352"/>
<polygon fill="#9a32cd" stroke="#9a32cd" points="412.929,-88.8295 402.581,-91.1056 412.09,-95.7791 412.929,-88.8295"/>
<text text-anchor="middle" x="485" y="-131.924" font-family="Helvetica,sans-Serif" font-size="10.00"> myId</text>
</g>
<!-- Node17 -->
<g id="node17" class="node"><title>Node17</title>
<polygon fill="white" stroke="#bfbfbf" points="64,-77.4237 64,-96.4237 120,-96.4237 120,-77.4237 64,-77.4237"/>
<text text-anchor="middle" x="92" y="-84.4237" font-family="Helvetica,sans-Serif" font-size="10.00">Random</text>
</g>
<!-- Node17&#45;&gt;Node16 -->
<g id="edge17" class="edge"><title>Node17&#45;&gt;Node16</title>
<path fill="none" stroke="#9a32cd" stroke-dasharray="5,2" d="M130.511,-86.9237C162.046,-86.9237 208.136,-86.9237 247.423,-86.9237"/>
<polygon fill="#9a32cd" stroke="#9a32cd" points="130.406,-83.4238 120.406,-86.9237 130.406,-90.4238 130.406,-83.4238"/>
<text text-anchor="middle" x="213" y="-89.9237" font-family="Helvetica,sans-Serif" font-size="10.00"> r</text>
</g>
<!-- Node18 -->
<g id="node18" class="node"><title>Node18</title>
<g id="a_node18"><a xlink:href="../../d1/d32/classauthoring_1_1model_1_1collections_1_1_game_objects_collection.html" target="_top" xlink:title="authoring.model.collections.\lGameObjectsCollection">
<polygon fill="white" stroke="black" points="249,-9.92374 249,-39.9237 401,-39.9237 401,-9.92374 249,-9.92374"/>
<text text-anchor="start" x="257" y="-27.9237" font-family="Helvetica,sans-Serif" font-size="10.00">authoring.model.collections.</text>
<text text-anchor="middle" x="325" y="-16.9237" font-family="Helvetica,sans-Serif" font-size="10.00">GameObjectsCollection</text>
</a>
</g>
</g>
<!-- Node18&#45;&gt;Node4 -->
<g id="edge22" class="edge"><title>Node18&#45;&gt;Node4</title>
<path fill="none" stroke="#9a32cd" stroke-dasharray="5,2" d="M411.172,-13.0619C544.603,2.10888 809.052,18.3044 1016,-55.9237 1108.11,-88.9614 1177.91,-195.816 1197.48,-228.402"/>
<polygon fill="#9a32cd" stroke="#9a32cd" points="410.542,-9.61145 401.014,-14.2438 411.351,-16.5645 410.542,-9.61145"/>
<text text-anchor="middle" x="797" y="-27.9237" font-family="Helvetica,sans-Serif" font-size="10.00"> myTemplateObjects</text>
<text text-anchor="middle" x="797" y="-16.9237" font-family="Helvetica,sans-Serif" font-size="10.00">myGameObjects</text>
</g>
<!-- Node18&#45;&gt;Node12 -->
<g id="edge18" class="edge"><title>Node18&#45;&gt;Node12</title>
<path fill="none" stroke="#9a32cd" stroke-dasharray="5,2" d="M411.32,-21.2816C456.337,-23.9931 509.28,-35.2467 544,-68.9237 569.227,-93.3933 537.234,-120.988 562,-145.924 570.878,-154.863 583.011,-160.071 595.259,-163.04"/>
<polygon fill="#9a32cd" stroke="#9a32cd" points="411.407,-17.7819 401.253,-20.8069 411.077,-24.7741 411.407,-17.7819"/>
<text text-anchor="middle" x="485" y="-82.9237" font-family="Helvetica,sans-Serif" font-size="10.00"> myDefaultGameObjects</text>
<text text-anchor="middle" x="485" y="-71.9237" font-family="Helvetica,sans-Serif" font-size="10.00">myWorkingGameObjects</text>
</g>
<!-- Node19 -->
<g id="node19" class="node"><title>Node19</title>
<g id="a_node19"><a xlink:href="../../d4/d3b/classauthoring_1_1model_1_1collections_1_1_general_collection.html" target="_top" xlink:title="authoring.model.collections.\lGeneralCollection\&lt; GameObject \&gt;">
<polygon fill="white" stroke="black" points="0.5,-9.92374 0.5,-39.9237 183.5,-39.9237 183.5,-9.92374 0.5,-9.92374"/>
<text text-anchor="start" x="8.5" y="-27.9237" font-family="Helvetica,sans-Serif" font-size="10.00">authoring.model.collections.</text>
<text text-anchor="middle" x="92" y="-16.9237" font-family="Helvetica,sans-Serif" font-size="10.00">GeneralCollection&lt; GameObject &gt;</text>
</a>
</g>
</g>
<!-- Node19&#45;&gt;Node18 -->
<g id="edge19" class="edge"><title>Node19&#45;&gt;Node18</title>
<path fill="none" stroke="midnightblue" d="M193.843,-24.9237C212.335,-24.9237 231.337,-24.9237 248.91,-24.9237"/>
<polygon fill="midnightblue" stroke="midnightblue" points="193.634,-21.4238 183.634,-24.9237 193.634,-28.4238 193.634,-21.4238"/>
</g>
<!-- Node20 -->
<g id="node20" class="node"><title>Node20</title>
<polygon fill="white" stroke="#bfbfbf" points="254.5,-199.924 254.5,-229.924 395.5,-229.924 395.5,-199.924 254.5,-199.924"/>
<text text-anchor="start" x="262.5" y="-217.924" font-family="Helvetica,sans-Serif" font-size="10.00">List&lt; engine.gameObject.</text>
<text text-anchor="middle" x="325" y="-206.924" font-family="Helvetica,sans-Serif" font-size="10.00">Identifier &gt;</text>
</g>
<!-- Node20&#45;&gt;Node12 -->
<g id="edge20" class="edge"><title>Node20&#45;&gt;Node12</title>
<path fill="none" stroke="#9a32cd" stroke-dasharray="5,2" d="M405.766,-203.625C447.057,-197.672 498.27,-190.128 544,-182.924 560.774,-180.281 579.089,-177.244 595.46,-174.475"/>
<polygon fill="#9a32cd" stroke="#9a32cd" points="405.163,-200.175 395.763,-205.064 406.16,-207.104 405.163,-200.175"/>
<text text-anchor="middle" x="485" y="-214.924" font-family="Helvetica,sans-Serif" font-size="10.00"> myConditionIdList</text>
<text text-anchor="middle" x="485" y="-203.924" font-family="Helvetica,sans-Serif" font-size="10.00">myGameObjectIdList</text>
</g>
<!-- Node21 -->
<g id="node21" class="node"><title>Node21</title>
<polygon fill="white" stroke="#bfbfbf" points="623,-245.424 623,-264.424 669,-264.424 669,-245.424 623,-245.424"/>
<text text-anchor="middle" x="646" y="-252.424" font-family="Helvetica,sans-Serif" font-size="10.00">Group</text>
</g>
<!-- Node21&#45;&gt;Node8 -->
<g id="edge21" class="edge"><title>Node21&#45;&gt;Node8</title>
<path fill="none" stroke="#9a32cd" stroke-dasharray="5,2" d="M679.711,-255.26C727.068,-255.746 815.643,-256.656 875.954,-257.276"/>
<polygon fill="#9a32cd" stroke="#9a32cd" points="679.463,-251.757 669.428,-255.154 679.391,-258.757 679.463,-251.757"/>
<text text-anchor="middle" x="797" y="-260.924" font-family="Helvetica,sans-Serif" font-size="10.00"> myCanvas</text>
</g>
<!-- Node22&#45;&gt;Node4 -->
<g id="edge24" class="edge"><title>Node22&#45;&gt;Node4</title>
<path fill="none" stroke="#9a32cd" stroke-dasharray="5,2" d="M967.484,-366.469C1020.96,-337.284 1140.54,-272.016 1185.48,-247.487"/>
<polygon fill="#9a32cd" stroke="#9a32cd" points="965.698,-363.456 958.597,-371.319 969.052,-369.6 965.698,-363.456"/>
<text text-anchor="middle" x="1074" y="-329.924" font-family="Helvetica,sans-Serif" font-size="10.00"> mySoundPlayer</text>
</g>
<!-- Node23 -->
<g id="node23" class="node"><title>Node23</title>
<polygon fill="white" stroke="#bfbfbf" points="570,-371.424 570,-390.424 722,-390.424 722,-371.424 570,-371.424"/>
<text text-anchor="middle" x="646" y="-378.424" font-family="Helvetica,sans-Serif" font-size="10.00">Map&lt; String, MediaPlayer &gt;</text>
</g>
<!-- Node23&#45;&gt;Node22 -->
<g id="edge26" class="edge"><title>Node23&#45;&gt;Node22</title>
<path fill="none" stroke="#9a32cd" stroke-dasharray="5,2" d="M732.43,-380.924C775.708,-380.924 827.618,-380.924 868.574,-380.924"/>
<polygon fill="#9a32cd" stroke="#9a32cd" points="732.197,-377.424 722.197,-380.924 732.197,-384.424 732.197,-377.424"/>
<text text-anchor="middle" x="797" y="-383.924" font-family="Helvetica,sans-Serif" font-size="10.00"> myMediaPlayerMap</text>
</g>
<!-- Node24 -->
<g id="node24" class="node"><title>Node24</title>
<polygon fill="white" stroke="#bfbfbf" points="577,-333.424 577,-352.424 715,-352.424 715,-333.424 577,-333.424"/>
<text text-anchor="middle" x="646" y="-340.424" font-family="Helvetica,sans-Serif" font-size="10.00">Map&lt; String, AudioClip &gt;</text>
</g>
<!-- Node24&#45;&gt;Node22 -->
<g id="edge27" class="edge"><title>Node24&#45;&gt;Node22</title>
<path fill="none" stroke="#9a32cd" stroke-dasharray="5,2" d="M725.386,-351.163C762.069,-355.228 806.323,-360.434 846,-365.924 857.826,-367.56 870.47,-369.483 882.503,-371.396"/>
<polygon fill="#9a32cd" stroke="#9a32cd" points="725.574,-347.662 715.251,-350.047 724.808,-354.62 725.574,-347.662"/>
<text text-anchor="middle" x="797" y="-368.924" font-family="Helvetica,sans-Serif" font-size="10.00"> myAudioClipMap</text>
</g>
<!-- Node25 -->
<g id="node25" class="node"><title>Node25</title>
<g id="a_node25"><a xlink:href="../../db/d2a/classauthoring_1_1model_1_1collections_1_1_conditions_collection.html" target="_top" xlink:title="authoring.model.collections.\lConditionsCollection">
<polygon fill="white" stroke="black" points="864,-107.924 864,-137.924 1016,-137.924 1016,-107.924 864,-107.924"/>
<text text-anchor="start" x="872" y="-125.924" font-family="Helvetica,sans-Serif" font-size="10.00">authoring.model.collections.</text>
<text text-anchor="middle" x="940" y="-114.924" font-family="Helvetica,sans-Serif" font-size="10.00">ConditionsCollection</text>
</a>
</g>
</g>
<!-- Node25&#45;&gt;Node4 -->
<g id="edge29" class="edge"><title>Node25&#45;&gt;Node4</title>
<path fill="none" stroke="#9a32cd" stroke-dasharray="5,2" d="M1026.21,-125.654C1055.27,-129.28 1087.17,-136.388 1114,-149.924 1151.64,-168.913 1183.34,-209.658 1196.49,-228.28"/>
<polygon fill="#9a32cd" stroke="#9a32cd" points="1026.4,-122.152 1016.07,-124.512 1025.61,-129.108 1026.4,-122.152"/>
<text text-anchor="middle" x="1074" y="-152.924" font-family="Helvetica,sans-Serif" font-size="10.00"> myConditions</text>
</g>
<!-- Node26 -->
<g id="node26" class="node"><title>Node26</title>
<g id="a_node26"><a xlink:href="../../d4/d3b/classauthoring_1_1model_1_1collections_1_1_general_collection.html" target="_top" xlink:title="authoring.model.collections.\lGeneralCollection\&lt; Condition \&gt;">
<polygon fill="white" stroke="black" points="562,-106.924 562,-136.924 730,-136.924 730,-106.924 562,-106.924"/>
<text text-anchor="start" x="570" y="-124.924" font-family="Helvetica,sans-Serif" font-size="10.00">authoring.model.collections.</text>
<text text-anchor="middle" x="646" y="-113.924" font-family="Helvetica,sans-Serif" font-size="10.00">GeneralCollection&lt; Condition &gt;</text>
</a>
</g>
</g>
<!-- Node26&#45;&gt;Node25 -->
<g id="edge30" class="edge"><title>Node26&#45;&gt;Node25</title>
<path fill="none" stroke="midnightblue" d="M740.523,-122.244C780.286,-122.38 826.039,-122.537 863.588,-122.665"/>
<polygon fill="midnightblue" stroke="midnightblue" points="740.297,-118.743 730.285,-122.209 740.273,-125.743 740.297,-118.743"/>
</g>
</g>
</svg>
