<?xml version="1.0" encoding="UTF-8" standalone="no"?>
<!DOCTYPE svg PUBLIC "-//W3C//DTD SVG 1.1//EN"
 "http://www.w3.org/Graphics/SVG/1.1/DTD/svg11.dtd">
<!-- Generated by graphviz version 2.36.0 (20140111.2315)
 -->
<!-- Title: engine.conditions.TimeCondition Pages: 1 -->
<svg width="2068pt" height="651pt"
 viewBox="0.00 0.00 2068.00 650.86" xmlns="http://www.w3.org/2000/svg" xmlns:xlink="http://www.w3.org/1999/xlink">
<g id="graph0" class="graph" transform="scale(1 1) rotate(0) translate(4 646.856)">
<title>engine.conditions.TimeCondition</title>
<polygon fill="white" stroke="none" points="-4,4 -4,-646.856 2064,-646.856 2064,4 -4,4"/>
<!-- Node1 -->
<g id="node1" class="node"><title>Node1</title>
<polygon fill="#bfbfbf" stroke="black" points="1888,-511.356 1888,-530.356 2060,-530.356 2060,-511.356 1888,-511.356"/>
<text text-anchor="middle" x="1974" y="-518.356" font-family="Helvetica,sans-Serif" font-size="10.00">engine.conditions.TimeCondition</text>
</g>
<!-- Node2 -->
<g id="node2" class="node"><title>Node2</title>
<g id="a_node2"><a xlink:href="../../d1/d3b/classengine_1_1conditions_1_1_condition.html" target="_top" xlink:title="engine.conditions.Condition">
<polygon fill="white" stroke="black" points="1700.5,-511.356 1700.5,-530.356 1849.5,-530.356 1849.5,-511.356 1700.5,-511.356"/>
<text text-anchor="middle" x="1775" y="-518.356" font-family="Helvetica,sans-Serif" font-size="10.00">engine.conditions.Condition</text>
</a>
</g>
</g>
<!-- Node2&#45;&gt;Node1 -->
<g id="edge1" class="edge"><title>Node2&#45;&gt;Node1</title>
<path fill="none" stroke="midnightblue" d="M1859.67,-520.856C1868.99,-520.856 1878.5,-520.856 1887.84,-520.856"/>
<polygon fill="midnightblue" stroke="midnightblue" points="1859.64,-517.356 1849.64,-520.856 1859.64,-524.356 1859.64,-517.356"/>
</g>
<!-- Node3 -->
<g id="node3" class="node"><title>Node3</title>
<g id="a_node3"><a xlink:href="../../dc/df6/interfaceengine_1_1game_object_1_1_identifiable.html" target="_top" xlink:title="engine.gameObject.Identifiable">
<polygon fill="white" stroke="black" points="242.5,-480.356 242.5,-499.356 407.5,-499.356 407.5,-480.356 242.5,-480.356"/>
<text text-anchor="middle" x="325" y="-487.356" font-family="Helvetica,sans-Serif" font-size="10.00">engine.gameObject.Identifiable</text>
</a>
</g>
</g>
<!-- Node3&#45;&gt;Node2 -->
<g id="edge2" class="edge"><title>Node3&#45;&gt;Node2</title>
<path fill="none" stroke="midnightblue" d="M374.745,-502.952C386.342,-507.461 398.187,-513.332 408,-520.856 418.865,-529.187 414.299,-538.747 426,-545.856 510.069,-596.93 546.633,-577.856 645,-577.856 645,-577.856 645,-577.856 1075,-577.856 1305.73,-577.856 1577.89,-546.623 1703.71,-530.397"/>
<polygon fill="midnightblue" stroke="midnightblue" points="375.706,-499.578 365.111,-499.479 373.331,-506.163 375.706,-499.578"/>
</g>
<!-- Node16 -->
<g id="node16" class="node"><title>Node16</title>
<g id="a_node16"><a xlink:href="../../df/d84/classengine_1_1level_1_1_level.html" target="_top" xlink:title="engine.level.Level">
<polygon fill="white" stroke="black" points="595.5,-397.356 595.5,-416.356 696.5,-416.356 696.5,-397.356 595.5,-397.356"/>
<text text-anchor="middle" x="646" y="-404.356" font-family="Helvetica,sans-Serif" font-size="10.00">engine.level.Level</text>
</a>
</g>
</g>
<!-- Node3&#45;&gt;Node16 -->
<g id="edge19" class="edge"><title>Node3&#45;&gt;Node16</title>
<path fill="none" stroke="midnightblue" d="M417.423,-482.432C458.069,-476.214 505.358,-464.8 544,-443.856 553.947,-438.465 552.1,-431.332 562,-425.856 572.219,-420.204 584.035,-416.231 595.49,-413.439"/>
<polygon fill="midnightblue" stroke="midnightblue" points="416.909,-478.97 407.513,-483.867 417.912,-485.898 416.909,-478.97"/>
</g>
<!-- Node4 -->
<g id="node4" class="node"><title>Node4</title>
<g id="a_node4"><a xlink:href="../../d2/d15/interfaceengine_1_1actions_1_1_initializable.html" target="_top" xlink:title="engine.actions.Initializable">
<polygon fill="white" stroke="black" points="1424,-584.356 1424,-603.356 1566,-603.356 1566,-584.356 1424,-584.356"/>
<text text-anchor="middle" x="1495" y="-591.356" font-family="Helvetica,sans-Serif" font-size="10.00">engine.actions.Initializable</text>
</a>
</g>
</g>
<!-- Node4&#45;&gt;Node2 -->
<g id="edge3" class="edge"><title>Node4&#45;&gt;Node2</title>
<path fill="none" stroke="midnightblue" d="M1576.34,-589.852C1609.63,-586.569 1648.27,-580.619 1682,-569.856 1711.48,-560.45 1742.63,-541.747 1760.06,-530.364"/>
<polygon fill="midnightblue" stroke="midnightblue" points="1575.83,-586.385 1566.19,-590.788 1576.47,-593.355 1575.83,-586.385"/>
</g>
<!-- Node5 -->
<g id="node5" class="node"><title>Node5</title>
<g id="a_node5"><a xlink:href="../../d4/dac/classengine_1_1game_object_1_1_identifier.html" target="_top" xlink:title="engine.gameObject.Identifier">
<polygon fill="white" stroke="black" points="247.5,-530.356 247.5,-549.356 402.5,-549.356 402.5,-530.356 247.5,-530.356"/>
<text text-anchor="middle" x="325" y="-537.356" font-family="Helvetica,sans-Serif" font-size="10.00">engine.gameObject.Identifier</text>
</a>
</g>
</g>
<!-- Node5&#45;&gt;Node2 -->
<g id="edge4" class="edge"><title>Node5&#45;&gt;Node2</title>
<path fill="none" stroke="#9a32cd" stroke-dasharray="5,2" d="M349.555,-554.685C369.27,-566.452 398.513,-582.438 426,-591.856 519.602,-623.926 546.056,-631.856 645,-631.856 645,-631.856 645,-631.856 1496,-631.856 1580.46,-631.856 1605.41,-628.478 1682,-592.856 1716.21,-576.946 1749.27,-546.147 1764.8,-530.493"/>
<polygon fill="#9a32cd" stroke="#9a32cd" points="351.313,-551.657 340.95,-549.454 347.677,-557.639 351.313,-551.657"/>
<text text-anchor="middle" x="1074" y="-634.856" font-family="Helvetica,sans-Serif" font-size="10.00"> myId</text>
</g>
<!-- Node5&#45;&gt;Node16 -->
<g id="edge20" class="edge"><title>Node5&#45;&gt;Node16</title>
<path fill="none" stroke="#9a32cd" stroke-dasharray="5,2" d="M412.648,-533.474C456.901,-526.003 508.705,-510.163 544,-476.856 561.482,-460.359 544.061,-441.855 562,-425.856 571.267,-417.591 583.389,-412.705 595.495,-409.869"/>
<polygon fill="#9a32cd" stroke="#9a32cd" points="412.083,-530.02 402.748,-535.03 413.17,-536.935 412.083,-530.02"/>
<text text-anchor="middle" x="485" y="-533.856" font-family="Helvetica,sans-Serif" font-size="10.00"> myId</text>
</g>
<!-- Node6 -->
<g id="node6" class="node"><title>Node6</title>
<polygon fill="white" stroke="#bfbfbf" points="64,-530.356 64,-549.356 120,-549.356 120,-530.356 64,-530.356"/>
<text text-anchor="middle" x="92" y="-537.356" font-family="Helvetica,sans-Serif" font-size="10.00">Random</text>
</g>
<!-- Node6&#45;&gt;Node5 -->
<g id="edge5" class="edge"><title>Node6&#45;&gt;Node5</title>
<path fill="none" stroke="#9a32cd" stroke-dasharray="5,2" d="M130.511,-539.856C162.046,-539.856 208.136,-539.856 247.423,-539.856"/>
<polygon fill="#9a32cd" stroke="#9a32cd" points="130.406,-536.356 120.406,-539.856 130.406,-543.356 130.406,-536.356"/>
<text text-anchor="middle" x="213" y="-542.856" font-family="Helvetica,sans-Serif" font-size="10.00"> r</text>
</g>
<!-- Node7 -->
<g id="node7" class="node"><title>Node7</title>
<g id="a_node7"><a xlink:href="../../d6/d94/classengine_1_1_game_manager.html" target="_top" xlink:title="engine.GameManager">
<polygon fill="white" stroke="black" points="1433.5,-435.356 1433.5,-454.356 1556.5,-454.356 1556.5,-435.356 1433.5,-435.356"/>
<text text-anchor="middle" x="1495" y="-442.356" font-family="Helvetica,sans-Serif" font-size="10.00">engine.GameManager</text>
</a>
</g>
</g>
<!-- Node7&#45;&gt;Node2 -->
<g id="edge6" class="edge"><title>Node7&#45;&gt;Node2</title>
<path fill="none" stroke="#9a32cd" stroke-dasharray="5,2" d="M1540.78,-457.099C1596.01,-472.196 1688.71,-497.539 1739,-511.287"/>
<polygon fill="#9a32cd" stroke="#9a32cd" points="1541.5,-453.666 1530.93,-454.405 1539.65,-460.418 1541.5,-453.666"/>
<text text-anchor="middle" x="1637" y="-497.856" font-family="Helvetica,sans-Serif" font-size="10.00"> myGameManager</text>
</g>
<!-- Node8 -->
<g id="node8" class="node"><title>Node8</title>
<g id="a_node8"><a xlink:href="../../df/de5/classauthoring_1_1model_1_1collections_1_1_levels_collection.html" target="_top" xlink:title="authoring.model.collections.\lLevelsCollection">
<polygon fill="white" stroke="black" points="570,-31.856 570,-61.856 722,-61.856 722,-31.856 570,-31.856"/>
<text text-anchor="start" x="578" y="-49.856" font-family="Helvetica,sans-Serif" font-size="10.00">authoring.model.collections.</text>
<text text-anchor="middle" x="646" y="-38.856" font-family="Helvetica,sans-Serif" font-size="10.00">LevelsCollection</text>
</a>
</g>
</g>
<!-- Node8&#45;&gt;Node7 -->
<g id="edge7" class="edge"><title>Node8&#45;&gt;Node7</title>
<path fill="none" stroke="#9a32cd" stroke-dasharray="5,2" d="M718.634,-29.6896C871.262,2.11167 1228.39,50.1744 1398,-147.856 1438.27,-194.874 1376.2,-378.437 1416,-425.856 1420.66,-431.407 1426.64,-435.487 1433.22,-438.465"/>
<polygon fill="#9a32cd" stroke="#9a32cd" points="717.497,-26.3528 708.441,-31.8527 718.95,-33.2002 717.497,-26.3528"/>
<text text-anchor="middle" x="1074" y="-11.856" font-family="Helvetica,sans-Serif" font-size="10.00"> myLevels</text>
</g>
<!-- Node10 -->
<g id="node10" class="node"><title>Node10</title>
<g id="a_node10"><a xlink:href="../../df/d67/classengine_1_1level_1_1_level_manager.html" target="_top" xlink:title="engine.level.LevelManager">
<polygon fill="white" stroke="black" points="1141.5,-318.356 1141.5,-337.356 1284.5,-337.356 1284.5,-318.356 1141.5,-318.356"/>
<text text-anchor="middle" x="1213" y="-325.356" font-family="Helvetica,sans-Serif" font-size="10.00">engine.level.LevelManager</text>
</a>
</g>
</g>
<!-- Node8&#45;&gt;Node10 -->
<g id="edge11" class="edge"><title>Node8&#45;&gt;Node10</title>
<path fill="none" stroke="#9a32cd" stroke-dasharray="5,2" d="M732.572,-48.5551C767.962,-50.4836 809.238,-54.3269 846,-61.856 924.209,-77.8737 945.234,-82.9055 1016,-119.856 1063.91,-144.872 1086.1,-145.567 1114,-191.856 1142.07,-238.421 1094.29,-273.694 1132,-312.856 1134.74,-315.706 1137.85,-318.112 1141.19,-320.137"/>
<polygon fill="#9a32cd" stroke="#9a32cd" points="732.437,-45.044 722.274,-48.0383 732.086,-52.0352 732.437,-45.044"/>
<text text-anchor="middle" x="940" y="-122.856" font-family="Helvetica,sans-Serif" font-size="10.00"> myLevels</text>
</g>
<!-- Node23 -->
<g id="node23" class="node"><title>Node23</title>
<g id="a_node23"><a xlink:href="../../da/d90/classengine_1_1sound_1_1_sound_utility.html" target="_top" xlink:title="engine.sound.SoundUtility">
<polygon fill="white" stroke="black" points="869,-140.356 869,-159.356 1011,-159.356 1011,-140.356 869,-140.356"/>
<text text-anchor="middle" x="940" y="-147.356" font-family="Helvetica,sans-Serif" font-size="10.00">engine.sound.SoundUtility</text>
</a>
</g>
</g>
<!-- Node8&#45;&gt;Node23 -->
<g id="edge28" class="edge"><title>Node8&#45;&gt;Node23</title>
<path fill="none" stroke="#9a32cd" stroke-dasharray="5,2" d="M732.16,-58.3103C768.179,-64.9115 810.035,-74.9508 846,-89.856 877.596,-102.95 910.215,-126.843 927.16,-140.187"/>
<polygon fill="#9a32cd" stroke="#9a32cd" points="732.623,-54.8378 722.166,-56.5384 731.401,-61.7303 732.623,-54.8378"/>
<text text-anchor="middle" x="797" y="-92.856" font-family="Helvetica,sans-Serif" font-size="10.00"> myLevels</text>
</g>
<!-- Node9 -->
<g id="node9" class="node"><title>Node9</title>
<g id="a_node9"><a xlink:href="../../d4/d3b/classauthoring_1_1model_1_1collections_1_1_general_collection.html" target="_top" xlink:title="authoring.model.collections.\lGeneralCollection\&lt; Level \&gt;">
<polygon fill="white" stroke="black" points="249,-31.856 249,-61.856 401,-61.856 401,-31.856 249,-31.856"/>
<text text-anchor="start" x="257" y="-49.856" font-family="Helvetica,sans-Serif" font-size="10.00">authoring.model.collections.</text>
<text text-anchor="middle" x="325" y="-38.856" font-family="Helvetica,sans-Serif" font-size="10.00">GeneralCollection&lt; Level &gt;</text>
</a>
</g>
</g>
<!-- Node9&#45;&gt;Node8 -->
<g id="edge8" class="edge"><title>Node9&#45;&gt;Node8</title>
<path fill="none" stroke="midnightblue" d="M411.216,-46.856C460.588,-46.856 522.186,-46.856 569.758,-46.856"/>
<polygon fill="midnightblue" stroke="midnightblue" points="411.195,-43.3561 401.195,-46.856 411.195,-50.3561 411.195,-43.3561"/>
</g>
<!-- Node10&#45;&gt;Node7 -->
<g id="edge9" class="edge"><title>Node10&#45;&gt;Node7</title>
<path fill="none" stroke="#9a32cd" stroke-dasharray="5,2" d="M1268.76,-340.143C1307.83,-350.961 1359.96,-369.776 1398,-399.856 1409.02,-408.574 1404.42,-417.896 1416,-425.856 1421.63,-429.724 1427.96,-432.807 1434.52,-435.265"/>
<polygon fill="#9a32cd" stroke="#9a32cd" points="1269.18,-336.634 1258.62,-337.432 1267.38,-343.396 1269.18,-336.634"/>
<text text-anchor="middle" x="1355" y="-402.856" font-family="Helvetica,sans-Serif" font-size="10.00"> myLevelManager</text>
</g>
<!-- Node11 -->
<g id="node11" class="node"><title>Node11</title>
<polygon fill="white" stroke="#bfbfbf" points="890,-330.356 890,-349.356 990,-349.356 990,-330.356 890,-330.356"/>
<text text-anchor="middle" x="940" y="-337.356" font-family="Helvetica,sans-Serif" font-size="10.00">Iterable&lt; Level &gt;</text>
</g>
<!-- Node11&#45;&gt;Node10 -->
<g id="edge10" class="edge"><title>Node11&#45;&gt;Node10</title>
<path fill="none" stroke="midnightblue" d="M1000.31,-337.23C1041.85,-335.39 1097.53,-332.925 1141.36,-330.984"/>
<polygon fill="midnightblue" stroke="midnightblue" points="999.911,-333.744 990.076,-337.683 1000.22,-340.737 999.911,-333.744"/>
</g>
<!-- Node12 -->
<g id="node12" class="node"><title>Node12</title>
<g id="a_node12"><a xlink:href="../../dd/d8d/classengine_1_1render_1_1_renderer.html" target="_top" xlink:title="engine.render.Renderer">
<polygon fill="white" stroke="black" points="876,-415.356 876,-434.356 1004,-434.356 1004,-415.356 876,-415.356"/>
<text text-anchor="middle" x="940" y="-422.356" font-family="Helvetica,sans-Serif" font-size="10.00">engine.render.Renderer</text>
</a>
</g>
</g>
<!-- Node12&#45;&gt;Node7 -->
<g id="edge35" class="edge"><title>Node12&#45;&gt;Node7</title>
<path fill="none" stroke="#9a32cd" stroke-dasharray="5,2" d="M1014.2,-427.503C1124.43,-431.49 1330.99,-438.961 1433.34,-442.662"/>
<polygon fill="#9a32cd" stroke="#9a32cd" points="1014.29,-424.004 1004.17,-427.141 1014.03,-431 1014.29,-424.004"/>
<text text-anchor="middle" x="1213" y="-440.856" font-family="Helvetica,sans-Serif" font-size="10.00"> myGameObjectRenderer</text>
</g>
<!-- Node12&#45;&gt;Node10 -->
<g id="edge12" class="edge"><title>Node12&#45;&gt;Node10</title>
<path fill="none" stroke="#9a32cd" stroke-dasharray="5,2" d="M985.758,-412.668C1034.95,-399.238 1107.88,-379.211 1114,-376.856 1143.65,-365.453 1176.32,-348.075 1195.45,-337.371"/>
<polygon fill="#9a32cd" stroke="#9a32cd" points="984.684,-409.333 975.958,-415.342 986.527,-416.086 984.684,-409.333"/>
<text text-anchor="middle" x="1074" y="-402.856" font-family="Helvetica,sans-Serif" font-size="10.00"> myRenderer</text>
</g>
<!-- Node13 -->
<g id="node13" class="node"><title>Node13</title>
<polygon fill="white" stroke="#bfbfbf" points="564,-435.856 564,-465.856 728,-465.856 728,-435.856 564,-435.856"/>
<text text-anchor="start" x="572" y="-453.856" font-family="Helvetica,sans-Serif" font-size="10.00">Map&lt; Identifier, engine.render.</text>
<text text-anchor="middle" x="646" y="-442.856" font-family="Helvetica,sans-Serif" font-size="10.00">RenderedNode &gt;</text>
</g>
<!-- Node13&#45;&gt;Node12 -->
<g id="edge13" class="edge"><title>Node13&#45;&gt;Node12</title>
<path fill="none" stroke="#9a32cd" stroke-dasharray="5,2" d="M738.317,-442.725C782.939,-438.752 835.527,-434.069 875.674,-430.495"/>
<polygon fill="#9a32cd" stroke="#9a32cd" points="737.988,-439.24 728.338,-443.614 738.609,-446.213 737.988,-439.24"/>
<text text-anchor="middle" x="797" y="-444.856" font-family="Helvetica,sans-Serif" font-size="10.00"> myRenderedNodes</text>
</g>
<!-- Node14 -->
<g id="node14" class="node"><title>Node14</title>
<g id="a_node14"><a xlink:href="../../d5/d30/classengine_1_1render_1_1_rendered_node_factory.html" target="_top" xlink:title="engine.render.RenderedNode\lFactory">
<polygon fill="white" stroke="black" points="568,-334.856 568,-364.856 724,-364.856 724,-334.856 568,-334.856"/>
<text text-anchor="start" x="576" y="-352.856" font-family="Helvetica,sans-Serif" font-size="10.00">engine.render.RenderedNode</text>
<text text-anchor="middle" x="646" y="-341.856" font-family="Helvetica,sans-Serif" font-size="10.00">Factory</text>
</a>
</g>
</g>
<!-- Node14&#45;&gt;Node12 -->
<g id="edge14" class="edge"><title>Node14&#45;&gt;Node12</title>
<path fill="none" stroke="#9a32cd" stroke-dasharray="5,2" d="M722.408,-367.185C759.7,-375.973 805.325,-387.052 846,-397.856 866.474,-403.294 889.323,-409.92 907.249,-415.247"/>
<polygon fill="#9a32cd" stroke="#9a32cd" points="723.155,-363.765 712.619,-364.885 721.554,-370.579 723.155,-363.765"/>
<text text-anchor="middle" x="797" y="-400.856" font-family="Helvetica,sans-Serif" font-size="10.00"> myFactory</text>
</g>
<!-- Node15 -->
<g id="node15" class="node"><title>Node15</title>
<g id="a_node15"><a xlink:href="../../d9/db5/classengine_1_1_file_path_utility.html" target="_top" xlink:title="engine.FilePathUtility">
<polygon fill="white" stroke="black" points="267.5,-206.356 267.5,-225.356 382.5,-225.356 382.5,-206.356 267.5,-206.356"/>
<text text-anchor="middle" x="325" y="-213.356" font-family="Helvetica,sans-Serif" font-size="10.00">engine.FilePathUtility</text>
</a>
</g>
</g>
<!-- Node15&#45;&gt;Node14 -->
<g id="edge15" class="edge"><title>Node15&#45;&gt;Node14</title>
<path fill="none" stroke="#9a32cd" stroke-dasharray="5,2" d="M358.03,-229.31C417.939,-254.476 546.544,-308.498 609.208,-334.821"/>
<polygon fill="#9a32cd" stroke="#9a32cd" points="359.261,-226.032 348.686,-225.386 356.55,-232.485 359.261,-226.032"/>
<text text-anchor="middle" x="485" y="-309.856" font-family="Helvetica,sans-Serif" font-size="10.00"> myFilePathUtility</text>
</g>
<!-- Node15&#45;&gt;Node23 -->
<g id="edge31" class="edge"><title>Node15&#45;&gt;Node23</title>
<path fill="none" stroke="#9a32cd" stroke-dasharray="5,2" d="M391.645,-204.762C403.08,-202.999 414.873,-201.287 426,-199.856 431.44,-199.156 729.639,-170.182 868.832,-156.667"/>
<polygon fill="#9a32cd" stroke="#9a32cd" points="391.05,-201.313 381.713,-206.32 392.134,-208.228 391.05,-201.313"/>
<text text-anchor="middle" x="646" y="-189.856" font-family="Helvetica,sans-Serif" font-size="10.00"> myFilePathUtility</text>
</g>
<!-- Node16&#45;&gt;Node10 -->
<g id="edge26" class="edge"><title>Node16&#45;&gt;Node10</title>
<path fill="none" stroke="#9a32cd" stroke-dasharray="5,2" d="M706.809,-401.121C795.88,-392.197 968.512,-373.43 1114,-348.856 1132.87,-345.668 1153.62,-341.343 1171.15,-337.446"/>
<polygon fill="#9a32cd" stroke="#9a32cd" points="706.233,-397.661 696.629,-402.134 706.927,-404.626 706.233,-397.661"/>
<text text-anchor="middle" x="940" y="-386.856" font-family="Helvetica,sans-Serif" font-size="10.00"> myCurrentLevel</text>
</g>
<!-- Node16&#45;&gt;Node12 -->
<g id="edge16" class="edge"><title>Node16&#45;&gt;Node12</title>
<path fill="none" stroke="#9a32cd" stroke-dasharray="5,2" d="M706.905,-409.856C746.418,-411.911 799.308,-414.809 846,-417.856 855.694,-418.489 865.953,-419.209 875.979,-419.942"/>
<polygon fill="#9a32cd" stroke="#9a32cd" points="707.071,-406.36 696.904,-409.339 706.71,-413.351 707.071,-406.36"/>
<text text-anchor="middle" x="797" y="-420.856" font-family="Helvetica,sans-Serif" font-size="10.00"> myCurrentLevel</text>
</g>
<!-- Node17 -->
<g id="node17" class="node"><title>Node17</title>
<g id="a_node17"><a xlink:href="../../d3/d8d/classdata_1_1_observable.html" target="_top" xlink:title="data.Observable">
<polygon fill="white" stroke="black" points="277.5,-369.356 277.5,-388.356 372.5,-388.356 372.5,-369.356 277.5,-369.356"/>
<text text-anchor="middle" x="325" y="-376.356" font-family="Helvetica,sans-Serif" font-size="10.00">data.Observable</text>
</a>
</g>
</g>
<!-- Node17&#45;&gt;Node16 -->
<g id="edge17" class="edge"><title>Node17&#45;&gt;Node16</title>
<path fill="none" stroke="midnightblue" d="M382.85,-383.846C443.23,-389.146 537.733,-397.441 595.257,-402.49"/>
<polygon fill="midnightblue" stroke="midnightblue" points="382.995,-380.345 372.727,-382.957 382.383,-387.319 382.995,-380.345"/>
</g>
<!-- Node18 -->
<g id="node18" class="node"><title>Node18</title>
<polygon fill="white" stroke="#bfbfbf" points="23,-369.356 23,-388.356 161,-388.356 161,-369.356 23,-369.356"/>
<text text-anchor="middle" x="92" y="-376.356" font-family="Helvetica,sans-Serif" font-size="10.00">Vector&lt; data.Observer &gt;</text>
</g>
<!-- Node18&#45;&gt;Node17 -->
<g id="edge18" class="edge"><title>Node18&#45;&gt;Node17</title>
<path fill="none" stroke="#9a32cd" stroke-dasharray="5,2" d="M171.318,-378.856C206.521,-378.856 246.882,-378.856 277.262,-378.856"/>
<polygon fill="#9a32cd" stroke="#9a32cd" points="171.058,-375.356 161.058,-378.856 171.058,-382.356 171.058,-375.356"/>
<text text-anchor="middle" x="213" y="-381.856" font-family="Helvetica,sans-Serif" font-size="10.00"> obs</text>
</g>
<!-- Node19 -->
<g id="node19" class="node"><title>Node19</title>
<g id="a_node19"><a xlink:href="../../d1/d32/classauthoring_1_1model_1_1collections_1_1_game_objects_collection.html" target="_top" xlink:title="authoring.model.collections.\lGameObjectsCollection">
<polygon fill="white" stroke="black" points="249,-286.856 249,-316.856 401,-316.856 401,-286.856 249,-286.856"/>
<text text-anchor="start" x="257" y="-304.856" font-family="Helvetica,sans-Serif" font-size="10.00">authoring.model.collections.</text>
<text text-anchor="middle" x="325" y="-293.856" font-family="Helvetica,sans-Serif" font-size="10.00">GameObjectsCollection</text>
</a>
</g>
</g>
<!-- Node19&#45;&gt;Node7 -->
<g id="edge36" class="edge"><title>Node19&#45;&gt;Node7</title>
<path fill="none" stroke="#9a32cd" stroke-dasharray="5,2" d="M362.637,-282.175C381.17,-272.957 404.287,-262.557 426,-255.856 484.577,-237.779 501.041,-239.342 562,-232.856 806.133,-206.881 870.825,-178.071 1114,-211.856 1244.89,-230.04 1314.35,-197.559 1398,-299.856 1433.81,-343.648 1377.99,-383.963 1416,-425.856 1420.78,-431.12 1426.75,-435.041 1433.24,-437.945"/>
<polygon fill="#9a32cd" stroke="#9a32cd" points="361.003,-279.079 353.666,-286.722 364.168,-285.323 361.003,-279.079"/>
<text text-anchor="middle" x="940" y="-203.856" font-family="Helvetica,sans-Serif" font-size="10.00"> myGameObjects</text>
</g>
<!-- Node19&#45;&gt;Node10 -->
<g id="edge25" class="edge"><title>Node19&#45;&gt;Node10</title>
<path fill="none" stroke="#9a32cd" stroke-dasharray="5,2" d="M411.361,-303.982C541.715,-307.28 798.214,-313.969 1016,-320.856 1057.52,-322.169 1103.98,-323.82 1141.24,-325.189"/>
<polygon fill="#9a32cd" stroke="#9a32cd" points="411.136,-300.476 401.051,-303.722 410.96,-307.473 411.136,-300.476"/>
<text text-anchor="middle" x="797" y="-329.856" font-family="Helvetica,sans-Serif" font-size="10.00"> myTemplateObjects</text>
<text text-anchor="middle" x="797" y="-318.856" font-family="Helvetica,sans-Serif" font-size="10.00">myGameObjects</text>
</g>
<!-- Node19&#45;&gt;Node16 -->
<g id="edge21" class="edge"><title>Node19&#45;&gt;Node16</title>
<path fill="none" stroke="#9a32cd" stroke-dasharray="5,2" d="M408.471,-319.239C450.056,-329.418 500.717,-344.008 544,-362.856 552.596,-366.599 553.614,-369.664 562,-373.856 580.032,-382.869 601.154,-391.238 617.577,-397.293"/>
<polygon fill="#9a32cd" stroke="#9a32cd" points="409.194,-315.813 398.653,-316.876 407.556,-322.619 409.194,-315.813"/>
<text text-anchor="middle" x="485" y="-376.856" font-family="Helvetica,sans-Serif" font-size="10.00"> myDefaultGameObjects</text>
<text text-anchor="middle" x="485" y="-365.856" font-family="Helvetica,sans-Serif" font-size="10.00">myWorkingGameObjects</text>
</g>
<!-- Node20 -->
<g id="node20" class="node"><title>Node20</title>
<g id="a_node20"><a xlink:href="../../d4/d3b/classauthoring_1_1model_1_1collections_1_1_general_collection.html" target="_top" xlink:title="authoring.model.collections.\lGeneralCollection\&lt; GameObject \&gt;">
<polygon fill="white" stroke="black" points="0.5,-286.856 0.5,-316.856 183.5,-316.856 183.5,-286.856 0.5,-286.856"/>
<text text-anchor="start" x="8.5" y="-304.856" font-family="Helvetica,sans-Serif" font-size="10.00">authoring.model.collections.</text>
<text text-anchor="middle" x="92" y="-293.856" font-family="Helvetica,sans-Serif" font-size="10.00">GeneralCollection&lt; GameObject &gt;</text>
</a>
</g>
</g>
<!-- Node20&#45;&gt;Node19 -->
<g id="edge22" class="edge"><title>Node20&#45;&gt;Node19</title>
<path fill="none" stroke="midnightblue" d="M193.843,-301.856C212.335,-301.856 231.337,-301.856 248.91,-301.856"/>
<polygon fill="midnightblue" stroke="midnightblue" points="193.634,-298.356 183.634,-301.856 193.634,-305.356 193.634,-298.356"/>
</g>
<!-- Node21 -->
<g id="node21" class="node"><title>Node21</title>
<polygon fill="white" stroke="#bfbfbf" points="254.5,-407.856 254.5,-437.856 395.5,-437.856 395.5,-407.856 254.5,-407.856"/>
<text text-anchor="start" x="262.5" y="-425.856" font-family="Helvetica,sans-Serif" font-size="10.00">List&lt; engine.gameObject.</text>
<text text-anchor="middle" x="325" y="-414.856" font-family="Helvetica,sans-Serif" font-size="10.00">Identifier &gt;</text>
</g>
<!-- Node21&#45;&gt;Node16 -->
<g id="edge23" class="edge"><title>Node21&#45;&gt;Node16</title>
<path fill="none" stroke="#9a32cd" stroke-dasharray="5,2" d="M405.726,-418.857C465.211,-415.874 544.633,-411.89 595.312,-409.348"/>
<polygon fill="#9a32cd" stroke="#9a32cd" points="405.424,-415.368 395.612,-419.365 405.775,-422.359 405.424,-415.368"/>
<text text-anchor="middle" x="485" y="-431.856" font-family="Helvetica,sans-Serif" font-size="10.00"> myConditionIdList</text>
<text text-anchor="middle" x="485" y="-420.856" font-family="Helvetica,sans-Serif" font-size="10.00">myGameObjectIdList</text>
</g>
<!-- Node22 -->
<g id="node22" class="node"><title>Node22</title>
<polygon fill="white" stroke="#bfbfbf" points="623,-493.356 623,-512.356 669,-512.356 669,-493.356 623,-493.356"/>
<text text-anchor="middle" x="646" y="-500.356" font-family="Helvetica,sans-Serif" font-size="10.00">Group</text>
</g>
<!-- Node22&#45;&gt;Node7 -->
<g id="edge38" class="edge"><title>Node22&#45;&gt;Node7</title>
<path fill="none" stroke="#9a32cd" stroke-dasharray="5,2" d="M679.158,-502.38C718.521,-501.683 787.199,-500.1 846,-496.856 1062.37,-484.92 1318.68,-461.638 1433.32,-450.743"/>
<polygon fill="#9a32cd" stroke="#9a32cd" points="679.041,-498.881 669.101,-502.55 679.159,-505.88 679.041,-498.881"/>
<text text-anchor="middle" x="1074" y="-487.856" font-family="Helvetica,sans-Serif" font-size="10.00"> myRootGroup</text>
</g>
<!-- Node22&#45;&gt;Node12 -->
<g id="edge24" class="edge"><title>Node22&#45;&gt;Node12</title>
<path fill="none" stroke="#9a32cd" stroke-dasharray="5,2" d="M679.149,-496.502C718.712,-488.435 787.801,-473.546 846,-456.856 869.143,-450.219 895.005,-441.186 913.57,-434.409"/>
<polygon fill="#9a32cd" stroke="#9a32cd" points="678.387,-493.085 669.279,-498.497 679.774,-499.946 678.387,-493.085"/>
<text text-anchor="middle" x="797" y="-484.856" font-family="Helvetica,sans-Serif" font-size="10.00"> myCanvas</text>
</g>
<!-- Node23&#45;&gt;Node7 -->
<g id="edge39" class="edge"><title>Node23&#45;&gt;Node7</title>
<path fill="none" stroke="#9a32cd" stroke-dasharray="5,2" d="M1021.42,-143.671C1138.57,-136.602 1347.69,-131.956 1398,-183.856 1435.53,-222.577 1381.13,-384.717 1416,-425.856 1420.69,-431.385 1426.69,-435.452 1433.27,-438.422"/>
<polygon fill="#9a32cd" stroke="#9a32cd" points="1021.18,-140.179 1011.42,-144.294 1021.62,-147.165 1021.18,-140.179"/>
<text text-anchor="middle" x="1213" y="-150.856" font-family="Helvetica,sans-Serif" font-size="10.00"> mySoundUtility</text>
</g>
<!-- Node23&#45;&gt;Node10 -->
<g id="edge27" class="edge"><title>Node23&#45;&gt;Node10</title>
<path fill="none" stroke="#9a32cd" stroke-dasharray="5,2" d="M976.208,-163.298C989.065,-168.734 1003.51,-175.472 1016,-182.856 1063.21,-210.766 1070.58,-224.353 1114,-257.856 1122.02,-264.047 1123.85,-265.837 1132,-271.856 1154.78,-288.67 1181.88,-307.378 1197.97,-318.354"/>
<polygon fill="#9a32cd" stroke="#9a32cd" points="977.324,-159.973 966.744,-159.407 974.661,-166.447 977.324,-159.973"/>
<text text-anchor="middle" x="1074" y="-260.856" font-family="Helvetica,sans-Serif" font-size="10.00"> mySoundPlayer</text>
</g>
<!-- Node24 -->
<g id="node24" class="node"><title>Node24</title>
<polygon fill="white" stroke="#bfbfbf" points="570,-81.356 570,-100.356 722,-100.356 722,-81.356 570,-81.356"/>
<text text-anchor="middle" x="646" y="-88.356" font-family="Helvetica,sans-Serif" font-size="10.00">Map&lt; String, MediaPlayer &gt;</text>
</g>
<!-- Node24&#45;&gt;Node23 -->
<g id="edge29" class="edge"><title>Node24&#45;&gt;Node23</title>
<path fill="none" stroke="#9a32cd" stroke-dasharray="5,2" d="M732.406,-101.524C767.77,-106.623 809.071,-113.463 846,-121.856 868.033,-126.864 892.481,-134.301 910.779,-140.252"/>
<polygon fill="#9a32cd" stroke="#9a32cd" points="732.509,-98.0034 722.117,-100.065 731.526,-104.934 732.509,-98.0034"/>
<text text-anchor="middle" x="797" y="-124.856" font-family="Helvetica,sans-Serif" font-size="10.00"> myMediaPlayerMap</text>
</g>
<!-- Node25 -->
<g id="node25" class="node"><title>Node25</title>
<polygon fill="white" stroke="#bfbfbf" points="577,-119.356 577,-138.356 715,-138.356 715,-119.356 577,-119.356"/>
<text text-anchor="middle" x="646" y="-126.356" font-family="Helvetica,sans-Serif" font-size="10.00">Map&lt; String, AudioClip &gt;</text>
</g>
<!-- Node25&#45;&gt;Node23 -->
<g id="edge30" class="edge"><title>Node25&#45;&gt;Node23</title>
<path fill="none" stroke="#9a32cd" stroke-dasharray="5,2" d="M725.323,-134.489C769.992,-137.701 825.515,-141.694 868.767,-144.805"/>
<polygon fill="#9a32cd" stroke="#9a32cd" points="725.318,-130.98 715.093,-133.753 724.816,-137.961 725.318,-130.98"/>
<text text-anchor="middle" x="797" y="-146.856" font-family="Helvetica,sans-Serif" font-size="10.00"> myAudioClipMap</text>
</g>
<!-- Node26 -->
<g id="node26" class="node"><title>Node26</title>
<g id="a_node26"><a xlink:href="../../db/d2a/classauthoring_1_1model_1_1collections_1_1_conditions_collection.html" target="_top" xlink:title="authoring.model.collections.\lConditionsCollection">
<polygon fill="white" stroke="black" points="864,-242.856 864,-272.856 1016,-272.856 1016,-242.856 864,-242.856"/>
<text text-anchor="start" x="872" y="-260.856" font-family="Helvetica,sans-Serif" font-size="10.00">authoring.model.collections.</text>
<text text-anchor="middle" x="940" y="-249.856" font-family="Helvetica,sans-Serif" font-size="10.00">ConditionsCollection</text>
</a>
</g>
</g>
<!-- Node26&#45;&gt;Node7 -->
<g id="edge40" class="edge"><title>Node26&#45;&gt;Node7</title>
<path fill="none" stroke="#9a32cd" stroke-dasharray="5,2" d="M1026.17,-258.197C1098.91,-260.666 1205.51,-269.5 1294,-297.856 1343.4,-313.687 1365.89,-310.113 1398,-350.856 1419.22,-377.778 1391.8,-401.575 1416,-425.856 1420.92,-430.792 1426.89,-434.525 1433.32,-437.336"/>
<polygon fill="#9a32cd" stroke="#9a32cd" points="1026.23,-254.697 1016.13,-257.889 1026.02,-261.694 1026.23,-254.697"/>
<text text-anchor="middle" x="1213" y="-300.856" font-family="Helvetica,sans-Serif" font-size="10.00"> myGameConditions</text>
</g>
<!-- Node26&#45;&gt;Node10 -->
<g id="edge32" class="edge"><title>Node26&#45;&gt;Node10</title>
<path fill="none" stroke="#9a32cd" stroke-dasharray="5,2" d="M1026.01,-271.056C1054.25,-276.239 1085.7,-282.879 1114,-290.856 1140.61,-298.356 1170.17,-309.993 1189.79,-318.211"/>
<polygon fill="#9a32cd" stroke="#9a32cd" points="1026.63,-267.611 1016.17,-269.284 1025.39,-274.5 1026.63,-267.611"/>
<text text-anchor="middle" x="1074" y="-293.856" font-family="Helvetica,sans-Serif" font-size="10.00"> myConditions</text>
</g>
<!-- Node27 -->
<g id="node27" class="node"><title>Node27</title>
<g id="a_node27"><a xlink:href="../../d4/d3b/classauthoring_1_1model_1_1collections_1_1_general_collection.html" target="_top" xlink:title="authoring.model.collections.\lGeneralCollection\&lt; Condition \&gt;">
<polygon fill="white" stroke="black" points="562,-242.856 562,-272.856 730,-272.856 730,-242.856 562,-242.856"/>
<text text-anchor="start" x="570" y="-260.856" font-family="Helvetica,sans-Serif" font-size="10.00">authoring.model.collections.</text>
<text text-anchor="middle" x="646" y="-249.856" font-family="Helvetica,sans-Serif" font-size="10.00">GeneralCollection&lt; Condition &gt;</text>
</a>
</g>
</g>
<!-- Node27&#45;&gt;Node26 -->
<g id="edge33" class="edge"><title>Node27&#45;&gt;Node26</title>
<path fill="none" stroke="midnightblue" d="M740.523,-257.856C780.286,-257.856 826.039,-257.856 863.588,-257.856"/>
<polygon fill="midnightblue" stroke="midnightblue" points="740.285,-254.356 730.285,-257.856 740.285,-261.356 740.285,-254.356"/>
</g>
<!-- Node28 -->
<g id="node28" class="node"><title>Node28</title>
<polygon fill="white" stroke="#bfbfbf" points="1185,-530.356 1185,-549.356 1241,-549.356 1241,-530.356 1185,-530.356"/>
<text text-anchor="middle" x="1213" y="-537.356" font-family="Helvetica,sans-Serif" font-size="10.00">Timeline</text>
</g>
<!-- Node28&#45;&gt;Node7 -->
<g id="edge34" class="edge"><title>Node28&#45;&gt;Node7</title>
<path fill="none" stroke="#9a32cd" stroke-dasharray="5,2" d="M1251.24,-537.828C1289.29,-534.745 1349.49,-527.033 1398,-507.856 1431.56,-494.591 1465.65,-468.59 1482.75,-454.494"/>
<polygon fill="#9a32cd" stroke="#9a32cd" points="1250.84,-534.348 1241.13,-538.581 1251.36,-541.329 1250.84,-534.348"/>
<text text-anchor="middle" x="1355" y="-533.856" font-family="Helvetica,sans-Serif" font-size="10.00"> myAnimation</text>
</g>
<!-- Node29 -->
<g id="node29" class="node"><title>Node29</title>
<polygon fill="white" stroke="#bfbfbf" points="1132.5,-492.356 1132.5,-511.356 1293.5,-511.356 1293.5,-492.356 1132.5,-492.356"/>
<text text-anchor="middle" x="1213" y="-499.356" font-family="Helvetica,sans-Serif" font-size="10.00">EventHandler&lt; ActionEvent &gt;</text>
</g>
<!-- Node29&#45;&gt;Node7 -->
<g id="edge37" class="edge"><title>Node29&#45;&gt;Node7</title>
<path fill="none" stroke="#9a32cd" stroke-dasharray="5,2" d="M1303.95,-493.793C1334.08,-490.121 1367.71,-484.961 1398,-477.856 1423.22,-471.94 1451.13,-461.937 1470.33,-454.491"/>
<polygon fill="#9a32cd" stroke="#9a32cd" points="1303.4,-490.334 1293.88,-494.981 1304.22,-497.285 1303.4,-490.334"/>
<text text-anchor="middle" x="1355" y="-495.856" font-family="Helvetica,sans-Serif" font-size="10.00"> oneFrame</text>
</g>
<!-- Node30 -->
<g id="node30" class="node"><title>Node30</title>
<polygon fill="white" stroke="#bfbfbf" points="1416,-397.356 1416,-416.356 1574,-416.356 1574,-397.356 1416,-397.356"/>
<text text-anchor="middle" x="1495" y="-404.356" font-family="Helvetica,sans-Serif" font-size="10.00">List&lt; engine.actions.Action &gt;</text>
</g>
<!-- Node30&#45;&gt;Node2 -->
<g id="edge41" class="edge"><title>Node30&#45;&gt;Node2</title>
<path fill="none" stroke="#9a32cd" stroke-dasharray="5,2" d="M1546.39,-418.812C1555.59,-421.086 1565.1,-423.495 1574,-425.856 1622.27,-438.657 1636.9,-435.42 1682,-456.856 1713.63,-471.889 1746.26,-497.423 1762.85,-511.258"/>
<polygon fill="#9a32cd" stroke="#9a32cd" points="1547.11,-415.385 1536.56,-416.406 1545.44,-422.185 1547.11,-415.385"/>
<text text-anchor="middle" x="1637" y="-459.856" font-family="Helvetica,sans-Serif" font-size="10.00"> myActions</text>
</g>
<!-- Node31 -->
<g id="node31" class="node"><title>Node31</title>
<polygon fill="white" stroke="#bfbfbf" points="1434,-359.356 1434,-378.356 1556,-378.356 1556,-359.356 1434,-359.356"/>
<text text-anchor="middle" x="1495" y="-366.356" font-family="Helvetica,sans-Serif" font-size="10.00">Map&lt; String, String &gt;</text>
</g>
<!-- Node31&#45;&gt;Node2 -->
<g id="edge42" class="edge"><title>Node31&#45;&gt;Node2</title>
<path fill="none" stroke="#9a32cd" stroke-dasharray="5,2" d="M1566.26,-376.332C1602.87,-382.678 1647.14,-394.367 1682,-415.856 1723.06,-441.168 1755.87,-490.575 1768.45,-511.322"/>
<polygon fill="#9a32cd" stroke="#9a32cd" points="1566.59,-372.839 1556.15,-374.68 1565.46,-379.747 1566.59,-372.839"/>
<text text-anchor="middle" x="1637" y="-418.856" font-family="Helvetica,sans-Serif" font-size="10.00"> myInputs</text>
</g>
</g>
</svg>
