<?xml version="1.0" encoding="UTF-8" standalone="no"?>
<!DOCTYPE svg PUBLIC "-//W3C//DTD SVG 1.1//EN"
 "http://www.w3.org/Graphics/SVG/1.1/DTD/svg11.dtd">
<!-- Generated by graphviz version 2.36.0 (20140111.2315)
 -->
<!-- Title: engine.actions.ChangeLevelAction.execute Pages: 1 -->
<svg width="1920pt" height="625pt"
 viewBox="0.00 0.00 1920.00 625.00" xmlns="http://www.w3.org/2000/svg" xmlns:xlink="http://www.w3.org/1999/xlink">
<g id="graph0" class="graph" transform="scale(1 1) rotate(0) translate(4 621)">
<title>engine.actions.ChangeLevelAction.execute</title>
<polygon fill="white" stroke="none" points="-4,4 -4,-621 1916,-621 1916,4 -4,4"/>
<!-- Node1 -->
<g id="node1" class="node"><title>Node1</title>
<polygon fill="#bfbfbf" stroke="black" points="0.5,-440 0.5,-470 151.5,-470 151.5,-440 0.5,-440"/>
<text text-anchor="start" x="8.5" y="-458" font-family="Helvetica,sans-Serif" font-size="10.00">engine.actions.ChangeLevel</text>
<text text-anchor="middle" x="76" y="-447" font-family="Helvetica,sans-Serif" font-size="10.00">Action.execute</text>
</g>
<!-- Node2 -->
<g id="node2" class="node"><title>Node2</title>
<g id="a_node2"><a xlink:href="../../df/d67/classengine_1_1level_1_1_level_manager.html#ad3c392cf6260c53428255fb596442692" target="_top" xlink:title="engine.level.LevelManager.change\lToLevel">
<polygon fill="white" stroke="black" points="188.5,-440 188.5,-470 369.5,-470 369.5,-440 188.5,-440"/>
<text text-anchor="start" x="196.5" y="-458" font-family="Helvetica,sans-Serif" font-size="10.00">engine.level.LevelManager.change</text>
<text text-anchor="middle" x="279" y="-447" font-family="Helvetica,sans-Serif" font-size="10.00">ToLevel</text>
</a>
</g>
</g>
<!-- Node1&#45;&gt;Node2 -->
<g id="edge1" class="edge"><title>Node1&#45;&gt;Node2</title>
<path fill="none" stroke="midnightblue" d="M151.559,-455C160.245,-455 169.208,-455 178.164,-455"/>
<polygon fill="midnightblue" stroke="midnightblue" points="178.258,-458.5 188.258,-455 178.258,-451.5 178.258,-458.5"/>
</g>
<!-- Node3 -->
<g id="node3" class="node"><title>Node3</title>
<g id="a_node3"><a xlink:href="../../df/d67/classengine_1_1level_1_1_level_manager.html#ad89101547413fe335873b050fd091c79" target="_top" xlink:title="engine.level.LevelManager.set\lCurrentLevel">
<polygon fill="white" stroke="black" points="406.5,-440 406.5,-470 567.5,-470 567.5,-440 406.5,-440"/>
<text text-anchor="start" x="414.5" y="-458" font-family="Helvetica,sans-Serif" font-size="10.00">engine.level.LevelManager.set</text>
<text text-anchor="middle" x="487" y="-447" font-family="Helvetica,sans-Serif" font-size="10.00">CurrentLevel</text>
</a>
</g>
</g>
<!-- Node2&#45;&gt;Node3 -->
<g id="edge2" class="edge"><title>Node2&#45;&gt;Node3</title>
<path fill="none" stroke="midnightblue" d="M369.755,-455C378.483,-455 387.341,-455 396.07,-455"/>
<polygon fill="midnightblue" stroke="midnightblue" points="396.245,-458.5 406.244,-455 396.244,-451.5 396.245,-458.5"/>
</g>
<!-- Node4 -->
<g id="node4" class="node"><title>Node4</title>
<g id="a_node4"><a xlink:href="../../df/d67/classengine_1_1level_1_1_level_manager.html#a523599892453015eed0f1b506979af8a" target="_top" xlink:title="engine.level.LevelManager.initialize\lCurrentLevel">
<polygon fill="white" stroke="black" points="604,-440 604,-470 788,-470 788,-440 604,-440"/>
<text text-anchor="start" x="612" y="-458" font-family="Helvetica,sans-Serif" font-size="10.00">engine.level.LevelManager.initialize</text>
<text text-anchor="middle" x="696" y="-447" font-family="Helvetica,sans-Serif" font-size="10.00">CurrentLevel</text>
</a>
</g>
</g>
<!-- Node3&#45;&gt;Node4 -->
<g id="edge3" class="edge"><title>Node3&#45;&gt;Node4</title>
<path fill="none" stroke="midnightblue" d="M567.736,-455C576.249,-455 584.989,-455 593.708,-455"/>
<polygon fill="midnightblue" stroke="midnightblue" points="593.92,-458.5 603.92,-455 593.92,-451.5 593.92,-458.5"/>
</g>
<!-- Node5 -->
<g id="node5" class="node"><title>Node5</title>
<g id="a_node5"><a xlink:href="../../df/d67/classengine_1_1level_1_1_level_manager.html#af00a1d61217dd801bb7a8b16ad829cf0" target="_top" xlink:title="engine.level.LevelManager.disable\lAllConditions">
<polygon fill="white" stroke="black" points="824.5,-587 824.5,-617 1003.5,-617 1003.5,-587 824.5,-587"/>
<text text-anchor="start" x="832.5" y="-605" font-family="Helvetica,sans-Serif" font-size="10.00">engine.level.LevelManager.disable</text>
<text text-anchor="middle" x="914" y="-594" font-family="Helvetica,sans-Serif" font-size="10.00">AllConditions</text>
</a>
</g>
</g>
<!-- Node4&#45;&gt;Node5 -->
<g id="edge4" class="edge"><title>Node4&#45;&gt;Node5</title>
<path fill="none" stroke="midnightblue" d="M708.561,-470.21C729.002,-496.043 774.107,-548.461 824,-577 827.866,-579.211 831.94,-581.237 836.13,-583.091"/>
<polygon fill="midnightblue" stroke="midnightblue" points="834.875,-586.359 845.457,-586.882 837.511,-579.874 834.875,-586.359"/>
</g>
<!-- Node6 -->
<g id="node6" class="node"><title>Node6</title>
<g id="a_node6"><a xlink:href="../../df/d67/classengine_1_1level_1_1_level_manager.html#a5d79217e53b1e3804476ba6b366ad066" target="_top" xlink:title="engine.level.LevelManager.set\lLevelEnabledConditions">
<polygon fill="white" stroke="black" points="833.5,-538 833.5,-568 994.5,-568 994.5,-538 833.5,-538"/>
<text text-anchor="start" x="841.5" y="-556" font-family="Helvetica,sans-Serif" font-size="10.00">engine.level.LevelManager.set</text>
<text text-anchor="middle" x="914" y="-545" font-family="Helvetica,sans-Serif" font-size="10.00">LevelEnabledConditions</text>
</a>
</g>
</g>
<!-- Node4&#45;&gt;Node6 -->
<g id="edge5" class="edge"><title>Node4&#45;&gt;Node6</title>
<path fill="none" stroke="midnightblue" d="M719.519,-470.248C744.242,-486.429 785.548,-511.844 824,-528 829.729,-530.407 835.761,-532.658 841.873,-534.745"/>
<polygon fill="midnightblue" stroke="midnightblue" points="840.919,-538.115 851.512,-537.888 843.09,-531.46 840.919,-538.115"/>
</g>
<!-- Node9 -->
<g id="node9" class="node"><title>Node9</title>
<g id="a_node9"><a xlink:href="../../da/d90/classengine_1_1sound_1_1_sound_utility.html#a53a82805b12b2b8f68b8396b9795d092" target="_top" xlink:title="engine.sound.SoundUtility.stop\lBackGroundMusic">
<polygon fill="white" stroke="black" points="832,-489 832,-519 996,-519 996,-489 832,-489"/>
<text text-anchor="start" x="840" y="-507" font-family="Helvetica,sans-Serif" font-size="10.00">engine.sound.SoundUtility.stop</text>
<text text-anchor="middle" x="914" y="-496" font-family="Helvetica,sans-Serif" font-size="10.00">BackGroundMusic</text>
</a>
</g>
</g>
<!-- Node4&#45;&gt;Node9 -->
<g id="edge8" class="edge"><title>Node4&#45;&gt;Node9</title>
<path fill="none" stroke="midnightblue" d="M763.275,-470.035C786.6,-475.326 812.993,-481.313 837.053,-486.771"/>
<polygon fill="midnightblue" stroke="midnightblue" points="836.324,-490.195 846.85,-488.994 837.872,-483.368 836.324,-490.195"/>
</g>
<!-- Node10 -->
<g id="node10" class="node"><title>Node10</title>
<g id="a_node10"><a xlink:href="../../da/d90/classengine_1_1sound_1_1_sound_utility.html#ab8cd26d71aa7b20d07350105a4254c92" target="_top" xlink:title="engine.sound.SoundUtility.play\lBackGroundMusic">
<polygon fill="white" stroke="black" points="832.5,-440 832.5,-470 995.5,-470 995.5,-440 832.5,-440"/>
<text text-anchor="start" x="840.5" y="-458" font-family="Helvetica,sans-Serif" font-size="10.00">engine.sound.SoundUtility.play</text>
<text text-anchor="middle" x="914" y="-447" font-family="Helvetica,sans-Serif" font-size="10.00">BackGroundMusic</text>
</a>
</g>
</g>
<!-- Node4&#45;&gt;Node10 -->
<g id="edge9" class="edge"><title>Node4&#45;&gt;Node10</title>
<path fill="none" stroke="midnightblue" d="M788.29,-455C799.486,-455 810.927,-455 822.116,-455"/>
<polygon fill="midnightblue" stroke="midnightblue" points="822.307,-458.5 832.307,-455 822.307,-451.5 822.307,-458.5"/>
</g>
<!-- Node11 -->
<g id="node11" class="node"><title>Node11</title>
<g id="a_node11"><a xlink:href="../../df/d84/classengine_1_1level_1_1_level.html#a368275ed98c802fbf59a11423b9b9a0d" target="_top" xlink:title="engine.level.Level.getBackground\lMusic">
<polygon fill="white" stroke="black" points="825.5,-391 825.5,-421 1002.5,-421 1002.5,-391 825.5,-391"/>
<text text-anchor="start" x="833.5" y="-409" font-family="Helvetica,sans-Serif" font-size="10.00">engine.level.Level.getBackground</text>
<text text-anchor="middle" x="914" y="-398" font-family="Helvetica,sans-Serif" font-size="10.00">Music</text>
</a>
</g>
</g>
<!-- Node4&#45;&gt;Node11 -->
<g id="edge10" class="edge"><title>Node4&#45;&gt;Node11</title>
<path fill="none" stroke="midnightblue" d="M763.275,-439.965C786.6,-434.674 812.993,-428.687 837.053,-423.229"/>
<polygon fill="midnightblue" stroke="midnightblue" points="837.872,-426.632 846.85,-421.006 836.324,-419.805 837.872,-426.632"/>
</g>
<!-- Node12 -->
<g id="node12" class="node"><title>Node12</title>
<g id="a_node12"><a xlink:href="../../df/d84/classengine_1_1level_1_1_level.html#ace23cd4ed278a5bb85e964ff3c8818b5" target="_top" xlink:title="engine.level.Level.initialize">
<polygon fill="white" stroke="black" points="842.5,-352.5 842.5,-371.5 985.5,-371.5 985.5,-352.5 842.5,-352.5"/>
<text text-anchor="middle" x="914" y="-359.5" font-family="Helvetica,sans-Serif" font-size="10.00">engine.level.Level.initialize</text>
</a>
</g>
</g>
<!-- Node4&#45;&gt;Node12 -->
<g id="edge11" class="edge"><title>Node4&#45;&gt;Node12</title>
<path fill="none" stroke="midnightblue" d="M718.467,-439.957C742.94,-423.466 784.661,-397.32 824,-382 831.849,-378.943 840.278,-376.293 848.708,-374.013"/>
<polygon fill="midnightblue" stroke="midnightblue" points="849.741,-377.362 858.569,-371.504 848.015,-370.578 849.741,-377.362"/>
</g>
<!-- Node17 -->
<g id="node17" class="node"><title>Node17</title>
<g id="a_node17"><a xlink:href="../../dd/d8d/classengine_1_1render_1_1_renderer.html#a189dda9a8463274afe267959860f0dee" target="_top" xlink:title="engine.render.Renderer.render\lGameObjects">
<polygon fill="white" stroke="black" points="833,-232 833,-262 995,-262 995,-232 833,-232"/>
<text text-anchor="start" x="841" y="-250" font-family="Helvetica,sans-Serif" font-size="10.00">engine.render.Renderer.render</text>
<text text-anchor="middle" x="914" y="-239" font-family="Helvetica,sans-Serif" font-size="10.00">GameObjects</text>
</a>
</g>
</g>
<!-- Node4&#45;&gt;Node17 -->
<g id="edge16" class="edge"><title>Node4&#45;&gt;Node17</title>
<path fill="none" stroke="midnightblue" d="M712.883,-439.705C750.657,-403.33 845.979,-311.539 890.029,-269.121"/>
<polygon fill="midnightblue" stroke="midnightblue" points="892.61,-271.494 897.385,-262.037 887.754,-266.452 892.61,-271.494"/>
</g>
<!-- Node7 -->
<g id="node7" class="node"><title>Node7</title>
<g id="a_node7"><a xlink:href="../../df/d84/classengine_1_1level_1_1_level.html#a264b568258eafa3d2c664c94e7498621" target="_top" xlink:title="engine.level.Level.getCondition\lIdentifiers">
<polygon fill="white" stroke="black" points="1046.5,-563 1046.5,-593 1211.5,-593 1211.5,-563 1046.5,-563"/>
<text text-anchor="start" x="1054.5" y="-581" font-family="Helvetica,sans-Serif" font-size="10.00">engine.level.Level.getCondition</text>
<text text-anchor="middle" x="1129" y="-570" font-family="Helvetica,sans-Serif" font-size="10.00">Identifiers</text>
</a>
</g>
</g>
<!-- Node6&#45;&gt;Node7 -->
<g id="edge6" class="edge"><title>Node6&#45;&gt;Node7</title>
<path fill="none" stroke="midnightblue" d="M994.616,-562.345C1008.21,-563.941 1022.44,-565.61 1036.32,-567.239"/>
<polygon fill="midnightblue" stroke="midnightblue" points="1036.01,-570.727 1046.35,-568.417 1036.82,-563.775 1036.01,-570.727"/>
</g>
<!-- Node8 -->
<g id="node8" class="node"><title>Node8</title>
<g id="a_node8"><a xlink:href="../../df/d67/classengine_1_1level_1_1_level_manager.html#a766cb6198dd991f0bdf6386dace3a65b" target="_top" xlink:title="engine.level.LevelManager.enable\lCondition">
<polygon fill="white" stroke="black" points="1040,-514 1040,-544 1218,-544 1218,-514 1040,-514"/>
<text text-anchor="start" x="1048" y="-532" font-family="Helvetica,sans-Serif" font-size="10.00">engine.level.LevelManager.enable</text>
<text text-anchor="middle" x="1129" y="-521" font-family="Helvetica,sans-Serif" font-size="10.00">Condition</text>
</a>
</g>
</g>
<!-- Node6&#45;&gt;Node8 -->
<g id="edge7" class="edge"><title>Node6&#45;&gt;Node8</title>
<path fill="none" stroke="midnightblue" d="M994.616,-544.029C1006.04,-542.742 1017.91,-541.405 1029.64,-540.083"/>
<polygon fill="midnightblue" stroke="midnightblue" points="1030.36,-543.524 1039.9,-538.927 1029.57,-536.568 1030.36,-543.524"/>
</g>
<!-- Node13 -->
<g id="node13" class="node"><title>Node13</title>
<g id="a_node13"><a xlink:href="../../df/d67/classengine_1_1level_1_1_level_manager.html#a6e15411e375d875fa72058d499bec766" target="_top" xlink:title="engine.level.LevelManager.object\lForIdentifier">
<polygon fill="white" stroke="black" points="1041.5,-347 1041.5,-377 1216.5,-377 1216.5,-347 1041.5,-347"/>
<text text-anchor="start" x="1049.5" y="-365" font-family="Helvetica,sans-Serif" font-size="10.00">engine.level.LevelManager.object</text>
<text text-anchor="middle" x="1129" y="-354" font-family="Helvetica,sans-Serif" font-size="10.00">ForIdentifier</text>
</a>
</g>
</g>
<!-- Node12&#45;&gt;Node13 -->
<g id="edge12" class="edge"><title>Node12&#45;&gt;Node13</title>
<path fill="none" stroke="midnightblue" d="M985.63,-362C1000.23,-362 1015.85,-362 1031.2,-362"/>
<polygon fill="midnightblue" stroke="midnightblue" points="1031.24,-365.5 1041.24,-362 1031.24,-358.5 1031.24,-365.5"/>
</g>
<!-- Node14 -->
<g id="node14" class="node"><title>Node14</title>
<g id="a_node14"><a xlink:href="../../d0/d7f/classengine_1_1game_object_1_1_game_object.html#accd456b2eaab9c7056de825a28b066c8" target="_top" xlink:title="engine.gameObject.GameObject.get\lIdentifier">
<polygon fill="white" stroke="black" points="1254,-308 1254,-338 1446,-338 1446,-308 1254,-308"/>
<text text-anchor="start" x="1262" y="-326" font-family="Helvetica,sans-Serif" font-size="10.00">engine.gameObject.GameObject.get</text>
<text text-anchor="middle" x="1350" y="-315" font-family="Helvetica,sans-Serif" font-size="10.00">Identifier</text>
</a>
</g>
</g>
<!-- Node12&#45;&gt;Node14 -->
<g id="edge13" class="edge"><title>Node12&#45;&gt;Node14</title>
<path fill="none" stroke="midnightblue" d="M982.883,-371.518C990.365,-374.206 997.585,-377.634 1004,-382 1027.54,-398.022 1014.84,-421.672 1040,-435 1109.91,-472.027 1143.79,-462.401 1218,-435 1265.82,-417.343 1308.02,-373.581 1330.89,-346.281"/>
<polygon fill="midnightblue" stroke="midnightblue" points="1333.73,-348.34 1337.35,-338.385 1328.31,-343.906 1333.73,-348.34"/>
</g>
<!-- Node15 -->
<g id="node15" class="node"><title>Node15</title>
<g id="a_node15"><a xlink:href="../../d4/dac/classengine_1_1game_object_1_1_identifier.html#aa2630b5024b9595e43afe0bf53229433" target="_top" xlink:title="engine.gameObject.Identifier.get\lUniqueId">
<polygon fill="white" stroke="black" points="1042.5,-298 1042.5,-328 1215.5,-328 1215.5,-298 1042.5,-298"/>
<text text-anchor="start" x="1050.5" y="-316" font-family="Helvetica,sans-Serif" font-size="10.00">engine.gameObject.Identifier.get</text>
<text text-anchor="middle" x="1129" y="-305" font-family="Helvetica,sans-Serif" font-size="10.00">UniqueId</text>
</a>
</g>
</g>
<!-- Node12&#45;&gt;Node15 -->
<g id="edge14" class="edge"><title>Node12&#45;&gt;Node15</title>
<path fill="none" stroke="midnightblue" d="M956.321,-352.494C983.621,-346.214 1020.2,-337.798 1052.59,-330.349"/>
<polygon fill="midnightblue" stroke="midnightblue" points="1053.53,-333.724 1062.49,-328.071 1051.96,-326.902 1053.53,-333.724"/>
</g>
<!-- Node16 -->
<g id="node16" class="node"><title>Node16</title>
<g id="a_node16"><a xlink:href="../../d4/d3b/classauthoring_1_1model_1_1collections_1_1_general_collection.html#a1bdc1047736bbb23259d6a7fe4c6deeb" target="_top" xlink:title="authoring.model.collections.\lGeneralCollection.add">
<polygon fill="white" stroke="black" points="1053,-396 1053,-426 1205,-426 1205,-396 1053,-396"/>
<text text-anchor="start" x="1061" y="-414" font-family="Helvetica,sans-Serif" font-size="10.00">authoring.model.collections.</text>
<text text-anchor="middle" x="1129" y="-403" font-family="Helvetica,sans-Serif" font-size="10.00">GeneralCollection.add</text>
</a>
</g>
</g>
<!-- Node12&#45;&gt;Node16 -->
<g id="edge15" class="edge"><title>Node12&#45;&gt;Node16</title>
<path fill="none" stroke="midnightblue" d="M958.022,-371.589C972.623,-374.864 989.027,-378.567 1004,-382 1020.24,-385.724 1037.66,-389.768 1054.17,-393.621"/>
<polygon fill="midnightblue" stroke="midnightblue" points="1053.77,-397.123 1064.31,-395.992 1055.36,-390.307 1053.77,-397.123"/>
</g>
<!-- Node17&#45;&gt;Node14 -->
<g id="edge25" class="edge"><title>Node17&#45;&gt;Node14</title>
<path fill="none" stroke="midnightblue" d="M995.247,-254.839C1056.61,-261.561 1143.12,-272.61 1218,-288 1234.27,-291.343 1237.97,-293.665 1254,-298 1262.89,-300.403 1272.25,-302.905 1281.49,-305.356"/>
<polygon fill="midnightblue" stroke="midnightblue" points="1280.88,-308.815 1291.45,-307.989 1282.67,-302.048 1280.88,-308.815"/>
</g>
<!-- Node17&#45;&gt;Node15 -->
<g id="edge26" class="edge"><title>Node17&#45;&gt;Node15</title>
<path fill="none" stroke="midnightblue" d="M963.6,-262.059C995.113,-271.824 1036.35,-284.6 1069.63,-294.914"/>
<polygon fill="midnightblue" stroke="midnightblue" points="1068.65,-298.275 1079.24,-297.892 1070.72,-291.589 1068.65,-298.275"/>
</g>
<!-- Node18 -->
<g id="node18" class="node"><title>Node18</title>
<g id="a_node18"><a xlink:href="../../dd/d8d/classengine_1_1render_1_1_renderer.html#a10b850c208c44a1137b099d1967c6e9b" target="_top" xlink:title="engine.render.Renderer.set\lBackGroundImage">
<polygon fill="white" stroke="black" points="1056,-161 1056,-191 1202,-191 1202,-161 1056,-161"/>
<text text-anchor="start" x="1064" y="-179" font-family="Helvetica,sans-Serif" font-size="10.00">engine.render.Renderer.set</text>
<text text-anchor="middle" x="1129" y="-168" font-family="Helvetica,sans-Serif" font-size="10.00">BackGroundImage</text>
</a>
</g>
</g>
<!-- Node17&#45;&gt;Node18 -->
<g id="edge17" class="edge"><title>Node17&#45;&gt;Node18</title>
<path fill="none" stroke="midnightblue" d="M952.146,-231.992C976.842,-222.272 1010.11,-209.672 1040,-200 1046.38,-197.936 1053.05,-195.899 1059.75,-193.936"/>
<polygon fill="midnightblue" stroke="midnightblue" points="1060.91,-197.245 1069.55,-191.118 1058.97,-190.518 1060.91,-197.245"/>
</g>
<!-- Node24 -->
<g id="node24" class="node"><title>Node24</title>
<g id="a_node24"><a xlink:href="../../df/d84/classengine_1_1level_1_1_level.html#af2921158eda86e1f909575ee468eec5c" target="_top" xlink:title="engine.level.Level.getGame\lObjectIterator">
<polygon fill="white" stroke="black" points="1054.5,-93 1054.5,-123 1203.5,-123 1203.5,-93 1054.5,-93"/>
<text text-anchor="start" x="1062.5" y="-111" font-family="Helvetica,sans-Serif" font-size="10.00">engine.level.Level.getGame</text>
<text text-anchor="middle" x="1129" y="-100" font-family="Helvetica,sans-Serif" font-size="10.00">ObjectIterator</text>
</a>
</g>
</g>
<!-- Node17&#45;&gt;Node24 -->
<g id="edge23" class="edge"><title>Node17&#45;&gt;Node24</title>
<path fill="none" stroke="midnightblue" d="M932.398,-231.824C955.829,-211.821 999.295,-176.221 1040,-151 1053.75,-142.478 1069.44,-134.35 1083.73,-127.501"/>
<polygon fill="midnightblue" stroke="midnightblue" points="1085.32,-130.62 1092.87,-123.193 1082.34,-124.286 1085.32,-130.62"/>
</g>
<!-- Node26 -->
<g id="node26" class="node"><title>Node26</title>
<g id="a_node26"><a xlink:href="../../dd/d8d/classengine_1_1render_1_1_renderer.html#a569f6bb2f9c218ed015949dff459b1ee" target="_top" xlink:title="engine.render.Renderer.create\lAndAssignRenderedNode">
<polygon fill="white" stroke="black" points="1048.5,-210 1048.5,-240 1209.5,-240 1209.5,-210 1048.5,-210"/>
<text text-anchor="start" x="1056.5" y="-228" font-family="Helvetica,sans-Serif" font-size="10.00">engine.render.Renderer.create</text>
<text text-anchor="middle" x="1129" y="-217" font-family="Helvetica,sans-Serif" font-size="10.00">AndAssignRenderedNode</text>
</a>
</g>
</g>
<!-- Node17&#45;&gt;Node26 -->
<g id="edge27" class="edge"><title>Node17&#45;&gt;Node26</title>
<path fill="none" stroke="midnightblue" d="M995.223,-238.714C1009.17,-237.273 1023.76,-235.766 1037.95,-234.3"/>
<polygon fill="midnightblue" stroke="midnightblue" points="1038.62,-237.751 1048.2,-233.242 1037.9,-230.788 1038.62,-237.751"/>
</g>
<!-- Node19 -->
<g id="node19" class="node"><title>Node19</title>
<g id="a_node19"><a xlink:href="../../d5/d30/classengine_1_1render_1_1_rendered_node_factory.html#ae9ab86f88eb96945a412e561179aa070" target="_top" xlink:title="engine.render.RenderedNode\lFactory.createImageAndView">
<polygon fill="white" stroke="black" points="1505,-49 1505,-79 1661,-79 1661,-49 1505,-49"/>
<text text-anchor="start" x="1513" y="-67" font-family="Helvetica,sans-Serif" font-size="10.00">engine.render.RenderedNode</text>
<text text-anchor="middle" x="1583" y="-56" font-family="Helvetica,sans-Serif" font-size="10.00">Factory.createImageAndView</text>
</a>
</g>
</g>
<!-- Node18&#45;&gt;Node19 -->
<g id="edge18" class="edge"><title>Node18&#45;&gt;Node19</title>
<path fill="none" stroke="midnightblue" d="M1202.29,-161.401C1295.35,-142.602 1445.28,-112.289 1446,-112 1463.6,-104.884 1464.56,-96.5117 1482,-89 1487.77,-86.5143 1493.84,-84.2401 1500.02,-82.1663"/>
<polygon fill="midnightblue" stroke="midnightblue" points="1501.31,-85.4285 1509.78,-79.0707 1499.19,-78.7557 1501.31,-85.4285"/>
</g>
<!-- Node23 -->
<g id="node23" class="node"><title>Node23</title>
<g id="a_node23"><a xlink:href="../../df/d84/classengine_1_1level_1_1_level.html#a5dc36c31fcc8e0b5cbe2a942ec101fdb" target="_top" xlink:title="engine.level.Level.getBackground\lImage">
<polygon fill="white" stroke="black" points="1261.5,-161 1261.5,-191 1438.5,-191 1438.5,-161 1261.5,-161"/>
<text text-anchor="start" x="1269.5" y="-179" font-family="Helvetica,sans-Serif" font-size="10.00">engine.level.Level.getBackground</text>
<text text-anchor="middle" x="1350" y="-168" font-family="Helvetica,sans-Serif" font-size="10.00">Image</text>
</a>
</g>
</g>
<!-- Node18&#45;&gt;Node23 -->
<g id="edge22" class="edge"><title>Node18&#45;&gt;Node23</title>
<path fill="none" stroke="midnightblue" d="M1202.01,-176C1217.7,-176 1234.57,-176 1251.07,-176"/>
<polygon fill="midnightblue" stroke="midnightblue" points="1251.29,-179.5 1261.29,-176 1251.29,-172.5 1251.29,-179.5"/>
</g>
<!-- Node20 -->
<g id="node20" class="node"><title>Node20</title>
<g id="a_node20"><a xlink:href="../../d0/d7f/classengine_1_1game_object_1_1_game_object.html#ae8b88e1cf489e935426e2e252defbae0" target="_top" xlink:title="engine.gameObject.GameObject.get\lCurrentImageName">
<polygon fill="white" stroke="black" points="1720,-0 1720,-30 1912,-30 1912,-0 1720,-0"/>
<text text-anchor="start" x="1728" y="-18" font-family="Helvetica,sans-Serif" font-size="10.00">engine.gameObject.GameObject.get</text>
<text text-anchor="middle" x="1816" y="-7" font-family="Helvetica,sans-Serif" font-size="10.00">CurrentImageName</text>
</a>
</g>
</g>
<!-- Node19&#45;&gt;Node20 -->
<g id="edge19" class="edge"><title>Node19&#45;&gt;Node20</title>
<path fill="none" stroke="midnightblue" d="M1654.88,-48.9654C1680.04,-43.627 1708.55,-37.5802 1734.46,-32.0834"/>
<polygon fill="midnightblue" stroke="midnightblue" points="1735.2,-35.5051 1744.26,-30.0062 1733.75,-28.6575 1735.2,-35.5051"/>
</g>
<!-- Node21 -->
<g id="node21" class="node"><title>Node21</title>
<g id="a_node21"><a xlink:href="../../d0/d7f/classengine_1_1game_object_1_1_game_object.html#aaeb5730a3b51fe9cb3d817ea7172cfc2" target="_top" xlink:title="engine.gameObject.GameObject.get\lHeight">
<polygon fill="white" stroke="black" points="1720,-98 1720,-128 1912,-128 1912,-98 1720,-98"/>
<text text-anchor="start" x="1728" y="-116" font-family="Helvetica,sans-Serif" font-size="10.00">engine.gameObject.GameObject.get</text>
<text text-anchor="middle" x="1816" y="-105" font-family="Helvetica,sans-Serif" font-size="10.00">Height</text>
</a>
</g>
</g>
<!-- Node19&#45;&gt;Node21 -->
<g id="edge20" class="edge"><title>Node19&#45;&gt;Node21</title>
<path fill="none" stroke="midnightblue" d="M1654.88,-79.0346C1680.04,-84.373 1708.55,-90.4198 1734.46,-95.9166"/>
<polygon fill="midnightblue" stroke="midnightblue" points="1733.75,-99.3425 1744.26,-97.9938 1735.2,-92.4949 1733.75,-99.3425"/>
</g>
<!-- Node22 -->
<g id="node22" class="node"><title>Node22</title>
<g id="a_node22"><a xlink:href="../../d0/d7f/classengine_1_1game_object_1_1_game_object.html#a31aa2c854220621b49fc5575b50b9342" target="_top" xlink:title="engine.gameObject.GameObject.get\lWidth">
<polygon fill="white" stroke="black" points="1720,-49 1720,-79 1912,-79 1912,-49 1720,-49"/>
<text text-anchor="start" x="1728" y="-67" font-family="Helvetica,sans-Serif" font-size="10.00">engine.gameObject.GameObject.get</text>
<text text-anchor="middle" x="1816" y="-56" font-family="Helvetica,sans-Serif" font-size="10.00">Width</text>
</a>
</g>
</g>
<!-- Node19&#45;&gt;Node22 -->
<g id="edge21" class="edge"><title>Node19&#45;&gt;Node22</title>
<path fill="none" stroke="midnightblue" d="M1661.24,-64C1676.77,-64 1693.35,-64 1709.65,-64"/>
<polygon fill="midnightblue" stroke="midnightblue" points="1709.75,-67.5001 1719.75,-64 1709.75,-60.5001 1709.75,-67.5001"/>
</g>
<!-- Node25 -->
<g id="node25" class="node"><title>Node25</title>
<g id="a_node25"><a xlink:href="../../d4/d3b/classauthoring_1_1model_1_1collections_1_1_general_collection.html#a79482ff667a22bb0d5b702c03261fe8d" target="_top" xlink:title="authoring.model.collections.\lGeneralCollection.iterator">
<polygon fill="white" stroke="black" points="1274,-73 1274,-103 1426,-103 1426,-73 1274,-73"/>
<text text-anchor="start" x="1282" y="-91" font-family="Helvetica,sans-Serif" font-size="10.00">authoring.model.collections.</text>
<text text-anchor="middle" x="1350" y="-80" font-family="Helvetica,sans-Serif" font-size="10.00">GeneralCollection.iterator</text>
</a>
</g>
</g>
<!-- Node24&#45;&gt;Node25 -->
<g id="edge24" class="edge"><title>Node24&#45;&gt;Node25</title>
<path fill="none" stroke="midnightblue" d="M1203.53,-101.285C1222.88,-99.5178 1243.91,-97.5971 1263.82,-95.7794"/>
<polygon fill="midnightblue" stroke="midnightblue" points="1264.15,-99.2633 1273.79,-94.8682 1263.52,-92.2923 1264.15,-99.2633"/>
</g>
<!-- Node26&#45;&gt;Node14 -->
<g id="edge44" class="edge"><title>Node26&#45;&gt;Node14</title>
<path fill="none" stroke="midnightblue" d="M1188.95,-240.089C1199.11,-244.062 1209.21,-248.975 1218,-255 1238.55,-269.097 1232.96,-284.643 1254,-298 1257.21,-300.039 1260.59,-301.913 1264.07,-303.634"/>
<polygon fill="midnightblue" stroke="midnightblue" points="1262.95,-306.968 1273.51,-307.845 1265.8,-300.575 1262.95,-306.968"/>
</g>
<!-- Node27 -->
<g id="node27" class="node"><title>Node27</title>
<g id="a_node27"><a xlink:href="../../d5/d30/classengine_1_1render_1_1_rendered_node_factory.html#a359dcce722371dfb49b79528930c1b05" target="_top" xlink:title="engine.render.RenderedNode\lFactory.createRenderedNode">
<polygon fill="white" stroke="black" points="1272,-210 1272,-240 1428,-240 1428,-210 1272,-210"/>
<text text-anchor="start" x="1280" y="-228" font-family="Helvetica,sans-Serif" font-size="10.00">engine.render.RenderedNode</text>
<text text-anchor="middle" x="1350" y="-217" font-family="Helvetica,sans-Serif" font-size="10.00">Factory.createRenderedNode</text>
</a>
</g>
</g>
<!-- Node26&#45;&gt;Node27 -->
<g id="edge28" class="edge"><title>Node26&#45;&gt;Node27</title>
<path fill="none" stroke="midnightblue" d="M1209.68,-225C1226.65,-225 1244.66,-225 1261.89,-225"/>
<polygon fill="midnightblue" stroke="midnightblue" points="1261.94,-228.5 1271.94,-225 1261.94,-221.5 1261.94,-228.5"/>
</g>
<!-- Node40 -->
<g id="node40" class="node"><title>Node40</title>
<g id="a_node40"><a xlink:href="../../d0/d7f/classengine_1_1game_object_1_1_game_object.html#ab09d473d8c2afe8cefb2ce2481bc66fd" target="_top" xlink:title="engine.gameObject.GameObject.set\lRenderedNode">
<polygon fill="white" stroke="black" points="1254.5,-259 1254.5,-289 1445.5,-289 1445.5,-259 1254.5,-259"/>
<text text-anchor="start" x="1262.5" y="-277" font-family="Helvetica,sans-Serif" font-size="10.00">engine.gameObject.GameObject.set</text>
<text text-anchor="middle" x="1350" y="-266" font-family="Helvetica,sans-Serif" font-size="10.00">RenderedNode</text>
</a>
</g>
</g>
<!-- Node26&#45;&gt;Node40 -->
<g id="edge45" class="edge"><title>Node26&#45;&gt;Node40</title>
<path fill="none" stroke="midnightblue" d="M1197.2,-240.035C1220.84,-245.326 1247.6,-251.313 1272,-256.771"/>
<polygon fill="midnightblue" stroke="midnightblue" points="1271.41,-260.226 1281.93,-258.994 1272.94,-253.395 1271.41,-260.226"/>
</g>
<!-- Node27&#45;&gt;Node19 -->
<g id="edge30" class="edge"><title>Node27&#45;&gt;Node19</title>
<path fill="none" stroke="midnightblue" d="M1428.26,-212.113C1434.74,-208.899 1440.79,-204.92 1446,-200 1483.69,-164.374 1444.09,-124.393 1482,-89 1486.09,-85.1837 1490.67,-81.9265 1495.56,-79.1489"/>
<polygon fill="midnightblue" stroke="midnightblue" points="1497.25,-82.2192 1504.66,-74.6499 1494.14,-75.9441 1497.25,-82.2192"/>
</g>
<!-- Node28 -->
<g id="node28" class="node"><title>Node28</title>
<g id="a_node28"><a xlink:href="../../d2/d82/classengine_1_1render_1_1_rendered_node.html#a520a8c03b505d10c69e010e603cadfdd" target="_top" xlink:title="engine.render.RenderedNode.set\lImageView">
<polygon fill="white" stroke="black" points="1496,-333 1496,-363 1670,-363 1670,-333 1496,-333"/>
<text text-anchor="start" x="1504" y="-351" font-family="Helvetica,sans-Serif" font-size="10.00">engine.render.RenderedNode.set</text>
<text text-anchor="middle" x="1583" y="-340" font-family="Helvetica,sans-Serif" font-size="10.00">ImageView</text>
</a>
</g>
</g>
<!-- Node27&#45;&gt;Node28 -->
<g id="edge29" class="edge"><title>Node27&#45;&gt;Node28</title>
<path fill="none" stroke="midnightblue" d="M1428.02,-238.039C1434.47,-240.993 1440.59,-244.6 1446,-249 1474.38,-272.075 1453.6,-299.96 1482,-323 1484.07,-324.677 1486.23,-326.243 1488.48,-327.707"/>
<polygon fill="midnightblue" stroke="midnightblue" points="1487.06,-330.931 1497.48,-332.853 1490.54,-324.853 1487.06,-330.931"/>
</g>
<!-- Node29 -->
<g id="node29" class="node"><title>Node29</title>
<g id="a_node29"><a xlink:href="../../d2/d82/classengine_1_1render_1_1_rendered_node.html#ad73c81ad48b40faea3818c9a7bbfdcf0" target="_top" xlink:title="engine.render.RenderedNode.set\lCollisionBody">
<polygon fill="white" stroke="black" points="1496,-284 1496,-314 1670,-314 1670,-284 1496,-284"/>
<text text-anchor="start" x="1504" y="-302" font-family="Helvetica,sans-Serif" font-size="10.00">engine.render.RenderedNode.set</text>
<text text-anchor="middle" x="1583" y="-291" font-family="Helvetica,sans-Serif" font-size="10.00">CollisionBody</text>
</a>
</g>
</g>
<!-- Node27&#45;&gt;Node29 -->
<g id="edge31" class="edge"><title>Node27&#45;&gt;Node29</title>
<path fill="none" stroke="midnightblue" d="M1422.26,-240.004C1430.42,-242.597 1438.49,-245.581 1446,-249 1463.73,-257.071 1464.26,-265.951 1482,-274 1487.38,-276.44 1493.03,-278.666 1498.79,-280.693"/>
<polygon fill="midnightblue" stroke="midnightblue" points="1497.99,-284.111 1508.58,-283.919 1500.18,-277.463 1497.99,-284.111"/>
</g>
<!-- Node30 -->
<g id="node30" class="node"><title>Node30</title>
<g id="a_node30"><a xlink:href="../../d5/d30/classengine_1_1render_1_1_rendered_node_factory.html#ac14d2f5a3da79d92c967fe22bc82c1ed" target="_top" xlink:title="engine.render.RenderedNode\lFactory.createCollisionBody">
<polygon fill="white" stroke="black" points="1505,-235 1505,-265 1661,-265 1661,-235 1505,-235"/>
<text text-anchor="start" x="1513" y="-253" font-family="Helvetica,sans-Serif" font-size="10.00">engine.render.RenderedNode</text>
<text text-anchor="middle" x="1583" y="-242" font-family="Helvetica,sans-Serif" font-size="10.00">Factory.createCollisionBody</text>
</a>
</g>
</g>
<!-- Node27&#45;&gt;Node30 -->
<g id="edge32" class="edge"><title>Node27&#45;&gt;Node30</title>
<path fill="none" stroke="midnightblue" d="M1428.24,-233.359C1449.62,-235.674 1472.98,-238.201 1494.88,-240.572"/>
<polygon fill="midnightblue" stroke="midnightblue" points="1494.51,-244.052 1504.83,-241.648 1495.27,-237.093 1494.51,-244.052"/>
</g>
<!-- Node34 -->
<g id="node34" class="node"><title>Node34</title>
<g id="a_node34"><a xlink:href="../../d2/d82/classengine_1_1render_1_1_rendered_node.html#a312c663dd1144ff206ecfa1ea8c95a81" target="_top" xlink:title="engine.render.RenderedNode.set\lLabel">
<polygon fill="white" stroke="black" points="1496,-186 1496,-216 1670,-216 1670,-186 1496,-186"/>
<text text-anchor="start" x="1504" y="-204" font-family="Helvetica,sans-Serif" font-size="10.00">engine.render.RenderedNode.set</text>
<text text-anchor="middle" x="1583" y="-193" font-family="Helvetica,sans-Serif" font-size="10.00">Label</text>
</a>
</g>
</g>
<!-- Node27&#45;&gt;Node34 -->
<g id="edge36" class="edge"><title>Node27&#45;&gt;Node34</title>
<path fill="none" stroke="midnightblue" d="M1428.24,-216.975C1446.59,-215.069 1466.38,-213.012 1485.47,-211.029"/>
<polygon fill="midnightblue" stroke="midnightblue" points="1486.09,-214.484 1495.68,-209.969 1485.37,-207.521 1486.09,-214.484"/>
</g>
<!-- Node35 -->
<g id="node35" class="node"><title>Node35</title>
<g id="a_node35"><a xlink:href="../../d5/d30/classengine_1_1render_1_1_rendered_node_factory.html#a4e1f4508b1c12b958bd3c88a35a4e872" target="_top" xlink:title="engine.render.RenderedNode\lFactory.createLabel">
<polygon fill="white" stroke="black" points="1505,-137 1505,-167 1661,-167 1661,-137 1505,-137"/>
<text text-anchor="start" x="1513" y="-155" font-family="Helvetica,sans-Serif" font-size="10.00">engine.render.RenderedNode</text>
<text text-anchor="middle" x="1583" y="-144" font-family="Helvetica,sans-Serif" font-size="10.00">Factory.createLabel</text>
</a>
</g>
</g>
<!-- Node27&#45;&gt;Node35 -->
<g id="edge37" class="edge"><title>Node27&#45;&gt;Node35</title>
<path fill="none" stroke="midnightblue" d="M1419.41,-209.924C1428.52,-207.074 1437.6,-203.778 1446,-200 1463.54,-192.112 1464.38,-183.696 1482,-176 1486.74,-173.932 1491.68,-172.024 1496.72,-170.268"/>
<polygon fill="midnightblue" stroke="midnightblue" points="1498.09,-173.502 1506.52,-167.073 1495.92,-166.847 1498.09,-173.502"/>
</g>
<!-- Node37 -->
<g id="node37" class="node"><title>Node37</title>
<g id="a_node37"><a xlink:href="../../d0/d7f/classengine_1_1game_object_1_1_game_object.html#a606c7293c2bfac0af1fb42143bf527f6" target="_top" xlink:title="engine.gameObject.GameObject.getX">
<polygon fill="white" stroke="black" points="1484,-98.5 1484,-117.5 1682,-117.5 1682,-98.5 1484,-98.5"/>
<text text-anchor="middle" x="1583" y="-105.5" font-family="Helvetica,sans-Serif" font-size="10.00">engine.gameObject.GameObject.getX</text>
</a>
</g>
</g>
<!-- Node27&#45;&gt;Node37 -->
<g id="edge41" class="edge"><title>Node27&#45;&gt;Node37</title>
<path fill="none" stroke="midnightblue" d="M1428.01,-211.079C1434.47,-208.072 1440.58,-204.424 1446,-200 1474.02,-177.113 1453.21,-148.899 1482,-127 1484.23,-125.303 1486.57,-123.744 1488.99,-122.312"/>
<polygon fill="midnightblue" stroke="midnightblue" points="1490.79,-125.325 1498.1,-117.661 1487.61,-119.09 1490.79,-125.325"/>
</g>
<!-- Node38 -->
<g id="node38" class="node"><title>Node38</title>
<g id="a_node38"><a xlink:href="../../d0/d7f/classengine_1_1game_object_1_1_game_object.html#a1988806ef560c9384f3844d0666a9450" target="_top" xlink:title="engine.gameObject.GameObject.getY">
<polygon fill="white" stroke="black" points="1484.5,-420.5 1484.5,-439.5 1681.5,-439.5 1681.5,-420.5 1484.5,-420.5"/>
<text text-anchor="middle" x="1583" y="-427.5" font-family="Helvetica,sans-Serif" font-size="10.00">engine.gameObject.GameObject.getY</text>
</a>
</g>
</g>
<!-- Node27&#45;&gt;Node38 -->
<g id="edge42" class="edge"><title>Node27&#45;&gt;Node38</title>
<path fill="none" stroke="midnightblue" d="M1428.27,-236.3C1434.84,-239.593 1440.9,-243.754 1446,-249 1497.4,-301.899 1429.05,-359.659 1482,-411 1483.31,-412.269 1484.67,-413.466 1486.09,-414.595"/>
<polygon fill="midnightblue" stroke="midnightblue" points="1484.44,-417.702 1494.7,-420.35 1488.33,-411.883 1484.44,-417.702"/>
</g>
<!-- Node39 -->
<g id="node39" class="node"><title>Node39</title>
<g id="a_node39"><a xlink:href="../../d0/d7f/classengine_1_1game_object_1_1_game_object.html#ae94fe532960bd29f64c2dc19ec0af798" target="_top" xlink:title="engine.gameObject.GameObject.getID">
<polygon fill="white" stroke="black" points="1482,-382.5 1482,-401.5 1684,-401.5 1684,-382.5 1482,-382.5"/>
<text text-anchor="middle" x="1583" y="-389.5" font-family="Helvetica,sans-Serif" font-size="10.00">engine.gameObject.GameObject.getID</text>
</a>
</g>
</g>
<!-- Node27&#45;&gt;Node39 -->
<g id="edge43" class="edge"><title>Node27&#45;&gt;Node39</title>
<path fill="none" stroke="midnightblue" d="M1428.38,-236.882C1434.84,-240.066 1440.85,-244.043 1446,-249 1487.02,-288.519 1440,-333.52 1482,-372 1484,-373.832 1486.12,-375.515 1488.33,-377.063"/>
<polygon fill="midnightblue" stroke="midnightblue" points="1486.92,-380.297 1497.31,-382.379 1490.49,-374.273 1486.92,-380.297"/>
</g>
<!-- Node31 -->
<g id="node31" class="node"><title>Node31</title>
<g id="a_node31"><a xlink:href="../../d0/d7f/classengine_1_1game_object_1_1_game_object.html#a60c5b6933aac9969491a3562a963c043" target="_top" xlink:title="engine.gameObject.GameObject.get\lPhysicsBody">
<polygon fill="white" stroke="black" points="1720,-196 1720,-226 1912,-226 1912,-196 1720,-196"/>
<text text-anchor="start" x="1728" y="-214" font-family="Helvetica,sans-Serif" font-size="10.00">engine.gameObject.GameObject.get</text>
<text text-anchor="middle" x="1816" y="-203" font-family="Helvetica,sans-Serif" font-size="10.00">PhysicsBody</text>
</a>
</g>
</g>
<!-- Node30&#45;&gt;Node31 -->
<g id="edge33" class="edge"><title>Node30&#45;&gt;Node31</title>
<path fill="none" stroke="midnightblue" d="M1661.24,-236.959C1678.73,-234.007 1697.53,-230.833 1715.78,-227.751"/>
<polygon fill="midnightblue" stroke="midnightblue" points="1716.57,-231.167 1725.85,-226.051 1715.41,-224.265 1716.57,-231.167"/>
</g>
<!-- Node32 -->
<g id="node32" class="node"><title>Node32</title>
<g id="a_node32"><a xlink:href="../../d9/d9d/classengine_1_1game_object_1_1components_1_1_physics_body.html#aba2ed3bce8ee8e404907c88b144626fc" target="_top" xlink:title="engine.gameObject.components.\lPhysicsBody.getCollisionBodyHeight">
<polygon fill="white" stroke="black" points="1722,-294 1722,-324 1910,-324 1910,-294 1722,-294"/>
<text text-anchor="start" x="1730" y="-312" font-family="Helvetica,sans-Serif" font-size="10.00">engine.gameObject.components.</text>
<text text-anchor="middle" x="1816" y="-301" font-family="Helvetica,sans-Serif" font-size="10.00">PhysicsBody.getCollisionBodyHeight</text>
</a>
</g>
</g>
<!-- Node30&#45;&gt;Node32 -->
<g id="edge34" class="edge"><title>Node30&#45;&gt;Node32</title>
<path fill="none" stroke="midnightblue" d="M1648.1,-265.028C1660.05,-267.931 1672.42,-271.003 1684,-274 1700.08,-278.161 1703.97,-279.665 1720,-284 1728.89,-286.403 1738.25,-288.905 1747.49,-291.356"/>
<polygon fill="midnightblue" stroke="midnightblue" points="1746.88,-294.815 1757.45,-293.989 1748.67,-288.048 1746.88,-294.815"/>
</g>
<!-- Node33 -->
<g id="node33" class="node"><title>Node33</title>
<g id="a_node33"><a xlink:href="../../d9/d9d/classengine_1_1game_object_1_1components_1_1_physics_body.html#ae64e43632570392c3118b3d00af853fc" target="_top" xlink:title="engine.gameObject.components.\lPhysicsBody.getCollisionBodyWidth">
<polygon fill="white" stroke="black" points="1725,-245 1725,-275 1907,-275 1907,-245 1725,-245"/>
<text text-anchor="start" x="1733" y="-263" font-family="Helvetica,sans-Serif" font-size="10.00">engine.gameObject.components.</text>
<text text-anchor="middle" x="1816" y="-252" font-family="Helvetica,sans-Serif" font-size="10.00">PhysicsBody.getCollisionBodyWidth</text>
</a>
</g>
</g>
<!-- Node30&#45;&gt;Node33 -->
<g id="edge35" class="edge"><title>Node30&#45;&gt;Node33</title>
<path fill="none" stroke="midnightblue" d="M1661.24,-253.344C1678.24,-254.079 1696.48,-254.869 1714.24,-255.638"/>
<polygon fill="midnightblue" stroke="midnightblue" points="1714.49,-259.152 1724.64,-256.088 1714.8,-252.159 1714.49,-259.152"/>
</g>
<!-- Node35&#45;&gt;Node21 -->
<g id="edge39" class="edge"><title>Node35&#45;&gt;Node21</title>
<path fill="none" stroke="midnightblue" d="M1661.24,-138.959C1678.73,-136.007 1697.53,-132.833 1715.78,-129.751"/>
<polygon fill="midnightblue" stroke="midnightblue" points="1716.57,-133.167 1725.85,-128.051 1715.41,-126.265 1716.57,-133.167"/>
</g>
<!-- Node35&#45;&gt;Node22 -->
<g id="edge40" class="edge"><title>Node35&#45;&gt;Node22</title>
<path fill="none" stroke="midnightblue" d="M1661.18,-137.607C1669.15,-134.695 1676.92,-131.198 1684,-127 1704.29,-114.97 1699.72,-100.055 1720,-88 1722.85,-86.3047 1725.82,-84.7285 1728.87,-83.2629"/>
<polygon fill="midnightblue" stroke="midnightblue" points="1730.46,-86.388 1738.23,-79.1901 1727.67,-79.9687 1730.46,-86.388"/>
</g>
<!-- Node36 -->
<g id="node36" class="node"><title>Node36</title>
<g id="a_node36"><a xlink:href="../../d0/d7f/classengine_1_1game_object_1_1_game_object.html#a5c379828f3bb19a91935f965c48a91a5" target="_top" xlink:title="engine.gameObject.GameObject.get\lLabel">
<polygon fill="white" stroke="black" points="1720,-147 1720,-177 1912,-177 1912,-147 1720,-147"/>
<text text-anchor="start" x="1728" y="-165" font-family="Helvetica,sans-Serif" font-size="10.00">engine.gameObject.GameObject.get</text>
<text text-anchor="middle" x="1816" y="-154" font-family="Helvetica,sans-Serif" font-size="10.00">Label</text>
</a>
</g>
</g>
<!-- Node35&#45;&gt;Node36 -->
<g id="edge38" class="edge"><title>Node35&#45;&gt;Node36</title>
<path fill="none" stroke="midnightblue" d="M1661.24,-155.344C1676.77,-156.016 1693.35,-156.734 1709.65,-157.439"/>
<polygon fill="midnightblue" stroke="midnightblue" points="1709.61,-160.941 1719.75,-157.877 1709.91,-153.947 1709.61,-160.941"/>
</g>
</g>
</svg>
