<?xml version="1.0" encoding="UTF-8" standalone="no"?>
<!DOCTYPE svg PUBLIC "-//W3C//DTD SVG 1.1//EN"
 "http://www.w3.org/Graphics/SVG/1.1/DTD/svg11.dtd">
<!-- Generated by graphviz version 2.36.0 (20140111.2315)
 -->
<!-- Title: engine.actions.DeleteInteractingObjectsAction.execute Pages: 1 -->
<svg width="384pt" height="136pt"
 viewBox="0.00 0.00 384.00 136.00" xmlns="http://www.w3.org/2000/svg" xmlns:xlink="http://www.w3.org/1999/xlink">
<g id="graph0" class="graph" transform="scale(1 1) rotate(0) translate(4 132)">
<title>engine.actions.DeleteInteractingObjectsAction.execute</title>
<polygon fill="white" stroke="none" points="-4,4 -4,-132 380,-132 380,4 -4,4"/>
<!-- Node1 -->
<g id="node1" class="node"><title>Node1</title>
<polygon fill="#bfbfbf" stroke="black" points="0,-49 0,-79 172,-79 172,-49 0,-49"/>
<text text-anchor="start" x="8" y="-67" font-family="Helvetica,sans-Serif" font-size="10.00">engine.actions.DeleteInteracting</text>
<text text-anchor="middle" x="86" y="-56" font-family="Helvetica,sans-Serif" font-size="10.00">ObjectsAction.execute</text>
</g>
<!-- Node2 -->
<g id="node2" class="node"><title>Node2</title>
<g id="a_node2"><a xlink:href="../../df/d84/classengine_1_1level_1_1_level.html#ac927326f1a3d7e17b5d577c336a5cfc1" target="_top" xlink:title="engine.level.Level.getGame\lObjectsCollection">
<polygon fill="white" stroke="black" points="217.5,-98 217.5,-128 366.5,-128 366.5,-98 217.5,-98"/>
<text text-anchor="start" x="225.5" y="-116" font-family="Helvetica,sans-Serif" font-size="10.00">engine.level.Level.getGame</text>
<text text-anchor="middle" x="292" y="-105" font-family="Helvetica,sans-Serif" font-size="10.00">ObjectsCollection</text>
</a>
</g>
</g>
<!-- Node1&#45;&gt;Node2 -->
<g id="edge1" class="edge"><title>Node1&#45;&gt;Node2</title>
<path fill="none" stroke="midnightblue" d="M149.593,-79.0346C171.426,-84.2789 196.106,-90.2069 218.666,-95.6255"/>
<polygon fill="midnightblue" stroke="midnightblue" points="217.984,-99.0614 228.525,-97.9938 219.619,-92.255 217.984,-99.0614"/>
</g>
<!-- Node3 -->
<g id="node3" class="node"><title>Node3</title>
<g id="a_node3"><a xlink:href="../../d4/d3b/classauthoring_1_1model_1_1collections_1_1_general_collection.html#a79482ff667a22bb0d5b702c03261fe8d" target="_top" xlink:title="authoring.model.collections.\lGeneralCollection.iterator">
<polygon fill="white" stroke="black" points="216,-49 216,-79 368,-79 368,-49 216,-49"/>
<text text-anchor="start" x="224" y="-67" font-family="Helvetica,sans-Serif" font-size="10.00">authoring.model.collections.</text>
<text text-anchor="middle" x="292" y="-56" font-family="Helvetica,sans-Serif" font-size="10.00">GeneralCollection.iterator</text>
</a>
</g>
</g>
<!-- Node1&#45;&gt;Node3 -->
<g id="edge2" class="edge"><title>Node1&#45;&gt;Node3</title>
<path fill="none" stroke="midnightblue" d="M172.037,-64C183.17,-64 194.58,-64 205.716,-64"/>
<polygon fill="midnightblue" stroke="midnightblue" points="205.851,-67.5001 215.851,-64 205.851,-60.5001 205.851,-67.5001"/>
</g>
<!-- Node4 -->
<g id="node4" class="node"><title>Node4</title>
<g id="a_node4"><a xlink:href="../../dd/d8d/classengine_1_1render_1_1_renderer.html#a980236dc1412ddf1c0623ab38392bac7" target="_top" xlink:title="engine.render.Renderer.remove\lRenderedNode">
<polygon fill="white" stroke="black" points="208.5,-0 208.5,-30 375.5,-30 375.5,-0 208.5,-0"/>
<text text-anchor="start" x="216.5" y="-18" font-family="Helvetica,sans-Serif" font-size="10.00">engine.render.Renderer.remove</text>
<text text-anchor="middle" x="292" y="-7" font-family="Helvetica,sans-Serif" font-size="10.00">RenderedNode</text>
</a>
</g>
</g>
<!-- Node1&#45;&gt;Node4 -->
<g id="edge3" class="edge"><title>Node1&#45;&gt;Node4</title>
<path fill="none" stroke="midnightblue" d="M149.593,-48.9654C171.426,-43.7211 196.106,-37.7931 218.666,-32.3745"/>
<polygon fill="midnightblue" stroke="midnightblue" points="219.619,-35.745 228.525,-30.0062 217.984,-28.9386 219.619,-35.745"/>
</g>
</g>
</svg>
