<?xml version="1.0" encoding="UTF-8" standalone="no"?>
<!DOCTYPE svg PUBLIC "-//W3C//DTD SVG 1.1//EN"
 "http://www.w3.org/Graphics/SVG/1.1/DTD/svg11.dtd">
<!-- Generated by graphviz version 2.36.0 (20140111.2315)
 -->
<!-- Title: engine.actions.ProgressAction Pages: 1 -->
<svg width="1836pt" height="592pt"
 viewBox="0.00 0.00 1836.00 592.02" xmlns="http://www.w3.org/2000/svg" xmlns:xlink="http://www.w3.org/1999/xlink">
<g id="graph0" class="graph" transform="scale(1 1) rotate(0) translate(4 588.019)">
<title>engine.actions.ProgressAction</title>
<polygon fill="white" stroke="none" points="-4,4 -4,-588.019 1832,-588.019 1832,4 -4,4"/>
<!-- Node1 -->
<g id="node1" class="node"><title>Node1</title>
<polygon fill="#bfbfbf" stroke="black" points="1666.5,-425.519 1666.5,-444.519 1827.5,-444.519 1827.5,-425.519 1666.5,-425.519"/>
<text text-anchor="middle" x="1747" y="-432.519" font-family="Helvetica,sans-Serif" font-size="10.00">engine.actions.ProgressAction</text>
</g>
<!-- Node2 -->
<g id="node2" class="node"><title>Node2</title>
<g id="a_node2"><a xlink:href="../../d9/dd2/interfaceengine_1_1actions_1_1_action.html" target="_top" xlink:title="engine.actions.Action">
<polygon fill="white" stroke="black" points="1418.5,-488.519 1418.5,-507.519 1537.5,-507.519 1537.5,-488.519 1418.5,-488.519"/>
<text text-anchor="middle" x="1478" y="-495.519" font-family="Helvetica,sans-Serif" font-size="10.00">engine.actions.Action</text>
</a>
</g>
</g>
<!-- Node2&#45;&gt;Node1 -->
<g id="edge1" class="edge"><title>Node2&#45;&gt;Node1</title>
<path fill="none" stroke="midnightblue" d="M1529.38,-486.131C1580.41,-474.091 1658.35,-455.701 1705.51,-444.574"/>
<polygon fill="midnightblue" stroke="midnightblue" points="1528.48,-482.748 1519.55,-488.451 1530.09,-489.56 1528.48,-482.748"/>
</g>
<!-- Node3 -->
<g id="node3" class="node"><title>Node3</title>
<g id="a_node3"><a xlink:href="../../d2/d15/interfaceengine_1_1actions_1_1_initializable.html" target="_top" xlink:title="engine.actions.Initializable">
<polygon fill="white" stroke="black" points="1142,-564.519 1142,-583.519 1284,-583.519 1284,-564.519 1142,-564.519"/>
<text text-anchor="middle" x="1213" y="-571.519" font-family="Helvetica,sans-Serif" font-size="10.00">engine.actions.Initializable</text>
</a>
</g>
</g>
<!-- Node3&#45;&gt;Node1 -->
<g id="edge3" class="edge"><title>Node3&#45;&gt;Node1</title>
<path fill="none" stroke="midnightblue" d="M1294.72,-574.734C1327.05,-573.812 1364.51,-571.213 1398,-565.019 1512.98,-543.75 1539.68,-527.065 1648,-483.019 1676.78,-471.316 1708.91,-454.908 1728.28,-444.627"/>
<polygon fill="midnightblue" stroke="midnightblue" points="1294.32,-571.242 1284.41,-574.977 1294.49,-578.24 1294.32,-571.242"/>
</g>
<!-- Node3&#45;&gt;Node2 -->
<g id="edge2" class="edge"><title>Node3&#45;&gt;Node2</title>
<path fill="none" stroke="midnightblue" d="M1294.37,-565.314C1327.13,-560.307 1364.98,-552.624 1398,-541.019 1422.01,-532.58 1447.47,-517.455 1462.8,-507.579"/>
<polygon fill="midnightblue" stroke="midnightblue" points="1293.77,-561.866 1284.38,-566.783 1294.79,-568.791 1293.77,-561.866"/>
</g>
<!-- Node4 -->
<g id="node4" class="node"><title>Node4</title>
<g id="a_node4"><a xlink:href="../../d6/d94/classengine_1_1_game_manager.html" target="_top" xlink:title="engine.GameManager">
<polygon fill="white" stroke="black" points="1416.5,-382.519 1416.5,-401.519 1539.5,-401.519 1539.5,-382.519 1416.5,-382.519"/>
<text text-anchor="middle" x="1478" y="-389.519" font-family="Helvetica,sans-Serif" font-size="10.00">engine.GameManager</text>
</a>
</g>
</g>
<!-- Node4&#45;&gt;Node1 -->
<g id="edge4" class="edge"><title>Node4&#45;&gt;Node1</title>
<path fill="none" stroke="#9a32cd" stroke-dasharray="5,2" d="M1548.36,-403.189C1591.35,-410.113 1645.98,-418.912 1686.91,-425.503"/>
<polygon fill="#9a32cd" stroke="#9a32cd" points="1548.69,-399.697 1538.26,-401.562 1547.57,-406.608 1548.69,-399.697"/>
<text text-anchor="middle" x="1603" y="-422.019" font-family="Helvetica,sans-Serif" font-size="10.00"> myGameManager</text>
</g>
<!-- Node5 -->
<g id="node5" class="node"><title>Node5</title>
<g id="a_node5"><a xlink:href="../../df/de5/classauthoring_1_1model_1_1collections_1_1_levels_collection.html" target="_top" xlink:title="authoring.model.collections.\lLevelsCollection">
<polygon fill="white" stroke="black" points="570,-492.019 570,-522.019 722,-522.019 722,-492.019 570,-492.019"/>
<text text-anchor="start" x="578" y="-510.019" font-family="Helvetica,sans-Serif" font-size="10.00">authoring.model.collections.</text>
<text text-anchor="middle" x="646" y="-499.019" font-family="Helvetica,sans-Serif" font-size="10.00">LevelsCollection</text>
</a>
</g>
</g>
<!-- Node5&#45;&gt;Node4 -->
<g id="edge5" class="edge"><title>Node5&#45;&gt;Node4</title>
<path fill="none" stroke="#9a32cd" stroke-dasharray="5,2" d="M732.28,-516.461C904.547,-533.901 1287.07,-563.877 1398,-500.019 1403.23,-497.006 1452.12,-427.592 1470.26,-401.668"/>
<polygon fill="#9a32cd" stroke="#9a32cd" points="732.543,-512.969 722.239,-515.434 731.831,-519.933 732.543,-512.969"/>
<text text-anchor="middle" x="1074" y="-541.019" font-family="Helvetica,sans-Serif" font-size="10.00"> myLevels</text>
</g>
<!-- Node7 -->
<g id="node7" class="node"><title>Node7</title>
<g id="a_node7"><a xlink:href="../../df/d67/classengine_1_1level_1_1_level_manager.html" target="_top" xlink:title="engine.level.LevelManager">
<polygon fill="white" stroke="black" points="1141.5,-278.519 1141.5,-297.519 1284.5,-297.519 1284.5,-278.519 1141.5,-278.519"/>
<text text-anchor="middle" x="1213" y="-285.519" font-family="Helvetica,sans-Serif" font-size="10.00">engine.level.LevelManager</text>
</a>
</g>
</g>
<!-- Node5&#45;&gt;Node7 -->
<g id="edge9" class="edge"><title>Node5&#45;&gt;Node7</title>
<path fill="none" stroke="#9a32cd" stroke-dasharray="5,2" d="M732.597,-504.896C767.991,-502.791 809.263,-498.739 846,-491.019 924.267,-474.571 945.204,-469.223 1016,-432.019 1093,-391.556 1172.99,-322.97 1201.3,-297.722"/>
<polygon fill="#9a32cd" stroke="#9a32cd" points="732.089,-501.419 722.297,-505.465 732.475,-508.408 732.089,-501.419"/>
<text text-anchor="middle" x="940" y="-489.019" font-family="Helvetica,sans-Serif" font-size="10.00"> myLevels</text>
</g>
<!-- Node23 -->
<g id="node23" class="node"><title>Node23</title>
<g id="a_node23"><a xlink:href="../../da/d90/classengine_1_1sound_1_1_sound_utility.html" target="_top" xlink:title="engine.sound.SoundUtility">
<polygon fill="white" stroke="black" points="869,-403.519 869,-422.519 1011,-422.519 1011,-403.519 869,-403.519"/>
<text text-anchor="middle" x="940" y="-410.519" font-family="Helvetica,sans-Serif" font-size="10.00">engine.sound.SoundUtility</text>
</a>
</g>
</g>
<!-- Node5&#45;&gt;Node23 -->
<g id="edge27" class="edge"><title>Node5&#45;&gt;Node23</title>
<path fill="none" stroke="#9a32cd" stroke-dasharray="5,2" d="M711.901,-489.354C723.888,-486.181 736.309,-482.953 748,-480.019 791.394,-469.129 803.766,-471.779 846,-457.019 873.316,-447.472 903.302,-432.388 921.64,-422.598"/>
<polygon fill="#9a32cd" stroke="#9a32cd" points="710.724,-486.045 701.96,-491.999 712.524,-492.81 710.724,-486.045"/>
<text text-anchor="middle" x="797" y="-483.019" font-family="Helvetica,sans-Serif" font-size="10.00"> myLevels</text>
</g>
<!-- Node6 -->
<g id="node6" class="node"><title>Node6</title>
<g id="a_node6"><a xlink:href="../../d4/d3b/classauthoring_1_1model_1_1collections_1_1_general_collection.html" target="_top" xlink:title="authoring.model.collections.\lGeneralCollection\&lt; Level \&gt;">
<polygon fill="white" stroke="black" points="249,-492.019 249,-522.019 401,-522.019 401,-492.019 249,-492.019"/>
<text text-anchor="start" x="257" y="-510.019" font-family="Helvetica,sans-Serif" font-size="10.00">authoring.model.collections.</text>
<text text-anchor="middle" x="325" y="-499.019" font-family="Helvetica,sans-Serif" font-size="10.00">GeneralCollection&lt; Level &gt;</text>
</a>
</g>
</g>
<!-- Node6&#45;&gt;Node5 -->
<g id="edge6" class="edge"><title>Node6&#45;&gt;Node5</title>
<path fill="none" stroke="midnightblue" d="M411.216,-507.019C460.588,-507.019 522.186,-507.019 569.758,-507.019"/>
<polygon fill="midnightblue" stroke="midnightblue" points="411.195,-503.519 401.195,-507.019 411.195,-510.519 411.195,-503.519"/>
</g>
<!-- Node7&#45;&gt;Node4 -->
<g id="edge7" class="edge"><title>Node7&#45;&gt;Node4</title>
<path fill="none" stroke="#9a32cd" stroke-dasharray="5,2" d="M1267.74,-300.079C1305.17,-309.435 1355.76,-324.011 1398,-343.019 1422.58,-354.078 1448.71,-371.561 1463.91,-382.38"/>
<polygon fill="#9a32cd" stroke="#9a32cd" points="1268.09,-296.562 1257.55,-297.579 1266.42,-303.361 1268.09,-296.562"/>
<text text-anchor="middle" x="1355" y="-346.019" font-family="Helvetica,sans-Serif" font-size="10.00"> myLevelManager</text>
</g>
<!-- Node8 -->
<g id="node8" class="node"><title>Node8</title>
<polygon fill="white" stroke="#bfbfbf" points="890,-215.519 890,-234.519 990,-234.519 990,-215.519 890,-215.519"/>
<text text-anchor="middle" x="940" y="-222.519" font-family="Helvetica,sans-Serif" font-size="10.00">Iterable&lt; Level &gt;</text>
</g>
<!-- Node8&#45;&gt;Node7 -->
<g id="edge8" class="edge"><title>Node8&#45;&gt;Node7</title>
<path fill="none" stroke="midnightblue" d="M1000.3,-234.126C1033.88,-239.747 1076.54,-247.666 1114,-257.019 1138.24,-263.07 1165.28,-271.774 1184.8,-278.419"/>
<polygon fill="midnightblue" stroke="midnightblue" points="1000.63,-230.632 990.19,-232.457 999.486,-237.539 1000.63,-230.632"/>
</g>
<!-- Node9 -->
<g id="node9" class="node"><title>Node9</title>
<g id="a_node9"><a xlink:href="../../dd/d8d/classengine_1_1render_1_1_renderer.html" target="_top" xlink:title="engine.render.Renderer">
<polygon fill="white" stroke="black" points="876,-300.519 876,-319.519 1004,-319.519 1004,-300.519 876,-300.519"/>
<text text-anchor="middle" x="940" y="-307.519" font-family="Helvetica,sans-Serif" font-size="10.00">engine.render.Renderer</text>
</a>
</g>
</g>
<!-- Node9&#45;&gt;Node4 -->
<g id="edge34" class="edge"><title>Node9&#45;&gt;Node4</title>
<path fill="none" stroke="#9a32cd" stroke-dasharray="5,2" d="M965.582,-324.627C983.812,-334.708 1009.62,-347.437 1034,-354.019 1104.42,-373.036 1312.32,-384.685 1416.32,-389.48"/>
<polygon fill="#9a32cd" stroke="#9a32cd" points="967.213,-321.529 956.787,-319.644 963.762,-327.619 967.213,-321.529"/>
<text text-anchor="middle" x="1213" y="-386.019" font-family="Helvetica,sans-Serif" font-size="10.00"> myGameObjectRenderer</text>
</g>
<!-- Node9&#45;&gt;Node7 -->
<g id="edge10" class="edge"><title>Node9&#45;&gt;Node7</title>
<path fill="none" stroke="#9a32cd" stroke-dasharray="5,2" d="M1014.27,-304.071C1053.66,-300.873 1102.03,-296.947 1141.06,-293.778"/>
<polygon fill="#9a32cd" stroke="#9a32cd" points="1013.88,-300.591 1004.2,-304.889 1014.45,-307.568 1013.88,-300.591"/>
<text text-anchor="middle" x="1074" y="-306.019" font-family="Helvetica,sans-Serif" font-size="10.00"> myRenderer</text>
</g>
<!-- Node10 -->
<g id="node10" class="node"><title>Node10</title>
<polygon fill="white" stroke="#bfbfbf" points="564,-270.019 564,-300.019 728,-300.019 728,-270.019 564,-270.019"/>
<text text-anchor="start" x="572" y="-288.019" font-family="Helvetica,sans-Serif" font-size="10.00">Map&lt; Identifier, engine.render.</text>
<text text-anchor="middle" x="646" y="-277.019" font-family="Helvetica,sans-Serif" font-size="10.00">RenderedNode &gt;</text>
</g>
<!-- Node10&#45;&gt;Node9 -->
<g id="edge11" class="edge"><title>Node10&#45;&gt;Node9</title>
<path fill="none" stroke="#9a32cd" stroke-dasharray="5,2" d="M738.317,-292.837C782.939,-296.658 835.527,-301.16 875.674,-304.597"/>
<polygon fill="#9a32cd" stroke="#9a32cd" points="738.6,-289.349 728.338,-291.983 738.003,-296.323 738.6,-289.349"/>
<text text-anchor="middle" x="797" y="-305.019" font-family="Helvetica,sans-Serif" font-size="10.00"> myRenderedNodes</text>
</g>
<!-- Node11 -->
<g id="node11" class="node"><title>Node11</title>
<g id="a_node11"><a xlink:href="../../d5/d30/classengine_1_1render_1_1_rendered_node_factory.html" target="_top" xlink:title="engine.render.RenderedNode\lFactory">
<polygon fill="white" stroke="black" points="568,-319.019 568,-349.019 724,-349.019 724,-319.019 568,-319.019"/>
<text text-anchor="start" x="576" y="-337.019" font-family="Helvetica,sans-Serif" font-size="10.00">engine.render.RenderedNode</text>
<text text-anchor="middle" x="646" y="-326.019" font-family="Helvetica,sans-Serif" font-size="10.00">Factory</text>
</a>
</g>
</g>
<!-- Node11&#45;&gt;Node9 -->
<g id="edge12" class="edge"><title>Node11&#45;&gt;Node9</title>
<path fill="none" stroke="#9a32cd" stroke-dasharray="5,2" d="M734.247,-330.046C769.054,-328.125 809.463,-325.474 846,-322.019 855.643,-321.107 865.828,-319.971 875.781,-318.764"/>
<polygon fill="#9a32cd" stroke="#9a32cd" points="733.909,-326.559 724.113,-330.594 734.287,-333.549 733.909,-326.559"/>
<text text-anchor="middle" x="797" y="-333.019" font-family="Helvetica,sans-Serif" font-size="10.00"> myFactory</text>
</g>
<!-- Node12 -->
<g id="node12" class="node"><title>Node12</title>
<g id="a_node12"><a xlink:href="../../d9/db5/classengine_1_1_file_path_utility.html" target="_top" xlink:title="engine.FilePathUtility">
<polygon fill="white" stroke="black" points="267.5,-392.519 267.5,-411.519 382.5,-411.519 382.5,-392.519 267.5,-392.519"/>
<text text-anchor="middle" x="325" y="-399.519" font-family="Helvetica,sans-Serif" font-size="10.00">engine.FilePathUtility</text>
</a>
</g>
</g>
<!-- Node12&#45;&gt;Node11 -->
<g id="edge13" class="edge"><title>Node12&#45;&gt;Node11</title>
<path fill="none" stroke="#9a32cd" stroke-dasharray="5,2" d="M380.68,-390.363C434.239,-378.946 516.096,-361.497 574.515,-349.044"/>
<polygon fill="#9a32cd" stroke="#9a32cd" points="379.742,-386.984 370.691,-392.492 381.201,-393.83 379.742,-386.984"/>
<text text-anchor="middle" x="485" y="-384.019" font-family="Helvetica,sans-Serif" font-size="10.00"> myFilePathUtility</text>
</g>
<!-- Node12&#45;&gt;Node23 -->
<g id="edge30" class="edge"><title>Node12&#45;&gt;Node23</title>
<path fill="none" stroke="#9a32cd" stroke-dasharray="5,2" d="M392.794,-403.218C509.496,-405.312 749.422,-409.617 868.606,-411.756"/>
<polygon fill="#9a32cd" stroke="#9a32cd" points="392.632,-399.714 382.571,-403.034 392.506,-406.713 392.632,-399.714"/>
<text text-anchor="middle" x="646" y="-413.019" font-family="Helvetica,sans-Serif" font-size="10.00"> myFilePathUtility</text>
</g>
<!-- Node13 -->
<g id="node13" class="node"><title>Node13</title>
<g id="a_node13"><a xlink:href="../../df/d84/classengine_1_1level_1_1_level.html" target="_top" xlink:title="engine.level.Level">
<polygon fill="white" stroke="black" points="595.5,-231.519 595.5,-250.519 696.5,-250.519 696.5,-231.519 595.5,-231.519"/>
<text text-anchor="middle" x="646" y="-238.519" font-family="Helvetica,sans-Serif" font-size="10.00">engine.level.Level</text>
</a>
</g>
</g>
<!-- Node13&#45;&gt;Node7 -->
<g id="edge25" class="edge"><title>Node13&#45;&gt;Node7</title>
<path fill="none" stroke="#9a32cd" stroke-dasharray="5,2" d="M706.892,-245.767C746.399,-248.916 799.289,-253.163 846,-257.019 948.638,-265.492 1067.44,-275.612 1141.16,-281.929"/>
<polygon fill="#9a32cd" stroke="#9a32cd" points="707.138,-242.276 696.892,-244.971 706.583,-249.254 707.138,-242.276"/>
<text text-anchor="middle" x="940" y="-275.019" font-family="Helvetica,sans-Serif" font-size="10.00"> myCurrentLevel</text>
</g>
<!-- Node13&#45;&gt;Node9 -->
<g id="edge14" class="edge"><title>Node13&#45;&gt;Node9</title>
<path fill="none" stroke="#9a32cd" stroke-dasharray="5,2" d="M706.748,-249.512C746.619,-255.889 799.975,-265.795 846,-279.019 854.25,-281.389 855.909,-283.154 864,-286.019 878.305,-291.084 894.305,-296.269 907.841,-300.517"/>
<polygon fill="#9a32cd" stroke="#9a32cd" points="707.078,-246.021 696.656,-247.927 705.992,-252.936 707.078,-246.021"/>
<text text-anchor="middle" x="797" y="-282.019" font-family="Helvetica,sans-Serif" font-size="10.00"> myCurrentLevel</text>
</g>
<!-- Node14 -->
<g id="node14" class="node"><title>Node14</title>
<g id="a_node14"><a xlink:href="../../d3/d8d/classdata_1_1_observable.html" target="_top" xlink:title="data.Observable">
<polygon fill="white" stroke="black" points="277.5,-187.519 277.5,-206.519 372.5,-206.519 372.5,-187.519 277.5,-187.519"/>
<text text-anchor="middle" x="325" y="-194.519" font-family="Helvetica,sans-Serif" font-size="10.00">data.Observable</text>
</a>
</g>
</g>
<!-- Node14&#45;&gt;Node13 -->
<g id="edge15" class="edge"><title>Node14&#45;&gt;Node13</title>
<path fill="none" stroke="midnightblue" d="M382.85,-204.86C443.23,-213.189 537.733,-226.224 595.257,-234.158"/>
<polygon fill="midnightblue" stroke="midnightblue" points="383.111,-201.363 372.727,-203.464 382.155,-208.298 383.111,-201.363"/>
</g>
<!-- Node15 -->
<g id="node15" class="node"><title>Node15</title>
<polygon fill="white" stroke="#bfbfbf" points="23,-187.519 23,-206.519 161,-206.519 161,-187.519 23,-187.519"/>
<text text-anchor="middle" x="92" y="-194.519" font-family="Helvetica,sans-Serif" font-size="10.00">Vector&lt; data.Observer &gt;</text>
</g>
<!-- Node15&#45;&gt;Node14 -->
<g id="edge16" class="edge"><title>Node15&#45;&gt;Node14</title>
<path fill="none" stroke="#9a32cd" stroke-dasharray="5,2" d="M171.318,-197.019C206.521,-197.019 246.882,-197.019 277.262,-197.019"/>
<polygon fill="#9a32cd" stroke="#9a32cd" points="171.058,-193.519 161.058,-197.019 171.058,-200.519 171.058,-193.519"/>
<text text-anchor="middle" x="213" y="-200.019" font-family="Helvetica,sans-Serif" font-size="10.00"> obs</text>
</g>
<!-- Node16 -->
<g id="node16" class="node"><title>Node16</title>
<g id="a_node16"><a xlink:href="../../dc/df6/interfaceengine_1_1game_object_1_1_identifiable.html" target="_top" xlink:title="engine.gameObject.Identifiable">
<polygon fill="white" stroke="black" points="242.5,-313.519 242.5,-332.519 407.5,-332.519 407.5,-313.519 242.5,-313.519"/>
<text text-anchor="middle" x="325" y="-320.519" font-family="Helvetica,sans-Serif" font-size="10.00">engine.gameObject.Identifiable</text>
</a>
</g>
</g>
<!-- Node16&#45;&gt;Node13 -->
<g id="edge17" class="edge"><title>Node16&#45;&gt;Node13</title>
<path fill="none" stroke="midnightblue" d="M417.873,-328.488C459.589,-326.669 507.618,-318.129 544,-293.019 557.75,-283.529 548.682,-270.106 562,-260.019 571.663,-252.7 583.651,-248.12 595.484,-245.276"/>
<polygon fill="midnightblue" stroke="midnightblue" points="417.579,-324.995 407.693,-328.806 417.798,-331.992 417.579,-324.995"/>
</g>
<!-- Node17 -->
<g id="node17" class="node"><title>Node17</title>
<g id="a_node17"><a xlink:href="../../d4/dac/classengine_1_1game_object_1_1_identifier.html" target="_top" xlink:title="engine.gameObject.Identifier">
<polygon fill="white" stroke="black" points="247.5,-275.519 247.5,-294.519 402.5,-294.519 402.5,-275.519 247.5,-275.519"/>
<text text-anchor="middle" x="325" y="-282.519" font-family="Helvetica,sans-Serif" font-size="10.00">engine.gameObject.Identifier</text>
</a>
</g>
</g>
<!-- Node17&#45;&gt;Node13 -->
<g id="edge18" class="edge"><title>Node17&#45;&gt;Node13</title>
<path fill="none" stroke="#9a32cd" stroke-dasharray="5,2" d="M412.742,-279.224C452.841,-275.89 501.004,-270.956 544,-264.019 545.57,-263.766 576.262,-256.765 603.402,-250.554"/>
<polygon fill="#9a32cd" stroke="#9a32cd" points="412.413,-275.739 402.729,-280.037 412.98,-282.716 412.413,-275.739"/>
<text text-anchor="middle" x="485" y="-281.019" font-family="Helvetica,sans-Serif" font-size="10.00"> myId</text>
</g>
<!-- Node18 -->
<g id="node18" class="node"><title>Node18</title>
<polygon fill="white" stroke="#bfbfbf" points="64,-275.519 64,-294.519 120,-294.519 120,-275.519 64,-275.519"/>
<text text-anchor="middle" x="92" y="-282.519" font-family="Helvetica,sans-Serif" font-size="10.00">Random</text>
</g>
<!-- Node18&#45;&gt;Node17 -->
<g id="edge19" class="edge"><title>Node18&#45;&gt;Node17</title>
<path fill="none" stroke="#9a32cd" stroke-dasharray="5,2" d="M130.511,-285.019C162.046,-285.019 208.136,-285.019 247.423,-285.019"/>
<polygon fill="#9a32cd" stroke="#9a32cd" points="130.406,-281.519 120.406,-285.019 130.406,-288.519 130.406,-281.519"/>
<text text-anchor="middle" x="213" y="-288.019" font-family="Helvetica,sans-Serif" font-size="10.00"> r</text>
</g>
<!-- Node19 -->
<g id="node19" class="node"><title>Node19</title>
<g id="a_node19"><a xlink:href="../../d1/d32/classauthoring_1_1model_1_1collections_1_1_game_objects_collection.html" target="_top" xlink:title="authoring.model.collections.\lGameObjectsCollection">
<polygon fill="white" stroke="black" points="249,-123.019 249,-153.019 401,-153.019 401,-123.019 249,-123.019"/>
<text text-anchor="start" x="257" y="-141.019" font-family="Helvetica,sans-Serif" font-size="10.00">authoring.model.collections.</text>
<text text-anchor="middle" x="325" y="-130.019" font-family="Helvetica,sans-Serif" font-size="10.00">GameObjectsCollection</text>
</a>
</g>
</g>
<!-- Node19&#45;&gt;Node4 -->
<g id="edge35" class="edge"><title>Node19&#45;&gt;Node4</title>
<path fill="none" stroke="#9a32cd" stroke-dasharray="5,2" d="M367.252,-118.722C427.083,-92.5478 542.061,-49.0189 645,-49.0189 645,-49.0189 645,-49.0189 1214,-49.0189 1298.4,-49.0189 1340.84,-33.9194 1398,-96.0189 1426.81,-127.315 1405.84,-148.714 1416,-190.019 1434.47,-265.078 1463.93,-353.633 1473.72,-382.446"/>
<polygon fill="#9a32cd" stroke="#9a32cd" points="365.506,-115.667 357.784,-122.921 368.344,-122.066 365.506,-115.667"/>
<text text-anchor="middle" x="940" y="-52.0189" font-family="Helvetica,sans-Serif" font-size="10.00"> myGameObjects</text>
</g>
<!-- Node19&#45;&gt;Node7 -->
<g id="edge24" class="edge"><title>Node19&#45;&gt;Node7</title>
<path fill="none" stroke="#9a32cd" stroke-dasharray="5,2" d="M411.07,-138.222C542.747,-140.353 802.962,-151.837 1016,-206.019 1060.27,-217.279 1071.8,-219.52 1114,-237.019 1143.76,-249.362 1176.67,-267.469 1195.77,-278.458"/>
<polygon fill="#9a32cd" stroke="#9a32cd" points="411.094,-134.722 401.043,-138.074 410.99,-141.721 411.094,-134.722"/>
<text text-anchor="middle" x="797" y="-186.019" font-family="Helvetica,sans-Serif" font-size="10.00"> myTemplateObjects</text>
<text text-anchor="middle" x="797" y="-175.019" font-family="Helvetica,sans-Serif" font-size="10.00">myGameObjects</text>
</g>
<!-- Node19&#45;&gt;Node13 -->
<g id="edge20" class="edge"><title>Node19&#45;&gt;Node13</title>
<path fill="none" stroke="#9a32cd" stroke-dasharray="5,2" d="M411.23,-150.714C462.448,-159.499 521.861,-172.085 544,-186.019 554.986,-192.933 551.568,-201.294 562,-209.019 575.529,-219.036 592.584,-226.324 607.71,-231.392"/>
<polygon fill="#9a32cd" stroke="#9a32cd" points="411.551,-147.219 401.109,-149.008 410.388,-154.121 411.551,-147.219"/>
<text text-anchor="middle" x="485" y="-200.019" font-family="Helvetica,sans-Serif" font-size="10.00"> myDefaultGameObjects</text>
<text text-anchor="middle" x="485" y="-189.019" font-family="Helvetica,sans-Serif" font-size="10.00">myWorkingGameObjects</text>
</g>
<!-- Node20 -->
<g id="node20" class="node"><title>Node20</title>
<g id="a_node20"><a xlink:href="../../d4/d3b/classauthoring_1_1model_1_1collections_1_1_general_collection.html" target="_top" xlink:title="authoring.model.collections.\lGeneralCollection\&lt; GameObject \&gt;">
<polygon fill="white" stroke="black" points="0.5,-123.019 0.5,-153.019 183.5,-153.019 183.5,-123.019 0.5,-123.019"/>
<text text-anchor="start" x="8.5" y="-141.019" font-family="Helvetica,sans-Serif" font-size="10.00">authoring.model.collections.</text>
<text text-anchor="middle" x="92" y="-130.019" font-family="Helvetica,sans-Serif" font-size="10.00">GeneralCollection&lt; GameObject &gt;</text>
</a>
</g>
</g>
<!-- Node20&#45;&gt;Node19 -->
<g id="edge21" class="edge"><title>Node20&#45;&gt;Node19</title>
<path fill="none" stroke="midnightblue" d="M193.843,-138.019C212.335,-138.019 231.337,-138.019 248.91,-138.019"/>
<polygon fill="midnightblue" stroke="midnightblue" points="193.634,-134.519 183.634,-138.019 193.634,-141.519 193.634,-134.519"/>
</g>
<!-- Node21 -->
<g id="node21" class="node"><title>Node21</title>
<polygon fill="white" stroke="#bfbfbf" points="254.5,-226.019 254.5,-256.019 395.5,-256.019 395.5,-226.019 254.5,-226.019"/>
<text text-anchor="start" x="262.5" y="-244.019" font-family="Helvetica,sans-Serif" font-size="10.00">List&lt; engine.gameObject.</text>
<text text-anchor="middle" x="325" y="-233.019" font-family="Helvetica,sans-Serif" font-size="10.00">Identifier &gt;</text>
</g>
<!-- Node21&#45;&gt;Node13 -->
<g id="edge22" class="edge"><title>Node21&#45;&gt;Node13</title>
<path fill="none" stroke="#9a32cd" stroke-dasharray="5,2" d="M405.726,-241.019C465.211,-241.019 544.633,-241.019 595.312,-241.019"/>
<polygon fill="#9a32cd" stroke="#9a32cd" points="405.612,-237.519 395.612,-241.019 405.612,-244.519 405.612,-237.519"/>
<text text-anchor="middle" x="485" y="-255.019" font-family="Helvetica,sans-Serif" font-size="10.00"> myConditionIdList</text>
<text text-anchor="middle" x="485" y="-244.019" font-family="Helvetica,sans-Serif" font-size="10.00">myGameObjectIdList</text>
</g>
<!-- Node22 -->
<g id="node22" class="node"><title>Node22</title>
<polygon fill="white" stroke="#bfbfbf" points="623,-180.519 623,-199.519 669,-199.519 669,-180.519 623,-180.519"/>
<text text-anchor="middle" x="646" y="-187.519" font-family="Helvetica,sans-Serif" font-size="10.00">Group</text>
</g>
<!-- Node22&#45;&gt;Node4 -->
<g id="edge37" class="edge"><title>Node22&#45;&gt;Node4</title>
<path fill="none" stroke="#9a32cd" stroke-dasharray="5,2" d="M679.151,-190.436C718.506,-191.038 787.177,-192.378 846,-195.019 1047.61,-204.071 1101.25,-209.22 1294,-269.019 1341.3,-283.693 1356.81,-281.523 1398,-309.019 1429.44,-330.005 1457.73,-365.56 1470.22,-382.498"/>
<polygon fill="#9a32cd" stroke="#9a32cd" points="679.146,-186.936 669.096,-190.289 679.043,-193.935 679.146,-186.936"/>
<text text-anchor="middle" x="1074" y="-223.019" font-family="Helvetica,sans-Serif" font-size="10.00"> myRootGroup</text>
</g>
<!-- Node22&#45;&gt;Node9 -->
<g id="edge23" class="edge"><title>Node22&#45;&gt;Node9</title>
<path fill="none" stroke="#9a32cd" stroke-dasharray="5,2" d="M679.243,-189.95C722.318,-191.561 798.69,-200.606 846,-242.019 861.898,-255.935 848.484,-271.677 864,-286.019 870.827,-292.329 879.319,-296.98 888.109,-300.409"/>
<polygon fill="#9a32cd" stroke="#9a32cd" points="679.135,-186.446 669.047,-189.685 678.953,-193.444 679.135,-186.446"/>
<text text-anchor="middle" x="797" y="-245.019" font-family="Helvetica,sans-Serif" font-size="10.00"> myCanvas</text>
</g>
<!-- Node23&#45;&gt;Node4 -->
<g id="edge38" class="edge"><title>Node23&#45;&gt;Node4</title>
<path fill="none" stroke="#9a32cd" stroke-dasharray="5,2" d="M1021.28,-409.874C1129.42,-405.637 1319.49,-398.19 1416.43,-394.392"/>
<polygon fill="#9a32cd" stroke="#9a32cd" points="1020.93,-406.385 1011.07,-410.274 1021.2,-413.379 1020.93,-406.385"/>
<text text-anchor="middle" x="1213" y="-409.019" font-family="Helvetica,sans-Serif" font-size="10.00"> mySoundUtility</text>
</g>
<!-- Node23&#45;&gt;Node7 -->
<g id="edge26" class="edge"><title>Node23&#45;&gt;Node7</title>
<path fill="none" stroke="#9a32cd" stroke-dasharray="5,2" d="M957.618,-396.387C975.189,-379.67 1004.41,-354.257 1034,-339.019 1034.41,-338.806 1127.19,-312.267 1178.61,-297.563"/>
<polygon fill="#9a32cd" stroke="#9a32cd" points="955.143,-393.911 950.405,-403.388 960.018,-398.934 955.143,-393.911"/>
<text text-anchor="middle" x="1074" y="-342.019" font-family="Helvetica,sans-Serif" font-size="10.00"> mySoundPlayer</text>
</g>
<!-- Node24 -->
<g id="node24" class="node"><title>Node24</title>
<polygon fill="white" stroke="#bfbfbf" points="570,-368.519 570,-387.519 722,-387.519 722,-368.519 570,-368.519"/>
<text text-anchor="middle" x="646" y="-375.519" font-family="Helvetica,sans-Serif" font-size="10.00">Map&lt; String, MediaPlayer &gt;</text>
</g>
<!-- Node24&#45;&gt;Node23 -->
<g id="edge28" class="edge"><title>Node24&#45;&gt;Node23</title>
<path fill="none" stroke="#9a32cd" stroke-dasharray="5,2" d="M732.349,-377.631C767.704,-378.569 809.015,-381.092 846,-387.019 868.348,-390.6 892.988,-397.635 911.288,-403.484"/>
<polygon fill="#9a32cd" stroke="#9a32cd" points="732.14,-374.125 722.063,-377.398 731.981,-381.124 732.14,-374.125"/>
<text text-anchor="middle" x="797" y="-390.019" font-family="Helvetica,sans-Serif" font-size="10.00"> myMediaPlayerMap</text>
</g>
<!-- Node25 -->
<g id="node25" class="node"><title>Node25</title>
<polygon fill="white" stroke="#bfbfbf" points="577,-453.519 577,-472.519 715,-472.519 715,-453.519 577,-453.519"/>
<text text-anchor="middle" x="646" y="-460.519" font-family="Helvetica,sans-Serif" font-size="10.00">Map&lt; String, AudioClip &gt;</text>
</g>
<!-- Node25&#45;&gt;Node23 -->
<g id="edge29" class="edge"><title>Node25&#45;&gt;Node23</title>
<path fill="none" stroke="#9a32cd" stroke-dasharray="5,2" d="M712.602,-451.786C763.907,-443.001 834.458,-430.92 883.1,-422.591"/>
<polygon fill="#9a32cd" stroke="#9a32cd" points="711.876,-448.359 702.61,-453.497 713.058,-455.259 711.876,-448.359"/>
<text text-anchor="middle" x="797" y="-449.019" font-family="Helvetica,sans-Serif" font-size="10.00"> myAudioClipMap</text>
</g>
<!-- Node26 -->
<g id="node26" class="node"><title>Node26</title>
<g id="a_node26"><a xlink:href="../../db/d2a/classauthoring_1_1model_1_1collections_1_1_conditions_collection.html" target="_top" xlink:title="authoring.model.collections.\lConditionsCollection">
<polygon fill="white" stroke="black" points="864,-79.0189 864,-109.019 1016,-109.019 1016,-79.0189 864,-79.0189"/>
<text text-anchor="start" x="872" y="-97.0189" font-family="Helvetica,sans-Serif" font-size="10.00">authoring.model.collections.</text>
<text text-anchor="middle" x="940" y="-86.0189" font-family="Helvetica,sans-Serif" font-size="10.00">ConditionsCollection</text>
</a>
</g>
</g>
<!-- Node26&#45;&gt;Node4 -->
<g id="edge39" class="edge"><title>Node26&#45;&gt;Node4</title>
<path fill="none" stroke="#9a32cd" stroke-dasharray="5,2" d="M1026.42,-78.3337C1127.2,-65.0185 1294.14,-59.9553 1398,-147.019 1407.63,-155.094 1461.36,-338.231 1474.23,-382.466"/>
<polygon fill="#9a32cd" stroke="#9a32cd" points="1025.71,-74.8991 1016.28,-79.7314 1026.66,-81.8336 1025.71,-74.8991"/>
<text text-anchor="middle" x="1213" y="-95.0189" font-family="Helvetica,sans-Serif" font-size="10.00"> myGameConditions</text>
</g>
<!-- Node26&#45;&gt;Node7 -->
<g id="edge31" class="edge"><title>Node26&#45;&gt;Node7</title>
<path fill="none" stroke="#9a32cd" stroke-dasharray="5,2" d="M1026.47,-104.296C1062.48,-109.94 1099.41,-117.875 1114,-128.019 1170.16,-167.074 1200.13,-249.72 1209.08,-278.16"/>
<polygon fill="#9a32cd" stroke="#9a32cd" points="1026.77,-100.801 1016.36,-102.765 1025.72,-107.722 1026.77,-100.801"/>
<text text-anchor="middle" x="1074" y="-131.019" font-family="Helvetica,sans-Serif" font-size="10.00"> myConditions</text>
</g>
<!-- Node27 -->
<g id="node27" class="node"><title>Node27</title>
<g id="a_node27"><a xlink:href="../../d4/d3b/classauthoring_1_1model_1_1collections_1_1_general_collection.html" target="_top" xlink:title="authoring.model.collections.\lGeneralCollection\&lt; Condition \&gt;">
<polygon fill="white" stroke="black" points="562,-79.0189 562,-109.019 730,-109.019 730,-79.0189 562,-79.0189"/>
<text text-anchor="start" x="570" y="-97.0189" font-family="Helvetica,sans-Serif" font-size="10.00">authoring.model.collections.</text>
<text text-anchor="middle" x="646" y="-86.0189" font-family="Helvetica,sans-Serif" font-size="10.00">GeneralCollection&lt; Condition &gt;</text>
</a>
</g>
</g>
<!-- Node27&#45;&gt;Node26 -->
<g id="edge32" class="edge"><title>Node27&#45;&gt;Node26</title>
<path fill="none" stroke="midnightblue" d="M740.523,-94.0189C780.286,-94.0189 826.039,-94.0189 863.588,-94.0189"/>
<polygon fill="midnightblue" stroke="midnightblue" points="740.285,-90.519 730.285,-94.0189 740.285,-97.519 740.285,-90.519"/>
</g>
<!-- Node28 -->
<g id="node28" class="node"><title>Node28</title>
<polygon fill="white" stroke="#bfbfbf" points="1185,-482.519 1185,-501.519 1241,-501.519 1241,-482.519 1185,-482.519"/>
<text text-anchor="middle" x="1213" y="-489.519" font-family="Helvetica,sans-Serif" font-size="10.00">Timeline</text>
</g>
<!-- Node28&#45;&gt;Node4 -->
<g id="edge33" class="edge"><title>Node28&#45;&gt;Node4</title>
<path fill="none" stroke="#9a32cd" stroke-dasharray="5,2" d="M1251.53,-491.935C1290.04,-490.5 1350.83,-484.418 1398,-462.019 1428.79,-447.398 1456.54,-417.071 1469.42,-401.578"/>
<polygon fill="#9a32cd" stroke="#9a32cd" points="1251.18,-488.443 1241.28,-492.226 1251.38,-495.44 1251.18,-488.443"/>
<text text-anchor="middle" x="1355" y="-488.019" font-family="Helvetica,sans-Serif" font-size="10.00"> myAnimation</text>
</g>
<!-- Node29 -->
<g id="node29" class="node"><title>Node29</title>
<polygon fill="white" stroke="#bfbfbf" points="1132.5,-444.519 1132.5,-463.519 1293.5,-463.519 1293.5,-444.519 1132.5,-444.519"/>
<text text-anchor="middle" x="1213" y="-451.519" font-family="Helvetica,sans-Serif" font-size="10.00">EventHandler&lt; ActionEvent &gt;</text>
</g>
<!-- Node29&#45;&gt;Node4 -->
<g id="edge36" class="edge"><title>Node29&#45;&gt;Node4</title>
<path fill="none" stroke="#9a32cd" stroke-dasharray="5,2" d="M1304.03,-447.298C1334.3,-443.59 1367.99,-437.86 1398,-429.019 1420.52,-422.384 1444.73,-410.22 1460.33,-401.654"/>
<polygon fill="#9a32cd" stroke="#9a32cd" points="1303.43,-443.844 1293.9,-448.48 1304.24,-450.797 1303.43,-443.844"/>
<text text-anchor="middle" x="1355" y="-450.019" font-family="Helvetica,sans-Serif" font-size="10.00"> oneFrame</text>
</g>
<!-- Node30 -->
<g id="node30" class="node"><title>Node30</title>
<g id="a_node30"><a xlink:href="../../d1/d95/classdata_1_1_data_manager.html" target="_top" xlink:title="data.DataManager">
<polygon fill="white" stroke="black" points="1424.5,-161.519 1424.5,-180.519 1531.5,-180.519 1531.5,-161.519 1424.5,-161.519"/>
<text text-anchor="middle" x="1478" y="-168.519" font-family="Helvetica,sans-Serif" font-size="10.00">data.DataManager</text>
</a>
</g>
</g>
<!-- Node30&#45;&gt;Node1 -->
<g id="edge40" class="edge"><title>Node30&#45;&gt;Node1</title>
<path fill="none" stroke="#9a32cd" stroke-dasharray="5,2" d="M1496.12,-187.95C1547.12,-238.375 1696.9,-386.47 1736.37,-425.5"/>
<polygon fill="#9a32cd" stroke="#9a32cd" points="1498.39,-185.27 1488.82,-180.728 1493.47,-190.248 1498.39,-185.27"/>
<text text-anchor="middle" x="1603" y="-338.019" font-family="Helvetica,sans-Serif" font-size="10.00"> myDataManager</text>
</g>
<!-- Node31 -->
<g id="node31" class="node"><title>Node31</title>
<polygon fill="white" stroke="#bfbfbf" points="1176,-1.51893 1176,-20.5189 1250,-20.5189 1250,-1.51893 1176,-1.51893"/>
<text text-anchor="middle" x="1213" y="-8.51893" font-family="Helvetica,sans-Serif" font-size="10.00">GsonBuilder</text>
</g>
<!-- Node31&#45;&gt;Node30 -->
<g id="edge41" class="edge"><title>Node31&#45;&gt;Node30</title>
<path fill="none" stroke="#9a32cd" stroke-dasharray="5,2" d="M1260,-2.64646C1299.74,2.04146 1357.06,2.45932 1398,-24.0189 1448.85,-56.9041 1469.32,-134.072 1475.13,-161.299"/>
<polygon fill="#9a32cd" stroke="#9a32cd" points="1259.5,0.818526 1250.04,-3.95284 1260.41,-6.12198 1259.5,0.818526"/>
<text text-anchor="middle" x="1355" y="-27.0189" font-family="Helvetica,sans-Serif" font-size="10.00"> gson</text>
</g>
</g>
</svg>
