<?xml version="1.0" encoding="UTF-8" standalone="no"?>
<!DOCTYPE svg PUBLIC "-//W3C//DTD SVG 1.1//EN"
 "http://www.w3.org/Graphics/SVG/1.1/DTD/svg11.dtd">
<!-- Generated by graphviz version 2.36.0 (20140111.2315)
 -->
<!-- Title: engine.actions.render.PaintCanvas.applyRender Pages: 1 -->
<svg width="1046pt" height="398pt"
 viewBox="0.00 0.00 1046.00 398.00" xmlns="http://www.w3.org/2000/svg" xmlns:xlink="http://www.w3.org/1999/xlink">
<g id="graph0" class="graph" transform="scale(1 1) rotate(0) translate(4 394)">
<title>engine.actions.render.PaintCanvas.applyRender</title>
<polygon fill="white" stroke="none" points="-4,4 -4,-394 1042,-394 1042,4 -4,4"/>
<!-- Node1 -->
<g id="node1" class="node"><title>Node1</title>
<polygon fill="#bfbfbf" stroke="black" points="0,-115 0,-145 146,-145 146,-115 0,-115"/>
<text text-anchor="start" x="8" y="-133" font-family="Helvetica,sans-Serif" font-size="10.00">engine.actions.render.Paint</text>
<text text-anchor="middle" x="73" y="-122" font-family="Helvetica,sans-Serif" font-size="10.00">Canvas.applyRender</text>
</g>
<!-- Node2 -->
<g id="node2" class="node"><title>Node2</title>
<g id="a_node2"><a xlink:href="../../dd/d8d/classengine_1_1render_1_1_renderer.html#a569f6bb2f9c218ed015949dff459b1ee" target="_top" xlink:title="engine.render.Renderer.create\lAndAssignRenderedNode">
<polygon fill="white" stroke="black" points="182.5,-115 182.5,-145 343.5,-145 343.5,-115 182.5,-115"/>
<text text-anchor="start" x="190.5" y="-133" font-family="Helvetica,sans-Serif" font-size="10.00">engine.render.Renderer.create</text>
<text text-anchor="middle" x="263" y="-122" font-family="Helvetica,sans-Serif" font-size="10.00">AndAssignRenderedNode</text>
</a>
</g>
</g>
<!-- Node1&#45;&gt;Node2 -->
<g id="edge1" class="edge"><title>Node1&#45;&gt;Node2</title>
<path fill="none" stroke="midnightblue" d="M146.148,-130C154.633,-130 163.369,-130 172.058,-130"/>
<polygon fill="midnightblue" stroke="midnightblue" points="172.22,-133.5 182.22,-130 172.22,-126.5 172.22,-133.5"/>
</g>
<!-- Node3 -->
<g id="node3" class="node"><title>Node3</title>
<g id="a_node3"><a xlink:href="../../d5/d30/classengine_1_1render_1_1_rendered_node_factory.html#a359dcce722371dfb49b79528930c1b05" target="_top" xlink:title="engine.render.RenderedNode\lFactory.createRenderedNode">
<polygon fill="white" stroke="black" points="398,-164 398,-194 554,-194 554,-164 398,-164"/>
<text text-anchor="start" x="406" y="-182" font-family="Helvetica,sans-Serif" font-size="10.00">engine.render.RenderedNode</text>
<text text-anchor="middle" x="476" y="-171" font-family="Helvetica,sans-Serif" font-size="10.00">Factory.createRenderedNode</text>
</a>
</g>
</g>
<!-- Node2&#45;&gt;Node3 -->
<g id="edge2" class="edge"><title>Node2&#45;&gt;Node3</title>
<path fill="none" stroke="midnightblue" d="M328.741,-145.035C351.425,-150.302 377.079,-156.26 400.497,-161.698"/>
<polygon fill="midnightblue" stroke="midnightblue" points="399.849,-165.141 410.382,-163.994 401.432,-158.322 399.849,-165.141"/>
</g>
<!-- Node20 -->
<g id="node20" class="node"><title>Node20</title>
<g id="a_node20"><a xlink:href="../../d0/d7f/classengine_1_1game_object_1_1_game_object.html#accd456b2eaab9c7056de825a28b066c8" target="_top" xlink:title="engine.gameObject.GameObject.get\lIdentifier">
<polygon fill="white" stroke="black" points="380,-115 380,-145 572,-145 572,-115 380,-115"/>
<text text-anchor="start" x="388" y="-133" font-family="Helvetica,sans-Serif" font-size="10.00">engine.gameObject.GameObject.get</text>
<text text-anchor="middle" x="476" y="-122" font-family="Helvetica,sans-Serif" font-size="10.00">Identifier</text>
</a>
</g>
</g>
<!-- Node2&#45;&gt;Node20 -->
<g id="edge21" class="edge"><title>Node2&#45;&gt;Node20</title>
<path fill="none" stroke="midnightblue" d="M343.77,-130C352.242,-130 360.949,-130 369.656,-130"/>
<polygon fill="midnightblue" stroke="midnightblue" points="369.861,-133.5 379.861,-130 369.861,-126.5 369.861,-133.5"/>
</g>
<!-- Node21 -->
<g id="node21" class="node"><title>Node21</title>
<g id="a_node21"><a xlink:href="../../d0/d7f/classengine_1_1game_object_1_1_game_object.html#ab09d473d8c2afe8cefb2ce2481bc66fd" target="_top" xlink:title="engine.gameObject.GameObject.set\lRenderedNode">
<polygon fill="white" stroke="black" points="380.5,-66 380.5,-96 571.5,-96 571.5,-66 380.5,-66"/>
<text text-anchor="start" x="388.5" y="-84" font-family="Helvetica,sans-Serif" font-size="10.00">engine.gameObject.GameObject.set</text>
<text text-anchor="middle" x="476" y="-73" font-family="Helvetica,sans-Serif" font-size="10.00">RenderedNode</text>
</a>
</g>
</g>
<!-- Node2&#45;&gt;Node21 -->
<g id="edge22" class="edge"><title>Node2&#45;&gt;Node21</title>
<path fill="none" stroke="midnightblue" d="M328.741,-114.965C351.425,-109.698 377.079,-103.74 400.497,-98.3016"/>
<polygon fill="midnightblue" stroke="midnightblue" points="401.432,-101.678 410.382,-96.0062 399.849,-94.8591 401.432,-101.678"/>
</g>
<!-- Node4 -->
<g id="node4" class="node"><title>Node4</title>
<g id="a_node4"><a xlink:href="../../d2/d82/classengine_1_1render_1_1_rendered_node.html#a520a8c03b505d10c69e010e603cadfdd" target="_top" xlink:title="engine.render.RenderedNode.set\lImageView">
<polygon fill="white" stroke="black" points="622,-360 622,-390 796,-390 796,-360 622,-360"/>
<text text-anchor="start" x="630" y="-378" font-family="Helvetica,sans-Serif" font-size="10.00">engine.render.RenderedNode.set</text>
<text text-anchor="middle" x="709" y="-367" font-family="Helvetica,sans-Serif" font-size="10.00">ImageView</text>
</a>
</g>
</g>
<!-- Node3&#45;&gt;Node4 -->
<g id="edge3" class="edge"><title>Node3&#45;&gt;Node4</title>
<path fill="none" stroke="midnightblue" d="M484.088,-194.074C500.691,-227.669 545.479,-308.946 608,-350 611.139,-352.061 614.435,-353.952 617.842,-355.688"/>
<polygon fill="midnightblue" stroke="midnightblue" points="616.537,-358.94 627.086,-359.927 619.455,-352.577 616.537,-358.94"/>
</g>
<!-- Node5 -->
<g id="node5" class="node"><title>Node5</title>
<g id="a_node5"><a xlink:href="../../d5/d30/classengine_1_1render_1_1_rendered_node_factory.html#ae9ab86f88eb96945a412e561179aa070" target="_top" xlink:title="engine.render.RenderedNode\lFactory.createImageAndView">
<polygon fill="white" stroke="black" points="631,-311 631,-341 787,-341 787,-311 631,-311"/>
<text text-anchor="start" x="639" y="-329" font-family="Helvetica,sans-Serif" font-size="10.00">engine.render.RenderedNode</text>
<text text-anchor="middle" x="709" y="-318" font-family="Helvetica,sans-Serif" font-size="10.00">Factory.createImageAndView</text>
</a>
</g>
</g>
<!-- Node3&#45;&gt;Node5 -->
<g id="edge4" class="edge"><title>Node3&#45;&gt;Node5</title>
<path fill="none" stroke="midnightblue" d="M488.95,-194.35C510.073,-220.394 556.653,-273.121 608,-301 612.249,-303.307 616.714,-305.405 621.304,-307.313"/>
<polygon fill="midnightblue" stroke="midnightblue" points="620.278,-310.668 630.868,-310.969 622.777,-304.129 620.278,-310.668"/>
</g>
<!-- Node9 -->
<g id="node9" class="node"><title>Node9</title>
<g id="a_node9"><a xlink:href="../../d2/d82/classengine_1_1render_1_1_rendered_node.html#ad73c81ad48b40faea3818c9a7bbfdcf0" target="_top" xlink:title="engine.render.RenderedNode.set\lCollisionBody">
<polygon fill="white" stroke="black" points="622,-213 622,-243 796,-243 796,-213 622,-213"/>
<text text-anchor="start" x="630" y="-231" font-family="Helvetica,sans-Serif" font-size="10.00">engine.render.RenderedNode.set</text>
<text text-anchor="middle" x="709" y="-220" font-family="Helvetica,sans-Serif" font-size="10.00">CollisionBody</text>
</a>
</g>
</g>
<!-- Node3&#45;&gt;Node9 -->
<g id="edge8" class="edge"><title>Node3&#45;&gt;Node9</title>
<path fill="none" stroke="midnightblue" d="M547.877,-194.035C573.044,-199.373 601.55,-205.42 627.464,-210.917"/>
<polygon fill="midnightblue" stroke="midnightblue" points="626.748,-214.343 637.257,-212.994 628.201,-207.495 626.748,-214.343"/>
</g>
<!-- Node10 -->
<g id="node10" class="node"><title>Node10</title>
<g id="a_node10"><a xlink:href="../../d5/d30/classengine_1_1render_1_1_rendered_node_factory.html#ac14d2f5a3da79d92c967fe22bc82c1ed" target="_top" xlink:title="engine.render.RenderedNode\lFactory.createCollisionBody">
<polygon fill="white" stroke="black" points="631,-164 631,-194 787,-194 787,-164 631,-164"/>
<text text-anchor="start" x="639" y="-182" font-family="Helvetica,sans-Serif" font-size="10.00">engine.render.RenderedNode</text>
<text text-anchor="middle" x="709" y="-171" font-family="Helvetica,sans-Serif" font-size="10.00">Factory.createCollisionBody</text>
</a>
</g>
</g>
<!-- Node3&#45;&gt;Node10 -->
<g id="edge9" class="edge"><title>Node3&#45;&gt;Node10</title>
<path fill="none" stroke="midnightblue" d="M554.241,-179C575.527,-179 598.769,-179 620.587,-179"/>
<polygon fill="midnightblue" stroke="midnightblue" points="620.832,-182.5 630.832,-179 620.832,-175.5 620.832,-182.5"/>
</g>
<!-- Node14 -->
<g id="node14" class="node"><title>Node14</title>
<g id="a_node14"><a xlink:href="../../d2/d82/classengine_1_1render_1_1_rendered_node.html#a312c663dd1144ff206ecfa1ea8c95a81" target="_top" xlink:title="engine.render.RenderedNode.set\lLabel">
<polygon fill="white" stroke="black" points="622,-115 622,-145 796,-145 796,-115 622,-115"/>
<text text-anchor="start" x="630" y="-133" font-family="Helvetica,sans-Serif" font-size="10.00">engine.render.RenderedNode.set</text>
<text text-anchor="middle" x="709" y="-122" font-family="Helvetica,sans-Serif" font-size="10.00">Label</text>
</a>
</g>
</g>
<!-- Node3&#45;&gt;Node14 -->
<g id="edge13" class="edge"><title>Node3&#45;&gt;Node14</title>
<path fill="none" stroke="midnightblue" d="M547.877,-163.965C573.044,-158.627 601.55,-152.58 627.464,-147.083"/>
<polygon fill="midnightblue" stroke="midnightblue" points="628.201,-150.505 637.257,-145.006 626.748,-143.657 628.201,-150.505"/>
</g>
<!-- Node15 -->
<g id="node15" class="node"><title>Node15</title>
<g id="a_node15"><a xlink:href="../../d5/d30/classengine_1_1render_1_1_rendered_node_factory.html#a4e1f4508b1c12b958bd3c88a35a4e872" target="_top" xlink:title="engine.render.RenderedNode\lFactory.createLabel">
<polygon fill="white" stroke="black" points="631,-262 631,-292 787,-292 787,-262 631,-262"/>
<text text-anchor="start" x="639" y="-280" font-family="Helvetica,sans-Serif" font-size="10.00">engine.render.RenderedNode</text>
<text text-anchor="middle" x="709" y="-269" font-family="Helvetica,sans-Serif" font-size="10.00">Factory.createLabel</text>
</a>
</g>
</g>
<!-- Node3&#45;&gt;Node15 -->
<g id="edge14" class="edge"><title>Node3&#45;&gt;Node15</title>
<path fill="none" stroke="midnightblue" d="M499.748,-194.124C525.18,-210.44 568.053,-236.198 608,-252 614.373,-254.521 621.077,-256.847 627.871,-258.98"/>
<polygon fill="midnightblue" stroke="midnightblue" points="627.276,-262.456 637.86,-261.968 629.282,-255.749 627.276,-262.456"/>
</g>
<!-- Node17 -->
<g id="node17" class="node"><title>Node17</title>
<g id="a_node17"><a xlink:href="../../d0/d7f/classengine_1_1game_object_1_1_game_object.html#a606c7293c2bfac0af1fb42143bf527f6" target="_top" xlink:title="engine.gameObject.GameObject.getX">
<polygon fill="white" stroke="black" points="610,-76.5 610,-95.5 808,-95.5 808,-76.5 610,-76.5"/>
<text text-anchor="middle" x="709" y="-83.5" font-family="Helvetica,sans-Serif" font-size="10.00">engine.gameObject.GameObject.getX</text>
</a>
</g>
</g>
<!-- Node3&#45;&gt;Node17 -->
<g id="edge18" class="edge"><title>Node3&#45;&gt;Node17</title>
<path fill="none" stroke="midnightblue" d="M553.719,-163.834C560.162,-161.084 566.359,-157.836 572,-154 594.345,-138.803 585.14,-119.411 608,-105 611.352,-102.887 614.884,-100.998 618.538,-99.3111"/>
<polygon fill="midnightblue" stroke="midnightblue" points="619.904,-102.534 627.843,-95.5183 617.261,-96.052 619.904,-102.534"/>
</g>
<!-- Node18 -->
<g id="node18" class="node"><title>Node18</title>
<g id="a_node18"><a xlink:href="../../d0/d7f/classengine_1_1game_object_1_1_game_object.html#a1988806ef560c9384f3844d0666a9450" target="_top" xlink:title="engine.gameObject.GameObject.getY">
<polygon fill="white" stroke="black" points="610.5,-38.5 610.5,-57.5 807.5,-57.5 807.5,-38.5 610.5,-38.5"/>
<text text-anchor="middle" x="709" y="-45.5" font-family="Helvetica,sans-Serif" font-size="10.00">engine.gameObject.GameObject.getY</text>
</a>
</g>
</g>
<!-- Node3&#45;&gt;Node18 -->
<g id="edge19" class="edge"><title>Node3&#45;&gt;Node18</title>
<path fill="none" stroke="midnightblue" d="M554.326,-165.451C560.717,-162.367 566.733,-158.6 572,-154 603.518,-126.474 575.543,-93.4137 608,-67 610.039,-65.3408 612.178,-63.8102 614.4,-62.399"/>
<polygon fill="midnightblue" stroke="midnightblue" points="616.232,-65.3868 623.337,-57.5275 612.881,-59.2406 616.232,-65.3868"/>
</g>
<!-- Node19 -->
<g id="node19" class="node"><title>Node19</title>
<g id="a_node19"><a xlink:href="../../d0/d7f/classengine_1_1game_object_1_1_game_object.html#ae94fe532960bd29f64c2dc19ec0af798" target="_top" xlink:title="engine.gameObject.GameObject.getID">
<polygon fill="white" stroke="black" points="608,-0.5 608,-19.5 810,-19.5 810,-0.5 608,-0.5"/>
<text text-anchor="middle" x="709" y="-7.5" font-family="Helvetica,sans-Serif" font-size="10.00">engine.gameObject.GameObject.getID</text>
</a>
</g>
</g>
<!-- Node3&#45;&gt;Node19 -->
<g id="edge20" class="edge"><title>Node3&#45;&gt;Node19</title>
<path fill="none" stroke="midnightblue" d="M554.428,-166.293C560.878,-163.043 566.877,-159.006 572,-154 613.35,-113.594 565.27,-67.9435 608,-29 609.518,-27.6162 611.105,-26.3189 612.751,-25.1031"/>
<polygon fill="midnightblue" stroke="midnightblue" points="614.802,-27.9482 621.427,-19.68 611.092,-22.0123 614.802,-27.9482"/>
</g>
<!-- Node6 -->
<g id="node6" class="node"><title>Node6</title>
<g id="a_node6"><a xlink:href="../../d0/d7f/classengine_1_1game_object_1_1_game_object.html#ae8b88e1cf489e935426e2e252defbae0" target="_top" xlink:title="engine.gameObject.GameObject.get\lCurrentImageName">
<polygon fill="white" stroke="black" points="846,-360 846,-390 1038,-390 1038,-360 846,-360"/>
<text text-anchor="start" x="854" y="-378" font-family="Helvetica,sans-Serif" font-size="10.00">engine.gameObject.GameObject.get</text>
<text text-anchor="middle" x="942" y="-367" font-family="Helvetica,sans-Serif" font-size="10.00">CurrentImageName</text>
</a>
</g>
</g>
<!-- Node5&#45;&gt;Node6 -->
<g id="edge5" class="edge"><title>Node5&#45;&gt;Node6</title>
<path fill="none" stroke="midnightblue" d="M780.877,-341.035C806.044,-346.373 834.55,-352.42 860.464,-357.917"/>
<polygon fill="midnightblue" stroke="midnightblue" points="859.748,-361.343 870.257,-359.994 861.201,-354.495 859.748,-361.343"/>
</g>
<!-- Node7 -->
<g id="node7" class="node"><title>Node7</title>
<g id="a_node7"><a xlink:href="../../d0/d7f/classengine_1_1game_object_1_1_game_object.html#aaeb5730a3b51fe9cb3d817ea7172cfc2" target="_top" xlink:title="engine.gameObject.GameObject.get\lHeight">
<polygon fill="white" stroke="black" points="846,-262 846,-292 1038,-292 1038,-262 846,-262"/>
<text text-anchor="start" x="854" y="-280" font-family="Helvetica,sans-Serif" font-size="10.00">engine.gameObject.GameObject.get</text>
<text text-anchor="middle" x="942" y="-269" font-family="Helvetica,sans-Serif" font-size="10.00">Height</text>
</a>
</g>
</g>
<!-- Node5&#45;&gt;Node7 -->
<g id="edge6" class="edge"><title>Node5&#45;&gt;Node7</title>
<path fill="none" stroke="midnightblue" d="M780.877,-310.965C806.044,-305.627 834.55,-299.58 860.464,-294.083"/>
<polygon fill="midnightblue" stroke="midnightblue" points="861.201,-297.505 870.257,-292.006 859.748,-290.657 861.201,-297.505"/>
</g>
<!-- Node8 -->
<g id="node8" class="node"><title>Node8</title>
<g id="a_node8"><a xlink:href="../../d0/d7f/classengine_1_1game_object_1_1_game_object.html#a31aa2c854220621b49fc5575b50b9342" target="_top" xlink:title="engine.gameObject.GameObject.get\lWidth">
<polygon fill="white" stroke="black" points="846,-311 846,-341 1038,-341 1038,-311 846,-311"/>
<text text-anchor="start" x="854" y="-329" font-family="Helvetica,sans-Serif" font-size="10.00">engine.gameObject.GameObject.get</text>
<text text-anchor="middle" x="942" y="-318" font-family="Helvetica,sans-Serif" font-size="10.00">Width</text>
</a>
</g>
</g>
<!-- Node5&#45;&gt;Node8 -->
<g id="edge7" class="edge"><title>Node5&#45;&gt;Node8</title>
<path fill="none" stroke="midnightblue" d="M787.241,-326C802.773,-326 819.346,-326 835.647,-326"/>
<polygon fill="midnightblue" stroke="midnightblue" points="835.75,-329.5 845.75,-326 835.75,-322.5 835.75,-329.5"/>
</g>
<!-- Node11 -->
<g id="node11" class="node"><title>Node11</title>
<g id="a_node11"><a xlink:href="../../d0/d7f/classengine_1_1game_object_1_1_game_object.html#a60c5b6933aac9969491a3562a963c043" target="_top" xlink:title="engine.gameObject.GameObject.get\lPhysicsBody">
<polygon fill="white" stroke="black" points="846,-164 846,-194 1038,-194 1038,-164 846,-164"/>
<text text-anchor="start" x="854" y="-182" font-family="Helvetica,sans-Serif" font-size="10.00">engine.gameObject.GameObject.get</text>
<text text-anchor="middle" x="942" y="-171" font-family="Helvetica,sans-Serif" font-size="10.00">PhysicsBody</text>
</a>
</g>
</g>
<!-- Node10&#45;&gt;Node11 -->
<g id="edge10" class="edge"><title>Node10&#45;&gt;Node11</title>
<path fill="none" stroke="midnightblue" d="M787.241,-179C802.773,-179 819.346,-179 835.647,-179"/>
<polygon fill="midnightblue" stroke="midnightblue" points="835.75,-182.5 845.75,-179 835.75,-175.5 835.75,-182.5"/>
</g>
<!-- Node12 -->
<g id="node12" class="node"><title>Node12</title>
<g id="a_node12"><a xlink:href="../../d9/d9d/classengine_1_1game_object_1_1components_1_1_physics_body.html#aba2ed3bce8ee8e404907c88b144626fc" target="_top" xlink:title="engine.gameObject.components.\lPhysicsBody.getCollisionBodyHeight">
<polygon fill="white" stroke="black" points="848,-115 848,-145 1036,-145 1036,-115 848,-115"/>
<text text-anchor="start" x="856" y="-133" font-family="Helvetica,sans-Serif" font-size="10.00">engine.gameObject.components.</text>
<text text-anchor="middle" x="942" y="-122" font-family="Helvetica,sans-Serif" font-size="10.00">PhysicsBody.getCollisionBodyHeight</text>
</a>
</g>
</g>
<!-- Node10&#45;&gt;Node12 -->
<g id="edge11" class="edge"><title>Node10&#45;&gt;Node12</title>
<path fill="none" stroke="midnightblue" d="M780.877,-163.965C806.044,-158.627 834.55,-152.58 860.464,-147.083"/>
<polygon fill="midnightblue" stroke="midnightblue" points="861.201,-150.505 870.257,-145.006 859.748,-143.657 861.201,-150.505"/>
</g>
<!-- Node13 -->
<g id="node13" class="node"><title>Node13</title>
<g id="a_node13"><a xlink:href="../../d9/d9d/classengine_1_1game_object_1_1components_1_1_physics_body.html#ae64e43632570392c3118b3d00af853fc" target="_top" xlink:title="engine.gameObject.components.\lPhysicsBody.getCollisionBodyWidth">
<polygon fill="white" stroke="black" points="851,-66 851,-96 1033,-96 1033,-66 851,-66"/>
<text text-anchor="start" x="859" y="-84" font-family="Helvetica,sans-Serif" font-size="10.00">engine.gameObject.components.</text>
<text text-anchor="middle" x="942" y="-73" font-family="Helvetica,sans-Serif" font-size="10.00">PhysicsBody.getCollisionBodyWidth</text>
</a>
</g>
</g>
<!-- Node10&#45;&gt;Node13 -->
<g id="edge12" class="edge"><title>Node10&#45;&gt;Node13</title>
<path fill="none" stroke="midnightblue" d="M787.161,-165.59C795.226,-162.496 803.016,-158.687 810,-154 832.439,-138.941 823.58,-120.087 846,-105 848.302,-103.451 850.697,-102.002 853.163,-100.646"/>
<polygon fill="midnightblue" stroke="midnightblue" points="854.926,-103.679 862.365,-96.1348 851.845,-97.394 854.926,-103.679"/>
</g>
<!-- Node15&#45;&gt;Node7 -->
<g id="edge16" class="edge"><title>Node15&#45;&gt;Node7</title>
<path fill="none" stroke="midnightblue" d="M787.241,-277C802.773,-277 819.346,-277 835.647,-277"/>
<polygon fill="midnightblue" stroke="midnightblue" points="835.75,-280.5 845.75,-277 835.75,-273.5 835.75,-280.5"/>
</g>
<!-- Node15&#45;&gt;Node8 -->
<g id="edge17" class="edge"><title>Node15&#45;&gt;Node8</title>
<path fill="none" stroke="midnightblue" d="M780.877,-292.035C806.044,-297.373 834.55,-303.42 860.464,-308.917"/>
<polygon fill="midnightblue" stroke="midnightblue" points="859.748,-312.343 870.257,-310.994 861.201,-305.495 859.748,-312.343"/>
</g>
<!-- Node16 -->
<g id="node16" class="node"><title>Node16</title>
<g id="a_node16"><a xlink:href="../../d0/d7f/classengine_1_1game_object_1_1_game_object.html#a5c379828f3bb19a91935f965c48a91a5" target="_top" xlink:title="engine.gameObject.GameObject.get\lLabel">
<polygon fill="white" stroke="black" points="846,-213 846,-243 1038,-243 1038,-213 846,-213"/>
<text text-anchor="start" x="854" y="-231" font-family="Helvetica,sans-Serif" font-size="10.00">engine.gameObject.GameObject.get</text>
<text text-anchor="middle" x="942" y="-220" font-family="Helvetica,sans-Serif" font-size="10.00">Label</text>
</a>
</g>
</g>
<!-- Node15&#45;&gt;Node16 -->
<g id="edge15" class="edge"><title>Node15&#45;&gt;Node16</title>
<path fill="none" stroke="midnightblue" d="M780.877,-261.965C806.044,-256.627 834.55,-250.58 860.464,-245.083"/>
<polygon fill="midnightblue" stroke="midnightblue" points="861.201,-248.505 870.257,-243.006 859.748,-241.657 861.201,-248.505"/>
</g>
</g>
</svg>
