<?xml version="1.0" encoding="UTF-8" standalone="no"?>
<!DOCTYPE svg PUBLIC "-//W3C//DTD SVG 1.1//EN"
 "http://www.w3.org/Graphics/SVG/1.1/DTD/svg11.dtd">
<!-- Generated by graphviz version 2.36.0 (20140111.2315)
 -->
<!-- Title: engine.level.LevelManager Pages: 1 -->
<!--zoomable 499 -->
<svg id="main" version="1.1" xmlns="http://www.w3.org/2000/svg" xmlns:xlink="http://www.w3.org/1999/xlink" xml:space="preserve" onload="init(evt)">
<style type="text/css"><![CDATA[
.edge:hover path { stroke: red; }
.edge:hover polygon { stroke: red; fill: red; }
]]></style>
<script type="text/javascript"><![CDATA[
var edges = document.getElementsByTagName('g');
if (edges && edges.length) {
  for (var i=0;i<edges.length;i++) {
    if (edges[i].id.substr(0,4)=='edge') {
      edges[i].setAttribute('class','edge');
    }
  }
}
]]></script>
        <defs>
                <circle id="rim" cx="0" cy="0" r="7"/>
                <circle id="rim2" cx="0" cy="0" r="3.5"/>
                <g id="zoomPlus">
                        <use xlink:href="#rim" fill="#404040">
                                <set attributeName="fill" to="#808080" begin="zoomplus.mouseover" end="zoomplus.mouseout"/>
                        </use>
                        <path d="M-4,0h8M0,-4v8" fill="none" stroke="white" stroke-width="1.5" pointer-events="none"/>
                </g>
                <g id="zoomMin">
                        <use xlink:href="#rim" fill="#404040">
                                <set attributeName="fill" to="#808080" begin="zoomminus.mouseover" end="zoomminus.mouseout"/>
                        </use>
                        <path d="M-4,0h8" fill="none" stroke="white" stroke-width="1.5" pointer-events="none"/>
                </g>
                <g id="dirArrow">
                        <path fill="none" stroke="white" stroke-width="1.5" d="M0,-3.0v7 M-2.5,-0.5L0,-3.0L2.5,-0.5"/>
                </g>
               <g id="resetDef">
                       <use xlink:href="#rim2" fill="#404040">
                               <set attributeName="fill" to="#808080" begin="reset.mouseover" end="reset.mouseout"/>
                       </use>
               </g>
        </defs>

<script type="text/javascript">
var viewWidth = 1284;
var viewHeight = 499;
var sectionId = 'dynsection-1';
</script>
<script xlink:href="../../svgpan.js"/>
<svg id="graph" class="graph">
<g id="viewport">
<title>engine.level.LevelManager</title>
<polygon fill="white" stroke="none" points="-4,4 -4,-495 1280,-495 1280,4 -4,4"/>
<!-- Node1 -->
<g id="node1" class="node"><title>Node1</title>
<polygon fill="#bfbfbf" stroke="black" points="1132.5,-275.5 1132.5,-294.5 1275.5,-294.5 1275.5,-275.5 1132.5,-275.5"/>
<text text-anchor="middle" x="1204" y="-282.5" font-family="Helvetica,sans-Serif" font-size="10.00">engine.level.LevelManager</text>
</g>
<!-- Node2 -->
<g id="node2" class="node"><title>Node2</title>
<polygon fill="white" stroke="#bfbfbf" points="890,-412.5 890,-431.5 990,-431.5 990,-412.5 890,-412.5"/>
<text text-anchor="middle" x="940" y="-419.5" font-family="Helvetica,sans-Serif" font-size="10.00">Iterable&lt; Level &gt;</text>
</g>
<!-- Node2&#45;&gt;Node1 -->
<g id="edge1" class="edge"><title>Node2&#45;&gt;Node1</title>
<path fill="none" stroke="midnightblue" d="M1000.27,-418.545C1035.32,-414.335 1079.45,-405.109 1114,-385 1153.77,-361.851 1185.26,-314.69 1197.49,-294.509"/>
<polygon fill="midnightblue" stroke="midnightblue" points="999.736,-415.083 990.177,-419.651 1000.5,-422.041 999.736,-415.083"/>
</g>
<!-- Node3 -->
<g id="node3" class="node"><title>Node3</title>
<g id="a_node3"><a xlink:href="../../df/de5/classauthoring_1_1model_1_1collections_1_1_levels_collection.html" target="_top" xlink:title="authoring.model.collections.\lLevelsCollection">
<polygon fill="white" stroke="black" points="570,-56 570,-86 722,-86 722,-56 570,-56"/>
<text text-anchor="start" x="578" y="-74" font-family="Helvetica,sans-Serif" font-size="10.00">authoring.model.collections.</text>
<text text-anchor="middle" x="646" y="-63" font-family="Helvetica,sans-Serif" font-size="10.00">LevelsCollection</text>
</a>
</g>
</g>
<!-- Node3&#45;&gt;Node1 -->
<g id="edge2" class="edge"><title>Node3&#45;&gt;Node1</title>
<path fill="none" stroke="#9a32cd" stroke-dasharray="5,2" d="M732.413,-70.7848C767.779,-71.8608 809.079,-74.6306 846,-81 923.734,-94.4102 945.523,-96.568 1016,-132 1094.33,-171.379 1169.4,-248.437 1194.33,-275.404"/>
<polygon fill="#9a32cd" stroke="#9a32cd" points="732.213,-67.2784 722.124,-70.5138 732.028,-74.276 732.213,-67.2784"/>
<text text-anchor="middle" x="940" y="-135" font-family="Helvetica,sans-Serif" font-size="10.00"> myLevels</text>
</g>
<!-- Node19 -->
<g id="node19" class="node"><title>Node19</title>
<g id="a_node19"><a xlink:href="../../da/d90/classengine_1_1sound_1_1_sound_utility.html" target="_top" xlink:title="engine.sound.SoundUtility">
<polygon fill="white" stroke="black" points="869,-152.5 869,-171.5 1011,-171.5 1011,-152.5 869,-152.5"/>
<text text-anchor="middle" x="940" y="-159.5" font-family="Helvetica,sans-Serif" font-size="10.00">engine.sound.SoundUtility</text>
</a>
</g>
</g>
<!-- Node3&#45;&gt;Node19 -->
<g id="edge21" class="edge"><title>Node3&#45;&gt;Node19</title>
<path fill="none" stroke="#9a32cd" stroke-dasharray="5,2" d="M731.981,-80.1546C776.214,-85.6454 825.292,-93.0852 846,-101 878.466,-113.409 911.254,-138.525 927.861,-152.344"/>
<polygon fill="#9a32cd" stroke="#9a32cd" points="732.393,-76.6789 722.043,-78.9429 731.546,-83.6275 732.393,-76.6789"/>
<text text-anchor="middle" x="797" y="-104" font-family="Helvetica,sans-Serif" font-size="10.00"> myLevels</text>
</g>
<!-- Node4 -->
<g id="node4" class="node"><title>Node4</title>
<g id="a_node4"><a xlink:href="../../d4/d3b/classauthoring_1_1model_1_1collections_1_1_general_collection.html" target="_top" xlink:title="authoring.model.collections.\lGeneralCollection\&lt; Level \&gt;">
<polygon fill="white" stroke="black" points="249,-56 249,-86 401,-86 401,-56 249,-56"/>
<text text-anchor="start" x="257" y="-74" font-family="Helvetica,sans-Serif" font-size="10.00">authoring.model.collections.</text>
<text text-anchor="middle" x="325" y="-63" font-family="Helvetica,sans-Serif" font-size="10.00">GeneralCollection&lt; Level &gt;</text>
</a>
</g>
</g>
<!-- Node4&#45;&gt;Node3 -->
<g id="edge3" class="edge"><title>Node4&#45;&gt;Node3</title>
<path fill="none" stroke="midnightblue" d="M411.216,-71C460.588,-71 522.186,-71 569.758,-71"/>
<polygon fill="midnightblue" stroke="midnightblue" points="411.195,-67.5001 401.195,-71 411.195,-74.5001 411.195,-67.5001"/>
</g>
<!-- Node5 -->
<g id="node5" class="node"><title>Node5</title>
<g id="a_node5"><a xlink:href="../../dd/d8d/classengine_1_1render_1_1_renderer.html" target="_top" xlink:title="engine.render.Renderer">
<polygon fill="white" stroke="black" points="876,-374.5 876,-393.5 1004,-393.5 1004,-374.5 876,-374.5"/>
<text text-anchor="middle" x="940" y="-381.5" font-family="Helvetica,sans-Serif" font-size="10.00">engine.render.Renderer</text>
</a>
</g>
</g>
<!-- Node5&#45;&gt;Node1 -->
<g id="edge4" class="edge"><title>Node5&#45;&gt;Node1</title>
<path fill="none" stroke="#9a32cd" stroke-dasharray="5,2" d="M1014.06,-373.743C1045.64,-367.746 1082.5,-358.596 1114,-345 1144.45,-331.856 1175.59,-307.983 1191.73,-294.655"/>
<polygon fill="#9a32cd" stroke="#9a32cd" points="1013.21,-370.34 1004,-375.581 1014.47,-377.226 1013.21,-370.34"/>
<text text-anchor="middle" x="1074" y="-373" font-family="Helvetica,sans-Serif" font-size="10.00"> myRenderer</text>
</g>
<!-- Node6 -->
<g id="node6" class="node"><title>Node6</title>
<polygon fill="white" stroke="#bfbfbf" points="564,-461 564,-491 728,-491 728,-461 564,-461"/>
<text text-anchor="start" x="572" y="-479" font-family="Helvetica,sans-Serif" font-size="10.00">Map&lt; Identifier, engine.render.</text>
<text text-anchor="middle" x="646" y="-468" font-family="Helvetica,sans-Serif" font-size="10.00">RenderedNode &gt;</text>
</g>
<!-- Node6&#45;&gt;Node5 -->
<g id="edge5" class="edge"><title>Node6&#45;&gt;Node5</title>
<path fill="none" stroke="#9a32cd" stroke-dasharray="5,2" d="M738.196,-471.839C774.464,-466.421 814.876,-455.295 846,-433 858.641,-423.945 851.521,-412.276 864,-403 869.174,-399.154 875.045,-396.082 881.169,-393.629"/>
<polygon fill="#9a32cd" stroke="#9a32cd" points="737.522,-468.398 728.088,-473.22 738.469,-475.334 737.522,-468.398"/>
<text text-anchor="middle" x="797" y="-472" font-family="Helvetica,sans-Serif" font-size="10.00"> myRenderedNodes</text>
</g>
<!-- Node7 -->
<g id="node7" class="node"><title>Node7</title>
<g id="a_node7"><a xlink:href="../../d5/d30/classengine_1_1render_1_1_rendered_node_factory.html" target="_top" xlink:title="engine.render.RenderedNode\lFactory">
<polygon fill="white" stroke="black" points="568,-229 568,-259 724,-259 724,-229 568,-229"/>
<text text-anchor="start" x="576" y="-247" font-family="Helvetica,sans-Serif" font-size="10.00">engine.render.RenderedNode</text>
<text text-anchor="middle" x="646" y="-236" font-family="Helvetica,sans-Serif" font-size="10.00">Factory</text>
</a>
</g>
</g>
<!-- Node7&#45;&gt;Node5 -->
<g id="edge6" class="edge"><title>Node7&#45;&gt;Node5</title>
<path fill="none" stroke="#9a32cd" stroke-dasharray="5,2" d="M674.42,-265.442C694.113,-280.152 721.715,-299.395 748,-313 801.096,-340.482 867.328,-362.621 906.212,-374.495"/>
<polygon fill="#9a32cd" stroke="#9a32cd" points="676.313,-262.486 666.227,-259.243 672.09,-268.068 676.313,-262.486"/>
<text text-anchor="middle" x="797" y="-358" font-family="Helvetica,sans-Serif" font-size="10.00"> myFactory</text>
</g>
<!-- Node8 -->
<g id="node8" class="node"><title>Node8</title>
<g id="a_node8"><a xlink:href="../../d9/db5/classengine_1_1_file_path_utility.html" target="_top" xlink:title="engine.FilePathUtility">
<polygon fill="white" stroke="black" points="267.5,-173.5 267.5,-192.5 382.5,-192.5 382.5,-173.5 267.5,-173.5"/>
<text text-anchor="middle" x="325" y="-180.5" font-family="Helvetica,sans-Serif" font-size="10.00">engine.FilePathUtility</text>
</a>
</g>
</g>
<!-- Node8&#45;&gt;Node7 -->
<g id="edge7" class="edge"><title>Node8&#45;&gt;Node7</title>
<path fill="none" stroke="#9a32cd" stroke-dasharray="5,2" d="M385.82,-194.439C437.306,-204.284 511.918,-218.552 567.881,-229.253"/>
<polygon fill="#9a32cd" stroke="#9a32cd" points="386.323,-190.972 375.844,-192.531 385.008,-197.847 386.323,-190.972"/>
<text text-anchor="middle" x="485" y="-228" font-family="Helvetica,sans-Serif" font-size="10.00"> myFilePathUtility</text>
</g>
<!-- Node8&#45;&gt;Node19 -->
<g id="edge24" class="edge"><title>Node8&#45;&gt;Node19</title>
<path fill="none" stroke="#9a32cd" stroke-dasharray="5,2" d="M369.073,-170.796C416.044,-158.171 493.656,-139.3 562,-132 636.244,-124.069 655.523,-126.682 730,-132 783.931,-135.851 845.098,-145.223 887.258,-152.476"/>
<polygon fill="#9a32cd" stroke="#9a32cd" points="367.977,-167.467 359.245,-173.467 369.813,-174.222 367.977,-167.467"/>
<text text-anchor="middle" x="646" y="-135" font-family="Helvetica,sans-Serif" font-size="10.00"> myFilePathUtility</text>
</g>
<!-- Node9 -->
<g id="node9" class="node"><title>Node9</title>
<g id="a_node9"><a xlink:href="../../df/d84/classengine_1_1level_1_1_level.html" target="_top" xlink:title="engine.level.Level">
<polygon fill="white" stroke="black" points="595.5,-381.5 595.5,-400.5 696.5,-400.5 696.5,-381.5 595.5,-381.5"/>
<text text-anchor="middle" x="646" y="-388.5" font-family="Helvetica,sans-Serif" font-size="10.00">engine.level.Level</text>
</a>
</g>
</g>
<!-- Node9&#45;&gt;Node1 -->
<g id="edge19" class="edge"><title>Node9&#45;&gt;Node1</title>
<path fill="none" stroke="#9a32cd" stroke-dasharray="5,2" d="M672.954,-376.529C692.878,-366.084 721.396,-352.541 748,-345 905.733,-300.291 951.67,-321.963 1114,-299 1123.76,-297.62 1134.1,-296.071 1144.15,-294.52"/>
<polygon fill="#9a32cd" stroke="#9a32cd" points="671.075,-373.565 663.909,-381.368 674.378,-379.737 671.075,-373.565"/>
<text text-anchor="middle" x="940" y="-323" font-family="Helvetica,sans-Serif" font-size="10.00"> myCurrentLevel</text>
</g>
<!-- Node9&#45;&gt;Node5 -->
<g id="edge8" class="edge"><title>Node9&#45;&gt;Node5</title>
<path fill="none" stroke="#9a32cd" stroke-dasharray="5,2" d="M706.727,-389.568C756.02,-388.386 825.772,-386.714 875.955,-385.511"/>
<polygon fill="#9a32cd" stroke="#9a32cd" points="706.447,-386.074 696.534,-389.813 706.615,-393.072 706.447,-386.074"/>
<text text-anchor="middle" x="797" y="-391" font-family="Helvetica,sans-Serif" font-size="10.00"> myCurrentLevel</text>
</g>
<!-- Node10 -->
<g id="node10" class="node"><title>Node10</title>
<g id="a_node10"><a xlink:href="../../d3/d8d/classdata_1_1_observable.html" target="_top" xlink:title="data.Observable">
<polygon fill="white" stroke="black" points="277.5,-337.5 277.5,-356.5 372.5,-356.5 372.5,-337.5 277.5,-337.5"/>
<text text-anchor="middle" x="325" y="-344.5" font-family="Helvetica,sans-Serif" font-size="10.00">data.Observable</text>
</a>
</g>
</g>
<!-- Node10&#45;&gt;Node9 -->
<g id="edge9" class="edge"><title>Node10&#45;&gt;Node9</title>
<path fill="none" stroke="midnightblue" d="M382.85,-354.841C443.23,-363.17 537.733,-376.205 595.257,-384.139"/>
<polygon fill="midnightblue" stroke="midnightblue" points="383.111,-351.344 372.727,-353.445 382.155,-358.279 383.111,-351.344"/>
</g>
<!-- Node11 -->
<g id="node11" class="node"><title>Node11</title>
<polygon fill="white" stroke="#bfbfbf" points="23,-337.5 23,-356.5 161,-356.5 161,-337.5 23,-337.5"/>
<text text-anchor="middle" x="92" y="-344.5" font-family="Helvetica,sans-Serif" font-size="10.00">Vector&lt; data.Observer &gt;</text>
</g>
<!-- Node11&#45;&gt;Node10 -->
<g id="edge10" class="edge"><title>Node11&#45;&gt;Node10</title>
<path fill="none" stroke="#9a32cd" stroke-dasharray="5,2" d="M171.318,-347C206.521,-347 246.882,-347 277.262,-347"/>
<polygon fill="#9a32cd" stroke="#9a32cd" points="171.058,-343.5 161.058,-347 171.058,-350.5 171.058,-343.5"/>
<text text-anchor="middle" x="213" y="-350" font-family="Helvetica,sans-Serif" font-size="10.00"> obs</text>
</g>
<!-- Node12 -->
<g id="node12" class="node"><title>Node12</title>
<g id="a_node12"><a xlink:href="../../dc/df6/interfaceengine_1_1game_object_1_1_identifiable.html" target="_top" xlink:title="engine.gameObject.Identifiable">
<polygon fill="white" stroke="black" points="242.5,-463.5 242.5,-482.5 407.5,-482.5 407.5,-463.5 242.5,-463.5"/>
<text text-anchor="middle" x="325" y="-470.5" font-family="Helvetica,sans-Serif" font-size="10.00">engine.gameObject.Identifiable</text>
</a>
</g>
</g>
<!-- Node12&#45;&gt;Node9 -->
<g id="edge11" class="edge"><title>Node12&#45;&gt;Node9</title>
<path fill="none" stroke="midnightblue" d="M417.777,-477.03C459.25,-474.763 507.107,-466.081 544,-442 556.703,-433.708 549.807,-422.025 562,-413 571.705,-405.816 583.578,-400.976 595.276,-397.715"/>
<polygon fill="midnightblue" stroke="midnightblue" points="417.499,-473.538 407.659,-477.465 417.8,-480.532 417.499,-473.538"/>
</g>
<!-- Node13 -->
<g id="node13" class="node"><title>Node13</title>
<g id="a_node13"><a xlink:href="../../d4/dac/classengine_1_1game_object_1_1_identifier.html" target="_top" xlink:title="engine.gameObject.Identifier">
<polygon fill="white" stroke="black" points="247.5,-425.5 247.5,-444.5 402.5,-444.5 402.5,-425.5 247.5,-425.5"/>
<text text-anchor="middle" x="325" y="-432.5" font-family="Helvetica,sans-Serif" font-size="10.00">engine.gameObject.Identifier</text>
</a>
</g>
</g>
<!-- Node13&#45;&gt;Node9 -->
<g id="edge12" class="edge"><title>Node13&#45;&gt;Node9</title>
<path fill="none" stroke="#9a32cd" stroke-dasharray="5,2" d="M412.742,-429.205C452.841,-425.871 501.004,-420.937 544,-414 565.482,-410.534 589.221,-405.206 608.284,-400.551"/>
<polygon fill="#9a32cd" stroke="#9a32cd" points="412.413,-425.72 402.729,-430.018 412.98,-432.697 412.413,-425.72"/>
<text text-anchor="middle" x="485" y="-430" font-family="Helvetica,sans-Serif" font-size="10.00"> myId</text>
</g>
<!-- Node14 -->
<g id="node14" class="node"><title>Node14</title>
<polygon fill="white" stroke="#bfbfbf" points="64,-425.5 64,-444.5 120,-444.5 120,-425.5 64,-425.5"/>
<text text-anchor="middle" x="92" y="-432.5" font-family="Helvetica,sans-Serif" font-size="10.00">Random</text>
</g>
<!-- Node14&#45;&gt;Node13 -->
<g id="edge13" class="edge"><title>Node14&#45;&gt;Node13</title>
<path fill="none" stroke="#9a32cd" stroke-dasharray="5,2" d="M130.511,-435C162.046,-435 208.136,-435 247.423,-435"/>
<polygon fill="#9a32cd" stroke="#9a32cd" points="130.406,-431.5 120.406,-435 130.406,-438.5 130.406,-431.5"/>
<text text-anchor="middle" x="213" y="-438" font-family="Helvetica,sans-Serif" font-size="10.00"> r</text>
</g>
<!-- Node15 -->
<g id="node15" class="node"><title>Node15</title>
<g id="a_node15"><a xlink:href="../../d1/d32/classauthoring_1_1model_1_1collections_1_1_game_objects_collection.html" target="_top" xlink:title="authoring.model.collections.\lGameObjectsCollection">
<polygon fill="white" stroke="black" points="249,-281 249,-311 401,-311 401,-281 249,-281"/>
<text text-anchor="start" x="257" y="-299" font-family="Helvetica,sans-Serif" font-size="10.00">authoring.model.collections.</text>
<text text-anchor="middle" x="325" y="-288" font-family="Helvetica,sans-Serif" font-size="10.00">GameObjectsCollection</text>
</a>
</g>
</g>
<!-- Node15&#45;&gt;Node1 -->
<g id="edge18" class="edge"><title>Node15&#45;&gt;Node1</title>
<path fill="none" stroke="#9a32cd" stroke-dasharray="5,2" d="M411.218,-294.931C584.022,-292.764 972.793,-287.887 1132.48,-285.884"/>
<polygon fill="#9a32cd" stroke="#9a32cd" points="411.107,-291.432 401.152,-295.057 411.195,-298.432 411.107,-291.432"/>
<text text-anchor="middle" x="797" y="-305" font-family="Helvetica,sans-Serif" font-size="10.00"> myTemplateObjects</text>
<text text-anchor="middle" x="797" y="-294" font-family="Helvetica,sans-Serif" font-size="10.00">myGameObjects</text>
</g>
<!-- Node15&#45;&gt;Node9 -->
<g id="edge14" class="edge"><title>Node15&#45;&gt;Node9</title>
<path fill="none" stroke="#9a32cd" stroke-dasharray="5,2" d="M411.136,-305.24C452.101,-311.284 501.439,-320.942 544,-336 576.94,-347.654 612.042,-369.076 630.957,-381.466"/>
<polygon fill="#9a32cd" stroke="#9a32cd" points="411.577,-301.768 401.183,-303.818 410.587,-308.697 411.577,-301.768"/>
<text text-anchor="middle" x="485" y="-350" font-family="Helvetica,sans-Serif" font-size="10.00"> myDefaultGameObjects</text>
<text text-anchor="middle" x="485" y="-339" font-family="Helvetica,sans-Serif" font-size="10.00">myWorkingGameObjects</text>
</g>
<!-- Node16 -->
<g id="node16" class="node"><title>Node16</title>
<g id="a_node16"><a xlink:href="../../d4/d3b/classauthoring_1_1model_1_1collections_1_1_general_collection.html" target="_top" xlink:title="authoring.model.collections.\lGeneralCollection\&lt; GameObject \&gt;">
<polygon fill="white" stroke="black" points="0.5,-281 0.5,-311 183.5,-311 183.5,-281 0.5,-281"/>
<text text-anchor="start" x="8.5" y="-299" font-family="Helvetica,sans-Serif" font-size="10.00">authoring.model.collections.</text>
<text text-anchor="middle" x="92" y="-288" font-family="Helvetica,sans-Serif" font-size="10.00">GeneralCollection&lt; GameObject &gt;</text>
</a>
</g>
</g>
<!-- Node16&#45;&gt;Node15 -->
<g id="edge15" class="edge"><title>Node16&#45;&gt;Node15</title>
<path fill="none" stroke="midnightblue" d="M193.843,-296C212.335,-296 231.337,-296 248.91,-296"/>
<polygon fill="midnightblue" stroke="midnightblue" points="193.634,-292.5 183.634,-296 193.634,-299.5 193.634,-292.5"/>
</g>
<!-- Node17 -->
<g id="node17" class="node"><title>Node17</title>
<polygon fill="white" stroke="#bfbfbf" points="254.5,-376 254.5,-406 395.5,-406 395.5,-376 254.5,-376"/>
<text text-anchor="start" x="262.5" y="-394" font-family="Helvetica,sans-Serif" font-size="10.00">List&lt; engine.gameObject.</text>
<text text-anchor="middle" x="325" y="-383" font-family="Helvetica,sans-Serif" font-size="10.00">Identifier &gt;</text>
</g>
<!-- Node17&#45;&gt;Node9 -->
<g id="edge16" class="edge"><title>Node17&#45;&gt;Node9</title>
<path fill="none" stroke="#9a32cd" stroke-dasharray="5,2" d="M405.726,-391C465.211,-391 544.633,-391 595.312,-391"/>
<polygon fill="#9a32cd" stroke="#9a32cd" points="405.612,-387.5 395.612,-391 405.612,-394.5 405.612,-387.5"/>
<text text-anchor="middle" x="485" y="-405" font-family="Helvetica,sans-Serif" font-size="10.00"> myConditionIdList</text>
<text text-anchor="middle" x="485" y="-394" font-family="Helvetica,sans-Serif" font-size="10.00">myGameObjectIdList</text>
</g>
<!-- Node18 -->
<g id="node18" class="node"><title>Node18</title>
<polygon fill="white" stroke="#bfbfbf" points="623,-422.5 623,-441.5 669,-441.5 669,-422.5 623,-422.5"/>
<text text-anchor="middle" x="646" y="-429.5" font-family="Helvetica,sans-Serif" font-size="10.00">Group</text>
</g>
<!-- Node18&#45;&gt;Node5 -->
<g id="edge17" class="edge"><title>Node18&#45;&gt;Node5</title>
<path fill="none" stroke="#9a32cd" stroke-dasharray="5,2" d="M679.227,-427.877C718.658,-422.7 787.404,-413.247 846,-403 862.071,-400.19 879.62,-396.712 895.101,-393.502"/>
<polygon fill="#9a32cd" stroke="#9a32cd" points="678.615,-424.427 669.151,-429.19 679.52,-431.368 678.615,-424.427"/>
<text text-anchor="middle" x="797" y="-421" font-family="Helvetica,sans-Serif" font-size="10.00"> myCanvas</text>
</g>
<!-- Node19&#45;&gt;Node1 -->
<g id="edge20" class="edge"><title>Node19&#45;&gt;Node1</title>
<path fill="none" stroke="#9a32cd" stroke-dasharray="5,2" d="M970.902,-176.038C1024.71,-201.298 1136.52,-253.79 1182.54,-275.393"/>
<polygon fill="#9a32cd" stroke="#9a32cd" points="972.098,-172.733 961.559,-171.652 969.123,-179.07 972.098,-172.733"/>
<text text-anchor="middle" x="1074" y="-245" font-family="Helvetica,sans-Serif" font-size="10.00"> mySoundPlayer</text>
</g>
<!-- Node20 -->
<g id="node20" class="node"><title>Node20</title>
<polygon fill="white" stroke="#bfbfbf" points="570,-190.5 570,-209.5 722,-209.5 722,-190.5 570,-190.5"/>
<text text-anchor="middle" x="646" y="-197.5" font-family="Helvetica,sans-Serif" font-size="10.00">Map&lt; String, MediaPlayer &gt;</text>
</g>
<!-- Node20&#45;&gt;Node19 -->
<g id="edge22" class="edge"><title>Node20&#45;&gt;Node19</title>
<path fill="none" stroke="#9a32cd" stroke-dasharray="5,2" d="M732.468,-190.972C767.674,-187.033 808.844,-182.141 846,-177 857.826,-175.364 870.47,-173.441 882.503,-171.528"/>
<polygon fill="#9a32cd" stroke="#9a32cd" points="731.778,-187.527 722.226,-192.111 732.551,-194.485 731.778,-187.527"/>
<text text-anchor="middle" x="797" y="-193" font-family="Helvetica,sans-Serif" font-size="10.00"> myMediaPlayerMap</text>
</g>
<!-- Node21 -->
<g id="node21" class="node"><title>Node21</title>
<polygon fill="white" stroke="#bfbfbf" points="577,-152.5 577,-171.5 715,-171.5 715,-152.5 577,-152.5"/>
<text text-anchor="middle" x="646" y="-159.5" font-family="Helvetica,sans-Serif" font-size="10.00">Map&lt; String, AudioClip &gt;</text>
</g>
<!-- Node21&#45;&gt;Node19 -->
<g id="edge23" class="edge"><title>Node21&#45;&gt;Node19</title>
<path fill="none" stroke="#9a32cd" stroke-dasharray="5,2" d="M725.323,-162C769.992,-162 825.515,-162 868.767,-162"/>
<polygon fill="#9a32cd" stroke="#9a32cd" points="725.093,-158.5 715.093,-162 725.092,-165.5 725.093,-158.5"/>
<text text-anchor="middle" x="797" y="-165" font-family="Helvetica,sans-Serif" font-size="10.00"> myAudioClipMap</text>
</g>
<!-- Node22 -->
<g id="node22" class="node"><title>Node22</title>
<g id="a_node22"><a xlink:href="../../db/d2a/classauthoring_1_1model_1_1collections_1_1_conditions_collection.html" target="_top" xlink:title="authoring.model.collections.\lConditionsCollection">
<polygon fill="white" stroke="black" points="864,-0 864,-30 1016,-30 1016,-0 864,-0"/>
<text text-anchor="start" x="872" y="-18" font-family="Helvetica,sans-Serif" font-size="10.00">authoring.model.collections.</text>
<text text-anchor="middle" x="940" y="-7" font-family="Helvetica,sans-Serif" font-size="10.00">ConditionsCollection</text>
</a>
</g>
</g>
<!-- Node22&#45;&gt;Node1 -->
<g id="edge25" class="edge"><title>Node22&#45;&gt;Node1</title>
<path fill="none" stroke="#9a32cd" stroke-dasharray="5,2" d="M1026.3,-11.0932C1056.86,-13.8342 1089.72,-22.0741 1114,-42 1190.23,-104.565 1201.17,-238.488 1202.74,-275.405"/>
<polygon fill="#9a32cd" stroke="#9a32cd" points="1026.26,-7.58182 1016.04,-10.3655 1025.77,-14.5643 1026.26,-7.58182"/>
<text text-anchor="middle" x="1074" y="-45" font-family="Helvetica,sans-Serif" font-size="10.00"> myConditions</text>
</g>
<!-- Node23 -->
<g id="node23" class="node"><title>Node23</title>
<g id="a_node23"><a xlink:href="../../d4/d3b/classauthoring_1_1model_1_1collections_1_1_general_collection.html" target="_top" xlink:title="authoring.model.collections.\lGeneralCollection\&lt; Condition \&gt;">
<polygon fill="white" stroke="black" points="562,-0 562,-30 730,-30 730,-0 562,-0"/>
<text text-anchor="start" x="570" y="-18" font-family="Helvetica,sans-Serif" font-size="10.00">authoring.model.collections.</text>
<text text-anchor="middle" x="646" y="-7" font-family="Helvetica,sans-Serif" font-size="10.00">GeneralCollection&lt; Condition &gt;</text>
</a>
</g>
</g>
<!-- Node23&#45;&gt;Node22 -->
<g id="edge26" class="edge"><title>Node23&#45;&gt;Node22</title>
<path fill="none" stroke="midnightblue" d="M740.523,-15C780.286,-15 826.039,-15 863.588,-15"/>
<polygon fill="midnightblue" stroke="midnightblue" points="740.285,-11.5001 730.285,-15 740.285,-18.5001 740.285,-11.5001"/>
</g>
</g>
</svg>
        <g id="navigator" transform="translate(0 0)" fill="#404254">
                <rect fill="#f2f5e9" fill-opacity="0.5" stroke="#606060" stroke-width=".5" x="0" y="0" width="60" height="60"/>
                <use id="zoomplus" xlink:href="#zoomPlus" x="17" y="9" onmousedown="handleZoom(evt,'in')"/>
                <use id="zoomminus" xlink:href="#zoomMin" x="42" y="9" onmousedown="handleZoom(evt,'out')"/>
                <use id="reset" xlink:href="#resetDef" x="30" y="36" onmousedown="handleReset()"/>
                <g id="arrowUp" xlink:href="#dirArrow" transform="translate(30 24)" onmousedown="handlePan(0,-1)">
                  <use xlink:href="#rim" fill="#404040">
                        <set attributeName="fill" to="#808080" begin="arrowUp.mouseover" end="arrowUp.mouseout"/>
                  </use>
                  <path fill="none" stroke="white" stroke-width="1.5" d="M0,-3.0v7 M-2.5,-0.5L0,-3.0L2.5,-0.5"/>
                </g>
                <g id="arrowRight" xlink:href="#dirArrow" transform="rotate(90) translate(36 -43)" onmousedown="handlePan(1,0)">
                  <use xlink:href="#rim" fill="#404040">
                        <set attributeName="fill" to="#808080" begin="arrowRight.mouseover" end="arrowRight.mouseout"/>
                  </use>
                  <path fill="none" stroke="white" stroke-width="1.5" d="M0,-3.0v7 M-2.5,-0.5L0,-3.0L2.5,-0.5"/>
                </g>
                <g id="arrowDown" xlink:href="#dirArrow" transform="rotate(180) translate(-30 -48)" onmousedown="handlePan(0,1)">
                  <use xlink:href="#rim" fill="#404040">
                        <set attributeName="fill" to="#808080" begin="arrowDown.mouseover" end="arrowDown.mouseout"/>
                  </use>
                  <path fill="none" stroke="white" stroke-width="1.5" d="M0,-3.0v7 M-2.5,-0.5L0,-3.0L2.5,-0.5"/>
                </g>
                <g id="arrowLeft" xlink:href="#dirArrow" transform="rotate(270) translate(-36 17)" onmousedown="handlePan(-1,0)">
                  <use xlink:href="#rim" fill="#404040">
                        <set attributeName="fill" to="#808080" begin="arrowLeft.mouseover" end="arrowLeft.mouseout"/>
                  </use>
                  <path fill="none" stroke="white" stroke-width="1.5" d="M0,-3.0v7 M-2.5,-0.5L0,-3.0L2.5,-0.5"/>
                </g>
        </g>
        <svg viewBox="0 0 15 15" width="100%" height="30px" preserveAspectRatio="xMaxYMin meet">
         <g id="arrow_out" transform="scale(0.3 0.3)">
          <a xlink:href="classengine_1_1level_1_1_level_manager__coll__graph_org.svg" target="_base">
           <rect id="button" ry="5" rx="5" y="6" x="6" height="38" width="38"
                fill="#f2f5e9" fill-opacity="0.5" stroke="#606060" stroke-width="1.0"/>
           <path id="arrow"
             d="M 11.500037,31.436501 C 11.940474,20.09759 22.043105,11.32322 32.158766,21.979434 L 37.068811,17.246167 C 37.068811,17.246167 37.088388,32 37.088388,32 L 22.160133,31.978069 C 22.160133,31.978069 26.997745,27.140456 26.997745,27.140456 C 18.528582,18.264221 13.291696,25.230495 11.500037,31.436501 z"
             style="fill:#404040;"/>
          </a>
         </g>
        </svg>
</svg>
