<?xml version="1.0" encoding="UTF-8" standalone="no"?>
<!DOCTYPE svg PUBLIC "-//W3C//DTD SVG 1.1//EN"
 "http://www.w3.org/Graphics/SVG/1.1/DTD/svg11.dtd">
<!-- Generated by graphviz version 2.36.0 (20140111.2315)
 -->
<!-- Title: authoring.view.icons.ConditionIcon Pages: 1 -->
<!--zoomable 691 -->
<svg id="main" version="1.1" xmlns="http://www.w3.org/2000/svg" xmlns:xlink="http://www.w3.org/1999/xlink" xml:space="preserve" onload="init(evt)">
<style type="text/css"><![CDATA[
.edge:hover path { stroke: red; }
.edge:hover polygon { stroke: red; fill: red; }
]]></style>
<script type="text/javascript"><![CDATA[
var edges = document.getElementsByTagName('g');
if (edges && edges.length) {
  for (var i=0;i<edges.length;i++) {
    if (edges[i].id.substr(0,4)=='edge') {
      edges[i].setAttribute('class','edge');
    }
  }
}
]]></script>
        <defs>
                <circle id="rim" cx="0" cy="0" r="7"/>
                <circle id="rim2" cx="0" cy="0" r="3.5"/>
                <g id="zoomPlus">
                        <use xlink:href="#rim" fill="#404040">
                                <set attributeName="fill" to="#808080" begin="zoomplus.mouseover" end="zoomplus.mouseout"/>
                        </use>
                        <path d="M-4,0h8M0,-4v8" fill="none" stroke="white" stroke-width="1.5" pointer-events="none"/>
                </g>
                <g id="zoomMin">
                        <use xlink:href="#rim" fill="#404040">
                                <set attributeName="fill" to="#808080" begin="zoomminus.mouseover" end="zoomminus.mouseout"/>
                        </use>
                        <path d="M-4,0h8" fill="none" stroke="white" stroke-width="1.5" pointer-events="none"/>
                </g>
                <g id="dirArrow">
                        <path fill="none" stroke="white" stroke-width="1.5" d="M0,-3.0v7 M-2.5,-0.5L0,-3.0L2.5,-0.5"/>
                </g>
               <g id="resetDef">
                       <use xlink:href="#rim2" fill="#404040">
                               <set attributeName="fill" to="#808080" begin="reset.mouseover" end="reset.mouseout"/>
                       </use>
               </g>
        </defs>

<script type="text/javascript">
var viewWidth = 2176;
var viewHeight = 691;
var sectionId = 'dynsection-1';
</script>
<script xlink:href="../../svgpan.js"/>
<svg id="graph" class="graph">
<g id="viewport">
<title>authoring.view.icons.ConditionIcon</title>
<polygon fill="white" stroke="none" points="-4,4 -4,-687 2172,-687 2172,4 -4,4"/>
<!-- Node1 -->
<g id="node1" class="node"><title>Node1</title>
<polygon fill="#bfbfbf" stroke="black" points="1988,-607.5 1988,-626.5 2168,-626.5 2168,-607.5 1988,-607.5"/>
<text text-anchor="middle" x="2078" y="-614.5" font-family="Helvetica,sans-Serif" font-size="10.00">authoring.view.icons.ConditionIcon</text>
</g>
<!-- Node2 -->
<g id="node2" class="node"><title>Node2</title>
<g id="a_node2"><a xlink:href="../../d9/df7/classauthoring_1_1view_1_1icons_1_1_text_icon.html" target="_top" xlink:title="authoring.view.icons.TextIcon">
<polygon fill="white" stroke="black" points="1734,-607.5 1734,-626.5 1888,-626.5 1888,-607.5 1734,-607.5"/>
<text text-anchor="middle" x="1811" y="-614.5" font-family="Helvetica,sans-Serif" font-size="10.00">authoring.view.icons.TextIcon</text>
</a>
</g>
</g>
<!-- Node2&#45;&gt;Node1 -->
<g id="edge1" class="edge"><title>Node2&#45;&gt;Node1</title>
<path fill="none" stroke="midnightblue" d="M1898.65,-617C1927.18,-617 1958.95,-617 1987.68,-617"/>
<polygon fill="midnightblue" stroke="midnightblue" points="1898.29,-613.5 1888.29,-617 1898.29,-620.5 1898.29,-613.5"/>
</g>
<!-- Node3 -->
<g id="node3" class="node"><title>Node3</title>
<g id="a_node3"><a xlink:href="../../dd/db4/classauthoring_1_1view_1_1icons_1_1_base_icon.html" target="_top" xlink:title="authoring.view.icons.BaseIcon">
<polygon fill="white" stroke="black" points="1444.5,-603.5 1444.5,-622.5 1603.5,-622.5 1603.5,-603.5 1444.5,-603.5"/>
<text text-anchor="middle" x="1524" y="-610.5" font-family="Helvetica,sans-Serif" font-size="10.00">authoring.view.icons.BaseIcon</text>
</a>
</g>
</g>
<!-- Node3&#45;&gt;Node2 -->
<g id="edge2" class="edge"><title>Node3&#45;&gt;Node2</title>
<path fill="none" stroke="midnightblue" d="M1613.77,-614.246C1652.18,-614.785 1696.69,-615.41 1733.59,-615.928"/>
<polygon fill="midnightblue" stroke="midnightblue" points="1613.68,-610.744 1603.63,-614.104 1613.58,-617.744 1613.68,-610.744"/>
</g>
<!-- Node4 -->
<g id="node4" class="node"><title>Node4</title>
<polygon fill="white" stroke="#bfbfbf" points="1216.5,-603.5 1216.5,-622.5 1257.5,-622.5 1257.5,-603.5 1216.5,-603.5"/>
<text text-anchor="middle" x="1237" y="-610.5" font-family="Helvetica,sans-Serif" font-size="10.00">VBox</text>
</g>
<!-- Node4&#45;&gt;Node3 -->
<g id="edge3" class="edge"><title>Node4&#45;&gt;Node3</title>
<path fill="none" stroke="midnightblue" d="M1267.82,-613C1309.26,-613 1385.74,-613 1444.21,-613"/>
<polygon fill="midnightblue" stroke="midnightblue" points="1267.59,-609.5 1257.59,-613 1267.59,-616.5 1267.59,-609.5"/>
</g>
<!-- Node5 -->
<g id="node5" class="node"><title>Node5</title>
<g id="a_node5"><a xlink:href="../../d3/d6a/interfaceauthoring_1_1eventhandlers_1_1_game_handler.html" target="_top" xlink:title="authoring.eventhandlers.\lGameHandler\&lt; T extends\l Event \&gt;">
<polygon fill="white" stroke="black" points="1166.5,-641.5 1166.5,-682.5 1307.5,-682.5 1307.5,-641.5 1166.5,-641.5"/>
<text text-anchor="start" x="1174.5" y="-670.5" font-family="Helvetica,sans-Serif" font-size="10.00">authoring.eventhandlers.</text>
<text text-anchor="start" x="1174.5" y="-659.5" font-family="Helvetica,sans-Serif" font-size="10.00">GameHandler&lt; T extends</text>
<text text-anchor="middle" x="1237" y="-648.5" font-family="Helvetica,sans-Serif" font-size="10.00"> Event &gt;</text>
</a>
</g>
</g>
<!-- Node5&#45;&gt;Node3 -->
<g id="edge4" class="edge"><title>Node5&#45;&gt;Node3</title>
<path fill="none" stroke="#9a32cd" stroke-dasharray="5,2" d="M1317.7,-648.297C1365.36,-640.103 1424.73,-629.895 1467.35,-622.568"/>
<polygon fill="#9a32cd" stroke="#9a32cd" points="1316.98,-644.869 1307.72,-650.013 1318.17,-651.768 1316.98,-644.869"/>
<text text-anchor="middle" x="1379" y="-647" font-family="Helvetica,sans-Serif" font-size="10.00"> myOnClick</text>
</g>
<!-- Node6 -->
<g id="node6" class="node"><title>Node6</title>
<polygon fill="white" stroke="#bfbfbf" points="864,-652.5 864,-671.5 1040,-671.5 1040,-652.5 864,-652.5"/>
<text text-anchor="middle" x="952" y="-659.5" font-family="Helvetica,sans-Serif" font-size="10.00">javafx::event::EventHandler&lt; T &gt;</text>
</g>
<!-- Node6&#45;&gt;Node5 -->
<g id="edge5" class="edge"><title>Node6&#45;&gt;Node5</title>
<path fill="none" stroke="midnightblue" d="M1050.3,-662C1088.37,-662 1131.19,-662 1166.11,-662"/>
<polygon fill="midnightblue" stroke="midnightblue" points="1050.22,-658.5 1040.22,-662 1050.22,-665.5 1050.22,-658.5"/>
</g>
<!-- Node7 -->
<g id="node7" class="node"><title>Node7</title>
<g id="a_node7"><a xlink:href="../../d7/d83/interfaceauthoring_1_1view_1_1icons_1_1_i_properties_maker.html" target="_top" xlink:title="authoring.view.icons.IProperties\lMaker">
<polygon fill="white" stroke="black" points="1440.5,-643 1440.5,-673 1607.5,-673 1607.5,-643 1440.5,-643"/>
<text text-anchor="start" x="1448.5" y="-661" font-family="Helvetica,sans-Serif" font-size="10.00">authoring.view.icons.IProperties</text>
<text text-anchor="middle" x="1524" y="-650" font-family="Helvetica,sans-Serif" font-size="10.00">Maker</text>
</a>
</g>
</g>
<!-- Node7&#45;&gt;Node1 -->
<g id="edge7" class="edge"><title>Node7&#45;&gt;Node1</title>
<path fill="none" stroke="midnightblue" d="M1617.76,-654.315C1707.88,-650.275 1848.53,-642.759 1970,-631 1982.87,-629.754 1996.57,-628.163 2009.73,-626.503"/>
<polygon fill="midnightblue" stroke="midnightblue" points="1617.4,-650.827 1607.57,-654.766 1617.71,-657.82 1617.4,-650.827"/>
</g>
<!-- Node7&#45;&gt;Node2 -->
<g id="edge6" class="edge"><title>Node7&#45;&gt;Node2</title>
<path fill="none" stroke="midnightblue" d="M1617.84,-644.644C1658.92,-638.734 1706.29,-631.919 1743.72,-626.535"/>
<polygon fill="midnightblue" stroke="midnightblue" points="1617.22,-641.198 1607.82,-646.086 1618.21,-648.126 1617.22,-641.198"/>
</g>
<!-- Node8 -->
<g id="node8" class="node"><title>Node8</title>
<g id="a_node8"><a xlink:href="../../d1/d3b/classengine_1_1conditions_1_1_condition.html" target="_top" xlink:title="engine.conditions.Condition">
<polygon fill="white" stroke="black" points="1736.5,-104.5 1736.5,-123.5 1885.5,-123.5 1885.5,-104.5 1736.5,-104.5"/>
<text text-anchor="middle" x="1811" y="-111.5" font-family="Helvetica,sans-Serif" font-size="10.00">engine.conditions.Condition</text>
</a>
</g>
</g>
<!-- Node8&#45;&gt;Node1 -->
<g id="edge8" class="edge"><title>Node8&#45;&gt;Node1</title>
<path fill="none" stroke="#9a32cd" stroke-dasharray="5,2" d="M1821.79,-132.575C1865.21,-214.993 2039.72,-546.244 2071.89,-607.3"/>
<polygon fill="#9a32cd" stroke="#9a32cd" points="1824.81,-130.815 1817.06,-123.599 1818.62,-134.078 1824.81,-130.815"/>
<text text-anchor="middle" x="1938" y="-414" font-family="Helvetica,sans-Serif" font-size="10.00"> myCondition</text>
</g>
<!-- Node9 -->
<g id="node9" class="node"><title>Node9</title>
<g id="a_node9"><a xlink:href="../../dc/df6/interfaceengine_1_1game_object_1_1_identifiable.html" target="_top" xlink:title="engine.gameObject.Identifiable">
<polygon fill="white" stroke="black" points="242.5,-75.5 242.5,-94.5 407.5,-94.5 407.5,-75.5 242.5,-75.5"/>
<text text-anchor="middle" x="325" y="-82.5" font-family="Helvetica,sans-Serif" font-size="10.00">engine.gameObject.Identifiable</text>
</a>
</g>
</g>
<!-- Node9&#45;&gt;Node8 -->
<g id="edge9" class="edge"><title>Node9&#45;&gt;Node8</title>
<path fill="none" stroke="midnightblue" d="M417.631,-81.0445C481.38,-78.6285 568.349,-76 645,-76 645,-76 645,-76 1525,-76 1610.86,-76 1710,-93.1538 1765.81,-104.411"/>
<polygon fill="midnightblue" stroke="midnightblue" points="417.462,-77.5483 407.604,-81.43 417.731,-84.5432 417.462,-77.5483"/>
</g>
<!-- Node22 -->
<g id="node22" class="node"><title>Node22</title>
<g id="a_node22"><a xlink:href="../../df/d84/classengine_1_1level_1_1_level.html" target="_top" xlink:title="engine.level.Level">
<polygon fill="white" stroke="black" points="595.5,-295.5 595.5,-314.5 696.5,-314.5 696.5,-295.5 595.5,-295.5"/>
<text text-anchor="middle" x="646" y="-302.5" font-family="Helvetica,sans-Serif" font-size="10.00">engine.level.Level</text>
</a>
</g>
</g>
<!-- Node9&#45;&gt;Node22 -->
<g id="edge26" class="edge"><title>Node9&#45;&gt;Node22</title>
<path fill="none" stroke="midnightblue" d="M388.926,-98.8018C396.066,-102.472 402.676,-107.119 408,-113 431.586,-139.055 405.919,-161.157 426,-190 461.92,-241.594 492.284,-232.255 544,-268 552.118,-273.611 553.129,-276.677 562,-281 574.27,-286.98 588.305,-291.741 601.299,-295.395"/>
<polygon fill="midnightblue" stroke="midnightblue" points="390.212,-95.543 379.655,-94.6545 387.354,-101.933 390.212,-95.543"/>
</g>
<!-- Node10 -->
<g id="node10" class="node"><title>Node10</title>
<g id="a_node10"><a xlink:href="../../d2/d15/interfaceengine_1_1actions_1_1_initializable.html" target="_top" xlink:title="engine.actions.Initializable">
<polygon fill="white" stroke="black" points="1453,-28.5 1453,-47.5 1595,-47.5 1595,-28.5 1453,-28.5"/>
<text text-anchor="middle" x="1524" y="-35.5" font-family="Helvetica,sans-Serif" font-size="10.00">engine.actions.Initializable</text>
</a>
</g>
</g>
<!-- Node10&#45;&gt;Node8 -->
<g id="edge10" class="edge"><title>Node10&#45;&gt;Node8</title>
<path fill="none" stroke="midnightblue" d="M1605.43,-41.3067C1640.11,-44.4583 1680.72,-50.4977 1716,-62 1746.68,-72.0006 1778.82,-92.2321 1796.44,-104.3"/>
<polygon fill="midnightblue" stroke="midnightblue" points="1605.61,-37.8091 1595.35,-40.4554 1605.02,-44.7843 1605.61,-37.8091"/>
</g>
<!-- Node11 -->
<g id="node11" class="node"><title>Node11</title>
<g id="a_node11"><a xlink:href="../../d4/dac/classengine_1_1game_object_1_1_identifier.html" target="_top" xlink:title="engine.gameObject.Identifier">
<polygon fill="white" stroke="black" points="247.5,-9.5 247.5,-28.5 402.5,-28.5 402.5,-9.5 247.5,-9.5"/>
<text text-anchor="middle" x="325" y="-16.5" font-family="Helvetica,sans-Serif" font-size="10.00">engine.gameObject.Identifier</text>
</a>
</g>
</g>
<!-- Node11&#45;&gt;Node8 -->
<g id="edge11" class="edge"><title>Node11&#45;&gt;Node8</title>
<path fill="none" stroke="#9a32cd" stroke-dasharray="5,2" d="M412.693,-11.0423C476.801,-5.83833 566.269,-0 645,-0 645,-0 645,-0 1525,-0 1611.73,-0 1637.41,-3.31924 1716,-40 1751.19,-56.4262 1785.13,-88.34 1800.87,-104.35"/>
<polygon fill="#9a32cd" stroke="#9a32cd" points="412.306,-7.56219 402.627,-11.871 412.88,-14.5386 412.306,-7.56219"/>
<text text-anchor="middle" x="1098" y="-3" font-family="Helvetica,sans-Serif" font-size="10.00"> myId</text>
</g>
<!-- Node11&#45;&gt;Node22 -->
<g id="edge27" class="edge"><title>Node11&#45;&gt;Node22</title>
<path fill="none" stroke="#9a32cd" stroke-dasharray="5,2" d="M360.225,-32.65C410.063,-54.506 501.308,-102.417 544,-175 568.227,-216.189 530.177,-245.352 562,-281 570.591,-290.623 582.776,-296.49 595.172,-300.037"/>
<polygon fill="#9a32cd" stroke="#9a32cd" points="361.406,-29.3484 350.836,-28.6266 358.649,-35.7825 361.406,-29.3484"/>
<text text-anchor="middle" x="485" y="-178" font-family="Helvetica,sans-Serif" font-size="10.00"> myId</text>
</g>
<!-- Node12 -->
<g id="node12" class="node"><title>Node12</title>
<polygon fill="white" stroke="#bfbfbf" points="64,-9.5 64,-28.5 120,-28.5 120,-9.5 64,-9.5"/>
<text text-anchor="middle" x="92" y="-16.5" font-family="Helvetica,sans-Serif" font-size="10.00">Random</text>
</g>
<!-- Node12&#45;&gt;Node11 -->
<g id="edge12" class="edge"><title>Node12&#45;&gt;Node11</title>
<path fill="none" stroke="#9a32cd" stroke-dasharray="5,2" d="M130.511,-19C162.046,-19 208.136,-19 247.423,-19"/>
<polygon fill="#9a32cd" stroke="#9a32cd" points="130.406,-15.5001 120.406,-19 130.406,-22.5001 130.406,-15.5001"/>
<text text-anchor="middle" x="213" y="-22" font-family="Helvetica,sans-Serif" font-size="10.00"> r</text>
</g>
<!-- Node13 -->
<g id="node13" class="node"><title>Node13</title>
<g id="a_node13"><a xlink:href="../../d6/d94/classengine_1_1_game_manager.html" target="_top" xlink:title="engine.GameManager">
<polygon fill="white" stroke="black" points="1462.5,-385.5 1462.5,-404.5 1585.5,-404.5 1585.5,-385.5 1462.5,-385.5"/>
<text text-anchor="middle" x="1524" y="-392.5" font-family="Helvetica,sans-Serif" font-size="10.00">engine.GameManager</text>
</a>
</g>
</g>
<!-- Node13&#45;&gt;Node8 -->
<g id="edge13" class="edge"><title>Node13&#45;&gt;Node8</title>
<path fill="none" stroke="#9a32cd" stroke-dasharray="5,2" d="M1542.16,-378.08C1595.7,-325.288 1758.6,-164.677 1800.23,-123.632"/>
<polygon fill="#9a32cd" stroke="#9a32cd" points="1539.47,-375.814 1534.81,-385.327 1544.39,-380.799 1539.47,-375.814"/>
<text text-anchor="middle" x="1671" y="-291" font-family="Helvetica,sans-Serif" font-size="10.00"> myGameManager</text>
</g>
<!-- Node14 -->
<g id="node14" class="node"><title>Node14</title>
<g id="a_node14"><a xlink:href="../../df/de5/classauthoring_1_1model_1_1collections_1_1_levels_collection.html" target="_top" xlink:title="authoring.model.collections.\lLevelsCollection">
<polygon fill="white" stroke="black" points="570,-123 570,-153 722,-153 722,-123 570,-123"/>
<text text-anchor="start" x="578" y="-141" font-family="Helvetica,sans-Serif" font-size="10.00">authoring.model.collections.</text>
<text text-anchor="middle" x="646" y="-130" font-family="Helvetica,sans-Serif" font-size="10.00">LevelsCollection</text>
</a>
</g>
</g>
<!-- Node14&#45;&gt;Node13 -->
<g id="edge14" class="edge"><title>Node14&#45;&gt;Node13</title>
<path fill="none" stroke="#9a32cd" stroke-dasharray="5,2" d="M732.369,-135.898C767.561,-135.355 808.746,-135.136 846,-136 932.292,-138.001 955.05,-129.709 1040,-145 1167.68,-167.983 1196.91,-187.432 1318,-234 1365.34,-252.207 1381.17,-250.907 1422,-281 1464.36,-312.218 1501.89,-363.788 1516.51,-385.205"/>
<polygon fill="#9a32cd" stroke="#9a32cd" points="732.073,-132.402 722.133,-136.068 732.189,-139.402 732.073,-132.402"/>
<text text-anchor="middle" x="1098" y="-170" font-family="Helvetica,sans-Serif" font-size="10.00"> myLevels</text>
</g>
<!-- Node16 -->
<g id="node16" class="node"><title>Node16</title>
<g id="a_node16"><a xlink:href="../../df/d67/classengine_1_1level_1_1_level_manager.html" target="_top" xlink:title="engine.level.LevelManager">
<polygon fill="white" stroke="black" points="1165.5,-300.5 1165.5,-319.5 1308.5,-319.5 1308.5,-300.5 1165.5,-300.5"/>
<text text-anchor="middle" x="1237" y="-307.5" font-family="Helvetica,sans-Serif" font-size="10.00">engine.level.LevelManager</text>
</a>
</g>
</g>
<!-- Node14&#45;&gt;Node16 -->
<g id="edge18" class="edge"><title>Node14&#45;&gt;Node16</title>
<path fill="none" stroke="#9a32cd" stroke-dasharray="5,2" d="M732.177,-138.331C813.206,-140.871 937.594,-150.618 1040,-184 1119.23,-209.827 1197.86,-275.676 1225.56,-300.414"/>
<polygon fill="#9a32cd" stroke="#9a32cd" points="732.119,-134.828 722.024,-138.043 731.92,-141.825 732.119,-134.828"/>
<text text-anchor="middle" x="952" y="-187" font-family="Helvetica,sans-Serif" font-size="10.00"> myLevels</text>
</g>
<!-- Node29 -->
<g id="node29" class="node"><title>Node29</title>
<g id="a_node29"><a xlink:href="../../da/d90/classengine_1_1sound_1_1_sound_utility.html" target="_top" xlink:title="engine.sound.SoundUtility">
<polygon fill="white" stroke="black" points="881,-204.5 881,-223.5 1023,-223.5 1023,-204.5 881,-204.5"/>
<text text-anchor="middle" x="952" y="-211.5" font-family="Helvetica,sans-Serif" font-size="10.00">engine.sound.SoundUtility</text>
</a>
</g>
</g>
<!-- Node14&#45;&gt;Node29 -->
<g id="edge35" class="edge"><title>Node14&#45;&gt;Node29</title>
<path fill="none" stroke="#9a32cd" stroke-dasharray="5,2" d="M731.983,-153.206C767.452,-160.147 808.945,-169.045 846,-179 873.279,-186.329 903.851,-196.782 924.94,-204.354"/>
<polygon fill="#9a32cd" stroke="#9a32cd" points="732.63,-149.766 722.147,-151.301 731.299,-156.639 732.63,-149.766"/>
<text text-anchor="middle" x="797" y="-182" font-family="Helvetica,sans-Serif" font-size="10.00"> myLevels</text>
</g>
<!-- Node15 -->
<g id="node15" class="node"><title>Node15</title>
<g id="a_node15"><a xlink:href="../../d4/d3b/classauthoring_1_1model_1_1collections_1_1_general_collection.html" target="_top" xlink:title="authoring.model.collections.\lGeneralCollection\&lt; Level \&gt;">
<polygon fill="white" stroke="black" points="249,-123 249,-153 401,-153 401,-123 249,-123"/>
<text text-anchor="start" x="257" y="-141" font-family="Helvetica,sans-Serif" font-size="10.00">authoring.model.collections.</text>
<text text-anchor="middle" x="325" y="-130" font-family="Helvetica,sans-Serif" font-size="10.00">GeneralCollection&lt; Level &gt;</text>
</a>
</g>
</g>
<!-- Node15&#45;&gt;Node14 -->
<g id="edge15" class="edge"><title>Node15&#45;&gt;Node14</title>
<path fill="none" stroke="midnightblue" d="M411.216,-138C460.588,-138 522.186,-138 569.758,-138"/>
<polygon fill="midnightblue" stroke="midnightblue" points="411.195,-134.5 401.195,-138 411.195,-141.5 411.195,-134.5"/>
</g>
<!-- Node16&#45;&gt;Node13 -->
<g id="edge16" class="edge"><title>Node16&#45;&gt;Node13</title>
<path fill="none" stroke="#9a32cd" stroke-dasharray="5,2" d="M1306.53,-321.432C1341.54,-328.139 1384.54,-337.726 1422,-350 1451.73,-359.742 1484.55,-375.322 1504.47,-385.356"/>
<polygon fill="#9a32cd" stroke="#9a32cd" points="1306.89,-317.938 1296.41,-319.53 1305.59,-324.817 1306.89,-317.938"/>
<text text-anchor="middle" x="1379" y="-353" font-family="Helvetica,sans-Serif" font-size="10.00"> myLevelManager</text>
</g>
<!-- Node17 -->
<g id="node17" class="node"><title>Node17</title>
<polygon fill="white" stroke="#bfbfbf" points="902,-242.5 902,-261.5 1002,-261.5 1002,-242.5 902,-242.5"/>
<text text-anchor="middle" x="952" y="-249.5" font-family="Helvetica,sans-Serif" font-size="10.00">Iterable&lt; Level &gt;</text>
</g>
<!-- Node17&#45;&gt;Node16 -->
<g id="edge17" class="edge"><title>Node17&#45;&gt;Node16</title>
<path fill="none" stroke="midnightblue" d="M1012.15,-262.512C1048.53,-269.146 1096.05,-278.114 1138,-287 1157.49,-291.129 1179.06,-296.141 1196.98,-300.432"/>
<polygon fill="midnightblue" stroke="midnightblue" points="1012.66,-259.048 1002.19,-260.705 1011.41,-265.935 1012.66,-259.048"/>
</g>
<!-- Node18 -->
<g id="node18" class="node"><title>Node18</title>
<g id="a_node18"><a xlink:href="../../dd/d8d/classengine_1_1render_1_1_renderer.html" target="_top" xlink:title="engine.render.Renderer">
<polygon fill="white" stroke="black" points="888,-369.5 888,-388.5 1016,-388.5 1016,-369.5 888,-369.5"/>
<text text-anchor="middle" x="952" y="-376.5" font-family="Helvetica,sans-Serif" font-size="10.00">engine.render.Renderer</text>
</a>
</g>
</g>
<!-- Node18&#45;&gt;Node13 -->
<g id="edge42" class="edge"><title>Node18&#45;&gt;Node13</title>
<path fill="none" stroke="#9a32cd" stroke-dasharray="5,2" d="M1026.41,-380.971C1100.12,-382.959 1216.93,-386.136 1318,-389 1366.58,-390.376 1421.64,-391.991 1462.45,-393.198"/>
<polygon fill="#9a32cd" stroke="#9a32cd" points="1026.39,-377.469 1016.3,-380.698 1026.2,-384.467 1026.39,-377.469"/>
<text text-anchor="middle" x="1237" y="-392" font-family="Helvetica,sans-Serif" font-size="10.00"> myGameObjectRenderer</text>
</g>
<!-- Node18&#45;&gt;Node16 -->
<g id="edge19" class="edge"><title>Node18&#45;&gt;Node16</title>
<path fill="none" stroke="#9a32cd" stroke-dasharray="5,2" d="M1002.43,-366.998C1039.7,-357.945 1092.06,-345.212 1138,-334 1157.4,-329.265 1178.96,-323.988 1196.9,-319.59"/>
<polygon fill="#9a32cd" stroke="#9a32cd" points="1001.23,-363.688 992.341,-369.449 1002.89,-370.49 1001.23,-363.688"/>
<text text-anchor="middle" x="1098" y="-356" font-family="Helvetica,sans-Serif" font-size="10.00"> myRenderer</text>
</g>
<!-- Node19 -->
<g id="node19" class="node"><title>Node19</title>
<polygon fill="white" stroke="#bfbfbf" points="564,-429 564,-459 728,-459 728,-429 564,-429"/>
<text text-anchor="start" x="572" y="-447" font-family="Helvetica,sans-Serif" font-size="10.00">Map&lt; Identifier, engine.render.</text>
<text text-anchor="middle" x="646" y="-436" font-family="Helvetica,sans-Serif" font-size="10.00">RenderedNode &gt;</text>
</g>
<!-- Node19&#45;&gt;Node18 -->
<g id="edge20" class="edge"><title>Node19&#45;&gt;Node18</title>
<path fill="none" stroke="#9a32cd" stroke-dasharray="5,2" d="M738.254,-439.273C772.431,-436.108 811.357,-430.824 846,-422 877.306,-414.026 911.593,-398.622 932.194,-388.579"/>
<polygon fill="#9a32cd" stroke="#9a32cd" points="737.936,-435.788 728.281,-440.15 738.549,-442.761 737.936,-435.788"/>
<text text-anchor="middle" x="797" y="-442" font-family="Helvetica,sans-Serif" font-size="10.00"> myRenderedNodes</text>
</g>
<!-- Node20 -->
<g id="node20" class="node"><title>Node20</title>
<g id="a_node20"><a xlink:href="../../d5/d30/classengine_1_1render_1_1_rendered_node_factory.html" target="_top" xlink:title="engine.render.RenderedNode\lFactory">
<polygon fill="white" stroke="black" points="568,-341 568,-371 724,-371 724,-341 568,-341"/>
<text text-anchor="start" x="576" y="-359" font-family="Helvetica,sans-Serif" font-size="10.00">engine.render.RenderedNode</text>
<text text-anchor="middle" x="646" y="-348" font-family="Helvetica,sans-Serif" font-size="10.00">Factory</text>
</a>
</g>
</g>
<!-- Node20&#45;&gt;Node18 -->
<g id="edge21" class="edge"><title>Node20&#45;&gt;Node18</title>
<path fill="none" stroke="#9a32cd" stroke-dasharray="5,2" d="M734.242,-359.005C769.048,-360.563 809.459,-362.824 846,-366 859.542,-367.177 874.028,-368.76 887.781,-370.415"/>
<polygon fill="#9a32cd" stroke="#9a32cd" points="734.251,-355.502 724.108,-358.564 733.946,-362.495 734.251,-355.502"/>
<text text-anchor="middle" x="797" y="-369" font-family="Helvetica,sans-Serif" font-size="10.00"> myFactory</text>
</g>
<!-- Node21 -->
<g id="node21" class="node"><title>Node21</title>
<g id="a_node21"><a xlink:href="../../d9/db5/classengine_1_1_file_path_utility.html" target="_top" xlink:title="engine.FilePathUtility">
<polygon fill="white" stroke="black" points="267.5,-214.5 267.5,-233.5 382.5,-233.5 382.5,-214.5 267.5,-214.5"/>
<text text-anchor="middle" x="325" y="-221.5" font-family="Helvetica,sans-Serif" font-size="10.00">engine.FilePathUtility</text>
</a>
</g>
</g>
<!-- Node21&#45;&gt;Node20 -->
<g id="edge22" class="edge"><title>Node21&#45;&gt;Node20</title>
<path fill="none" stroke="#9a32cd" stroke-dasharray="5,2" d="M392.329,-231.685C398.19,-234.523 403.568,-238.216 408,-243 444.054,-281.917 385.758,-326.431 426,-361 446.771,-378.843 513.467,-375.03 567.851,-368.279"/>
<polygon fill="#9a32cd" stroke="#9a32cd" points="393.376,-228.335 382.79,-227.897 390.792,-234.841 393.376,-228.335"/>
<text text-anchor="middle" x="485" y="-377" font-family="Helvetica,sans-Serif" font-size="10.00"> myFilePathUtility</text>
</g>
<!-- Node21&#45;&gt;Node29 -->
<g id="edge38" class="edge"><title>Node21&#45;&gt;Node29</title>
<path fill="none" stroke="#9a32cd" stroke-dasharray="5,2" d="M392.985,-231.246C492.281,-240.671 684.226,-253.839 846,-235 867.789,-232.463 891.8,-227.803 911.355,-223.516"/>
<polygon fill="#9a32cd" stroke="#9a32cd" points="393.087,-227.74 382.796,-230.261 392.413,-234.707 393.087,-227.74"/>
<text text-anchor="middle" x="646" y="-248" font-family="Helvetica,sans-Serif" font-size="10.00"> myFilePathUtility</text>
</g>
<!-- Node22&#45;&gt;Node16 -->
<g id="edge33" class="edge"><title>Node22&#45;&gt;Node16</title>
<path fill="none" stroke="#9a32cd" stroke-dasharray="5,2" d="M706.91,-305.509C816.335,-306.437 1048.02,-308.404 1165.1,-309.398"/>
<polygon fill="#9a32cd" stroke="#9a32cd" points="706.74,-302.007 696.71,-305.422 706.68,-309.007 706.74,-302.007"/>
<text text-anchor="middle" x="952" y="-312" font-family="Helvetica,sans-Serif" font-size="10.00"> myCurrentLevel</text>
</g>
<!-- Node22&#45;&gt;Node18 -->
<g id="edge23" class="edge"><title>Node22&#45;&gt;Node18</title>
<path fill="none" stroke="#9a32cd" stroke-dasharray="5,2" d="M706.893,-315.185C746.612,-322.393 799.739,-332.904 846,-345 873.065,-352.077 903.411,-362.141 924.492,-369.482"/>
<polygon fill="#9a32cd" stroke="#9a32cd" points="707.3,-311.702 696.839,-313.379 706.063,-318.592 707.3,-311.702"/>
<text text-anchor="middle" x="797" y="-348" font-family="Helvetica,sans-Serif" font-size="10.00"> myCurrentLevel</text>
</g>
<!-- Node23 -->
<g id="node23" class="node"><title>Node23</title>
<g id="a_node23"><a xlink:href="../../d3/d8d/classdata_1_1_observable.html" target="_top" xlink:title="data.Observable">
<polygon fill="white" stroke="black" points="277.5,-302.5 277.5,-321.5 372.5,-321.5 372.5,-302.5 277.5,-302.5"/>
<text text-anchor="middle" x="325" y="-309.5" font-family="Helvetica,sans-Serif" font-size="10.00">data.Observable</text>
</a>
</g>
</g>
<!-- Node23&#45;&gt;Node22 -->
<g id="edge24" class="edge"><title>Node23&#45;&gt;Node22</title>
<path fill="none" stroke="midnightblue" d="M382.85,-310.753C443.23,-309.428 537.733,-307.354 595.257,-306.092"/>
<polygon fill="midnightblue" stroke="midnightblue" points="382.648,-307.256 372.727,-310.975 382.801,-314.254 382.648,-307.256"/>
</g>
<!-- Node24 -->
<g id="node24" class="node"><title>Node24</title>
<polygon fill="white" stroke="#bfbfbf" points="23,-302.5 23,-321.5 161,-321.5 161,-302.5 23,-302.5"/>
<text text-anchor="middle" x="92" y="-309.5" font-family="Helvetica,sans-Serif" font-size="10.00">Vector&lt; data.Observer &gt;</text>
</g>
<!-- Node24&#45;&gt;Node23 -->
<g id="edge25" class="edge"><title>Node24&#45;&gt;Node23</title>
<path fill="none" stroke="#9a32cd" stroke-dasharray="5,2" d="M171.318,-312C206.521,-312 246.882,-312 277.262,-312"/>
<polygon fill="#9a32cd" stroke="#9a32cd" points="171.058,-308.5 161.058,-312 171.058,-315.5 171.058,-308.5"/>
<text text-anchor="middle" x="213" y="-315" font-family="Helvetica,sans-Serif" font-size="10.00"> obs</text>
</g>
<!-- Node25 -->
<g id="node25" class="node"><title>Node25</title>
<g id="a_node25"><a xlink:href="../../d1/d32/classauthoring_1_1model_1_1collections_1_1_game_objects_collection.html" target="_top" xlink:title="authoring.model.collections.\lGameObjectsCollection">
<polygon fill="white" stroke="black" points="249,-394 249,-424 401,-424 401,-394 249,-394"/>
<text text-anchor="start" x="257" y="-412" font-family="Helvetica,sans-Serif" font-size="10.00">authoring.model.collections.</text>
<text text-anchor="middle" x="325" y="-401" font-family="Helvetica,sans-Serif" font-size="10.00">GameObjectsCollection</text>
</a>
</g>
</g>
<!-- Node25&#45;&gt;Node13 -->
<g id="edge43" class="edge"><title>Node25&#45;&gt;Node13</title>
<path fill="none" stroke="#9a32cd" stroke-dasharray="5,2" d="M349.041,-431.04C398.776,-476.194 521.694,-575 645,-575 645,-575 645,-575 1238,-575 1322.86,-575 1351.41,-571.105 1422,-524 1470.26,-491.791 1505.74,-428.999 1518.17,-404.818"/>
<polygon fill="#9a32cd" stroke="#9a32cd" points="351.153,-428.227 341.427,-424.024 346.409,-433.375 351.153,-428.227"/>
<text text-anchor="middle" x="952" y="-578" font-family="Helvetica,sans-Serif" font-size="10.00"> myGameObjects</text>
</g>
<!-- Node25&#45;&gt;Node16 -->
<g id="edge32" class="edge"><title>Node25&#45;&gt;Node16</title>
<path fill="none" stroke="#9a32cd" stroke-dasharray="5,2" d="M411.165,-406.927C548.448,-403.113 807.267,-393.795 846,-377 856.096,-372.622 854.069,-364.739 864,-360 915.828,-335.269 1072.62,-320.892 1165.28,-314.334"/>
<polygon fill="#9a32cd" stroke="#9a32cd" points="410.993,-403.43 401.093,-407.203 411.185,-410.428 410.993,-403.43"/>
<text text-anchor="middle" x="797" y="-406" font-family="Helvetica,sans-Serif" font-size="10.00"> myTemplateObjects</text>
<text text-anchor="middle" x="797" y="-395" font-family="Helvetica,sans-Serif" font-size="10.00">myGameObjects</text>
</g>
<!-- Node25&#45;&gt;Node22 -->
<g id="edge28" class="edge"><title>Node25&#45;&gt;Node22</title>
<path fill="none" stroke="#9a32cd" stroke-dasharray="5,2" d="M349.919,-387.481C369.098,-371.472 397.442,-350.485 426,-339 455.897,-326.976 540.426,-316.131 595.297,-310.07"/>
<polygon fill="#9a32cd" stroke="#9a32cd" points="347.621,-384.841 342.287,-393.995 352.165,-390.165 347.621,-384.841"/>
<text text-anchor="middle" x="485" y="-353" font-family="Helvetica,sans-Serif" font-size="10.00"> myDefaultGameObjects</text>
<text text-anchor="middle" x="485" y="-342" font-family="Helvetica,sans-Serif" font-size="10.00">myWorkingGameObjects</text>
</g>
<!-- Node26 -->
<g id="node26" class="node"><title>Node26</title>
<g id="a_node26"><a xlink:href="../../d4/d3b/classauthoring_1_1model_1_1collections_1_1_general_collection.html" target="_top" xlink:title="authoring.model.collections.\lGeneralCollection\&lt; GameObject \&gt;">
<polygon fill="white" stroke="black" points="0.5,-394 0.5,-424 183.5,-424 183.5,-394 0.5,-394"/>
<text text-anchor="start" x="8.5" y="-412" font-family="Helvetica,sans-Serif" font-size="10.00">authoring.model.collections.</text>
<text text-anchor="middle" x="92" y="-401" font-family="Helvetica,sans-Serif" font-size="10.00">GeneralCollection&lt; GameObject &gt;</text>
</a>
</g>
</g>
<!-- Node26&#45;&gt;Node25 -->
<g id="edge29" class="edge"><title>Node26&#45;&gt;Node25</title>
<path fill="none" stroke="midnightblue" d="M193.843,-409C212.335,-409 231.337,-409 248.91,-409"/>
<polygon fill="midnightblue" stroke="midnightblue" points="193.634,-405.5 183.634,-409 193.634,-412.5 193.634,-405.5"/>
</g>
<!-- Node27 -->
<g id="node27" class="node"><title>Node27</title>
<polygon fill="white" stroke="#bfbfbf" points="254.5,-253 254.5,-283 395.5,-283 395.5,-253 254.5,-253"/>
<text text-anchor="start" x="262.5" y="-271" font-family="Helvetica,sans-Serif" font-size="10.00">List&lt; engine.gameObject.</text>
<text text-anchor="middle" x="325" y="-260" font-family="Helvetica,sans-Serif" font-size="10.00">Identifier &gt;</text>
</g>
<!-- Node27&#45;&gt;Node22 -->
<g id="edge30" class="edge"><title>Node27&#45;&gt;Node22</title>
<path fill="none" stroke="#9a32cd" stroke-dasharray="5,2" d="M405.549,-270.057C446.991,-271.898 498.404,-275.388 544,-282 565.891,-285.175 590.062,-290.608 609.268,-295.397"/>
<polygon fill="#9a32cd" stroke="#9a32cd" points="405.649,-266.558 395.511,-269.634 405.354,-273.552 405.649,-266.558"/>
<text text-anchor="middle" x="485" y="-296" font-family="Helvetica,sans-Serif" font-size="10.00"> myConditionIdList</text>
<text text-anchor="middle" x="485" y="-285" font-family="Helvetica,sans-Serif" font-size="10.00">myGameObjectIdList</text>
</g>
<!-- Node28 -->
<g id="node28" class="node"><title>Node28</title>
<polygon fill="white" stroke="#bfbfbf" points="623,-527.5 623,-546.5 669,-546.5 669,-527.5 623,-527.5"/>
<text text-anchor="middle" x="646" y="-534.5" font-family="Helvetica,sans-Serif" font-size="10.00">Group</text>
</g>
<!-- Node28&#45;&gt;Node13 -->
<g id="edge45" class="edge"><title>Node28&#45;&gt;Node13</title>
<path fill="none" stroke="#9a32cd" stroke-dasharray="5,2" d="M679.435,-537.497C747.731,-537.675 910.713,-533.505 1040,-494 1095.71,-476.978 1100.24,-449.86 1156,-433 1211.72,-416.151 1373.31,-404.073 1462.35,-398.484"/>
<polygon fill="#9a32cd" stroke="#9a32cd" points="679.327,-533.997 669.306,-537.436 679.285,-540.996 679.327,-533.997"/>
<text text-anchor="middle" x="1098" y="-491" font-family="Helvetica,sans-Serif" font-size="10.00"> myRootGroup</text>
</g>
<!-- Node28&#45;&gt;Node18 -->
<g id="edge31" class="edge"><title>Node28&#45;&gt;Node18</title>
<path fill="none" stroke="#9a32cd" stroke-dasharray="5,2" d="M679.123,-532.274C694.931,-529.204 713.982,-524.365 730,-517 738.966,-512.878 739.58,-509.146 748,-504 789.721,-478.499 804.213,-479.391 846,-454 881.035,-432.712 919.636,-403.534 938.802,-388.624"/>
<polygon fill="#9a32cd" stroke="#9a32cd" points="678.491,-528.831 669.268,-534.044 679.729,-535.721 678.491,-528.831"/>
<text text-anchor="middle" x="797" y="-507" font-family="Helvetica,sans-Serif" font-size="10.00"> myCanvas</text>
</g>
<!-- Node29&#45;&gt;Node13 -->
<g id="edge46" class="edge"><title>Node29&#45;&gt;Node13</title>
<path fill="none" stroke="#9a32cd" stroke-dasharray="5,2" d="M1033.33,-219.472C1130.74,-229.011 1297.33,-254.841 1422,-324 1456.11,-342.924 1492.77,-370.826 1511.11,-385.376"/>
<polygon fill="#9a32cd" stroke="#9a32cd" points="1033.54,-215.976 1023.25,-218.519 1032.88,-222.945 1033.54,-215.976"/>
<text text-anchor="middle" x="1237" y="-281" font-family="Helvetica,sans-Serif" font-size="10.00"> mySoundUtility</text>
</g>
<!-- Node29&#45;&gt;Node16 -->
<g id="edge34" class="edge"><title>Node29&#45;&gt;Node16</title>
<path fill="none" stroke="#9a32cd" stroke-dasharray="5,2" d="M1007.83,-225.754C1018.51,-228.106 1029.61,-230.594 1040,-233 1083.69,-243.118 1096.16,-240.869 1138,-257 1169.04,-268.968 1202.61,-288.779 1221.3,-300.491"/>
<polygon fill="#9a32cd" stroke="#9a32cd" points="1008.27,-222.268 997.755,-223.548 1006.77,-229.106 1008.27,-222.268"/>
<text text-anchor="middle" x="1098" y="-260" font-family="Helvetica,sans-Serif" font-size="10.00"> mySoundPlayer</text>
</g>
<!-- Node30 -->
<g id="node30" class="node"><title>Node30</title>
<polygon fill="white" stroke="#bfbfbf" points="570,-172.5 570,-191.5 722,-191.5 722,-172.5 570,-172.5"/>
<text text-anchor="middle" x="646" y="-179.5" font-family="Helvetica,sans-Serif" font-size="10.00">Map&lt; String, MediaPlayer &gt;</text>
</g>
<!-- Node30&#45;&gt;Node29 -->
<g id="edge36" class="edge"><title>Node30&#45;&gt;Node29</title>
<path fill="none" stroke="#9a32cd" stroke-dasharray="5,2" d="M732.288,-190.978C779.177,-195.913 836.632,-201.961 880.886,-206.62"/>
<polygon fill="#9a32cd" stroke="#9a32cd" points="732.458,-187.476 722.146,-189.91 731.725,-194.438 732.458,-187.476"/>
<text text-anchor="middle" x="797" y="-206" font-family="Helvetica,sans-Serif" font-size="10.00"> myMediaPlayerMap</text>
</g>
<!-- Node31 -->
<g id="node31" class="node"><title>Node31</title>
<polygon fill="white" stroke="#bfbfbf" points="577,-210.5 577,-229.5 715,-229.5 715,-210.5 577,-210.5"/>
<text text-anchor="middle" x="646" y="-217.5" font-family="Helvetica,sans-Serif" font-size="10.00">Map&lt; String, AudioClip &gt;</text>
</g>
<!-- Node31&#45;&gt;Node29 -->
<g id="edge37" class="edge"><title>Node31&#45;&gt;Node29</title>
<path fill="none" stroke="#9a32cd" stroke-dasharray="5,2" d="M725.292,-219.719C761.955,-219.458 806.219,-218.957 846,-218 857.307,-217.728 869.296,-217.353 880.973,-216.941"/>
<polygon fill="#9a32cd" stroke="#9a32cd" points="725.14,-216.22 715.163,-219.787 725.186,-223.22 725.14,-216.22"/>
<text text-anchor="middle" x="797" y="-223" font-family="Helvetica,sans-Serif" font-size="10.00"> myAudioClipMap</text>
</g>
<!-- Node32 -->
<g id="node32" class="node"><title>Node32</title>
<g id="a_node32"><a xlink:href="../../db/d2a/classauthoring_1_1model_1_1collections_1_1_conditions_collection.html" target="_top" xlink:title="authoring.model.collections.\lConditionsCollection">
<polygon fill="white" stroke="black" points="876,-455 876,-485 1028,-485 1028,-455 876,-455"/>
<text text-anchor="start" x="884" y="-473" font-family="Helvetica,sans-Serif" font-size="10.00">authoring.model.collections.</text>
<text text-anchor="middle" x="952" y="-462" font-family="Helvetica,sans-Serif" font-size="10.00">ConditionsCollection</text>
</a>
</g>
</g>
<!-- Node32&#45;&gt;Node13 -->
<g id="edge47" class="edge"><title>Node32&#45;&gt;Node13</title>
<path fill="none" stroke="#9a32cd" stroke-dasharray="5,2" d="M1024.85,-487.253C1063.47,-495.649 1112.05,-504.817 1156,-509 1273.85,-520.218 1315.77,-547.251 1422,-495 1465.84,-473.436 1502.28,-425.408 1516.55,-404.753"/>
<polygon fill="#9a32cd" stroke="#9a32cd" points="1025.27,-483.761 1014.75,-485.025 1023.76,-490.597 1025.27,-483.761"/>
<text text-anchor="middle" x="1237" y="-529" font-family="Helvetica,sans-Serif" font-size="10.00"> myGameConditions</text>
</g>
<!-- Node32&#45;&gt;Node16 -->
<g id="edge39" class="edge"><title>Node32&#45;&gt;Node16</title>
<path fill="none" stroke="#9a32cd" stroke-dasharray="5,2" d="M993.816,-450.336C1032.2,-431.192 1090.68,-400.327 1138,-368 1146.6,-362.126 1147.37,-358.828 1156,-353 1175.34,-339.94 1199.06,-327.608 1215.62,-319.528"/>
<polygon fill="#9a32cd" stroke="#9a32cd" points="991.918,-447.37 984.509,-454.944 995.024,-453.643 991.918,-447.37"/>
<text text-anchor="middle" x="1098" y="-420" font-family="Helvetica,sans-Serif" font-size="10.00"> myConditions</text>
</g>
<!-- Node33 -->
<g id="node33" class="node"><title>Node33</title>
<g id="a_node33"><a xlink:href="../../d4/d3b/classauthoring_1_1model_1_1collections_1_1_general_collection.html" target="_top" xlink:title="authoring.model.collections.\lGeneralCollection\&lt; Condition \&gt;">
<polygon fill="white" stroke="black" points="562,-478 562,-508 730,-508 730,-478 562,-478"/>
<text text-anchor="start" x="570" y="-496" font-family="Helvetica,sans-Serif" font-size="10.00">authoring.model.collections.</text>
<text text-anchor="middle" x="646" y="-485" font-family="Helvetica,sans-Serif" font-size="10.00">GeneralCollection&lt; Condition &gt;</text>
</a>
</g>
</g>
<!-- Node33&#45;&gt;Node32 -->
<g id="edge40" class="edge"><title>Node33&#45;&gt;Node32</title>
<path fill="none" stroke="midnightblue" d="M740.305,-484.618C742.897,-484.407 745.466,-484.2 748,-484 790.26,-480.66 837.506,-477.375 875.778,-474.828"/>
<polygon fill="midnightblue" stroke="midnightblue" points="739.892,-481.14 730.214,-485.452 740.469,-488.116 739.892,-481.14"/>
</g>
<!-- Node34 -->
<g id="node34" class="node"><title>Node34</title>
<polygon fill="white" stroke="#bfbfbf" points="1209,-480.5 1209,-499.5 1265,-499.5 1265,-480.5 1209,-480.5"/>
<text text-anchor="middle" x="1237" y="-487.5" font-family="Helvetica,sans-Serif" font-size="10.00">Timeline</text>
</g>
<!-- Node34&#45;&gt;Node13 -->
<g id="edge41" class="edge"><title>Node34&#45;&gt;Node13</title>
<path fill="none" stroke="#9a32cd" stroke-dasharray="5,2" d="M1275.15,-487.74C1313.12,-484.472 1373.27,-476.617 1422,-458 1456.94,-444.65 1492.96,-418.684 1511.07,-404.616"/>
<polygon fill="#9a32cd" stroke="#9a32cd" points="1274.75,-484.261 1265.06,-488.545 1275.3,-491.239 1274.75,-484.261"/>
<text text-anchor="middle" x="1379" y="-483" font-family="Helvetica,sans-Serif" font-size="10.00"> myAnimation</text>
</g>
<!-- Node35 -->
<g id="node35" class="node"><title>Node35</title>
<polygon fill="white" stroke="#bfbfbf" points="1156.5,-442.5 1156.5,-461.5 1317.5,-461.5 1317.5,-442.5 1156.5,-442.5"/>
<text text-anchor="middle" x="1237" y="-449.5" font-family="Helvetica,sans-Serif" font-size="10.00">EventHandler&lt; ActionEvent &gt;</text>
</g>
<!-- Node35&#45;&gt;Node13 -->
<g id="edge44" class="edge"><title>Node35&#45;&gt;Node13</title>
<path fill="none" stroke="#9a32cd" stroke-dasharray="5,2" d="M1327.89,-443.667C1358.02,-439.977 1391.65,-434.873 1422,-428 1448.45,-422.01 1477.82,-412.018 1498.05,-404.595"/>
<polygon fill="#9a32cd" stroke="#9a32cd" points="1327.33,-440.208 1317.82,-444.865 1328.16,-447.159 1327.33,-440.208"/>
<text text-anchor="middle" x="1379" y="-446" font-family="Helvetica,sans-Serif" font-size="10.00"> oneFrame</text>
</g>
<!-- Node36 -->
<g id="node36" class="node"><title>Node36</title>
<polygon fill="white" stroke="#bfbfbf" points="1445,-142.5 1445,-161.5 1603,-161.5 1603,-142.5 1445,-142.5"/>
<text text-anchor="middle" x="1524" y="-149.5" font-family="Helvetica,sans-Serif" font-size="10.00">List&lt; engine.actions.Action &gt;</text>
</g>
<!-- Node36&#45;&gt;Node8 -->
<g id="edge48" class="edge"><title>Node36&#45;&gt;Node8</title>
<path fill="none" stroke="#9a32cd" stroke-dasharray="5,2" d="M1613.47,-142.064C1645.77,-138.247 1682.57,-133.678 1716,-129 1727.78,-127.351 1740.37,-125.443 1752.39,-123.552"/>
<polygon fill="#9a32cd" stroke="#9a32cd" points="1612.67,-138.633 1603.15,-143.276 1613.49,-145.586 1612.67,-138.633"/>
<text text-anchor="middle" x="1671" y="-144" font-family="Helvetica,sans-Serif" font-size="10.00"> myActions</text>
</g>
<!-- Node37 -->
<g id="node37" class="node"><title>Node37</title>
<polygon fill="white" stroke="#bfbfbf" points="1463,-104.5 1463,-123.5 1585,-123.5 1585,-104.5 1463,-104.5"/>
<text text-anchor="middle" x="1524" y="-111.5" font-family="Helvetica,sans-Serif" font-size="10.00">Map&lt; String, String &gt;</text>
</g>
<!-- Node37&#45;&gt;Node8 -->
<g id="edge49" class="edge"><title>Node37&#45;&gt;Node8</title>
<path fill="none" stroke="#9a32cd" stroke-dasharray="5,2" d="M1595.16,-114C1638.04,-114 1692.81,-114 1736.31,-114"/>
<polygon fill="#9a32cd" stroke="#9a32cd" points="1595.09,-110.5 1585.09,-114 1595.09,-117.5 1595.09,-110.5"/>
<text text-anchor="middle" x="1671" y="-117" font-family="Helvetica,sans-Serif" font-size="10.00"> myInputs</text>
</g>
</g>
</svg>
        <g id="navigator" transform="translate(0 0)" fill="#404254">
                <rect fill="#f2f5e9" fill-opacity="0.5" stroke="#606060" stroke-width=".5" x="0" y="0" width="60" height="60"/>
                <use id="zoomplus" xlink:href="#zoomPlus" x="17" y="9" onmousedown="handleZoom(evt,'in')"/>
                <use id="zoomminus" xlink:href="#zoomMin" x="42" y="9" onmousedown="handleZoom(evt,'out')"/>
                <use id="reset" xlink:href="#resetDef" x="30" y="36" onmousedown="handleReset()"/>
                <g id="arrowUp" xlink:href="#dirArrow" transform="translate(30 24)" onmousedown="handlePan(0,-1)">
                  <use xlink:href="#rim" fill="#404040">
                        <set attributeName="fill" to="#808080" begin="arrowUp.mouseover" end="arrowUp.mouseout"/>
                  </use>
                  <path fill="none" stroke="white" stroke-width="1.5" d="M0,-3.0v7 M-2.5,-0.5L0,-3.0L2.5,-0.5"/>
                </g>
                <g id="arrowRight" xlink:href="#dirArrow" transform="rotate(90) translate(36 -43)" onmousedown="handlePan(1,0)">
                  <use xlink:href="#rim" fill="#404040">
                        <set attributeName="fill" to="#808080" begin="arrowRight.mouseover" end="arrowRight.mouseout"/>
                  </use>
                  <path fill="none" stroke="white" stroke-width="1.5" d="M0,-3.0v7 M-2.5,-0.5L0,-3.0L2.5,-0.5"/>
                </g>
                <g id="arrowDown" xlink:href="#dirArrow" transform="rotate(180) translate(-30 -48)" onmousedown="handlePan(0,1)">
                  <use xlink:href="#rim" fill="#404040">
                        <set attributeName="fill" to="#808080" begin="arrowDown.mouseover" end="arrowDown.mouseout"/>
                  </use>
                  <path fill="none" stroke="white" stroke-width="1.5" d="M0,-3.0v7 M-2.5,-0.5L0,-3.0L2.5,-0.5"/>
                </g>
                <g id="arrowLeft" xlink:href="#dirArrow" transform="rotate(270) translate(-36 17)" onmousedown="handlePan(-1,0)">
                  <use xlink:href="#rim" fill="#404040">
                        <set attributeName="fill" to="#808080" begin="arrowLeft.mouseover" end="arrowLeft.mouseout"/>
                  </use>
                  <path fill="none" stroke="white" stroke-width="1.5" d="M0,-3.0v7 M-2.5,-0.5L0,-3.0L2.5,-0.5"/>
                </g>
        </g>
        <svg viewBox="0 0 15 15" width="100%" height="30px" preserveAspectRatio="xMaxYMin meet">
         <g id="arrow_out" transform="scale(0.3 0.3)">
          <a xlink:href="classauthoring_1_1view_1_1icons_1_1_condition_icon__coll__graph_org.svg" target="_base">
           <rect id="button" ry="5" rx="5" y="6" x="6" height="38" width="38"
                fill="#f2f5e9" fill-opacity="0.5" stroke="#606060" stroke-width="1.0"/>
           <path id="arrow"
             d="M 11.500037,31.436501 C 11.940474,20.09759 22.043105,11.32322 32.158766,21.979434 L 37.068811,17.246167 C 37.068811,17.246167 37.088388,32 37.088388,32 L 22.160133,31.978069 C 22.160133,31.978069 26.997745,27.140456 26.997745,27.140456 C 18.528582,18.264221 13.291696,25.230495 11.500037,31.436501 z"
             style="fill:#404040;"/>
          </a>
         </g>
        </svg>
</svg>
