<?xml version="1.0" encoding="UTF-8" standalone="no"?>
<!DOCTYPE svg PUBLIC "-//W3C//DTD SVG 1.1//EN"
 "http://www.w3.org/Graphics/SVG/1.1/DTD/svg11.dtd">
<!-- Generated by graphviz version 2.36.0 (20140111.2315)
 -->
<!-- Title: engine.actions.ChangeImageIDAction Pages: 1 -->
<svg width="189pt" height="208pt"
 viewBox="0.00 0.00 189.00 208.00" xmlns="http://www.w3.org/2000/svg" xmlns:xlink="http://www.w3.org/1999/xlink">
<g id="graph0" class="graph" transform="scale(1 1) rotate(0) translate(4 204)">
<title>engine.actions.ChangeImageIDAction</title>
<polygon fill="white" stroke="none" points="-4,4 -4,-204 185,-204 185,4 -4,4"/>
<!-- Node1 -->
<g id="node1" class="node"><title>Node1</title>
<polygon fill="#bfbfbf" stroke="black" points="0,-1 0,-31 156,-31 156,-1 0,-1"/>
<text text-anchor="start" x="8" y="-19" font-family="Helvetica,sans-Serif" font-size="10.00">engine.actions.ChangeImage</text>
<text text-anchor="middle" x="78" y="-8" font-family="Helvetica,sans-Serif" font-size="10.00">IDAction</text>
</g>
<!-- Node2 -->
<g id="node2" class="node"><title>Node2</title>
<g id="a_node2"><a xlink:href="../../d3/de4/classengine_1_1actions_1_1_i_d_action.html" target="_top" xlink:title="engine.actions.IDAction">
<polygon fill="white" stroke="black" points="13.5,-68.5 13.5,-87.5 142.5,-87.5 142.5,-68.5 13.5,-68.5"/>
<text text-anchor="middle" x="78" y="-75.5" font-family="Helvetica,sans-Serif" font-size="10.00">engine.actions.IDAction</text>
</a>
</g>
</g>
<!-- Node2&#45;&gt;Node1 -->
<g id="edge1" class="edge"><title>Node2&#45;&gt;Node1</title>
<path fill="none" stroke="midnightblue" d="M78,-58.3707C78,-49.5849 78,-39.2721 78,-31.1408"/>
<polygon fill="midnightblue" stroke="midnightblue" points="74.5001,-58.4034 78,-68.4035 81.5001,-58.4035 74.5001,-58.4034"/>
</g>
<!-- Node3 -->
<g id="node3" class="node"><title>Node3</title>
<g id="a_node3"><a xlink:href="../../d9/dd2/interfaceengine_1_1actions_1_1_action.html" target="_top" xlink:title="engine.actions.Action">
<polygon fill="white" stroke="black" points="62.5,-124.5 62.5,-143.5 181.5,-143.5 181.5,-124.5 62.5,-124.5"/>
<text text-anchor="middle" x="122" y="-131.5" font-family="Helvetica,sans-Serif" font-size="10.00">engine.actions.Action</text>
</a>
</g>
</g>
<!-- Node3&#45;&gt;Node2 -->
<g id="edge2" class="edge"><title>Node3&#45;&gt;Node2</title>
<path fill="none" stroke="midnightblue" d="M108.265,-116.144C100.599,-106.736 91.3667,-95.4046 85.1305,-87.7511"/>
<polygon fill="midnightblue" stroke="midnightblue" points="105.704,-118.541 114.734,-124.083 111.131,-114.12 105.704,-118.541"/>
</g>
<!-- Node4 -->
<g id="node4" class="node"><title>Node4</title>
<g id="a_node4"><a xlink:href="../../d2/d15/interfaceengine_1_1actions_1_1_initializable.html" target="_top" xlink:title="engine.actions.Initializable">
<polygon fill="white" stroke="black" points="7,-180.5 7,-199.5 149,-199.5 149,-180.5 7,-180.5"/>
<text text-anchor="middle" x="78" y="-187.5" font-family="Helvetica,sans-Serif" font-size="10.00">engine.actions.Initializable</text>
</a>
</g>
</g>
<!-- Node4&#45;&gt;Node2 -->
<g id="edge4" class="edge"><title>Node4&#45;&gt;Node2</title>
<path fill="none" stroke="midnightblue" d="M66.2432,-171.769C61.4366,-163.71 56.4387,-153.755 54,-144 48.8068,-123.227 62.4384,-99.9166 71.2273,-87.6403"/>
<polygon fill="midnightblue" stroke="midnightblue" points="63.3091,-173.678 71.6332,-180.232 69.2134,-169.917 63.3091,-173.678"/>
</g>
<!-- Node4&#45;&gt;Node3 -->
<g id="edge3" class="edge"><title>Node4&#45;&gt;Node3</title>
<path fill="none" stroke="midnightblue" d="M91.7345,-172.144C99.4005,-162.736 108.633,-151.405 114.869,-143.751"/>
<polygon fill="midnightblue" stroke="midnightblue" points="88.8691,-170.12 85.2657,-180.083 94.2958,-174.541 88.8691,-170.12"/>
</g>
</g>
</svg>
