<?xml version="1.0" encoding="UTF-8" standalone="no"?>
<!DOCTYPE svg PUBLIC "-//W3C//DTD SVG 1.1//EN"
 "http://www.w3.org/Graphics/SVG/1.1/DTD/svg11.dtd">
<!-- Generated by graphviz version 2.36.0 (20140111.2315)
 -->
<!-- Title: authoring.view.propertiesview.ConditionProperties Pages: 1 -->
<!--zoomable 698 -->
<svg id="main" version="1.1" xmlns="http://www.w3.org/2000/svg" xmlns:xlink="http://www.w3.org/1999/xlink" xml:space="preserve" onload="init(evt)">
<style type="text/css"><![CDATA[
.edge:hover path { stroke: red; }
.edge:hover polygon { stroke: red; fill: red; }
]]></style>
<script type="text/javascript"><![CDATA[
var edges = document.getElementsByTagName('g');
if (edges && edges.length) {
  for (var i=0;i<edges.length;i++) {
    if (edges[i].id.substr(0,4)=='edge') {
      edges[i].setAttribute('class','edge');
    }
  }
}
]]></script>
        <defs>
                <circle id="rim" cx="0" cy="0" r="7"/>
                <circle id="rim2" cx="0" cy="0" r="3.5"/>
                <g id="zoomPlus">
                        <use xlink:href="#rim" fill="#404040">
                                <set attributeName="fill" to="#808080" begin="zoomplus.mouseover" end="zoomplus.mouseout"/>
                        </use>
                        <path d="M-4,0h8M0,-4v8" fill="none" stroke="white" stroke-width="1.5" pointer-events="none"/>
                </g>
                <g id="zoomMin">
                        <use xlink:href="#rim" fill="#404040">
                                <set attributeName="fill" to="#808080" begin="zoomminus.mouseover" end="zoomminus.mouseout"/>
                        </use>
                        <path d="M-4,0h8" fill="none" stroke="white" stroke-width="1.5" pointer-events="none"/>
                </g>
                <g id="dirArrow">
                        <path fill="none" stroke="white" stroke-width="1.5" d="M0,-3.0v7 M-2.5,-0.5L0,-3.0L2.5,-0.5"/>
                </g>
               <g id="resetDef">
                       <use xlink:href="#rim2" fill="#404040">
                               <set attributeName="fill" to="#808080" begin="reset.mouseover" end="reset.mouseout"/>
                       </use>
               </g>
        </defs>

<script type="text/javascript">
var viewWidth = 2196;
var viewHeight = 698;
var sectionId = 'dynsection-1';
</script>
<script xlink:href="../../svgpan.js"/>
<svg id="graph" class="graph">
<g id="viewport">
<title>authoring.view.propertiesview.ConditionProperties</title>
<polygon fill="white" stroke="none" points="-4,4 -4,-694.148 2192,-694.148 2192,4 -4,4"/>
<!-- Node1 -->
<g id="node1" class="node"><title>Node1</title>
<polygon fill="#bfbfbf" stroke="black" points="2028.5,-471.148 2028.5,-501.148 2187.5,-501.148 2187.5,-471.148 2028.5,-471.148"/>
<text text-anchor="start" x="2036.5" y="-489.148" font-family="Helvetica,sans-Serif" font-size="10.00">authoring.view.propertiesview.</text>
<text text-anchor="middle" x="2108" y="-478.148" font-family="Helvetica,sans-Serif" font-size="10.00">ConditionProperties</text>
</g>
<!-- Node2 -->
<g id="node2" class="node"><title>Node2</title>
<g id="a_node2"><a xlink:href="../../de/d73/classauthoring_1_1view_1_1propertiesview_1_1_properties.html" target="_top" xlink:title="authoring.view.propertiesview.\lProperties">
<polygon fill="white" stroke="black" points="1768.5,-621.148 1768.5,-651.148 1927.5,-651.148 1927.5,-621.148 1768.5,-621.148"/>
<text text-anchor="start" x="1776.5" y="-639.148" font-family="Helvetica,sans-Serif" font-size="10.00">authoring.view.propertiesview.</text>
<text text-anchor="middle" x="1848" y="-628.148" font-family="Helvetica,sans-Serif" font-size="10.00">Properties</text>
</a>
</g>
</g>
<!-- Node2&#45;&gt;Node1 -->
<g id="edge1" class="edge"><title>Node2&#45;&gt;Node1</title>
<path fill="none" stroke="midnightblue" d="M1884.12,-615.733C1936.68,-585.171 2034.62,-528.232 2081.16,-501.174"/>
<polygon fill="midnightblue" stroke="midnightblue" points="1882.04,-612.888 1875.16,-620.94 1885.56,-618.94 1882.04,-612.888"/>
</g>
<!-- Node3 -->
<g id="node3" class="node"><title>Node3</title>
<polygon fill="white" stroke="#bfbfbf" points="1508.5,-670.648 1508.5,-689.648 1549.5,-689.648 1549.5,-670.648 1508.5,-670.648"/>
<text text-anchor="middle" x="1529" y="-677.648" font-family="Helvetica,sans-Serif" font-size="10.00">VBox</text>
</g>
<!-- Node3&#45;&gt;Node2 -->
<g id="edge2" class="edge"><title>Node3&#45;&gt;Node2</title>
<path fill="none" stroke="midnightblue" d="M1559.92,-676.42C1602.27,-671.093 1682.12,-660.87 1750,-651.148 1755.99,-650.291 1762.18,-649.383 1768.41,-648.454"/>
<polygon fill="midnightblue" stroke="midnightblue" points="1559.23,-672.979 1549.74,-677.696 1560.1,-679.925 1559.23,-672.979"/>
</g>
<!-- Node4 -->
<g id="node4" class="node"><title>Node4</title>
<polygon fill="white" stroke="#bfbfbf" points="1416.5,-621.148 1416.5,-651.148 1641.5,-651.148 1641.5,-621.148 1416.5,-621.148"/>
<text text-anchor="start" x="1424.5" y="-639.148" font-family="Helvetica,sans-Serif" font-size="10.00">Map&lt; String, authoring.view.propertiesview.</text>
<text text-anchor="middle" x="1529" y="-628.148" font-family="Helvetica,sans-Serif" font-size="10.00">PropertyField &gt;</text>
</g>
<!-- Node4&#45;&gt;Node2 -->
<g id="edge3" class="edge"><title>Node4&#45;&gt;Node2</title>
<path fill="none" stroke="#9a32cd" stroke-dasharray="5,2" d="M1652.12,-636.148C1691.04,-636.148 1733.06,-636.148 1768.08,-636.148"/>
<polygon fill="#9a32cd" stroke="#9a32cd" points="1651.76,-632.648 1641.76,-636.148 1651.76,-639.648 1651.76,-632.648"/>
<text text-anchor="middle" x="1705" y="-639.148" font-family="Helvetica,sans-Serif" font-size="10.00"> myMap</text>
</g>
<!-- Node5 -->
<g id="node5" class="node"><title>Node5</title>
<g id="a_node5"><a xlink:href="../../d1/d3b/classengine_1_1conditions_1_1_condition.html" target="_top" xlink:title="engine.conditions.Condition">
<polygon fill="white" stroke="black" points="1773.5,-476.648 1773.5,-495.648 1922.5,-495.648 1922.5,-476.648 1773.5,-476.648"/>
<text text-anchor="middle" x="1848" y="-483.648" font-family="Helvetica,sans-Serif" font-size="10.00">engine.conditions.Condition</text>
</a>
</g>
</g>
<!-- Node5&#45;&gt;Node1 -->
<g id="edge4" class="edge"><title>Node5&#45;&gt;Node1</title>
<path fill="none" stroke="#9a32cd" stroke-dasharray="5,2" d="M1932.84,-486.148C1963.53,-486.148 1998.13,-486.148 2028.36,-486.148"/>
<polygon fill="#9a32cd" stroke="#9a32cd" points="1932.59,-482.648 1922.59,-486.148 1932.59,-489.648 1932.59,-482.648"/>
<text text-anchor="middle" x="1978" y="-489.148" font-family="Helvetica,sans-Serif" font-size="10.00"> myCondition</text>
</g>
<!-- Node6 -->
<g id="node6" class="node"><title>Node6</title>
<g id="a_node6"><a xlink:href="../../dc/df6/interfaceengine_1_1game_object_1_1_identifiable.html" target="_top" xlink:title="engine.gameObject.Identifiable">
<polygon fill="white" stroke="black" points="242.5,-524.648 242.5,-543.648 407.5,-543.648 407.5,-524.648 242.5,-524.648"/>
<text text-anchor="middle" x="325" y="-531.648" font-family="Helvetica,sans-Serif" font-size="10.00">engine.gameObject.Identifiable</text>
</a>
</g>
</g>
<!-- Node6&#45;&gt;Node5 -->
<g id="edge5" class="edge"><title>Node6&#45;&gt;Node5</title>
<path fill="none" stroke="midnightblue" d="M417.739,-539.869C420.524,-539.973 423.282,-540.067 426,-540.148 478.421,-541.72 491.561,-540.882 544,-540.148 877.431,-535.481 960.856,-533.749 1294,-519.148 1465.75,-511.621 1667.27,-498.517 1773.24,-491.293"/>
<polygon fill="midnightblue" stroke="midnightblue" points="417.707,-536.364 407.571,-539.447 417.417,-543.358 417.707,-536.364"/>
</g>
<!-- Node19 -->
<g id="node19" class="node"><title>Node19</title>
<g id="a_node19"><a xlink:href="../../df/d84/classengine_1_1level_1_1_level.html" target="_top" xlink:title="engine.level.Level">
<polygon fill="white" stroke="black" points="595.5,-489.648 595.5,-508.648 696.5,-508.648 696.5,-489.648 595.5,-489.648"/>
<text text-anchor="middle" x="646" y="-496.648" font-family="Helvetica,sans-Serif" font-size="10.00">engine.level.Level</text>
</a>
</g>
</g>
<!-- Node6&#45;&gt;Node19 -->
<g id="edge22" class="edge"><title>Node6&#45;&gt;Node19</title>
<path fill="none" stroke="midnightblue" d="M367.054,-521.923C384.989,-517.094 406.37,-512.021 426,-509.148 483.619,-500.717 550.59,-498.792 595.154,-498.607"/>
<polygon fill="midnightblue" stroke="midnightblue" points="365.914,-518.606 357.206,-524.642 367.777,-525.354 365.914,-518.606"/>
</g>
<!-- Node7 -->
<g id="node7" class="node"><title>Node7</title>
<g id="a_node7"><a xlink:href="../../d2/d15/interfaceengine_1_1actions_1_1_initializable.html" target="_top" xlink:title="engine.actions.Initializable">
<polygon fill="white" stroke="black" points="1458,-544.648 1458,-563.648 1600,-563.648 1600,-544.648 1458,-544.648"/>
<text text-anchor="middle" x="1529" y="-551.648" font-family="Helvetica,sans-Serif" font-size="10.00">engine.actions.Initializable</text>
</a>
</g>
</g>
<!-- Node7&#45;&gt;Node5 -->
<g id="edge6" class="edge"><title>Node7&#45;&gt;Node5</title>
<path fill="none" stroke="midnightblue" d="M1610.62,-551.476C1652.75,-548.553 1704.81,-542.521 1750,-530.148 1779.43,-522.091 1811.22,-506.141 1830.1,-495.821"/>
<polygon fill="midnightblue" stroke="midnightblue" points="1610.17,-547.998 1600.42,-552.138 1610.62,-554.984 1610.17,-547.998"/>
</g>
<!-- Node8 -->
<g id="node8" class="node"><title>Node8</title>
<g id="a_node8"><a xlink:href="../../d4/dac/classengine_1_1game_object_1_1_identifier.html" target="_top" xlink:title="engine.gameObject.Identifier">
<polygon fill="white" stroke="black" points="247.5,-573.648 247.5,-592.648 402.5,-592.648 402.5,-573.648 247.5,-573.648"/>
<text text-anchor="middle" x="325" y="-580.648" font-family="Helvetica,sans-Serif" font-size="10.00">engine.gameObject.Identifier</text>
</a>
</g>
</g>
<!-- Node8&#45;&gt;Node5 -->
<g id="edge7" class="edge"><title>Node8&#45;&gt;Node5</title>
<path fill="none" stroke="#9a32cd" stroke-dasharray="5,2" d="M412.757,-586.918C476.898,-589.383 566.377,-592.148 645,-592.148 645,-592.148 645,-592.148 1530,-592.148 1629.3,-592.148 1658.3,-591.25 1750,-553.148 1784.59,-538.777 1819.29,-510.715 1836.27,-495.88"/>
<polygon fill="#9a32cd" stroke="#9a32cd" points="412.815,-583.417 402.686,-586.525 412.542,-590.412 412.815,-583.417"/>
<text text-anchor="middle" x="1074" y="-595.148" font-family="Helvetica,sans-Serif" font-size="10.00"> myId</text>
</g>
<!-- Node8&#45;&gt;Node19 -->
<g id="edge23" class="edge"><title>Node8&#45;&gt;Node19</title>
<path fill="none" stroke="#9a32cd" stroke-dasharray="5,2" d="M372.102,-571.009C436.085,-554.16 550.49,-524.035 608.751,-508.694"/>
<polygon fill="#9a32cd" stroke="#9a32cd" points="371.062,-567.663 362.283,-573.594 372.844,-574.432 371.062,-567.663"/>
<text text-anchor="middle" x="485" y="-559.148" font-family="Helvetica,sans-Serif" font-size="10.00"> myId</text>
</g>
<!-- Node9 -->
<g id="node9" class="node"><title>Node9</title>
<polygon fill="white" stroke="#bfbfbf" points="64,-573.648 64,-592.648 120,-592.648 120,-573.648 64,-573.648"/>
<text text-anchor="middle" x="92" y="-580.648" font-family="Helvetica,sans-Serif" font-size="10.00">Random</text>
</g>
<!-- Node9&#45;&gt;Node8 -->
<g id="edge8" class="edge"><title>Node9&#45;&gt;Node8</title>
<path fill="none" stroke="#9a32cd" stroke-dasharray="5,2" d="M130.511,-583.148C162.046,-583.148 208.136,-583.148 247.423,-583.148"/>
<polygon fill="#9a32cd" stroke="#9a32cd" points="130.406,-579.648 120.406,-583.148 130.406,-586.648 130.406,-579.648"/>
<text text-anchor="middle" x="213" y="-586.148" font-family="Helvetica,sans-Serif" font-size="10.00"> r</text>
</g>
<!-- Node10 -->
<g id="node10" class="node"><title>Node10</title>
<g id="a_node10"><a xlink:href="../../d6/d94/classengine_1_1_game_manager.html" target="_top" xlink:title="engine.GameManager">
<polygon fill="white" stroke="black" points="1467.5,-413.648 1467.5,-432.648 1590.5,-432.648 1590.5,-413.648 1467.5,-413.648"/>
<text text-anchor="middle" x="1529" y="-420.648" font-family="Helvetica,sans-Serif" font-size="10.00">engine.GameManager</text>
</a>
</g>
</g>
<!-- Node10&#45;&gt;Node5 -->
<g id="edge9" class="edge"><title>Node10&#45;&gt;Node5</title>
<path fill="none" stroke="#9a32cd" stroke-dasharray="5,2" d="M1588.32,-434.739C1648.96,-446.791 1742.76,-465.431 1799.18,-476.645"/>
<polygon fill="#9a32cd" stroke="#9a32cd" points="1588.64,-431.233 1578.15,-432.717 1587.27,-438.099 1588.64,-431.233"/>
<text text-anchor="middle" x="1705" y="-469.148" font-family="Helvetica,sans-Serif" font-size="10.00"> myGameManager</text>
</g>
<!-- Node11 -->
<g id="node11" class="node"><title>Node11</title>
<g id="a_node11"><a xlink:href="../../df/de5/classauthoring_1_1model_1_1collections_1_1_levels_collection.html" target="_top" xlink:title="authoring.model.collections.\lLevelsCollection">
<polygon fill="white" stroke="black" points="570,-51.1483 570,-81.1483 722,-81.1483 722,-51.1483 570,-51.1483"/>
<text text-anchor="start" x="578" y="-69.1483" font-family="Helvetica,sans-Serif" font-size="10.00">authoring.model.collections.</text>
<text text-anchor="middle" x="646" y="-58.1483" font-family="Helvetica,sans-Serif" font-size="10.00">LevelsCollection</text>
</a>
</g>
</g>
<!-- Node11&#45;&gt;Node10 -->
<g id="edge10" class="edge"><title>Node11&#45;&gt;Node10</title>
<path fill="none" stroke="#9a32cd" stroke-dasharray="5,2" d="M705.903,-48.2721C849.38,-8.79022 1218.33,67.5526 1398,-129.148 1439.3,-174.366 1374.97,-358.679 1416,-404.148 1428.95,-418.499 1448.4,-424.646 1467.47,-426.768"/>
<polygon fill="#9a32cd" stroke="#9a32cd" points="704.658,-44.9858 695.968,-51.0469 706.541,-51.7278 704.658,-44.9858"/>
<text text-anchor="middle" x="1074" y="-7.14835" font-family="Helvetica,sans-Serif" font-size="10.00"> myLevels</text>
</g>
<!-- Node13 -->
<g id="node13" class="node"><title>Node13</title>
<g id="a_node13"><a xlink:href="../../df/d67/classengine_1_1level_1_1_level_manager.html" target="_top" xlink:title="engine.level.LevelManager">
<polygon fill="white" stroke="black" points="1141.5,-244.648 1141.5,-263.648 1284.5,-263.648 1284.5,-244.648 1141.5,-244.648"/>
<text text-anchor="middle" x="1213" y="-251.648" font-family="Helvetica,sans-Serif" font-size="10.00">engine.level.LevelManager</text>
</a>
</g>
</g>
<!-- Node11&#45;&gt;Node13 -->
<g id="edge14" class="edge"><title>Node11&#45;&gt;Node13</title>
<path fill="none" stroke="#9a32cd" stroke-dasharray="5,2" d="M732.468,-63.0109C832.561,-63.5049 999.246,-77.7337 1114,-157.148 1152.19,-183.576 1188.78,-225.655 1204.26,-244.486"/>
<polygon fill="#9a32cd" stroke="#9a32cd" points="732.397,-59.511 722.396,-63.0065 732.394,-66.511 732.397,-59.511"/>
<text text-anchor="middle" x="940" y="-110.148" font-family="Helvetica,sans-Serif" font-size="10.00"> myLevels</text>
</g>
<!-- Node26 -->
<g id="node26" class="node"><title>Node26</title>
<g id="a_node26"><a xlink:href="../../da/d90/classengine_1_1sound_1_1_sound_utility.html" target="_top" xlink:title="engine.sound.SoundUtility">
<polygon fill="white" stroke="black" points="869,-132.648 869,-151.648 1011,-151.648 1011,-132.648 869,-132.648"/>
<text text-anchor="middle" x="940" y="-139.648" font-family="Helvetica,sans-Serif" font-size="10.00">engine.sound.SoundUtility</text>
</a>
</g>
</g>
<!-- Node11&#45;&gt;Node26 -->
<g id="edge31" class="edge"><title>Node11&#45;&gt;Node26</title>
<path fill="none" stroke="#9a32cd" stroke-dasharray="5,2" d="M732.055,-82.0275C767.536,-89.2963 809.017,-98.6381 846,-109.148 852.592,-111.022 887.272,-123.444 912.355,-132.497"/>
<polygon fill="#9a32cd" stroke="#9a32cd" points="732.711,-78.5895 722.215,-80.0331 731.32,-85.4499 732.711,-78.5895"/>
<text text-anchor="middle" x="797" y="-112.148" font-family="Helvetica,sans-Serif" font-size="10.00"> myLevels</text>
</g>
<!-- Node12 -->
<g id="node12" class="node"><title>Node12</title>
<g id="a_node12"><a xlink:href="../../d4/d3b/classauthoring_1_1model_1_1collections_1_1_general_collection.html" target="_top" xlink:title="authoring.model.collections.\lGeneralCollection\&lt; Level \&gt;">
<polygon fill="white" stroke="black" points="249,-51.1483 249,-81.1483 401,-81.1483 401,-51.1483 249,-51.1483"/>
<text text-anchor="start" x="257" y="-69.1483" font-family="Helvetica,sans-Serif" font-size="10.00">authoring.model.collections.</text>
<text text-anchor="middle" x="325" y="-58.1483" font-family="Helvetica,sans-Serif" font-size="10.00">GeneralCollection&lt; Level &gt;</text>
</a>
</g>
</g>
<!-- Node12&#45;&gt;Node11 -->
<g id="edge11" class="edge"><title>Node12&#45;&gt;Node11</title>
<path fill="none" stroke="midnightblue" d="M411.216,-66.1483C460.588,-66.1483 522.186,-66.1483 569.758,-66.1483"/>
<polygon fill="midnightblue" stroke="midnightblue" points="411.195,-62.6484 401.195,-66.1483 411.195,-69.6484 411.195,-62.6484"/>
</g>
<!-- Node13&#45;&gt;Node10 -->
<g id="edge12" class="edge"><title>Node13&#45;&gt;Node10</title>
<path fill="none" stroke="#9a32cd" stroke-dasharray="5,2" d="M1295.05,-254.704C1331.39,-259.279 1371.87,-271.115 1398,-299.148 1430.29,-333.78 1382.49,-370.698 1416,-404.148 1429.47,-417.594 1448.7,-423.603 1467.43,-425.871"/>
<polygon fill="#9a32cd" stroke="#9a32cd" points="1295.25,-251.204 1284.93,-253.598 1294.49,-258.163 1295.25,-251.204"/>
<text text-anchor="middle" x="1355" y="-302.148" font-family="Helvetica,sans-Serif" font-size="10.00"> myLevelManager</text>
</g>
<!-- Node14 -->
<g id="node14" class="node"><title>Node14</title>
<polygon fill="white" stroke="#bfbfbf" points="890,-268.648 890,-287.648 990,-287.648 990,-268.648 890,-268.648"/>
<text text-anchor="middle" x="940" y="-275.648" font-family="Helvetica,sans-Serif" font-size="10.00">Iterable&lt; Level &gt;</text>
</g>
<!-- Node14&#45;&gt;Node13 -->
<g id="edge13" class="edge"><title>Node14&#45;&gt;Node13</title>
<path fill="none" stroke="midnightblue" d="M1000.05,-272.919C1041.61,-269.238 1097.44,-264.294 1141.36,-260.404"/>
<polygon fill="midnightblue" stroke="midnightblue" points="999.728,-269.434 990.076,-273.802 1000.35,-276.406 999.728,-269.434"/>
</g>
<!-- Node15 -->
<g id="node15" class="node"><title>Node15</title>
<g id="a_node15"><a xlink:href="../../dd/d8d/classengine_1_1render_1_1_renderer.html" target="_top" xlink:title="engine.render.Renderer">
<polygon fill="white" stroke="black" points="876,-412.648 876,-431.648 1004,-431.648 1004,-412.648 876,-412.648"/>
<text text-anchor="middle" x="940" y="-419.648" font-family="Helvetica,sans-Serif" font-size="10.00">engine.render.Renderer</text>
</a>
</g>
</g>
<!-- Node15&#45;&gt;Node10 -->
<g id="edge38" class="edge"><title>Node15&#45;&gt;Node10</title>
<path fill="none" stroke="#9a32cd" stroke-dasharray="5,2" d="M1014.4,-422.273C1131.63,-422.473 1358.92,-422.86 1467.46,-423.045"/>
<polygon fill="#9a32cd" stroke="#9a32cd" points="1014.1,-418.773 1004.1,-422.256 1014.09,-425.773 1014.1,-418.773"/>
<text text-anchor="middle" x="1213" y="-426.148" font-family="Helvetica,sans-Serif" font-size="10.00"> myGameObjectRenderer</text>
</g>
<!-- Node15&#45;&gt;Node13 -->
<g id="edge15" class="edge"><title>Node15&#45;&gt;Node13</title>
<path fill="none" stroke="#9a32cd" stroke-dasharray="5,2" d="M988.47,-410.019C1037.8,-397.298 1108.6,-378.666 1114,-375.148 1159.97,-345.183 1194.66,-286.656 1207.05,-263.707"/>
<polygon fill="#9a32cd" stroke="#9a32cd" points="987.42,-406.676 978.608,-412.558 989.165,-413.455 987.42,-406.676"/>
<text text-anchor="middle" x="1074" y="-401.148" font-family="Helvetica,sans-Serif" font-size="10.00"> myRenderer</text>
</g>
<!-- Node16 -->
<g id="node16" class="node"><title>Node16</title>
<polygon fill="white" stroke="#bfbfbf" points="564,-440.148 564,-470.148 728,-470.148 728,-440.148 564,-440.148"/>
<text text-anchor="start" x="572" y="-458.148" font-family="Helvetica,sans-Serif" font-size="10.00">Map&lt; Identifier, engine.render.</text>
<text text-anchor="middle" x="646" y="-447.148" font-family="Helvetica,sans-Serif" font-size="10.00">RenderedNode &gt;</text>
</g>
<!-- Node16&#45;&gt;Node15 -->
<g id="edge16" class="edge"><title>Node16&#45;&gt;Node15</title>
<path fill="none" stroke="#9a32cd" stroke-dasharray="5,2" d="M738.317,-444.828C782.939,-439.785 835.527,-433.842 875.674,-429.305"/>
<polygon fill="#9a32cd" stroke="#9a32cd" points="737.882,-441.355 728.338,-445.956 738.668,-448.311 737.882,-441.355"/>
<text text-anchor="middle" x="797" y="-447.148" font-family="Helvetica,sans-Serif" font-size="10.00"> myRenderedNodes</text>
</g>
<!-- Node17 -->
<g id="node17" class="node"><title>Node17</title>
<g id="a_node17"><a xlink:href="../../d5/d30/classengine_1_1render_1_1_rendered_node_factory.html" target="_top" xlink:title="engine.render.RenderedNode\lFactory">
<polygon fill="white" stroke="black" points="568,-391.148 568,-421.148 724,-421.148 724,-391.148 568,-391.148"/>
<text text-anchor="start" x="576" y="-409.148" font-family="Helvetica,sans-Serif" font-size="10.00">engine.render.RenderedNode</text>
<text text-anchor="middle" x="646" y="-398.148" font-family="Helvetica,sans-Serif" font-size="10.00">Factory</text>
</a>
</g>
</g>
<!-- Node17&#45;&gt;Node15 -->
<g id="edge17" class="edge"><title>Node17&#45;&gt;Node15</title>
<path fill="none" stroke="#9a32cd" stroke-dasharray="5,2" d="M734.257,-410.93C779.751,-413.422 834.377,-416.416 875.758,-418.683"/>
<polygon fill="#9a32cd" stroke="#9a32cd" points="734.278,-407.426 724.102,-410.373 733.895,-414.415 734.278,-407.426"/>
<text text-anchor="middle" x="797" y="-420.148" font-family="Helvetica,sans-Serif" font-size="10.00"> myFactory</text>
</g>
<!-- Node18 -->
<g id="node18" class="node"><title>Node18</title>
<g id="a_node18"><a xlink:href="../../d9/db5/classengine_1_1_file_path_utility.html" target="_top" xlink:title="engine.FilePathUtility">
<polygon fill="white" stroke="black" points="267.5,-183.648 267.5,-202.648 382.5,-202.648 382.5,-183.648 267.5,-183.648"/>
<text text-anchor="middle" x="325" y="-190.648" font-family="Helvetica,sans-Serif" font-size="10.00">engine.FilePathUtility</text>
</a>
</g>
</g>
<!-- Node18&#45;&gt;Node17 -->
<g id="edge18" class="edge"><title>Node18&#45;&gt;Node17</title>
<path fill="none" stroke="#9a32cd" stroke-dasharray="5,2" d="M359.821,-206.633C407.288,-227.172 493.502,-270.619 544,-333.148 558.315,-350.874 545.365,-365.58 562,-381.148 566.175,-385.056 570.94,-388.354 576.027,-391.138"/>
<polygon fill="#9a32cd" stroke="#9a32cd" points="361.159,-203.398 350.586,-202.715 358.425,-209.843 361.159,-203.398"/>
<text text-anchor="middle" x="485" y="-336.148" font-family="Helvetica,sans-Serif" font-size="10.00"> myFilePathUtility</text>
</g>
<!-- Node18&#45;&gt;Node26 -->
<g id="edge34" class="edge"><title>Node18&#45;&gt;Node26</title>
<path fill="none" stroke="#9a32cd" stroke-dasharray="5,2" d="M392.79,-185.413C440.013,-180.106 504.833,-173.146 562,-168.148 668.86,-158.807 793.002,-150.792 868.762,-146.22"/>
<polygon fill="#9a32cd" stroke="#9a32cd" points="392.234,-181.954 382.689,-186.553 393.019,-188.909 392.234,-181.954"/>
<text text-anchor="middle" x="646" y="-171.148" font-family="Helvetica,sans-Serif" font-size="10.00"> myFilePathUtility</text>
</g>
<!-- Node19&#45;&gt;Node13 -->
<g id="edge29" class="edge"><title>Node19&#45;&gt;Node13</title>
<path fill="none" stroke="#9a32cd" stroke-dasharray="5,2" d="M706.706,-504.605C802.917,-510.122 993.614,-507.119 1114,-413.148 1167.42,-371.448 1198.93,-291.86 1208.71,-264.042"/>
<polygon fill="#9a32cd" stroke="#9a32cd" points="706.773,-501.103 696.574,-503.972 706.336,-508.089 706.773,-501.103"/>
<text text-anchor="middle" x="940" y="-504.148" font-family="Helvetica,sans-Serif" font-size="10.00"> myCurrentLevel</text>
</g>
<!-- Node19&#45;&gt;Node15 -->
<g id="edge19" class="edge"><title>Node19&#45;&gt;Node15</title>
<path fill="none" stroke="#9a32cd" stroke-dasharray="5,2" d="M706.767,-490.032C746.647,-483.244 800.005,-472.799 846,-459.148 871.321,-451.633 899.359,-439.999 917.962,-431.785"/>
<polygon fill="#9a32cd" stroke="#9a32cd" points="705.958,-486.618 696.673,-491.721 707.114,-493.522 705.958,-486.618"/>
<text text-anchor="middle" x="797" y="-486.148" font-family="Helvetica,sans-Serif" font-size="10.00"> myCurrentLevel</text>
</g>
<!-- Node20 -->
<g id="node20" class="node"><title>Node20</title>
<g id="a_node20"><a xlink:href="../../d3/d8d/classdata_1_1_observable.html" target="_top" xlink:title="data.Observable">
<polygon fill="white" stroke="black" points="277.5,-463.648 277.5,-482.648 372.5,-482.648 372.5,-463.648 277.5,-463.648"/>
<text text-anchor="middle" x="325" y="-470.648" font-family="Helvetica,sans-Serif" font-size="10.00">data.Observable</text>
</a>
</g>
</g>
<!-- Node20&#45;&gt;Node19 -->
<g id="edge20" class="edge"><title>Node20&#45;&gt;Node19</title>
<path fill="none" stroke="midnightblue" d="M383.101,-474.515C427.144,-475.936 489.538,-478.743 544,-484.148 560.758,-485.812 578.988,-488.306 595.288,-490.786"/>
<polygon fill="midnightblue" stroke="midnightblue" points="382.979,-471.01 372.876,-474.2 382.763,-478.007 382.979,-471.01"/>
</g>
<!-- Node21 -->
<g id="node21" class="node"><title>Node21</title>
<polygon fill="white" stroke="#bfbfbf" points="23,-463.648 23,-482.648 161,-482.648 161,-463.648 23,-463.648"/>
<text text-anchor="middle" x="92" y="-470.648" font-family="Helvetica,sans-Serif" font-size="10.00">Vector&lt; data.Observer &gt;</text>
</g>
<!-- Node21&#45;&gt;Node20 -->
<g id="edge21" class="edge"><title>Node21&#45;&gt;Node20</title>
<path fill="none" stroke="#9a32cd" stroke-dasharray="5,2" d="M171.318,-473.148C206.521,-473.148 246.882,-473.148 277.262,-473.148"/>
<polygon fill="#9a32cd" stroke="#9a32cd" points="171.058,-469.648 161.058,-473.148 171.058,-476.648 171.058,-469.648"/>
<text text-anchor="middle" x="213" y="-476.148" font-family="Helvetica,sans-Serif" font-size="10.00"> obs</text>
</g>
<!-- Node22 -->
<g id="node22" class="node"><title>Node22</title>
<g id="a_node22"><a xlink:href="../../d1/d32/classauthoring_1_1model_1_1collections_1_1_game_objects_collection.html" target="_top" xlink:title="authoring.model.collections.\lGameObjectsCollection">
<polygon fill="white" stroke="black" points="249,-309.148 249,-339.148 401,-339.148 401,-309.148 249,-309.148"/>
<text text-anchor="start" x="257" y="-327.148" font-family="Helvetica,sans-Serif" font-size="10.00">authoring.model.collections.</text>
<text text-anchor="middle" x="325" y="-316.148" font-family="Helvetica,sans-Serif" font-size="10.00">GameObjectsCollection</text>
</a>
</g>
</g>
<!-- Node22&#45;&gt;Node10 -->
<g id="edge39" class="edge"><title>Node22&#45;&gt;Node10</title>
<path fill="none" stroke="#9a32cd" stroke-dasharray="5,2" d="M411.172,-324.148C475.428,-324.148 565.751,-324.148 645,-324.148 645,-324.148 645,-324.148 1214,-324.148 1300.15,-324.148 1325.29,-338.928 1398,-385.148 1407.82,-391.389 1405.74,-398.672 1416,-404.148 1431.57,-412.459 1449.95,-417.281 1467.26,-420.038"/>
<polygon fill="#9a32cd" stroke="#9a32cd" points="411.089,-320.648 401.089,-324.148 411.089,-327.648 411.089,-320.648"/>
<text text-anchor="middle" x="940" y="-327.148" font-family="Helvetica,sans-Serif" font-size="10.00"> myGameObjects</text>
</g>
<!-- Node22&#45;&gt;Node13 -->
<g id="edge28" class="edge"><title>Node22&#45;&gt;Node13</title>
<path fill="none" stroke="#9a32cd" stroke-dasharray="5,2" d="M411.298,-312.071C416.271,-311.409 421.199,-310.764 426,-310.148 620.391,-285.227 668.434,-271.906 864,-259.148 959.869,-252.894 1070.89,-252.48 1141.27,-253.064"/>
<polygon fill="#9a32cd" stroke="#9a32cd" points="410.5,-308.647 401.056,-313.449 411.433,-315.585 410.5,-308.647"/>
<text text-anchor="middle" x="797" y="-283.148" font-family="Helvetica,sans-Serif" font-size="10.00"> myTemplateObjects</text>
<text text-anchor="middle" x="797" y="-272.148" font-family="Helvetica,sans-Serif" font-size="10.00">myGameObjects</text>
</g>
<!-- Node22&#45;&gt;Node19 -->
<g id="edge24" class="edge"><title>Node22&#45;&gt;Node19</title>
<path fill="none" stroke="#9a32cd" stroke-dasharray="5,2" d="M405.485,-341.64C459.713,-355.151 525.02,-375.054 544,-396.148 569.247,-424.208 535.617,-452.154 562,-479.148 570.806,-488.158 582.915,-493.39 595.162,-496.359"/>
<polygon fill="#9a32cd" stroke="#9a32cd" points="406.047,-338.174 395.502,-339.193 404.381,-344.973 406.047,-338.174"/>
<text text-anchor="middle" x="485" y="-410.148" font-family="Helvetica,sans-Serif" font-size="10.00"> myDefaultGameObjects</text>
<text text-anchor="middle" x="485" y="-399.148" font-family="Helvetica,sans-Serif" font-size="10.00">myWorkingGameObjects</text>
</g>
<!-- Node23 -->
<g id="node23" class="node"><title>Node23</title>
<g id="a_node23"><a xlink:href="../../d4/d3b/classauthoring_1_1model_1_1collections_1_1_general_collection.html" target="_top" xlink:title="authoring.model.collections.\lGeneralCollection\&lt; GameObject \&gt;">
<polygon fill="white" stroke="black" points="0.5,-309.148 0.5,-339.148 183.5,-339.148 183.5,-309.148 0.5,-309.148"/>
<text text-anchor="start" x="8.5" y="-327.148" font-family="Helvetica,sans-Serif" font-size="10.00">authoring.model.collections.</text>
<text text-anchor="middle" x="92" y="-316.148" font-family="Helvetica,sans-Serif" font-size="10.00">GeneralCollection&lt; GameObject &gt;</text>
</a>
</g>
</g>
<!-- Node23&#45;&gt;Node22 -->
<g id="edge25" class="edge"><title>Node23&#45;&gt;Node22</title>
<path fill="none" stroke="midnightblue" d="M193.843,-324.148C212.335,-324.148 231.337,-324.148 248.91,-324.148"/>
<polygon fill="midnightblue" stroke="midnightblue" points="193.634,-320.648 183.634,-324.148 193.634,-327.648 193.634,-320.648"/>
</g>
<!-- Node24 -->
<g id="node24" class="node"><title>Node24</title>
<polygon fill="white" stroke="#bfbfbf" points="254.5,-414.148 254.5,-444.148 395.5,-444.148 395.5,-414.148 254.5,-414.148"/>
<text text-anchor="start" x="262.5" y="-432.148" font-family="Helvetica,sans-Serif" font-size="10.00">List&lt; engine.gameObject.</text>
<text text-anchor="middle" x="325" y="-421.148" font-family="Helvetica,sans-Serif" font-size="10.00">Identifier &gt;</text>
</g>
<!-- Node24&#45;&gt;Node19 -->
<g id="edge26" class="edge"><title>Node24&#45;&gt;Node19</title>
<path fill="none" stroke="#9a32cd" stroke-dasharray="5,2" d="M405.765,-421.027C449.545,-420.359 503.083,-426.061 544,-451.148 556.612,-458.881 549.942,-470.577 562,-479.148 571.786,-486.104 583.688,-490.661 595.388,-493.64"/>
<polygon fill="#9a32cd" stroke="#9a32cd" points="405.626,-417.53 395.722,-421.293 405.811,-424.527 405.626,-417.53"/>
<text text-anchor="middle" x="485" y="-465.148" font-family="Helvetica,sans-Serif" font-size="10.00"> myConditionIdList</text>
<text text-anchor="middle" x="485" y="-454.148" font-family="Helvetica,sans-Serif" font-size="10.00">myGameObjectIdList</text>
</g>
<!-- Node25 -->
<g id="node25" class="node"><title>Node25</title>
<polygon fill="white" stroke="#bfbfbf" points="623,-352.648 623,-371.648 669,-371.648 669,-352.648 623,-352.648"/>
<text text-anchor="middle" x="646" y="-359.648" font-family="Helvetica,sans-Serif" font-size="10.00">Group</text>
</g>
<!-- Node25&#45;&gt;Node10 -->
<g id="edge41" class="edge"><title>Node25&#45;&gt;Node10</title>
<path fill="none" stroke="#9a32cd" stroke-dasharray="5,2" d="M679.775,-360.505C756.06,-357.038 951.384,-350.232 1114,-362.148 1182.2,-367.146 1373.97,-397.779 1470.69,-413.643"/>
<polygon fill="#9a32cd" stroke="#9a32cd" points="679.227,-357.027 669.401,-360.989 679.554,-364.019 679.227,-357.027"/>
<text text-anchor="middle" x="1074" y="-365.148" font-family="Helvetica,sans-Serif" font-size="10.00"> myRootGroup</text>
</g>
<!-- Node25&#45;&gt;Node15 -->
<g id="edge27" class="edge"><title>Node25&#45;&gt;Node15</title>
<path fill="none" stroke="#9a32cd" stroke-dasharray="5,2" d="M679.31,-366.93C718.824,-372.985 787.652,-384.201 846,-397.148 866.239,-401.639 888.691,-407.645 906.464,-412.645"/>
<polygon fill="#9a32cd" stroke="#9a32cd" points="679.624,-363.438 669.212,-365.398 678.574,-370.358 679.624,-363.438"/>
<text text-anchor="middle" x="797" y="-400.148" font-family="Helvetica,sans-Serif" font-size="10.00"> myCanvas</text>
</g>
<!-- Node26&#45;&gt;Node10 -->
<g id="edge42" class="edge"><title>Node26&#45;&gt;Node10</title>
<path fill="none" stroke="#9a32cd" stroke-dasharray="5,2" d="M1002.62,-131.05C1073.66,-120.28 1193.55,-108.348 1294,-129.148 1343.32,-139.36 1368.73,-133.166 1398,-174.148 1427.8,-215.866 1381.41,-366.304 1416,-404.148 1428.97,-418.343 1448.31,-424.481 1467.28,-426.641"/>
<polygon fill="#9a32cd" stroke="#9a32cd" points="1001.84,-127.629 992.499,-132.627 1002.92,-134.545 1001.84,-127.629"/>
<text text-anchor="middle" x="1213" y="-132.148" font-family="Helvetica,sans-Serif" font-size="10.00"> mySoundUtility</text>
</g>
<!-- Node26&#45;&gt;Node13 -->
<g id="edge30" class="edge"><title>Node26&#45;&gt;Node13</title>
<path fill="none" stroke="#9a32cd" stroke-dasharray="5,2" d="M1007.21,-153.762C1040.22,-160.939 1080.21,-171.771 1114,-187.148 1148.14,-202.686 1183.27,-229.995 1200.73,-244.485"/>
<polygon fill="#9a32cd" stroke="#9a32cd" points="1007.71,-150.29 997.203,-151.651 1006.27,-157.139 1007.71,-150.29"/>
<text text-anchor="middle" x="1074" y="-190.148" font-family="Helvetica,sans-Serif" font-size="10.00"> mySoundPlayer</text>
</g>
<!-- Node27 -->
<g id="node27" class="node"><title>Node27</title>
<polygon fill="white" stroke="#bfbfbf" points="570,-188.648 570,-207.648 722,-207.648 722,-188.648 570,-188.648"/>
<text text-anchor="middle" x="646" y="-195.648" font-family="Helvetica,sans-Serif" font-size="10.00">Map&lt; String, MediaPlayer &gt;</text>
</g>
<!-- Node27&#45;&gt;Node26 -->
<g id="edge32" class="edge"><title>Node27&#45;&gt;Node26</title>
<path fill="none" stroke="#9a32cd" stroke-dasharray="5,2" d="M732.558,-191.128C767.946,-187.262 809.224,-181.502 846,-173.148 869.733,-167.757 895.97,-158.716 914.509,-151.785"/>
<polygon fill="#9a32cd" stroke="#9a32cd" points="731.836,-187.685 722.26,-192.218 732.573,-194.646 731.836,-187.685"/>
<text text-anchor="middle" x="797" y="-193.148" font-family="Helvetica,sans-Serif" font-size="10.00"> myMediaPlayerMap</text>
</g>
<!-- Node28 -->
<g id="node28" class="node"><title>Node28</title>
<polygon fill="white" stroke="#bfbfbf" points="577,-103.648 577,-122.648 715,-122.648 715,-103.648 577,-103.648"/>
<text text-anchor="middle" x="646" y="-110.648" font-family="Helvetica,sans-Serif" font-size="10.00">Map&lt; String, AudioClip &gt;</text>
</g>
<!-- Node28&#45;&gt;Node26 -->
<g id="edge33" class="edge"><title>Node28&#45;&gt;Node26</title>
<path fill="none" stroke="#9a32cd" stroke-dasharray="5,2" d="M725.323,-120.927C769.992,-125.363 825.515,-130.878 868.767,-135.173"/>
<polygon fill="#9a32cd" stroke="#9a32cd" points="725.389,-117.416 715.093,-119.911 724.698,-124.382 725.389,-117.416"/>
<text text-anchor="middle" x="797" y="-136.148" font-family="Helvetica,sans-Serif" font-size="10.00"> myAudioClipMap</text>
</g>
<!-- Node29 -->
<g id="node29" class="node"><title>Node29</title>
<g id="a_node29"><a xlink:href="../../db/d2a/classauthoring_1_1model_1_1collections_1_1_conditions_collection.html" target="_top" xlink:title="authoring.model.collections.\lConditionsCollection">
<polygon fill="white" stroke="black" points="864,-181.148 864,-211.148 1016,-211.148 1016,-181.148 864,-181.148"/>
<text text-anchor="start" x="872" y="-199.148" font-family="Helvetica,sans-Serif" font-size="10.00">authoring.model.collections.</text>
<text text-anchor="middle" x="940" y="-188.148" font-family="Helvetica,sans-Serif" font-size="10.00">ConditionsCollection</text>
</a>
</g>
</g>
<!-- Node29&#45;&gt;Node10 -->
<g id="edge43" class="edge"><title>Node29&#45;&gt;Node10</title>
<path fill="none" stroke="#9a32cd" stroke-dasharray="5,2" d="M981.979,-177.091C997.864,-170.679 1016.43,-164.345 1034,-161.148 1198.28,-131.259 1292.12,-125.039 1398,-254.148 1440.58,-306.067 1369.69,-355.53 1416,-404.148 1429.19,-418 1448.47,-424.083 1467.32,-426.295"/>
<polygon fill="#9a32cd" stroke="#9a32cd" points="980.345,-173.98 972.468,-181.066 983.044,-180.439 980.345,-173.98"/>
<text text-anchor="middle" x="1213" y="-169.148" font-family="Helvetica,sans-Serif" font-size="10.00"> myGameConditions</text>
</g>
<!-- Node29&#45;&gt;Node13 -->
<g id="edge35" class="edge"><title>Node29&#45;&gt;Node13</title>
<path fill="none" stroke="#9a32cd" stroke-dasharray="5,2" d="M1026.5,-200.945C1054.66,-203.738 1085.93,-208.158 1114,-215.148 1142.25,-222.184 1173.21,-235.525 1192.62,-244.624"/>
<polygon fill="#9a32cd" stroke="#9a32cd" points="1026.57,-197.436 1016.29,-199.988 1025.92,-204.405 1026.57,-197.436"/>
<text text-anchor="middle" x="1074" y="-218.148" font-family="Helvetica,sans-Serif" font-size="10.00"> myConditions</text>
</g>
<!-- Node30 -->
<g id="node30" class="node"><title>Node30</title>
<g id="a_node30"><a xlink:href="../../d4/d3b/classauthoring_1_1model_1_1collections_1_1_general_collection.html" target="_top" xlink:title="authoring.model.collections.\lGeneralCollection\&lt; Condition \&gt;">
<polygon fill="white" stroke="black" points="562,-227.148 562,-257.148 730,-257.148 730,-227.148 562,-227.148"/>
<text text-anchor="start" x="570" y="-245.148" font-family="Helvetica,sans-Serif" font-size="10.00">authoring.model.collections.</text>
<text text-anchor="middle" x="646" y="-234.148" font-family="Helvetica,sans-Serif" font-size="10.00">GeneralCollection&lt; Condition &gt;</text>
</a>
</g>
</g>
<!-- Node30&#45;&gt;Node29 -->
<g id="edge36" class="edge"><title>Node30&#45;&gt;Node29</title>
<path fill="none" stroke="midnightblue" d="M740.561,-229.224C773.883,-224.433 811.656,-218.788 846,-213.148 851.831,-212.191 857.861,-211.167 863.918,-210.113"/>
<polygon fill="midnightblue" stroke="midnightblue" points="739.774,-225.801 730.371,-230.682 740.766,-232.73 739.774,-225.801"/>
</g>
<!-- Node31 -->
<g id="node31" class="node"><title>Node31</title>
<polygon fill="white" stroke="#bfbfbf" points="1185,-490.648 1185,-509.648 1241,-509.648 1241,-490.648 1185,-490.648"/>
<text text-anchor="middle" x="1213" y="-497.648" font-family="Helvetica,sans-Serif" font-size="10.00">Timeline</text>
</g>
<!-- Node31&#45;&gt;Node10 -->
<g id="edge37" class="edge"><title>Node31&#45;&gt;Node10</title>
<path fill="none" stroke="#9a32cd" stroke-dasharray="5,2" d="M1250.98,-494.505C1288.35,-488.478 1347.61,-478.029 1398,-465.148 1434.31,-455.869 1475.32,-442.045 1501.4,-432.821"/>
<polygon fill="#9a32cd" stroke="#9a32cd" points="1250.37,-491.058 1241.05,-496.086 1251.47,-497.971 1250.37,-491.058"/>
<text text-anchor="middle" x="1355" y="-487.148" font-family="Helvetica,sans-Serif" font-size="10.00"> myAnimation</text>
</g>
<!-- Node32 -->
<g id="node32" class="node"><title>Node32</title>
<polygon fill="white" stroke="#bfbfbf" points="1132.5,-452.648 1132.5,-471.648 1293.5,-471.648 1293.5,-452.648 1132.5,-452.648"/>
<text text-anchor="middle" x="1213" y="-459.648" font-family="Helvetica,sans-Serif" font-size="10.00">EventHandler&lt; ActionEvent &gt;</text>
</g>
<!-- Node32&#45;&gt;Node10 -->
<g id="edge40" class="edge"><title>Node32&#45;&gt;Node10</title>
<path fill="none" stroke="#9a32cd" stroke-dasharray="5,2" d="M1300.87,-451.358C1353.82,-444.782 1420.16,-436.543 1467.44,-430.67"/>
<polygon fill="#9a32cd" stroke="#9a32cd" points="1300.31,-447.902 1290.81,-452.608 1301.17,-454.849 1300.31,-447.902"/>
<text text-anchor="middle" x="1355" y="-453.148" font-family="Helvetica,sans-Serif" font-size="10.00"> oneFrame</text>
</g>
<!-- Node33 -->
<g id="node33" class="node"><title>Node33</title>
<polygon fill="white" stroke="#bfbfbf" points="1450,-375.648 1450,-394.648 1608,-394.648 1608,-375.648 1450,-375.648"/>
<text text-anchor="middle" x="1529" y="-382.648" font-family="Helvetica,sans-Serif" font-size="10.00">List&lt; engine.actions.Action &gt;</text>
</g>
<!-- Node33&#45;&gt;Node5 -->
<g id="edge44" class="edge"><title>Node33&#45;&gt;Node5</title>
<path fill="none" stroke="#9a32cd" stroke-dasharray="5,2" d="M1609.66,-396.462C1652.29,-404.101 1705.12,-416.142 1750,-434.148 1780.15,-446.243 1813.03,-465.205 1831.72,-476.581"/>
<polygon fill="#9a32cd" stroke="#9a32cd" points="1610.06,-392.98 1599.61,-394.709 1608.86,-399.876 1610.06,-392.98"/>
<text text-anchor="middle" x="1705" y="-437.148" font-family="Helvetica,sans-Serif" font-size="10.00"> myActions</text>
</g>
<!-- Node34 -->
<g id="node34" class="node"><title>Node34</title>
<polygon fill="white" stroke="#bfbfbf" points="1468,-337.648 1468,-356.648 1590,-356.648 1590,-337.648 1468,-337.648"/>
<text text-anchor="middle" x="1529" y="-344.648" font-family="Helvetica,sans-Serif" font-size="10.00">Map&lt; String, String &gt;</text>
</g>
<!-- Node34&#45;&gt;Node5 -->
<g id="edge45" class="edge"><title>Node34&#45;&gt;Node5</title>
<path fill="none" stroke="#9a32cd" stroke-dasharray="5,2" d="M1600.49,-348.037C1646.48,-351.699 1705.92,-362.54 1750,-392.148 1761.37,-399.783 1758.78,-407.023 1768,-417.148 1789.21,-440.446 1817.83,-463.766 1834.16,-476.439"/>
<polygon fill="#9a32cd" stroke="#9a32cd" points="1600.52,-344.531 1590.3,-347.324 1600.03,-351.514 1600.52,-344.531"/>
<text text-anchor="middle" x="1705" y="-395.148" font-family="Helvetica,sans-Serif" font-size="10.00"> myInputs</text>
</g>
<!-- Node35 -->
<g id="node35" class="node"><title>Node35</title>
<g id="a_node35"><a xlink:href="../../d3/d6a/interfaceauthoring_1_1eventhandlers_1_1_game_handler.html" target="_top" xlink:title="authoring.eventhandlers.\lGameHandler\&lt; T extends\l Event \&gt;">
<polygon fill="white" stroke="black" points="1777.5,-367.648 1777.5,-408.648 1918.5,-408.648 1918.5,-367.648 1777.5,-367.648"/>
<text text-anchor="start" x="1785.5" y="-396.648" font-family="Helvetica,sans-Serif" font-size="10.00">authoring.eventhandlers.</text>
<text text-anchor="start" x="1785.5" y="-385.648" font-family="Helvetica,sans-Serif" font-size="10.00">GameHandler&lt; T extends</text>
<text text-anchor="middle" x="1848" y="-374.648" font-family="Helvetica,sans-Serif" font-size="10.00"> Event &gt;</text>
</a>
</g>
</g>
<!-- Node35&#45;&gt;Node1 -->
<g id="edge46" class="edge"><title>Node35&#45;&gt;Node1</title>
<path fill="none" stroke="#9a32cd" stroke-dasharray="5,2" d="M1912.53,-412.28C1960.93,-430.665 2026.07,-455.407 2067.3,-471.069"/>
<polygon fill="#9a32cd" stroke="#9a32cd" points="1913.68,-408.971 1903.09,-408.692 1911.19,-415.515 1913.68,-408.971"/>
<text text-anchor="middle" x="1978" y="-452.148" font-family="Helvetica,sans-Serif" font-size="10.00"> myHandler</text>
</g>
<!-- Node36 -->
<g id="node36" class="node"><title>Node36</title>
<polygon fill="white" stroke="#bfbfbf" points="1441,-299.648 1441,-318.648 1617,-318.648 1617,-299.648 1441,-299.648"/>
<text text-anchor="middle" x="1529" y="-306.648" font-family="Helvetica,sans-Serif" font-size="10.00">javafx::event::EventHandler&lt; T &gt;</text>
</g>
<!-- Node36&#45;&gt;Node35 -->
<g id="edge47" class="edge"><title>Node36&#45;&gt;Node35</title>
<path fill="none" stroke="midnightblue" d="M1627.42,-305.832C1666.4,-307.159 1711.18,-312.098 1750,-325.148 1777.22,-334.298 1804.3,-352.884 1822.9,-367.508"/>
<polygon fill="midnightblue" stroke="midnightblue" points="1627.2,-302.325 1617.11,-305.559 1627.02,-309.323 1627.2,-302.325"/>
</g>
</g>
</svg>
        <g id="navigator" transform="translate(0 0)" fill="#404254">
                <rect fill="#f2f5e9" fill-opacity="0.5" stroke="#606060" stroke-width=".5" x="0" y="0" width="60" height="60"/>
                <use id="zoomplus" xlink:href="#zoomPlus" x="17" y="9" onmousedown="handleZoom(evt,'in')"/>
                <use id="zoomminus" xlink:href="#zoomMin" x="42" y="9" onmousedown="handleZoom(evt,'out')"/>
                <use id="reset" xlink:href="#resetDef" x="30" y="36" onmousedown="handleReset()"/>
                <g id="arrowUp" xlink:href="#dirArrow" transform="translate(30 24)" onmousedown="handlePan(0,-1)">
                  <use xlink:href="#rim" fill="#404040">
                        <set attributeName="fill" to="#808080" begin="arrowUp.mouseover" end="arrowUp.mouseout"/>
                  </use>
                  <path fill="none" stroke="white" stroke-width="1.5" d="M0,-3.0v7 M-2.5,-0.5L0,-3.0L2.5,-0.5"/>
                </g>
                <g id="arrowRight" xlink:href="#dirArrow" transform="rotate(90) translate(36 -43)" onmousedown="handlePan(1,0)">
                  <use xlink:href="#rim" fill="#404040">
                        <set attributeName="fill" to="#808080" begin="arrowRight.mouseover" end="arrowRight.mouseout"/>
                  </use>
                  <path fill="none" stroke="white" stroke-width="1.5" d="M0,-3.0v7 M-2.5,-0.5L0,-3.0L2.5,-0.5"/>
                </g>
                <g id="arrowDown" xlink:href="#dirArrow" transform="rotate(180) translate(-30 -48)" onmousedown="handlePan(0,1)">
                  <use xlink:href="#rim" fill="#404040">
                        <set attributeName="fill" to="#808080" begin="arrowDown.mouseover" end="arrowDown.mouseout"/>
                  </use>
                  <path fill="none" stroke="white" stroke-width="1.5" d="M0,-3.0v7 M-2.5,-0.5L0,-3.0L2.5,-0.5"/>
                </g>
                <g id="arrowLeft" xlink:href="#dirArrow" transform="rotate(270) translate(-36 17)" onmousedown="handlePan(-1,0)">
                  <use xlink:href="#rim" fill="#404040">
                        <set attributeName="fill" to="#808080" begin="arrowLeft.mouseover" end="arrowLeft.mouseout"/>
                  </use>
                  <path fill="none" stroke="white" stroke-width="1.5" d="M0,-3.0v7 M-2.5,-0.5L0,-3.0L2.5,-0.5"/>
                </g>
        </g>
        <svg viewBox="0 0 15 15" width="100%" height="30px" preserveAspectRatio="xMaxYMin meet">
         <g id="arrow_out" transform="scale(0.3 0.3)">
          <a xlink:href="classauthoring_1_1view_1_1propertiesview_1_1_condition_properties__coll__graph_org.svg" target="_base">
           <rect id="button" ry="5" rx="5" y="6" x="6" height="38" width="38"
                fill="#f2f5e9" fill-opacity="0.5" stroke="#606060" stroke-width="1.0"/>
           <path id="arrow"
             d="M 11.500037,31.436501 C 11.940474,20.09759 22.043105,11.32322 32.158766,21.979434 L 37.068811,17.246167 C 37.068811,17.246167 37.088388,32 37.088388,32 L 22.160133,31.978069 C 22.160133,31.978069 26.997745,27.140456 26.997745,27.140456 C 18.528582,18.264221 13.291696,25.230495 11.500037,31.436501 z"
             style="fill:#404040;"/>
          </a>
         </g>
        </svg>
</svg>
