<?xml version="1.0" encoding="UTF-8" standalone="no"?>
<!DOCTYPE svg PUBLIC "-//W3C//DTD SVG 1.1//EN"
 "http://www.w3.org/Graphics/SVG/1.1/DTD/svg11.dtd">
<!-- Generated by graphviz version 2.36.0 (20140111.2315)
 -->
<!-- Title: engine.actions.DeleteTypeAction Pages: 1 -->
<!--zoomable 284 -->
<svg id="main" version="1.1" xmlns="http://www.w3.org/2000/svg" xmlns:xlink="http://www.w3.org/1999/xlink" xml:space="preserve" onload="init(evt)">
<style type="text/css"><![CDATA[
.edge:hover path { stroke: red; }
.edge:hover polygon { stroke: red; fill: red; }
]]></style>
<script type="text/javascript"><![CDATA[
var edges = document.getElementsByTagName('g');
if (edges && edges.length) {
  for (var i=0;i<edges.length;i++) {
    if (edges[i].id.substr(0,4)=='edge') {
      edges[i].setAttribute('class','edge');
    }
  }
}
]]></script>
        <defs>
                <circle id="rim" cx="0" cy="0" r="7"/>
                <circle id="rim2" cx="0" cy="0" r="3.5"/>
                <g id="zoomPlus">
                        <use xlink:href="#rim" fill="#404040">
                                <set attributeName="fill" to="#808080" begin="zoomplus.mouseover" end="zoomplus.mouseout"/>
                        </use>
                        <path d="M-4,0h8M0,-4v8" fill="none" stroke="white" stroke-width="1.5" pointer-events="none"/>
                </g>
                <g id="zoomMin">
                        <use xlink:href="#rim" fill="#404040">
                                <set attributeName="fill" to="#808080" begin="zoomminus.mouseover" end="zoomminus.mouseout"/>
                        </use>
                        <path d="M-4,0h8" fill="none" stroke="white" stroke-width="1.5" pointer-events="none"/>
                </g>
                <g id="dirArrow">
                        <path fill="none" stroke="white" stroke-width="1.5" d="M0,-3.0v7 M-2.5,-0.5L0,-3.0L2.5,-0.5"/>
                </g>
               <g id="resetDef">
                       <use xlink:href="#rim2" fill="#404040">
                               <set attributeName="fill" to="#808080" begin="reset.mouseover" end="reset.mouseout"/>
                       </use>
               </g>
        </defs>

<script type="text/javascript">
var viewWidth = 1244;
var viewHeight = 284;
var sectionId = 'dynsection-1';
</script>
<script xlink:href="../../svgpan.js"/>
<svg id="graph" class="graph">
<g id="viewport">
<title>engine.actions.DeleteTypeAction</title>
<polygon fill="white" stroke="none" points="-4,4 -4,-280 1240,-280 1240,4 -4,4"/>
<!-- Node1 -->
<g id="node1" class="node"><title>Node1</title>
<polygon fill="#bfbfbf" stroke="black" points="1094,-154 1094,-184 1236,-184 1236,-154 1094,-154"/>
<text text-anchor="start" x="1102" y="-172" font-family="Helvetica,sans-Serif" font-size="10.00">engine.actions.DeleteType</text>
<text text-anchor="middle" x="1165" y="-161" font-family="Helvetica,sans-Serif" font-size="10.00">Action</text>
</g>
<!-- Node2 -->
<g id="node2" class="node"><title>Node2</title>
<g id="a_node2"><a xlink:href="../../d4/d87/classengine_1_1actions_1_1_type_action.html" target="_top" xlink:title="engine.actions.TypeAction">
<polygon fill="white" stroke="black" points="856,-195.5 856,-214.5 996,-214.5 996,-195.5 856,-195.5"/>
<text text-anchor="middle" x="926" y="-202.5" font-family="Helvetica,sans-Serif" font-size="10.00">engine.actions.TypeAction</text>
</a>
</g>
</g>
<!-- Node2&#45;&gt;Node1 -->
<g id="edge1" class="edge"><title>Node2&#45;&gt;Node1</title>
<path fill="none" stroke="midnightblue" d="M999.563,-193.978C1029.57,-189.42 1064.22,-184.156 1093.96,-179.639"/>
<polygon fill="midnightblue" stroke="midnightblue" points="998.94,-190.532 989.579,-195.494 999.991,-197.453 998.94,-190.532"/>
</g>
<!-- Node3 -->
<g id="node3" class="node"><title>Node3</title>
<g id="a_node3"><a xlink:href="../../d9/dd2/interfaceengine_1_1actions_1_1_action.html" target="_top" xlink:title="engine.actions.Action">
<polygon fill="white" stroke="black" points="584.5,-214.5 584.5,-233.5 703.5,-233.5 703.5,-214.5 584.5,-214.5"/>
<text text-anchor="middle" x="644" y="-221.5" font-family="Helvetica,sans-Serif" font-size="10.00">engine.actions.Action</text>
</a>
</g>
</g>
<!-- Node3&#45;&gt;Node2 -->
<g id="edge2" class="edge"><title>Node3&#45;&gt;Node2</title>
<path fill="none" stroke="midnightblue" d="M713.832,-219.329C757.012,-216.399 812.496,-212.634 855.754,-209.699"/>
<polygon fill="midnightblue" stroke="midnightblue" points="713.437,-215.848 703.697,-220.017 713.911,-222.832 713.437,-215.848"/>
</g>
<!-- Node4 -->
<g id="node4" class="node"><title>Node4</title>
<g id="a_node4"><a xlink:href="../../d2/d15/interfaceengine_1_1actions_1_1_initializable.html" target="_top" xlink:title="engine.actions.Initializable">
<polygon fill="white" stroke="black" points="254,-256.5 254,-275.5 396,-275.5 396,-256.5 254,-256.5"/>
<text text-anchor="middle" x="325" y="-263.5" font-family="Helvetica,sans-Serif" font-size="10.00">engine.actions.Initializable</text>
</a>
</g>
</g>
<!-- Node4&#45;&gt;Node2 -->
<g id="edge4" class="edge"><title>Node4&#45;&gt;Node2</title>
<path fill="none" stroke="midnightblue" d="M406.468,-266.047C508.001,-264.734 687.541,-257.841 838,-228 856.236,-224.383 876.317,-219.159 892.588,-214.603"/>
<polygon fill="midnightblue" stroke="midnightblue" points="406.246,-262.549 396.287,-266.163 406.326,-269.549 406.246,-262.549"/>
</g>
<!-- Node4&#45;&gt;Node3 -->
<g id="edge3" class="edge"><title>Node4&#45;&gt;Node3</title>
<path fill="none" stroke="midnightblue" d="M406.492,-255.335C461.899,-247.994 534.249,-238.409 584.265,-231.782"/>
<polygon fill="midnightblue" stroke="midnightblue" points="405.806,-251.896 396.353,-256.679 406.726,-258.835 405.806,-251.896"/>
</g>
<!-- Node5 -->
<g id="node5" class="node"><title>Node5</title>
<g id="a_node5"><a xlink:href="../../df/d84/classengine_1_1level_1_1_level.html" target="_top" xlink:title="engine.level.Level">
<polygon fill="white" stroke="black" points="593.5,-148.5 593.5,-167.5 694.5,-167.5 694.5,-148.5 593.5,-148.5"/>
<text text-anchor="middle" x="644" y="-155.5" font-family="Helvetica,sans-Serif" font-size="10.00">engine.level.Level</text>
</a>
</g>
</g>
<!-- Node5&#45;&gt;Node2 -->
<g id="edge5" class="edge"><title>Node5&#45;&gt;Node2</title>
<path fill="none" stroke="#9a32cd" stroke-dasharray="5,2" d="M704.73,-168.026C752.998,-176.128 820.491,-187.457 868.012,-195.434"/>
<polygon fill="#9a32cd" stroke="#9a32cd" points="705.177,-164.552 694.736,-166.349 704.018,-171.456 705.177,-164.552"/>
<text text-anchor="middle" x="791" y="-193" font-family="Helvetica,sans-Serif" font-size="10.00"> myCurrentLevel</text>
</g>
<!-- Node14 -->
<g id="node14" class="node"><title>Node14</title>
<g id="a_node14"><a xlink:href="../../dd/d8d/classengine_1_1render_1_1_renderer.html" target="_top" xlink:title="engine.render.Renderer">
<polygon fill="white" stroke="black" points="862,-110.5 862,-129.5 990,-129.5 990,-110.5 862,-110.5"/>
<text text-anchor="middle" x="926" y="-117.5" font-family="Helvetica,sans-Serif" font-size="10.00">engine.render.Renderer</text>
</a>
</g>
</g>
<!-- Node5&#45;&gt;Node14 -->
<g id="edge18" class="edge"><title>Node5&#45;&gt;Node14</title>
<path fill="none" stroke="#9a32cd" stroke-dasharray="5,2" d="M705.063,-151.093C743.189,-146.569 793.544,-140.339 838,-134 847.542,-132.639 857.656,-131.101 867.483,-129.554"/>
<polygon fill="#9a32cd" stroke="#9a32cd" points="704.169,-147.674 694.649,-152.322 704.99,-154.625 704.169,-147.674"/>
<text text-anchor="middle" x="791" y="-149" font-family="Helvetica,sans-Serif" font-size="10.00"> myCurrentLevel</text>
</g>
<!-- Node6 -->
<g id="node6" class="node"><title>Node6</title>
<g id="a_node6"><a xlink:href="../../d3/d8d/classdata_1_1_observable.html" target="_top" xlink:title="data.Observable">
<polygon fill="white" stroke="black" points="277.5,-76.5 277.5,-95.5 372.5,-95.5 372.5,-76.5 277.5,-76.5"/>
<text text-anchor="middle" x="325" y="-83.5" font-family="Helvetica,sans-Serif" font-size="10.00">data.Observable</text>
</a>
</g>
</g>
<!-- Node6&#45;&gt;Node5 -->
<g id="edge6" class="edge"><title>Node6&#45;&gt;Node5</title>
<path fill="none" stroke="midnightblue" d="M382.984,-91.3311C427.894,-96.8594 491.481,-107.664 544,-128 552.743,-131.385 553.327,-135.44 562,-139 571.888,-143.059 582.828,-146.358 593.385,-148.999"/>
<polygon fill="midnightblue" stroke="midnightblue" points="383.185,-87.8305 372.843,-90.1332 382.364,-94.7822 383.185,-87.8305"/>
</g>
<!-- Node7 -->
<g id="node7" class="node"><title>Node7</title>
<polygon fill="white" stroke="#bfbfbf" points="23,-76.5 23,-95.5 161,-95.5 161,-76.5 23,-76.5"/>
<text text-anchor="middle" x="92" y="-83.5" font-family="Helvetica,sans-Serif" font-size="10.00">Vector&lt; data.Observer &gt;</text>
</g>
<!-- Node7&#45;&gt;Node6 -->
<g id="edge7" class="edge"><title>Node7&#45;&gt;Node6</title>
<path fill="none" stroke="#9a32cd" stroke-dasharray="5,2" d="M171.318,-86C206.521,-86 246.882,-86 277.262,-86"/>
<polygon fill="#9a32cd" stroke="#9a32cd" points="171.058,-82.5001 161.058,-86 171.058,-89.5001 171.058,-82.5001"/>
<text text-anchor="middle" x="213" y="-89" font-family="Helvetica,sans-Serif" font-size="10.00"> obs</text>
</g>
<!-- Node8 -->
<g id="node8" class="node"><title>Node8</title>
<g id="a_node8"><a xlink:href="../../dc/df6/interfaceengine_1_1game_object_1_1_identifiable.html" target="_top" xlink:title="engine.gameObject.Identifiable">
<polygon fill="white" stroke="black" points="242.5,-38.5 242.5,-57.5 407.5,-57.5 407.5,-38.5 242.5,-38.5"/>
<text text-anchor="middle" x="325" y="-45.5" font-family="Helvetica,sans-Serif" font-size="10.00">engine.gameObject.Identifiable</text>
</a>
</g>
</g>
<!-- Node8&#45;&gt;Node5 -->
<g id="edge8" class="edge"><title>Node8&#45;&gt;Node5</title>
<path fill="none" stroke="midnightblue" d="M417.755,-48.1318C460.372,-52.6457 509.191,-64.7325 544,-94 560.487,-107.862 545.669,-124.953 562,-139 570.761,-146.535 581.956,-151.216 593.209,-154.091"/>
<polygon fill="midnightblue" stroke="midnightblue" points="417.917,-44.6318 407.635,-47.1872 417.266,-51.6015 417.917,-44.6318"/>
</g>
<!-- Node9 -->
<g id="node9" class="node"><title>Node9</title>
<g id="a_node9"><a xlink:href="../../d4/dac/classengine_1_1game_object_1_1_identifier.html" target="_top" xlink:title="engine.gameObject.Identifier">
<polygon fill="white" stroke="black" points="247.5,-213.5 247.5,-232.5 402.5,-232.5 402.5,-213.5 247.5,-213.5"/>
<text text-anchor="middle" x="325" y="-220.5" font-family="Helvetica,sans-Serif" font-size="10.00">engine.gameObject.Identifier</text>
</a>
</g>
</g>
<!-- Node9&#45;&gt;Node5 -->
<g id="edge9" class="edge"><title>Node9&#45;&gt;Node5</title>
<path fill="none" stroke="#9a32cd" stroke-dasharray="5,2" d="M412.662,-218.452C453.042,-214.967 501.456,-208.822 544,-198 572.745,-190.688 604.23,-176.891 623.802,-167.572"/>
<polygon fill="#9a32cd" stroke="#9a32cd" points="412.257,-214.974 402.578,-219.282 412.831,-221.95 412.257,-214.974"/>
<text text-anchor="middle" x="485" y="-221" font-family="Helvetica,sans-Serif" font-size="10.00"> myId</text>
</g>
<!-- Node10 -->
<g id="node10" class="node"><title>Node10</title>
<polygon fill="white" stroke="#bfbfbf" points="64,-213.5 64,-232.5 120,-232.5 120,-213.5 64,-213.5"/>
<text text-anchor="middle" x="92" y="-220.5" font-family="Helvetica,sans-Serif" font-size="10.00">Random</text>
</g>
<!-- Node10&#45;&gt;Node9 -->
<g id="edge10" class="edge"><title>Node10&#45;&gt;Node9</title>
<path fill="none" stroke="#9a32cd" stroke-dasharray="5,2" d="M130.511,-223C162.046,-223 208.136,-223 247.423,-223"/>
<polygon fill="#9a32cd" stroke="#9a32cd" points="130.406,-219.5 120.406,-223 130.406,-226.5 130.406,-219.5"/>
<text text-anchor="middle" x="213" y="-226" font-family="Helvetica,sans-Serif" font-size="10.00"> r</text>
</g>
<!-- Node11 -->
<g id="node11" class="node"><title>Node11</title>
<g id="a_node11"><a xlink:href="../../d1/d32/classauthoring_1_1model_1_1collections_1_1_game_objects_collection.html" target="_top" xlink:title="authoring.model.collections.\lGameObjectsCollection">
<polygon fill="white" stroke="black" points="249,-164 249,-194 401,-194 401,-164 249,-164"/>
<text text-anchor="start" x="257" y="-182" font-family="Helvetica,sans-Serif" font-size="10.00">authoring.model.collections.</text>
<text text-anchor="middle" x="325" y="-171" font-family="Helvetica,sans-Serif" font-size="10.00">GameObjectsCollection</text>
</a>
</g>
</g>
<!-- Node11&#45;&gt;Node5 -->
<g id="edge11" class="edge"><title>Node11&#45;&gt;Node5</title>
<path fill="none" stroke="#9a32cd" stroke-dasharray="5,2" d="M411.405,-173.342C469.538,-169.491 544.468,-164.527 593.109,-161.305"/>
<polygon fill="#9a32cd" stroke="#9a32cd" points="410.871,-169.87 401.125,-174.023 411.334,-176.855 410.871,-169.87"/>
<text text-anchor="middle" x="485" y="-187" font-family="Helvetica,sans-Serif" font-size="10.00"> myDefaultGameObjects</text>
<text text-anchor="middle" x="485" y="-176" font-family="Helvetica,sans-Serif" font-size="10.00">myWorkingGameObjects</text>
</g>
<!-- Node12 -->
<g id="node12" class="node"><title>Node12</title>
<g id="a_node12"><a xlink:href="../../d4/d3b/classauthoring_1_1model_1_1collections_1_1_general_collection.html" target="_top" xlink:title="authoring.model.collections.\lGeneralCollection\&lt; GameObject \&gt;">
<polygon fill="white" stroke="black" points="0.5,-164 0.5,-194 183.5,-194 183.5,-164 0.5,-164"/>
<text text-anchor="start" x="8.5" y="-182" font-family="Helvetica,sans-Serif" font-size="10.00">authoring.model.collections.</text>
<text text-anchor="middle" x="92" y="-171" font-family="Helvetica,sans-Serif" font-size="10.00">GeneralCollection&lt; GameObject &gt;</text>
</a>
</g>
</g>
<!-- Node12&#45;&gt;Node11 -->
<g id="edge12" class="edge"><title>Node12&#45;&gt;Node11</title>
<path fill="none" stroke="midnightblue" d="M193.843,-179C212.335,-179 231.337,-179 248.91,-179"/>
<polygon fill="midnightblue" stroke="midnightblue" points="193.634,-175.5 183.634,-179 193.634,-182.5 193.634,-175.5"/>
</g>
<!-- Node13 -->
<g id="node13" class="node"><title>Node13</title>
<polygon fill="white" stroke="#bfbfbf" points="254.5,-115 254.5,-145 395.5,-145 395.5,-115 254.5,-115"/>
<text text-anchor="start" x="262.5" y="-133" font-family="Helvetica,sans-Serif" font-size="10.00">List&lt; engine.gameObject.</text>
<text text-anchor="middle" x="325" y="-122" font-family="Helvetica,sans-Serif" font-size="10.00">Identifier &gt;</text>
</g>
<!-- Node13&#45;&gt;Node5 -->
<g id="edge13" class="edge"><title>Node13&#45;&gt;Node5</title>
<path fill="none" stroke="#9a32cd" stroke-dasharray="5,2" d="M405.927,-130.464C447.261,-131.421 498.463,-133.72 544,-139 562.775,-141.177 583.329,-144.899 600.819,-148.474"/>
<polygon fill="#9a32cd" stroke="#9a32cd" points="405.984,-126.964 395.912,-130.254 405.837,-133.963 405.984,-126.964"/>
<text text-anchor="middle" x="485" y="-153" font-family="Helvetica,sans-Serif" font-size="10.00"> myConditionIdList</text>
<text text-anchor="middle" x="485" y="-142" font-family="Helvetica,sans-Serif" font-size="10.00">myGameObjectIdList</text>
</g>
<!-- Node14&#45;&gt;Node1 -->
<g id="edge14" class="edge"><title>Node14&#45;&gt;Node1</title>
<path fill="none" stroke="#9a32cd" stroke-dasharray="5,2" d="M982.961,-131.57C1016.14,-138.429 1058.48,-147.184 1093.87,-154.502"/>
<polygon fill="#9a32cd" stroke="#9a32cd" points="983.479,-128.103 972.977,-129.506 982.061,-134.958 983.479,-128.103"/>
<text text-anchor="middle" x="1045" y="-154" font-family="Helvetica,sans-Serif" font-size="10.00"> myRenderer</text>
</g>
<!-- Node15 -->
<g id="node15" class="node"><title>Node15</title>
<polygon fill="white" stroke="#bfbfbf" points="562,-61 562,-91 726,-91 726,-61 562,-61"/>
<text text-anchor="start" x="570" y="-79" font-family="Helvetica,sans-Serif" font-size="10.00">Map&lt; Identifier, engine.render.</text>
<text text-anchor="middle" x="644" y="-68" font-family="Helvetica,sans-Serif" font-size="10.00">RenderedNode &gt;</text>
</g>
<!-- Node15&#45;&gt;Node14 -->
<g id="edge15" class="edge"><title>Node15&#45;&gt;Node14</title>
<path fill="none" stroke="#9a32cd" stroke-dasharray="5,2" d="M736.556,-89.3437C768.66,-94.1321 804.949,-99.6682 838,-105 848.592,-106.709 859.896,-108.604 870.731,-110.457"/>
<polygon fill="#9a32cd" stroke="#9a32cd" points="736.695,-85.826 726.289,-87.8165 735.665,-92.7498 736.695,-85.826"/>
<text text-anchor="middle" x="791" y="-108" font-family="Helvetica,sans-Serif" font-size="10.00"> myRenderedNodes</text>
</g>
<!-- Node16 -->
<g id="node16" class="node"><title>Node16</title>
<g id="a_node16"><a xlink:href="../../d5/d30/classengine_1_1render_1_1_rendered_node_factory.html" target="_top" xlink:title="engine.render.RenderedNode\lFactory">
<polygon fill="white" stroke="black" points="566,-4 566,-34 722,-34 722,-4 566,-4"/>
<text text-anchor="start" x="574" y="-22" font-family="Helvetica,sans-Serif" font-size="10.00">engine.render.RenderedNode</text>
<text text-anchor="middle" x="644" y="-11" font-family="Helvetica,sans-Serif" font-size="10.00">Factory</text>
</a>
</g>
</g>
<!-- Node16&#45;&gt;Node14 -->
<g id="edge16" class="edge"><title>Node16&#45;&gt;Node14</title>
<path fill="none" stroke="#9a32cd" stroke-dasharray="5,2" d="M713.896,-36.6875C751.151,-47.0017 797.663,-61.0995 838,-77 862.922,-86.8241 890.447,-101.032 907.728,-110.389"/>
<polygon fill="#9a32cd" stroke="#9a32cd" points="714.711,-33.2818 704.141,-34.0144 712.861,-40.0329 714.711,-33.2818"/>
<text text-anchor="middle" x="791" y="-80" font-family="Helvetica,sans-Serif" font-size="10.00"> myFactory</text>
</g>
<!-- Node17 -->
<g id="node17" class="node"><title>Node17</title>
<g id="a_node17"><a xlink:href="../../d9/db5/classengine_1_1_file_path_utility.html" target="_top" xlink:title="engine.FilePathUtility">
<polygon fill="white" stroke="black" points="267.5,-0.5 267.5,-19.5 382.5,-19.5 382.5,-0.5 267.5,-0.5"/>
<text text-anchor="middle" x="325" y="-7.5" font-family="Helvetica,sans-Serif" font-size="10.00">engine.FilePathUtility</text>
</a>
</g>
</g>
<!-- Node17&#45;&gt;Node16 -->
<g id="edge17" class="edge"><title>Node17&#45;&gt;Node16</title>
<path fill="none" stroke="#9a32cd" stroke-dasharray="5,2" d="M392.85,-11.8979C443.452,-13.3346 513.04,-15.3103 565.975,-16.8132"/>
<polygon fill="#9a32cd" stroke="#9a32cd" points="392.769,-8.39432 382.673,-11.609 392.57,-15.3915 392.769,-8.39432"/>
<text text-anchor="middle" x="485" y="-20" font-family="Helvetica,sans-Serif" font-size="10.00"> myFilePathUtility</text>
</g>
<!-- Node18 -->
<g id="node18" class="node"><title>Node18</title>
<polygon fill="white" stroke="#bfbfbf" points="621,-110.5 621,-129.5 667,-129.5 667,-110.5 621,-110.5"/>
<text text-anchor="middle" x="644" y="-117.5" font-family="Helvetica,sans-Serif" font-size="10.00">Group</text>
</g>
<!-- Node18&#45;&gt;Node14 -->
<g id="edge19" class="edge"><title>Node18&#45;&gt;Node14</title>
<path fill="none" stroke="#9a32cd" stroke-dasharray="5,2" d="M677.51,-120C722.492,-120 804.632,-120 861.893,-120"/>
<polygon fill="#9a32cd" stroke="#9a32cd" points="677.44,-116.5 667.44,-120 677.44,-123.5 677.44,-116.5"/>
<text text-anchor="middle" x="791" y="-123" font-family="Helvetica,sans-Serif" font-size="10.00"> myCanvas</text>
</g>
</g>
</svg>
        <g id="navigator" transform="translate(0 0)" fill="#404254">
                <rect fill="#f2f5e9" fill-opacity="0.5" stroke="#606060" stroke-width=".5" x="0" y="0" width="60" height="60"/>
                <use id="zoomplus" xlink:href="#zoomPlus" x="17" y="9" onmousedown="handleZoom(evt,'in')"/>
                <use id="zoomminus" xlink:href="#zoomMin" x="42" y="9" onmousedown="handleZoom(evt,'out')"/>
                <use id="reset" xlink:href="#resetDef" x="30" y="36" onmousedown="handleReset()"/>
                <g id="arrowUp" xlink:href="#dirArrow" transform="translate(30 24)" onmousedown="handlePan(0,-1)">
                  <use xlink:href="#rim" fill="#404040">
                        <set attributeName="fill" to="#808080" begin="arrowUp.mouseover" end="arrowUp.mouseout"/>
                  </use>
                  <path fill="none" stroke="white" stroke-width="1.5" d="M0,-3.0v7 M-2.5,-0.5L0,-3.0L2.5,-0.5"/>
                </g>
                <g id="arrowRight" xlink:href="#dirArrow" transform="rotate(90) translate(36 -43)" onmousedown="handlePan(1,0)">
                  <use xlink:href="#rim" fill="#404040">
                        <set attributeName="fill" to="#808080" begin="arrowRight.mouseover" end="arrowRight.mouseout"/>
                  </use>
                  <path fill="none" stroke="white" stroke-width="1.5" d="M0,-3.0v7 M-2.5,-0.5L0,-3.0L2.5,-0.5"/>
                </g>
                <g id="arrowDown" xlink:href="#dirArrow" transform="rotate(180) translate(-30 -48)" onmousedown="handlePan(0,1)">
                  <use xlink:href="#rim" fill="#404040">
                        <set attributeName="fill" to="#808080" begin="arrowDown.mouseover" end="arrowDown.mouseout"/>
                  </use>
                  <path fill="none" stroke="white" stroke-width="1.5" d="M0,-3.0v7 M-2.5,-0.5L0,-3.0L2.5,-0.5"/>
                </g>
                <g id="arrowLeft" xlink:href="#dirArrow" transform="rotate(270) translate(-36 17)" onmousedown="handlePan(-1,0)">
                  <use xlink:href="#rim" fill="#404040">
                        <set attributeName="fill" to="#808080" begin="arrowLeft.mouseover" end="arrowLeft.mouseout"/>
                  </use>
                  <path fill="none" stroke="white" stroke-width="1.5" d="M0,-3.0v7 M-2.5,-0.5L0,-3.0L2.5,-0.5"/>
                </g>
        </g>
        <svg viewBox="0 0 15 15" width="100%" height="30px" preserveAspectRatio="xMaxYMin meet">
         <g id="arrow_out" transform="scale(0.3 0.3)">
          <a xlink:href="classengine_1_1actions_1_1_delete_type_action__coll__graph_org.svg" target="_base">
           <rect id="button" ry="5" rx="5" y="6" x="6" height="38" width="38"
                fill="#f2f5e9" fill-opacity="0.5" stroke="#606060" stroke-width="1.0"/>
           <path id="arrow"
             d="M 11.500037,31.436501 C 11.940474,20.09759 22.043105,11.32322 32.158766,21.979434 L 37.068811,17.246167 C 37.068811,17.246167 37.088388,32 37.088388,32 L 22.160133,31.978069 C 22.160133,31.978069 26.997745,27.140456 26.997745,27.140456 C 18.528582,18.264221 13.291696,25.230495 11.500037,31.436501 z"
             style="fill:#404040;"/>
          </a>
         </g>
        </svg>
</svg>
