<?xml version="1.0" encoding="UTF-8" standalone="no"?>
<!DOCTYPE svg PUBLIC "-//W3C//DTD SVG 1.1//EN"
 "http://www.w3.org/Graphics/SVG/1.1/DTD/svg11.dtd">
<!-- Generated by graphviz version 2.36.0 (20140111.2315)
 -->
<!-- Title: engine.actions.MakeNewRandomObjectAction.makeRandomObject Pages: 1 -->
<svg width="1108pt" height="430pt"
 viewBox="0.00 0.00 1108.00 430.00" xmlns="http://www.w3.org/2000/svg" xmlns:xlink="http://www.w3.org/1999/xlink">
<g id="graph0" class="graph" transform="scale(1 1) rotate(0) translate(4 426)">
<title>engine.actions.MakeNewRandomObjectAction.makeRandomObject</title>
<polygon fill="white" stroke="none" points="-4,4 -4,-426 1104,-426 1104,4 -4,4"/>
<!-- Node1 -->
<g id="node1" class="node"><title>Node1</title>
<polygon fill="#bfbfbf" stroke="black" points="0,-98 0,-128 178,-128 178,-98 0,-98"/>
<text text-anchor="start" x="8" y="-116" font-family="Helvetica,sans-Serif" font-size="10.00">engine.actions.MakeNewRandom</text>
<text text-anchor="middle" x="89" y="-105" font-family="Helvetica,sans-Serif" font-size="10.00">ObjectAction.makeRandomObject</text>
</g>
<!-- Node2 -->
<g id="node2" class="node"><title>Node2</title>
<g id="a_node2"><a xlink:href="../../d4/d3b/classauthoring_1_1model_1_1collections_1_1_general_collection.html#a1bdc1047736bbb23259d6a7fe4c6deeb" target="_top" xlink:title="authoring.model.collections.\lGeneralCollection.add">
<polygon fill="white" stroke="black" points="234,-196 234,-226 386,-226 386,-196 234,-196"/>
<text text-anchor="start" x="242" y="-214" font-family="Helvetica,sans-Serif" font-size="10.00">authoring.model.collections.</text>
<text text-anchor="middle" x="310" y="-203" font-family="Helvetica,sans-Serif" font-size="10.00">GeneralCollection.add</text>
</a>
</g>
</g>
<!-- Node1&#45;&gt;Node2 -->
<g id="edge1" class="edge"><title>Node1&#45;&gt;Node2</title>
<path fill="none" stroke="midnightblue" d="M111.442,-128.106C135.437,-144.406 175.95,-170.15 214,-186 219.889,-188.453 226.085,-190.723 232.373,-192.811"/>
<polygon fill="midnightblue" stroke="midnightblue" points="231.709,-196.272 242.299,-195.943 233.816,-189.596 231.709,-196.272"/>
</g>
<!-- Node3 -->
<g id="node3" class="node"><title>Node3</title>
<g id="a_node3"><a xlink:href="../../dd/d8d/classengine_1_1render_1_1_renderer.html#a569f6bb2f9c218ed015949dff459b1ee" target="_top" xlink:title="engine.render.Renderer.create\lAndAssignRenderedNode">
<polygon fill="white" stroke="black" points="229.5,-147 229.5,-177 390.5,-177 390.5,-147 229.5,-147"/>
<text text-anchor="start" x="237.5" y="-165" font-family="Helvetica,sans-Serif" font-size="10.00">engine.render.Renderer.create</text>
<text text-anchor="middle" x="310" y="-154" font-family="Helvetica,sans-Serif" font-size="10.00">AndAssignRenderedNode</text>
</a>
</g>
</g>
<!-- Node1&#45;&gt;Node3 -->
<g id="edge2" class="edge"><title>Node1&#45;&gt;Node3</title>
<path fill="none" stroke="midnightblue" d="M157.196,-128.035C180.844,-133.326 207.604,-139.313 231.998,-144.771"/>
<polygon fill="midnightblue" stroke="midnightblue" points="231.409,-148.226 241.932,-146.994 232.937,-141.395 231.409,-148.226"/>
</g>
<!-- Node23 -->
<g id="node23" class="node"><title>Node23</title>
<g id="a_node23"><a xlink:href="../../df/d84/classengine_1_1level_1_1_level.html#ac927326f1a3d7e17b5d577c336a5cfc1" target="_top" xlink:title="engine.level.Level.getGame\lObjectsCollection">
<polygon fill="white" stroke="black" points="235.5,-98 235.5,-128 384.5,-128 384.5,-98 235.5,-98"/>
<text text-anchor="start" x="243.5" y="-116" font-family="Helvetica,sans-Serif" font-size="10.00">engine.level.Level.getGame</text>
<text text-anchor="middle" x="310" y="-105" font-family="Helvetica,sans-Serif" font-size="10.00">ObjectsCollection</text>
</a>
</g>
</g>
<!-- Node1&#45;&gt;Node23 -->
<g id="edge24" class="edge"><title>Node1&#45;&gt;Node23</title>
<path fill="none" stroke="midnightblue" d="M178.129,-113C193.729,-113 209.931,-113 225.401,-113"/>
<polygon fill="midnightblue" stroke="midnightblue" points="225.448,-116.5 235.448,-113 225.448,-109.5 225.448,-116.5"/>
</g>
<!-- Node24 -->
<g id="node24" class="node"><title>Node24</title>
<g id="a_node24"><a xlink:href="../../d0/d7f/classengine_1_1game_object_1_1_game_object.html#a9a4690b212ecad4060ce8f9abbcedba5" target="_top" xlink:title="engine.gameObject.GameObject.set\lIdentifier">
<polygon fill="white" stroke="black" points="214.5,-49 214.5,-79 405.5,-79 405.5,-49 214.5,-49"/>
<text text-anchor="start" x="222.5" y="-67" font-family="Helvetica,sans-Serif" font-size="10.00">engine.gameObject.GameObject.set</text>
<text text-anchor="middle" x="310" y="-56" font-family="Helvetica,sans-Serif" font-size="10.00">Identifier</text>
</a>
</g>
</g>
<!-- Node1&#45;&gt;Node24 -->
<g id="edge25" class="edge"><title>Node1&#45;&gt;Node24</title>
<path fill="none" stroke="midnightblue" d="M157.196,-97.9654C180.844,-92.6741 207.604,-86.6867 231.998,-81.2288"/>
<polygon fill="midnightblue" stroke="midnightblue" points="232.937,-84.6053 241.932,-79.0062 231.409,-77.7742 232.937,-84.6053"/>
</g>
<!-- Node25 -->
<g id="node25" class="node"><title>Node25</title>
<g id="a_node25"><a xlink:href="../../d0/d7f/classengine_1_1game_object_1_1_game_object.html#ab9b1029f6d5a8a7eb563d5e6e1dcf570" target="_top" xlink:title="engine.gameObject.GameObject.set\lPhysicsBody">
<polygon fill="white" stroke="black" points="214.5,-0 214.5,-30 405.5,-30 405.5,-0 214.5,-0"/>
<text text-anchor="start" x="222.5" y="-18" font-family="Helvetica,sans-Serif" font-size="10.00">engine.gameObject.GameObject.set</text>
<text text-anchor="middle" x="310" y="-7" font-family="Helvetica,sans-Serif" font-size="10.00">PhysicsBody</text>
</a>
</g>
</g>
<!-- Node1&#45;&gt;Node25 -->
<g id="edge26" class="edge"><title>Node1&#45;&gt;Node25</title>
<path fill="none" stroke="midnightblue" d="M110.946,-97.8983C134.828,-81.314 175.553,-54.9276 214,-39 219.059,-36.9044 224.347,-34.9563 229.727,-33.1518"/>
<polygon fill="midnightblue" stroke="midnightblue" points="231.008,-36.4176 239.482,-30.058 228.891,-29.7452 231.008,-36.4176"/>
</g>
<!-- Node4 -->
<g id="node4" class="node"><title>Node4</title>
<g id="a_node4"><a xlink:href="../../d5/d30/classengine_1_1render_1_1_rendered_node_factory.html#a359dcce722371dfb49b79528930c1b05" target="_top" xlink:title="engine.render.RenderedNode\lFactory.createRenderedNode">
<polygon fill="white" stroke="black" points="460,-196 460,-226 616,-226 616,-196 460,-196"/>
<text text-anchor="start" x="468" y="-214" font-family="Helvetica,sans-Serif" font-size="10.00">engine.render.RenderedNode</text>
<text text-anchor="middle" x="538" y="-203" font-family="Helvetica,sans-Serif" font-size="10.00">Factory.createRenderedNode</text>
</a>
</g>
</g>
<!-- Node3&#45;&gt;Node4 -->
<g id="edge3" class="edge"><title>Node3&#45;&gt;Node4</title>
<path fill="none" stroke="midnightblue" d="M380.343,-177.035C404.857,-182.349 432.609,-188.367 457.872,-193.844"/>
<polygon fill="midnightblue" stroke="midnightblue" points="457.273,-197.295 467.788,-195.994 458.757,-190.454 457.273,-197.295"/>
</g>
<!-- Node21 -->
<g id="node21" class="node"><title>Node21</title>
<g id="a_node21"><a xlink:href="../../d0/d7f/classengine_1_1game_object_1_1_game_object.html#accd456b2eaab9c7056de825a28b066c8" target="_top" xlink:title="engine.gameObject.GameObject.get\lIdentifier">
<polygon fill="white" stroke="black" points="442,-147 442,-177 634,-177 634,-147 442,-147"/>
<text text-anchor="start" x="450" y="-165" font-family="Helvetica,sans-Serif" font-size="10.00">engine.gameObject.GameObject.get</text>
<text text-anchor="middle" x="538" y="-154" font-family="Helvetica,sans-Serif" font-size="10.00">Identifier</text>
</a>
</g>
</g>
<!-- Node3&#45;&gt;Node21 -->
<g id="edge22" class="edge"><title>Node3&#45;&gt;Node21</title>
<path fill="none" stroke="midnightblue" d="M390.679,-162C403.973,-162 417.943,-162 431.758,-162"/>
<polygon fill="midnightblue" stroke="midnightblue" points="431.777,-165.5 441.777,-162 431.777,-158.5 431.777,-165.5"/>
</g>
<!-- Node22 -->
<g id="node22" class="node"><title>Node22</title>
<g id="a_node22"><a xlink:href="../../d0/d7f/classengine_1_1game_object_1_1_game_object.html#ab09d473d8c2afe8cefb2ce2481bc66fd" target="_top" xlink:title="engine.gameObject.GameObject.set\lRenderedNode">
<polygon fill="white" stroke="black" points="442.5,-98 442.5,-128 633.5,-128 633.5,-98 442.5,-98"/>
<text text-anchor="start" x="450.5" y="-116" font-family="Helvetica,sans-Serif" font-size="10.00">engine.gameObject.GameObject.set</text>
<text text-anchor="middle" x="538" y="-105" font-family="Helvetica,sans-Serif" font-size="10.00">RenderedNode</text>
</a>
</g>
</g>
<!-- Node3&#45;&gt;Node22 -->
<g id="edge23" class="edge"><title>Node3&#45;&gt;Node22</title>
<path fill="none" stroke="midnightblue" d="M380.343,-146.965C404.857,-141.651 432.609,-135.633 457.872,-130.156"/>
<polygon fill="midnightblue" stroke="midnightblue" points="458.757,-133.546 467.788,-128.006 457.273,-126.705 458.757,-133.546"/>
</g>
<!-- Node5 -->
<g id="node5" class="node"><title>Node5</title>
<g id="a_node5"><a xlink:href="../../d2/d82/classengine_1_1render_1_1_rendered_node.html#a520a8c03b505d10c69e010e603cadfdd" target="_top" xlink:title="engine.render.RenderedNode.set\lImageView">
<polygon fill="white" stroke="black" points="684,-392 684,-422 858,-422 858,-392 684,-392"/>
<text text-anchor="start" x="692" y="-410" font-family="Helvetica,sans-Serif" font-size="10.00">engine.render.RenderedNode.set</text>
<text text-anchor="middle" x="771" y="-399" font-family="Helvetica,sans-Serif" font-size="10.00">ImageView</text>
</a>
</g>
</g>
<!-- Node4&#45;&gt;Node5 -->
<g id="edge4" class="edge"><title>Node4&#45;&gt;Node5</title>
<path fill="none" stroke="midnightblue" d="M546.088,-226.074C562.691,-259.669 607.479,-340.946 670,-382 673.139,-384.061 676.435,-385.952 679.842,-387.688"/>
<polygon fill="midnightblue" stroke="midnightblue" points="678.537,-390.94 689.086,-391.927 681.455,-384.577 678.537,-390.94"/>
</g>
<!-- Node6 -->
<g id="node6" class="node"><title>Node6</title>
<g id="a_node6"><a xlink:href="../../d5/d30/classengine_1_1render_1_1_rendered_node_factory.html#ae9ab86f88eb96945a412e561179aa070" target="_top" xlink:title="engine.render.RenderedNode\lFactory.createImageAndView">
<polygon fill="white" stroke="black" points="693,-343 693,-373 849,-373 849,-343 693,-343"/>
<text text-anchor="start" x="701" y="-361" font-family="Helvetica,sans-Serif" font-size="10.00">engine.render.RenderedNode</text>
<text text-anchor="middle" x="771" y="-350" font-family="Helvetica,sans-Serif" font-size="10.00">Factory.createImageAndView</text>
</a>
</g>
</g>
<!-- Node4&#45;&gt;Node6 -->
<g id="edge5" class="edge"><title>Node4&#45;&gt;Node6</title>
<path fill="none" stroke="midnightblue" d="M550.95,-226.35C572.073,-252.394 618.653,-305.121 670,-333 674.249,-335.307 678.714,-337.405 683.304,-339.313"/>
<polygon fill="midnightblue" stroke="midnightblue" points="682.278,-342.668 692.868,-342.969 684.777,-336.129 682.278,-342.668"/>
</g>
<!-- Node10 -->
<g id="node10" class="node"><title>Node10</title>
<g id="a_node10"><a xlink:href="../../d2/d82/classengine_1_1render_1_1_rendered_node.html#ad73c81ad48b40faea3818c9a7bbfdcf0" target="_top" xlink:title="engine.render.RenderedNode.set\lCollisionBody">
<polygon fill="white" stroke="black" points="684,-245 684,-275 858,-275 858,-245 684,-245"/>
<text text-anchor="start" x="692" y="-263" font-family="Helvetica,sans-Serif" font-size="10.00">engine.render.RenderedNode.set</text>
<text text-anchor="middle" x="771" y="-252" font-family="Helvetica,sans-Serif" font-size="10.00">CollisionBody</text>
</a>
</g>
</g>
<!-- Node4&#45;&gt;Node10 -->
<g id="edge9" class="edge"><title>Node4&#45;&gt;Node10</title>
<path fill="none" stroke="midnightblue" d="M609.877,-226.035C635.044,-231.373 663.55,-237.42 689.464,-242.917"/>
<polygon fill="midnightblue" stroke="midnightblue" points="688.748,-246.343 699.257,-244.994 690.201,-239.495 688.748,-246.343"/>
</g>
<!-- Node11 -->
<g id="node11" class="node"><title>Node11</title>
<g id="a_node11"><a xlink:href="../../d5/d30/classengine_1_1render_1_1_rendered_node_factory.html#ac14d2f5a3da79d92c967fe22bc82c1ed" target="_top" xlink:title="engine.render.RenderedNode\lFactory.createCollisionBody">
<polygon fill="white" stroke="black" points="693,-196 693,-226 849,-226 849,-196 693,-196"/>
<text text-anchor="start" x="701" y="-214" font-family="Helvetica,sans-Serif" font-size="10.00">engine.render.RenderedNode</text>
<text text-anchor="middle" x="771" y="-203" font-family="Helvetica,sans-Serif" font-size="10.00">Factory.createCollisionBody</text>
</a>
</g>
</g>
<!-- Node4&#45;&gt;Node11 -->
<g id="edge10" class="edge"><title>Node4&#45;&gt;Node11</title>
<path fill="none" stroke="midnightblue" d="M616.241,-211C637.527,-211 660.769,-211 682.587,-211"/>
<polygon fill="midnightblue" stroke="midnightblue" points="682.832,-214.5 692.832,-211 682.832,-207.5 682.832,-214.5"/>
</g>
<!-- Node15 -->
<g id="node15" class="node"><title>Node15</title>
<g id="a_node15"><a xlink:href="../../d2/d82/classengine_1_1render_1_1_rendered_node.html#a312c663dd1144ff206ecfa1ea8c95a81" target="_top" xlink:title="engine.render.RenderedNode.set\lLabel">
<polygon fill="white" stroke="black" points="684,-147 684,-177 858,-177 858,-147 684,-147"/>
<text text-anchor="start" x="692" y="-165" font-family="Helvetica,sans-Serif" font-size="10.00">engine.render.RenderedNode.set</text>
<text text-anchor="middle" x="771" y="-154" font-family="Helvetica,sans-Serif" font-size="10.00">Label</text>
</a>
</g>
</g>
<!-- Node4&#45;&gt;Node15 -->
<g id="edge14" class="edge"><title>Node4&#45;&gt;Node15</title>
<path fill="none" stroke="midnightblue" d="M609.877,-195.965C635.044,-190.627 663.55,-184.58 689.464,-179.083"/>
<polygon fill="midnightblue" stroke="midnightblue" points="690.201,-182.505 699.257,-177.006 688.748,-175.657 690.201,-182.505"/>
</g>
<!-- Node16 -->
<g id="node16" class="node"><title>Node16</title>
<g id="a_node16"><a xlink:href="../../d5/d30/classengine_1_1render_1_1_rendered_node_factory.html#a4e1f4508b1c12b958bd3c88a35a4e872" target="_top" xlink:title="engine.render.RenderedNode\lFactory.createLabel">
<polygon fill="white" stroke="black" points="693,-294 693,-324 849,-324 849,-294 693,-294"/>
<text text-anchor="start" x="701" y="-312" font-family="Helvetica,sans-Serif" font-size="10.00">engine.render.RenderedNode</text>
<text text-anchor="middle" x="771" y="-301" font-family="Helvetica,sans-Serif" font-size="10.00">Factory.createLabel</text>
</a>
</g>
</g>
<!-- Node4&#45;&gt;Node16 -->
<g id="edge15" class="edge"><title>Node4&#45;&gt;Node16</title>
<path fill="none" stroke="midnightblue" d="M561.748,-226.124C587.18,-242.44 630.053,-268.198 670,-284 676.373,-286.521 683.077,-288.847 689.871,-290.98"/>
<polygon fill="midnightblue" stroke="midnightblue" points="689.276,-294.456 699.86,-293.968 691.282,-287.749 689.276,-294.456"/>
</g>
<!-- Node18 -->
<g id="node18" class="node"><title>Node18</title>
<g id="a_node18"><a xlink:href="../../d0/d7f/classengine_1_1game_object_1_1_game_object.html#a606c7293c2bfac0af1fb42143bf527f6" target="_top" xlink:title="engine.gameObject.GameObject.getX">
<polygon fill="white" stroke="black" points="672,-108.5 672,-127.5 870,-127.5 870,-108.5 672,-108.5"/>
<text text-anchor="middle" x="771" y="-115.5" font-family="Helvetica,sans-Serif" font-size="10.00">engine.gameObject.GameObject.getX</text>
</a>
</g>
</g>
<!-- Node4&#45;&gt;Node18 -->
<g id="edge19" class="edge"><title>Node4&#45;&gt;Node18</title>
<path fill="none" stroke="midnightblue" d="M615.719,-195.834C622.162,-193.084 628.359,-189.836 634,-186 656.345,-170.803 647.14,-151.411 670,-137 673.352,-134.887 676.884,-132.998 680.538,-131.311"/>
<polygon fill="midnightblue" stroke="midnightblue" points="681.904,-134.534 689.843,-127.518 679.261,-128.052 681.904,-134.534"/>
</g>
<!-- Node19 -->
<g id="node19" class="node"><title>Node19</title>
<g id="a_node19"><a xlink:href="../../d0/d7f/classengine_1_1game_object_1_1_game_object.html#a1988806ef560c9384f3844d0666a9450" target="_top" xlink:title="engine.gameObject.GameObject.getY">
<polygon fill="white" stroke="black" points="672.5,-70.5 672.5,-89.5 869.5,-89.5 869.5,-70.5 672.5,-70.5"/>
<text text-anchor="middle" x="771" y="-77.5" font-family="Helvetica,sans-Serif" font-size="10.00">engine.gameObject.GameObject.getY</text>
</a>
</g>
</g>
<!-- Node4&#45;&gt;Node19 -->
<g id="edge20" class="edge"><title>Node4&#45;&gt;Node19</title>
<path fill="none" stroke="midnightblue" d="M616.326,-197.451C622.717,-194.367 628.733,-190.6 634,-186 665.518,-158.474 637.543,-125.414 670,-99 672.039,-97.3408 674.178,-95.8102 676.4,-94.399"/>
<polygon fill="midnightblue" stroke="midnightblue" points="678.232,-97.3868 685.337,-89.5275 674.881,-91.2406 678.232,-97.3868"/>
</g>
<!-- Node20 -->
<g id="node20" class="node"><title>Node20</title>
<g id="a_node20"><a xlink:href="../../d0/d7f/classengine_1_1game_object_1_1_game_object.html#ae94fe532960bd29f64c2dc19ec0af798" target="_top" xlink:title="engine.gameObject.GameObject.getID">
<polygon fill="white" stroke="black" points="670,-32.5 670,-51.5 872,-51.5 872,-32.5 670,-32.5"/>
<text text-anchor="middle" x="771" y="-39.5" font-family="Helvetica,sans-Serif" font-size="10.00">engine.gameObject.GameObject.getID</text>
</a>
</g>
</g>
<!-- Node4&#45;&gt;Node20 -->
<g id="edge21" class="edge"><title>Node4&#45;&gt;Node20</title>
<path fill="none" stroke="midnightblue" d="M616.428,-198.293C622.878,-195.043 628.877,-191.006 634,-186 675.35,-145.594 627.27,-99.9435 670,-61 671.518,-59.6162 673.105,-58.3189 674.751,-57.1031"/>
<polygon fill="midnightblue" stroke="midnightblue" points="676.802,-59.9482 683.427,-51.68 673.092,-54.0123 676.802,-59.9482"/>
</g>
<!-- Node7 -->
<g id="node7" class="node"><title>Node7</title>
<g id="a_node7"><a xlink:href="../../d0/d7f/classengine_1_1game_object_1_1_game_object.html#ae8b88e1cf489e935426e2e252defbae0" target="_top" xlink:title="engine.gameObject.GameObject.get\lCurrentImageName">
<polygon fill="white" stroke="black" points="908,-392 908,-422 1100,-422 1100,-392 908,-392"/>
<text text-anchor="start" x="916" y="-410" font-family="Helvetica,sans-Serif" font-size="10.00">engine.gameObject.GameObject.get</text>
<text text-anchor="middle" x="1004" y="-399" font-family="Helvetica,sans-Serif" font-size="10.00">CurrentImageName</text>
</a>
</g>
</g>
<!-- Node6&#45;&gt;Node7 -->
<g id="edge6" class="edge"><title>Node6&#45;&gt;Node7</title>
<path fill="none" stroke="midnightblue" d="M842.877,-373.035C868.044,-378.373 896.55,-384.42 922.464,-389.917"/>
<polygon fill="midnightblue" stroke="midnightblue" points="921.748,-393.343 932.257,-391.994 923.201,-386.495 921.748,-393.343"/>
</g>
<!-- Node8 -->
<g id="node8" class="node"><title>Node8</title>
<g id="a_node8"><a xlink:href="../../d0/d7f/classengine_1_1game_object_1_1_game_object.html#aaeb5730a3b51fe9cb3d817ea7172cfc2" target="_top" xlink:title="engine.gameObject.GameObject.get\lHeight">
<polygon fill="white" stroke="black" points="908,-294 908,-324 1100,-324 1100,-294 908,-294"/>
<text text-anchor="start" x="916" y="-312" font-family="Helvetica,sans-Serif" font-size="10.00">engine.gameObject.GameObject.get</text>
<text text-anchor="middle" x="1004" y="-301" font-family="Helvetica,sans-Serif" font-size="10.00">Height</text>
</a>
</g>
</g>
<!-- Node6&#45;&gt;Node8 -->
<g id="edge7" class="edge"><title>Node6&#45;&gt;Node8</title>
<path fill="none" stroke="midnightblue" d="M842.877,-342.965C868.044,-337.627 896.55,-331.58 922.464,-326.083"/>
<polygon fill="midnightblue" stroke="midnightblue" points="923.201,-329.505 932.257,-324.006 921.748,-322.657 923.201,-329.505"/>
</g>
<!-- Node9 -->
<g id="node9" class="node"><title>Node9</title>
<g id="a_node9"><a xlink:href="../../d0/d7f/classengine_1_1game_object_1_1_game_object.html#a31aa2c854220621b49fc5575b50b9342" target="_top" xlink:title="engine.gameObject.GameObject.get\lWidth">
<polygon fill="white" stroke="black" points="908,-343 908,-373 1100,-373 1100,-343 908,-343"/>
<text text-anchor="start" x="916" y="-361" font-family="Helvetica,sans-Serif" font-size="10.00">engine.gameObject.GameObject.get</text>
<text text-anchor="middle" x="1004" y="-350" font-family="Helvetica,sans-Serif" font-size="10.00">Width</text>
</a>
</g>
</g>
<!-- Node6&#45;&gt;Node9 -->
<g id="edge8" class="edge"><title>Node6&#45;&gt;Node9</title>
<path fill="none" stroke="midnightblue" d="M849.241,-358C864.773,-358 881.346,-358 897.647,-358"/>
<polygon fill="midnightblue" stroke="midnightblue" points="897.75,-361.5 907.75,-358 897.75,-354.5 897.75,-361.5"/>
</g>
<!-- Node12 -->
<g id="node12" class="node"><title>Node12</title>
<g id="a_node12"><a xlink:href="../../d0/d7f/classengine_1_1game_object_1_1_game_object.html#a60c5b6933aac9969491a3562a963c043" target="_top" xlink:title="engine.gameObject.GameObject.get\lPhysicsBody">
<polygon fill="white" stroke="black" points="908,-196 908,-226 1100,-226 1100,-196 908,-196"/>
<text text-anchor="start" x="916" y="-214" font-family="Helvetica,sans-Serif" font-size="10.00">engine.gameObject.GameObject.get</text>
<text text-anchor="middle" x="1004" y="-203" font-family="Helvetica,sans-Serif" font-size="10.00">PhysicsBody</text>
</a>
</g>
</g>
<!-- Node11&#45;&gt;Node12 -->
<g id="edge11" class="edge"><title>Node11&#45;&gt;Node12</title>
<path fill="none" stroke="midnightblue" d="M849.241,-211C864.773,-211 881.346,-211 897.647,-211"/>
<polygon fill="midnightblue" stroke="midnightblue" points="897.75,-214.5 907.75,-211 897.75,-207.5 897.75,-214.5"/>
</g>
<!-- Node13 -->
<g id="node13" class="node"><title>Node13</title>
<g id="a_node13"><a xlink:href="../../d9/d9d/classengine_1_1game_object_1_1components_1_1_physics_body.html#aba2ed3bce8ee8e404907c88b144626fc" target="_top" xlink:title="engine.gameObject.components.\lPhysicsBody.getCollisionBodyHeight">
<polygon fill="white" stroke="black" points="910,-147 910,-177 1098,-177 1098,-147 910,-147"/>
<text text-anchor="start" x="918" y="-165" font-family="Helvetica,sans-Serif" font-size="10.00">engine.gameObject.components.</text>
<text text-anchor="middle" x="1004" y="-154" font-family="Helvetica,sans-Serif" font-size="10.00">PhysicsBody.getCollisionBodyHeight</text>
</a>
</g>
</g>
<!-- Node11&#45;&gt;Node13 -->
<g id="edge12" class="edge"><title>Node11&#45;&gt;Node13</title>
<path fill="none" stroke="midnightblue" d="M842.877,-195.965C868.044,-190.627 896.55,-184.58 922.464,-179.083"/>
<polygon fill="midnightblue" stroke="midnightblue" points="923.201,-182.505 932.257,-177.006 921.748,-175.657 923.201,-182.505"/>
</g>
<!-- Node14 -->
<g id="node14" class="node"><title>Node14</title>
<g id="a_node14"><a xlink:href="../../d9/d9d/classengine_1_1game_object_1_1components_1_1_physics_body.html#ae64e43632570392c3118b3d00af853fc" target="_top" xlink:title="engine.gameObject.components.\lPhysicsBody.getCollisionBodyWidth">
<polygon fill="white" stroke="black" points="913,-98 913,-128 1095,-128 1095,-98 913,-98"/>
<text text-anchor="start" x="921" y="-116" font-family="Helvetica,sans-Serif" font-size="10.00">engine.gameObject.components.</text>
<text text-anchor="middle" x="1004" y="-105" font-family="Helvetica,sans-Serif" font-size="10.00">PhysicsBody.getCollisionBodyWidth</text>
</a>
</g>
</g>
<!-- Node11&#45;&gt;Node14 -->
<g id="edge13" class="edge"><title>Node11&#45;&gt;Node14</title>
<path fill="none" stroke="midnightblue" d="M849.161,-197.59C857.226,-194.496 865.016,-190.687 872,-186 894.439,-170.941 885.58,-152.087 908,-137 910.302,-135.451 912.697,-134.002 915.163,-132.646"/>
<polygon fill="midnightblue" stroke="midnightblue" points="916.926,-135.679 924.365,-128.135 913.845,-129.394 916.926,-135.679"/>
</g>
<!-- Node16&#45;&gt;Node8 -->
<g id="edge17" class="edge"><title>Node16&#45;&gt;Node8</title>
<path fill="none" stroke="midnightblue" d="M849.241,-309C864.773,-309 881.346,-309 897.647,-309"/>
<polygon fill="midnightblue" stroke="midnightblue" points="897.75,-312.5 907.75,-309 897.75,-305.5 897.75,-312.5"/>
</g>
<!-- Node16&#45;&gt;Node9 -->
<g id="edge18" class="edge"><title>Node16&#45;&gt;Node9</title>
<path fill="none" stroke="midnightblue" d="M842.877,-324.035C868.044,-329.373 896.55,-335.42 922.464,-340.917"/>
<polygon fill="midnightblue" stroke="midnightblue" points="921.748,-344.343 932.257,-342.994 923.201,-337.495 921.748,-344.343"/>
</g>
<!-- Node17 -->
<g id="node17" class="node"><title>Node17</title>
<g id="a_node17"><a xlink:href="../../d0/d7f/classengine_1_1game_object_1_1_game_object.html#a5c379828f3bb19a91935f965c48a91a5" target="_top" xlink:title="engine.gameObject.GameObject.get\lLabel">
<polygon fill="white" stroke="black" points="908,-245 908,-275 1100,-275 1100,-245 908,-245"/>
<text text-anchor="start" x="916" y="-263" font-family="Helvetica,sans-Serif" font-size="10.00">engine.gameObject.GameObject.get</text>
<text text-anchor="middle" x="1004" y="-252" font-family="Helvetica,sans-Serif" font-size="10.00">Label</text>
</a>
</g>
</g>
<!-- Node16&#45;&gt;Node17 -->
<g id="edge16" class="edge"><title>Node16&#45;&gt;Node17</title>
<path fill="none" stroke="midnightblue" d="M842.877,-293.965C868.044,-288.627 896.55,-282.58 922.464,-277.083"/>
<polygon fill="midnightblue" stroke="midnightblue" points="923.201,-280.505 932.257,-275.006 921.748,-273.657 923.201,-280.505"/>
</g>
</g>
</svg>
