<?xml version="1.0" encoding="UTF-8" standalone="no"?>
<!DOCTYPE svg PUBLIC "-//W3C//DTD SVG 1.1//EN"
 "http://www.w3.org/Graphics/SVG/1.1/DTD/svg11.dtd">
<!-- Generated by graphviz version 2.36.0 (20140111.2315)
 -->
<!-- Title: engine.actions.MakeNewRandomObjectAction.execute Pages: 1 -->
<svg width="1320pt" height="398pt"
 viewBox="0.00 0.00 1320.00 398.00" xmlns="http://www.w3.org/2000/svg" xmlns:xlink="http://www.w3.org/1999/xlink">
<g id="graph0" class="graph" transform="scale(1 1) rotate(0) translate(4 394)">
<title>engine.actions.MakeNewRandomObjectAction.execute</title>
<polygon fill="white" stroke="none" points="-4,4 -4,-394 1316,-394 1316,4 -4,4"/>
<!-- Node1 -->
<g id="node1" class="node"><title>Node1</title>
<polygon fill="#bfbfbf" stroke="black" points="0.5,-115 0.5,-145 175.5,-145 175.5,-115 0.5,-115"/>
<text text-anchor="start" x="8.5" y="-133" font-family="Helvetica,sans-Serif" font-size="10.00">engine.actions.MakeNewRandom</text>
<text text-anchor="middle" x="88" y="-122" font-family="Helvetica,sans-Serif" font-size="10.00">ObjectAction.execute</text>
</g>
<!-- Node2 -->
<g id="node2" class="node"><title>Node2</title>
<g id="a_node2"><a xlink:href="../../da/d16/classengine_1_1actions_1_1_make_new_random_object_action.html#a82ccd5604bd05170e416e41b32020f00" target="_top" xlink:title="engine.actions.MakeNewRandom\lObjectAction.makeRandomObject">
<polygon fill="white" stroke="black" points="212,-115 212,-145 390,-145 390,-115 212,-115"/>
<text text-anchor="start" x="220" y="-133" font-family="Helvetica,sans-Serif" font-size="10.00">engine.actions.MakeNewRandom</text>
<text text-anchor="middle" x="301" y="-122" font-family="Helvetica,sans-Serif" font-size="10.00">ObjectAction.makeRandomObject</text>
</a>
</g>
</g>
<!-- Node1&#45;&gt;Node2 -->
<g id="edge1" class="edge"><title>Node1&#45;&gt;Node2</title>
<path fill="none" stroke="midnightblue" d="M175.735,-130C184.313,-130 193.063,-130 201.746,-130"/>
<polygon fill="midnightblue" stroke="midnightblue" points="201.895,-133.5 211.895,-130 201.895,-126.5 201.895,-133.5"/>
</g>
<!-- Node3 -->
<g id="node3" class="node"><title>Node3</title>
<g id="a_node3"><a xlink:href="../../d0/d7f/classengine_1_1game_object_1_1_game_object.html#a9a4690b212ecad4060ce8f9abbcedba5" target="_top" xlink:title="engine.gameObject.GameObject.set\lIdentifier">
<polygon fill="white" stroke="black" points="426.5,-213 426.5,-243 617.5,-243 617.5,-213 426.5,-213"/>
<text text-anchor="start" x="434.5" y="-231" font-family="Helvetica,sans-Serif" font-size="10.00">engine.gameObject.GameObject.set</text>
<text text-anchor="middle" x="522" y="-220" font-family="Helvetica,sans-Serif" font-size="10.00">Identifier</text>
</a>
</g>
</g>
<!-- Node2&#45;&gt;Node3 -->
<g id="edge2" class="edge"><title>Node2&#45;&gt;Node3</title>
<path fill="none" stroke="midnightblue" d="M323.442,-145.106C347.437,-161.406 387.95,-187.15 426,-203 431.889,-205.453 438.085,-207.723 444.373,-209.811"/>
<polygon fill="midnightblue" stroke="midnightblue" points="443.709,-213.272 454.299,-212.943 445.816,-206.596 443.709,-213.272"/>
</g>
<!-- Node4 -->
<g id="node4" class="node"><title>Node4</title>
<g id="a_node4"><a xlink:href="../../d0/d7f/classengine_1_1game_object_1_1_game_object.html#ab9b1029f6d5a8a7eb563d5e6e1dcf570" target="_top" xlink:title="engine.gameObject.GameObject.set\lPhysicsBody">
<polygon fill="white" stroke="black" points="426.5,-164 426.5,-194 617.5,-194 617.5,-164 426.5,-164"/>
<text text-anchor="start" x="434.5" y="-182" font-family="Helvetica,sans-Serif" font-size="10.00">engine.gameObject.GameObject.set</text>
<text text-anchor="middle" x="522" y="-171" font-family="Helvetica,sans-Serif" font-size="10.00">PhysicsBody</text>
</a>
</g>
</g>
<!-- Node2&#45;&gt;Node4 -->
<g id="edge3" class="edge"><title>Node2&#45;&gt;Node4</title>
<path fill="none" stroke="midnightblue" d="M369.196,-145.035C392.844,-150.326 419.604,-156.313 443.998,-161.771"/>
<polygon fill="midnightblue" stroke="midnightblue" points="443.409,-165.226 453.932,-163.994 444.937,-158.395 443.409,-165.226"/>
</g>
<!-- Node5 -->
<g id="node5" class="node"><title>Node5</title>
<g id="a_node5"><a xlink:href="../../dd/d8d/classengine_1_1render_1_1_renderer.html#a569f6bb2f9c218ed015949dff459b1ee" target="_top" xlink:title="engine.render.Renderer.create\lAndAssignRenderedNode">
<polygon fill="white" stroke="black" points="441.5,-115 441.5,-145 602.5,-145 602.5,-115 441.5,-115"/>
<text text-anchor="start" x="449.5" y="-133" font-family="Helvetica,sans-Serif" font-size="10.00">engine.render.Renderer.create</text>
<text text-anchor="middle" x="522" y="-122" font-family="Helvetica,sans-Serif" font-size="10.00">AndAssignRenderedNode</text>
</a>
</g>
</g>
<!-- Node2&#45;&gt;Node5 -->
<g id="edge4" class="edge"><title>Node2&#45;&gt;Node5</title>
<path fill="none" stroke="midnightblue" d="M390.129,-130C403.578,-130 417.475,-130 430.965,-130"/>
<polygon fill="midnightblue" stroke="midnightblue" points="431.187,-133.5 441.187,-130 431.187,-126.5 431.187,-133.5"/>
</g>
<!-- Node25 -->
<g id="node25" class="node"><title>Node25</title>
<g id="a_node25"><a xlink:href="../../df/d84/classengine_1_1level_1_1_level.html#ac927326f1a3d7e17b5d577c336a5cfc1" target="_top" xlink:title="engine.level.Level.getGame\lObjectsCollection">
<polygon fill="white" stroke="black" points="447.5,-66 447.5,-96 596.5,-96 596.5,-66 447.5,-66"/>
<text text-anchor="start" x="455.5" y="-84" font-family="Helvetica,sans-Serif" font-size="10.00">engine.level.Level.getGame</text>
<text text-anchor="middle" x="522" y="-73" font-family="Helvetica,sans-Serif" font-size="10.00">ObjectsCollection</text>
</a>
</g>
</g>
<!-- Node2&#45;&gt;Node25 -->
<g id="edge26" class="edge"><title>Node2&#45;&gt;Node25</title>
<path fill="none" stroke="midnightblue" d="M369.196,-114.965C392.844,-109.674 419.604,-103.687 443.998,-98.2288"/>
<polygon fill="midnightblue" stroke="midnightblue" points="444.937,-101.605 453.932,-96.0062 443.409,-94.7742 444.937,-101.605"/>
</g>
<!-- Node26 -->
<g id="node26" class="node"><title>Node26</title>
<g id="a_node26"><a xlink:href="../../d4/d3b/classauthoring_1_1model_1_1collections_1_1_general_collection.html#a1bdc1047736bbb23259d6a7fe4c6deeb" target="_top" xlink:title="authoring.model.collections.\lGeneralCollection.add">
<polygon fill="white" stroke="black" points="446,-17 446,-47 598,-47 598,-17 446,-17"/>
<text text-anchor="start" x="454" y="-35" font-family="Helvetica,sans-Serif" font-size="10.00">authoring.model.collections.</text>
<text text-anchor="middle" x="522" y="-24" font-family="Helvetica,sans-Serif" font-size="10.00">GeneralCollection.add</text>
</a>
</g>
</g>
<!-- Node2&#45;&gt;Node26 -->
<g id="edge27" class="edge"><title>Node2&#45;&gt;Node26</title>
<path fill="none" stroke="midnightblue" d="M322.946,-114.898C346.828,-98.314 387.553,-71.9276 426,-56 431.059,-53.9044 436.347,-51.9563 441.727,-50.1518"/>
<polygon fill="midnightblue" stroke="midnightblue" points="443.008,-53.4176 451.482,-47.058 440.891,-46.7452 443.008,-53.4176"/>
</g>
<!-- Node6 -->
<g id="node6" class="node"><title>Node6</title>
<g id="a_node6"><a xlink:href="../../d5/d30/classengine_1_1render_1_1_rendered_node_factory.html#a359dcce722371dfb49b79528930c1b05" target="_top" xlink:title="engine.render.RenderedNode\lFactory.createRenderedNode">
<polygon fill="white" stroke="black" points="672,-164 672,-194 828,-194 828,-164 672,-164"/>
<text text-anchor="start" x="680" y="-182" font-family="Helvetica,sans-Serif" font-size="10.00">engine.render.RenderedNode</text>
<text text-anchor="middle" x="750" y="-171" font-family="Helvetica,sans-Serif" font-size="10.00">Factory.createRenderedNode</text>
</a>
</g>
</g>
<!-- Node5&#45;&gt;Node6 -->
<g id="edge5" class="edge"><title>Node5&#45;&gt;Node6</title>
<path fill="none" stroke="midnightblue" d="M592.343,-145.035C616.857,-150.349 644.609,-156.367 669.872,-161.844"/>
<polygon fill="midnightblue" stroke="midnightblue" points="669.273,-165.295 679.788,-163.994 670.757,-158.454 669.273,-165.295"/>
</g>
<!-- Node23 -->
<g id="node23" class="node"><title>Node23</title>
<g id="a_node23"><a xlink:href="../../d0/d7f/classengine_1_1game_object_1_1_game_object.html#accd456b2eaab9c7056de825a28b066c8" target="_top" xlink:title="engine.gameObject.GameObject.get\lIdentifier">
<polygon fill="white" stroke="black" points="654,-115 654,-145 846,-145 846,-115 654,-115"/>
<text text-anchor="start" x="662" y="-133" font-family="Helvetica,sans-Serif" font-size="10.00">engine.gameObject.GameObject.get</text>
<text text-anchor="middle" x="750" y="-122" font-family="Helvetica,sans-Serif" font-size="10.00">Identifier</text>
</a>
</g>
</g>
<!-- Node5&#45;&gt;Node23 -->
<g id="edge24" class="edge"><title>Node5&#45;&gt;Node23</title>
<path fill="none" stroke="midnightblue" d="M602.679,-130C615.973,-130 629.943,-130 643.758,-130"/>
<polygon fill="midnightblue" stroke="midnightblue" points="643.777,-133.5 653.777,-130 643.777,-126.5 643.777,-133.5"/>
</g>
<!-- Node24 -->
<g id="node24" class="node"><title>Node24</title>
<g id="a_node24"><a xlink:href="../../d0/d7f/classengine_1_1game_object_1_1_game_object.html#ab09d473d8c2afe8cefb2ce2481bc66fd" target="_top" xlink:title="engine.gameObject.GameObject.set\lRenderedNode">
<polygon fill="white" stroke="black" points="654.5,-66 654.5,-96 845.5,-96 845.5,-66 654.5,-66"/>
<text text-anchor="start" x="662.5" y="-84" font-family="Helvetica,sans-Serif" font-size="10.00">engine.gameObject.GameObject.set</text>
<text text-anchor="middle" x="750" y="-73" font-family="Helvetica,sans-Serif" font-size="10.00">RenderedNode</text>
</a>
</g>
</g>
<!-- Node5&#45;&gt;Node24 -->
<g id="edge25" class="edge"><title>Node5&#45;&gt;Node24</title>
<path fill="none" stroke="midnightblue" d="M592.343,-114.965C616.857,-109.651 644.609,-103.633 669.872,-98.156"/>
<polygon fill="midnightblue" stroke="midnightblue" points="670.757,-101.546 679.788,-96.0062 669.273,-94.7046 670.757,-101.546"/>
</g>
<!-- Node7 -->
<g id="node7" class="node"><title>Node7</title>
<g id="a_node7"><a xlink:href="../../d2/d82/classengine_1_1render_1_1_rendered_node.html#a520a8c03b505d10c69e010e603cadfdd" target="_top" xlink:title="engine.render.RenderedNode.set\lImageView">
<polygon fill="white" stroke="black" points="896,-360 896,-390 1070,-390 1070,-360 896,-360"/>
<text text-anchor="start" x="904" y="-378" font-family="Helvetica,sans-Serif" font-size="10.00">engine.render.RenderedNode.set</text>
<text text-anchor="middle" x="983" y="-367" font-family="Helvetica,sans-Serif" font-size="10.00">ImageView</text>
</a>
</g>
</g>
<!-- Node6&#45;&gt;Node7 -->
<g id="edge6" class="edge"><title>Node6&#45;&gt;Node7</title>
<path fill="none" stroke="midnightblue" d="M758.088,-194.074C774.691,-227.669 819.479,-308.946 882,-350 885.139,-352.061 888.435,-353.952 891.842,-355.688"/>
<polygon fill="midnightblue" stroke="midnightblue" points="890.537,-358.94 901.086,-359.927 893.455,-352.577 890.537,-358.94"/>
</g>
<!-- Node8 -->
<g id="node8" class="node"><title>Node8</title>
<g id="a_node8"><a xlink:href="../../d5/d30/classengine_1_1render_1_1_rendered_node_factory.html#ae9ab86f88eb96945a412e561179aa070" target="_top" xlink:title="engine.render.RenderedNode\lFactory.createImageAndView">
<polygon fill="white" stroke="black" points="905,-311 905,-341 1061,-341 1061,-311 905,-311"/>
<text text-anchor="start" x="913" y="-329" font-family="Helvetica,sans-Serif" font-size="10.00">engine.render.RenderedNode</text>
<text text-anchor="middle" x="983" y="-318" font-family="Helvetica,sans-Serif" font-size="10.00">Factory.createImageAndView</text>
</a>
</g>
</g>
<!-- Node6&#45;&gt;Node8 -->
<g id="edge7" class="edge"><title>Node6&#45;&gt;Node8</title>
<path fill="none" stroke="midnightblue" d="M762.95,-194.35C784.073,-220.394 830.653,-273.121 882,-301 886.249,-303.307 890.714,-305.405 895.304,-307.313"/>
<polygon fill="midnightblue" stroke="midnightblue" points="894.278,-310.668 904.868,-310.969 896.777,-304.129 894.278,-310.668"/>
</g>
<!-- Node12 -->
<g id="node12" class="node"><title>Node12</title>
<g id="a_node12"><a xlink:href="../../d2/d82/classengine_1_1render_1_1_rendered_node.html#ad73c81ad48b40faea3818c9a7bbfdcf0" target="_top" xlink:title="engine.render.RenderedNode.set\lCollisionBody">
<polygon fill="white" stroke="black" points="896,-213 896,-243 1070,-243 1070,-213 896,-213"/>
<text text-anchor="start" x="904" y="-231" font-family="Helvetica,sans-Serif" font-size="10.00">engine.render.RenderedNode.set</text>
<text text-anchor="middle" x="983" y="-220" font-family="Helvetica,sans-Serif" font-size="10.00">CollisionBody</text>
</a>
</g>
</g>
<!-- Node6&#45;&gt;Node12 -->
<g id="edge11" class="edge"><title>Node6&#45;&gt;Node12</title>
<path fill="none" stroke="midnightblue" d="M821.877,-194.035C847.044,-199.373 875.55,-205.42 901.464,-210.917"/>
<polygon fill="midnightblue" stroke="midnightblue" points="900.748,-214.343 911.257,-212.994 902.201,-207.495 900.748,-214.343"/>
</g>
<!-- Node13 -->
<g id="node13" class="node"><title>Node13</title>
<g id="a_node13"><a xlink:href="../../d5/d30/classengine_1_1render_1_1_rendered_node_factory.html#ac14d2f5a3da79d92c967fe22bc82c1ed" target="_top" xlink:title="engine.render.RenderedNode\lFactory.createCollisionBody">
<polygon fill="white" stroke="black" points="905,-164 905,-194 1061,-194 1061,-164 905,-164"/>
<text text-anchor="start" x="913" y="-182" font-family="Helvetica,sans-Serif" font-size="10.00">engine.render.RenderedNode</text>
<text text-anchor="middle" x="983" y="-171" font-family="Helvetica,sans-Serif" font-size="10.00">Factory.createCollisionBody</text>
</a>
</g>
</g>
<!-- Node6&#45;&gt;Node13 -->
<g id="edge12" class="edge"><title>Node6&#45;&gt;Node13</title>
<path fill="none" stroke="midnightblue" d="M828.241,-179C849.527,-179 872.769,-179 894.587,-179"/>
<polygon fill="midnightblue" stroke="midnightblue" points="894.832,-182.5 904.832,-179 894.832,-175.5 894.832,-182.5"/>
</g>
<!-- Node17 -->
<g id="node17" class="node"><title>Node17</title>
<g id="a_node17"><a xlink:href="../../d2/d82/classengine_1_1render_1_1_rendered_node.html#a312c663dd1144ff206ecfa1ea8c95a81" target="_top" xlink:title="engine.render.RenderedNode.set\lLabel">
<polygon fill="white" stroke="black" points="896,-115 896,-145 1070,-145 1070,-115 896,-115"/>
<text text-anchor="start" x="904" y="-133" font-family="Helvetica,sans-Serif" font-size="10.00">engine.render.RenderedNode.set</text>
<text text-anchor="middle" x="983" y="-122" font-family="Helvetica,sans-Serif" font-size="10.00">Label</text>
</a>
</g>
</g>
<!-- Node6&#45;&gt;Node17 -->
<g id="edge16" class="edge"><title>Node6&#45;&gt;Node17</title>
<path fill="none" stroke="midnightblue" d="M821.877,-163.965C847.044,-158.627 875.55,-152.58 901.464,-147.083"/>
<polygon fill="midnightblue" stroke="midnightblue" points="902.201,-150.505 911.257,-145.006 900.748,-143.657 902.201,-150.505"/>
</g>
<!-- Node18 -->
<g id="node18" class="node"><title>Node18</title>
<g id="a_node18"><a xlink:href="../../d5/d30/classengine_1_1render_1_1_rendered_node_factory.html#a4e1f4508b1c12b958bd3c88a35a4e872" target="_top" xlink:title="engine.render.RenderedNode\lFactory.createLabel">
<polygon fill="white" stroke="black" points="905,-262 905,-292 1061,-292 1061,-262 905,-262"/>
<text text-anchor="start" x="913" y="-280" font-family="Helvetica,sans-Serif" font-size="10.00">engine.render.RenderedNode</text>
<text text-anchor="middle" x="983" y="-269" font-family="Helvetica,sans-Serif" font-size="10.00">Factory.createLabel</text>
</a>
</g>
</g>
<!-- Node6&#45;&gt;Node18 -->
<g id="edge17" class="edge"><title>Node6&#45;&gt;Node18</title>
<path fill="none" stroke="midnightblue" d="M773.748,-194.124C799.18,-210.44 842.053,-236.198 882,-252 888.373,-254.521 895.077,-256.847 901.871,-258.98"/>
<polygon fill="midnightblue" stroke="midnightblue" points="901.276,-262.456 911.86,-261.968 903.282,-255.749 901.276,-262.456"/>
</g>
<!-- Node20 -->
<g id="node20" class="node"><title>Node20</title>
<g id="a_node20"><a xlink:href="../../d0/d7f/classengine_1_1game_object_1_1_game_object.html#a606c7293c2bfac0af1fb42143bf527f6" target="_top" xlink:title="engine.gameObject.GameObject.getX">
<polygon fill="white" stroke="black" points="884,-76.5 884,-95.5 1082,-95.5 1082,-76.5 884,-76.5"/>
<text text-anchor="middle" x="983" y="-83.5" font-family="Helvetica,sans-Serif" font-size="10.00">engine.gameObject.GameObject.getX</text>
</a>
</g>
</g>
<!-- Node6&#45;&gt;Node20 -->
<g id="edge21" class="edge"><title>Node6&#45;&gt;Node20</title>
<path fill="none" stroke="midnightblue" d="M827.719,-163.834C834.162,-161.084 840.359,-157.836 846,-154 868.345,-138.803 859.14,-119.411 882,-105 885.352,-102.887 888.884,-100.998 892.538,-99.3111"/>
<polygon fill="midnightblue" stroke="midnightblue" points="893.904,-102.534 901.843,-95.5183 891.261,-96.052 893.904,-102.534"/>
</g>
<!-- Node21 -->
<g id="node21" class="node"><title>Node21</title>
<g id="a_node21"><a xlink:href="../../d0/d7f/classengine_1_1game_object_1_1_game_object.html#a1988806ef560c9384f3844d0666a9450" target="_top" xlink:title="engine.gameObject.GameObject.getY">
<polygon fill="white" stroke="black" points="884.5,-38.5 884.5,-57.5 1081.5,-57.5 1081.5,-38.5 884.5,-38.5"/>
<text text-anchor="middle" x="983" y="-45.5" font-family="Helvetica,sans-Serif" font-size="10.00">engine.gameObject.GameObject.getY</text>
</a>
</g>
</g>
<!-- Node6&#45;&gt;Node21 -->
<g id="edge22" class="edge"><title>Node6&#45;&gt;Node21</title>
<path fill="none" stroke="midnightblue" d="M828.326,-165.451C834.717,-162.367 840.733,-158.6 846,-154 877.518,-126.474 849.543,-93.4137 882,-67 884.039,-65.3408 886.178,-63.8102 888.4,-62.399"/>
<polygon fill="midnightblue" stroke="midnightblue" points="890.232,-65.3868 897.337,-57.5275 886.881,-59.2406 890.232,-65.3868"/>
</g>
<!-- Node22 -->
<g id="node22" class="node"><title>Node22</title>
<g id="a_node22"><a xlink:href="../../d0/d7f/classengine_1_1game_object_1_1_game_object.html#ae94fe532960bd29f64c2dc19ec0af798" target="_top" xlink:title="engine.gameObject.GameObject.getID">
<polygon fill="white" stroke="black" points="882,-0.5 882,-19.5 1084,-19.5 1084,-0.5 882,-0.5"/>
<text text-anchor="middle" x="983" y="-7.5" font-family="Helvetica,sans-Serif" font-size="10.00">engine.gameObject.GameObject.getID</text>
</a>
</g>
</g>
<!-- Node6&#45;&gt;Node22 -->
<g id="edge23" class="edge"><title>Node6&#45;&gt;Node22</title>
<path fill="none" stroke="midnightblue" d="M828.428,-166.293C834.878,-163.043 840.877,-159.006 846,-154 887.35,-113.594 839.27,-67.9435 882,-29 883.518,-27.6162 885.105,-26.3189 886.751,-25.1031"/>
<polygon fill="midnightblue" stroke="midnightblue" points="888.802,-27.9482 895.427,-19.68 885.092,-22.0123 888.802,-27.9482"/>
</g>
<!-- Node9 -->
<g id="node9" class="node"><title>Node9</title>
<g id="a_node9"><a xlink:href="../../d0/d7f/classengine_1_1game_object_1_1_game_object.html#ae8b88e1cf489e935426e2e252defbae0" target="_top" xlink:title="engine.gameObject.GameObject.get\lCurrentImageName">
<polygon fill="white" stroke="black" points="1120,-360 1120,-390 1312,-390 1312,-360 1120,-360"/>
<text text-anchor="start" x="1128" y="-378" font-family="Helvetica,sans-Serif" font-size="10.00">engine.gameObject.GameObject.get</text>
<text text-anchor="middle" x="1216" y="-367" font-family="Helvetica,sans-Serif" font-size="10.00">CurrentImageName</text>
</a>
</g>
</g>
<!-- Node8&#45;&gt;Node9 -->
<g id="edge8" class="edge"><title>Node8&#45;&gt;Node9</title>
<path fill="none" stroke="midnightblue" d="M1054.88,-341.035C1080.04,-346.373 1108.55,-352.42 1134.46,-357.917"/>
<polygon fill="midnightblue" stroke="midnightblue" points="1133.75,-361.343 1144.26,-359.994 1135.2,-354.495 1133.75,-361.343"/>
</g>
<!-- Node10 -->
<g id="node10" class="node"><title>Node10</title>
<g id="a_node10"><a xlink:href="../../d0/d7f/classengine_1_1game_object_1_1_game_object.html#aaeb5730a3b51fe9cb3d817ea7172cfc2" target="_top" xlink:title="engine.gameObject.GameObject.get\lHeight">
<polygon fill="white" stroke="black" points="1120,-262 1120,-292 1312,-292 1312,-262 1120,-262"/>
<text text-anchor="start" x="1128" y="-280" font-family="Helvetica,sans-Serif" font-size="10.00">engine.gameObject.GameObject.get</text>
<text text-anchor="middle" x="1216" y="-269" font-family="Helvetica,sans-Serif" font-size="10.00">Height</text>
</a>
</g>
</g>
<!-- Node8&#45;&gt;Node10 -->
<g id="edge9" class="edge"><title>Node8&#45;&gt;Node10</title>
<path fill="none" stroke="midnightblue" d="M1054.88,-310.965C1080.04,-305.627 1108.55,-299.58 1134.46,-294.083"/>
<polygon fill="midnightblue" stroke="midnightblue" points="1135.2,-297.505 1144.26,-292.006 1133.75,-290.657 1135.2,-297.505"/>
</g>
<!-- Node11 -->
<g id="node11" class="node"><title>Node11</title>
<g id="a_node11"><a xlink:href="../../d0/d7f/classengine_1_1game_object_1_1_game_object.html#a31aa2c854220621b49fc5575b50b9342" target="_top" xlink:title="engine.gameObject.GameObject.get\lWidth">
<polygon fill="white" stroke="black" points="1120,-311 1120,-341 1312,-341 1312,-311 1120,-311"/>
<text text-anchor="start" x="1128" y="-329" font-family="Helvetica,sans-Serif" font-size="10.00">engine.gameObject.GameObject.get</text>
<text text-anchor="middle" x="1216" y="-318" font-family="Helvetica,sans-Serif" font-size="10.00">Width</text>
</a>
</g>
</g>
<!-- Node8&#45;&gt;Node11 -->
<g id="edge10" class="edge"><title>Node8&#45;&gt;Node11</title>
<path fill="none" stroke="midnightblue" d="M1061.24,-326C1076.77,-326 1093.35,-326 1109.65,-326"/>
<polygon fill="midnightblue" stroke="midnightblue" points="1109.75,-329.5 1119.75,-326 1109.75,-322.5 1109.75,-329.5"/>
</g>
<!-- Node14 -->
<g id="node14" class="node"><title>Node14</title>
<g id="a_node14"><a xlink:href="../../d0/d7f/classengine_1_1game_object_1_1_game_object.html#a60c5b6933aac9969491a3562a963c043" target="_top" xlink:title="engine.gameObject.GameObject.get\lPhysicsBody">
<polygon fill="white" stroke="black" points="1120,-164 1120,-194 1312,-194 1312,-164 1120,-164"/>
<text text-anchor="start" x="1128" y="-182" font-family="Helvetica,sans-Serif" font-size="10.00">engine.gameObject.GameObject.get</text>
<text text-anchor="middle" x="1216" y="-171" font-family="Helvetica,sans-Serif" font-size="10.00">PhysicsBody</text>
</a>
</g>
</g>
<!-- Node13&#45;&gt;Node14 -->
<g id="edge13" class="edge"><title>Node13&#45;&gt;Node14</title>
<path fill="none" stroke="midnightblue" d="M1061.24,-179C1076.77,-179 1093.35,-179 1109.65,-179"/>
<polygon fill="midnightblue" stroke="midnightblue" points="1109.75,-182.5 1119.75,-179 1109.75,-175.5 1109.75,-182.5"/>
</g>
<!-- Node15 -->
<g id="node15" class="node"><title>Node15</title>
<g id="a_node15"><a xlink:href="../../d9/d9d/classengine_1_1game_object_1_1components_1_1_physics_body.html#aba2ed3bce8ee8e404907c88b144626fc" target="_top" xlink:title="engine.gameObject.components.\lPhysicsBody.getCollisionBodyHeight">
<polygon fill="white" stroke="black" points="1122,-115 1122,-145 1310,-145 1310,-115 1122,-115"/>
<text text-anchor="start" x="1130" y="-133" font-family="Helvetica,sans-Serif" font-size="10.00">engine.gameObject.components.</text>
<text text-anchor="middle" x="1216" y="-122" font-family="Helvetica,sans-Serif" font-size="10.00">PhysicsBody.getCollisionBodyHeight</text>
</a>
</g>
</g>
<!-- Node13&#45;&gt;Node15 -->
<g id="edge14" class="edge"><title>Node13&#45;&gt;Node15</title>
<path fill="none" stroke="midnightblue" d="M1054.88,-163.965C1080.04,-158.627 1108.55,-152.58 1134.46,-147.083"/>
<polygon fill="midnightblue" stroke="midnightblue" points="1135.2,-150.505 1144.26,-145.006 1133.75,-143.657 1135.2,-150.505"/>
</g>
<!-- Node16 -->
<g id="node16" class="node"><title>Node16</title>
<g id="a_node16"><a xlink:href="../../d9/d9d/classengine_1_1game_object_1_1components_1_1_physics_body.html#ae64e43632570392c3118b3d00af853fc" target="_top" xlink:title="engine.gameObject.components.\lPhysicsBody.getCollisionBodyWidth">
<polygon fill="white" stroke="black" points="1125,-66 1125,-96 1307,-96 1307,-66 1125,-66"/>
<text text-anchor="start" x="1133" y="-84" font-family="Helvetica,sans-Serif" font-size="10.00">engine.gameObject.components.</text>
<text text-anchor="middle" x="1216" y="-73" font-family="Helvetica,sans-Serif" font-size="10.00">PhysicsBody.getCollisionBodyWidth</text>
</a>
</g>
</g>
<!-- Node13&#45;&gt;Node16 -->
<g id="edge15" class="edge"><title>Node13&#45;&gt;Node16</title>
<path fill="none" stroke="midnightblue" d="M1061.16,-165.59C1069.23,-162.496 1077.02,-158.687 1084,-154 1106.44,-138.941 1097.58,-120.087 1120,-105 1122.3,-103.451 1124.7,-102.002 1127.16,-100.646"/>
<polygon fill="midnightblue" stroke="midnightblue" points="1128.93,-103.679 1136.36,-96.1348 1125.84,-97.394 1128.93,-103.679"/>
</g>
<!-- Node18&#45;&gt;Node10 -->
<g id="edge19" class="edge"><title>Node18&#45;&gt;Node10</title>
<path fill="none" stroke="midnightblue" d="M1061.24,-277C1076.77,-277 1093.35,-277 1109.65,-277"/>
<polygon fill="midnightblue" stroke="midnightblue" points="1109.75,-280.5 1119.75,-277 1109.75,-273.5 1109.75,-280.5"/>
</g>
<!-- Node18&#45;&gt;Node11 -->
<g id="edge20" class="edge"><title>Node18&#45;&gt;Node11</title>
<path fill="none" stroke="midnightblue" d="M1054.88,-292.035C1080.04,-297.373 1108.55,-303.42 1134.46,-308.917"/>
<polygon fill="midnightblue" stroke="midnightblue" points="1133.75,-312.343 1144.26,-310.994 1135.2,-305.495 1133.75,-312.343"/>
</g>
<!-- Node19 -->
<g id="node19" class="node"><title>Node19</title>
<g id="a_node19"><a xlink:href="../../d0/d7f/classengine_1_1game_object_1_1_game_object.html#a5c379828f3bb19a91935f965c48a91a5" target="_top" xlink:title="engine.gameObject.GameObject.get\lLabel">
<polygon fill="white" stroke="black" points="1120,-213 1120,-243 1312,-243 1312,-213 1120,-213"/>
<text text-anchor="start" x="1128" y="-231" font-family="Helvetica,sans-Serif" font-size="10.00">engine.gameObject.GameObject.get</text>
<text text-anchor="middle" x="1216" y="-220" font-family="Helvetica,sans-Serif" font-size="10.00">Label</text>
</a>
</g>
</g>
<!-- Node18&#45;&gt;Node19 -->
<g id="edge18" class="edge"><title>Node18&#45;&gt;Node19</title>
<path fill="none" stroke="midnightblue" d="M1054.88,-261.965C1080.04,-256.627 1108.55,-250.58 1134.46,-245.083"/>
<polygon fill="midnightblue" stroke="midnightblue" points="1135.2,-248.505 1144.26,-243.006 1133.75,-241.657 1135.2,-248.505"/>
</g>
</g>
</svg>
