<?xml version="1.0" encoding="UTF-8" standalone="no"?>
<!DOCTYPE svg PUBLIC "-//W3C//DTD SVG 1.1//EN"
 "http://www.w3.org/Graphics/SVG/1.1/DTD/svg11.dtd">
<!-- Generated by graphviz version 2.36.0 (20140111.2315)
 -->
<!-- Title: engine.actions.ChangeImageIDAction.execute Pages: 1 -->
<!--zoomable 398 -->
<svg id="main" version="1.1" xmlns="http://www.w3.org/2000/svg" xmlns:xlink="http://www.w3.org/1999/xlink" xml:space="preserve" onload="init(evt)">
<style type="text/css"><![CDATA[
.edge:hover path { stroke: red; }
.edge:hover polygon { stroke: red; fill: red; }
]]></style>
<script type="text/javascript"><![CDATA[
var edges = document.getElementsByTagName('g');
if (edges && edges.length) {
  for (var i=0;i<edges.length;i++) {
    if (edges[i].id.substr(0,4)=='edge') {
      edges[i].setAttribute('class','edge');
    }
  }
}
]]></script>
        <defs>
                <circle id="rim" cx="0" cy="0" r="7"/>
                <circle id="rim2" cx="0" cy="0" r="3.5"/>
                <g id="zoomPlus">
                        <use xlink:href="#rim" fill="#404040">
                                <set attributeName="fill" to="#808080" begin="zoomplus.mouseover" end="zoomplus.mouseout"/>
                        </use>
                        <path d="M-4,0h8M0,-4v8" fill="none" stroke="white" stroke-width="1.5" pointer-events="none"/>
                </g>
                <g id="zoomMin">
                        <use xlink:href="#rim" fill="#404040">
                                <set attributeName="fill" to="#808080" begin="zoomminus.mouseover" end="zoomminus.mouseout"/>
                        </use>
                        <path d="M-4,0h8" fill="none" stroke="white" stroke-width="1.5" pointer-events="none"/>
                </g>
                <g id="dirArrow">
                        <path fill="none" stroke="white" stroke-width="1.5" d="M0,-3.0v7 M-2.5,-0.5L0,-3.0L2.5,-0.5"/>
                </g>
               <g id="resetDef">
                       <use xlink:href="#rim2" fill="#404040">
                               <set attributeName="fill" to="#808080" begin="reset.mouseover" end="reset.mouseout"/>
                       </use>
               </g>
        </defs>

<script type="text/javascript">
var viewWidth = 1062;
var viewHeight = 398;
var sectionId = 'dynsection-2';
</script>
<script xlink:href="../../svgpan.js"/>
<svg id="graph" class="graph">
<g id="viewport">
<title>engine.actions.ChangeImageIDAction.execute</title>
<polygon fill="white" stroke="none" points="-4,4 -4,-394 1058,-394 1058,4 -4,4"/>
<!-- Node1 -->
<g id="node1" class="node"><title>Node1</title>
<polygon fill="#bfbfbf" stroke="black" points="0,-90 0,-120 156,-120 156,-90 0,-90"/>
<text text-anchor="start" x="8" y="-108" font-family="Helvetica,sans-Serif" font-size="10.00">engine.actions.ChangeImage</text>
<text text-anchor="middle" x="78" y="-97" font-family="Helvetica,sans-Serif" font-size="10.00">IDAction.execute</text>
</g>
<!-- Node2 -->
<g id="node2" class="node"><title>Node2</title>
<g id="a_node2"><a xlink:href="../../dd/d8d/classengine_1_1render_1_1_renderer.html#a569f6bb2f9c218ed015949dff459b1ee" target="_top" xlink:title="engine.render.Renderer.create\lAndAssignRenderedNode">
<polygon fill="white" stroke="black" points="195.5,-115 195.5,-145 356.5,-145 356.5,-115 195.5,-115"/>
<text text-anchor="start" x="203.5" y="-133" font-family="Helvetica,sans-Serif" font-size="10.00">engine.render.Renderer.create</text>
<text text-anchor="middle" x="276" y="-122" font-family="Helvetica,sans-Serif" font-size="10.00">AndAssignRenderedNode</text>
</a>
</g>
</g>
<!-- Node1&#45;&gt;Node2 -->
<g id="edge1" class="edge"><title>Node1&#45;&gt;Node2</title>
<path fill="none" stroke="midnightblue" d="M156.183,-114.845C165.724,-116.062 175.541,-117.314 185.249,-118.552"/>
<polygon fill="midnightblue" stroke="midnightblue" points="184.948,-122.042 195.31,-119.835 185.833,-115.098 184.948,-122.042"/>
</g>
<!-- Node22 -->
<g id="node22" class="node"><title>Node22</title>
<g id="a_node22"><a xlink:href="../../dd/d8d/classengine_1_1render_1_1_renderer.html#a980236dc1412ddf1c0623ab38392bac7" target="_top" xlink:title="engine.render.Renderer.remove\lRenderedNode">
<polygon fill="white" stroke="black" points="192.5,-66 192.5,-96 359.5,-96 359.5,-66 192.5,-66"/>
<text text-anchor="start" x="200.5" y="-84" font-family="Helvetica,sans-Serif" font-size="10.00">engine.render.Renderer.remove</text>
<text text-anchor="middle" x="276" y="-73" font-family="Helvetica,sans-Serif" font-size="10.00">RenderedNode</text>
</a>
</g>
</g>
<!-- Node1&#45;&gt;Node22 -->
<g id="edge23" class="edge"><title>Node1&#45;&gt;Node22</title>
<path fill="none" stroke="midnightblue" d="M156.183,-95.549C164.73,-94.5025 173.498,-93.4289 182.211,-92.362"/>
<polygon fill="midnightblue" stroke="midnightblue" points="182.897,-95.8042 192.397,-91.1146 182.046,-88.8561 182.897,-95.8042"/>
</g>
<!-- Node3 -->
<g id="node3" class="node"><title>Node3</title>
<g id="a_node3"><a xlink:href="../../d5/d30/classengine_1_1render_1_1_rendered_node_factory.html#a359dcce722371dfb49b79528930c1b05" target="_top" xlink:title="engine.render.RenderedNode\lFactory.createRenderedNode">
<polygon fill="white" stroke="black" points="414,-164 414,-194 570,-194 570,-164 414,-164"/>
<text text-anchor="start" x="422" y="-182" font-family="Helvetica,sans-Serif" font-size="10.00">engine.render.RenderedNode</text>
<text text-anchor="middle" x="492" y="-171" font-family="Helvetica,sans-Serif" font-size="10.00">Factory.createRenderedNode</text>
</a>
</g>
</g>
<!-- Node2&#45;&gt;Node3 -->
<g id="edge2" class="edge"><title>Node2&#45;&gt;Node3</title>
<path fill="none" stroke="midnightblue" d="M342.661,-145.035C365.668,-150.302 391.687,-156.26 415.438,-161.698"/>
<polygon fill="midnightblue" stroke="midnightblue" points="414.934,-165.173 425.463,-163.994 416.496,-158.35 414.934,-165.173"/>
</g>
<!-- Node20 -->
<g id="node20" class="node"><title>Node20</title>
<g id="a_node20"><a xlink:href="../../d0/d7f/classengine_1_1game_object_1_1_game_object.html#accd456b2eaab9c7056de825a28b066c8" target="_top" xlink:title="engine.gameObject.GameObject.get\lIdentifier">
<polygon fill="white" stroke="black" points="396,-115 396,-145 588,-145 588,-115 396,-115"/>
<text text-anchor="start" x="404" y="-133" font-family="Helvetica,sans-Serif" font-size="10.00">engine.gameObject.GameObject.get</text>
<text text-anchor="middle" x="492" y="-122" font-family="Helvetica,sans-Serif" font-size="10.00">Identifier</text>
</a>
</g>
</g>
<!-- Node2&#45;&gt;Node20 -->
<g id="edge21" class="edge"><title>Node2&#45;&gt;Node20</title>
<path fill="none" stroke="midnightblue" d="M356.686,-130C366.123,-130 375.864,-130 385.587,-130"/>
<polygon fill="midnightblue" stroke="midnightblue" points="385.7,-133.5 395.7,-130 385.7,-126.5 385.7,-133.5"/>
</g>
<!-- Node21 -->
<g id="node21" class="node"><title>Node21</title>
<g id="a_node21"><a xlink:href="../../d0/d7f/classengine_1_1game_object_1_1_game_object.html#ab09d473d8c2afe8cefb2ce2481bc66fd" target="_top" xlink:title="engine.gameObject.GameObject.set\lRenderedNode">
<polygon fill="white" stroke="black" points="396.5,-66 396.5,-96 587.5,-96 587.5,-66 396.5,-66"/>
<text text-anchor="start" x="404.5" y="-84" font-family="Helvetica,sans-Serif" font-size="10.00">engine.gameObject.GameObject.set</text>
<text text-anchor="middle" x="492" y="-73" font-family="Helvetica,sans-Serif" font-size="10.00">RenderedNode</text>
</a>
</g>
</g>
<!-- Node2&#45;&gt;Node21 -->
<g id="edge22" class="edge"><title>Node2&#45;&gt;Node21</title>
<path fill="none" stroke="midnightblue" d="M342.661,-114.965C365.668,-109.698 391.687,-103.74 415.438,-98.3016"/>
<polygon fill="midnightblue" stroke="midnightblue" points="416.496,-101.65 425.463,-96.0062 414.934,-94.8265 416.496,-101.65"/>
</g>
<!-- Node4 -->
<g id="node4" class="node"><title>Node4</title>
<g id="a_node4"><a xlink:href="../../d2/d82/classengine_1_1render_1_1_rendered_node.html#a520a8c03b505d10c69e010e603cadfdd" target="_top" xlink:title="engine.render.RenderedNode.set\lImageView">
<polygon fill="white" stroke="black" points="638,-360 638,-390 812,-390 812,-360 638,-360"/>
<text text-anchor="start" x="646" y="-378" font-family="Helvetica,sans-Serif" font-size="10.00">engine.render.RenderedNode.set</text>
<text text-anchor="middle" x="725" y="-367" font-family="Helvetica,sans-Serif" font-size="10.00">ImageView</text>
</a>
</g>
</g>
<!-- Node3&#45;&gt;Node4 -->
<g id="edge3" class="edge"><title>Node3&#45;&gt;Node4</title>
<path fill="none" stroke="midnightblue" d="M500.088,-194.074C516.691,-227.669 561.479,-308.946 624,-350 627.139,-352.061 630.435,-353.952 633.842,-355.688"/>
<polygon fill="midnightblue" stroke="midnightblue" points="632.537,-358.94 643.086,-359.927 635.455,-352.577 632.537,-358.94"/>
</g>
<!-- Node5 -->
<g id="node5" class="node"><title>Node5</title>
<g id="a_node5"><a xlink:href="../../d5/d30/classengine_1_1render_1_1_rendered_node_factory.html#ae9ab86f88eb96945a412e561179aa070" target="_top" xlink:title="engine.render.RenderedNode\lFactory.createImageAndView">
<polygon fill="white" stroke="black" points="647,-311 647,-341 803,-341 803,-311 647,-311"/>
<text text-anchor="start" x="655" y="-329" font-family="Helvetica,sans-Serif" font-size="10.00">engine.render.RenderedNode</text>
<text text-anchor="middle" x="725" y="-318" font-family="Helvetica,sans-Serif" font-size="10.00">Factory.createImageAndView</text>
</a>
</g>
</g>
<!-- Node3&#45;&gt;Node5 -->
<g id="edge4" class="edge"><title>Node3&#45;&gt;Node5</title>
<path fill="none" stroke="midnightblue" d="M504.95,-194.35C526.073,-220.394 572.653,-273.121 624,-301 628.249,-303.307 632.714,-305.405 637.304,-307.313"/>
<polygon fill="midnightblue" stroke="midnightblue" points="636.278,-310.668 646.868,-310.969 638.777,-304.129 636.278,-310.668"/>
</g>
<!-- Node9 -->
<g id="node9" class="node"><title>Node9</title>
<g id="a_node9"><a xlink:href="../../d2/d82/classengine_1_1render_1_1_rendered_node.html#ad73c81ad48b40faea3818c9a7bbfdcf0" target="_top" xlink:title="engine.render.RenderedNode.set\lCollisionBody">
<polygon fill="white" stroke="black" points="638,-213 638,-243 812,-243 812,-213 638,-213"/>
<text text-anchor="start" x="646" y="-231" font-family="Helvetica,sans-Serif" font-size="10.00">engine.render.RenderedNode.set</text>
<text text-anchor="middle" x="725" y="-220" font-family="Helvetica,sans-Serif" font-size="10.00">CollisionBody</text>
</a>
</g>
</g>
<!-- Node3&#45;&gt;Node9 -->
<g id="edge8" class="edge"><title>Node3&#45;&gt;Node9</title>
<path fill="none" stroke="midnightblue" d="M563.877,-194.035C589.044,-199.373 617.55,-205.42 643.464,-210.917"/>
<polygon fill="midnightblue" stroke="midnightblue" points="642.748,-214.343 653.257,-212.994 644.201,-207.495 642.748,-214.343"/>
</g>
<!-- Node10 -->
<g id="node10" class="node"><title>Node10</title>
<g id="a_node10"><a xlink:href="../../d5/d30/classengine_1_1render_1_1_rendered_node_factory.html#ac14d2f5a3da79d92c967fe22bc82c1ed" target="_top" xlink:title="engine.render.RenderedNode\lFactory.createCollisionBody">
<polygon fill="white" stroke="black" points="647,-164 647,-194 803,-194 803,-164 647,-164"/>
<text text-anchor="start" x="655" y="-182" font-family="Helvetica,sans-Serif" font-size="10.00">engine.render.RenderedNode</text>
<text text-anchor="middle" x="725" y="-171" font-family="Helvetica,sans-Serif" font-size="10.00">Factory.createCollisionBody</text>
</a>
</g>
</g>
<!-- Node3&#45;&gt;Node10 -->
<g id="edge9" class="edge"><title>Node3&#45;&gt;Node10</title>
<path fill="none" stroke="midnightblue" d="M570.241,-179C591.527,-179 614.769,-179 636.587,-179"/>
<polygon fill="midnightblue" stroke="midnightblue" points="636.832,-182.5 646.832,-179 636.832,-175.5 636.832,-182.5"/>
</g>
<!-- Node14 -->
<g id="node14" class="node"><title>Node14</title>
<g id="a_node14"><a xlink:href="../../d2/d82/classengine_1_1render_1_1_rendered_node.html#a312c663dd1144ff206ecfa1ea8c95a81" target="_top" xlink:title="engine.render.RenderedNode.set\lLabel">
<polygon fill="white" stroke="black" points="638,-115 638,-145 812,-145 812,-115 638,-115"/>
<text text-anchor="start" x="646" y="-133" font-family="Helvetica,sans-Serif" font-size="10.00">engine.render.RenderedNode.set</text>
<text text-anchor="middle" x="725" y="-122" font-family="Helvetica,sans-Serif" font-size="10.00">Label</text>
</a>
</g>
</g>
<!-- Node3&#45;&gt;Node14 -->
<g id="edge13" class="edge"><title>Node3&#45;&gt;Node14</title>
<path fill="none" stroke="midnightblue" d="M563.877,-163.965C589.044,-158.627 617.55,-152.58 643.464,-147.083"/>
<polygon fill="midnightblue" stroke="midnightblue" points="644.201,-150.505 653.257,-145.006 642.748,-143.657 644.201,-150.505"/>
</g>
<!-- Node15 -->
<g id="node15" class="node"><title>Node15</title>
<g id="a_node15"><a xlink:href="../../d5/d30/classengine_1_1render_1_1_rendered_node_factory.html#a4e1f4508b1c12b958bd3c88a35a4e872" target="_top" xlink:title="engine.render.RenderedNode\lFactory.createLabel">
<polygon fill="white" stroke="black" points="647,-262 647,-292 803,-292 803,-262 647,-262"/>
<text text-anchor="start" x="655" y="-280" font-family="Helvetica,sans-Serif" font-size="10.00">engine.render.RenderedNode</text>
<text text-anchor="middle" x="725" y="-269" font-family="Helvetica,sans-Serif" font-size="10.00">Factory.createLabel</text>
</a>
</g>
</g>
<!-- Node3&#45;&gt;Node15 -->
<g id="edge14" class="edge"><title>Node3&#45;&gt;Node15</title>
<path fill="none" stroke="midnightblue" d="M515.748,-194.124C541.18,-210.44 584.053,-236.198 624,-252 630.373,-254.521 637.077,-256.847 643.871,-258.98"/>
<polygon fill="midnightblue" stroke="midnightblue" points="643.276,-262.456 653.86,-261.968 645.282,-255.749 643.276,-262.456"/>
</g>
<!-- Node17 -->
<g id="node17" class="node"><title>Node17</title>
<g id="a_node17"><a xlink:href="../../d0/d7f/classengine_1_1game_object_1_1_game_object.html#a606c7293c2bfac0af1fb42143bf527f6" target="_top" xlink:title="engine.gameObject.GameObject.getX">
<polygon fill="white" stroke="black" points="626,-76.5 626,-95.5 824,-95.5 824,-76.5 626,-76.5"/>
<text text-anchor="middle" x="725" y="-83.5" font-family="Helvetica,sans-Serif" font-size="10.00">engine.gameObject.GameObject.getX</text>
</a>
</g>
</g>
<!-- Node3&#45;&gt;Node17 -->
<g id="edge18" class="edge"><title>Node3&#45;&gt;Node17</title>
<path fill="none" stroke="midnightblue" d="M569.719,-163.834C576.162,-161.084 582.359,-157.836 588,-154 610.345,-138.803 601.14,-119.411 624,-105 627.352,-102.887 630.884,-100.998 634.538,-99.3111"/>
<polygon fill="midnightblue" stroke="midnightblue" points="635.904,-102.534 643.843,-95.5183 633.261,-96.052 635.904,-102.534"/>
</g>
<!-- Node18 -->
<g id="node18" class="node"><title>Node18</title>
<g id="a_node18"><a xlink:href="../../d0/d7f/classengine_1_1game_object_1_1_game_object.html#a1988806ef560c9384f3844d0666a9450" target="_top" xlink:title="engine.gameObject.GameObject.getY">
<polygon fill="white" stroke="black" points="626.5,-38.5 626.5,-57.5 823.5,-57.5 823.5,-38.5 626.5,-38.5"/>
<text text-anchor="middle" x="725" y="-45.5" font-family="Helvetica,sans-Serif" font-size="10.00">engine.gameObject.GameObject.getY</text>
</a>
</g>
</g>
<!-- Node3&#45;&gt;Node18 -->
<g id="edge19" class="edge"><title>Node3&#45;&gt;Node18</title>
<path fill="none" stroke="midnightblue" d="M570.326,-165.451C576.717,-162.367 582.733,-158.6 588,-154 619.518,-126.474 591.543,-93.4137 624,-67 626.039,-65.3408 628.178,-63.8102 630.4,-62.399"/>
<polygon fill="midnightblue" stroke="midnightblue" points="632.232,-65.3868 639.337,-57.5275 628.881,-59.2406 632.232,-65.3868"/>
</g>
<!-- Node19 -->
<g id="node19" class="node"><title>Node19</title>
<g id="a_node19"><a xlink:href="../../d0/d7f/classengine_1_1game_object_1_1_game_object.html#ae94fe532960bd29f64c2dc19ec0af798" target="_top" xlink:title="engine.gameObject.GameObject.getID">
<polygon fill="white" stroke="black" points="624,-0.5 624,-19.5 826,-19.5 826,-0.5 624,-0.5"/>
<text text-anchor="middle" x="725" y="-7.5" font-family="Helvetica,sans-Serif" font-size="10.00">engine.gameObject.GameObject.getID</text>
</a>
</g>
</g>
<!-- Node3&#45;&gt;Node19 -->
<g id="edge20" class="edge"><title>Node3&#45;&gt;Node19</title>
<path fill="none" stroke="midnightblue" d="M570.428,-166.293C576.878,-163.043 582.877,-159.006 588,-154 629.35,-113.594 581.27,-67.9435 624,-29 625.518,-27.6162 627.105,-26.3189 628.751,-25.1031"/>
<polygon fill="midnightblue" stroke="midnightblue" points="630.802,-27.9482 637.427,-19.68 627.092,-22.0123 630.802,-27.9482"/>
</g>
<!-- Node6 -->
<g id="node6" class="node"><title>Node6</title>
<g id="a_node6"><a xlink:href="../../d0/d7f/classengine_1_1game_object_1_1_game_object.html#ae8b88e1cf489e935426e2e252defbae0" target="_top" xlink:title="engine.gameObject.GameObject.get\lCurrentImageName">
<polygon fill="white" stroke="black" points="862,-360 862,-390 1054,-390 1054,-360 862,-360"/>
<text text-anchor="start" x="870" y="-378" font-family="Helvetica,sans-Serif" font-size="10.00">engine.gameObject.GameObject.get</text>
<text text-anchor="middle" x="958" y="-367" font-family="Helvetica,sans-Serif" font-size="10.00">CurrentImageName</text>
</a>
</g>
</g>
<!-- Node5&#45;&gt;Node6 -->
<g id="edge5" class="edge"><title>Node5&#45;&gt;Node6</title>
<path fill="none" stroke="midnightblue" d="M796.877,-341.035C822.044,-346.373 850.55,-352.42 876.464,-357.917"/>
<polygon fill="midnightblue" stroke="midnightblue" points="875.748,-361.343 886.257,-359.994 877.201,-354.495 875.748,-361.343"/>
</g>
<!-- Node7 -->
<g id="node7" class="node"><title>Node7</title>
<g id="a_node7"><a xlink:href="../../d0/d7f/classengine_1_1game_object_1_1_game_object.html#aaeb5730a3b51fe9cb3d817ea7172cfc2" target="_top" xlink:title="engine.gameObject.GameObject.get\lHeight">
<polygon fill="white" stroke="black" points="862,-262 862,-292 1054,-292 1054,-262 862,-262"/>
<text text-anchor="start" x="870" y="-280" font-family="Helvetica,sans-Serif" font-size="10.00">engine.gameObject.GameObject.get</text>
<text text-anchor="middle" x="958" y="-269" font-family="Helvetica,sans-Serif" font-size="10.00">Height</text>
</a>
</g>
</g>
<!-- Node5&#45;&gt;Node7 -->
<g id="edge6" class="edge"><title>Node5&#45;&gt;Node7</title>
<path fill="none" stroke="midnightblue" d="M796.877,-310.965C822.044,-305.627 850.55,-299.58 876.464,-294.083"/>
<polygon fill="midnightblue" stroke="midnightblue" points="877.201,-297.505 886.257,-292.006 875.748,-290.657 877.201,-297.505"/>
</g>
<!-- Node8 -->
<g id="node8" class="node"><title>Node8</title>
<g id="a_node8"><a xlink:href="../../d0/d7f/classengine_1_1game_object_1_1_game_object.html#a31aa2c854220621b49fc5575b50b9342" target="_top" xlink:title="engine.gameObject.GameObject.get\lWidth">
<polygon fill="white" stroke="black" points="862,-311 862,-341 1054,-341 1054,-311 862,-311"/>
<text text-anchor="start" x="870" y="-329" font-family="Helvetica,sans-Serif" font-size="10.00">engine.gameObject.GameObject.get</text>
<text text-anchor="middle" x="958" y="-318" font-family="Helvetica,sans-Serif" font-size="10.00">Width</text>
</a>
</g>
</g>
<!-- Node5&#45;&gt;Node8 -->
<g id="edge7" class="edge"><title>Node5&#45;&gt;Node8</title>
<path fill="none" stroke="midnightblue" d="M803.241,-326C818.773,-326 835.346,-326 851.647,-326"/>
<polygon fill="midnightblue" stroke="midnightblue" points="851.75,-329.5 861.75,-326 851.75,-322.5 851.75,-329.5"/>
</g>
<!-- Node11 -->
<g id="node11" class="node"><title>Node11</title>
<g id="a_node11"><a xlink:href="../../d0/d7f/classengine_1_1game_object_1_1_game_object.html#a60c5b6933aac9969491a3562a963c043" target="_top" xlink:title="engine.gameObject.GameObject.get\lPhysicsBody">
<polygon fill="white" stroke="black" points="862,-164 862,-194 1054,-194 1054,-164 862,-164"/>
<text text-anchor="start" x="870" y="-182" font-family="Helvetica,sans-Serif" font-size="10.00">engine.gameObject.GameObject.get</text>
<text text-anchor="middle" x="958" y="-171" font-family="Helvetica,sans-Serif" font-size="10.00">PhysicsBody</text>
</a>
</g>
</g>
<!-- Node10&#45;&gt;Node11 -->
<g id="edge10" class="edge"><title>Node10&#45;&gt;Node11</title>
<path fill="none" stroke="midnightblue" d="M803.241,-179C818.773,-179 835.346,-179 851.647,-179"/>
<polygon fill="midnightblue" stroke="midnightblue" points="851.75,-182.5 861.75,-179 851.75,-175.5 851.75,-182.5"/>
</g>
<!-- Node12 -->
<g id="node12" class="node"><title>Node12</title>
<g id="a_node12"><a xlink:href="../../d9/d9d/classengine_1_1game_object_1_1components_1_1_physics_body.html#aba2ed3bce8ee8e404907c88b144626fc" target="_top" xlink:title="engine.gameObject.components.\lPhysicsBody.getCollisionBodyHeight">
<polygon fill="white" stroke="black" points="864,-115 864,-145 1052,-145 1052,-115 864,-115"/>
<text text-anchor="start" x="872" y="-133" font-family="Helvetica,sans-Serif" font-size="10.00">engine.gameObject.components.</text>
<text text-anchor="middle" x="958" y="-122" font-family="Helvetica,sans-Serif" font-size="10.00">PhysicsBody.getCollisionBodyHeight</text>
</a>
</g>
</g>
<!-- Node10&#45;&gt;Node12 -->
<g id="edge11" class="edge"><title>Node10&#45;&gt;Node12</title>
<path fill="none" stroke="midnightblue" d="M796.877,-163.965C822.044,-158.627 850.55,-152.58 876.464,-147.083"/>
<polygon fill="midnightblue" stroke="midnightblue" points="877.201,-150.505 886.257,-145.006 875.748,-143.657 877.201,-150.505"/>
</g>
<!-- Node13 -->
<g id="node13" class="node"><title>Node13</title>
<g id="a_node13"><a xlink:href="../../d9/d9d/classengine_1_1game_object_1_1components_1_1_physics_body.html#ae64e43632570392c3118b3d00af853fc" target="_top" xlink:title="engine.gameObject.components.\lPhysicsBody.getCollisionBodyWidth">
<polygon fill="white" stroke="black" points="867,-66 867,-96 1049,-96 1049,-66 867,-66"/>
<text text-anchor="start" x="875" y="-84" font-family="Helvetica,sans-Serif" font-size="10.00">engine.gameObject.components.</text>
<text text-anchor="middle" x="958" y="-73" font-family="Helvetica,sans-Serif" font-size="10.00">PhysicsBody.getCollisionBodyWidth</text>
</a>
</g>
</g>
<!-- Node10&#45;&gt;Node13 -->
<g id="edge12" class="edge"><title>Node10&#45;&gt;Node13</title>
<path fill="none" stroke="midnightblue" d="M803.161,-165.59C811.226,-162.496 819.016,-158.687 826,-154 848.439,-138.941 839.58,-120.087 862,-105 864.302,-103.451 866.697,-102.002 869.163,-100.646"/>
<polygon fill="midnightblue" stroke="midnightblue" points="870.926,-103.679 878.365,-96.1348 867.845,-97.394 870.926,-103.679"/>
</g>
<!-- Node15&#45;&gt;Node7 -->
<g id="edge16" class="edge"><title>Node15&#45;&gt;Node7</title>
<path fill="none" stroke="midnightblue" d="M803.241,-277C818.773,-277 835.346,-277 851.647,-277"/>
<polygon fill="midnightblue" stroke="midnightblue" points="851.75,-280.5 861.75,-277 851.75,-273.5 851.75,-280.5"/>
</g>
<!-- Node15&#45;&gt;Node8 -->
<g id="edge17" class="edge"><title>Node15&#45;&gt;Node8</title>
<path fill="none" stroke="midnightblue" d="M796.877,-292.035C822.044,-297.373 850.55,-303.42 876.464,-308.917"/>
<polygon fill="midnightblue" stroke="midnightblue" points="875.748,-312.343 886.257,-310.994 877.201,-305.495 875.748,-312.343"/>
</g>
<!-- Node16 -->
<g id="node16" class="node"><title>Node16</title>
<g id="a_node16"><a xlink:href="../../d0/d7f/classengine_1_1game_object_1_1_game_object.html#a5c379828f3bb19a91935f965c48a91a5" target="_top" xlink:title="engine.gameObject.GameObject.get\lLabel">
<polygon fill="white" stroke="black" points="862,-213 862,-243 1054,-243 1054,-213 862,-213"/>
<text text-anchor="start" x="870" y="-231" font-family="Helvetica,sans-Serif" font-size="10.00">engine.gameObject.GameObject.get</text>
<text text-anchor="middle" x="958" y="-220" font-family="Helvetica,sans-Serif" font-size="10.00">Label</text>
</a>
</g>
</g>
<!-- Node15&#45;&gt;Node16 -->
<g id="edge15" class="edge"><title>Node15&#45;&gt;Node16</title>
<path fill="none" stroke="midnightblue" d="M796.877,-261.965C822.044,-256.627 850.55,-250.58 876.464,-245.083"/>
<polygon fill="midnightblue" stroke="midnightblue" points="877.201,-248.505 886.257,-243.006 875.748,-241.657 877.201,-248.505"/>
</g>
</g>
</svg>
        <g id="navigator" transform="translate(0 0)" fill="#404254">
                <rect fill="#f2f5e9" fill-opacity="0.5" stroke="#606060" stroke-width=".5" x="0" y="0" width="60" height="60"/>
                <use id="zoomplus" xlink:href="#zoomPlus" x="17" y="9" onmousedown="handleZoom(evt,'in')"/>
                <use id="zoomminus" xlink:href="#zoomMin" x="42" y="9" onmousedown="handleZoom(evt,'out')"/>
                <use id="reset" xlink:href="#resetDef" x="30" y="36" onmousedown="handleReset()"/>
                <g id="arrowUp" xlink:href="#dirArrow" transform="translate(30 24)" onmousedown="handlePan(0,-1)">
                  <use xlink:href="#rim" fill="#404040">
                        <set attributeName="fill" to="#808080" begin="arrowUp.mouseover" end="arrowUp.mouseout"/>
                  </use>
                  <path fill="none" stroke="white" stroke-width="1.5" d="M0,-3.0v7 M-2.5,-0.5L0,-3.0L2.5,-0.5"/>
                </g>
                <g id="arrowRight" xlink:href="#dirArrow" transform="rotate(90) translate(36 -43)" onmousedown="handlePan(1,0)">
                  <use xlink:href="#rim" fill="#404040">
                        <set attributeName="fill" to="#808080" begin="arrowRight.mouseover" end="arrowRight.mouseout"/>
                  </use>
                  <path fill="none" stroke="white" stroke-width="1.5" d="M0,-3.0v7 M-2.5,-0.5L0,-3.0L2.5,-0.5"/>
                </g>
                <g id="arrowDown" xlink:href="#dirArrow" transform="rotate(180) translate(-30 -48)" onmousedown="handlePan(0,1)">
                  <use xlink:href="#rim" fill="#404040">
                        <set attributeName="fill" to="#808080" begin="arrowDown.mouseover" end="arrowDown.mouseout"/>
                  </use>
                  <path fill="none" stroke="white" stroke-width="1.5" d="M0,-3.0v7 M-2.5,-0.5L0,-3.0L2.5,-0.5"/>
                </g>
                <g id="arrowLeft" xlink:href="#dirArrow" transform="rotate(270) translate(-36 17)" onmousedown="handlePan(-1,0)">
                  <use xlink:href="#rim" fill="#404040">
                        <set attributeName="fill" to="#808080" begin="arrowLeft.mouseover" end="arrowLeft.mouseout"/>
                  </use>
                  <path fill="none" stroke="white" stroke-width="1.5" d="M0,-3.0v7 M-2.5,-0.5L0,-3.0L2.5,-0.5"/>
                </g>
        </g>
        <svg viewBox="0 0 15 15" width="100%" height="30px" preserveAspectRatio="xMaxYMin meet">
         <g id="arrow_out" transform="scale(0.3 0.3)">
          <a xlink:href="classengine_1_1actions_1_1_change_image_i_d_action_a5517685ef0d4cc94928f226255299f78_cgraph_org.svg" target="_base">
           <rect id="button" ry="5" rx="5" y="6" x="6" height="38" width="38"
                fill="#f2f5e9" fill-opacity="0.5" stroke="#606060" stroke-width="1.0"/>
           <path id="arrow"
             d="M 11.500037,31.436501 C 11.940474,20.09759 22.043105,11.32322 32.158766,21.979434 L 37.068811,17.246167 C 37.068811,17.246167 37.088388,32 37.088388,32 L 22.160133,31.978069 C 22.160133,31.978069 26.997745,27.140456 26.997745,27.140456 C 18.528582,18.264221 13.291696,25.230495 11.500037,31.436501 z"
             style="fill:#404040;"/>
          </a>
         </g>
        </svg>
</svg>
