<?xml version="1.0" encoding="UTF-8" standalone="no"?>
<!DOCTYPE svg PUBLIC "-//W3C//DTD SVG 1.1//EN"
 "http://www.w3.org/Graphics/SVG/1.1/DTD/svg11.dtd">
<!-- Generated by graphviz version 2.36.0 (20140111.2315)
 -->
<!-- Title: engine.actions.ChangeImageIDAction.execute Pages: 1 -->
<svg width="880pt" height="545pt"
 viewBox="0.00 0.00 880.00 545.00" xmlns="http://www.w3.org/2000/svg" xmlns:xlink="http://www.w3.org/1999/xlink">
<g id="graph0" class="graph" transform="scale(1 1) rotate(0) translate(4 541)">
<title>engine.actions.ChangeImageIDAction.execute</title>
<polygon fill="white" stroke="none" points="-4,4 -4,-541 876,-541 876,4 -4,4"/>
<!-- Node1 -->
<g id="node1" class="node"><title>Node1</title>
<polygon fill="#bfbfbf" stroke="black" points="0,-188 0,-218 156,-218 156,-188 0,-188"/>
<text text-anchor="start" x="8" y="-206" font-family="Helvetica,sans-Serif" font-size="10.00">engine.actions.ChangeImage</text>
<text text-anchor="middle" x="78" y="-195" font-family="Helvetica,sans-Serif" font-size="10.00">IDAction.execute</text>
</g>
<!-- Node2 -->
<g id="node2" class="node"><title>Node2</title>
<g id="a_node2"><a xlink:href="../../df/de5/classengine_1_1render_1_1_game_object_renderer.html#a745cb65a5425a20a1b5063068ef1314a" target="_top" xlink:title="engine.render.GameObject\lRenderer.createAndAssignRenderedNode">
<polygon fill="white" stroke="black" points="192.5,-213 192.5,-243 405.5,-243 405.5,-213 192.5,-213"/>
<text text-anchor="start" x="200.5" y="-231" font-family="Helvetica,sans-Serif" font-size="10.00">engine.render.GameObject</text>
<text text-anchor="middle" x="299" y="-220" font-family="Helvetica,sans-Serif" font-size="10.00">Renderer.createAndAssignRenderedNode</text>
</a>
</g>
</g>
<!-- Node1&#45;&gt;Node2 -->
<g id="edge1" class="edge"><title>Node1&#45;&gt;Node2</title>
<path fill="none" stroke="midnightblue" d="M156.211,-211.814C164.711,-212.784 173.496,-213.787 182.335,-214.796"/>
<polygon fill="midnightblue" stroke="midnightblue" points="181.993,-218.28 192.325,-215.937 182.787,-211.325 181.993,-218.28"/>
</g>
<!-- Node22 -->
<g id="node22" class="node"><title>Node22</title>
<g id="a_node22"><a xlink:href="../../df/de5/classengine_1_1render_1_1_game_object_renderer.html#a84793b058b22a010a6706674284752e6" target="_top" xlink:title="engine.render.GameObject\lRenderer.removeRenderedNode">
<polygon fill="white" stroke="black" points="214.5,-164 214.5,-194 383.5,-194 383.5,-164 214.5,-164"/>
<text text-anchor="start" x="222.5" y="-182" font-family="Helvetica,sans-Serif" font-size="10.00">engine.render.GameObject</text>
<text text-anchor="middle" x="299" y="-171" font-family="Helvetica,sans-Serif" font-size="10.00">Renderer.removeRenderedNode</text>
</a>
</g>
</g>
<!-- Node1&#45;&gt;Node22 -->
<g id="edge23" class="edge"><title>Node1&#45;&gt;Node22</title>
<path fill="none" stroke="midnightblue" d="M156.211,-194.538C171.814,-192.829 188.378,-191.013 204.471,-189.25"/>
<polygon fill="midnightblue" stroke="midnightblue" points="204.859,-192.728 214.418,-188.16 204.097,-185.77 204.859,-192.728"/>
</g>
<!-- Node3 -->
<g id="node3" class="node"><title>Node3</title>
<g id="a_node3"><a xlink:href="../../d2/d82/classengine_1_1render_1_1_rendered_node.html#a520a8c03b505d10c69e010e603cadfdd" target="_top" xlink:title="engine.render.RenderedNode.set\lImageView">
<polygon fill="white" stroke="black" points="456,-458 456,-488 630,-488 630,-458 456,-458"/>
<text text-anchor="start" x="464" y="-476" font-family="Helvetica,sans-Serif" font-size="10.00">engine.render.RenderedNode.set</text>
<text text-anchor="middle" x="543" y="-465" font-family="Helvetica,sans-Serif" font-size="10.00">ImageView</text>
</a>
</g>
</g>
<!-- Node2&#45;&gt;Node3 -->
<g id="edge2" class="edge"><title>Node2&#45;&gt;Node3</title>
<path fill="none" stroke="midnightblue" d="M305.206,-243.074C319.866,-283.19 365.484,-393.224 442,-448 444.728,-449.953 447.593,-451.754 450.561,-453.415"/>
<polygon fill="midnightblue" stroke="midnightblue" points="449.223,-456.659 459.734,-457.989 452.347,-450.395 449.223,-456.659"/>
</g>
<!-- Node4 -->
<g id="node4" class="node"><title>Node4</title>
<g id="a_node4"><a xlink:href="../../df/de5/classengine_1_1render_1_1_game_object_renderer.html#a72580570f971246ef79428f21b6d25e9" target="_top" xlink:title="engine.render.GameObject\lRenderer.createImageAndView">
<polygon fill="white" stroke="black" points="461.5,-409 461.5,-439 624.5,-439 624.5,-409 461.5,-409"/>
<text text-anchor="start" x="469.5" y="-427" font-family="Helvetica,sans-Serif" font-size="10.00">engine.render.GameObject</text>
<text text-anchor="middle" x="543" y="-416" font-family="Helvetica,sans-Serif" font-size="10.00">Renderer.createImageAndView</text>
</a>
</g>
</g>
<!-- Node2&#45;&gt;Node4 -->
<g id="edge3" class="edge"><title>Node2&#45;&gt;Node4</title>
<path fill="none" stroke="midnightblue" d="M308.033,-243.07C326.747,-276.655 376.667,-357.914 442,-399 445.397,-401.136 448.965,-403.09 452.65,-404.877"/>
<polygon fill="midnightblue" stroke="midnightblue" points="451.452,-408.173 462.016,-408.983 454.263,-401.762 451.452,-408.173"/>
</g>
<!-- Node9 -->
<g id="node9" class="node"><title>Node9</title>
<g id="a_node9"><a xlink:href="../../d2/d82/classengine_1_1render_1_1_rendered_node.html#ad73c81ad48b40faea3818c9a7bbfdcf0" target="_top" xlink:title="engine.render.RenderedNode.set\lCollisionBody">
<polygon fill="white" stroke="black" points="456,-311 456,-341 630,-341 630,-311 456,-311"/>
<text text-anchor="start" x="464" y="-329" font-family="Helvetica,sans-Serif" font-size="10.00">engine.render.RenderedNode.set</text>
<text text-anchor="middle" x="543" y="-318" font-family="Helvetica,sans-Serif" font-size="10.00">CollisionBody</text>
</a>
</g>
</g>
<!-- Node2&#45;&gt;Node9 -->
<g id="edge8" class="edge"><title>Node2&#45;&gt;Node9</title>
<path fill="none" stroke="midnightblue" d="M324.845,-243.008C352.577,-259.222 399.193,-284.892 442,-301 448.794,-303.557 455.945,-305.931 463.17,-308.116"/>
<polygon fill="midnightblue" stroke="midnightblue" points="462.463,-311.555 473.042,-310.978 464.412,-304.831 462.463,-311.555"/>
</g>
<!-- Node10 -->
<g id="node10" class="node"><title>Node10</title>
<g id="a_node10"><a xlink:href="../../df/de5/classengine_1_1render_1_1_game_object_renderer.html#a25493ea430dbd3c6094434ba60e98662" target="_top" xlink:title="engine.render.GameObject\lRenderer.createCollisionBody">
<polygon fill="white" stroke="black" points="465.5,-262 465.5,-292 620.5,-292 620.5,-262 465.5,-262"/>
<text text-anchor="start" x="473.5" y="-280" font-family="Helvetica,sans-Serif" font-size="10.00">engine.render.GameObject</text>
<text text-anchor="middle" x="543" y="-269" font-family="Helvetica,sans-Serif" font-size="10.00">Renderer.createCollisionBody</text>
</a>
</g>
</g>
<!-- Node2&#45;&gt;Node10 -->
<g id="edge9" class="edge"><title>Node2&#45;&gt;Node10</title>
<path fill="none" stroke="midnightblue" d="M374.253,-243.035C400.734,-248.396 430.744,-254.473 457.988,-259.989"/>
<polygon fill="midnightblue" stroke="midnightblue" points="457.392,-263.44 467.888,-261.994 458.781,-256.579 457.392,-263.44"/>
</g>
<!-- Node14 -->
<g id="node14" class="node"><title>Node14</title>
<g id="a_node14"><a xlink:href="../../d2/d82/classengine_1_1render_1_1_rendered_node.html#a312c663dd1144ff206ecfa1ea8c95a81" target="_top" xlink:title="engine.render.RenderedNode.set\lLabel">
<polygon fill="white" stroke="black" points="456,-213 456,-243 630,-243 630,-213 456,-213"/>
<text text-anchor="start" x="464" y="-231" font-family="Helvetica,sans-Serif" font-size="10.00">engine.render.RenderedNode.set</text>
<text text-anchor="middle" x="543" y="-220" font-family="Helvetica,sans-Serif" font-size="10.00">Label</text>
</a>
</g>
</g>
<!-- Node2&#45;&gt;Node14 -->
<g id="edge13" class="edge"><title>Node2&#45;&gt;Node14</title>
<path fill="none" stroke="midnightblue" d="M405.793,-228C418.939,-228 432.329,-228 445.329,-228"/>
<polygon fill="midnightblue" stroke="midnightblue" points="445.658,-231.5 455.658,-228 445.658,-224.5 445.658,-231.5"/>
</g>
<!-- Node15 -->
<g id="node15" class="node"><title>Node15</title>
<g id="a_node15"><a xlink:href="../../df/de5/classengine_1_1render_1_1_game_object_renderer.html#a1d5f0ad1a571faec3c1a364bccc4c038" target="_top" xlink:title="engine.render.GameObject\lRenderer.createLabel">
<polygon fill="white" stroke="black" points="470,-360 470,-390 616,-390 616,-360 470,-360"/>
<text text-anchor="start" x="478" y="-378" font-family="Helvetica,sans-Serif" font-size="10.00">engine.render.GameObject</text>
<text text-anchor="middle" x="543" y="-367" font-family="Helvetica,sans-Serif" font-size="10.00">Renderer.createLabel</text>
</a>
</g>
</g>
<!-- Node2&#45;&gt;Node15 -->
<g id="edge14" class="edge"><title>Node2&#45;&gt;Node15</title>
<path fill="none" stroke="midnightblue" d="M313.247,-243.308C336.586,-269.29 387.728,-321.926 442,-350 447.685,-352.941 453.733,-355.548 459.932,-357.857"/>
<polygon fill="midnightblue" stroke="midnightblue" points="459.173,-361.297 469.768,-361.245 461.453,-354.679 459.173,-361.297"/>
</g>
<!-- Node17 -->
<g id="node17" class="node"><title>Node17</title>
<g id="a_node17"><a xlink:href="../../d0/d7f/classengine_1_1game_object_1_1_game_object.html#a606c7293c2bfac0af1fb42143bf527f6" target="_top" xlink:title="engine.gameObject.GameObject.getX">
<polygon fill="white" stroke="black" points="444,-174.5 444,-193.5 642,-193.5 642,-174.5 444,-174.5"/>
<text text-anchor="middle" x="543" y="-181.5" font-family="Helvetica,sans-Serif" font-size="10.00">engine.gameObject.GameObject.getX</text>
</a>
</g>
</g>
<!-- Node2&#45;&gt;Node17 -->
<g id="edge18" class="edge"><title>Node2&#45;&gt;Node17</title>
<path fill="none" stroke="midnightblue" d="M382.606,-212.981C414.329,-207.213 449.98,-200.731 479.509,-195.362"/>
<polygon fill="midnightblue" stroke="midnightblue" points="480.469,-198.745 489.682,-193.512 479.217,-191.858 480.469,-198.745"/>
</g>
<!-- Node18 -->
<g id="node18" class="node"><title>Node18</title>
<g id="a_node18"><a xlink:href="../../d0/d7f/classengine_1_1game_object_1_1_game_object.html#a1988806ef560c9384f3844d0666a9450" target="_top" xlink:title="engine.gameObject.GameObject.getY">
<polygon fill="white" stroke="black" points="444.5,-136.5 444.5,-155.5 641.5,-155.5 641.5,-136.5 444.5,-136.5"/>
<text text-anchor="middle" x="543" y="-143.5" font-family="Helvetica,sans-Serif" font-size="10.00">engine.gameObject.GameObject.getY</text>
</a>
</g>
</g>
<!-- Node2&#45;&gt;Node18 -->
<g id="edge19" class="edge"><title>Node2&#45;&gt;Node18</title>
<path fill="none" stroke="midnightblue" d="M384.221,-212.999C391.816,-210.214 399.198,-206.913 406,-203 426.166,-191.4 421.585,-176.155 442,-165 446.236,-162.686 450.706,-160.649 455.312,-158.857"/>
<polygon fill="midnightblue" stroke="midnightblue" points="456.632,-162.103 464.927,-155.511 454.332,-155.492 456.632,-162.103"/>
</g>
<!-- Node19 -->
<g id="node19" class="node"><title>Node19</title>
<g id="a_node19"><a xlink:href="../../d0/d7f/classengine_1_1game_object_1_1_game_object.html#ae94fe532960bd29f64c2dc19ec0af798" target="_top" xlink:title="engine.gameObject.GameObject.getID">
<polygon fill="white" stroke="black" points="442,-98.5 442,-117.5 644,-117.5 644,-98.5 442,-98.5"/>
<text text-anchor="middle" x="543" y="-105.5" font-family="Helvetica,sans-Serif" font-size="10.00">engine.gameObject.GameObject.getID</text>
</a>
</g>
</g>
<!-- Node2&#45;&gt;Node19 -->
<g id="edge20" class="edge"><title>Node2&#45;&gt;Node19</title>
<path fill="none" stroke="midnightblue" d="M390.383,-212.942C395.949,-210.15 401.222,-206.864 406,-203 435.062,-179.498 412.43,-149.859 442,-127 444.141,-125.345 446.383,-123.82 448.708,-122.415"/>
<polygon fill="midnightblue" stroke="midnightblue" points="450.773,-125.287 458.037,-117.574 447.549,-119.074 450.773,-125.287"/>
</g>
<!-- Node20 -->
<g id="node20" class="node"><title>Node20</title>
<g id="a_node20"><a xlink:href="../../d0/d7f/classengine_1_1game_object_1_1_game_object.html#accd456b2eaab9c7056de825a28b066c8" target="_top" xlink:title="engine.gameObject.GameObject.get\lIdentifier">
<polygon fill="white" stroke="black" points="447,-49 447,-79 639,-79 639,-49 447,-49"/>
<text text-anchor="start" x="455" y="-67" font-family="Helvetica,sans-Serif" font-size="10.00">engine.gameObject.GameObject.get</text>
<text text-anchor="middle" x="543" y="-56" font-family="Helvetica,sans-Serif" font-size="10.00">Identifier</text>
</a>
</g>
</g>
<!-- Node2&#45;&gt;Node20 -->
<g id="edge21" class="edge"><title>Node2&#45;&gt;Node20</title>
<path fill="none" stroke="midnightblue" d="M392.255,-212.973C397.205,-210.157 401.843,-206.859 406,-203 444.94,-166.85 403.303,-125.409 442,-89 443.515,-87.5744 445.099,-86.2268 446.742,-84.9529"/>
<polygon fill="midnightblue" stroke="midnightblue" points="449.026,-87.6369 455.407,-79.1793 445.145,-81.8115 449.026,-87.6369"/>
</g>
<!-- Node21 -->
<g id="node21" class="node"><title>Node21</title>
<g id="a_node21"><a xlink:href="../../d0/d7f/classengine_1_1game_object_1_1_game_object.html#ab09d473d8c2afe8cefb2ce2481bc66fd" target="_top" xlink:title="engine.gameObject.GameObject.set\lRenderedNode">
<polygon fill="white" stroke="black" points="447.5,-0 447.5,-30 638.5,-30 638.5,-0 447.5,-0"/>
<text text-anchor="start" x="455.5" y="-18" font-family="Helvetica,sans-Serif" font-size="10.00">engine.gameObject.GameObject.set</text>
<text text-anchor="middle" x="543" y="-7" font-family="Helvetica,sans-Serif" font-size="10.00">RenderedNode</text>
</a>
</g>
</g>
<!-- Node2&#45;&gt;Node21 -->
<g id="edge22" class="edge"><title>Node2&#45;&gt;Node21</title>
<path fill="none" stroke="midnightblue" d="M393.634,-212.809C398.116,-210.019 402.286,-206.772 406,-203 458.356,-149.824 389.749,-92.2783 442,-39 442.813,-38.1714 443.648,-37.3695 444.506,-36.5933"/>
<polygon fill="midnightblue" stroke="midnightblue" points="446.94,-39.1378 452.756,-30.282 442.687,-33.5781 446.94,-39.1378"/>
</g>
<!-- Node5 -->
<g id="node5" class="node"><title>Node5</title>
<g id="a_node5"><a xlink:href="../../d0/d7f/classengine_1_1game_object_1_1_game_object.html#ae8b88e1cf489e935426e2e252defbae0" target="_top" xlink:title="engine.gameObject.GameObject.get\lCurrentImageName">
<polygon fill="white" stroke="black" points="680,-507 680,-537 872,-537 872,-507 680,-507"/>
<text text-anchor="start" x="688" y="-525" font-family="Helvetica,sans-Serif" font-size="10.00">engine.gameObject.GameObject.get</text>
<text text-anchor="middle" x="776" y="-514" font-family="Helvetica,sans-Serif" font-size="10.00">CurrentImageName</text>
</a>
</g>
</g>
<!-- Node4&#45;&gt;Node5 -->
<g id="edge4" class="edge"><title>Node4&#45;&gt;Node5</title>
<path fill="none" stroke="midnightblue" d="M624.703,-438.903C631.495,-441.708 638.037,-445.04 644,-449 666.216,-463.751 657.876,-482.113 680,-497 683.082,-499.074 686.327,-500.976 689.685,-502.72"/>
<polygon fill="midnightblue" stroke="midnightblue" points="688.264,-505.919 698.805,-506.979 691.225,-499.576 688.264,-505.919"/>
</g>
<!-- Node6 -->
<g id="node6" class="node"><title>Node6</title>
<g id="a_node6"><a xlink:href="../../d9/db5/classengine_1_1_file_path_utility.html#ad8a72da93bd719a750bd549ed92a37d7" target="_top" xlink:title="engine.FilePathUtility.get\lFilePath">
<polygon fill="white" stroke="black" points="710,-458 710,-488 842,-488 842,-458 710,-458"/>
<text text-anchor="start" x="718" y="-476" font-family="Helvetica,sans-Serif" font-size="10.00">engine.FilePathUtility.get</text>
<text text-anchor="middle" x="776" y="-465" font-family="Helvetica,sans-Serif" font-size="10.00">FilePath</text>
</a>
</g>
</g>
<!-- Node4&#45;&gt;Node6 -->
<g id="edge5" class="edge"><title>Node4&#45;&gt;Node6</title>
<path fill="none" stroke="midnightblue" d="M614.877,-439.035C641.808,-444.747 672.564,-451.271 699.875,-457.064"/>
<polygon fill="midnightblue" stroke="midnightblue" points="699.258,-460.511 709.767,-459.163 700.711,-453.664 699.258,-460.511"/>
</g>
<!-- Node7 -->
<g id="node7" class="node"><title>Node7</title>
<g id="a_node7"><a xlink:href="../../d0/d7f/classengine_1_1game_object_1_1_game_object.html#a31aa2c854220621b49fc5575b50b9342" target="_top" xlink:title="engine.gameObject.GameObject.get\lWidth">
<polygon fill="white" stroke="black" points="680,-409 680,-439 872,-439 872,-409 680,-409"/>
<text text-anchor="start" x="688" y="-427" font-family="Helvetica,sans-Serif" font-size="10.00">engine.gameObject.GameObject.get</text>
<text text-anchor="middle" x="776" y="-416" font-family="Helvetica,sans-Serif" font-size="10.00">Width</text>
</a>
</g>
</g>
<!-- Node4&#45;&gt;Node7 -->
<g id="edge6" class="edge"><title>Node4&#45;&gt;Node7</title>
<path fill="none" stroke="midnightblue" d="M624.793,-424C639.275,-424 654.56,-424 669.614,-424"/>
<polygon fill="midnightblue" stroke="midnightblue" points="669.986,-427.5 679.986,-424 669.986,-420.5 669.986,-427.5"/>
</g>
<!-- Node8 -->
<g id="node8" class="node"><title>Node8</title>
<g id="a_node8"><a xlink:href="../../d0/d7f/classengine_1_1game_object_1_1_game_object.html#aaeb5730a3b51fe9cb3d817ea7172cfc2" target="_top" xlink:title="engine.gameObject.GameObject.get\lHeight">
<polygon fill="white" stroke="black" points="680,-360 680,-390 872,-390 872,-360 680,-360"/>
<text text-anchor="start" x="688" y="-378" font-family="Helvetica,sans-Serif" font-size="10.00">engine.gameObject.GameObject.get</text>
<text text-anchor="middle" x="776" y="-367" font-family="Helvetica,sans-Serif" font-size="10.00">Height</text>
</a>
</g>
</g>
<!-- Node4&#45;&gt;Node8 -->
<g id="edge7" class="edge"><title>Node4&#45;&gt;Node8</title>
<path fill="none" stroke="midnightblue" d="M614.877,-408.965C640.044,-403.627 668.55,-397.58 694.464,-392.083"/>
<polygon fill="midnightblue" stroke="midnightblue" points="695.201,-395.505 704.257,-390.006 693.748,-388.657 695.201,-395.505"/>
</g>
<!-- Node11 -->
<g id="node11" class="node"><title>Node11</title>
<g id="a_node11"><a xlink:href="../../d0/d7f/classengine_1_1game_object_1_1_game_object.html#a60c5b6933aac9969491a3562a963c043" target="_top" xlink:title="engine.gameObject.GameObject.get\lPhysicsBody">
<polygon fill="white" stroke="black" points="680,-262 680,-292 872,-292 872,-262 680,-262"/>
<text text-anchor="start" x="688" y="-280" font-family="Helvetica,sans-Serif" font-size="10.00">engine.gameObject.GameObject.get</text>
<text text-anchor="middle" x="776" y="-269" font-family="Helvetica,sans-Serif" font-size="10.00">PhysicsBody</text>
</a>
</g>
</g>
<!-- Node10&#45;&gt;Node11 -->
<g id="edge10" class="edge"><title>Node10&#45;&gt;Node11</title>
<path fill="none" stroke="midnightblue" d="M620.599,-277C636.26,-277 653.002,-277 669.471,-277"/>
<polygon fill="midnightblue" stroke="midnightblue" points="669.679,-280.5 679.679,-277 669.678,-273.5 669.679,-280.5"/>
</g>
<!-- Node12 -->
<g id="node12" class="node"><title>Node12</title>
<g id="a_node12"><a xlink:href="../../d9/d9d/classengine_1_1game_object_1_1components_1_1_physics_body.html#aba2ed3bce8ee8e404907c88b144626fc" target="_top" xlink:title="engine.gameObject.components.\lPhysicsBody.getCollisionBodyHeight">
<polygon fill="white" stroke="black" points="682,-213 682,-243 870,-243 870,-213 682,-213"/>
<text text-anchor="start" x="690" y="-231" font-family="Helvetica,sans-Serif" font-size="10.00">engine.gameObject.components.</text>
<text text-anchor="middle" x="776" y="-220" font-family="Helvetica,sans-Serif" font-size="10.00">PhysicsBody.getCollisionBodyHeight</text>
</a>
</g>
</g>
<!-- Node10&#45;&gt;Node12 -->
<g id="edge11" class="edge"><title>Node10&#45;&gt;Node12</title>
<path fill="none" stroke="midnightblue" d="M614.877,-261.965C640.044,-256.627 668.55,-250.58 694.464,-245.083"/>
<polygon fill="midnightblue" stroke="midnightblue" points="695.201,-248.505 704.257,-243.006 693.748,-241.657 695.201,-248.505"/>
</g>
<!-- Node13 -->
<g id="node13" class="node"><title>Node13</title>
<g id="a_node13"><a xlink:href="../../d9/d9d/classengine_1_1game_object_1_1components_1_1_physics_body.html#ae64e43632570392c3118b3d00af853fc" target="_top" xlink:title="engine.gameObject.components.\lPhysicsBody.getCollisionBodyWidth">
<polygon fill="white" stroke="black" points="685,-164 685,-194 867,-194 867,-164 685,-164"/>
<text text-anchor="start" x="693" y="-182" font-family="Helvetica,sans-Serif" font-size="10.00">engine.gameObject.components.</text>
<text text-anchor="middle" x="776" y="-171" font-family="Helvetica,sans-Serif" font-size="10.00">PhysicsBody.getCollisionBodyWidth</text>
</a>
</g>
</g>
<!-- Node10&#45;&gt;Node13 -->
<g id="edge12" class="edge"><title>Node10&#45;&gt;Node13</title>
<path fill="none" stroke="midnightblue" d="M620.599,-263.717C628.856,-260.6 636.844,-256.751 644,-252 666.216,-237.249 657.876,-218.887 680,-204 683.082,-201.926 686.327,-200.024 689.685,-198.28"/>
<polygon fill="midnightblue" stroke="midnightblue" points="691.225,-201.424 698.805,-194.021 688.264,-195.081 691.225,-201.424"/>
</g>
<!-- Node15&#45;&gt;Node7 -->
<g id="edge17" class="edge"><title>Node15&#45;&gt;Node7</title>
<path fill="none" stroke="midnightblue" d="M614.877,-390.035C640.044,-395.373 668.55,-401.42 694.464,-406.917"/>
<polygon fill="midnightblue" stroke="midnightblue" points="693.748,-410.343 704.257,-408.994 695.201,-403.495 693.748,-410.343"/>
</g>
<!-- Node15&#45;&gt;Node8 -->
<g id="edge16" class="edge"><title>Node15&#45;&gt;Node8</title>
<path fill="none" stroke="midnightblue" d="M616.14,-375C633.117,-375 651.557,-375 669.661,-375"/>
<polygon fill="midnightblue" stroke="midnightblue" points="669.673,-378.5 679.673,-375 669.673,-371.5 669.673,-378.5"/>
</g>
<!-- Node16 -->
<g id="node16" class="node"><title>Node16</title>
<g id="a_node16"><a xlink:href="../../d0/d7f/classengine_1_1game_object_1_1_game_object.html#a5c379828f3bb19a91935f965c48a91a5" target="_top" xlink:title="engine.gameObject.GameObject.get\lLabel">
<polygon fill="white" stroke="black" points="680,-311 680,-341 872,-341 872,-311 680,-311"/>
<text text-anchor="start" x="688" y="-329" font-family="Helvetica,sans-Serif" font-size="10.00">engine.gameObject.GameObject.get</text>
<text text-anchor="middle" x="776" y="-318" font-family="Helvetica,sans-Serif" font-size="10.00">Label</text>
</a>
</g>
</g>
<!-- Node15&#45;&gt;Node16 -->
<g id="edge15" class="edge"><title>Node15&#45;&gt;Node16</title>
<path fill="none" stroke="midnightblue" d="M614.877,-359.965C640.044,-354.627 668.55,-348.58 694.464,-343.083"/>
<polygon fill="midnightblue" stroke="midnightblue" points="695.201,-346.505 704.257,-341.006 693.748,-339.657 695.201,-346.505"/>
</g>
</g>
</svg>
