<?xml version="1.0" encoding="UTF-8" standalone="no"?>
<!DOCTYPE svg PUBLIC "-//W3C//DTD SVG 1.1//EN"
 "http://www.w3.org/Graphics/SVG/1.1/DTD/svg11.dtd">
<!-- Generated by graphviz version 2.36.0 (20140111.2315)
 -->
<!-- Title: authoring.eventhandlers.IconClickHandler Pages: 1 -->
<!--zoomable 857 -->
<svg id="main" version="1.1" xmlns="http://www.w3.org/2000/svg" xmlns:xlink="http://www.w3.org/1999/xlink" xml:space="preserve" onload="init(evt)">
<style type="text/css"><![CDATA[
.edge:hover path { stroke: red; }
.edge:hover polygon { stroke: red; fill: red; }
]]></style>
<script type="text/javascript"><![CDATA[
var edges = document.getElementsByTagName('g');
if (edges && edges.length) {
  for (var i=0;i<edges.length;i++) {
    if (edges[i].id.substr(0,4)=='edge') {
      edges[i].setAttribute('class','edge');
    }
  }
}
]]></script>
        <defs>
                <circle id="rim" cx="0" cy="0" r="7"/>
                <circle id="rim2" cx="0" cy="0" r="3.5"/>
                <g id="zoomPlus">
                        <use xlink:href="#rim" fill="#404040">
                                <set attributeName="fill" to="#808080" begin="zoomplus.mouseover" end="zoomplus.mouseout"/>
                        </use>
                        <path d="M-4,0h8M0,-4v8" fill="none" stroke="white" stroke-width="1.5" pointer-events="none"/>
                </g>
                <g id="zoomMin">
                        <use xlink:href="#rim" fill="#404040">
                                <set attributeName="fill" to="#808080" begin="zoomminus.mouseover" end="zoomminus.mouseout"/>
                        </use>
                        <path d="M-4,0h8" fill="none" stroke="white" stroke-width="1.5" pointer-events="none"/>
                </g>
                <g id="dirArrow">
                        <path fill="none" stroke="white" stroke-width="1.5" d="M0,-3.0v7 M-2.5,-0.5L0,-3.0L2.5,-0.5"/>
                </g>
               <g id="resetDef">
                       <use xlink:href="#rim2" fill="#404040">
                               <set attributeName="fill" to="#808080" begin="reset.mouseover" end="reset.mouseout"/>
                       </use>
               </g>
        </defs>

<script type="text/javascript">
var viewWidth = 1728;
var viewHeight = 857;
var sectionId = 'dynsection-1';
</script>
<script xlink:href="../../svgpan.js"/>
<svg id="graph" class="graph">
<g id="viewport">
<title>authoring.eventhandlers.IconClickHandler</title>
<polygon fill="white" stroke="none" points="-4,4 -4,-853 1724,-853 1724,4 -4,4"/>
<!-- Node1 -->
<g id="node1" class="node"><title>Node1</title>
<polygon fill="#bfbfbf" stroke="black" points="1582.5,-633 1582.5,-663 1719.5,-663 1719.5,-633 1582.5,-633"/>
<text text-anchor="start" x="1590.5" y="-651" font-family="Helvetica,sans-Serif" font-size="10.00">authoring.eventhandlers.</text>
<text text-anchor="middle" x="1651" y="-640" font-family="Helvetica,sans-Serif" font-size="10.00">IconClickHandler</text>
</g>
<!-- Node2 -->
<g id="node2" class="node"><title>Node2</title>
<g id="a_node2"><a xlink:href="../../d3/d6a/interfaceauthoring_1_1eventhandlers_1_1_game_handler.html" target="_top" xlink:title="authoring.eventhandlers.\lGameHandler\&lt; MouseEvent \&gt;">
<polygon fill="white" stroke="black" points="1314,-652 1314,-682 1478,-682 1478,-652 1314,-652"/>
<text text-anchor="start" x="1322" y="-670" font-family="Helvetica,sans-Serif" font-size="10.00">authoring.eventhandlers.</text>
<text text-anchor="middle" x="1396" y="-659" font-family="Helvetica,sans-Serif" font-size="10.00">GameHandler&lt; MouseEvent &gt;</text>
</a>
</g>
</g>
<!-- Node2&#45;&gt;Node1 -->
<g id="edge1" class="edge"><title>Node2&#45;&gt;Node1</title>
<path fill="none" stroke="midnightblue" d="M1488.09,-660.159C1519.25,-657.819 1553.53,-655.245 1582.49,-653.07"/>
<polygon fill="midnightblue" stroke="midnightblue" points="1487.8,-656.671 1478.09,-660.91 1488.33,-663.651 1487.8,-656.671"/>
</g>
<!-- Node3 -->
<g id="node3" class="node"><title>Node3</title>
<g id="a_node3"><a xlink:href="../../d4/d9e/classauthoring_1_1view_1_1propertiesview_1_1_properties_view.html" target="_top" xlink:title="authoring.view.propertiesview.\lPropertiesView">
<polygon fill="white" stroke="black" points="1316.5,-603 1316.5,-633 1475.5,-633 1475.5,-603 1316.5,-603"/>
<text text-anchor="start" x="1324.5" y="-621" font-family="Helvetica,sans-Serif" font-size="10.00">authoring.view.propertiesview.</text>
<text text-anchor="middle" x="1396" y="-610" font-family="Helvetica,sans-Serif" font-size="10.00">PropertiesView</text>
</a>
</g>
</g>
<!-- Node3&#45;&gt;Node1 -->
<g id="edge2" class="edge"><title>Node3&#45;&gt;Node1</title>
<path fill="none" stroke="#9a32cd" stroke-dasharray="5,2" d="M1485.84,-628.534C1517.59,-632.299 1552.82,-636.477 1582.48,-639.994"/>
<polygon fill="#9a32cd" stroke="#9a32cd" points="1486.01,-625.03 1475.66,-627.328 1485.18,-631.981 1486.01,-625.03"/>
<text text-anchor="middle" x="1530" y="-640" font-family="Helvetica,sans-Serif" font-size="10.00"> myProperties</text>
</g>
<!-- Node4 -->
<g id="node4" class="node"><title>Node4</title>
<g id="a_node4"><a xlink:href="../../de/d93/classauthoring_1_1view_1_1baseclasses_1_1_collection_view.html" target="_top" xlink:title="authoring.view.baseclasses.\lCollectionView">
<polygon fill="white" stroke="black" points="982.5,-775 982.5,-805 1131.5,-805 1131.5,-775 982.5,-775"/>
<text text-anchor="start" x="990.5" y="-793" font-family="Helvetica,sans-Serif" font-size="10.00">authoring.view.baseclasses.</text>
<text text-anchor="middle" x="1057" y="-782" font-family="Helvetica,sans-Serif" font-size="10.00">CollectionView</text>
</a>
</g>
</g>
<!-- Node4&#45;&gt;Node3 -->
<g id="edge3" class="edge"><title>Node4&#45;&gt;Node3</title>
<path fill="none" stroke="midnightblue" d="M1141.82,-797.628C1193.15,-797.468 1256.39,-787.802 1296,-748 1329.4,-714.438 1282.76,-678.577 1314,-643 1317.4,-639.13 1321.38,-635.85 1325.73,-633.072"/>
<polygon fill="midnightblue" stroke="midnightblue" points="1141.75,-794.128 1131.72,-797.54 1141.69,-801.127 1141.75,-794.128"/>
</g>
<!-- Node5 -->
<g id="node5" class="node"><title>Node5</title>
<polygon fill="white" stroke="#bfbfbf" points="678,-829.5 678,-848.5 744,-848.5 744,-829.5 678,-829.5"/>
<text text-anchor="middle" x="711" y="-836.5" font-family="Helvetica,sans-Serif" font-size="10.00">ScrollPane</text>
</g>
<!-- Node5&#45;&gt;Node4 -->
<g id="edge4" class="edge"><title>Node5&#45;&gt;Node4</title>
<path fill="none" stroke="midnightblue" d="M754.374,-835.131C802.443,-830.493 883.105,-821.955 952,-811 962.915,-809.264 974.426,-807.189 985.655,-805.028"/>
<polygon fill="midnightblue" stroke="midnightblue" points="753.959,-831.655 744.337,-836.088 754.624,-838.623 753.959,-831.655"/>
</g>
<!-- Node6 -->
<g id="node6" class="node"><title>Node6</title>
<polygon fill="white" stroke="#bfbfbf" points="664.5,-791.5 664.5,-810.5 757.5,-810.5 757.5,-791.5 664.5,-791.5"/>
<text text-anchor="middle" x="711" y="-798.5" font-family="Helvetica,sans-Serif" font-size="10.00">ResourceBundle</text>
</g>
<!-- Node6&#45;&gt;Node4 -->
<g id="edge5" class="edge"><title>Node6&#45;&gt;Node4</title>
<path fill="none" stroke="#9a32cd" stroke-dasharray="5,2" d="M767.821,-799.215C826.206,-797.348 918.128,-794.409 982.411,-792.353"/>
<polygon fill="#9a32cd" stroke="#9a32cd" points="767.564,-795.721 757.681,-799.539 767.787,-802.718 767.564,-795.721"/>
<text text-anchor="middle" x="897" y="-799" font-family="Helvetica,sans-Serif" font-size="10.00"> myLanguage</text>
</g>
<!-- Node7 -->
<g id="node7" class="node"><title>Node7</title>
<g id="a_node7"><a xlink:href="../../d3/d6a/interfaceauthoring_1_1eventhandlers_1_1_game_handler.html" target="_top" xlink:title="authoring.eventhandlers.\lGameHandler\&lt; T extends\l Event \&gt;">
<polygon fill="white" stroke="black" points="640.5,-713.5 640.5,-754.5 781.5,-754.5 781.5,-713.5 640.5,-713.5"/>
<text text-anchor="start" x="648.5" y="-742.5" font-family="Helvetica,sans-Serif" font-size="10.00">authoring.eventhandlers.</text>
<text text-anchor="start" x="648.5" y="-731.5" font-family="Helvetica,sans-Serif" font-size="10.00">GameHandler&lt; T extends</text>
<text text-anchor="middle" x="711" y="-720.5" font-family="Helvetica,sans-Serif" font-size="10.00"> Event &gt;</text>
</a>
</g>
</g>
<!-- Node7&#45;&gt;Node3 -->
<g id="edge38" class="edge"><title>Node7&#45;&gt;Node3</title>
<path fill="none" stroke="#9a32cd" stroke-dasharray="5,2" d="M791.717,-732.703C838.585,-731.107 898.882,-727.609 952,-720 1095.16,-699.491 1260.36,-656.079 1342.69,-633.061"/>
<polygon fill="#9a32cd" stroke="#9a32cd" points="791.508,-729.208 781.625,-733.025 791.731,-736.204 791.508,-729.208"/>
<text text-anchor="middle" x="1057" y="-719" font-family="Helvetica,sans-Serif" font-size="10.00"> myButtonBehaviors</text>
</g>
<!-- Node7&#45;&gt;Node4 -->
<g id="edge6" class="edge"><title>Node7&#45;&gt;Node4</title>
<path fill="none" stroke="#9a32cd" stroke-dasharray="5,2" d="M791.75,-746.983C849.247,-756.343 926.277,-768.882 982.329,-778.007"/>
<polygon fill="#9a32cd" stroke="#9a32cd" points="792.046,-743.485 781.614,-745.332 790.921,-750.394 792.046,-743.485"/>
<text text-anchor="middle" x="897" y="-774" font-family="Helvetica,sans-Serif" font-size="10.00"> myIconEvents</text>
</g>
<!-- Node10 -->
<g id="node10" class="node"><title>Node10</title>
<g id="a_node10"><a xlink:href="../../da/d8d/classauthoring_1_1view_1_1propertiesview_1_1_game_object_properties.html" target="_top" xlink:title="authoring.view.propertiesview.\lGameObjectProperties">
<polygon fill="white" stroke="black" points="977.5,-603 977.5,-633 1136.5,-633 1136.5,-603 977.5,-603"/>
<text text-anchor="start" x="985.5" y="-621" font-family="Helvetica,sans-Serif" font-size="10.00">authoring.view.propertiesview.</text>
<text text-anchor="middle" x="1057" y="-610" font-family="Helvetica,sans-Serif" font-size="10.00">GameObjectProperties</text>
</a>
</g>
</g>
<!-- Node7&#45;&gt;Node10 -->
<g id="edge17" class="edge"><title>Node7&#45;&gt;Node10</title>
<path fill="none" stroke="#9a32cd" stroke-dasharray="5,2" d="M774.569,-709.857C795.811,-702.069 819.789,-693.72 842,-687 890.183,-672.422 904.094,-675.465 952,-660 975.905,-652.283 1002.13,-641.679 1022.26,-633.056"/>
<polygon fill="#9a32cd" stroke="#9a32cd" points="773.184,-706.638 765.018,-713.388 775.611,-713.203 773.184,-706.638"/>
<text text-anchor="middle" x="897" y="-712" font-family="Helvetica,sans-Serif" font-size="10.00"> myDeleteHandler</text>
<text text-anchor="middle" x="897" y="-701" font-family="Helvetica,sans-Serif" font-size="10.00">mySaveAsNewHandler</text>
<text text-anchor="middle" x="897" y="-690" font-family="Helvetica,sans-Serif" font-size="10.00">myEditHandler</text>
</g>
<!-- Node8 -->
<g id="node8" class="node"><title>Node8</title>
<polygon fill="white" stroke="#bfbfbf" points="245,-724.5 245,-743.5 421,-743.5 421,-724.5 245,-724.5"/>
<text text-anchor="middle" x="333" y="-731.5" font-family="Helvetica,sans-Serif" font-size="10.00">javafx::event::EventHandler&lt; T &gt;</text>
</g>
<!-- Node8&#45;&gt;Node7 -->
<g id="edge7" class="edge"><title>Node8&#45;&gt;Node7</title>
<path fill="none" stroke="midnightblue" d="M431.532,-734C496.932,-734 581.511,-734 640.213,-734"/>
<polygon fill="midnightblue" stroke="midnightblue" points="431.207,-730.5 421.207,-734 431.207,-737.5 431.207,-730.5"/>
</g>
<!-- Node9 -->
<g id="node9" class="node"><title>Node9</title>
<polygon fill="white" stroke="#bfbfbf" points="312.5,-478.5 312.5,-497.5 353.5,-497.5 353.5,-478.5 312.5,-478.5"/>
<text text-anchor="middle" x="333" y="-485.5" font-family="Helvetica,sans-Serif" font-size="10.00">VBox</text>
</g>
<!-- Node9&#45;&gt;Node3 -->
<g id="edge8" class="edge"><title>Node9&#45;&gt;Node3</title>
<path fill="none" stroke="#9a32cd" stroke-dasharray="5,2" d="M363.993,-486.721C440.718,-483.792 650.315,-477.955 824,-493 881.434,-497.975 895.461,-502.739 952,-514 1090.69,-541.623 1252.01,-581.463 1336.52,-602.931"/>
<polygon fill="#9a32cd" stroke="#9a32cd" points="363.511,-483.237 353.657,-487.129 363.788,-490.232 363.511,-483.237"/>
<text text-anchor="middle" x="897" y="-517" font-family="Helvetica,sans-Serif" font-size="10.00"> myContents</text>
</g>
<!-- Node11 -->
<g id="node11" class="node"><title>Node11</title>
<g id="a_node11"><a xlink:href="../../de/d73/classauthoring_1_1view_1_1propertiesview_1_1_properties.html" target="_top" xlink:title="authoring.view.propertiesview.\lProperties">
<polygon fill="white" stroke="black" points="631.5,-503 631.5,-533 790.5,-533 790.5,-503 631.5,-503"/>
<text text-anchor="start" x="639.5" y="-521" font-family="Helvetica,sans-Serif" font-size="10.00">authoring.view.propertiesview.</text>
<text text-anchor="middle" x="711" y="-510" font-family="Helvetica,sans-Serif" font-size="10.00">Properties</text>
</a>
</g>
</g>
<!-- Node9&#45;&gt;Node11 -->
<g id="edge11" class="edge"><title>Node9&#45;&gt;Node11</title>
<path fill="none" stroke="midnightblue" d="M363.866,-490.383C421.167,-494.955 548.224,-505.092 631.423,-511.731"/>
<polygon fill="midnightblue" stroke="midnightblue" points="363.933,-486.877 353.686,-489.571 363.376,-493.855 363.933,-486.877"/>
</g>
<!-- Node10&#45;&gt;Node3 -->
<g id="edge9" class="edge"><title>Node10&#45;&gt;Node3</title>
<path fill="none" stroke="#9a32cd" stroke-dasharray="5,2" d="M1146.59,-618C1199.25,-618 1265.47,-618 1316.29,-618"/>
<polygon fill="#9a32cd" stroke="#9a32cd" points="1146.59,-614.5 1136.59,-618 1146.59,-621.5 1146.59,-614.5"/>
<text text-anchor="middle" x="1229" y="-621" font-family="Helvetica,sans-Serif" font-size="10.00"> myGameObjectsProperties</text>
</g>
<!-- Node11&#45;&gt;Node10 -->
<g id="edge10" class="edge"><title>Node11&#45;&gt;Node10</title>
<path fill="none" stroke="midnightblue" d="M800.65,-523.345C846.849,-528.187 903.646,-537.415 952,-555 983.742,-566.544 1016.43,-588.267 1036.48,-602.936"/>
<polygon fill="midnightblue" stroke="midnightblue" points="800.957,-519.859 790.659,-522.349 800.262,-526.824 800.957,-519.859"/>
</g>
<!-- Node12 -->
<g id="node12" class="node"><title>Node12</title>
<polygon fill="white" stroke="#bfbfbf" points="220.5,-517 220.5,-547 445.5,-547 445.5,-517 220.5,-517"/>
<text text-anchor="start" x="228.5" y="-535" font-family="Helvetica,sans-Serif" font-size="10.00">Map&lt; String, authoring.view.propertiesview.</text>
<text text-anchor="middle" x="333" y="-524" font-family="Helvetica,sans-Serif" font-size="10.00">PropertyField &gt;</text>
</g>
<!-- Node12&#45;&gt;Node11 -->
<g id="edge12" class="edge"><title>Node12&#45;&gt;Node11</title>
<path fill="none" stroke="#9a32cd" stroke-dasharray="5,2" d="M455.808,-527.465C513.415,-525.32 580.528,-522.821 631.323,-520.929"/>
<polygon fill="#9a32cd" stroke="#9a32cd" points="455.403,-523.977 445.54,-527.847 455.664,-530.972 455.403,-523.977"/>
<text text-anchor="middle" x="522" y="-531" font-family="Helvetica,sans-Serif" font-size="10.00"> myMap</text>
</g>
<!-- Node13 -->
<g id="node13" class="node"><title>Node13</title>
<polygon fill="white" stroke="#bfbfbf" points="640.5,-608.5 640.5,-627.5 781.5,-627.5 781.5,-608.5 640.5,-608.5"/>
<text text-anchor="middle" x="711" y="-615.5" font-family="Helvetica,sans-Serif" font-size="10.00">Map&lt; String, CheckBox &gt;</text>
</g>
<!-- Node13&#45;&gt;Node10 -->
<g id="edge13" class="edge"><title>Node13&#45;&gt;Node10</title>
<path fill="none" stroke="#9a32cd" stroke-dasharray="5,2" d="M791.819,-618C847.666,-618 921.917,-618 977.477,-618"/>
<polygon fill="#9a32cd" stroke="#9a32cd" points="791.614,-614.5 781.614,-618 791.613,-621.5 791.614,-614.5"/>
<text text-anchor="middle" x="897" y="-621" font-family="Helvetica,sans-Serif" font-size="10.00"> booleanProperties</text>
</g>
<!-- Node14 -->
<g id="node14" class="node"><title>Node14</title>
<polygon fill="white" stroke="#bfbfbf" points="598.5,-552 598.5,-582 823.5,-582 823.5,-552 598.5,-552"/>
<text text-anchor="start" x="606.5" y="-570" font-family="Helvetica,sans-Serif" font-size="10.00">Map&lt; String, authoring.view.propertiesview.</text>
<text text-anchor="middle" x="711" y="-559" font-family="Helvetica,sans-Serif" font-size="10.00">PropertyTextField &gt;</text>
</g>
<!-- Node14&#45;&gt;Node10 -->
<g id="edge14" class="edge"><title>Node14&#45;&gt;Node10</title>
<path fill="none" stroke="#9a32cd" stroke-dasharray="5,2" d="M833.807,-558.701C872.036,-558.706 914.131,-561.434 952,-570 980.512,-576.449 1010.57,-591.319 1031,-602.812"/>
<polygon fill="#9a32cd" stroke="#9a32cd" points="833.635,-555.202 823.657,-558.763 833.678,-562.202 833.635,-555.202"/>
<text text-anchor="middle" x="897" y="-606" font-family="Helvetica,sans-Serif" font-size="10.00"> physicsProperties</text>
<text text-anchor="middle" x="897" y="-595" font-family="Helvetica,sans-Serif" font-size="10.00">wizardProperties</text>
<text text-anchor="middle" x="897" y="-584" font-family="Helvetica,sans-Serif" font-size="10.00">concreteTextProperties</text>
<text text-anchor="middle" x="897" y="-573" font-family="Helvetica,sans-Serif" font-size="10.00">inherentTextProperties</text>
</g>
<!-- Node15 -->
<g id="node15" class="node"><title>Node15</title>
<g id="a_node15"><a xlink:href="../../dd/db2/classauthoring_1_1view_1_1baseclasses_1_1_accordion_container.html" target="_top" xlink:title="authoring.view.baseclasses.\lAccordionContainer">
<polygon fill="white" stroke="black" points="636.5,-647 636.5,-677 785.5,-677 785.5,-647 636.5,-647"/>
<text text-anchor="start" x="644.5" y="-665" font-family="Helvetica,sans-Serif" font-size="10.00">authoring.view.baseclasses.</text>
<text text-anchor="middle" x="711" y="-654" font-family="Helvetica,sans-Serif" font-size="10.00">AccordionContainer</text>
</a>
</g>
</g>
<!-- Node15&#45;&gt;Node10 -->
<g id="edge15" class="edge"><title>Node15&#45;&gt;Node10</title>
<path fill="none" stroke="#9a32cd" stroke-dasharray="5,2" d="M795.914,-651.267C851.176,-644.198 923.054,-635.005 977.239,-628.074"/>
<polygon fill="#9a32cd" stroke="#9a32cd" points="795.272,-647.82 785.797,-652.561 796.16,-654.764 795.272,-647.82"/>
<text text-anchor="middle" x="897" y="-648" font-family="Helvetica,sans-Serif" font-size="10.00"> myAccordion</text>
</g>
<!-- Node16 -->
<g id="node16" class="node"><title>Node16</title>
<polygon fill="white" stroke="#bfbfbf" points="301,-652.5 301,-671.5 365,-671.5 365,-652.5 301,-652.5"/>
<text text-anchor="middle" x="333" y="-659.5" font-family="Helvetica,sans-Serif" font-size="10.00">Accordion</text>
</g>
<!-- Node16&#45;&gt;Node15 -->
<g id="edge16" class="edge"><title>Node16&#45;&gt;Node15</title>
<path fill="none" stroke="midnightblue" d="M375.39,-662C438.172,-662 558.396,-662 636.34,-662"/>
<polygon fill="midnightblue" stroke="midnightblue" points="375.09,-658.5 365.09,-662 375.09,-665.5 375.09,-658.5"/>
</g>
<!-- Node17 -->
<g id="node17" class="node"><title>Node17</title>
<g id="a_node17"><a xlink:href="../../d0/d7f/classengine_1_1game_object_1_1_game_object.html" target="_top" xlink:title="engine.gameObject.GameObject">
<polygon fill="white" stroke="black" points="970.5,-161.5 970.5,-180.5 1143.5,-180.5 1143.5,-161.5 970.5,-161.5"/>
<text text-anchor="middle" x="1057" y="-168.5" font-family="Helvetica,sans-Serif" font-size="10.00">engine.gameObject.GameObject</text>
</a>
</g>
</g>
<!-- Node17&#45;&gt;Node3 -->
<g id="edge18" class="edge"><title>Node17&#45;&gt;Node3</title>
<path fill="none" stroke="#9a32cd" stroke-dasharray="5,2" d="M1074.5,-188.032C1114.9,-230.209 1221.01,-343.726 1296,-449 1334.47,-503.006 1371.78,-572.794 1387.37,-602.985"/>
<polygon fill="#9a32cd" stroke="#9a32cd" points="1076.77,-185.352 1067.32,-180.572 1071.73,-190.205 1076.77,-185.352"/>
<text text-anchor="middle" x="1229" y="-452" font-family="Helvetica,sans-Serif" font-size="10.00"> myCurrentGameObject</text>
</g>
<!-- Node18 -->
<g id="node18" class="node"><title>Node18</title>
<g id="a_node18"><a xlink:href="../../d7/de6/interfaceengine_1_1game_object_1_1_i_enabled.html" target="_top" xlink:title="engine.gameObject.IEnabled">
<polygon fill="white" stroke="black" points="634,-199.5 634,-218.5 788,-218.5 788,-199.5 634,-199.5"/>
<text text-anchor="middle" x="711" y="-206.5" font-family="Helvetica,sans-Serif" font-size="10.00">engine.gameObject.IEnabled</text>
</a>
</g>
</g>
<!-- Node18&#45;&gt;Node17 -->
<g id="edge19" class="edge"><title>Node18&#45;&gt;Node17</title>
<path fill="none" stroke="midnightblue" d="M798.18,-201.1C843.922,-196.726 901.059,-190.974 952,-185 963.58,-183.642 975.871,-182.088 987.792,-180.521"/>
<polygon fill="midnightblue" stroke="midnightblue" points="797.629,-197.637 788.005,-202.068 798.292,-204.605 797.629,-197.637"/>
</g>
<!-- Node19 -->
<g id="node19" class="node"><title>Node19</title>
<polygon fill="white" stroke="#bfbfbf" points="645.5,-161.5 645.5,-180.5 776.5,-180.5 776.5,-161.5 645.5,-161.5"/>
<text text-anchor="middle" x="711" y="-168.5" font-family="Helvetica,sans-Serif" font-size="10.00">Iterable&lt; Component &gt;</text>
</g>
<!-- Node19&#45;&gt;Node17 -->
<g id="edge20" class="edge"><title>Node19&#45;&gt;Node17</title>
<path fill="none" stroke="midnightblue" d="M786.912,-171C840.984,-171 914.094,-171 970.46,-171"/>
<polygon fill="midnightblue" stroke="midnightblue" points="786.704,-167.5 776.704,-171 786.704,-174.5 786.704,-167.5"/>
</g>
<!-- Node20 -->
<g id="node20" class="node"><title>Node20</title>
<g id="a_node20"><a xlink:href="../../dc/df6/interfaceengine_1_1game_object_1_1_identifiable.html" target="_top" xlink:title="engine.gameObject.Identifiable">
<polygon fill="white" stroke="black" points="628.5,-123.5 628.5,-142.5 793.5,-142.5 793.5,-123.5 628.5,-123.5"/>
<text text-anchor="middle" x="711" y="-130.5" font-family="Helvetica,sans-Serif" font-size="10.00">engine.gameObject.Identifiable</text>
</a>
</g>
</g>
<!-- Node20&#45;&gt;Node17 -->
<g id="edge21" class="edge"><title>Node20&#45;&gt;Node17</title>
<path fill="none" stroke="midnightblue" d="M803.689,-143.128C855.388,-148.839 919.569,-155.929 970.262,-161.529"/>
<polygon fill="midnightblue" stroke="midnightblue" points="803.847,-139.625 793.523,-142.005 803.078,-146.582 803.847,-139.625"/>
</g>
<!-- Node21 -->
<g id="node21" class="node"><title>Node21</title>
<g id="a_node21"><a xlink:href="../../d4/dac/classengine_1_1game_object_1_1_identifier.html" target="_top" xlink:title="engine.gameObject.Identifier">
<polygon fill="white" stroke="black" points="633.5,-85.5 633.5,-104.5 788.5,-104.5 788.5,-85.5 633.5,-85.5"/>
<text text-anchor="middle" x="711" y="-92.5" font-family="Helvetica,sans-Serif" font-size="10.00">engine.gameObject.Identifier</text>
</a>
</g>
</g>
<!-- Node21&#45;&gt;Node17 -->
<g id="edge22" class="edge"><title>Node21&#45;&gt;Node17</title>
<path fill="none" stroke="#9a32cd" stroke-dasharray="5,2" d="M798.644,-104.607C844.645,-110.736 901.877,-120.005 952,-133 980.842,-140.478 1012.88,-152.831 1033.68,-161.414"/>
<polygon fill="#9a32cd" stroke="#9a32cd" points="799.076,-101.133 788.707,-103.308 798.169,-108.074 799.076,-101.133"/>
<text text-anchor="middle" x="897" y="-136" font-family="Helvetica,sans-Serif" font-size="10.00"> myId</text>
</g>
<!-- Node22 -->
<g id="node22" class="node"><title>Node22</title>
<polygon fill="white" stroke="#bfbfbf" points="305,-85.5 305,-104.5 361,-104.5 361,-85.5 305,-85.5"/>
<text text-anchor="middle" x="333" y="-92.5" font-family="Helvetica,sans-Serif" font-size="10.00">Random</text>
</g>
<!-- Node22&#45;&gt;Node21 -->
<g id="edge23" class="edge"><title>Node22&#45;&gt;Node21</title>
<path fill="none" stroke="#9a32cd" stroke-dasharray="5,2" d="M371.298,-95C432.013,-95 553.435,-95 633.188,-95"/>
<polygon fill="#9a32cd" stroke="#9a32cd" points="371.041,-91.5001 361.041,-95 371.041,-98.5001 371.041,-91.5001"/>
<text text-anchor="middle" x="522" y="-98" font-family="Helvetica,sans-Serif" font-size="10.00"> r</text>
</g>
<!-- Node23 -->
<g id="node23" class="node"><title>Node23</title>
<polygon fill="white" stroke="#bfbfbf" points="231,-25 231,-55 435,-55 435,-25 231,-25"/>
<text text-anchor="start" x="239" y="-43" font-family="Helvetica,sans-Serif" font-size="10.00">List&lt; engine.gameObject.components.</text>
<text text-anchor="middle" x="333" y="-32" font-family="Helvetica,sans-Serif" font-size="10.00">Component &gt;</text>
</g>
<!-- Node23&#45;&gt;Node17 -->
<g id="edge24" class="edge"><title>Node23&#45;&gt;Node17</title>
<path fill="none" stroke="#9a32cd" stroke-dasharray="5,2" d="M445.303,-42.1594C567.044,-45.1464 754.15,-51.745 824,-65 882.961,-76.1887 897.56,-82.744 952,-108 986.086,-123.813 1023.05,-148.094 1042.41,-161.422"/>
<polygon fill="#9a32cd" stroke="#9a32cd" points="445.276,-38.6578 435.195,-41.916 445.108,-45.6558 445.276,-38.6578"/>
<text text-anchor="middle" x="711" y="-68" font-family="Helvetica,sans-Serif" font-size="10.00"> myComponents</text>
</g>
<!-- Node35 -->
<g id="node35" class="node"><title>Node35</title>
<g id="a_node35"><a xlink:href="../../d6/d66/classengine_1_1game_object_1_1_default_data.html" target="_top" xlink:title="engine.gameObject.DefaultData">
<polygon fill="white" stroke="black" points="625.5,-0.5 625.5,-19.5 796.5,-19.5 796.5,-0.5 625.5,-0.5"/>
<text text-anchor="middle" x="711" y="-7.5" font-family="Helvetica,sans-Serif" font-size="10.00">engine.gameObject.DefaultData</text>
</a>
</g>
</g>
<!-- Node23&#45;&gt;Node35 -->
<g id="edge37" class="edge"><title>Node23&#45;&gt;Node35</title>
<path fill="none" stroke="#9a32cd" stroke-dasharray="5,2" d="M445.501,-31.1036C503.108,-26.5074 572.267,-20.9893 625.417,-16.7486"/>
<polygon fill="#9a32cd" stroke="#9a32cd" points="444.946,-27.6367 435.256,-31.9211 445.502,-34.6146 444.946,-27.6367"/>
<text text-anchor="middle" x="522" y="-33" font-family="Helvetica,sans-Serif" font-size="10.00"> myComponents</text>
</g>
<!-- Node24 -->
<g id="node24" class="node"><title>Node24</title>
<g id="a_node24"><a xlink:href="../../d2/d82/classengine_1_1render_1_1_rendered_node.html" target="_top" xlink:title="engine.render.RenderedNode">
<polygon fill="white" stroke="black" points="633,-364.5 633,-383.5 789,-383.5 789,-364.5 633,-364.5"/>
<text text-anchor="middle" x="711" y="-371.5" font-family="Helvetica,sans-Serif" font-size="10.00">engine.render.RenderedNode</text>
</a>
</g>
</g>
<!-- Node24&#45;&gt;Node17 -->
<g id="edge25" class="edge"><title>Node24&#45;&gt;Node17</title>
<path fill="none" stroke="#9a32cd" stroke-dasharray="5,2" d="M740.395,-359.967C785.929,-337.167 877.705,-289.983 952,-244 985.951,-222.987 1023.88,-195.195 1043.19,-180.715"/>
<polygon fill="#9a32cd" stroke="#9a32cd" points="738.789,-356.857 731.403,-364.453 741.914,-363.12 738.789,-356.857"/>
<text text-anchor="middle" x="897" y="-307" font-family="Helvetica,sans-Serif" font-size="10.00"> myRenderedNode</text>
</g>
<!-- Node25 -->
<g id="node25" class="node"><title>Node25</title>
<polygon fill="white" stroke="#bfbfbf" points="310,-440.5 310,-459.5 356,-459.5 356,-440.5 310,-440.5"/>
<text text-anchor="middle" x="333" y="-447.5" font-family="Helvetica,sans-Serif" font-size="10.00">Group</text>
</g>
<!-- Node25&#45;&gt;Node24 -->
<g id="edge26" class="edge"><title>Node25&#45;&gt;Node24</title>
<path fill="none" stroke="midnightblue" d="M366.251,-447.358C413.57,-443.074 504.393,-433.298 580,-416 617.224,-407.484 659.045,-393.067 684.958,-383.54"/>
<polygon fill="midnightblue" stroke="midnightblue" points="365.941,-443.872 356.287,-448.237 366.555,-450.845 365.941,-443.872"/>
</g>
<!-- Node26 -->
<g id="node26" class="node"><title>Node26</title>
<polygon fill="white" stroke="#bfbfbf" points="312,-402.5 312,-421.5 354,-421.5 354,-402.5 312,-402.5"/>
<text text-anchor="middle" x="333" y="-409.5" font-family="Helvetica,sans-Serif" font-size="10.00">Label</text>
</g>
<!-- Node26&#45;&gt;Node24 -->
<g id="edge27" class="edge"><title>Node26&#45;&gt;Node24</title>
<path fill="none" stroke="#9a32cd" stroke-dasharray="5,2" d="M364.089,-409.398C410.473,-405.34 502.226,-397.122 580,-389 597.06,-387.218 615.365,-385.183 632.696,-383.198"/>
<polygon fill="#9a32cd" stroke="#9a32cd" points="363.762,-405.913 354.104,-410.269 364.37,-412.887 363.762,-405.913"/>
<text text-anchor="middle" x="522" y="-404" font-family="Helvetica,sans-Serif" font-size="10.00"> myLabel</text>
</g>
<!-- Node27 -->
<g id="node27" class="node"><title>Node27</title>
<polygon fill="white" stroke="#bfbfbf" points="299,-364.5 299,-383.5 367,-383.5 367,-364.5 299,-364.5"/>
<text text-anchor="middle" x="333" y="-371.5" font-family="Helvetica,sans-Serif" font-size="10.00">ImageView</text>
</g>
<!-- Node27&#45;&gt;Node24 -->
<g id="edge28" class="edge"><title>Node27&#45;&gt;Node24</title>
<path fill="none" stroke="#9a32cd" stroke-dasharray="5,2" d="M377.3,-374C439.636,-374 555.64,-374 632.847,-374"/>
<polygon fill="#9a32cd" stroke="#9a32cd" points="377.038,-370.5 367.038,-374 377.038,-377.5 377.038,-370.5"/>
<text text-anchor="middle" x="522" y="-377" font-family="Helvetica,sans-Serif" font-size="10.00"> myImageView</text>
</g>
<!-- Node28 -->
<g id="node28" class="node"><title>Node28</title>
<polygon fill="white" stroke="#bfbfbf" points="312,-326.5 312,-345.5 354,-345.5 354,-326.5 312,-326.5"/>
<text text-anchor="middle" x="333" y="-333.5" font-family="Helvetica,sans-Serif" font-size="10.00">Node</text>
</g>
<!-- Node28&#45;&gt;Node24 -->
<g id="edge29" class="edge"><title>Node28&#45;&gt;Node24</title>
<path fill="none" stroke="#9a32cd" stroke-dasharray="5,2" d="M364.089,-338.602C410.473,-342.66 502.226,-350.878 580,-359 597.06,-360.782 615.365,-362.817 632.696,-364.802"/>
<polygon fill="#9a32cd" stroke="#9a32cd" points="364.37,-335.113 354.104,-337.731 363.762,-342.087 364.37,-335.113"/>
<text text-anchor="middle" x="522" y="-362" font-family="Helvetica,sans-Serif" font-size="10.00"> myCollisionBody</text>
</g>
<!-- Node29 -->
<g id="node29" class="node"><title>Node29</title>
<g id="a_node29"><a xlink:href="../../d9/d9d/classengine_1_1game_object_1_1components_1_1_physics_body.html" target="_top" xlink:title="engine.gameObject.components.\lPhysicsBody">
<polygon fill="white" stroke="black" points="623,-238 623,-268 799,-268 799,-238 623,-238"/>
<text text-anchor="start" x="631" y="-256" font-family="Helvetica,sans-Serif" font-size="10.00">engine.gameObject.components.</text>
<text text-anchor="middle" x="711" y="-245" font-family="Helvetica,sans-Serif" font-size="10.00">PhysicsBody</text>
</a>
</g>
</g>
<!-- Node29&#45;&gt;Node17 -->
<g id="edge30" class="edge"><title>Node29&#45;&gt;Node17</title>
<path fill="none" stroke="#9a32cd" stroke-dasharray="5,2" d="M809.31,-236.251C853.184,-228.006 905.482,-217.21 952,-205 978.825,-197.959 1008.88,-187.89 1029.75,-180.538"/>
<polygon fill="#9a32cd" stroke="#9a32cd" points="808.407,-232.859 799.217,-238.131 809.689,-239.741 808.407,-232.859"/>
<text text-anchor="middle" x="897" y="-232" font-family="Helvetica,sans-Serif" font-size="10.00"> myPhysicsBody</text>
</g>
<!-- Node30 -->
<g id="node30" class="node"><title>Node30</title>
<polygon fill="white" stroke="#bfbfbf" points="255,-277 255,-307 411,-307 411,-277 255,-277"/>
<text text-anchor="start" x="263" y="-295" font-family="Helvetica,sans-Serif" font-size="10.00">Map&lt; String, engine.physics.</text>
<text text-anchor="middle" x="333" y="-284" font-family="Helvetica,sans-Serif" font-size="10.00">Scalar &gt;</text>
</g>
<!-- Node30&#45;&gt;Node29 -->
<g id="edge31" class="edge"><title>Node30&#45;&gt;Node29</title>
<path fill="none" stroke="#9a32cd" stroke-dasharray="5,2" d="M421.751,-282.898C482.27,-276.621 562.38,-268.312 622.784,-262.046"/>
<polygon fill="#9a32cd" stroke="#9a32cd" points="421.037,-279.453 411.452,-283.966 421.759,-286.416 421.037,-279.453"/>
<text text-anchor="middle" x="522" y="-282" font-family="Helvetica,sans-Serif" font-size="10.00"> myConstants</text>
</g>
<!-- Node31 -->
<g id="node31" class="node"><title>Node31</title>
<polygon fill="white" stroke="#bfbfbf" points="255,-228 255,-258 411,-258 411,-228 255,-228"/>
<text text-anchor="start" x="263" y="-246" font-family="Helvetica,sans-Serif" font-size="10.00">Map&lt; String, engine.physics.</text>
<text text-anchor="middle" x="333" y="-235" font-family="Helvetica,sans-Serif" font-size="10.00">Force &gt;</text>
</g>
<!-- Node31&#45;&gt;Node29 -->
<g id="edge32" class="edge"><title>Node31&#45;&gt;Node29</title>
<path fill="none" stroke="#9a32cd" stroke-dasharray="5,2" d="M421.751,-245.334C482.27,-246.943 562.38,-249.074 622.784,-250.68"/>
<polygon fill="#9a32cd" stroke="#9a32cd" points="421.541,-241.827 411.452,-245.06 421.355,-248.825 421.541,-241.827"/>
<text text-anchor="middle" x="522" y="-253" font-family="Helvetica,sans-Serif" font-size="10.00"> myActiveForces</text>
</g>
<!-- Node32 -->
<g id="node32" class="node"><title>Node32</title>
<polygon fill="white" stroke="#bfbfbf" points="249.5,-189.5 249.5,-208.5 416.5,-208.5 416.5,-189.5 249.5,-189.5"/>
<text text-anchor="middle" x="333" y="-196.5" font-family="Helvetica,sans-Serif" font-size="10.00">List&lt; engine.physics.Impulse &gt;</text>
</g>
<!-- Node32&#45;&gt;Node29 -->
<g id="edge33" class="edge"><title>Node32&#45;&gt;Node29</title>
<path fill="none" stroke="#9a32cd" stroke-dasharray="5,2" d="M418.82,-209.808C466.271,-215.998 526.473,-224.088 580,-232 593.909,-234.056 608.638,-236.336 622.99,-238.614"/>
<polygon fill="#9a32cd" stroke="#9a32cd" points="419.263,-206.337 408.895,-208.517 418.359,-213.278 419.263,-206.337"/>
<text text-anchor="middle" x="522" y="-235" font-family="Helvetica,sans-Serif" font-size="10.00"> myImpulses</text>
</g>
<!-- Node33 -->
<g id="node33" class="node"><title>Node33</title>
<g id="a_node33"><a xlink:href="../../d5/d1f/classengine_1_1physics_1_1_vector.html" target="_top" xlink:title="engine.physics.Vector">
<polygon fill="white" stroke="black" points="272.5,-138.5 272.5,-157.5 393.5,-157.5 393.5,-138.5 272.5,-138.5"/>
<text text-anchor="middle" x="333" y="-145.5" font-family="Helvetica,sans-Serif" font-size="10.00">engine.physics.Vector</text>
</a>
</g>
</g>
<!-- Node33&#45;&gt;Node29 -->
<g id="edge34" class="edge"><title>Node33&#45;&gt;Node29</title>
<path fill="none" stroke="#9a32cd" stroke-dasharray="5,2" d="M403.891,-138.585C457.637,-135.286 530.791,-139.849 580,-179 598.156,-193.445 580.545,-212.716 598,-228 605.27,-234.365 613.805,-239.216 622.865,-242.898"/>
<polygon fill="#9a32cd" stroke="#9a32cd" points="403.476,-135.105 393.753,-139.313 403.978,-142.087 403.476,-135.105"/>
<text text-anchor="middle" x="522" y="-204" font-family="Helvetica,sans-Serif" font-size="10.00"> myBalancedForcesMag</text>
<text text-anchor="middle" x="522" y="-193" font-family="Helvetica,sans-Serif" font-size="10.00">myVelocity</text>
<text text-anchor="middle" x="522" y="-182" font-family="Helvetica,sans-Serif" font-size="10.00">myAcceleration</text>
</g>
<!-- Node34 -->
<g id="node34" class="node"><title>Node34</title>
<g id="a_node34"><a xlink:href="../../dc/db5/classengine_1_1physics_1_1_physics_component.html" target="_top" xlink:title="engine.physics.PhysicsComponent">
<polygon fill="white" stroke="black" points="0,-138.5 0,-157.5 182,-157.5 182,-138.5 0,-138.5"/>
<text text-anchor="middle" x="91" y="-145.5" font-family="Helvetica,sans-Serif" font-size="10.00">engine.physics.PhysicsComponent</text>
</a>
</g>
</g>
<!-- Node34&#45;&gt;Node33 -->
<g id="edge35" class="edge"><title>Node34&#45;&gt;Node33</title>
<path fill="none" stroke="midnightblue" d="M192.403,-148C219.624,-148 248.228,-148 272.406,-148"/>
<polygon fill="midnightblue" stroke="midnightblue" points="192.05,-144.5 182.05,-148 192.05,-151.5 192.05,-144.5"/>
</g>
<!-- Node35&#45;&gt;Node17 -->
<g id="edge36" class="edge"><title>Node35&#45;&gt;Node17</title>
<path fill="none" stroke="#9a32cd" stroke-dasharray="5,2" d="M806.741,-0.748654C853.191,-0.425078 908.375,-6.62178 952,-31 1006.98,-61.7216 1041.27,-134.942 1052.2,-161.32"/>
<polygon fill="#9a32cd" stroke="#9a32cd" points="806.604,2.74962 796.666,-0.920588 806.724,-4.24936 806.604,2.74962"/>
<text text-anchor="middle" x="897" y="-34" font-family="Helvetica,sans-Serif" font-size="10.00"> myDefaultData</text>
</g>
</g>
</svg>
        <g id="navigator" transform="translate(0 0)" fill="#404254">
                <rect fill="#f2f5e9" fill-opacity="0.5" stroke="#606060" stroke-width=".5" x="0" y="0" width="60" height="60"/>
                <use id="zoomplus" xlink:href="#zoomPlus" x="17" y="9" onmousedown="handleZoom(evt,'in')"/>
                <use id="zoomminus" xlink:href="#zoomMin" x="42" y="9" onmousedown="handleZoom(evt,'out')"/>
                <use id="reset" xlink:href="#resetDef" x="30" y="36" onmousedown="handleReset()"/>
                <g id="arrowUp" xlink:href="#dirArrow" transform="translate(30 24)" onmousedown="handlePan(0,-1)">
                  <use xlink:href="#rim" fill="#404040">
                        <set attributeName="fill" to="#808080" begin="arrowUp.mouseover" end="arrowUp.mouseout"/>
                  </use>
                  <path fill="none" stroke="white" stroke-width="1.5" d="M0,-3.0v7 M-2.5,-0.5L0,-3.0L2.5,-0.5"/>
                </g>
                <g id="arrowRight" xlink:href="#dirArrow" transform="rotate(90) translate(36 -43)" onmousedown="handlePan(1,0)">
                  <use xlink:href="#rim" fill="#404040">
                        <set attributeName="fill" to="#808080" begin="arrowRight.mouseover" end="arrowRight.mouseout"/>
                  </use>
                  <path fill="none" stroke="white" stroke-width="1.5" d="M0,-3.0v7 M-2.5,-0.5L0,-3.0L2.5,-0.5"/>
                </g>
                <g id="arrowDown" xlink:href="#dirArrow" transform="rotate(180) translate(-30 -48)" onmousedown="handlePan(0,1)">
                  <use xlink:href="#rim" fill="#404040">
                        <set attributeName="fill" to="#808080" begin="arrowDown.mouseover" end="arrowDown.mouseout"/>
                  </use>
                  <path fill="none" stroke="white" stroke-width="1.5" d="M0,-3.0v7 M-2.5,-0.5L0,-3.0L2.5,-0.5"/>
                </g>
                <g id="arrowLeft" xlink:href="#dirArrow" transform="rotate(270) translate(-36 17)" onmousedown="handlePan(-1,0)">
                  <use xlink:href="#rim" fill="#404040">
                        <set attributeName="fill" to="#808080" begin="arrowLeft.mouseover" end="arrowLeft.mouseout"/>
                  </use>
                  <path fill="none" stroke="white" stroke-width="1.5" d="M0,-3.0v7 M-2.5,-0.5L0,-3.0L2.5,-0.5"/>
                </g>
        </g>
        <svg viewBox="0 0 15 15" width="100%" height="30px" preserveAspectRatio="xMaxYMin meet">
         <g id="arrow_out" transform="scale(0.3 0.3)">
          <a xlink:href="classauthoring_1_1eventhandlers_1_1_icon_click_handler__coll__graph_org.svg" target="_base">
           <rect id="button" ry="5" rx="5" y="6" x="6" height="38" width="38"
                fill="#f2f5e9" fill-opacity="0.5" stroke="#606060" stroke-width="1.0"/>
           <path id="arrow"
             d="M 11.500037,31.436501 C 11.940474,20.09759 22.043105,11.32322 32.158766,21.979434 L 37.068811,17.246167 C 37.068811,17.246167 37.088388,32 37.088388,32 L 22.160133,31.978069 C 22.160133,31.978069 26.997745,27.140456 26.997745,27.140456 C 18.528582,18.264221 13.291696,25.230495 11.500037,31.436501 z"
             style="fill:#404040;"/>
          </a>
         </g>
        </svg>
</svg>
