<?xml version="1.0" encoding="UTF-8" standalone="no"?>
<!DOCTYPE svg PUBLIC "-//W3C//DTD SVG 1.1//EN"
 "http://www.w3.org/Graphics/SVG/1.1/DTD/svg11.dtd">
<!-- Generated by graphviz version 2.36.0 (20140111.2315)
 -->
<!-- Title: engine.level.Level.getGameObjectIterator Pages: 1 -->
<svg width="1182pt" height="87pt"
 viewBox="0.00 0.00 1182.00 87.00" xmlns="http://www.w3.org/2000/svg" xmlns:xlink="http://www.w3.org/1999/xlink">
<g id="graph0" class="graph" transform="scale(1 1) rotate(0) translate(4 83)">
<title>engine.level.Level.getGameObjectIterator</title>
<polygon fill="white" stroke="none" points="-4,4 -4,-83 1178,-83 1178,4 -4,4"/>
<!-- Node1 -->
<g id="node1" class="node"><title>Node1</title>
<polygon fill="#bfbfbf" stroke="black" points="0.5,-24 0.5,-54 149.5,-54 149.5,-24 0.5,-24"/>
<text text-anchor="start" x="8.5" y="-42" font-family="Helvetica,sans-Serif" font-size="10.00">engine.level.Level.getGame</text>
<text text-anchor="middle" x="75" y="-31" font-family="Helvetica,sans-Serif" font-size="10.00">ObjectIterator</text>
</g>
<!-- Node2 -->
<g id="node2" class="node"><title>Node2</title>
<g id="a_node2"><a xlink:href="../../dd/d8d/classengine_1_1render_1_1_renderer.html#a189dda9a8463274afe267959860f0dee" target="_top" xlink:title="engine.render.Renderer.render\lGameObjects">
<polygon fill="white" stroke="black" points="186,-24 186,-54 348,-54 348,-24 186,-24"/>
<text text-anchor="start" x="194" y="-42" font-family="Helvetica,sans-Serif" font-size="10.00">engine.render.Renderer.render</text>
<text text-anchor="middle" x="267" y="-31" font-family="Helvetica,sans-Serif" font-size="10.00">GameObjects</text>
</a>
</g>
</g>
<!-- Node1&#45;&gt;Node2 -->
<g id="edge1" class="edge"><title>Node1&#45;&gt;Node2</title>
<path fill="none" stroke="midnightblue" d="M159.768,-39C168.382,-39 177.121,-39 185.697,-39"/>
<polygon fill="midnightblue" stroke="midnightblue" points="159.731,-35.5001 149.731,-39 159.731,-42.5001 159.731,-35.5001"/>
</g>
<!-- Node3 -->
<g id="node3" class="node"><title>Node3</title>
<g id="a_node3"><a xlink:href="../../df/d67/classengine_1_1level_1_1_level_manager.html#a523599892453015eed0f1b506979af8a" target="_top" xlink:title="engine.level.LevelManager.initialize\lCurrentLevel">
<polygon fill="white" stroke="black" points="384,-24 384,-54 568,-54 568,-24 384,-24"/>
<text text-anchor="start" x="392" y="-42" font-family="Helvetica,sans-Serif" font-size="10.00">engine.level.LevelManager.initialize</text>
<text text-anchor="middle" x="476" y="-31" font-family="Helvetica,sans-Serif" font-size="10.00">CurrentLevel</text>
</a>
</g>
</g>
<!-- Node2&#45;&gt;Node3 -->
<g id="edge2" class="edge"><title>Node2&#45;&gt;Node3</title>
<path fill="none" stroke="midnightblue" d="M358.284,-39C366.751,-39 375.338,-39 383.813,-39"/>
<polygon fill="midnightblue" stroke="midnightblue" points="358.032,-35.5001 348.032,-39 358.032,-42.5001 358.032,-35.5001"/>
</g>
<!-- Node4 -->
<g id="node4" class="node"><title>Node4</title>
<g id="a_node4"><a xlink:href="../../df/d67/classengine_1_1level_1_1_level_manager.html#a1d0f314bbf304bf86067ab87b832d2e0" target="_top" xlink:title="engine.level.LevelManager.find\lAndSetStartLevel">
<polygon fill="white" stroke="black" points="604.5,-49 604.5,-79 767.5,-79 767.5,-49 604.5,-49"/>
<text text-anchor="start" x="612.5" y="-67" font-family="Helvetica,sans-Serif" font-size="10.00">engine.level.LevelManager.find</text>
<text text-anchor="middle" x="686" y="-56" font-family="Helvetica,sans-Serif" font-size="10.00">AndSetStartLevel</text>
</a>
</g>
</g>
<!-- Node3&#45;&gt;Node4 -->
<g id="edge3" class="edge"><title>Node3&#45;&gt;Node4</title>
<path fill="none" stroke="midnightblue" d="M578.403,-51.1878C587.089,-52.2318 595.799,-53.2787 604.291,-54.2994"/>
<polygon fill="midnightblue" stroke="midnightblue" points="578.578,-47.6838 568.232,-49.9654 577.743,-54.6338 578.578,-47.6838"/>
</g>
<!-- Node6 -->
<g id="node6" class="node"><title>Node6</title>
<g id="a_node6"><a xlink:href="../../df/d67/classengine_1_1level_1_1_level_manager.html#ad89101547413fe335873b050fd091c79" target="_top" xlink:title="engine.level.LevelManager.set\lCurrentLevel">
<polygon fill="white" stroke="black" points="605.5,-0 605.5,-30 766.5,-30 766.5,-0 605.5,-0"/>
<text text-anchor="start" x="613.5" y="-18" font-family="Helvetica,sans-Serif" font-size="10.00">engine.level.LevelManager.set</text>
<text text-anchor="middle" x="686" y="-7" font-family="Helvetica,sans-Serif" font-size="10.00">CurrentLevel</text>
</a>
</g>
</g>
<!-- Node3&#45;&gt;Node6 -->
<g id="edge5" class="edge"><title>Node3&#45;&gt;Node6</title>
<path fill="none" stroke="midnightblue" d="M578.39,-27.3012C587.41,-26.2604 596.456,-25.2166 605.257,-24.2011"/>
<polygon fill="midnightblue" stroke="midnightblue" points="577.765,-23.85 568.232,-28.4733 578.567,-30.8039 577.765,-23.85"/>
</g>
<!-- Node5 -->
<g id="node5" class="node"><title>Node5</title>
<g id="a_node5"><a xlink:href="../../df/d67/classengine_1_1level_1_1_level_manager.html#a587b50d02654d70122a28bcda169bb8d" target="_top" xlink:title="engine.level.LevelManager.\lLevelManager">
<polygon fill="white" stroke="black" points="822,-49 822,-79 968,-79 968,-49 822,-49"/>
<text text-anchor="start" x="830" y="-67" font-family="Helvetica,sans-Serif" font-size="10.00">engine.level.LevelManager.</text>
<text text-anchor="middle" x="895" y="-56" font-family="Helvetica,sans-Serif" font-size="10.00">LevelManager</text>
</a>
</g>
</g>
<!-- Node4&#45;&gt;Node5 -->
<g id="edge4" class="edge"><title>Node4&#45;&gt;Node5</title>
<path fill="none" stroke="midnightblue" d="M777.735,-64C792.442,-64 807.497,-64 821.69,-64"/>
<polygon fill="midnightblue" stroke="midnightblue" points="777.624,-60.5001 767.624,-64 777.624,-67.5001 777.624,-60.5001"/>
</g>
<!-- Node7 -->
<g id="node7" class="node"><title>Node7</title>
<g id="a_node7"><a xlink:href="../../df/d67/classengine_1_1level_1_1_level_manager.html#ad3c392cf6260c53428255fb596442692" target="_top" xlink:title="engine.level.LevelManager.change\lToLevel">
<polygon fill="white" stroke="black" points="804.5,-0 804.5,-30 985.5,-30 985.5,-0 804.5,-0"/>
<text text-anchor="start" x="812.5" y="-18" font-family="Helvetica,sans-Serif" font-size="10.00">engine.level.LevelManager.change</text>
<text text-anchor="middle" x="895" y="-7" font-family="Helvetica,sans-Serif" font-size="10.00">ToLevel</text>
</a>
</g>
</g>
<!-- Node6&#45;&gt;Node7 -->
<g id="edge6" class="edge"><title>Node6&#45;&gt;Node7</title>
<path fill="none" stroke="midnightblue" d="M776.917,-15C786.001,-15 795.228,-15 804.31,-15"/>
<polygon fill="midnightblue" stroke="midnightblue" points="776.736,-11.5001 766.736,-15 776.735,-18.5001 776.736,-11.5001"/>
</g>
<!-- Node8 -->
<g id="node8" class="node"><title>Node8</title>
<g id="a_node8"><a xlink:href="../../d1/d73/classengine_1_1actions_1_1_change_level_action.html#a8190adf308768b0d12f6432d0cf0fbc4" target="_top" xlink:title="engine.actions.ChangeLevel\lAction.execute">
<polygon fill="white" stroke="black" points="1022.5,-0 1022.5,-30 1173.5,-30 1173.5,-0 1022.5,-0"/>
<text text-anchor="start" x="1030.5" y="-18" font-family="Helvetica,sans-Serif" font-size="10.00">engine.actions.ChangeLevel</text>
<text text-anchor="middle" x="1098" y="-7" font-family="Helvetica,sans-Serif" font-size="10.00">Action.execute</text>
</a>
</g>
</g>
<!-- Node7&#45;&gt;Node8 -->
<g id="edge7" class="edge"><title>Node7&#45;&gt;Node8</title>
<path fill="none" stroke="midnightblue" d="M995.706,-15C1004.65,-15 1013.61,-15 1022.29,-15"/>
<polygon fill="midnightblue" stroke="midnightblue" points="995.625,-11.5001 985.625,-15 995.625,-18.5001 995.625,-11.5001"/>
</g>
</g>
</svg>
