<?xml version="1.0" encoding="UTF-8" standalone="no"?>
<!DOCTYPE svg PUBLIC "-//W3C//DTD SVG 1.1//EN"
 "http://www.w3.org/Graphics/SVG/1.1/DTD/svg11.dtd">
<!-- Generated by graphviz version 2.36.0 (20140111.2315)
 -->
<!-- Title: engine.gameObject.components.PhysicsBody.getCollisionBodyWidth Pages: 1 -->
<svg width="1866pt" height="728pt"
 viewBox="0.00 0.00 1866.00 728.00" xmlns="http://www.w3.org/2000/svg" xmlns:xlink="http://www.w3.org/1999/xlink">
<g id="graph0" class="graph" transform="scale(1 1) rotate(0) translate(4 724)">
<title>engine.gameObject.components.PhysicsBody.getCollisionBodyWidth</title>
<polygon fill="white" stroke="none" points="-4,4 -4,-724 1862,-724 1862,4 -4,4"/>
<!-- Node1 -->
<g id="node1" class="node"><title>Node1</title>
<polygon fill="#bfbfbf" stroke="black" points="0,-251 0,-281 182,-281 182,-251 0,-251"/>
<text text-anchor="start" x="8" y="-269" font-family="Helvetica,sans-Serif" font-size="10.00">engine.gameObject.components.</text>
<text text-anchor="middle" x="91" y="-258" font-family="Helvetica,sans-Serif" font-size="10.00">PhysicsBody.getCollisionBodyWidth</text>
</g>
<!-- Node2 -->
<g id="node2" class="node"><title>Node2</title>
<g id="a_node2"><a xlink:href="../../d5/d30/classengine_1_1render_1_1_rendered_node_factory.html#ac14d2f5a3da79d92c967fe22bc82c1ed" target="_top" xlink:title="engine.render.RenderedNode\lFactory.createCollisionBody">
<polygon fill="white" stroke="black" points="230,-406 230,-436 386,-436 386,-406 230,-406"/>
<text text-anchor="start" x="238" y="-424" font-family="Helvetica,sans-Serif" font-size="10.00">engine.render.RenderedNode</text>
<text text-anchor="middle" x="308" y="-413" font-family="Helvetica,sans-Serif" font-size="10.00">Factory.createCollisionBody</text>
</a>
</g>
</g>
<!-- Node1&#45;&gt;Node2 -->
<g id="edge1" class="edge"><title>Node1&#45;&gt;Node2</title>
<path fill="none" stroke="midnightblue" d="M121.27,-287.101C165.245,-318.804 247.31,-377.968 285.908,-405.794"/>
<polygon fill="midnightblue" stroke="midnightblue" points="123.165,-284.153 113.007,-281.144 119.072,-289.831 123.165,-284.153"/>
</g>
<!-- Node20 -->
<g id="node20" class="node"><title>Node20</title>
<g id="a_node20"><a xlink:href="../../da/d1b/classengine_1_1collision_1_1objects_1_1_collision_composition.html#a7ec4687ad9367279088b965c0e009cd0" target="_top" xlink:title="engine.collision.objects.\lCollisionComposition.fixedCollision">
<polygon fill="white" stroke="black" points="218,-276 218,-306 398,-306 398,-276 218,-276"/>
<text text-anchor="start" x="226" y="-294" font-family="Helvetica,sans-Serif" font-size="10.00">engine.collision.objects.</text>
<text text-anchor="middle" x="308" y="-283" font-family="Helvetica,sans-Serif" font-size="10.00">CollisionComposition.fixedCollision</text>
</a>
</g>
</g>
<!-- Node1&#45;&gt;Node20 -->
<g id="edge19" class="edge"><title>Node1&#45;&gt;Node20</title>
<path fill="none" stroke="midnightblue" d="M192.189,-277.65C200.694,-278.639 209.261,-279.635 217.675,-280.613"/>
<polygon fill="midnightblue" stroke="midnightblue" points="192.582,-274.172 182.245,-276.494 191.774,-281.125 192.582,-274.172"/>
</g>
<!-- Node30 -->
<g id="node30" class="node"><title>Node30</title>
<g id="a_node30"><a xlink:href="../../d9/d9d/classengine_1_1game_object_1_1components_1_1_physics_body.html#a6df6a3a8e4dde3aea1de4127f93935aa" target="_top" xlink:title="engine.gameObject.components.\lPhysicsBody.handleCollision">
<polygon fill="white" stroke="black" points="220,-227 220,-257 396,-257 396,-227 220,-227"/>
<text text-anchor="start" x="228" y="-245" font-family="Helvetica,sans-Serif" font-size="10.00">engine.gameObject.components.</text>
<text text-anchor="middle" x="308" y="-234" font-family="Helvetica,sans-Serif" font-size="10.00">PhysicsBody.handleCollision</text>
</a>
</g>
</g>
<!-- Node1&#45;&gt;Node30 -->
<g id="edge29" class="edge"><title>Node1&#45;&gt;Node30</title>
<path fill="none" stroke="midnightblue" d="M192.189,-254.816C201.39,-253.789 210.664,-252.754 219.738,-251.741"/>
<polygon fill="midnightblue" stroke="midnightblue" points="191.795,-251.338 182.245,-255.926 192.571,-258.295 191.795,-251.338"/>
</g>
<!-- Node31 -->
<g id="node31" class="node"><title>Node31</title>
<g id="a_node31"><a xlink:href="../../d9/d9d/classengine_1_1game_object_1_1components_1_1_physics_body.html#a3166b39b1bdc33bdc3063031d68b58f3" target="_top" xlink:title="engine.gameObject.components.\lPhysicsBody.PhysicsBody">
<polygon fill="white" stroke="black" points="220,-178 220,-208 396,-208 396,-178 220,-178"/>
<text text-anchor="start" x="228" y="-196" font-family="Helvetica,sans-Serif" font-size="10.00">engine.gameObject.components.</text>
<text text-anchor="middle" x="308" y="-185" font-family="Helvetica,sans-Serif" font-size="10.00">PhysicsBody.PhysicsBody</text>
</a>
</g>
</g>
<!-- Node1&#45;&gt;Node31 -->
<g id="edge30" class="edge"><title>Node1&#45;&gt;Node31</title>
<path fill="none" stroke="midnightblue" d="M137.223,-247.054C161.035,-237.425 190.854,-225.91 218,-217 227.427,-213.906 237.508,-210.903 247.374,-208.128"/>
<polygon fill="midnightblue" stroke="midnightblue" points="135.686,-243.901 127.745,-250.915 138.327,-250.384 135.686,-243.901"/>
</g>
<!-- Node3 -->
<g id="node3" class="node"><title>Node3</title>
<g id="a_node3"><a xlink:href="../../d5/d30/classengine_1_1render_1_1_rendered_node_factory.html#a359dcce722371dfb49b79528930c1b05" target="_top" xlink:title="engine.render.RenderedNode\lFactory.createRenderedNode">
<polygon fill="white" stroke="black" points="449,-518 449,-548 605,-548 605,-518 449,-518"/>
<text text-anchor="start" x="457" y="-536" font-family="Helvetica,sans-Serif" font-size="10.00">engine.render.RenderedNode</text>
<text text-anchor="middle" x="527" y="-525" font-family="Helvetica,sans-Serif" font-size="10.00">Factory.createRenderedNode</text>
</a>
</g>
</g>
<!-- Node2&#45;&gt;Node3 -->
<g id="edge2" class="edge"><title>Node2&#45;&gt;Node3</title>
<path fill="none" stroke="midnightblue" d="M334.374,-442.601C358.555,-462.193 396.708,-490.595 434,-508 442.099,-511.78 450.875,-515.078 459.681,-517.929"/>
<polygon fill="midnightblue" stroke="midnightblue" points="336.375,-439.716 326.427,-436.071 331.931,-445.124 336.375,-439.716"/>
</g>
<!-- Node4 -->
<g id="node4" class="node"><title>Node4</title>
<g id="a_node4"><a xlink:href="../../dd/d8d/classengine_1_1render_1_1_renderer.html#a569f6bb2f9c218ed015949dff459b1ee" target="_top" xlink:title="engine.render.Renderer.create\lAndAssignRenderedNode">
<polygon fill="white" stroke="black" points="656.5,-518 656.5,-548 817.5,-548 817.5,-518 656.5,-518"/>
<text text-anchor="start" x="664.5" y="-536" font-family="Helvetica,sans-Serif" font-size="10.00">engine.render.Renderer.create</text>
<text text-anchor="middle" x="737" y="-525" font-family="Helvetica,sans-Serif" font-size="10.00">AndAssignRenderedNode</text>
</a>
</g>
</g>
<!-- Node3&#45;&gt;Node4 -->
<g id="edge3" class="edge"><title>Node3&#45;&gt;Node4</title>
<path fill="none" stroke="midnightblue" d="M615.407,-533C628.932,-533 642.84,-533 656.186,-533"/>
<polygon fill="midnightblue" stroke="midnightblue" points="615.156,-529.5 605.156,-533 615.156,-536.5 615.156,-529.5"/>
</g>
<!-- Node5 -->
<g id="node5" class="node"><title>Node5</title>
<g id="a_node5"><a xlink:href="../../d8/dfe/classengine_1_1actions_1_1_change_image_i_d_action.html#a5517685ef0d4cc94928f226255299f78" target="_top" xlink:title="engine.actions.ChangeImage\lIDAction.execute">
<polygon fill="white" stroke="black" points="865,-690 865,-720 1021,-720 1021,-690 865,-690"/>
<text text-anchor="start" x="873" y="-708" font-family="Helvetica,sans-Serif" font-size="10.00">engine.actions.ChangeImage</text>
<text text-anchor="middle" x="943" y="-697" font-family="Helvetica,sans-Serif" font-size="10.00">IDAction.execute</text>
</a>
</g>
</g>
<!-- Node4&#45;&gt;Node5 -->
<g id="edge4" class="edge"><title>Node4&#45;&gt;Node5</title>
<path fill="none" stroke="midnightblue" d="M750.511,-556.947C768.83,-589.661 806.048,-647.91 854,-680 859.808,-683.887 866.219,-687.176 872.854,-689.958"/>
<polygon fill="midnightblue" stroke="midnightblue" points="753.516,-555.149 745.646,-548.056 747.375,-558.509 753.516,-555.149"/>
</g>
<!-- Node6 -->
<g id="node6" class="node"><title>Node6</title>
<g id="a_node6"><a xlink:href="../../d4/d9f/classengine_1_1actions_1_1_label_int_increment_action.html#ac110c3332e6d26e169e7e45d537a8d3f" target="_top" xlink:title="engine.actions.LabelIntIncrement\lAction.execute">
<polygon fill="white" stroke="black" points="855,-641 855,-671 1031,-671 1031,-641 855,-641"/>
<text text-anchor="start" x="863" y="-659" font-family="Helvetica,sans-Serif" font-size="10.00">engine.actions.LabelIntIncrement</text>
<text text-anchor="middle" x="943" y="-648" font-family="Helvetica,sans-Serif" font-size="10.00">Action.execute</text>
</a>
</g>
</g>
<!-- Node4&#45;&gt;Node6 -->
<g id="edge5" class="edge"><title>Node4&#45;&gt;Node6</title>
<path fill="none" stroke="midnightblue" d="M758.945,-555.596C780.706,-577.803 816.736,-611.165 854,-631 861.15,-634.806 868.944,-638.088 876.841,-640.903"/>
<polygon fill="midnightblue" stroke="midnightblue" points="761.323,-553.02 751.864,-548.246 756.282,-557.876 761.323,-553.02"/>
</g>
<!-- Node7 -->
<g id="node7" class="node"><title>Node7</title>
<g id="a_node7"><a xlink:href="../../dd/d57/classengine_1_1actions_1_1_make_new_object_from_location_action.html#a2ebd225d5e10817ac79f4044867afa98" target="_top" xlink:title="engine.actions.MakeNewObject\lFromLocationAction.execute">
<polygon fill="white" stroke="black" points="860,-592 860,-622 1026,-622 1026,-592 860,-592"/>
<text text-anchor="start" x="868" y="-610" font-family="Helvetica,sans-Serif" font-size="10.00">engine.actions.MakeNewObject</text>
<text text-anchor="middle" x="943" y="-599" font-family="Helvetica,sans-Serif" font-size="10.00">FromLocationAction.execute</text>
</a>
</g>
</g>
<!-- Node4&#45;&gt;Node7 -->
<g id="edge6" class="edge"><title>Node4&#45;&gt;Node7</title>
<path fill="none" stroke="midnightblue" d="M779.89,-552.165C801.729,-561.78 829.029,-573.216 854,-582 863.888,-585.478 874.527,-588.825 884.872,-591.876"/>
<polygon fill="midnightblue" stroke="midnightblue" points="781.139,-548.89 770.579,-548.031 778.298,-555.288 781.139,-548.89"/>
</g>
<!-- Node8 -->
<g id="node8" class="node"><title>Node8</title>
<g id="a_node8"><a xlink:href="../../db/d61/classengine_1_1actions_1_1_make_new_object_from_object_action.html#a01ffb165d6169f7b0a22733e2b6c61a9" target="_top" xlink:title="engine.actions.MakeNewObject\lFromObjectAction.execute">
<polygon fill="white" stroke="black" points="860,-543 860,-573 1026,-573 1026,-543 860,-543"/>
<text text-anchor="start" x="868" y="-561" font-family="Helvetica,sans-Serif" font-size="10.00">engine.actions.MakeNewObject</text>
<text text-anchor="middle" x="943" y="-550" font-family="Helvetica,sans-Serif" font-size="10.00">FromObjectAction.execute</text>
</a>
</g>
</g>
<!-- Node4&#45;&gt;Node8 -->
<g id="edge7" class="edge"><title>Node4&#45;&gt;Node8</title>
<path fill="none" stroke="midnightblue" d="M827.902,-544.017C838.566,-545.324 849.409,-546.653 859.955,-547.946"/>
<polygon fill="midnightblue" stroke="midnightblue" points="828.1,-540.516 817.748,-542.773 827.248,-547.464 828.1,-540.516"/>
</g>
<!-- Node9 -->
<g id="node9" class="node"><title>Node9</title>
<g id="a_node9"><a xlink:href="../../da/d16/classengine_1_1actions_1_1_make_new_random_object_action.html#a82ccd5604bd05170e416e41b32020f00" target="_top" xlink:title="engine.actions.MakeNewRandom\lObjectAction.makeRandomObject">
<polygon fill="white" stroke="black" points="854,-494 854,-524 1032,-524 1032,-494 854,-494"/>
<text text-anchor="start" x="862" y="-512" font-family="Helvetica,sans-Serif" font-size="10.00">engine.actions.MakeNewRandom</text>
<text text-anchor="middle" x="943" y="-501" font-family="Helvetica,sans-Serif" font-size="10.00">ObjectAction.makeRandomObject</text>
</a>
</g>
</g>
<!-- Node4&#45;&gt;Node9 -->
<g id="edge8" class="edge"><title>Node4&#45;&gt;Node9</title>
<path fill="none" stroke="midnightblue" d="M827.828,-522.432C836.473,-521.415 845.237,-520.384 853.865,-519.369"/>
<polygon fill="midnightblue" stroke="midnightblue" points="827.271,-518.973 817.748,-523.618 828.089,-525.925 827.271,-518.973"/>
</g>
<!-- Node11 -->
<g id="node11" class="node"><title>Node11</title>
<g id="a_node11"><a xlink:href="../../db/db5/classengine_1_1actions_1_1render_1_1_change_image_type_action.html#a09110a0a08bac229b9e2feddf1d3378c" target="_top" xlink:title="engine.actions.render.Change\lImageTypeAction.execute">
<polygon fill="white" stroke="black" points="863,-445 863,-475 1023,-475 1023,-445 863,-445"/>
<text text-anchor="start" x="871" y="-463" font-family="Helvetica,sans-Serif" font-size="10.00">engine.actions.render.Change</text>
<text text-anchor="middle" x="943" y="-452" font-family="Helvetica,sans-Serif" font-size="10.00">ImageTypeAction.execute</text>
</a>
</g>
</g>
<!-- Node4&#45;&gt;Node11 -->
<g id="edge10" class="edge"><title>Node4&#45;&gt;Node11</title>
<path fill="none" stroke="midnightblue" d="M780.636,-513.972C802.365,-504.63 829.343,-493.572 854,-485 864.051,-481.506 874.869,-478.128 885.363,-475.046"/>
<polygon fill="midnightblue" stroke="midnightblue" points="779.143,-510.804 771.359,-517.992 781.927,-517.227 779.143,-510.804"/>
</g>
<!-- Node12 -->
<g id="node12" class="node"><title>Node12</title>
<g id="a_node12"><a xlink:href="../../d3/dbb/classengine_1_1actions_1_1render_1_1_paint_canvas.html#a3f4cb25dfb09aa686debf838e806b010" target="_top" xlink:title="engine.actions.render.Paint\lCanvas.applyRender">
<polygon fill="white" stroke="black" points="870,-396 870,-426 1016,-426 1016,-396 870,-396"/>
<text text-anchor="start" x="878" y="-414" font-family="Helvetica,sans-Serif" font-size="10.00">engine.actions.render.Paint</text>
<text text-anchor="middle" x="943" y="-403" font-family="Helvetica,sans-Serif" font-size="10.00">Canvas.applyRender</text>
</a>
</g>
</g>
<!-- Node4&#45;&gt;Node12 -->
<g id="edge11" class="edge"><title>Node4&#45;&gt;Node12</title>
<path fill="none" stroke="midnightblue" d="M758.99,-510.645C780.787,-488.672 816.844,-455.657 854,-436 861.16,-432.212 868.959,-428.941 876.86,-426.132"/>
<polygon fill="midnightblue" stroke="midnightblue" points="756.375,-508.314 751.897,-517.917 761.385,-513.202 756.375,-508.314"/>
</g>
<!-- Node13 -->
<g id="node13" class="node"><title>Node13</title>
<g id="a_node13"><a xlink:href="../../dd/d8d/classengine_1_1render_1_1_renderer.html#a189dda9a8463274afe267959860f0dee" target="_top" xlink:title="engine.render.Renderer.render\lGameObjects">
<polygon fill="white" stroke="black" points="862,-347 862,-377 1024,-377 1024,-347 862,-347"/>
<text text-anchor="start" x="870" y="-365" font-family="Helvetica,sans-Serif" font-size="10.00">engine.render.Renderer.render</text>
<text text-anchor="middle" x="943" y="-354" font-family="Helvetica,sans-Serif" font-size="10.00">GameObjects</text>
</a>
</g>
</g>
<!-- Node4&#45;&gt;Node13 -->
<g id="edge12" class="edge"><title>Node4&#45;&gt;Node13</title>
<path fill="none" stroke="midnightblue" d="M750.837,-508.715C769.304,-476.135 806.441,-418.713 854,-387 859.814,-383.123 866.229,-379.84 872.867,-377.062"/>
<polygon fill="midnightblue" stroke="midnightblue" points="747.705,-507.145 745.921,-517.588 753.829,-510.537 747.705,-507.145"/>
</g>
<!-- Node10 -->
<g id="node10" class="node"><title>Node10</title>
<g id="a_node10"><a xlink:href="../../da/d16/classengine_1_1actions_1_1_make_new_random_object_action.html#aa831c4b818ed75f812bf8ba0d453c942" target="_top" xlink:title="engine.actions.MakeNewRandom\lObjectAction.execute">
<polygon fill="white" stroke="black" points="1072.5,-494 1072.5,-524 1247.5,-524 1247.5,-494 1072.5,-494"/>
<text text-anchor="start" x="1080.5" y="-512" font-family="Helvetica,sans-Serif" font-size="10.00">engine.actions.MakeNewRandom</text>
<text text-anchor="middle" x="1160" y="-501" font-family="Helvetica,sans-Serif" font-size="10.00">ObjectAction.execute</text>
</a>
</g>
</g>
<!-- Node9&#45;&gt;Node10 -->
<g id="edge9" class="edge"><title>Node9&#45;&gt;Node10</title>
<path fill="none" stroke="midnightblue" d="M1042.14,-509C1052.25,-509 1062.48,-509 1072.46,-509"/>
<polygon fill="midnightblue" stroke="midnightblue" points="1042.07,-505.5 1032.07,-509 1042.07,-512.5 1042.07,-505.5"/>
</g>
<!-- Node14 -->
<g id="node14" class="node"><title>Node14</title>
<g id="a_node14"><a xlink:href="../../df/d67/classengine_1_1level_1_1_level_manager.html#a523599892453015eed0f1b506979af8a" target="_top" xlink:title="engine.level.LevelManager.initialize\lCurrentLevel">
<polygon fill="white" stroke="black" points="1068,-347 1068,-377 1252,-377 1252,-347 1068,-347"/>
<text text-anchor="start" x="1076" y="-365" font-family="Helvetica,sans-Serif" font-size="10.00">engine.level.LevelManager.initialize</text>
<text text-anchor="middle" x="1160" y="-354" font-family="Helvetica,sans-Serif" font-size="10.00">CurrentLevel</text>
</a>
</g>
</g>
<!-- Node13&#45;&gt;Node14 -->
<g id="edge13" class="edge"><title>Node13&#45;&gt;Node14</title>
<path fill="none" stroke="midnightblue" d="M1034.15,-362C1045.22,-362 1056.55,-362 1067.65,-362"/>
<polygon fill="midnightblue" stroke="midnightblue" points="1034.06,-358.5 1024.06,-362 1034.06,-365.5 1034.06,-358.5"/>
</g>
<!-- Node15 -->
<g id="node15" class="node"><title>Node15</title>
<g id="a_node15"><a xlink:href="../../df/d67/classengine_1_1level_1_1_level_manager.html#a1d0f314bbf304bf86067ab87b832d2e0" target="_top" xlink:title="engine.level.LevelManager.find\lAndSetStartLevel">
<polygon fill="white" stroke="black" points="1288.5,-372 1288.5,-402 1451.5,-402 1451.5,-372 1288.5,-372"/>
<text text-anchor="start" x="1296.5" y="-390" font-family="Helvetica,sans-Serif" font-size="10.00">engine.level.LevelManager.find</text>
<text text-anchor="middle" x="1370" y="-379" font-family="Helvetica,sans-Serif" font-size="10.00">AndSetStartLevel</text>
</a>
</g>
</g>
<!-- Node14&#45;&gt;Node15 -->
<g id="edge14" class="edge"><title>Node14&#45;&gt;Node15</title>
<path fill="none" stroke="midnightblue" d="M1262.4,-374.188C1271.09,-375.232 1279.8,-376.279 1288.29,-377.299"/>
<polygon fill="midnightblue" stroke="midnightblue" points="1262.58,-370.684 1252.23,-372.965 1261.74,-377.634 1262.58,-370.684"/>
</g>
<!-- Node17 -->
<g id="node17" class="node"><title>Node17</title>
<g id="a_node17"><a xlink:href="../../df/d67/classengine_1_1level_1_1_level_manager.html#ad89101547413fe335873b050fd091c79" target="_top" xlink:title="engine.level.LevelManager.set\lCurrentLevel">
<polygon fill="white" stroke="black" points="1289.5,-323 1289.5,-353 1450.5,-353 1450.5,-323 1289.5,-323"/>
<text text-anchor="start" x="1297.5" y="-341" font-family="Helvetica,sans-Serif" font-size="10.00">engine.level.LevelManager.set</text>
<text text-anchor="middle" x="1370" y="-330" font-family="Helvetica,sans-Serif" font-size="10.00">CurrentLevel</text>
</a>
</g>
</g>
<!-- Node14&#45;&gt;Node17 -->
<g id="edge16" class="edge"><title>Node14&#45;&gt;Node17</title>
<path fill="none" stroke="midnightblue" d="M1262.39,-350.301C1271.41,-349.26 1280.46,-348.217 1289.26,-347.201"/>
<polygon fill="midnightblue" stroke="midnightblue" points="1261.76,-346.85 1252.23,-351.473 1262.57,-353.804 1261.76,-346.85"/>
</g>
<!-- Node16 -->
<g id="node16" class="node"><title>Node16</title>
<g id="a_node16"><a xlink:href="../../df/d67/classengine_1_1level_1_1_level_manager.html#a587b50d02654d70122a28bcda169bb8d" target="_top" xlink:title="engine.level.LevelManager.\lLevelManager">
<polygon fill="white" stroke="black" points="1506,-372 1506,-402 1652,-402 1652,-372 1506,-372"/>
<text text-anchor="start" x="1514" y="-390" font-family="Helvetica,sans-Serif" font-size="10.00">engine.level.LevelManager.</text>
<text text-anchor="middle" x="1579" y="-379" font-family="Helvetica,sans-Serif" font-size="10.00">LevelManager</text>
</a>
</g>
</g>
<!-- Node15&#45;&gt;Node16 -->
<g id="edge15" class="edge"><title>Node15&#45;&gt;Node16</title>
<path fill="none" stroke="midnightblue" d="M1461.74,-387C1476.44,-387 1491.5,-387 1505.69,-387"/>
<polygon fill="midnightblue" stroke="midnightblue" points="1461.62,-383.5 1451.62,-387 1461.62,-390.5 1461.62,-383.5"/>
</g>
<!-- Node18 -->
<g id="node18" class="node"><title>Node18</title>
<g id="a_node18"><a xlink:href="../../df/d67/classengine_1_1level_1_1_level_manager.html#ad3c392cf6260c53428255fb596442692" target="_top" xlink:title="engine.level.LevelManager.change\lToLevel">
<polygon fill="white" stroke="black" points="1488.5,-323 1488.5,-353 1669.5,-353 1669.5,-323 1488.5,-323"/>
<text text-anchor="start" x="1496.5" y="-341" font-family="Helvetica,sans-Serif" font-size="10.00">engine.level.LevelManager.change</text>
<text text-anchor="middle" x="1579" y="-330" font-family="Helvetica,sans-Serif" font-size="10.00">ToLevel</text>
</a>
</g>
</g>
<!-- Node17&#45;&gt;Node18 -->
<g id="edge17" class="edge"><title>Node17&#45;&gt;Node18</title>
<path fill="none" stroke="midnightblue" d="M1460.92,-338C1470,-338 1479.23,-338 1488.31,-338"/>
<polygon fill="midnightblue" stroke="midnightblue" points="1460.74,-334.5 1450.74,-338 1460.74,-341.5 1460.74,-334.5"/>
</g>
<!-- Node19 -->
<g id="node19" class="node"><title>Node19</title>
<g id="a_node19"><a xlink:href="../../d1/d73/classengine_1_1actions_1_1_change_level_action.html#a8190adf308768b0d12f6432d0cf0fbc4" target="_top" xlink:title="engine.actions.ChangeLevel\lAction.execute">
<polygon fill="white" stroke="black" points="1706.5,-323 1706.5,-353 1857.5,-353 1857.5,-323 1706.5,-323"/>
<text text-anchor="start" x="1714.5" y="-341" font-family="Helvetica,sans-Serif" font-size="10.00">engine.actions.ChangeLevel</text>
<text text-anchor="middle" x="1782" y="-330" font-family="Helvetica,sans-Serif" font-size="10.00">Action.execute</text>
</a>
</g>
</g>
<!-- Node18&#45;&gt;Node19 -->
<g id="edge18" class="edge"><title>Node18&#45;&gt;Node19</title>
<path fill="none" stroke="midnightblue" d="M1679.71,-338C1688.65,-338 1697.61,-338 1706.29,-338"/>
<polygon fill="midnightblue" stroke="midnightblue" points="1679.62,-334.5 1669.62,-338 1679.62,-341.5 1679.62,-334.5"/>
</g>
<!-- Node21 -->
<g id="node21" class="node"><title>Node21</title>
<g id="a_node21"><a xlink:href="../../db/dbb/classengine_1_1actions_1_1_fixed_collision_type_action.html#a4335f03e3a33ba714562e4e187cf0ae2" target="_top" xlink:title="engine.actions.FixedCollision\lTypeAction.applyPhysics">
<polygon fill="white" stroke="black" points="451,-469 451,-499 603,-499 603,-469 451,-469"/>
<text text-anchor="start" x="459" y="-487" font-family="Helvetica,sans-Serif" font-size="10.00">engine.actions.FixedCollision</text>
<text text-anchor="middle" x="527" y="-476" font-family="Helvetica,sans-Serif" font-size="10.00">TypeAction.applyPhysics</text>
</a>
</g>
</g>
<!-- Node20&#45;&gt;Node21 -->
<g id="edge20" class="edge"><title>Node20&#45;&gt;Node21</title>
<path fill="none" stroke="midnightblue" d="M329.893,-313.534C348.741,-334.388 376.693,-366.66 398,-397 416.313,-423.076 408.731,-439.589 434,-459 439.119,-462.932 444.814,-466.247 450.789,-469.04"/>
<polygon fill="midnightblue" stroke="midnightblue" points="332.469,-311.164 323.148,-306.128 327.294,-315.878 332.469,-311.164"/>
</g>
<!-- Node22 -->
<g id="node22" class="node"><title>Node22</title>
<g id="a_node22"><a xlink:href="../../d7/de2/classengine_1_1actions_1_1_fixed_collision_action.html#a9d8b1ea6e0e71b027fcaa18f52ba3908" target="_top" xlink:title="engine.actions.FixedCollision\lAction.applyPhysics">
<polygon fill="white" stroke="black" points="451,-420 451,-450 603,-450 603,-420 451,-420"/>
<text text-anchor="start" x="459" y="-438" font-family="Helvetica,sans-Serif" font-size="10.00">engine.actions.FixedCollision</text>
<text text-anchor="middle" x="527" y="-427" font-family="Helvetica,sans-Serif" font-size="10.00">Action.applyPhysics</text>
</a>
</g>
</g>
<!-- Node20&#45;&gt;Node22 -->
<g id="edge21" class="edge"><title>Node20&#45;&gt;Node22</title>
<path fill="none" stroke="midnightblue" d="M327.027,-314.054C349.315,-341.001 389.76,-385.075 434,-410 440.778,-413.818 448.167,-417.077 455.716,-419.854"/>
<polygon fill="midnightblue" stroke="midnightblue" points="329.732,-311.833 320.708,-306.281 324.3,-316.248 329.732,-311.833"/>
</g>
<!-- Node23 -->
<g id="node23" class="node"><title>Node23</title>
<g id="a_node23"><a xlink:href="../../d4/daa/classengine_1_1collision_1_1objects_1_1_fixed_object_collision_object.html#a21a31d8fafaaa37c7ca7d92ed0b015f1" target="_top" xlink:title="engine.collision.objects.\lFixedObjectCollisionObject.handle\lEnemyCollisionObject">
<polygon fill="white" stroke="black" points="439,-360.5 439,-401.5 615,-401.5 615,-360.5 439,-360.5"/>
<text text-anchor="start" x="447" y="-389.5" font-family="Helvetica,sans-Serif" font-size="10.00">engine.collision.objects.</text>
<text text-anchor="start" x="447" y="-378.5" font-family="Helvetica,sans-Serif" font-size="10.00">FixedObjectCollisionObject.handle</text>
<text text-anchor="middle" x="527" y="-367.5" font-family="Helvetica,sans-Serif" font-size="10.00">EnemyCollisionObject</text>
</a>
</g>
</g>
<!-- Node20&#45;&gt;Node23 -->
<g id="edge22" class="edge"><title>Node20&#45;&gt;Node23</title>
<path fill="none" stroke="midnightblue" d="M347.333,-310.51C371.81,-322.612 404.394,-338.072 434,-350 442.911,-353.59 452.415,-357.119 461.806,-360.435"/>
<polygon fill="midnightblue" stroke="midnightblue" points="348.885,-307.373 338.373,-306.051 345.766,-313.639 348.885,-307.373"/>
</g>
<!-- Node24 -->
<g id="node24" class="node"><title>Node24</title>
<g id="a_node24"><a xlink:href="../../d4/daa/classengine_1_1collision_1_1objects_1_1_fixed_object_collision_object.html#a2e8390b2a80569d4462e04c5706831cb" target="_top" xlink:title="engine.collision.objects.\lFixedObjectCollisionObject.handle\lFixedObjectCollisionObject">
<polygon fill="white" stroke="black" points="439,-300.5 439,-341.5 615,-341.5 615,-300.5 439,-300.5"/>
<text text-anchor="start" x="447" y="-329.5" font-family="Helvetica,sans-Serif" font-size="10.00">engine.collision.objects.</text>
<text text-anchor="start" x="447" y="-318.5" font-family="Helvetica,sans-Serif" font-size="10.00">FixedObjectCollisionObject.handle</text>
<text text-anchor="middle" x="527" y="-307.5" font-family="Helvetica,sans-Serif" font-size="10.00">FixedObjectCollisionObject</text>
</a>
</g>
</g>
<!-- Node20&#45;&gt;Node24 -->
<g id="edge23" class="edge"><title>Node20&#45;&gt;Node24</title>
<path fill="none" stroke="midnightblue" d="M408.347,-304.735C418.542,-306.144 428.846,-307.569 438.895,-308.958"/>
<polygon fill="midnightblue" stroke="midnightblue" points="408.587,-301.235 398.202,-303.332 407.628,-308.169 408.587,-301.235"/>
</g>
<!-- Node25 -->
<g id="node25" class="node"><title>Node25</title>
<g id="a_node25"><a xlink:href="../../dc/d87/classengine_1_1collision_1_1objects_1_1_hero_collision_object.html#a3dc5a68b37238352c99bca91dfc8f9a1" target="_top" xlink:title="engine.collision.objects.\lHeroCollisionObject.handleFixed\lObjectCollisionObject">
<polygon fill="white" stroke="black" points="442.5,-240.5 442.5,-281.5 611.5,-281.5 611.5,-240.5 442.5,-240.5"/>
<text text-anchor="start" x="450.5" y="-269.5" font-family="Helvetica,sans-Serif" font-size="10.00">engine.collision.objects.</text>
<text text-anchor="start" x="450.5" y="-258.5" font-family="Helvetica,sans-Serif" font-size="10.00">HeroCollisionObject.handleFixed</text>
<text text-anchor="middle" x="527" y="-247.5" font-family="Helvetica,sans-Serif" font-size="10.00">ObjectCollisionObject</text>
</a>
</g>
</g>
<!-- Node20&#45;&gt;Node25 -->
<g id="edge24" class="edge"><title>Node20&#45;&gt;Node25</title>
<path fill="none" stroke="midnightblue" d="M408.195,-277.286C419.622,-275.707 431.187,-274.108 442.379,-272.56"/>
<polygon fill="midnightblue" stroke="midnightblue" points="407.628,-273.831 398.202,-278.668 408.587,-280.765 407.628,-273.831"/>
</g>
<!-- Node26 -->
<g id="node26" class="node"><title>Node26</title>
<g id="a_node26"><a xlink:href="../../d6/db8/classengine_1_1collision_1_1objects_1_1_powerup_collision_object.html#a4e09b2b8b7cfbcdd6def8332de2025b7" target="_top" xlink:title="engine.collision.objects.\lPowerupCollisionObject.handleFixed\lObjectCollisionObject">
<polygon fill="white" stroke="black" points="434,-180.5 434,-221.5 620,-221.5 620,-180.5 434,-180.5"/>
<text text-anchor="start" x="442" y="-209.5" font-family="Helvetica,sans-Serif" font-size="10.00">engine.collision.objects.</text>
<text text-anchor="start" x="442" y="-198.5" font-family="Helvetica,sans-Serif" font-size="10.00">PowerupCollisionObject.handleFixed</text>
<text text-anchor="middle" x="527" y="-187.5" font-family="Helvetica,sans-Serif" font-size="10.00">ObjectCollisionObject</text>
</a>
</g>
</g>
<!-- Node20&#45;&gt;Node26 -->
<g id="edge25" class="edge"><title>Node20&#45;&gt;Node26</title>
<path fill="none" stroke="midnightblue" d="M385.886,-272.119C390.072,-270.258 394.141,-268.223 398,-266 417.337,-254.862 414.897,-242.536 434,-231 439.752,-227.526 445.953,-224.406 452.322,-221.613"/>
<polygon fill="midnightblue" stroke="midnightblue" points="384.502,-268.903 376.566,-275.922 387.147,-275.384 384.502,-268.903"/>
</g>
<!-- Node27 -->
<g id="node27" class="node"><title>Node27</title>
<g id="a_node27"><a xlink:href="../../db/d3a/classengine_1_1collision_1_1objects_1_1_enemy_collision_object.html#a8cf5b65593cec2850e2f94a8d6deb670" target="_top" xlink:title="engine.collision.objects.\lEnemyCollisionObject.handleFixed\lObjectCollisionObject">
<polygon fill="white" stroke="black" points="437.5,-120.5 437.5,-161.5 616.5,-161.5 616.5,-120.5 437.5,-120.5"/>
<text text-anchor="start" x="445.5" y="-149.5" font-family="Helvetica,sans-Serif" font-size="10.00">engine.collision.objects.</text>
<text text-anchor="start" x="445.5" y="-138.5" font-family="Helvetica,sans-Serif" font-size="10.00">EnemyCollisionObject.handleFixed</text>
<text text-anchor="middle" x="527" y="-127.5" font-family="Helvetica,sans-Serif" font-size="10.00">ObjectCollisionObject</text>
</a>
</g>
</g>
<!-- Node20&#45;&gt;Node27 -->
<g id="edge26" class="edge"><title>Node20&#45;&gt;Node27</title>
<path fill="none" stroke="midnightblue" d="M392.544,-270.462C394.444,-269.07 396.269,-267.585 398,-266 431.307,-235.514 401.331,-202.168 434,-171 437.647,-167.521 441.702,-164.445 446.02,-161.726"/>
<polygon fill="midnightblue" stroke="midnightblue" points="390.368,-267.696 383.772,-275.987 394.099,-273.619 390.368,-267.696"/>
</g>
<!-- Node28 -->
<g id="node28" class="node"><title>Node28</title>
<g id="a_node28"><a xlink:href="../../d4/daa/classengine_1_1collision_1_1objects_1_1_fixed_object_collision_object.html#af3d610bd55f501a9d616abaf648dd870" target="_top" xlink:title="engine.collision.objects.\lFixedObjectCollisionObject.handle\lHeroCollisionObject">
<polygon fill="white" stroke="black" points="439,-60.5 439,-101.5 615,-101.5 615,-60.5 439,-60.5"/>
<text text-anchor="start" x="447" y="-89.5" font-family="Helvetica,sans-Serif" font-size="10.00">engine.collision.objects.</text>
<text text-anchor="start" x="447" y="-78.5" font-family="Helvetica,sans-Serif" font-size="10.00">FixedObjectCollisionObject.handle</text>
<text text-anchor="middle" x="527" y="-67.5" font-family="Helvetica,sans-Serif" font-size="10.00">HeroCollisionObject</text>
</a>
</g>
</g>
<!-- Node20&#45;&gt;Node28 -->
<g id="edge27" class="edge"><title>Node20&#45;&gt;Node28</title>
<path fill="none" stroke="midnightblue" d="M394.045,-269.75C395.421,-268.565 396.742,-267.316 398,-266 446.855,-214.864 386.214,-163.136 434,-111 437.178,-107.532 440.762,-104.464 444.625,-101.75"/>
<polygon fill="midnightblue" stroke="midnightblue" points="391.661,-267.155 385.616,-275.857 395.768,-272.824 391.661,-267.155"/>
</g>
<!-- Node29 -->
<g id="node29" class="node"><title>Node29</title>
<g id="a_node29"><a xlink:href="../../d4/daa/classengine_1_1collision_1_1objects_1_1_fixed_object_collision_object.html#aabbf81a8ea0fca531c76cb6355553303" target="_top" xlink:title="engine.collision.objects.\lFixedObjectCollisionObject.handle\lPowerupCollisionObject">
<polygon fill="white" stroke="black" points="439,-0.5 439,-41.5 615,-41.5 615,-0.5 439,-0.5"/>
<text text-anchor="start" x="447" y="-29.5" font-family="Helvetica,sans-Serif" font-size="10.00">engine.collision.objects.</text>
<text text-anchor="start" x="447" y="-18.5" font-family="Helvetica,sans-Serif" font-size="10.00">FixedObjectCollisionObject.handle</text>
<text text-anchor="middle" x="527" y="-7.5" font-family="Helvetica,sans-Serif" font-size="10.00">PowerupCollisionObject</text>
</a>
</g>
</g>
<!-- Node20&#45;&gt;Node29 -->
<g id="edge28" class="edge"><title>Node20&#45;&gt;Node29</title>
<path fill="none" stroke="midnightblue" d="M394.281,-269.745C395.579,-268.561 396.821,-267.314 398,-266 462.713,-193.896 370.792,-124.428 434,-51 437.069,-47.435 440.567,-44.2909 444.364,-41.5183"/>
<polygon fill="midnightblue" stroke="midnightblue" points="392.112,-266.997 386.297,-275.853 396.366,-272.557 392.112,-266.997"/>
</g>
</g>
</svg>
