<?xml version="1.0" encoding="UTF-8" standalone="no"?>
<!DOCTYPE svg PUBLIC "-//W3C//DTD SVG 1.1//EN"
 "http://www.w3.org/Graphics/SVG/1.1/DTD/svg11.dtd">
<!-- Generated by graphviz version 2.36.0 (20140111.2315)
 -->
<!-- Title: engine.gameObject.components.PhysicsBody.getCollisionBodyHeight Pages: 1 -->
<svg width="1872pt" height="728pt"
 viewBox="0.00 0.00 1872.00 728.00" xmlns="http://www.w3.org/2000/svg" xmlns:xlink="http://www.w3.org/1999/xlink">
<g id="graph0" class="graph" transform="scale(1 1) rotate(0) translate(4 724)">
<title>engine.gameObject.components.PhysicsBody.getCollisionBodyHeight</title>
<polygon fill="white" stroke="none" points="-4,4 -4,-724 1868,-724 1868,4 -4,4"/>
<!-- Node1 -->
<g id="node1" class="node"><title>Node1</title>
<polygon fill="#bfbfbf" stroke="black" points="0,-251 0,-281 188,-281 188,-251 0,-251"/>
<text text-anchor="start" x="8" y="-269" font-family="Helvetica,sans-Serif" font-size="10.00">engine.gameObject.components.</text>
<text text-anchor="middle" x="94" y="-258" font-family="Helvetica,sans-Serif" font-size="10.00">PhysicsBody.getCollisionBodyHeight</text>
</g>
<!-- Node2 -->
<g id="node2" class="node"><title>Node2</title>
<g id="a_node2"><a xlink:href="../../d5/d30/classengine_1_1render_1_1_rendered_node_factory.html#ac14d2f5a3da79d92c967fe22bc82c1ed" target="_top" xlink:title="engine.render.RenderedNode\lFactory.createCollisionBody">
<polygon fill="white" stroke="black" points="236,-406 236,-436 392,-436 392,-406 236,-406"/>
<text text-anchor="start" x="244" y="-424" font-family="Helvetica,sans-Serif" font-size="10.00">engine.render.RenderedNode</text>
<text text-anchor="middle" x="314" y="-413" font-family="Helvetica,sans-Serif" font-size="10.00">Factory.createCollisionBody</text>
</a>
</g>
</g>
<!-- Node1&#45;&gt;Node2 -->
<g id="edge1" class="edge"><title>Node1&#45;&gt;Node2</title>
<path fill="none" stroke="midnightblue" d="M124.678,-287.101C169.267,-318.804 252.477,-377.968 291.614,-405.794"/>
<polygon fill="midnightblue" stroke="midnightblue" points="126.478,-284.087 116.3,-281.144 122.421,-289.791 126.478,-284.087"/>
</g>
<!-- Node20 -->
<g id="node20" class="node"><title>Node20</title>
<g id="a_node20"><a xlink:href="../../da/d1b/classengine_1_1collision_1_1objects_1_1_collision_composition.html#a7ec4687ad9367279088b965c0e009cd0" target="_top" xlink:title="engine.collision.objects.\lCollisionComposition.fixedCollision">
<polygon fill="white" stroke="black" points="224,-276 224,-306 404,-306 404,-276 224,-276"/>
<text text-anchor="start" x="232" y="-294" font-family="Helvetica,sans-Serif" font-size="10.00">engine.collision.objects.</text>
<text text-anchor="middle" x="314" y="-283" font-family="Helvetica,sans-Serif" font-size="10.00">CollisionComposition.fixedCollision</text>
</a>
</g>
</g>
<!-- Node1&#45;&gt;Node20 -->
<g id="edge19" class="edge"><title>Node1&#45;&gt;Node20</title>
<path fill="none" stroke="midnightblue" d="M198.091,-277.822C206.646,-278.803 215.249,-279.79 223.69,-280.758"/>
<polygon fill="midnightblue" stroke="midnightblue" points="198.418,-274.337 188.084,-276.675 197.62,-281.291 198.418,-274.337"/>
</g>
<!-- Node30 -->
<g id="node30" class="node"><title>Node30</title>
<g id="a_node30"><a xlink:href="../../d9/d9d/classengine_1_1game_object_1_1components_1_1_physics_body.html#a6df6a3a8e4dde3aea1de4127f93935aa" target="_top" xlink:title="engine.gameObject.components.\lPhysicsBody.handleCollision">
<polygon fill="white" stroke="black" points="226,-227 226,-257 402,-257 402,-227 226,-227"/>
<text text-anchor="start" x="234" y="-245" font-family="Helvetica,sans-Serif" font-size="10.00">engine.gameObject.components.</text>
<text text-anchor="middle" x="314" y="-234" font-family="Helvetica,sans-Serif" font-size="10.00">PhysicsBody.handleCollision</text>
</a>
</g>
</g>
<!-- Node1&#45;&gt;Node30 -->
<g id="edge29" class="edge"><title>Node1&#45;&gt;Node30</title>
<path fill="none" stroke="midnightblue" d="M198.091,-254.65C207.346,-253.632 216.658,-252.606 225.759,-251.605"/>
<polygon fill="midnightblue" stroke="midnightblue" points="197.641,-251.179 188.084,-255.752 198.407,-258.137 197.641,-251.179"/>
</g>
<!-- Node31 -->
<g id="node31" class="node"><title>Node31</title>
<g id="a_node31"><a xlink:href="../../d9/d9d/classengine_1_1game_object_1_1components_1_1_physics_body.html#a3166b39b1bdc33bdc3063031d68b58f3" target="_top" xlink:title="engine.gameObject.components.\lPhysicsBody.PhysicsBody">
<polygon fill="white" stroke="black" points="226,-178 226,-208 402,-208 402,-178 226,-178"/>
<text text-anchor="start" x="234" y="-196" font-family="Helvetica,sans-Serif" font-size="10.00">engine.gameObject.components.</text>
<text text-anchor="middle" x="314" y="-185" font-family="Helvetica,sans-Serif" font-size="10.00">PhysicsBody.PhysicsBody</text>
</a>
</g>
</g>
<!-- Node1&#45;&gt;Node31 -->
<g id="edge30" class="edge"><title>Node1&#45;&gt;Node31</title>
<path fill="none" stroke="midnightblue" d="M141.015,-247.244C165.458,-237.607 196.133,-226.025 224,-217 233.592,-213.894 243.852,-210.863 253.872,-208.058"/>
<polygon fill="midnightblue" stroke="midnightblue" points="139.635,-244.027 131.631,-250.969 142.217,-250.533 139.635,-244.027"/>
</g>
<!-- Node3 -->
<g id="node3" class="node"><title>Node3</title>
<g id="a_node3"><a xlink:href="../../d5/d30/classengine_1_1render_1_1_rendered_node_factory.html#a359dcce722371dfb49b79528930c1b05" target="_top" xlink:title="engine.render.RenderedNode\lFactory.createRenderedNode">
<polygon fill="white" stroke="black" points="455,-518 455,-548 611,-548 611,-518 455,-518"/>
<text text-anchor="start" x="463" y="-536" font-family="Helvetica,sans-Serif" font-size="10.00">engine.render.RenderedNode</text>
<text text-anchor="middle" x="533" y="-525" font-family="Helvetica,sans-Serif" font-size="10.00">Factory.createRenderedNode</text>
</a>
</g>
</g>
<!-- Node2&#45;&gt;Node3 -->
<g id="edge2" class="edge"><title>Node2&#45;&gt;Node3</title>
<path fill="none" stroke="midnightblue" d="M340.374,-442.601C364.555,-462.193 402.708,-490.595 440,-508 448.099,-511.78 456.875,-515.078 465.681,-517.929"/>
<polygon fill="midnightblue" stroke="midnightblue" points="342.375,-439.716 332.427,-436.071 337.931,-445.124 342.375,-439.716"/>
</g>
<!-- Node4 -->
<g id="node4" class="node"><title>Node4</title>
<g id="a_node4"><a xlink:href="../../dd/d8d/classengine_1_1render_1_1_renderer.html#a569f6bb2f9c218ed015949dff459b1ee" target="_top" xlink:title="engine.render.Renderer.create\lAndAssignRenderedNode">
<polygon fill="white" stroke="black" points="662.5,-518 662.5,-548 823.5,-548 823.5,-518 662.5,-518"/>
<text text-anchor="start" x="670.5" y="-536" font-family="Helvetica,sans-Serif" font-size="10.00">engine.render.Renderer.create</text>
<text text-anchor="middle" x="743" y="-525" font-family="Helvetica,sans-Serif" font-size="10.00">AndAssignRenderedNode</text>
</a>
</g>
</g>
<!-- Node3&#45;&gt;Node4 -->
<g id="edge3" class="edge"><title>Node3&#45;&gt;Node4</title>
<path fill="none" stroke="midnightblue" d="M621.407,-533C634.932,-533 648.84,-533 662.186,-533"/>
<polygon fill="midnightblue" stroke="midnightblue" points="621.156,-529.5 611.156,-533 621.156,-536.5 621.156,-529.5"/>
</g>
<!-- Node5 -->
<g id="node5" class="node"><title>Node5</title>
<g id="a_node5"><a xlink:href="../../d8/dfe/classengine_1_1actions_1_1_change_image_i_d_action.html#a5517685ef0d4cc94928f226255299f78" target="_top" xlink:title="engine.actions.ChangeImage\lIDAction.execute">
<polygon fill="white" stroke="black" points="871,-690 871,-720 1027,-720 1027,-690 871,-690"/>
<text text-anchor="start" x="879" y="-708" font-family="Helvetica,sans-Serif" font-size="10.00">engine.actions.ChangeImage</text>
<text text-anchor="middle" x="949" y="-697" font-family="Helvetica,sans-Serif" font-size="10.00">IDAction.execute</text>
</a>
</g>
</g>
<!-- Node4&#45;&gt;Node5 -->
<g id="edge4" class="edge"><title>Node4&#45;&gt;Node5</title>
<path fill="none" stroke="midnightblue" d="M756.511,-556.947C774.83,-589.661 812.048,-647.91 860,-680 865.808,-683.887 872.219,-687.176 878.854,-689.958"/>
<polygon fill="midnightblue" stroke="midnightblue" points="759.516,-555.149 751.646,-548.056 753.375,-558.509 759.516,-555.149"/>
</g>
<!-- Node6 -->
<g id="node6" class="node"><title>Node6</title>
<g id="a_node6"><a xlink:href="../../d4/d9f/classengine_1_1actions_1_1_label_int_increment_action.html#ac110c3332e6d26e169e7e45d537a8d3f" target="_top" xlink:title="engine.actions.LabelIntIncrement\lAction.execute">
<polygon fill="white" stroke="black" points="861,-641 861,-671 1037,-671 1037,-641 861,-641"/>
<text text-anchor="start" x="869" y="-659" font-family="Helvetica,sans-Serif" font-size="10.00">engine.actions.LabelIntIncrement</text>
<text text-anchor="middle" x="949" y="-648" font-family="Helvetica,sans-Serif" font-size="10.00">Action.execute</text>
</a>
</g>
</g>
<!-- Node4&#45;&gt;Node6 -->
<g id="edge5" class="edge"><title>Node4&#45;&gt;Node6</title>
<path fill="none" stroke="midnightblue" d="M764.945,-555.596C786.706,-577.803 822.736,-611.165 860,-631 867.15,-634.806 874.944,-638.088 882.841,-640.903"/>
<polygon fill="midnightblue" stroke="midnightblue" points="767.323,-553.02 757.864,-548.246 762.282,-557.876 767.323,-553.02"/>
</g>
<!-- Node7 -->
<g id="node7" class="node"><title>Node7</title>
<g id="a_node7"><a xlink:href="../../dd/d57/classengine_1_1actions_1_1_make_new_object_from_location_action.html#a2ebd225d5e10817ac79f4044867afa98" target="_top" xlink:title="engine.actions.MakeNewObject\lFromLocationAction.execute">
<polygon fill="white" stroke="black" points="866,-592 866,-622 1032,-622 1032,-592 866,-592"/>
<text text-anchor="start" x="874" y="-610" font-family="Helvetica,sans-Serif" font-size="10.00">engine.actions.MakeNewObject</text>
<text text-anchor="middle" x="949" y="-599" font-family="Helvetica,sans-Serif" font-size="10.00">FromLocationAction.execute</text>
</a>
</g>
</g>
<!-- Node4&#45;&gt;Node7 -->
<g id="edge6" class="edge"><title>Node4&#45;&gt;Node7</title>
<path fill="none" stroke="midnightblue" d="M785.89,-552.165C807.729,-561.78 835.029,-573.216 860,-582 869.888,-585.478 880.527,-588.825 890.872,-591.876"/>
<polygon fill="midnightblue" stroke="midnightblue" points="787.139,-548.89 776.579,-548.031 784.298,-555.288 787.139,-548.89"/>
</g>
<!-- Node8 -->
<g id="node8" class="node"><title>Node8</title>
<g id="a_node8"><a xlink:href="../../db/d61/classengine_1_1actions_1_1_make_new_object_from_object_action.html#a01ffb165d6169f7b0a22733e2b6c61a9" target="_top" xlink:title="engine.actions.MakeNewObject\lFromObjectAction.execute">
<polygon fill="white" stroke="black" points="866,-543 866,-573 1032,-573 1032,-543 866,-543"/>
<text text-anchor="start" x="874" y="-561" font-family="Helvetica,sans-Serif" font-size="10.00">engine.actions.MakeNewObject</text>
<text text-anchor="middle" x="949" y="-550" font-family="Helvetica,sans-Serif" font-size="10.00">FromObjectAction.execute</text>
</a>
</g>
</g>
<!-- Node4&#45;&gt;Node8 -->
<g id="edge7" class="edge"><title>Node4&#45;&gt;Node8</title>
<path fill="none" stroke="midnightblue" d="M833.902,-544.017C844.566,-545.324 855.409,-546.653 865.955,-547.946"/>
<polygon fill="midnightblue" stroke="midnightblue" points="834.1,-540.516 823.748,-542.773 833.248,-547.464 834.1,-540.516"/>
</g>
<!-- Node9 -->
<g id="node9" class="node"><title>Node9</title>
<g id="a_node9"><a xlink:href="../../da/d16/classengine_1_1actions_1_1_make_new_random_object_action.html#a82ccd5604bd05170e416e41b32020f00" target="_top" xlink:title="engine.actions.MakeNewRandom\lObjectAction.makeRandomObject">
<polygon fill="white" stroke="black" points="860,-494 860,-524 1038,-524 1038,-494 860,-494"/>
<text text-anchor="start" x="868" y="-512" font-family="Helvetica,sans-Serif" font-size="10.00">engine.actions.MakeNewRandom</text>
<text text-anchor="middle" x="949" y="-501" font-family="Helvetica,sans-Serif" font-size="10.00">ObjectAction.makeRandomObject</text>
</a>
</g>
</g>
<!-- Node4&#45;&gt;Node9 -->
<g id="edge8" class="edge"><title>Node4&#45;&gt;Node9</title>
<path fill="none" stroke="midnightblue" d="M833.828,-522.432C842.473,-521.415 851.237,-520.384 859.865,-519.369"/>
<polygon fill="midnightblue" stroke="midnightblue" points="833.271,-518.973 823.748,-523.618 834.089,-525.925 833.271,-518.973"/>
</g>
<!-- Node11 -->
<g id="node11" class="node"><title>Node11</title>
<g id="a_node11"><a xlink:href="../../db/db5/classengine_1_1actions_1_1render_1_1_change_image_type_action.html#a09110a0a08bac229b9e2feddf1d3378c" target="_top" xlink:title="engine.actions.render.Change\lImageTypeAction.execute">
<polygon fill="white" stroke="black" points="869,-445 869,-475 1029,-475 1029,-445 869,-445"/>
<text text-anchor="start" x="877" y="-463" font-family="Helvetica,sans-Serif" font-size="10.00">engine.actions.render.Change</text>
<text text-anchor="middle" x="949" y="-452" font-family="Helvetica,sans-Serif" font-size="10.00">ImageTypeAction.execute</text>
</a>
</g>
</g>
<!-- Node4&#45;&gt;Node11 -->
<g id="edge10" class="edge"><title>Node4&#45;&gt;Node11</title>
<path fill="none" stroke="midnightblue" d="M786.636,-513.972C808.365,-504.63 835.343,-493.572 860,-485 870.051,-481.506 880.869,-478.128 891.363,-475.046"/>
<polygon fill="midnightblue" stroke="midnightblue" points="785.143,-510.804 777.359,-517.992 787.927,-517.227 785.143,-510.804"/>
</g>
<!-- Node12 -->
<g id="node12" class="node"><title>Node12</title>
<g id="a_node12"><a xlink:href="../../d3/dbb/classengine_1_1actions_1_1render_1_1_paint_canvas.html#a3f4cb25dfb09aa686debf838e806b010" target="_top" xlink:title="engine.actions.render.Paint\lCanvas.applyRender">
<polygon fill="white" stroke="black" points="876,-396 876,-426 1022,-426 1022,-396 876,-396"/>
<text text-anchor="start" x="884" y="-414" font-family="Helvetica,sans-Serif" font-size="10.00">engine.actions.render.Paint</text>
<text text-anchor="middle" x="949" y="-403" font-family="Helvetica,sans-Serif" font-size="10.00">Canvas.applyRender</text>
</a>
</g>
</g>
<!-- Node4&#45;&gt;Node12 -->
<g id="edge11" class="edge"><title>Node4&#45;&gt;Node12</title>
<path fill="none" stroke="midnightblue" d="M764.99,-510.645C786.787,-488.672 822.844,-455.657 860,-436 867.16,-432.212 874.959,-428.941 882.86,-426.132"/>
<polygon fill="midnightblue" stroke="midnightblue" points="762.375,-508.314 757.897,-517.917 767.385,-513.202 762.375,-508.314"/>
</g>
<!-- Node13 -->
<g id="node13" class="node"><title>Node13</title>
<g id="a_node13"><a xlink:href="../../dd/d8d/classengine_1_1render_1_1_renderer.html#a189dda9a8463274afe267959860f0dee" target="_top" xlink:title="engine.render.Renderer.render\lGameObjects">
<polygon fill="white" stroke="black" points="868,-347 868,-377 1030,-377 1030,-347 868,-347"/>
<text text-anchor="start" x="876" y="-365" font-family="Helvetica,sans-Serif" font-size="10.00">engine.render.Renderer.render</text>
<text text-anchor="middle" x="949" y="-354" font-family="Helvetica,sans-Serif" font-size="10.00">GameObjects</text>
</a>
</g>
</g>
<!-- Node4&#45;&gt;Node13 -->
<g id="edge12" class="edge"><title>Node4&#45;&gt;Node13</title>
<path fill="none" stroke="midnightblue" d="M756.837,-508.715C775.304,-476.135 812.441,-418.713 860,-387 865.814,-383.123 872.229,-379.84 878.867,-377.062"/>
<polygon fill="midnightblue" stroke="midnightblue" points="753.705,-507.145 751.921,-517.588 759.829,-510.537 753.705,-507.145"/>
</g>
<!-- Node10 -->
<g id="node10" class="node"><title>Node10</title>
<g id="a_node10"><a xlink:href="../../da/d16/classengine_1_1actions_1_1_make_new_random_object_action.html#aa831c4b818ed75f812bf8ba0d453c942" target="_top" xlink:title="engine.actions.MakeNewRandom\lObjectAction.execute">
<polygon fill="white" stroke="black" points="1078.5,-494 1078.5,-524 1253.5,-524 1253.5,-494 1078.5,-494"/>
<text text-anchor="start" x="1086.5" y="-512" font-family="Helvetica,sans-Serif" font-size="10.00">engine.actions.MakeNewRandom</text>
<text text-anchor="middle" x="1166" y="-501" font-family="Helvetica,sans-Serif" font-size="10.00">ObjectAction.execute</text>
</a>
</g>
</g>
<!-- Node9&#45;&gt;Node10 -->
<g id="edge9" class="edge"><title>Node9&#45;&gt;Node10</title>
<path fill="none" stroke="midnightblue" d="M1048.14,-509C1058.25,-509 1068.48,-509 1078.46,-509"/>
<polygon fill="midnightblue" stroke="midnightblue" points="1048.07,-505.5 1038.07,-509 1048.07,-512.5 1048.07,-505.5"/>
</g>
<!-- Node14 -->
<g id="node14" class="node"><title>Node14</title>
<g id="a_node14"><a xlink:href="../../df/d67/classengine_1_1level_1_1_level_manager.html#a523599892453015eed0f1b506979af8a" target="_top" xlink:title="engine.level.LevelManager.initialize\lCurrentLevel">
<polygon fill="white" stroke="black" points="1074,-347 1074,-377 1258,-377 1258,-347 1074,-347"/>
<text text-anchor="start" x="1082" y="-365" font-family="Helvetica,sans-Serif" font-size="10.00">engine.level.LevelManager.initialize</text>
<text text-anchor="middle" x="1166" y="-354" font-family="Helvetica,sans-Serif" font-size="10.00">CurrentLevel</text>
</a>
</g>
</g>
<!-- Node13&#45;&gt;Node14 -->
<g id="edge13" class="edge"><title>Node13&#45;&gt;Node14</title>
<path fill="none" stroke="midnightblue" d="M1040.15,-362C1051.22,-362 1062.55,-362 1073.65,-362"/>
<polygon fill="midnightblue" stroke="midnightblue" points="1040.06,-358.5 1030.06,-362 1040.06,-365.5 1040.06,-358.5"/>
</g>
<!-- Node15 -->
<g id="node15" class="node"><title>Node15</title>
<g id="a_node15"><a xlink:href="../../df/d67/classengine_1_1level_1_1_level_manager.html#a1d0f314bbf304bf86067ab87b832d2e0" target="_top" xlink:title="engine.level.LevelManager.find\lAndSetStartLevel">
<polygon fill="white" stroke="black" points="1294.5,-372 1294.5,-402 1457.5,-402 1457.5,-372 1294.5,-372"/>
<text text-anchor="start" x="1302.5" y="-390" font-family="Helvetica,sans-Serif" font-size="10.00">engine.level.LevelManager.find</text>
<text text-anchor="middle" x="1376" y="-379" font-family="Helvetica,sans-Serif" font-size="10.00">AndSetStartLevel</text>
</a>
</g>
</g>
<!-- Node14&#45;&gt;Node15 -->
<g id="edge14" class="edge"><title>Node14&#45;&gt;Node15</title>
<path fill="none" stroke="midnightblue" d="M1268.4,-374.188C1277.09,-375.232 1285.8,-376.279 1294.29,-377.299"/>
<polygon fill="midnightblue" stroke="midnightblue" points="1268.58,-370.684 1258.23,-372.965 1267.74,-377.634 1268.58,-370.684"/>
</g>
<!-- Node17 -->
<g id="node17" class="node"><title>Node17</title>
<g id="a_node17"><a xlink:href="../../df/d67/classengine_1_1level_1_1_level_manager.html#ad89101547413fe335873b050fd091c79" target="_top" xlink:title="engine.level.LevelManager.set\lCurrentLevel">
<polygon fill="white" stroke="black" points="1295.5,-323 1295.5,-353 1456.5,-353 1456.5,-323 1295.5,-323"/>
<text text-anchor="start" x="1303.5" y="-341" font-family="Helvetica,sans-Serif" font-size="10.00">engine.level.LevelManager.set</text>
<text text-anchor="middle" x="1376" y="-330" font-family="Helvetica,sans-Serif" font-size="10.00">CurrentLevel</text>
</a>
</g>
</g>
<!-- Node14&#45;&gt;Node17 -->
<g id="edge16" class="edge"><title>Node14&#45;&gt;Node17</title>
<path fill="none" stroke="midnightblue" d="M1268.39,-350.301C1277.41,-349.26 1286.46,-348.217 1295.26,-347.201"/>
<polygon fill="midnightblue" stroke="midnightblue" points="1267.76,-346.85 1258.23,-351.473 1268.57,-353.804 1267.76,-346.85"/>
</g>
<!-- Node16 -->
<g id="node16" class="node"><title>Node16</title>
<g id="a_node16"><a xlink:href="../../df/d67/classengine_1_1level_1_1_level_manager.html#a587b50d02654d70122a28bcda169bb8d" target="_top" xlink:title="engine.level.LevelManager.\lLevelManager">
<polygon fill="white" stroke="black" points="1512,-372 1512,-402 1658,-402 1658,-372 1512,-372"/>
<text text-anchor="start" x="1520" y="-390" font-family="Helvetica,sans-Serif" font-size="10.00">engine.level.LevelManager.</text>
<text text-anchor="middle" x="1585" y="-379" font-family="Helvetica,sans-Serif" font-size="10.00">LevelManager</text>
</a>
</g>
</g>
<!-- Node15&#45;&gt;Node16 -->
<g id="edge15" class="edge"><title>Node15&#45;&gt;Node16</title>
<path fill="none" stroke="midnightblue" d="M1467.74,-387C1482.44,-387 1497.5,-387 1511.69,-387"/>
<polygon fill="midnightblue" stroke="midnightblue" points="1467.62,-383.5 1457.62,-387 1467.62,-390.5 1467.62,-383.5"/>
</g>
<!-- Node18 -->
<g id="node18" class="node"><title>Node18</title>
<g id="a_node18"><a xlink:href="../../df/d67/classengine_1_1level_1_1_level_manager.html#ad3c392cf6260c53428255fb596442692" target="_top" xlink:title="engine.level.LevelManager.change\lToLevel">
<polygon fill="white" stroke="black" points="1494.5,-323 1494.5,-353 1675.5,-353 1675.5,-323 1494.5,-323"/>
<text text-anchor="start" x="1502.5" y="-341" font-family="Helvetica,sans-Serif" font-size="10.00">engine.level.LevelManager.change</text>
<text text-anchor="middle" x="1585" y="-330" font-family="Helvetica,sans-Serif" font-size="10.00">ToLevel</text>
</a>
</g>
</g>
<!-- Node17&#45;&gt;Node18 -->
<g id="edge17" class="edge"><title>Node17&#45;&gt;Node18</title>
<path fill="none" stroke="midnightblue" d="M1466.92,-338C1476,-338 1485.23,-338 1494.31,-338"/>
<polygon fill="midnightblue" stroke="midnightblue" points="1466.74,-334.5 1456.74,-338 1466.74,-341.5 1466.74,-334.5"/>
</g>
<!-- Node19 -->
<g id="node19" class="node"><title>Node19</title>
<g id="a_node19"><a xlink:href="../../d1/d73/classengine_1_1actions_1_1_change_level_action.html#a8190adf308768b0d12f6432d0cf0fbc4" target="_top" xlink:title="engine.actions.ChangeLevel\lAction.execute">
<polygon fill="white" stroke="black" points="1712.5,-323 1712.5,-353 1863.5,-353 1863.5,-323 1712.5,-323"/>
<text text-anchor="start" x="1720.5" y="-341" font-family="Helvetica,sans-Serif" font-size="10.00">engine.actions.ChangeLevel</text>
<text text-anchor="middle" x="1788" y="-330" font-family="Helvetica,sans-Serif" font-size="10.00">Action.execute</text>
</a>
</g>
</g>
<!-- Node18&#45;&gt;Node19 -->
<g id="edge18" class="edge"><title>Node18&#45;&gt;Node19</title>
<path fill="none" stroke="midnightblue" d="M1685.71,-338C1694.65,-338 1703.61,-338 1712.29,-338"/>
<polygon fill="midnightblue" stroke="midnightblue" points="1685.62,-334.5 1675.62,-338 1685.62,-341.5 1685.62,-334.5"/>
</g>
<!-- Node21 -->
<g id="node21" class="node"><title>Node21</title>
<g id="a_node21"><a xlink:href="../../db/dbb/classengine_1_1actions_1_1_fixed_collision_type_action.html#a4335f03e3a33ba714562e4e187cf0ae2" target="_top" xlink:title="engine.actions.FixedCollision\lTypeAction.applyPhysics">
<polygon fill="white" stroke="black" points="457,-469 457,-499 609,-499 609,-469 457,-469"/>
<text text-anchor="start" x="465" y="-487" font-family="Helvetica,sans-Serif" font-size="10.00">engine.actions.FixedCollision</text>
<text text-anchor="middle" x="533" y="-476" font-family="Helvetica,sans-Serif" font-size="10.00">TypeAction.applyPhysics</text>
</a>
</g>
</g>
<!-- Node20&#45;&gt;Node21 -->
<g id="edge20" class="edge"><title>Node20&#45;&gt;Node21</title>
<path fill="none" stroke="midnightblue" d="M335.893,-313.534C354.741,-334.388 382.693,-366.66 404,-397 422.313,-423.076 414.731,-439.589 440,-459 445.119,-462.932 450.814,-466.247 456.789,-469.04"/>
<polygon fill="midnightblue" stroke="midnightblue" points="338.469,-311.164 329.148,-306.128 333.294,-315.878 338.469,-311.164"/>
</g>
<!-- Node22 -->
<g id="node22" class="node"><title>Node22</title>
<g id="a_node22"><a xlink:href="../../d7/de2/classengine_1_1actions_1_1_fixed_collision_action.html#a9d8b1ea6e0e71b027fcaa18f52ba3908" target="_top" xlink:title="engine.actions.FixedCollision\lAction.applyPhysics">
<polygon fill="white" stroke="black" points="457,-420 457,-450 609,-450 609,-420 457,-420"/>
<text text-anchor="start" x="465" y="-438" font-family="Helvetica,sans-Serif" font-size="10.00">engine.actions.FixedCollision</text>
<text text-anchor="middle" x="533" y="-427" font-family="Helvetica,sans-Serif" font-size="10.00">Action.applyPhysics</text>
</a>
</g>
</g>
<!-- Node20&#45;&gt;Node22 -->
<g id="edge21" class="edge"><title>Node20&#45;&gt;Node22</title>
<path fill="none" stroke="midnightblue" d="M333.027,-314.054C355.315,-341.001 395.76,-385.075 440,-410 446.778,-413.818 454.167,-417.077 461.716,-419.854"/>
<polygon fill="midnightblue" stroke="midnightblue" points="335.732,-311.833 326.708,-306.281 330.3,-316.248 335.732,-311.833"/>
</g>
<!-- Node23 -->
<g id="node23" class="node"><title>Node23</title>
<g id="a_node23"><a xlink:href="../../d4/daa/classengine_1_1collision_1_1objects_1_1_fixed_object_collision_object.html#a21a31d8fafaaa37c7ca7d92ed0b015f1" target="_top" xlink:title="engine.collision.objects.\lFixedObjectCollisionObject.handle\lEnemyCollisionObject">
<polygon fill="white" stroke="black" points="445,-360.5 445,-401.5 621,-401.5 621,-360.5 445,-360.5"/>
<text text-anchor="start" x="453" y="-389.5" font-family="Helvetica,sans-Serif" font-size="10.00">engine.collision.objects.</text>
<text text-anchor="start" x="453" y="-378.5" font-family="Helvetica,sans-Serif" font-size="10.00">FixedObjectCollisionObject.handle</text>
<text text-anchor="middle" x="533" y="-367.5" font-family="Helvetica,sans-Serif" font-size="10.00">EnemyCollisionObject</text>
</a>
</g>
</g>
<!-- Node20&#45;&gt;Node23 -->
<g id="edge22" class="edge"><title>Node20&#45;&gt;Node23</title>
<path fill="none" stroke="midnightblue" d="M353.333,-310.51C377.81,-322.612 410.394,-338.072 440,-350 448.911,-353.59 458.415,-357.119 467.806,-360.435"/>
<polygon fill="midnightblue" stroke="midnightblue" points="354.885,-307.373 344.373,-306.051 351.766,-313.639 354.885,-307.373"/>
</g>
<!-- Node24 -->
<g id="node24" class="node"><title>Node24</title>
<g id="a_node24"><a xlink:href="../../d4/daa/classengine_1_1collision_1_1objects_1_1_fixed_object_collision_object.html#a2e8390b2a80569d4462e04c5706831cb" target="_top" xlink:title="engine.collision.objects.\lFixedObjectCollisionObject.handle\lFixedObjectCollisionObject">
<polygon fill="white" stroke="black" points="445,-300.5 445,-341.5 621,-341.5 621,-300.5 445,-300.5"/>
<text text-anchor="start" x="453" y="-329.5" font-family="Helvetica,sans-Serif" font-size="10.00">engine.collision.objects.</text>
<text text-anchor="start" x="453" y="-318.5" font-family="Helvetica,sans-Serif" font-size="10.00">FixedObjectCollisionObject.handle</text>
<text text-anchor="middle" x="533" y="-307.5" font-family="Helvetica,sans-Serif" font-size="10.00">FixedObjectCollisionObject</text>
</a>
</g>
</g>
<!-- Node20&#45;&gt;Node24 -->
<g id="edge23" class="edge"><title>Node20&#45;&gt;Node24</title>
<path fill="none" stroke="midnightblue" d="M414.347,-304.735C424.542,-306.144 434.846,-307.569 444.895,-308.958"/>
<polygon fill="midnightblue" stroke="midnightblue" points="414.587,-301.235 404.202,-303.332 413.628,-308.169 414.587,-301.235"/>
</g>
<!-- Node25 -->
<g id="node25" class="node"><title>Node25</title>
<g id="a_node25"><a xlink:href="../../dc/d87/classengine_1_1collision_1_1objects_1_1_hero_collision_object.html#a3dc5a68b37238352c99bca91dfc8f9a1" target="_top" xlink:title="engine.collision.objects.\lHeroCollisionObject.handleFixed\lObjectCollisionObject">
<polygon fill="white" stroke="black" points="448.5,-240.5 448.5,-281.5 617.5,-281.5 617.5,-240.5 448.5,-240.5"/>
<text text-anchor="start" x="456.5" y="-269.5" font-family="Helvetica,sans-Serif" font-size="10.00">engine.collision.objects.</text>
<text text-anchor="start" x="456.5" y="-258.5" font-family="Helvetica,sans-Serif" font-size="10.00">HeroCollisionObject.handleFixed</text>
<text text-anchor="middle" x="533" y="-247.5" font-family="Helvetica,sans-Serif" font-size="10.00">ObjectCollisionObject</text>
</a>
</g>
</g>
<!-- Node20&#45;&gt;Node25 -->
<g id="edge24" class="edge"><title>Node20&#45;&gt;Node25</title>
<path fill="none" stroke="midnightblue" d="M414.195,-277.286C425.622,-275.707 437.187,-274.108 448.379,-272.56"/>
<polygon fill="midnightblue" stroke="midnightblue" points="413.628,-273.831 404.202,-278.668 414.587,-280.765 413.628,-273.831"/>
</g>
<!-- Node26 -->
<g id="node26" class="node"><title>Node26</title>
<g id="a_node26"><a xlink:href="../../d6/db8/classengine_1_1collision_1_1objects_1_1_powerup_collision_object.html#a4e09b2b8b7cfbcdd6def8332de2025b7" target="_top" xlink:title="engine.collision.objects.\lPowerupCollisionObject.handleFixed\lObjectCollisionObject">
<polygon fill="white" stroke="black" points="440,-180.5 440,-221.5 626,-221.5 626,-180.5 440,-180.5"/>
<text text-anchor="start" x="448" y="-209.5" font-family="Helvetica,sans-Serif" font-size="10.00">engine.collision.objects.</text>
<text text-anchor="start" x="448" y="-198.5" font-family="Helvetica,sans-Serif" font-size="10.00">PowerupCollisionObject.handleFixed</text>
<text text-anchor="middle" x="533" y="-187.5" font-family="Helvetica,sans-Serif" font-size="10.00">ObjectCollisionObject</text>
</a>
</g>
</g>
<!-- Node20&#45;&gt;Node26 -->
<g id="edge25" class="edge"><title>Node20&#45;&gt;Node26</title>
<path fill="none" stroke="midnightblue" d="M391.886,-272.119C396.072,-270.258 400.141,-268.223 404,-266 423.337,-254.862 420.897,-242.536 440,-231 445.752,-227.526 451.953,-224.406 458.322,-221.613"/>
<polygon fill="midnightblue" stroke="midnightblue" points="390.502,-268.903 382.566,-275.922 393.147,-275.384 390.502,-268.903"/>
</g>
<!-- Node27 -->
<g id="node27" class="node"><title>Node27</title>
<g id="a_node27"><a xlink:href="../../db/d3a/classengine_1_1collision_1_1objects_1_1_enemy_collision_object.html#a8cf5b65593cec2850e2f94a8d6deb670" target="_top" xlink:title="engine.collision.objects.\lEnemyCollisionObject.handleFixed\lObjectCollisionObject">
<polygon fill="white" stroke="black" points="443.5,-120.5 443.5,-161.5 622.5,-161.5 622.5,-120.5 443.5,-120.5"/>
<text text-anchor="start" x="451.5" y="-149.5" font-family="Helvetica,sans-Serif" font-size="10.00">engine.collision.objects.</text>
<text text-anchor="start" x="451.5" y="-138.5" font-family="Helvetica,sans-Serif" font-size="10.00">EnemyCollisionObject.handleFixed</text>
<text text-anchor="middle" x="533" y="-127.5" font-family="Helvetica,sans-Serif" font-size="10.00">ObjectCollisionObject</text>
</a>
</g>
</g>
<!-- Node20&#45;&gt;Node27 -->
<g id="edge26" class="edge"><title>Node20&#45;&gt;Node27</title>
<path fill="none" stroke="midnightblue" d="M398.544,-270.462C400.444,-269.07 402.269,-267.585 404,-266 437.307,-235.514 407.331,-202.168 440,-171 443.647,-167.521 447.702,-164.445 452.02,-161.726"/>
<polygon fill="midnightblue" stroke="midnightblue" points="396.368,-267.696 389.772,-275.987 400.099,-273.619 396.368,-267.696"/>
</g>
<!-- Node28 -->
<g id="node28" class="node"><title>Node28</title>
<g id="a_node28"><a xlink:href="../../d4/daa/classengine_1_1collision_1_1objects_1_1_fixed_object_collision_object.html#af3d610bd55f501a9d616abaf648dd870" target="_top" xlink:title="engine.collision.objects.\lFixedObjectCollisionObject.handle\lHeroCollisionObject">
<polygon fill="white" stroke="black" points="445,-60.5 445,-101.5 621,-101.5 621,-60.5 445,-60.5"/>
<text text-anchor="start" x="453" y="-89.5" font-family="Helvetica,sans-Serif" font-size="10.00">engine.collision.objects.</text>
<text text-anchor="start" x="453" y="-78.5" font-family="Helvetica,sans-Serif" font-size="10.00">FixedObjectCollisionObject.handle</text>
<text text-anchor="middle" x="533" y="-67.5" font-family="Helvetica,sans-Serif" font-size="10.00">HeroCollisionObject</text>
</a>
</g>
</g>
<!-- Node20&#45;&gt;Node28 -->
<g id="edge27" class="edge"><title>Node20&#45;&gt;Node28</title>
<path fill="none" stroke="midnightblue" d="M400.045,-269.75C401.421,-268.565 402.742,-267.316 404,-266 452.855,-214.864 392.214,-163.136 440,-111 443.178,-107.532 446.762,-104.464 450.625,-101.75"/>
<polygon fill="midnightblue" stroke="midnightblue" points="397.661,-267.155 391.616,-275.857 401.768,-272.824 397.661,-267.155"/>
</g>
<!-- Node29 -->
<g id="node29" class="node"><title>Node29</title>
<g id="a_node29"><a xlink:href="../../d4/daa/classengine_1_1collision_1_1objects_1_1_fixed_object_collision_object.html#aabbf81a8ea0fca531c76cb6355553303" target="_top" xlink:title="engine.collision.objects.\lFixedObjectCollisionObject.handle\lPowerupCollisionObject">
<polygon fill="white" stroke="black" points="445,-0.5 445,-41.5 621,-41.5 621,-0.5 445,-0.5"/>
<text text-anchor="start" x="453" y="-29.5" font-family="Helvetica,sans-Serif" font-size="10.00">engine.collision.objects.</text>
<text text-anchor="start" x="453" y="-18.5" font-family="Helvetica,sans-Serif" font-size="10.00">FixedObjectCollisionObject.handle</text>
<text text-anchor="middle" x="533" y="-7.5" font-family="Helvetica,sans-Serif" font-size="10.00">PowerupCollisionObject</text>
</a>
</g>
</g>
<!-- Node20&#45;&gt;Node29 -->
<g id="edge28" class="edge"><title>Node20&#45;&gt;Node29</title>
<path fill="none" stroke="midnightblue" d="M400.281,-269.745C401.579,-268.561 402.821,-267.314 404,-266 468.713,-193.896 376.792,-124.428 440,-51 443.069,-47.435 446.567,-44.2909 450.364,-41.5183"/>
<polygon fill="midnightblue" stroke="midnightblue" points="398.112,-266.997 392.297,-275.853 402.366,-272.557 398.112,-266.997"/>
</g>
</g>
</svg>
