<?xml version="1.0" encoding="UTF-8" standalone="no"?>
<!DOCTYPE svg PUBLIC "-//W3C//DTD SVG 1.1//EN"
 "http://www.w3.org/Graphics/SVG/1.1/DTD/svg11.dtd">
<!-- Generated by graphviz version 2.36.0 (20140111.2315)
 -->
<!-- Title: engine.actions.render.ChangeImageTypeAction.execute Pages: 1 -->
<svg width="1066pt" height="398pt"
 viewBox="0.00 0.00 1066.00 398.00" xmlns="http://www.w3.org/2000/svg" xmlns:xlink="http://www.w3.org/1999/xlink">
<g id="graph0" class="graph" transform="scale(1 1) rotate(0) translate(4 394)">
<title>engine.actions.render.ChangeImageTypeAction.execute</title>
<polygon fill="white" stroke="none" points="-4,4 -4,-394 1062,-394 1062,4 -4,4"/>
<!-- Node1 -->
<g id="node1" class="node"><title>Node1</title>
<polygon fill="#bfbfbf" stroke="black" points="0,-66 0,-96 160,-96 160,-66 0,-66"/>
<text text-anchor="start" x="8" y="-84" font-family="Helvetica,sans-Serif" font-size="10.00">engine.actions.render.Change</text>
<text text-anchor="middle" x="80" y="-73" font-family="Helvetica,sans-Serif" font-size="10.00">ImageTypeAction.execute</text>
</g>
<!-- Node2 -->
<g id="node2" class="node"><title>Node2</title>
<g id="a_node2"><a xlink:href="../../dd/d8d/classengine_1_1render_1_1_renderer.html#a569f6bb2f9c218ed015949dff459b1ee" target="_top" xlink:title="engine.render.Renderer.create\lAndAssignRenderedNode">
<polygon fill="white" stroke="black" points="199.5,-115 199.5,-145 360.5,-145 360.5,-115 199.5,-115"/>
<text text-anchor="start" x="207.5" y="-133" font-family="Helvetica,sans-Serif" font-size="10.00">engine.render.Renderer.create</text>
<text text-anchor="middle" x="280" y="-122" font-family="Helvetica,sans-Serif" font-size="10.00">AndAssignRenderedNode</text>
</a>
</g>
</g>
<!-- Node1&#45;&gt;Node2 -->
<g id="edge1" class="edge"><title>Node1&#45;&gt;Node2</title>
<path fill="none" stroke="midnightblue" d="M141.752,-96.0346C162.848,-101.255 186.682,-107.154 208.498,-112.553"/>
<polygon fill="midnightblue" stroke="midnightblue" points="207.815,-115.989 218.363,-114.994 209.496,-109.194 207.815,-115.989"/>
</g>
<!-- Node22 -->
<g id="node22" class="node"><title>Node22</title>
<g id="a_node22"><a xlink:href="../../df/d84/classengine_1_1level_1_1_level.html#ac927326f1a3d7e17b5d577c336a5cfc1" target="_top" xlink:title="engine.level.Level.getGame\lObjectsCollection">
<polygon fill="white" stroke="black" points="205.5,-66 205.5,-96 354.5,-96 354.5,-66 205.5,-66"/>
<text text-anchor="start" x="213.5" y="-84" font-family="Helvetica,sans-Serif" font-size="10.00">engine.level.Level.getGame</text>
<text text-anchor="middle" x="280" y="-73" font-family="Helvetica,sans-Serif" font-size="10.00">ObjectsCollection</text>
</a>
</g>
</g>
<!-- Node1&#45;&gt;Node22 -->
<g id="edge23" class="edge"><title>Node1&#45;&gt;Node22</title>
<path fill="none" stroke="midnightblue" d="M160.108,-81C171.689,-81 183.648,-81 195.316,-81"/>
<polygon fill="midnightblue" stroke="midnightblue" points="195.478,-84.5001 205.478,-81 195.478,-77.5001 195.478,-84.5001"/>
</g>
<!-- Node23 -->
<g id="node23" class="node"><title>Node23</title>
<g id="a_node23"><a xlink:href="../../dd/d8d/classengine_1_1render_1_1_renderer.html#a980236dc1412ddf1c0623ab38392bac7" target="_top" xlink:title="engine.render.Renderer.remove\lRenderedNode">
<polygon fill="white" stroke="black" points="196.5,-17 196.5,-47 363.5,-47 363.5,-17 196.5,-17"/>
<text text-anchor="start" x="204.5" y="-35" font-family="Helvetica,sans-Serif" font-size="10.00">engine.render.Renderer.remove</text>
<text text-anchor="middle" x="280" y="-24" font-family="Helvetica,sans-Serif" font-size="10.00">RenderedNode</text>
</a>
</g>
</g>
<!-- Node1&#45;&gt;Node23 -->
<g id="edge24" class="edge"><title>Node1&#45;&gt;Node23</title>
<path fill="none" stroke="midnightblue" d="M141.752,-65.9654C162.848,-60.7446 186.682,-54.8463 208.498,-49.4474"/>
<polygon fill="midnightblue" stroke="midnightblue" points="209.496,-52.806 218.363,-47.0062 207.815,-46.011 209.496,-52.806"/>
</g>
<!-- Node3 -->
<g id="node3" class="node"><title>Node3</title>
<g id="a_node3"><a xlink:href="../../d5/d30/classengine_1_1render_1_1_rendered_node_factory.html#a359dcce722371dfb49b79528930c1b05" target="_top" xlink:title="engine.render.RenderedNode\lFactory.createRenderedNode">
<polygon fill="white" stroke="black" points="418,-164 418,-194 574,-194 574,-164 418,-164"/>
<text text-anchor="start" x="426" y="-182" font-family="Helvetica,sans-Serif" font-size="10.00">engine.render.RenderedNode</text>
<text text-anchor="middle" x="496" y="-171" font-family="Helvetica,sans-Serif" font-size="10.00">Factory.createRenderedNode</text>
</a>
</g>
</g>
<!-- Node2&#45;&gt;Node3 -->
<g id="edge2" class="edge"><title>Node2&#45;&gt;Node3</title>
<path fill="none" stroke="midnightblue" d="M346.661,-145.035C369.668,-150.302 395.687,-156.26 419.438,-161.698"/>
<polygon fill="midnightblue" stroke="midnightblue" points="418.934,-165.173 429.463,-163.994 420.496,-158.35 418.934,-165.173"/>
</g>
<!-- Node20 -->
<g id="node20" class="node"><title>Node20</title>
<g id="a_node20"><a xlink:href="../../d0/d7f/classengine_1_1game_object_1_1_game_object.html#accd456b2eaab9c7056de825a28b066c8" target="_top" xlink:title="engine.gameObject.GameObject.get\lIdentifier">
<polygon fill="white" stroke="black" points="400,-115 400,-145 592,-145 592,-115 400,-115"/>
<text text-anchor="start" x="408" y="-133" font-family="Helvetica,sans-Serif" font-size="10.00">engine.gameObject.GameObject.get</text>
<text text-anchor="middle" x="496" y="-122" font-family="Helvetica,sans-Serif" font-size="10.00">Identifier</text>
</a>
</g>
</g>
<!-- Node2&#45;&gt;Node20 -->
<g id="edge21" class="edge"><title>Node2&#45;&gt;Node20</title>
<path fill="none" stroke="midnightblue" d="M360.686,-130C370.123,-130 379.864,-130 389.587,-130"/>
<polygon fill="midnightblue" stroke="midnightblue" points="389.7,-133.5 399.7,-130 389.7,-126.5 389.7,-133.5"/>
</g>
<!-- Node21 -->
<g id="node21" class="node"><title>Node21</title>
<g id="a_node21"><a xlink:href="../../d0/d7f/classengine_1_1game_object_1_1_game_object.html#ab09d473d8c2afe8cefb2ce2481bc66fd" target="_top" xlink:title="engine.gameObject.GameObject.set\lRenderedNode">
<polygon fill="white" stroke="black" points="400.5,-66 400.5,-96 591.5,-96 591.5,-66 400.5,-66"/>
<text text-anchor="start" x="408.5" y="-84" font-family="Helvetica,sans-Serif" font-size="10.00">engine.gameObject.GameObject.set</text>
<text text-anchor="middle" x="496" y="-73" font-family="Helvetica,sans-Serif" font-size="10.00">RenderedNode</text>
</a>
</g>
</g>
<!-- Node2&#45;&gt;Node21 -->
<g id="edge22" class="edge"><title>Node2&#45;&gt;Node21</title>
<path fill="none" stroke="midnightblue" d="M346.661,-114.965C369.668,-109.698 395.687,-103.74 419.438,-98.3016"/>
<polygon fill="midnightblue" stroke="midnightblue" points="420.496,-101.65 429.463,-96.0062 418.934,-94.8265 420.496,-101.65"/>
</g>
<!-- Node4 -->
<g id="node4" class="node"><title>Node4</title>
<g id="a_node4"><a xlink:href="../../d2/d82/classengine_1_1render_1_1_rendered_node.html#a520a8c03b505d10c69e010e603cadfdd" target="_top" xlink:title="engine.render.RenderedNode.set\lImageView">
<polygon fill="white" stroke="black" points="642,-360 642,-390 816,-390 816,-360 642,-360"/>
<text text-anchor="start" x="650" y="-378" font-family="Helvetica,sans-Serif" font-size="10.00">engine.render.RenderedNode.set</text>
<text text-anchor="middle" x="729" y="-367" font-family="Helvetica,sans-Serif" font-size="10.00">ImageView</text>
</a>
</g>
</g>
<!-- Node3&#45;&gt;Node4 -->
<g id="edge3" class="edge"><title>Node3&#45;&gt;Node4</title>
<path fill="none" stroke="midnightblue" d="M504.088,-194.074C520.691,-227.669 565.479,-308.946 628,-350 631.139,-352.061 634.435,-353.952 637.842,-355.688"/>
<polygon fill="midnightblue" stroke="midnightblue" points="636.537,-358.94 647.086,-359.927 639.455,-352.577 636.537,-358.94"/>
</g>
<!-- Node5 -->
<g id="node5" class="node"><title>Node5</title>
<g id="a_node5"><a xlink:href="../../d5/d30/classengine_1_1render_1_1_rendered_node_factory.html#ae9ab86f88eb96945a412e561179aa070" target="_top" xlink:title="engine.render.RenderedNode\lFactory.createImageAndView">
<polygon fill="white" stroke="black" points="651,-311 651,-341 807,-341 807,-311 651,-311"/>
<text text-anchor="start" x="659" y="-329" font-family="Helvetica,sans-Serif" font-size="10.00">engine.render.RenderedNode</text>
<text text-anchor="middle" x="729" y="-318" font-family="Helvetica,sans-Serif" font-size="10.00">Factory.createImageAndView</text>
</a>
</g>
</g>
<!-- Node3&#45;&gt;Node5 -->
<g id="edge4" class="edge"><title>Node3&#45;&gt;Node5</title>
<path fill="none" stroke="midnightblue" d="M508.95,-194.35C530.073,-220.394 576.653,-273.121 628,-301 632.249,-303.307 636.714,-305.405 641.304,-307.313"/>
<polygon fill="midnightblue" stroke="midnightblue" points="640.278,-310.668 650.868,-310.969 642.777,-304.129 640.278,-310.668"/>
</g>
<!-- Node9 -->
<g id="node9" class="node"><title>Node9</title>
<g id="a_node9"><a xlink:href="../../d2/d82/classengine_1_1render_1_1_rendered_node.html#ad73c81ad48b40faea3818c9a7bbfdcf0" target="_top" xlink:title="engine.render.RenderedNode.set\lCollisionBody">
<polygon fill="white" stroke="black" points="642,-213 642,-243 816,-243 816,-213 642,-213"/>
<text text-anchor="start" x="650" y="-231" font-family="Helvetica,sans-Serif" font-size="10.00">engine.render.RenderedNode.set</text>
<text text-anchor="middle" x="729" y="-220" font-family="Helvetica,sans-Serif" font-size="10.00">CollisionBody</text>
</a>
</g>
</g>
<!-- Node3&#45;&gt;Node9 -->
<g id="edge8" class="edge"><title>Node3&#45;&gt;Node9</title>
<path fill="none" stroke="midnightblue" d="M567.877,-194.035C593.044,-199.373 621.55,-205.42 647.464,-210.917"/>
<polygon fill="midnightblue" stroke="midnightblue" points="646.748,-214.343 657.257,-212.994 648.201,-207.495 646.748,-214.343"/>
</g>
<!-- Node10 -->
<g id="node10" class="node"><title>Node10</title>
<g id="a_node10"><a xlink:href="../../d5/d30/classengine_1_1render_1_1_rendered_node_factory.html#ac14d2f5a3da79d92c967fe22bc82c1ed" target="_top" xlink:title="engine.render.RenderedNode\lFactory.createCollisionBody">
<polygon fill="white" stroke="black" points="651,-164 651,-194 807,-194 807,-164 651,-164"/>
<text text-anchor="start" x="659" y="-182" font-family="Helvetica,sans-Serif" font-size="10.00">engine.render.RenderedNode</text>
<text text-anchor="middle" x="729" y="-171" font-family="Helvetica,sans-Serif" font-size="10.00">Factory.createCollisionBody</text>
</a>
</g>
</g>
<!-- Node3&#45;&gt;Node10 -->
<g id="edge9" class="edge"><title>Node3&#45;&gt;Node10</title>
<path fill="none" stroke="midnightblue" d="M574.241,-179C595.527,-179 618.769,-179 640.587,-179"/>
<polygon fill="midnightblue" stroke="midnightblue" points="640.832,-182.5 650.832,-179 640.832,-175.5 640.832,-182.5"/>
</g>
<!-- Node14 -->
<g id="node14" class="node"><title>Node14</title>
<g id="a_node14"><a xlink:href="../../d2/d82/classengine_1_1render_1_1_rendered_node.html#a312c663dd1144ff206ecfa1ea8c95a81" target="_top" xlink:title="engine.render.RenderedNode.set\lLabel">
<polygon fill="white" stroke="black" points="642,-115 642,-145 816,-145 816,-115 642,-115"/>
<text text-anchor="start" x="650" y="-133" font-family="Helvetica,sans-Serif" font-size="10.00">engine.render.RenderedNode.set</text>
<text text-anchor="middle" x="729" y="-122" font-family="Helvetica,sans-Serif" font-size="10.00">Label</text>
</a>
</g>
</g>
<!-- Node3&#45;&gt;Node14 -->
<g id="edge13" class="edge"><title>Node3&#45;&gt;Node14</title>
<path fill="none" stroke="midnightblue" d="M567.877,-163.965C593.044,-158.627 621.55,-152.58 647.464,-147.083"/>
<polygon fill="midnightblue" stroke="midnightblue" points="648.201,-150.505 657.257,-145.006 646.748,-143.657 648.201,-150.505"/>
</g>
<!-- Node15 -->
<g id="node15" class="node"><title>Node15</title>
<g id="a_node15"><a xlink:href="../../d5/d30/classengine_1_1render_1_1_rendered_node_factory.html#a4e1f4508b1c12b958bd3c88a35a4e872" target="_top" xlink:title="engine.render.RenderedNode\lFactory.createLabel">
<polygon fill="white" stroke="black" points="651,-262 651,-292 807,-292 807,-262 651,-262"/>
<text text-anchor="start" x="659" y="-280" font-family="Helvetica,sans-Serif" font-size="10.00">engine.render.RenderedNode</text>
<text text-anchor="middle" x="729" y="-269" font-family="Helvetica,sans-Serif" font-size="10.00">Factory.createLabel</text>
</a>
</g>
</g>
<!-- Node3&#45;&gt;Node15 -->
<g id="edge14" class="edge"><title>Node3&#45;&gt;Node15</title>
<path fill="none" stroke="midnightblue" d="M519.748,-194.124C545.18,-210.44 588.053,-236.198 628,-252 634.373,-254.521 641.077,-256.847 647.871,-258.98"/>
<polygon fill="midnightblue" stroke="midnightblue" points="647.276,-262.456 657.86,-261.968 649.282,-255.749 647.276,-262.456"/>
</g>
<!-- Node17 -->
<g id="node17" class="node"><title>Node17</title>
<g id="a_node17"><a xlink:href="../../d0/d7f/classengine_1_1game_object_1_1_game_object.html#a606c7293c2bfac0af1fb42143bf527f6" target="_top" xlink:title="engine.gameObject.GameObject.getX">
<polygon fill="white" stroke="black" points="630,-76.5 630,-95.5 828,-95.5 828,-76.5 630,-76.5"/>
<text text-anchor="middle" x="729" y="-83.5" font-family="Helvetica,sans-Serif" font-size="10.00">engine.gameObject.GameObject.getX</text>
</a>
</g>
</g>
<!-- Node3&#45;&gt;Node17 -->
<g id="edge18" class="edge"><title>Node3&#45;&gt;Node17</title>
<path fill="none" stroke="midnightblue" d="M573.719,-163.834C580.162,-161.084 586.359,-157.836 592,-154 614.345,-138.803 605.14,-119.411 628,-105 631.352,-102.887 634.884,-100.998 638.538,-99.3111"/>
<polygon fill="midnightblue" stroke="midnightblue" points="639.904,-102.534 647.843,-95.5183 637.261,-96.052 639.904,-102.534"/>
</g>
<!-- Node18 -->
<g id="node18" class="node"><title>Node18</title>
<g id="a_node18"><a xlink:href="../../d0/d7f/classengine_1_1game_object_1_1_game_object.html#a1988806ef560c9384f3844d0666a9450" target="_top" xlink:title="engine.gameObject.GameObject.getY">
<polygon fill="white" stroke="black" points="630.5,-38.5 630.5,-57.5 827.5,-57.5 827.5,-38.5 630.5,-38.5"/>
<text text-anchor="middle" x="729" y="-45.5" font-family="Helvetica,sans-Serif" font-size="10.00">engine.gameObject.GameObject.getY</text>
</a>
</g>
</g>
<!-- Node3&#45;&gt;Node18 -->
<g id="edge19" class="edge"><title>Node3&#45;&gt;Node18</title>
<path fill="none" stroke="midnightblue" d="M574.326,-165.451C580.717,-162.367 586.733,-158.6 592,-154 623.518,-126.474 595.543,-93.4137 628,-67 630.039,-65.3408 632.178,-63.8102 634.4,-62.399"/>
<polygon fill="midnightblue" stroke="midnightblue" points="636.232,-65.3868 643.337,-57.5275 632.881,-59.2406 636.232,-65.3868"/>
</g>
<!-- Node19 -->
<g id="node19" class="node"><title>Node19</title>
<g id="a_node19"><a xlink:href="../../d0/d7f/classengine_1_1game_object_1_1_game_object.html#ae94fe532960bd29f64c2dc19ec0af798" target="_top" xlink:title="engine.gameObject.GameObject.getID">
<polygon fill="white" stroke="black" points="628,-0.5 628,-19.5 830,-19.5 830,-0.5 628,-0.5"/>
<text text-anchor="middle" x="729" y="-7.5" font-family="Helvetica,sans-Serif" font-size="10.00">engine.gameObject.GameObject.getID</text>
</a>
</g>
</g>
<!-- Node3&#45;&gt;Node19 -->
<g id="edge20" class="edge"><title>Node3&#45;&gt;Node19</title>
<path fill="none" stroke="midnightblue" d="M574.428,-166.293C580.878,-163.043 586.877,-159.006 592,-154 633.35,-113.594 585.27,-67.9435 628,-29 629.518,-27.6162 631.105,-26.3189 632.751,-25.1031"/>
<polygon fill="midnightblue" stroke="midnightblue" points="634.802,-27.9482 641.427,-19.68 631.092,-22.0123 634.802,-27.9482"/>
</g>
<!-- Node6 -->
<g id="node6" class="node"><title>Node6</title>
<g id="a_node6"><a xlink:href="../../d0/d7f/classengine_1_1game_object_1_1_game_object.html#ae8b88e1cf489e935426e2e252defbae0" target="_top" xlink:title="engine.gameObject.GameObject.get\lCurrentImageName">
<polygon fill="white" stroke="black" points="866,-360 866,-390 1058,-390 1058,-360 866,-360"/>
<text text-anchor="start" x="874" y="-378" font-family="Helvetica,sans-Serif" font-size="10.00">engine.gameObject.GameObject.get</text>
<text text-anchor="middle" x="962" y="-367" font-family="Helvetica,sans-Serif" font-size="10.00">CurrentImageName</text>
</a>
</g>
</g>
<!-- Node5&#45;&gt;Node6 -->
<g id="edge5" class="edge"><title>Node5&#45;&gt;Node6</title>
<path fill="none" stroke="midnightblue" d="M800.877,-341.035C826.044,-346.373 854.55,-352.42 880.464,-357.917"/>
<polygon fill="midnightblue" stroke="midnightblue" points="879.748,-361.343 890.257,-359.994 881.201,-354.495 879.748,-361.343"/>
</g>
<!-- Node7 -->
<g id="node7" class="node"><title>Node7</title>
<g id="a_node7"><a xlink:href="../../d0/d7f/classengine_1_1game_object_1_1_game_object.html#aaeb5730a3b51fe9cb3d817ea7172cfc2" target="_top" xlink:title="engine.gameObject.GameObject.get\lHeight">
<polygon fill="white" stroke="black" points="866,-262 866,-292 1058,-292 1058,-262 866,-262"/>
<text text-anchor="start" x="874" y="-280" font-family="Helvetica,sans-Serif" font-size="10.00">engine.gameObject.GameObject.get</text>
<text text-anchor="middle" x="962" y="-269" font-family="Helvetica,sans-Serif" font-size="10.00">Height</text>
</a>
</g>
</g>
<!-- Node5&#45;&gt;Node7 -->
<g id="edge6" class="edge"><title>Node5&#45;&gt;Node7</title>
<path fill="none" stroke="midnightblue" d="M800.877,-310.965C826.044,-305.627 854.55,-299.58 880.464,-294.083"/>
<polygon fill="midnightblue" stroke="midnightblue" points="881.201,-297.505 890.257,-292.006 879.748,-290.657 881.201,-297.505"/>
</g>
<!-- Node8 -->
<g id="node8" class="node"><title>Node8</title>
<g id="a_node8"><a xlink:href="../../d0/d7f/classengine_1_1game_object_1_1_game_object.html#a31aa2c854220621b49fc5575b50b9342" target="_top" xlink:title="engine.gameObject.GameObject.get\lWidth">
<polygon fill="white" stroke="black" points="866,-311 866,-341 1058,-341 1058,-311 866,-311"/>
<text text-anchor="start" x="874" y="-329" font-family="Helvetica,sans-Serif" font-size="10.00">engine.gameObject.GameObject.get</text>
<text text-anchor="middle" x="962" y="-318" font-family="Helvetica,sans-Serif" font-size="10.00">Width</text>
</a>
</g>
</g>
<!-- Node5&#45;&gt;Node8 -->
<g id="edge7" class="edge"><title>Node5&#45;&gt;Node8</title>
<path fill="none" stroke="midnightblue" d="M807.241,-326C822.773,-326 839.346,-326 855.647,-326"/>
<polygon fill="midnightblue" stroke="midnightblue" points="855.75,-329.5 865.75,-326 855.75,-322.5 855.75,-329.5"/>
</g>
<!-- Node11 -->
<g id="node11" class="node"><title>Node11</title>
<g id="a_node11"><a xlink:href="../../d0/d7f/classengine_1_1game_object_1_1_game_object.html#a60c5b6933aac9969491a3562a963c043" target="_top" xlink:title="engine.gameObject.GameObject.get\lPhysicsBody">
<polygon fill="white" stroke="black" points="866,-164 866,-194 1058,-194 1058,-164 866,-164"/>
<text text-anchor="start" x="874" y="-182" font-family="Helvetica,sans-Serif" font-size="10.00">engine.gameObject.GameObject.get</text>
<text text-anchor="middle" x="962" y="-171" font-family="Helvetica,sans-Serif" font-size="10.00">PhysicsBody</text>
</a>
</g>
</g>
<!-- Node10&#45;&gt;Node11 -->
<g id="edge10" class="edge"><title>Node10&#45;&gt;Node11</title>
<path fill="none" stroke="midnightblue" d="M807.241,-179C822.773,-179 839.346,-179 855.647,-179"/>
<polygon fill="midnightblue" stroke="midnightblue" points="855.75,-182.5 865.75,-179 855.75,-175.5 855.75,-182.5"/>
</g>
<!-- Node12 -->
<g id="node12" class="node"><title>Node12</title>
<g id="a_node12"><a xlink:href="../../d9/d9d/classengine_1_1game_object_1_1components_1_1_physics_body.html#aba2ed3bce8ee8e404907c88b144626fc" target="_top" xlink:title="engine.gameObject.components.\lPhysicsBody.getCollisionBodyHeight">
<polygon fill="white" stroke="black" points="868,-115 868,-145 1056,-145 1056,-115 868,-115"/>
<text text-anchor="start" x="876" y="-133" font-family="Helvetica,sans-Serif" font-size="10.00">engine.gameObject.components.</text>
<text text-anchor="middle" x="962" y="-122" font-family="Helvetica,sans-Serif" font-size="10.00">PhysicsBody.getCollisionBodyHeight</text>
</a>
</g>
</g>
<!-- Node10&#45;&gt;Node12 -->
<g id="edge11" class="edge"><title>Node10&#45;&gt;Node12</title>
<path fill="none" stroke="midnightblue" d="M800.877,-163.965C826.044,-158.627 854.55,-152.58 880.464,-147.083"/>
<polygon fill="midnightblue" stroke="midnightblue" points="881.201,-150.505 890.257,-145.006 879.748,-143.657 881.201,-150.505"/>
</g>
<!-- Node13 -->
<g id="node13" class="node"><title>Node13</title>
<g id="a_node13"><a xlink:href="../../d9/d9d/classengine_1_1game_object_1_1components_1_1_physics_body.html#ae64e43632570392c3118b3d00af853fc" target="_top" xlink:title="engine.gameObject.components.\lPhysicsBody.getCollisionBodyWidth">
<polygon fill="white" stroke="black" points="871,-66 871,-96 1053,-96 1053,-66 871,-66"/>
<text text-anchor="start" x="879" y="-84" font-family="Helvetica,sans-Serif" font-size="10.00">engine.gameObject.components.</text>
<text text-anchor="middle" x="962" y="-73" font-family="Helvetica,sans-Serif" font-size="10.00">PhysicsBody.getCollisionBodyWidth</text>
</a>
</g>
</g>
<!-- Node10&#45;&gt;Node13 -->
<g id="edge12" class="edge"><title>Node10&#45;&gt;Node13</title>
<path fill="none" stroke="midnightblue" d="M807.161,-165.59C815.226,-162.496 823.016,-158.687 830,-154 852.439,-138.941 843.58,-120.087 866,-105 868.302,-103.451 870.697,-102.002 873.163,-100.646"/>
<polygon fill="midnightblue" stroke="midnightblue" points="874.926,-103.679 882.365,-96.1348 871.845,-97.394 874.926,-103.679"/>
</g>
<!-- Node15&#45;&gt;Node7 -->
<g id="edge16" class="edge"><title>Node15&#45;&gt;Node7</title>
<path fill="none" stroke="midnightblue" d="M807.241,-277C822.773,-277 839.346,-277 855.647,-277"/>
<polygon fill="midnightblue" stroke="midnightblue" points="855.75,-280.5 865.75,-277 855.75,-273.5 855.75,-280.5"/>
</g>
<!-- Node15&#45;&gt;Node8 -->
<g id="edge17" class="edge"><title>Node15&#45;&gt;Node8</title>
<path fill="none" stroke="midnightblue" d="M800.877,-292.035C826.044,-297.373 854.55,-303.42 880.464,-308.917"/>
<polygon fill="midnightblue" stroke="midnightblue" points="879.748,-312.343 890.257,-310.994 881.201,-305.495 879.748,-312.343"/>
</g>
<!-- Node16 -->
<g id="node16" class="node"><title>Node16</title>
<g id="a_node16"><a xlink:href="../../d0/d7f/classengine_1_1game_object_1_1_game_object.html#a5c379828f3bb19a91935f965c48a91a5" target="_top" xlink:title="engine.gameObject.GameObject.get\lLabel">
<polygon fill="white" stroke="black" points="866,-213 866,-243 1058,-243 1058,-213 866,-213"/>
<text text-anchor="start" x="874" y="-231" font-family="Helvetica,sans-Serif" font-size="10.00">engine.gameObject.GameObject.get</text>
<text text-anchor="middle" x="962" y="-220" font-family="Helvetica,sans-Serif" font-size="10.00">Label</text>
</a>
</g>
</g>
<!-- Node15&#45;&gt;Node16 -->
<g id="edge15" class="edge"><title>Node15&#45;&gt;Node16</title>
<path fill="none" stroke="midnightblue" d="M800.877,-261.965C826.044,-256.627 854.55,-250.58 880.464,-245.083"/>
<polygon fill="midnightblue" stroke="midnightblue" points="881.201,-248.505 890.257,-243.006 879.748,-241.657 881.201,-248.505"/>
</g>
</g>
</svg>
