<?xml version="1.0" encoding="UTF-8" standalone="no"?>
<!DOCTYPE svg PUBLIC "-//W3C//DTD SVG 1.1//EN"
 "http://www.w3.org/Graphics/SVG/1.1/DTD/svg11.dtd">
<!-- Generated by graphviz version 2.36.0 (20140111.2315)
 -->
<!-- Title: engine.actions.LabelIntIncrementAction.execute Pages: 1 -->
<svg width="1106pt" height="424pt"
 viewBox="0.00 0.00 1106.00 424.16" xmlns="http://www.w3.org/2000/svg" xmlns:xlink="http://www.w3.org/1999/xlink">
<g id="graph0" class="graph" transform="scale(1 1) rotate(0) translate(4 420.164)">
<title>engine.actions.LabelIntIncrementAction.execute</title>
<polygon fill="white" stroke="none" points="-4,4 -4,-420.164 1102,-420.164 1102,4 -4,4"/>
<!-- Node1 -->
<g id="node1" class="node"><title>Node1</title>
<polygon fill="#bfbfbf" stroke="black" points="0,-148 0,-178 176,-178 176,-148 0,-148"/>
<text text-anchor="start" x="8" y="-166" font-family="Helvetica,sans-Serif" font-size="10.00">engine.actions.LabelIntIncrement</text>
<text text-anchor="middle" x="88" y="-155" font-family="Helvetica,sans-Serif" font-size="10.00">Action.execute</text>
</g>
<!-- Node2 -->
<g id="node2" class="node"><title>Node2</title>
<g id="a_node2"><a xlink:href="../../dd/d8d/classengine_1_1render_1_1_renderer.html#a569f6bb2f9c218ed015949dff459b1ee" target="_top" xlink:title="engine.render.Renderer.create\lAndAssignRenderedNode">
<polygon fill="white" stroke="black" points="227.5,-192 227.5,-222 388.5,-222 388.5,-192 227.5,-192"/>
<text text-anchor="start" x="235.5" y="-210" font-family="Helvetica,sans-Serif" font-size="10.00">engine.render.Renderer.create</text>
<text text-anchor="middle" x="308" y="-199" font-family="Helvetica,sans-Serif" font-size="10.00">AndAssignRenderedNode</text>
</a>
</g>
</g>
<!-- Node1&#45;&gt;Node2 -->
<g id="edge1" class="edge"><title>Node1&#45;&gt;Node2</title>
<path fill="none" stroke="midnightblue" d="M163.414,-178.019C182.512,-181.874 203.192,-186.048 222.749,-189.995"/>
<polygon fill="midnightblue" stroke="midnightblue" points="222.057,-193.426 232.552,-191.974 223.442,-186.564 222.057,-193.426"/>
</g>
<!-- Node16 -->
<g id="node16" class="node"><title>Node16</title>
<g id="a_node16"><a xlink:href="../../d0/d7f/classengine_1_1game_object_1_1_game_object.html#a5c379828f3bb19a91935f965c48a91a5" target="_top" xlink:title="engine.gameObject.GameObject.get\lLabel">
<polygon fill="white" stroke="black" points="906,-351 906,-381 1098,-381 1098,-351 906,-351"/>
<text text-anchor="start" x="914" y="-369" font-family="Helvetica,sans-Serif" font-size="10.00">engine.gameObject.GameObject.get</text>
<text text-anchor="middle" x="1002" y="-358" font-family="Helvetica,sans-Serif" font-size="10.00">Label</text>
</a>
</g>
</g>
<!-- Node1&#45;&gt;Node16 -->
<g id="edge23" class="edge"><title>Node1&#45;&gt;Node16</title>
<path fill="none" stroke="midnightblue" d="M114.026,-178.116C192.262,-224.321 440.589,-363.086 668,-405 756.291,-421.273 781.16,-417.944 870,-405 897.655,-400.971 927.591,-392.395 951.855,-384.308"/>
<polygon fill="midnightblue" stroke="midnightblue" points="953.205,-387.546 961.541,-381.006 950.946,-380.92 953.205,-387.546"/>
</g>
<!-- Node22 -->
<g id="node22" class="node"><title>Node22</title>
<g id="a_node22"><a xlink:href="../../d6/d94/classengine_1_1_game_manager.html#a11eb8aa00b7fb8338dd0e043723acb14" target="_top" xlink:title="engine.GameManager.getRenderer">
<polygon fill="white" stroke="black" points="216,-153.5 216,-172.5 400,-172.5 400,-153.5 216,-153.5"/>
<text text-anchor="middle" x="308" y="-160.5" font-family="Helvetica,sans-Serif" font-size="10.00">engine.GameManager.getRenderer</text>
</a>
</g>
</g>
<!-- Node1&#45;&gt;Node22 -->
<g id="edge24" class="edge"><title>Node1&#45;&gt;Node22</title>
<path fill="none" stroke="midnightblue" d="M176.099,-163C185.782,-163 195.704,-163 205.545,-163"/>
<polygon fill="midnightblue" stroke="midnightblue" points="205.756,-166.5 215.756,-163 205.756,-159.5 205.756,-166.5"/>
</g>
<!-- Node23 -->
<g id="node23" class="node"><title>Node23</title>
<g id="a_node23"><a xlink:href="../../dd/d8d/classengine_1_1render_1_1_renderer.html#a980236dc1412ddf1c0623ab38392bac7" target="_top" xlink:title="engine.render.Renderer.remove\lRenderedNode">
<polygon fill="white" stroke="black" points="224.5,-104 224.5,-134 391.5,-134 391.5,-104 224.5,-104"/>
<text text-anchor="start" x="232.5" y="-122" font-family="Helvetica,sans-Serif" font-size="10.00">engine.render.Renderer.remove</text>
<text text-anchor="middle" x="308" y="-111" font-family="Helvetica,sans-Serif" font-size="10.00">RenderedNode</text>
</a>
</g>
</g>
<!-- Node1&#45;&gt;Node23 -->
<g id="edge25" class="edge"><title>Node1&#45;&gt;Node23</title>
<path fill="none" stroke="midnightblue" d="M163.414,-147.981C182.512,-144.126 203.192,-139.952 222.749,-136.005"/>
<polygon fill="midnightblue" stroke="midnightblue" points="223.442,-139.436 232.552,-134.026 222.057,-132.574 223.442,-139.436"/>
</g>
<!-- Node24 -->
<g id="node24" class="node"><title>Node24</title>
<g id="a_node24"><a xlink:href="../../d0/d7f/classengine_1_1game_object_1_1_game_object.html#afba3abdabbcedbcd7be396dd90f734fa" target="_top" xlink:title="engine.gameObject.GameObject.set\lLabel">
<polygon fill="white" stroke="black" points="212.5,-55 212.5,-85 403.5,-85 403.5,-55 212.5,-55"/>
<text text-anchor="start" x="220.5" y="-73" font-family="Helvetica,sans-Serif" font-size="10.00">engine.gameObject.GameObject.set</text>
<text text-anchor="middle" x="308" y="-62" font-family="Helvetica,sans-Serif" font-size="10.00">Label</text>
</a>
</g>
</g>
<!-- Node1&#45;&gt;Node24 -->
<g id="edge26" class="edge"><title>Node1&#45;&gt;Node24</title>
<path fill="none" stroke="midnightblue" d="M111.669,-147.864C135.686,-132.418 175.155,-108.688 212,-94 217.365,-91.8611 222.978,-89.8675 228.679,-88.0181"/>
<polygon fill="midnightblue" stroke="midnightblue" points="229.804,-91.3339 238.328,-85.0418 227.741,-84.6449 229.804,-91.3339"/>
</g>
<!-- Node3 -->
<g id="node3" class="node"><title>Node3</title>
<g id="a_node3"><a xlink:href="../../d5/d30/classengine_1_1render_1_1_rendered_node_factory.html#a359dcce722371dfb49b79528930c1b05" target="_top" xlink:title="engine.render.RenderedNode\lFactory.createRenderedNode">
<polygon fill="white" stroke="black" points="458,-216 458,-246 614,-246 614,-216 458,-216"/>
<text text-anchor="start" x="466" y="-234" font-family="Helvetica,sans-Serif" font-size="10.00">engine.render.RenderedNode</text>
<text text-anchor="middle" x="536" y="-223" font-family="Helvetica,sans-Serif" font-size="10.00">Factory.createRenderedNode</text>
</a>
</g>
</g>
<!-- Node2&#45;&gt;Node3 -->
<g id="edge2" class="edge"><title>Node2&#45;&gt;Node3</title>
<path fill="none" stroke="midnightblue" d="M388.679,-215.462C407.834,-217.496 428.392,-219.679 447.866,-221.747"/>
<polygon fill="midnightblue" stroke="midnightblue" points="447.625,-225.241 457.938,-222.816 448.364,-218.28 447.625,-225.241"/>
</g>
<!-- Node20 -->
<g id="node20" class="node"><title>Node20</title>
<g id="a_node20"><a xlink:href="../../d0/d7f/classengine_1_1game_object_1_1_game_object.html#accd456b2eaab9c7056de825a28b066c8" target="_top" xlink:title="engine.gameObject.GameObject.get\lIdentifier">
<polygon fill="white" stroke="black" points="440,-167 440,-197 632,-197 632,-167 440,-167"/>
<text text-anchor="start" x="448" y="-185" font-family="Helvetica,sans-Serif" font-size="10.00">engine.gameObject.GameObject.get</text>
<text text-anchor="middle" x="536" y="-174" font-family="Helvetica,sans-Serif" font-size="10.00">Identifier</text>
</a>
</g>
</g>
<!-- Node2&#45;&gt;Node20 -->
<g id="edge21" class="edge"><title>Node2&#45;&gt;Node20</title>
<path fill="none" stroke="midnightblue" d="M388.679,-198.186C401.973,-196.715 415.943,-195.17 429.758,-193.642"/>
<polygon fill="midnightblue" stroke="midnightblue" points="430.223,-197.112 439.777,-192.533 429.453,-190.154 430.223,-197.112"/>
</g>
<!-- Node21 -->
<g id="node21" class="node"><title>Node21</title>
<g id="a_node21"><a xlink:href="../../d0/d7f/classengine_1_1game_object_1_1_game_object.html#ab09d473d8c2afe8cefb2ce2481bc66fd" target="_top" xlink:title="engine.gameObject.GameObject.set\lRenderedNode">
<polygon fill="white" stroke="black" points="440.5,-118 440.5,-148 631.5,-148 631.5,-118 440.5,-118"/>
<text text-anchor="start" x="448.5" y="-136" font-family="Helvetica,sans-Serif" font-size="10.00">engine.gameObject.GameObject.set</text>
<text text-anchor="middle" x="536" y="-125" font-family="Helvetica,sans-Serif" font-size="10.00">RenderedNode</text>
</a>
</g>
</g>
<!-- Node2&#45;&gt;Node21 -->
<g id="edge22" class="edge"><title>Node2&#45;&gt;Node21</title>
<path fill="none" stroke="midnightblue" d="M377.734,-191.993C386.743,-189.138 395.715,-185.821 404,-182 421.689,-173.841 422.271,-165.071 440,-157 444.576,-154.917 449.361,-152.995 454.247,-151.224"/>
<polygon fill="midnightblue" stroke="midnightblue" points="455.392,-154.532 463.737,-148.004 453.143,-147.903 455.392,-154.532"/>
</g>
<!-- Node4 -->
<g id="node4" class="node"><title>Node4</title>
<g id="a_node4"><a xlink:href="../../d2/d82/classengine_1_1render_1_1_rendered_node.html#a520a8c03b505d10c69e010e603cadfdd" target="_top" xlink:title="engine.render.RenderedNode.set\lImageView">
<polygon fill="white" stroke="black" points="682,-289 682,-319 856,-319 856,-289 682,-289"/>
<text text-anchor="start" x="690" y="-307" font-family="Helvetica,sans-Serif" font-size="10.00">engine.render.RenderedNode.set</text>
<text text-anchor="middle" x="769" y="-296" font-family="Helvetica,sans-Serif" font-size="10.00">ImageView</text>
</a>
</g>
</g>
<!-- Node3&#45;&gt;Node4 -->
<g id="edge3" class="edge"><title>Node3&#45;&gt;Node4</title>
<path fill="none" stroke="midnightblue" d="M574.757,-246.045C600.735,-256.097 636.164,-269.218 668,-279 676.327,-281.559 685.103,-284.048 693.857,-286.402"/>
<polygon fill="midnightblue" stroke="midnightblue" points="693.143,-289.834 703.705,-288.999 694.928,-283.065 693.143,-289.834"/>
</g>
<!-- Node5 -->
<g id="node5" class="node"><title>Node5</title>
<g id="a_node5"><a xlink:href="../../d5/d30/classengine_1_1render_1_1_rendered_node_factory.html#ae9ab86f88eb96945a412e561179aa070" target="_top" xlink:title="engine.render.RenderedNode\lFactory.createImageAndView">
<polygon fill="white" stroke="black" points="691,-191 691,-221 847,-221 847,-191 691,-191"/>
<text text-anchor="start" x="699" y="-209" font-family="Helvetica,sans-Serif" font-size="10.00">engine.render.RenderedNode</text>
<text text-anchor="middle" x="769" y="-198" font-family="Helvetica,sans-Serif" font-size="10.00">Factory.createImageAndView</text>
</a>
</g>
</g>
<!-- Node3&#45;&gt;Node5 -->
<g id="edge4" class="edge"><title>Node3&#45;&gt;Node5</title>
<path fill="none" stroke="midnightblue" d="M614.241,-222.641C635.624,-220.326 658.979,-217.799 680.883,-215.428"/>
<polygon fill="midnightblue" stroke="midnightblue" points="681.267,-218.907 690.832,-214.352 680.513,-211.948 681.267,-218.907"/>
</g>
<!-- Node9 -->
<g id="node9" class="node"><title>Node9</title>
<g id="a_node9"><a xlink:href="../../d2/d82/classengine_1_1render_1_1_rendered_node.html#ad73c81ad48b40faea3818c9a7bbfdcf0" target="_top" xlink:title="engine.render.RenderedNode.set\lCollisionBody">
<polygon fill="white" stroke="black" points="682,-103 682,-133 856,-133 856,-103 682,-103"/>
<text text-anchor="start" x="690" y="-121" font-family="Helvetica,sans-Serif" font-size="10.00">engine.render.RenderedNode.set</text>
<text text-anchor="middle" x="769" y="-110" font-family="Helvetica,sans-Serif" font-size="10.00">CollisionBody</text>
</a>
</g>
</g>
<!-- Node3&#45;&gt;Node9 -->
<g id="edge8" class="edge"><title>Node3&#45;&gt;Node9</title>
<path fill="none" stroke="midnightblue" d="M614.208,-216.51C620.548,-213.618 626.588,-210.153 632,-206 657.585,-186.368 642.294,-162.473 668,-143 670.487,-141.116 673.1,-139.372 675.809,-137.759"/>
<polygon fill="midnightblue" stroke="midnightblue" points="677.544,-140.8 684.754,-133.037 674.276,-134.61 677.544,-140.8"/>
</g>
<!-- Node10 -->
<g id="node10" class="node"><title>Node10</title>
<g id="a_node10"><a xlink:href="../../d5/d30/classengine_1_1render_1_1_rendered_node_factory.html#ac14d2f5a3da79d92c967fe22bc82c1ed" target="_top" xlink:title="engine.render.RenderedNode\lFactory.createCollisionBody">
<polygon fill="white" stroke="black" points="691,-54 691,-84 847,-84 847,-54 691,-54"/>
<text text-anchor="start" x="699" y="-72" font-family="Helvetica,sans-Serif" font-size="10.00">engine.render.RenderedNode</text>
<text text-anchor="middle" x="769" y="-61" font-family="Helvetica,sans-Serif" font-size="10.00">Factory.createCollisionBody</text>
</a>
</g>
</g>
<!-- Node3&#45;&gt;Node10 -->
<g id="edge9" class="edge"><title>Node3&#45;&gt;Node10</title>
<path fill="none" stroke="midnightblue" d="M614.282,-218.141C620.761,-214.922 626.807,-210.934 632,-206 670.211,-169.693 629.396,-128.889 668,-93 672.086,-89.2011 676.665,-85.972 681.555,-83.2303"/>
<polygon fill="midnightblue" stroke="midnightblue" points="683.193,-86.3256 690.655,-78.8037 680.131,-80.0309 683.193,-86.3256"/>
</g>
<!-- Node14 -->
<g id="node14" class="node"><title>Node14</title>
<g id="a_node14"><a xlink:href="../../d2/d82/classengine_1_1render_1_1_rendered_node.html#a312c663dd1144ff206ecfa1ea8c95a81" target="_top" xlink:title="engine.render.RenderedNode.set\lLabel">
<polygon fill="white" stroke="black" points="682,-5 682,-35 856,-35 856,-5 682,-5"/>
<text text-anchor="start" x="690" y="-23" font-family="Helvetica,sans-Serif" font-size="10.00">engine.render.RenderedNode.set</text>
<text text-anchor="middle" x="769" y="-12" font-family="Helvetica,sans-Serif" font-size="10.00">Label</text>
</a>
</g>
</g>
<!-- Node3&#45;&gt;Node14 -->
<g id="edge13" class="edge"><title>Node3&#45;&gt;Node14</title>
<path fill="none" stroke="midnightblue" d="M614.3,-218.855C620.859,-215.5 626.916,-211.285 632,-206 683.136,-152.848 616.288,-96.5918 668,-44 669.678,-42.2933 671.455,-40.6995 673.315,-39.2115"/>
<polygon fill="midnightblue" stroke="midnightblue" points="675.652,-41.8552 681.96,-33.3428 671.721,-36.0635 675.652,-41.8552"/>
</g>
<!-- Node15 -->
<g id="node15" class="node"><title>Node15</title>
<g id="a_node15"><a xlink:href="../../d5/d30/classengine_1_1render_1_1_rendered_node_factory.html#a4e1f4508b1c12b958bd3c88a35a4e872" target="_top" xlink:title="engine.render.RenderedNode\lFactory.createLabel">
<polygon fill="white" stroke="black" points="691,-240 691,-270 847,-270 847,-240 691,-240"/>
<text text-anchor="start" x="699" y="-258" font-family="Helvetica,sans-Serif" font-size="10.00">engine.render.RenderedNode</text>
<text text-anchor="middle" x="769" y="-247" font-family="Helvetica,sans-Serif" font-size="10.00">Factory.createLabel</text>
</a>
</g>
</g>
<!-- Node3&#45;&gt;Node15 -->
<g id="edge14" class="edge"><title>Node3&#45;&gt;Node15</title>
<path fill="none" stroke="midnightblue" d="M614.241,-239.025C635.624,-241.247 658.979,-243.673 680.883,-245.949"/>
<polygon fill="midnightblue" stroke="midnightblue" points="680.524,-249.43 690.832,-246.983 681.247,-242.468 680.524,-249.43"/>
</g>
<!-- Node17 -->
<g id="node17" class="node"><title>Node17</title>
<g id="a_node17"><a xlink:href="../../d0/d7f/classengine_1_1game_object_1_1_game_object.html#a606c7293c2bfac0af1fb42143bf527f6" target="_top" xlink:title="engine.gameObject.GameObject.getX">
<polygon fill="white" stroke="black" points="670,-376.5 670,-395.5 868,-395.5 868,-376.5 670,-376.5"/>
<text text-anchor="middle" x="769" y="-383.5" font-family="Helvetica,sans-Serif" font-size="10.00">engine.gameObject.GameObject.getX</text>
</a>
</g>
</g>
<!-- Node3&#45;&gt;Node17 -->
<g id="edge18" class="edge"><title>Node3&#45;&gt;Node17</title>
<path fill="none" stroke="midnightblue" d="M546.786,-246.185C566.153,-274.882 612.352,-336.892 668,-367 672.245,-369.297 676.723,-371.32 681.335,-373.101"/>
<polygon fill="midnightblue" stroke="midnightblue" points="680.364,-376.469 690.959,-376.429 682.652,-369.853 680.364,-376.469"/>
</g>
<!-- Node18 -->
<g id="node18" class="node"><title>Node18</title>
<g id="a_node18"><a xlink:href="../../d0/d7f/classengine_1_1game_object_1_1_game_object.html#a1988806ef560c9384f3844d0666a9450" target="_top" xlink:title="engine.gameObject.GameObject.getY">
<polygon fill="white" stroke="black" points="670.5,-338.5 670.5,-357.5 867.5,-357.5 867.5,-338.5 670.5,-338.5"/>
<text text-anchor="middle" x="769" y="-345.5" font-family="Helvetica,sans-Serif" font-size="10.00">engine.gameObject.GameObject.getY</text>
</a>
</g>
</g>
<!-- Node3&#45;&gt;Node18 -->
<g id="edge19" class="edge"><title>Node3&#45;&gt;Node18</title>
<path fill="none" stroke="midnightblue" d="M552.47,-246.112C575.587,-267.784 621.434,-307.351 668,-328 674.865,-331.044 682.2,-333.628 689.661,-335.822"/>
<polygon fill="midnightblue" stroke="midnightblue" points="688.946,-339.254 699.513,-338.486 690.773,-332.497 688.946,-339.254"/>
</g>
<!-- Node19 -->
<g id="node19" class="node"><title>Node19</title>
<g id="a_node19"><a xlink:href="../../d0/d7f/classengine_1_1game_object_1_1_game_object.html#ae94fe532960bd29f64c2dc19ec0af798" target="_top" xlink:title="engine.gameObject.GameObject.getID">
<polygon fill="white" stroke="black" points="668,-152.5 668,-171.5 870,-171.5 870,-152.5 668,-152.5"/>
<text text-anchor="middle" x="769" y="-159.5" font-family="Helvetica,sans-Serif" font-size="10.00">engine.gameObject.GameObject.getID</text>
</a>
</g>
</g>
<!-- Node3&#45;&gt;Node19 -->
<g id="edge20" class="edge"><title>Node3&#45;&gt;Node19</title>
<path fill="none" stroke="midnightblue" d="M605.414,-215.924C614.518,-213.074 623.601,-209.778 632,-206 649.537,-198.112 650.234,-189.359 668,-182 675.443,-178.917 683.398,-176.298 691.45,-174.076"/>
<polygon fill="midnightblue" stroke="midnightblue" points="692.471,-177.428 701.291,-171.558 690.735,-170.646 692.471,-177.428"/>
</g>
<!-- Node6 -->
<g id="node6" class="node"><title>Node6</title>
<g id="a_node6"><a xlink:href="../../d0/d7f/classengine_1_1game_object_1_1_game_object.html#ae8b88e1cf489e935426e2e252defbae0" target="_top" xlink:title="engine.gameObject.GameObject.get\lCurrentImageName">
<polygon fill="white" stroke="black" points="906,-147 906,-177 1098,-177 1098,-147 906,-147"/>
<text text-anchor="start" x="914" y="-165" font-family="Helvetica,sans-Serif" font-size="10.00">engine.gameObject.GameObject.get</text>
<text text-anchor="middle" x="1002" y="-154" font-family="Helvetica,sans-Serif" font-size="10.00">CurrentImageName</text>
</a>
</g>
</g>
<!-- Node5&#45;&gt;Node6 -->
<g id="edge5" class="edge"><title>Node5&#45;&gt;Node6</title>
<path fill="none" stroke="midnightblue" d="M847.241,-191.287C867.961,-187.341 890.534,-183.041 911.843,-178.982"/>
<polygon fill="midnightblue" stroke="midnightblue" points="912.691,-182.384 921.86,-177.074 911.381,-175.507 912.691,-182.384"/>
</g>
<!-- Node7 -->
<g id="node7" class="node"><title>Node7</title>
<g id="a_node7"><a xlink:href="../../d0/d7f/classengine_1_1game_object_1_1_game_object.html#aaeb5730a3b51fe9cb3d817ea7172cfc2" target="_top" xlink:title="engine.gameObject.GameObject.get\lHeight">
<polygon fill="white" stroke="black" points="906,-245 906,-275 1098,-275 1098,-245 906,-245"/>
<text text-anchor="start" x="914" y="-263" font-family="Helvetica,sans-Serif" font-size="10.00">engine.gameObject.GameObject.get</text>
<text text-anchor="middle" x="1002" y="-252" font-family="Helvetica,sans-Serif" font-size="10.00">Height</text>
</a>
</g>
</g>
<!-- Node5&#45;&gt;Node7 -->
<g id="edge6" class="edge"><title>Node5&#45;&gt;Node7</title>
<path fill="none" stroke="midnightblue" d="M834.346,-221.042C863.012,-227.743 896.946,-235.676 926.687,-242.628"/>
<polygon fill="midnightblue" stroke="midnightblue" points="926.064,-246.077 936.598,-244.945 927.658,-239.261 926.064,-246.077"/>
</g>
<!-- Node8 -->
<g id="node8" class="node"><title>Node8</title>
<g id="a_node8"><a xlink:href="../../d0/d7f/classengine_1_1game_object_1_1_game_object.html#a31aa2c854220621b49fc5575b50b9342" target="_top" xlink:title="engine.gameObject.GameObject.get\lWidth">
<polygon fill="white" stroke="black" points="906,-196 906,-226 1098,-226 1098,-196 906,-196"/>
<text text-anchor="start" x="914" y="-214" font-family="Helvetica,sans-Serif" font-size="10.00">engine.gameObject.GameObject.get</text>
<text text-anchor="middle" x="1002" y="-203" font-family="Helvetica,sans-Serif" font-size="10.00">Width</text>
</a>
</g>
</g>
<!-- Node5&#45;&gt;Node8 -->
<g id="edge7" class="edge"><title>Node5&#45;&gt;Node8</title>
<path fill="none" stroke="midnightblue" d="M847.241,-207.672C862.773,-208.008 879.346,-208.367 895.647,-208.72"/>
<polygon fill="midnightblue" stroke="midnightblue" points="895.676,-212.221 905.75,-208.938 895.828,-205.223 895.676,-212.221"/>
</g>
<!-- Node11 -->
<g id="node11" class="node"><title>Node11</title>
<g id="a_node11"><a xlink:href="../../d0/d7f/classengine_1_1game_object_1_1_game_object.html#a60c5b6933aac9969491a3562a963c043" target="_top" xlink:title="engine.gameObject.GameObject.get\lPhysicsBody">
<polygon fill="white" stroke="black" points="906,-98 906,-128 1098,-128 1098,-98 906,-98"/>
<text text-anchor="start" x="914" y="-116" font-family="Helvetica,sans-Serif" font-size="10.00">engine.gameObject.GameObject.get</text>
<text text-anchor="middle" x="1002" y="-105" font-family="Helvetica,sans-Serif" font-size="10.00">PhysicsBody</text>
</a>
</g>
</g>
<!-- Node10&#45;&gt;Node11 -->
<g id="edge10" class="edge"><title>Node10&#45;&gt;Node11</title>
<path fill="none" stroke="midnightblue" d="M847.241,-83.7125C867.961,-87.6593 890.534,-91.9588 911.843,-96.0177"/>
<polygon fill="midnightblue" stroke="midnightblue" points="911.381,-99.4926 921.86,-97.9256 912.691,-92.6162 911.381,-99.4926"/>
</g>
<!-- Node12 -->
<g id="node12" class="node"><title>Node12</title>
<g id="a_node12"><a xlink:href="../../d9/d9d/classengine_1_1game_object_1_1components_1_1_physics_body.html#aba2ed3bce8ee8e404907c88b144626fc" target="_top" xlink:title="engine.gameObject.components.\lPhysicsBody.getCollisionBodyHeight">
<polygon fill="white" stroke="black" points="908,-49 908,-79 1096,-79 1096,-49 908,-49"/>
<text text-anchor="start" x="916" y="-67" font-family="Helvetica,sans-Serif" font-size="10.00">engine.gameObject.components.</text>
<text text-anchor="middle" x="1002" y="-56" font-family="Helvetica,sans-Serif" font-size="10.00">PhysicsBody.getCollisionBodyHeight</text>
</a>
</g>
</g>
<!-- Node10&#45;&gt;Node12 -->
<g id="edge11" class="edge"><title>Node10&#45;&gt;Node12</title>
<path fill="none" stroke="midnightblue" d="M847.241,-67.3281C863.316,-66.9802 880.506,-66.6081 897.356,-66.2434"/>
<polygon fill="midnightblue" stroke="midnightblue" points="897.868,-69.7332 907.79,-66.0175 897.716,-62.7348 897.868,-69.7332"/>
</g>
<!-- Node13 -->
<g id="node13" class="node"><title>Node13</title>
<g id="a_node13"><a xlink:href="../../d9/d9d/classengine_1_1game_object_1_1components_1_1_physics_body.html#ae64e43632570392c3118b3d00af853fc" target="_top" xlink:title="engine.gameObject.components.\lPhysicsBody.getCollisionBodyWidth">
<polygon fill="white" stroke="black" points="911,-0 911,-30 1093,-30 1093,-0 911,-0"/>
<text text-anchor="start" x="919" y="-18" font-family="Helvetica,sans-Serif" font-size="10.00">engine.gameObject.components.</text>
<text text-anchor="middle" x="1002" y="-7" font-family="Helvetica,sans-Serif" font-size="10.00">PhysicsBody.getCollisionBodyWidth</text>
</a>
</g>
</g>
<!-- Node10&#45;&gt;Node13 -->
<g id="edge12" class="edge"><title>Node10&#45;&gt;Node13</title>
<path fill="none" stroke="midnightblue" d="M834.346,-53.958C863.012,-47.2569 896.946,-39.3244 926.687,-32.3719"/>
<polygon fill="midnightblue" stroke="midnightblue" points="927.658,-35.7394 936.598,-30.0549 926.064,-28.9232 927.658,-35.7394"/>
</g>
<!-- Node15&#45;&gt;Node7 -->
<g id="edge16" class="edge"><title>Node15&#45;&gt;Node7</title>
<path fill="none" stroke="midnightblue" d="M847.241,-256.672C862.773,-257.008 879.346,-257.367 895.647,-257.72"/>
<polygon fill="midnightblue" stroke="midnightblue" points="895.676,-261.221 905.75,-257.938 895.828,-254.223 895.676,-261.221"/>
</g>
<!-- Node15&#45;&gt;Node8 -->
<g id="edge17" class="edge"><title>Node15&#45;&gt;Node8</title>
<path fill="none" stroke="midnightblue" d="M847.241,-240.287C867.961,-236.341 890.534,-232.041 911.843,-227.982"/>
<polygon fill="midnightblue" stroke="midnightblue" points="912.691,-231.384 921.86,-226.074 911.381,-224.507 912.691,-231.384"/>
</g>
<!-- Node15&#45;&gt;Node16 -->
<g id="edge15" class="edge"><title>Node15&#45;&gt;Node16</title>
<path fill="none" stroke="midnightblue" d="M842.528,-270.049C851.936,-272.892 861.313,-276.194 870,-280 908.732,-296.97 948.722,-325.035 974.165,-344.468"/>
<polygon fill="midnightblue" stroke="midnightblue" points="972.163,-347.344 982.213,-350.698 976.448,-341.809 972.163,-347.344"/>
</g>
</g>
</svg>
