<?xml version="1.0" encoding="UTF-8" standalone="no"?>
<!DOCTYPE svg PUBLIC "-//W3C//DTD SVG 1.1//EN"
 "http://www.w3.org/Graphics/SVG/1.1/DTD/svg11.dtd">
<!-- Generated by graphviz version 2.36.0 (20140111.2315)
 -->
<!-- Title: engine.states.State Pages: 1 -->
<svg width="1240pt" height="531pt"
 viewBox="0.00 0.00 1240.00 531.00" xmlns="http://www.w3.org/2000/svg" xmlns:xlink="http://www.w3.org/1999/xlink">
<g id="graph0" class="graph" transform="scale(1 1) rotate(0) translate(4 527)">
<title>engine.states.State</title>
<polygon fill="white" stroke="none" points="-4,4 -4,-527 1236,-527 1236,4 -4,4"/>
<!-- Node1 -->
<g id="node1" class="node"><title>Node1</title>
<polygon fill="#bfbfbf" stroke="black" points="1120.5,-368.5 1120.5,-387.5 1231.5,-387.5 1231.5,-368.5 1120.5,-368.5"/>
<text text-anchor="middle" x="1176" y="-375.5" font-family="Helvetica,sans-Serif" font-size="10.00">engine.states.State</text>
</g>
<!-- Node2 -->
<g id="node2" class="node"><title>Node2</title>
<g id="a_node2"><a xlink:href="../../d0/d7f/classengine_1_1game_object_1_1_game_object.html" target="_top" xlink:title="engine.gameObject.GameObject">
<polygon fill="white" stroke="black" points="878.5,-368.5 878.5,-387.5 1051.5,-387.5 1051.5,-368.5 878.5,-368.5"/>
<text text-anchor="middle" x="965" y="-375.5" font-family="Helvetica,sans-Serif" font-size="10.00">engine.gameObject.GameObject</text>
</a>
</g>
</g>
<!-- Node2&#45;&gt;Node1 -->
<g id="edge1" class="edge"><title>Node2&#45;&gt;Node1</title>
<path fill="none" stroke="#9a32cd" stroke-dasharray="5,2" d="M1061.75,-378C1081.85,-378 1102.38,-378 1120.35,-378"/>
<polygon fill="#9a32cd" stroke="#9a32cd" points="1061.61,-374.5 1051.61,-378 1061.61,-381.5 1061.61,-374.5"/>
<text text-anchor="middle" x="1086" y="-381" font-family="Helvetica,sans-Serif" font-size="10.00"> sprite</text>
</g>
<!-- Node3 -->
<g id="node3" class="node"><title>Node3</title>
<g id="a_node3"><a xlink:href="../../d7/de6/interfaceengine_1_1game_object_1_1_i_enabled.html" target="_top" xlink:title="engine.gameObject.IEnabled">
<polygon fill="white" stroke="black" points="587,-503.5 587,-522.5 741,-522.5 741,-503.5 587,-503.5"/>
<text text-anchor="middle" x="664" y="-510.5" font-family="Helvetica,sans-Serif" font-size="10.00">engine.gameObject.IEnabled</text>
</a>
</g>
</g>
<!-- Node3&#45;&gt;Node2 -->
<g id="edge2" class="edge"><title>Node3&#45;&gt;Node2</title>
<path fill="none" stroke="midnightblue" d="M724.851,-501.152C734.001,-498.989 743.294,-496.588 752,-494 801.214,-479.372 814.791,-477.335 860,-453 896.263,-433.48 934.427,-403.005 952.806,-387.603"/>
<polygon fill="midnightblue" stroke="midnightblue" points="723.978,-497.761 715.011,-503.403 725.54,-504.584 723.978,-497.761"/>
</g>
<!-- Node4 -->
<g id="node4" class="node"><title>Node4</title>
<polygon fill="white" stroke="#bfbfbf" points="598.5,-465.5 598.5,-484.5 729.5,-484.5 729.5,-465.5 598.5,-465.5"/>
<text text-anchor="middle" x="664" y="-472.5" font-family="Helvetica,sans-Serif" font-size="10.00">Iterable&lt; Component &gt;</text>
</g>
<!-- Node4&#45;&gt;Node2 -->
<g id="edge3" class="edge"><title>Node4&#45;&gt;Node2</title>
<path fill="none" stroke="midnightblue" d="M720.577,-463.273C731.037,-460.95 741.868,-458.465 752,-456 800.291,-444.25 813.335,-444.104 860,-427 891.109,-415.598 925.602,-398.38 946.011,-387.683"/>
<polygon fill="midnightblue" stroke="midnightblue" points="719.713,-459.88 710.697,-465.445 721.216,-466.716 719.713,-459.88"/>
</g>
<!-- Node5 -->
<g id="node5" class="node"><title>Node5</title>
<g id="a_node5"><a xlink:href="../../dc/df6/interfaceengine_1_1game_object_1_1_identifiable.html" target="_top" xlink:title="engine.gameObject.Identifiable">
<polygon fill="white" stroke="black" points="581.5,-427.5 581.5,-446.5 746.5,-446.5 746.5,-427.5 581.5,-427.5"/>
<text text-anchor="middle" x="664" y="-434.5" font-family="Helvetica,sans-Serif" font-size="10.00">engine.gameObject.Identifiable</text>
</a>
</g>
</g>
<!-- Node5&#45;&gt;Node2 -->
<g id="edge4" class="edge"><title>Node5&#45;&gt;Node2</title>
<path fill="none" stroke="midnightblue" d="M746.825,-425.952C781.838,-420.719 823.081,-413.882 860,-406 884.321,-400.808 911.442,-393.453 931.889,-387.584"/>
<polygon fill="midnightblue" stroke="midnightblue" points="746.03,-422.531 736.649,-427.454 747.053,-429.456 746.03,-422.531"/>
</g>
<!-- Node6 -->
<g id="node6" class="node"><title>Node6</title>
<g id="a_node6"><a xlink:href="../../d4/dac/classengine_1_1game_object_1_1_identifier.html" target="_top" xlink:title="engine.gameObject.Identifier">
<polygon fill="white" stroke="black" points="586.5,-389.5 586.5,-408.5 741.5,-408.5 741.5,-389.5 586.5,-389.5"/>
<text text-anchor="middle" x="664" y="-396.5" font-family="Helvetica,sans-Serif" font-size="10.00">engine.gameObject.Identifier</text>
</a>
</g>
</g>
<!-- Node6&#45;&gt;Node2 -->
<g id="edge5" class="edge"><title>Node6&#45;&gt;Node2</title>
<path fill="none" stroke="#9a32cd" stroke-dasharray="5,2" d="M751.834,-392.901C791.645,-390.105 838.694,-386.801 878.359,-384.015"/>
<polygon fill="#9a32cd" stroke="#9a32cd" points="751.342,-389.427 741.612,-393.619 751.832,-396.41 751.342,-389.427"/>
<text text-anchor="middle" x="815" y="-394" font-family="Helvetica,sans-Serif" font-size="10.00"> myId</text>
</g>
<!-- Node7 -->
<g id="node7" class="node"><title>Node7</title>
<polygon fill="white" stroke="#bfbfbf" points="294,-390.5 294,-409.5 350,-409.5 350,-390.5 294,-390.5"/>
<text text-anchor="middle" x="322" y="-397.5" font-family="Helvetica,sans-Serif" font-size="10.00">Random</text>
</g>
<!-- Node7&#45;&gt;Node6 -->
<g id="edge6" class="edge"><title>Node7&#45;&gt;Node6</title>
<path fill="none" stroke="#9a32cd" stroke-dasharray="5,2" d="M360.424,-399.89C414.567,-399.731 515.959,-399.432 586.37,-399.225"/>
<polygon fill="#9a32cd" stroke="#9a32cd" points="360.239,-396.39 350.249,-399.92 360.259,-403.39 360.239,-396.39"/>
<text text-anchor="middle" x="500" y="-402" font-family="Helvetica,sans-Serif" font-size="10.00"> r</text>
</g>
<!-- Node8 -->
<g id="node8" class="node"><title>Node8</title>
<polygon fill="white" stroke="#bfbfbf" points="220,-341 220,-371 424,-371 424,-341 220,-341"/>
<text text-anchor="start" x="228" y="-359" font-family="Helvetica,sans-Serif" font-size="10.00">List&lt; engine.gameObject.components.</text>
<text text-anchor="middle" x="322" y="-348" font-family="Helvetica,sans-Serif" font-size="10.00">Component &gt;</text>
</g>
<!-- Node8&#45;&gt;Node2 -->
<g id="edge7" class="edge"><title>Node8&#45;&gt;Node2</title>
<path fill="none" stroke="#9a32cd" stroke-dasharray="5,2" d="M434.537,-359.009C521.132,-361.435 644.2,-365.079 752,-369 793.6,-370.513 839.781,-372.444 878.394,-374.129"/>
<polygon fill="#9a32cd" stroke="#9a32cd" points="434.52,-355.507 424.426,-358.727 434.324,-362.505 434.52,-355.507"/>
<text text-anchor="middle" x="664" y="-372" font-family="Helvetica,sans-Serif" font-size="10.00"> myComponents</text>
</g>
<!-- Node20 -->
<g id="node20" class="node"><title>Node20</title>
<g id="a_node20"><a xlink:href="../../d6/d66/classengine_1_1game_object_1_1_default_data.html" target="_top" xlink:title="engine.gameObject.DefaultData">
<polygon fill="white" stroke="black" points="578.5,-304.5 578.5,-323.5 749.5,-323.5 749.5,-304.5 578.5,-304.5"/>
<text text-anchor="middle" x="664" y="-311.5" font-family="Helvetica,sans-Serif" font-size="10.00">engine.gameObject.DefaultData</text>
</a>
</g>
</g>
<!-- Node8&#45;&gt;Node20 -->
<g id="edge20" class="edge"><title>Node8&#45;&gt;Node20</title>
<path fill="none" stroke="#9a32cd" stroke-dasharray="5,2" d="M413.259,-339.292C422.944,-337.732 432.665,-336.265 442,-335 486.875,-328.918 537.114,-323.995 578.339,-320.449"/>
<polygon fill="#9a32cd" stroke="#9a32cd" points="412.497,-335.87 403.198,-340.946 413.633,-342.778 412.497,-335.87"/>
<text text-anchor="middle" x="500" y="-338" font-family="Helvetica,sans-Serif" font-size="10.00"> myComponents</text>
</g>
<!-- Node9 -->
<g id="node9" class="node"><title>Node9</title>
<g id="a_node9"><a xlink:href="../../d2/d82/classengine_1_1render_1_1_rendered_node.html" target="_top" xlink:title="engine.render.RenderedNode">
<polygon fill="white" stroke="black" points="586,-264.5 586,-283.5 742,-283.5 742,-264.5 586,-264.5"/>
<text text-anchor="middle" x="664" y="-271.5" font-family="Helvetica,sans-Serif" font-size="10.00">engine.render.RenderedNode</text>
</a>
</g>
</g>
<!-- Node9&#45;&gt;Node2 -->
<g id="edge8" class="edge"><title>Node9&#45;&gt;Node2</title>
<path fill="none" stroke="#9a32cd" stroke-dasharray="5,2" d="M752.226,-279.348C786.739,-283.629 826.166,-291.296 860,-305 898.234,-320.486 936.103,-352.3 953.74,-368.324"/>
<polygon fill="#9a32cd" stroke="#9a32cd" points="752.497,-275.856 742.16,-278.177 751.688,-282.809 752.497,-275.856"/>
<text text-anchor="middle" x="815" y="-308" font-family="Helvetica,sans-Serif" font-size="10.00"> myRenderedNode</text>
</g>
<!-- Node10 -->
<g id="node10" class="node"><title>Node10</title>
<polygon fill="white" stroke="#bfbfbf" points="299,-302.5 299,-321.5 345,-321.5 345,-302.5 299,-302.5"/>
<text text-anchor="middle" x="322" y="-309.5" font-family="Helvetica,sans-Serif" font-size="10.00">Group</text>
</g>
<!-- Node10&#45;&gt;Node9 -->
<g id="edge9" class="edge"><title>Node10&#45;&gt;Node9</title>
<path fill="none" stroke="midnightblue" d="M355.139,-308.758C400.415,-304.15 485.549,-295.338 558,-287 567.489,-285.908 577.455,-284.723 587.313,-283.528"/>
<polygon fill="midnightblue" stroke="midnightblue" points="354.641,-305.29 345.045,-309.782 355.348,-312.254 354.641,-305.29"/>
</g>
<!-- Node11 -->
<g id="node11" class="node"><title>Node11</title>
<polygon fill="white" stroke="#bfbfbf" points="301,-264.5 301,-283.5 343,-283.5 343,-264.5 301,-264.5"/>
<text text-anchor="middle" x="322" y="-271.5" font-family="Helvetica,sans-Serif" font-size="10.00">Label</text>
</g>
<!-- Node11&#45;&gt;Node9 -->
<g id="edge10" class="edge"><title>Node11&#45;&gt;Node9</title>
<path fill="none" stroke="#9a32cd" stroke-dasharray="5,2" d="M353.45,-274C405.32,-274 512.332,-274 585.879,-274"/>
<polygon fill="#9a32cd" stroke="#9a32cd" points="353.25,-270.5 343.25,-274 353.25,-277.5 353.25,-270.5"/>
<text text-anchor="middle" x="500" y="-277" font-family="Helvetica,sans-Serif" font-size="10.00"> myLabel</text>
</g>
<!-- Node12 -->
<g id="node12" class="node"><title>Node12</title>
<polygon fill="white" stroke="#bfbfbf" points="288,-226.5 288,-245.5 356,-245.5 356,-226.5 288,-226.5"/>
<text text-anchor="middle" x="322" y="-233.5" font-family="Helvetica,sans-Serif" font-size="10.00">ImageView</text>
</g>
<!-- Node12&#45;&gt;Node9 -->
<g id="edge11" class="edge"><title>Node12&#45;&gt;Node9</title>
<path fill="none" stroke="#9a32cd" stroke-dasharray="5,2" d="M366.298,-239.658C413.496,-243.781 491.215,-250.965 558,-259 571.438,-260.617 585.814,-262.541 599.483,-264.464"/>
<polygon fill="#9a32cd" stroke="#9a32cd" points="366.395,-236.154 356.13,-238.776 365.79,-243.128 366.395,-236.154"/>
<text text-anchor="middle" x="500" y="-262" font-family="Helvetica,sans-Serif" font-size="10.00"> myImageView</text>
</g>
<!-- Node13 -->
<g id="node13" class="node"><title>Node13</title>
<polygon fill="white" stroke="#bfbfbf" points="301,-188.5 301,-207.5 343,-207.5 343,-188.5 301,-188.5"/>
<text text-anchor="middle" x="322" y="-195.5" font-family="Helvetica,sans-Serif" font-size="10.00">Node</text>
</g>
<!-- Node13&#45;&gt;Node9 -->
<g id="edge12" class="edge"><title>Node13&#45;&gt;Node9</title>
<path fill="none" stroke="#9a32cd" stroke-dasharray="5,2" d="M353.143,-200.067C398.308,-203.677 485.938,-212.668 558,-232 588.53,-240.19 622.189,-254.691 642.966,-264.325"/>
<polygon fill="#9a32cd" stroke="#9a32cd" points="353.367,-196.574 343.129,-199.3 352.833,-203.554 353.367,-196.574"/>
<text text-anchor="middle" x="500" y="-235" font-family="Helvetica,sans-Serif" font-size="10.00"> myCollisionBody</text>
</g>
<!-- Node14 -->
<g id="node14" class="node"><title>Node14</title>
<g id="a_node14"><a xlink:href="../../d9/d9d/classengine_1_1game_object_1_1components_1_1_physics_body.html" target="_top" xlink:title="engine.gameObject.components.\lPhysicsBody">
<polygon fill="white" stroke="black" points="576,-90 576,-120 752,-120 752,-90 576,-90"/>
<text text-anchor="start" x="584" y="-108" font-family="Helvetica,sans-Serif" font-size="10.00">engine.gameObject.components.</text>
<text text-anchor="middle" x="664" y="-97" font-family="Helvetica,sans-Serif" font-size="10.00">PhysicsBody</text>
</a>
</g>
</g>
<!-- Node14&#45;&gt;Node2 -->
<g id="edge13" class="edge"><title>Node14&#45;&gt;Node2</title>
<path fill="none" stroke="#9a32cd" stroke-dasharray="5,2" d="M692.624,-126.407C731.212,-156.682 802.931,-214.316 860,-268 897.329,-303.114 938.132,-348.558 955.458,-368.221"/>
<polygon fill="#9a32cd" stroke="#9a32cd" points="694.491,-123.424 684.458,-120.021 690.179,-128.938 694.491,-123.424"/>
<text text-anchor="middle" x="815" y="-271" font-family="Helvetica,sans-Serif" font-size="10.00"> myPhysicsBody</text>
</g>
<!-- Node15 -->
<g id="node15" class="node"><title>Node15</title>
<polygon fill="white" stroke="#bfbfbf" points="244,-139 244,-169 400,-169 400,-139 244,-139"/>
<text text-anchor="start" x="252" y="-157" font-family="Helvetica,sans-Serif" font-size="10.00">Map&lt; String, engine.physics.</text>
<text text-anchor="middle" x="322" y="-146" font-family="Helvetica,sans-Serif" font-size="10.00">Scalar &gt;</text>
</g>
<!-- Node15&#45;&gt;Node14 -->
<g id="edge14" class="edge"><title>Node15&#45;&gt;Node14</title>
<path fill="none" stroke="#9a32cd" stroke-dasharray="5,2" d="M410.15,-141.44C461.059,-134.103 525.089,-124.875 575.976,-117.542"/>
<polygon fill="#9a32cd" stroke="#9a32cd" points="409.55,-137.99 400.151,-142.881 410.548,-144.919 409.55,-137.99"/>
<text text-anchor="middle" x="500" y="-140" font-family="Helvetica,sans-Serif" font-size="10.00"> myConstants</text>
</g>
<!-- Node16 -->
<g id="node16" class="node"><title>Node16</title>
<polygon fill="white" stroke="#bfbfbf" points="244,-90 244,-120 400,-120 400,-90 244,-90"/>
<text text-anchor="start" x="252" y="-108" font-family="Helvetica,sans-Serif" font-size="10.00">Map&lt; String, engine.physics.</text>
<text text-anchor="middle" x="322" y="-97" font-family="Helvetica,sans-Serif" font-size="10.00">Force &gt;</text>
</g>
<!-- Node16&#45;&gt;Node14 -->
<g id="edge15" class="edge"><title>Node16&#45;&gt;Node14</title>
<path fill="none" stroke="#9a32cd" stroke-dasharray="5,2" d="M410.469,-105C461.326,-105 525.195,-105 575.976,-105"/>
<polygon fill="#9a32cd" stroke="#9a32cd" points="410.151,-101.5 400.151,-105 410.151,-108.5 410.151,-101.5"/>
<text text-anchor="middle" x="500" y="-108" font-family="Helvetica,sans-Serif" font-size="10.00"> myActiveForces</text>
</g>
<!-- Node17 -->
<g id="node17" class="node"><title>Node17</title>
<polygon fill="white" stroke="#bfbfbf" points="238.5,-51.5 238.5,-70.5 405.5,-70.5 405.5,-51.5 238.5,-51.5"/>
<text text-anchor="middle" x="322" y="-58.5" font-family="Helvetica,sans-Serif" font-size="10.00">List&lt; engine.physics.Impulse &gt;</text>
</g>
<!-- Node17&#45;&gt;Node14 -->
<g id="edge16" class="edge"><title>Node17&#45;&gt;Node14</title>
<path fill="none" stroke="#9a32cd" stroke-dasharray="5,2" d="M413.301,-71.7342C457.026,-77.0363 510.273,-83.6466 558,-90 563.841,-90.7775 569.862,-91.5951 575.928,-92.4305"/>
<polygon fill="#9a32cd" stroke="#9a32cd" points="413.611,-68.2463 403.263,-70.5197 412.771,-75.1957 413.611,-68.2463"/>
<text text-anchor="middle" x="500" y="-93" font-family="Helvetica,sans-Serif" font-size="10.00"> myImpulses</text>
</g>
<!-- Node18 -->
<g id="node18" class="node"><title>Node18</title>
<g id="a_node18"><a xlink:href="../../d5/d1f/classengine_1_1physics_1_1_vector.html" target="_top" xlink:title="engine.physics.Vector">
<polygon fill="white" stroke="black" points="261.5,-0.5 261.5,-19.5 382.5,-19.5 382.5,-0.5 261.5,-0.5"/>
<text text-anchor="middle" x="322" y="-7.5" font-family="Helvetica,sans-Serif" font-size="10.00">engine.physics.Vector</text>
</a>
</g>
</g>
<!-- Node18&#45;&gt;Node14 -->
<g id="edge17" class="edge"><title>Node18&#45;&gt;Node14</title>
<path fill="none" stroke="#9a32cd" stroke-dasharray="5,2" d="M392.815,-10.6846C440.552,-13.047 504.601,-19.9922 558,-39 591.064,-50.7693 624.591,-74.3083 644.587,-89.8575"/>
<polygon fill="#9a32cd" stroke="#9a32cd" points="392.725,-7.17735 382.581,-10.2356 392.418,-14.1706 392.725,-7.17735"/>
<text text-anchor="middle" x="500" y="-64" font-family="Helvetica,sans-Serif" font-size="10.00"> myBalancedForcesMag</text>
<text text-anchor="middle" x="500" y="-53" font-family="Helvetica,sans-Serif" font-size="10.00">myVelocity</text>
<text text-anchor="middle" x="500" y="-42" font-family="Helvetica,sans-Serif" font-size="10.00">myAcceleration</text>
</g>
<!-- Node19 -->
<g id="node19" class="node"><title>Node19</title>
<g id="a_node19"><a xlink:href="../../dc/db5/classengine_1_1physics_1_1_physics_component.html" target="_top" xlink:title="engine.physics.PhysicsComponent">
<polygon fill="white" stroke="black" points="0,-0.5 0,-19.5 182,-19.5 182,-0.5 0,-0.5"/>
<text text-anchor="middle" x="91" y="-7.5" font-family="Helvetica,sans-Serif" font-size="10.00">engine.physics.PhysicsComponent</text>
</a>
</g>
</g>
<!-- Node19&#45;&gt;Node18 -->
<g id="edge18" class="edge"><title>Node19&#45;&gt;Node18</title>
<path fill="none" stroke="midnightblue" d="M192.202,-10C215.737,-10 240.089,-10 261.2,-10"/>
<polygon fill="midnightblue" stroke="midnightblue" points="192.178,-6.5001 182.178,-10 192.178,-13.5001 192.178,-6.5001"/>
</g>
<!-- Node20&#45;&gt;Node2 -->
<g id="edge19" class="edge"><title>Node20&#45;&gt;Node2</title>
<path fill="none" stroke="#9a32cd" stroke-dasharray="5,2" d="M760.188,-318.795C792.247,-321.848 827.995,-326.839 860,-335 891.049,-342.917 924.998,-358.338 945.389,-368.399"/>
<polygon fill="#9a32cd" stroke="#9a32cd" points="760.191,-315.282 749.918,-317.871 759.564,-322.254 760.191,-315.282"/>
<text text-anchor="middle" x="815" y="-338" font-family="Helvetica,sans-Serif" font-size="10.00"> myDefaultData</text>
</g>
</g>
</svg>
