<?xml version="1.0" encoding="UTF-8" standalone="no"?>
<!DOCTYPE svg PUBLIC "-//W3C//DTD SVG 1.1//EN"
 "http://www.w3.org/Graphics/SVG/1.1/DTD/svg11.dtd">
<!-- Generated by graphviz version 2.36.0 (20140111.2315)
 -->
<!-- Title: engine.states.State Pages: 1 -->
<!--zoomable 580 -->
<svg id="main" version="1.1" xmlns="http://www.w3.org/2000/svg" xmlns:xlink="http://www.w3.org/1999/xlink" xml:space="preserve" onload="init(evt)">
<style type="text/css"><![CDATA[
.edge:hover path { stroke: red; }
.edge:hover polygon { stroke: red; fill: red; }
]]></style>
<script type="text/javascript"><![CDATA[
var edges = document.getElementsByTagName('g');
if (edges && edges.length) {
  for (var i=0;i<edges.length;i++) {
    if (edges[i].id.substr(0,4)=='edge') {
      edges[i].setAttribute('class','edge');
    }
  }
}
]]></script>
        <defs>
                <circle id="rim" cx="0" cy="0" r="7"/>
                <circle id="rim2" cx="0" cy="0" r="3.5"/>
                <g id="zoomPlus">
                        <use xlink:href="#rim" fill="#404040">
                                <set attributeName="fill" to="#808080" begin="zoomplus.mouseover" end="zoomplus.mouseout"/>
                        </use>
                        <path d="M-4,0h8M0,-4v8" fill="none" stroke="white" stroke-width="1.5" pointer-events="none"/>
                </g>
                <g id="zoomMin">
                        <use xlink:href="#rim" fill="#404040">
                                <set attributeName="fill" to="#808080" begin="zoomminus.mouseover" end="zoomminus.mouseout"/>
                        </use>
                        <path d="M-4,0h8" fill="none" stroke="white" stroke-width="1.5" pointer-events="none"/>
                </g>
                <g id="dirArrow">
                        <path fill="none" stroke="white" stroke-width="1.5" d="M0,-3.0v7 M-2.5,-0.5L0,-3.0L2.5,-0.5"/>
                </g>
               <g id="resetDef">
                       <use xlink:href="#rim2" fill="#404040">
                               <set attributeName="fill" to="#808080" begin="reset.mouseover" end="reset.mouseout"/>
                       </use>
               </g>
        </defs>

<script type="text/javascript">
var viewWidth = 1240;
var viewHeight = 580;
var sectionId = 'dynsection-0';
</script>
<script xlink:href="../../svgpan.js"/>
<svg id="graph" class="graph">
<g id="viewport">
<title>engine.states.State</title>
<polygon fill="white" stroke="none" points="-4,4 -4,-576 1236,-576 1236,4 -4,4"/>
<!-- Node1 -->
<g id="node1" class="node"><title>Node1</title>
<polygon fill="#bfbfbf" stroke="black" points="1120.5,-368.5 1120.5,-387.5 1231.5,-387.5 1231.5,-368.5 1120.5,-368.5"/>
<text text-anchor="middle" x="1176" y="-375.5" font-family="Helvetica,sans-Serif" font-size="10.00">engine.states.State</text>
</g>
<!-- Node2 -->
<g id="node2" class="node"><title>Node2</title>
<g id="a_node2"><a xlink:href="../../d0/d7f/classengine_1_1game_object_1_1_game_object.html" target="_top" xlink:title="engine.gameObject.GameObject">
<polygon fill="white" stroke="black" points="878.5,-368.5 878.5,-387.5 1051.5,-387.5 1051.5,-368.5 878.5,-368.5"/>
<text text-anchor="middle" x="965" y="-375.5" font-family="Helvetica,sans-Serif" font-size="10.00">engine.gameObject.GameObject</text>
</a>
</g>
</g>
<!-- Node2&#45;&gt;Node1 -->
<g id="edge1" class="edge"><title>Node2&#45;&gt;Node1</title>
<path fill="none" stroke="#9a32cd" stroke-dasharray="5,2" d="M1061.75,-378C1081.85,-378 1102.38,-378 1120.35,-378"/>
<polygon fill="#9a32cd" stroke="#9a32cd" points="1061.61,-374.5 1051.61,-378 1061.61,-381.5 1061.61,-374.5"/>
<text text-anchor="middle" x="1086" y="-381" font-family="Helvetica,sans-Serif" font-size="10.00"> sprite</text>
</g>
<!-- Node3 -->
<g id="node3" class="node"><title>Node3</title>
<g id="a_node3"><a xlink:href="../../d7/de6/interfaceengine_1_1game_object_1_1_i_enabled.html" target="_top" xlink:title="engine.gameObject.IEnabled">
<polygon fill="white" stroke="black" points="587,-552.5 587,-571.5 741,-571.5 741,-552.5 587,-552.5"/>
<text text-anchor="middle" x="664" y="-559.5" font-family="Helvetica,sans-Serif" font-size="10.00">engine.gameObject.IEnabled</text>
</a>
</g>
</g>
<!-- Node3&#45;&gt;Node2 -->
<g id="edge2" class="edge"><title>Node3&#45;&gt;Node2</title>
<path fill="none" stroke="midnightblue" d="M730.825,-550.157C770.988,-540.525 821.78,-523.833 860,-496 904.369,-463.689 943.178,-409.373 957.805,-387.525"/>
<polygon fill="midnightblue" stroke="midnightblue" points="729.814,-546.799 720.857,-552.457 731.388,-553.619 729.814,-546.799"/>
</g>
<!-- Node4 -->
<g id="node4" class="node"><title>Node4</title>
<polygon fill="white" stroke="#bfbfbf" points="598.5,-514.5 598.5,-533.5 729.5,-533.5 729.5,-514.5 598.5,-514.5"/>
<text text-anchor="middle" x="664" y="-521.5" font-family="Helvetica,sans-Serif" font-size="10.00">Iterable&lt; Component &gt;</text>
</g>
<!-- Node4&#45;&gt;Node2 -->
<g id="edge3" class="edge"><title>Node4&#45;&gt;Node2</title>
<path fill="none" stroke="midnightblue" d="M723.828,-512.256C733.3,-510.049 742.959,-507.607 752,-505 801.035,-490.858 815.824,-491.552 860,-466 899.105,-443.381 937.75,-405.528 954.854,-387.764"/>
<polygon fill="midnightblue" stroke="midnightblue" points="723.038,-508.846 714.058,-514.468 724.584,-515.673 723.038,-508.846"/>
</g>
<!-- Node5 -->
<g id="node5" class="node"><title>Node5</title>
<g id="a_node5"><a xlink:href="../../dc/df6/interfaceengine_1_1game_object_1_1_identifiable.html" target="_top" xlink:title="engine.gameObject.Identifiable">
<polygon fill="white" stroke="black" points="581.5,-476.5 581.5,-495.5 746.5,-495.5 746.5,-476.5 581.5,-476.5"/>
<text text-anchor="middle" x="664" y="-483.5" font-family="Helvetica,sans-Serif" font-size="10.00">engine.gameObject.Identifiable</text>
</a>
</g>
</g>
<!-- Node5&#45;&gt;Node2 -->
<g id="edge4" class="edge"><title>Node5&#45;&gt;Node2</title>
<path fill="none" stroke="midnightblue" d="M719.119,-474.29C730.011,-471.903 741.376,-469.39 752,-467 800.068,-456.188 814.422,-460.712 860,-442 895.498,-427.427 932.788,-401.468 951.592,-387.508"/>
<polygon fill="midnightblue" stroke="midnightblue" points="718.304,-470.886 709.283,-476.441 719.8,-477.724 718.304,-470.886"/>
</g>
<!-- Node6 -->
<g id="node6" class="node"><title>Node6</title>
<g id="a_node6"><a xlink:href="../../d4/dac/classengine_1_1game_object_1_1_identifier.html" target="_top" xlink:title="engine.gameObject.Identifier">
<polygon fill="white" stroke="black" points="586.5,-438.5 586.5,-457.5 741.5,-457.5 741.5,-438.5 586.5,-438.5"/>
<text text-anchor="middle" x="664" y="-445.5" font-family="Helvetica,sans-Serif" font-size="10.00">engine.gameObject.Identifier</text>
</a>
</g>
</g>
<!-- Node6&#45;&gt;Node2 -->
<g id="edge5" class="edge"><title>Node6&#45;&gt;Node2</title>
<path fill="none" stroke="#9a32cd" stroke-dasharray="5,2" d="M729.468,-436.654C767.62,-429.555 816.786,-419.738 860,-409 885.416,-402.685 913.892,-394.088 934.613,-387.55"/>
<polygon fill="#9a32cd" stroke="#9a32cd" points="728.714,-433.234 719.516,-438.49 729.985,-440.117 728.714,-433.234"/>
<text text-anchor="middle" x="815" y="-430" font-family="Helvetica,sans-Serif" font-size="10.00"> myId</text>
</g>
<!-- Node7 -->
<g id="node7" class="node"><title>Node7</title>
<polygon fill="white" stroke="#bfbfbf" points="294,-438.5 294,-457.5 350,-457.5 350,-438.5 294,-438.5"/>
<text text-anchor="middle" x="322" y="-445.5" font-family="Helvetica,sans-Serif" font-size="10.00">Random</text>
</g>
<!-- Node7&#45;&gt;Node6 -->
<g id="edge6" class="edge"><title>Node7&#45;&gt;Node6</title>
<path fill="none" stroke="#9a32cd" stroke-dasharray="5,2" d="M360.424,-448C414.567,-448 515.959,-448 586.37,-448"/>
<polygon fill="#9a32cd" stroke="#9a32cd" points="360.249,-444.5 350.249,-448 360.249,-451.5 360.249,-444.5"/>
<text text-anchor="middle" x="500" y="-451" font-family="Helvetica,sans-Serif" font-size="10.00"> r</text>
</g>
<!-- Node8 -->
<g id="node8" class="node"><title>Node8</title>
<g id="a_node8"><a xlink:href="../../da/d35/classengine_1_1scrolling_1_1_scrolling_utility.html" target="_top" xlink:title="engine.scrolling.Scrolling\lUtility">
<polygon fill="white" stroke="black" points="597,-389 597,-419 731,-419 731,-389 597,-389"/>
<text text-anchor="start" x="605" y="-407" font-family="Helvetica,sans-Serif" font-size="10.00">engine.scrolling.Scrolling</text>
<text text-anchor="middle" x="664" y="-396" font-family="Helvetica,sans-Serif" font-size="10.00">Utility</text>
</a>
</g>
</g>
<!-- Node8&#45;&gt;Node2 -->
<g id="edge7" class="edge"><title>Node8&#45;&gt;Node2</title>
<path fill="none" stroke="#9a32cd" stroke-dasharray="5,2" d="M741.493,-397.348C783.343,-393.709 835.309,-389.191 878.494,-385.435"/>
<polygon fill="#9a32cd" stroke="#9a32cd" points="741.017,-393.877 731.358,-398.23 741.623,-400.85 741.017,-393.877"/>
<text text-anchor="middle" x="815" y="-397" font-family="Helvetica,sans-Serif" font-size="10.00"> myScrollingUtility</text>
</g>
<!-- Node9 -->
<g id="node9" class="node"><title>Node9</title>
<polygon fill="white" stroke="#bfbfbf" points="294.5,-394.5 294.5,-413.5 349.5,-413.5 349.5,-394.5 294.5,-394.5"/>
<text text-anchor="middle" x="322" y="-401.5" font-family="Helvetica,sans-Serif" font-size="10.00">Camera</text>
</g>
<!-- Node9&#45;&gt;Node8 -->
<g id="edge8" class="edge"><title>Node9&#45;&gt;Node8</title>
<path fill="none" stroke="#9a32cd" stroke-dasharray="5,2" d="M359.967,-404C416.691,-404 526.038,-404 596.701,-404"/>
<polygon fill="#9a32cd" stroke="#9a32cd" points="359.679,-400.5 349.679,-404 359.679,-407.5 359.679,-400.5"/>
<text text-anchor="middle" x="500" y="-407" font-family="Helvetica,sans-Serif" font-size="10.00"> myCamera</text>
</g>
<!-- Node10 -->
<g id="node10" class="node"><title>Node10</title>
<polygon fill="white" stroke="#bfbfbf" points="220,-343 220,-373 424,-373 424,-343 220,-343"/>
<text text-anchor="start" x="228" y="-361" font-family="Helvetica,sans-Serif" font-size="10.00">List&lt; engine.gameObject.components.</text>
<text text-anchor="middle" x="322" y="-350" font-family="Helvetica,sans-Serif" font-size="10.00">Component &gt;</text>
</g>
<!-- Node10&#45;&gt;Node2 -->
<g id="edge9" class="edge"><title>Node10&#45;&gt;Node2</title>
<path fill="none" stroke="#9a32cd" stroke-dasharray="5,2" d="M434.54,-360.347C521.136,-362.293 644.205,-365.33 752,-369 793.604,-370.416 839.785,-372.336 878.397,-374.038"/>
<polygon fill="#9a32cd" stroke="#9a32cd" points="434.504,-356.845 424.429,-360.121 434.348,-363.844 434.504,-356.845"/>
<text text-anchor="middle" x="664" y="-372" font-family="Helvetica,sans-Serif" font-size="10.00"> myComponents</text>
</g>
<!-- Node23 -->
<g id="node23" class="node"><title>Node23</title>
<g id="a_node23"><a xlink:href="../../d6/d66/classengine_1_1game_object_1_1_default_data.html" target="_top" xlink:title="engine.gameObject.DefaultData">
<polygon fill="white" stroke="black" points="578.5,-303.5 578.5,-322.5 749.5,-322.5 749.5,-303.5 578.5,-303.5"/>
<text text-anchor="middle" x="664" y="-310.5" font-family="Helvetica,sans-Serif" font-size="10.00">engine.gameObject.DefaultData</text>
</a>
</g>
</g>
<!-- Node10&#45;&gt;Node23 -->
<g id="edge23" class="edge"><title>Node10&#45;&gt;Node23</title>
<path fill="none" stroke="#9a32cd" stroke-dasharray="5,2" d="M401.56,-340.953C415.009,-338.38 428.875,-335.942 442,-334 486.798,-327.373 537.03,-322.405 578.271,-318.97"/>
<polygon fill="#9a32cd" stroke="#9a32cd" points="400.52,-337.589 391.376,-342.94 401.862,-344.46 400.52,-337.589"/>
<text text-anchor="middle" x="500" y="-337" font-family="Helvetica,sans-Serif" font-size="10.00"> myComponents</text>
</g>
<!-- Node11 -->
<g id="node11" class="node"><title>Node11</title>
<g id="a_node11"><a xlink:href="../../d2/d82/classengine_1_1render_1_1_rendered_node.html" target="_top" xlink:title="engine.render.RenderedNode">
<polygon fill="white" stroke="black" points="586,-265.5 586,-284.5 742,-284.5 742,-265.5 586,-265.5"/>
<text text-anchor="middle" x="664" y="-272.5" font-family="Helvetica,sans-Serif" font-size="10.00">engine.render.RenderedNode</text>
</a>
</g>
</g>
<!-- Node11&#45;&gt;Node2 -->
<g id="edge10" class="edge"><title>Node11&#45;&gt;Node2</title>
<path fill="none" stroke="#9a32cd" stroke-dasharray="5,2" d="M752.255,-279.182C786.771,-283.071 826.194,-290.378 860,-304 898.641,-319.57 936.616,-352.18 954.064,-368.406"/>
<polygon fill="#9a32cd" stroke="#9a32cd" points="752.497,-275.689 742.186,-278.128 751.767,-282.651 752.497,-275.689"/>
<text text-anchor="middle" x="815" y="-307" font-family="Helvetica,sans-Serif" font-size="10.00"> myRenderedNode</text>
</g>
<!-- Node12 -->
<g id="node12" class="node"><title>Node12</title>
<polygon fill="white" stroke="#bfbfbf" points="299,-302.5 299,-321.5 345,-321.5 345,-302.5 299,-302.5"/>
<text text-anchor="middle" x="322" y="-309.5" font-family="Helvetica,sans-Serif" font-size="10.00">Group</text>
</g>
<!-- Node12&#45;&gt;Node11 -->
<g id="edge11" class="edge"><title>Node12&#45;&gt;Node11</title>
<path fill="none" stroke="midnightblue" d="M355.106,-308.506C407.568,-302.797 513.107,-291.312 585.879,-283.393"/>
<polygon fill="midnightblue" stroke="midnightblue" points="354.609,-305.039 345.046,-309.601 355.366,-311.998 354.609,-305.039"/>
</g>
<!-- Node13 -->
<g id="node13" class="node"><title>Node13</title>
<polygon fill="white" stroke="#bfbfbf" points="301,-264.5 301,-283.5 343,-283.5 343,-264.5 301,-264.5"/>
<text text-anchor="middle" x="322" y="-271.5" font-family="Helvetica,sans-Serif" font-size="10.00">Label</text>
</g>
<!-- Node13&#45;&gt;Node11 -->
<g id="edge12" class="edge"><title>Node13&#45;&gt;Node11</title>
<path fill="none" stroke="#9a32cd" stroke-dasharray="5,2" d="M353.45,-274.09C405.32,-274.242 512.332,-274.557 585.879,-274.773"/>
<polygon fill="#9a32cd" stroke="#9a32cd" points="353.261,-270.589 343.25,-274.06 353.24,-277.589 353.261,-270.589"/>
<text text-anchor="middle" x="500" y="-278" font-family="Helvetica,sans-Serif" font-size="10.00"> myLabel</text>
</g>
<!-- Node14 -->
<g id="node14" class="node"><title>Node14</title>
<polygon fill="white" stroke="#bfbfbf" points="288,-226.5 288,-245.5 356,-245.5 356,-226.5 288,-226.5"/>
<text text-anchor="middle" x="322" y="-233.5" font-family="Helvetica,sans-Serif" font-size="10.00">ImageView</text>
</g>
<!-- Node14&#45;&gt;Node11 -->
<g id="edge13" class="edge"><title>Node14&#45;&gt;Node11</title>
<path fill="none" stroke="#9a32cd" stroke-dasharray="5,2" d="M366.293,-239.897C413.488,-244.267 491.204,-251.821 558,-260 571.343,-261.634 585.614,-263.555 599.199,-265.468"/>
<polygon fill="#9a32cd" stroke="#9a32cd" points="366.406,-236.392 356.127,-238.961 365.764,-243.363 366.406,-236.392"/>
<text text-anchor="middle" x="500" y="-263" font-family="Helvetica,sans-Serif" font-size="10.00"> myImageView</text>
</g>
<!-- Node15 -->
<g id="node15" class="node"><title>Node15</title>
<polygon fill="white" stroke="#bfbfbf" points="301,-188.5 301,-207.5 343,-207.5 343,-188.5 301,-188.5"/>
<text text-anchor="middle" x="322" y="-195.5" font-family="Helvetica,sans-Serif" font-size="10.00">Node</text>
</g>
<!-- Node15&#45;&gt;Node11 -->
<g id="edge14" class="edge"><title>Node15&#45;&gt;Node11</title>
<path fill="none" stroke="#9a32cd" stroke-dasharray="5,2" d="M353.34,-195.657C400.483,-193.448 492.687,-194.969 558,-233 569.217,-239.532 565.008,-249.095 576,-256 582.153,-259.865 588.979,-262.952 596.024,-265.415"/>
<polygon fill="#9a32cd" stroke="#9a32cd" points="352.966,-192.172 343.177,-196.226 353.357,-199.162 352.966,-192.172"/>
<text text-anchor="middle" x="500" y="-236" font-family="Helvetica,sans-Serif" font-size="10.00"> myCollisionBody</text>
</g>
<!-- Node16 -->
<g id="node16" class="node"><title>Node16</title>
<polygon fill="white" stroke="#bfbfbf" points="648,-227.5 648,-246.5 680,-246.5 680,-227.5 648,-227.5"/>
<text text-anchor="middle" x="664" y="-234.5" font-family="Helvetica,sans-Serif" font-size="10.00">File</text>
</g>
<!-- Node16&#45;&gt;Node2 -->
<g id="edge15" class="edge"><title>Node16&#45;&gt;Node2</title>
<path fill="none" stroke="#9a32cd" stroke-dasharray="5,2" d="M690.619,-235.782C729.536,-235.024 804.849,-237.915 860,-267 906.951,-291.76 944.287,-346.067 958.163,-368.26"/>
<polygon fill="#9a32cd" stroke="#9a32cd" points="690.104,-232.296 680.212,-236.091 690.312,-239.292 690.104,-232.296"/>
<text text-anchor="middle" x="815" y="-270" font-family="Helvetica,sans-Serif" font-size="10.00"> gameLocationFile</text>
</g>
<!-- Node17 -->
<g id="node17" class="node"><title>Node17</title>
<g id="a_node17"><a xlink:href="../../d9/d9d/classengine_1_1game_object_1_1components_1_1_physics_body.html" target="_top" xlink:title="engine.gameObject.components.\lPhysicsBody">
<polygon fill="white" stroke="black" points="576,-90 576,-120 752,-120 752,-90 576,-90"/>
<text text-anchor="start" x="584" y="-108" font-family="Helvetica,sans-Serif" font-size="10.00">engine.gameObject.components.</text>
<text text-anchor="middle" x="664" y="-97" font-family="Helvetica,sans-Serif" font-size="10.00">PhysicsBody</text>
</a>
</g>
</g>
<!-- Node17&#45;&gt;Node2 -->
<g id="edge16" class="edge"><title>Node17&#45;&gt;Node2</title>
<path fill="none" stroke="#9a32cd" stroke-dasharray="5,2" d="M706.971,-124.552C748.974,-145.523 813.821,-181.84 860,-226 907.835,-271.744 946.31,-342.893 959.286,-368.453"/>
<polygon fill="#9a32cd" stroke="#9a32cd" points="708.368,-121.339 697.85,-120.061 705.275,-127.619 708.368,-121.339"/>
<text text-anchor="middle" x="815" y="-229" font-family="Helvetica,sans-Serif" font-size="10.00"> myPhysicsBody</text>
</g>
<!-- Node18 -->
<g id="node18" class="node"><title>Node18</title>
<polygon fill="white" stroke="#bfbfbf" points="244,-139 244,-169 400,-169 400,-139 244,-139"/>
<text text-anchor="start" x="252" y="-157" font-family="Helvetica,sans-Serif" font-size="10.00">Map&lt; String, engine.physics.</text>
<text text-anchor="middle" x="322" y="-146" font-family="Helvetica,sans-Serif" font-size="10.00">Scalar &gt;</text>
</g>
<!-- Node18&#45;&gt;Node17 -->
<g id="edge17" class="edge"><title>Node18&#45;&gt;Node17</title>
<path fill="none" stroke="#9a32cd" stroke-dasharray="5,2" d="M410.15,-141.44C461.059,-134.103 525.089,-124.875 575.976,-117.542"/>
<polygon fill="#9a32cd" stroke="#9a32cd" points="409.55,-137.99 400.151,-142.881 410.548,-144.919 409.55,-137.99"/>
<text text-anchor="middle" x="500" y="-140" font-family="Helvetica,sans-Serif" font-size="10.00"> myConstants</text>
</g>
<!-- Node19 -->
<g id="node19" class="node"><title>Node19</title>
<polygon fill="white" stroke="#bfbfbf" points="244,-90 244,-120 400,-120 400,-90 244,-90"/>
<text text-anchor="start" x="252" y="-108" font-family="Helvetica,sans-Serif" font-size="10.00">Map&lt; String, engine.physics.</text>
<text text-anchor="middle" x="322" y="-97" font-family="Helvetica,sans-Serif" font-size="10.00">Force &gt;</text>
</g>
<!-- Node19&#45;&gt;Node17 -->
<g id="edge18" class="edge"><title>Node19&#45;&gt;Node17</title>
<path fill="none" stroke="#9a32cd" stroke-dasharray="5,2" d="M410.469,-105C461.326,-105 525.195,-105 575.976,-105"/>
<polygon fill="#9a32cd" stroke="#9a32cd" points="410.151,-101.5 400.151,-105 410.151,-108.5 410.151,-101.5"/>
<text text-anchor="middle" x="500" y="-108" font-family="Helvetica,sans-Serif" font-size="10.00"> myActiveForces</text>
</g>
<!-- Node20 -->
<g id="node20" class="node"><title>Node20</title>
<polygon fill="white" stroke="#bfbfbf" points="238.5,-51.5 238.5,-70.5 405.5,-70.5 405.5,-51.5 238.5,-51.5"/>
<text text-anchor="middle" x="322" y="-58.5" font-family="Helvetica,sans-Serif" font-size="10.00">List&lt; engine.physics.Impulse &gt;</text>
</g>
<!-- Node20&#45;&gt;Node17 -->
<g id="edge19" class="edge"><title>Node20&#45;&gt;Node17</title>
<path fill="none" stroke="#9a32cd" stroke-dasharray="5,2" d="M413.301,-71.7342C457.026,-77.0363 510.273,-83.6466 558,-90 563.841,-90.7775 569.862,-91.5951 575.928,-92.4305"/>
<polygon fill="#9a32cd" stroke="#9a32cd" points="413.611,-68.2463 403.263,-70.5197 412.771,-75.1957 413.611,-68.2463"/>
<text text-anchor="middle" x="500" y="-93" font-family="Helvetica,sans-Serif" font-size="10.00"> myImpulses</text>
</g>
<!-- Node21 -->
<g id="node21" class="node"><title>Node21</title>
<g id="a_node21"><a xlink:href="../../d5/d1f/classengine_1_1physics_1_1_vector.html" target="_top" xlink:title="engine.physics.Vector">
<polygon fill="white" stroke="black" points="261.5,-0.5 261.5,-19.5 382.5,-19.5 382.5,-0.5 261.5,-0.5"/>
<text text-anchor="middle" x="322" y="-7.5" font-family="Helvetica,sans-Serif" font-size="10.00">engine.physics.Vector</text>
</a>
</g>
</g>
<!-- Node21&#45;&gt;Node17 -->
<g id="edge20" class="edge"><title>Node21&#45;&gt;Node17</title>
<path fill="none" stroke="#9a32cd" stroke-dasharray="5,2" d="M392.815,-10.6846C440.552,-13.047 504.601,-19.9922 558,-39 591.064,-50.7693 624.591,-74.3083 644.587,-89.8575"/>
<polygon fill="#9a32cd" stroke="#9a32cd" points="392.725,-7.17735 382.581,-10.2356 392.418,-14.1706 392.725,-7.17735"/>
<text text-anchor="middle" x="500" y="-64" font-family="Helvetica,sans-Serif" font-size="10.00"> myBalancedForcesMag</text>
<text text-anchor="middle" x="500" y="-53" font-family="Helvetica,sans-Serif" font-size="10.00">myVelocity</text>
<text text-anchor="middle" x="500" y="-42" font-family="Helvetica,sans-Serif" font-size="10.00">myAcceleration</text>
</g>
<!-- Node22 -->
<g id="node22" class="node"><title>Node22</title>
<g id="a_node22"><a xlink:href="../../dc/db5/classengine_1_1physics_1_1_physics_component.html" target="_top" xlink:title="engine.physics.PhysicsComponent">
<polygon fill="white" stroke="black" points="0,-0.5 0,-19.5 182,-19.5 182,-0.5 0,-0.5"/>
<text text-anchor="middle" x="91" y="-7.5" font-family="Helvetica,sans-Serif" font-size="10.00">engine.physics.PhysicsComponent</text>
</a>
</g>
</g>
<!-- Node22&#45;&gt;Node21 -->
<g id="edge21" class="edge"><title>Node22&#45;&gt;Node21</title>
<path fill="none" stroke="midnightblue" d="M192.202,-10C215.737,-10 240.089,-10 261.2,-10"/>
<polygon fill="midnightblue" stroke="midnightblue" points="192.178,-6.5001 182.178,-10 192.178,-13.5001 192.178,-6.5001"/>
</g>
<!-- Node23&#45;&gt;Node2 -->
<g id="edge22" class="edge"><title>Node23&#45;&gt;Node2</title>
<path fill="none" stroke="#9a32cd" stroke-dasharray="5,2" d="M760.227,-317.644C792.289,-320.685 828.029,-325.708 860,-334 891.312,-342.121 925.465,-358.052 945.789,-368.352"/>
<polygon fill="#9a32cd" stroke="#9a32cd" points="760.228,-314.13 749.956,-316.725 759.604,-321.102 760.228,-314.13"/>
<text text-anchor="middle" x="815" y="-337" font-family="Helvetica,sans-Serif" font-size="10.00"> myDefaultData</text>
</g>
</g>
</svg>
        <g id="navigator" transform="translate(0 0)" fill="#404254">
                <rect fill="#f2f5e9" fill-opacity="0.5" stroke="#606060" stroke-width=".5" x="0" y="0" width="60" height="60"/>
                <use id="zoomplus" xlink:href="#zoomPlus" x="17" y="9" onmousedown="handleZoom(evt,'in')"/>
                <use id="zoomminus" xlink:href="#zoomMin" x="42" y="9" onmousedown="handleZoom(evt,'out')"/>
                <use id="reset" xlink:href="#resetDef" x="30" y="36" onmousedown="handleReset()"/>
                <g id="arrowUp" xlink:href="#dirArrow" transform="translate(30 24)" onmousedown="handlePan(0,-1)">
                  <use xlink:href="#rim" fill="#404040">
                        <set attributeName="fill" to="#808080" begin="arrowUp.mouseover" end="arrowUp.mouseout"/>
                  </use>
                  <path fill="none" stroke="white" stroke-width="1.5" d="M0,-3.0v7 M-2.5,-0.5L0,-3.0L2.5,-0.5"/>
                </g>
                <g id="arrowRight" xlink:href="#dirArrow" transform="rotate(90) translate(36 -43)" onmousedown="handlePan(1,0)">
                  <use xlink:href="#rim" fill="#404040">
                        <set attributeName="fill" to="#808080" begin="arrowRight.mouseover" end="arrowRight.mouseout"/>
                  </use>
                  <path fill="none" stroke="white" stroke-width="1.5" d="M0,-3.0v7 M-2.5,-0.5L0,-3.0L2.5,-0.5"/>
                </g>
                <g id="arrowDown" xlink:href="#dirArrow" transform="rotate(180) translate(-30 -48)" onmousedown="handlePan(0,1)">
                  <use xlink:href="#rim" fill="#404040">
                        <set attributeName="fill" to="#808080" begin="arrowDown.mouseover" end="arrowDown.mouseout"/>
                  </use>
                  <path fill="none" stroke="white" stroke-width="1.5" d="M0,-3.0v7 M-2.5,-0.5L0,-3.0L2.5,-0.5"/>
                </g>
                <g id="arrowLeft" xlink:href="#dirArrow" transform="rotate(270) translate(-36 17)" onmousedown="handlePan(-1,0)">
                  <use xlink:href="#rim" fill="#404040">
                        <set attributeName="fill" to="#808080" begin="arrowLeft.mouseover" end="arrowLeft.mouseout"/>
                  </use>
                  <path fill="none" stroke="white" stroke-width="1.5" d="M0,-3.0v7 M-2.5,-0.5L0,-3.0L2.5,-0.5"/>
                </g>
        </g>
        <svg viewBox="0 0 15 15" width="100%" height="30px" preserveAspectRatio="xMaxYMin meet">
         <g id="arrow_out" transform="scale(0.3 0.3)">
          <a xlink:href="classengine_1_1states_1_1_state__coll__graph_org.svg" target="_base">
           <rect id="button" ry="5" rx="5" y="6" x="6" height="38" width="38"
                fill="#f2f5e9" fill-opacity="0.5" stroke="#606060" stroke-width="1.0"/>
           <path id="arrow"
             d="M 11.500037,31.436501 C 11.940474,20.09759 22.043105,11.32322 32.158766,21.979434 L 37.068811,17.246167 C 37.068811,17.246167 37.088388,32 37.088388,32 L 22.160133,31.978069 C 22.160133,31.978069 26.997745,27.140456 26.997745,27.140456 C 18.528582,18.264221 13.291696,25.230495 11.500037,31.436501 z"
             style="fill:#404040;"/>
          </a>
         </g>
        </svg>
</svg>
