<?xml version="1.0" encoding="UTF-8" standalone="no"?>
<!DOCTYPE svg PUBLIC "-//W3C//DTD SVG 1.1//EN"
 "http://www.w3.org/Graphics/SVG/1.1/DTD/svg11.dtd">
<!-- Generated by graphviz version 2.36.0 (20140111.2315)
 -->
<!-- Title: engine.level.LevelManager.changeToLevel Pages: 1 -->
<svg width="1732pt" height="625pt"
 viewBox="0.00 0.00 1732.00 625.00" xmlns="http://www.w3.org/2000/svg" xmlns:xlink="http://www.w3.org/1999/xlink">
<g id="graph0" class="graph" transform="scale(1 1) rotate(0) translate(4 621)">
<title>engine.level.LevelManager.changeToLevel</title>
<polygon fill="white" stroke="none" points="-4,4 -4,-621 1728,-621 1728,4 -4,4"/>
<!-- Node1 -->
<g id="node1" class="node"><title>Node1</title>
<polygon fill="#bfbfbf" stroke="black" points="0.5,-440 0.5,-470 181.5,-470 181.5,-440 0.5,-440"/>
<text text-anchor="start" x="8.5" y="-458" font-family="Helvetica,sans-Serif" font-size="10.00">engine.level.LevelManager.change</text>
<text text-anchor="middle" x="91" y="-447" font-family="Helvetica,sans-Serif" font-size="10.00">ToLevel</text>
</g>
<!-- Node2 -->
<g id="node2" class="node"><title>Node2</title>
<g id="a_node2"><a xlink:href="../../df/d67/classengine_1_1level_1_1_level_manager.html#ad89101547413fe335873b050fd091c79" target="_top" xlink:title="engine.level.LevelManager.set\lCurrentLevel">
<polygon fill="white" stroke="black" points="218.5,-440 218.5,-470 379.5,-470 379.5,-440 218.5,-440"/>
<text text-anchor="start" x="226.5" y="-458" font-family="Helvetica,sans-Serif" font-size="10.00">engine.level.LevelManager.set</text>
<text text-anchor="middle" x="299" y="-447" font-family="Helvetica,sans-Serif" font-size="10.00">CurrentLevel</text>
</a>
</g>
</g>
<!-- Node1&#45;&gt;Node2 -->
<g id="edge1" class="edge"><title>Node1&#45;&gt;Node2</title>
<path fill="none" stroke="midnightblue" d="M181.755,-455C190.483,-455 199.341,-455 208.07,-455"/>
<polygon fill="midnightblue" stroke="midnightblue" points="208.245,-458.5 218.244,-455 208.244,-451.5 208.245,-458.5"/>
</g>
<!-- Node3 -->
<g id="node3" class="node"><title>Node3</title>
<g id="a_node3"><a xlink:href="../../df/d67/classengine_1_1level_1_1_level_manager.html#a523599892453015eed0f1b506979af8a" target="_top" xlink:title="engine.level.LevelManager.initialize\lCurrentLevel">
<polygon fill="white" stroke="black" points="416,-440 416,-470 600,-470 600,-440 416,-440"/>
<text text-anchor="start" x="424" y="-458" font-family="Helvetica,sans-Serif" font-size="10.00">engine.level.LevelManager.initialize</text>
<text text-anchor="middle" x="508" y="-447" font-family="Helvetica,sans-Serif" font-size="10.00">CurrentLevel</text>
</a>
</g>
</g>
<!-- Node2&#45;&gt;Node3 -->
<g id="edge2" class="edge"><title>Node2&#45;&gt;Node3</title>
<path fill="none" stroke="midnightblue" d="M379.736,-455C388.249,-455 396.989,-455 405.708,-455"/>
<polygon fill="midnightblue" stroke="midnightblue" points="405.92,-458.5 415.92,-455 405.92,-451.5 405.92,-458.5"/>
</g>
<!-- Node4 -->
<g id="node4" class="node"><title>Node4</title>
<g id="a_node4"><a xlink:href="../../df/d67/classengine_1_1level_1_1_level_manager.html#af00a1d61217dd801bb7a8b16ad829cf0" target="_top" xlink:title="engine.level.LevelManager.disable\lAllConditions">
<polygon fill="white" stroke="black" points="636.5,-587 636.5,-617 815.5,-617 815.5,-587 636.5,-587"/>
<text text-anchor="start" x="644.5" y="-605" font-family="Helvetica,sans-Serif" font-size="10.00">engine.level.LevelManager.disable</text>
<text text-anchor="middle" x="726" y="-594" font-family="Helvetica,sans-Serif" font-size="10.00">AllConditions</text>
</a>
</g>
</g>
<!-- Node3&#45;&gt;Node4 -->
<g id="edge3" class="edge"><title>Node3&#45;&gt;Node4</title>
<path fill="none" stroke="midnightblue" d="M520.561,-470.21C541.002,-496.043 586.107,-548.461 636,-577 639.866,-579.211 643.94,-581.237 648.13,-583.091"/>
<polygon fill="midnightblue" stroke="midnightblue" points="646.875,-586.359 657.457,-586.882 649.511,-579.874 646.875,-586.359"/>
</g>
<!-- Node5 -->
<g id="node5" class="node"><title>Node5</title>
<g id="a_node5"><a xlink:href="../../df/d67/classengine_1_1level_1_1_level_manager.html#a5d79217e53b1e3804476ba6b366ad066" target="_top" xlink:title="engine.level.LevelManager.set\lLevelEnabledConditions">
<polygon fill="white" stroke="black" points="645.5,-538 645.5,-568 806.5,-568 806.5,-538 645.5,-538"/>
<text text-anchor="start" x="653.5" y="-556" font-family="Helvetica,sans-Serif" font-size="10.00">engine.level.LevelManager.set</text>
<text text-anchor="middle" x="726" y="-545" font-family="Helvetica,sans-Serif" font-size="10.00">LevelEnabledConditions</text>
</a>
</g>
</g>
<!-- Node3&#45;&gt;Node5 -->
<g id="edge4" class="edge"><title>Node3&#45;&gt;Node5</title>
<path fill="none" stroke="midnightblue" d="M531.519,-470.248C556.242,-486.429 597.548,-511.844 636,-528 641.729,-530.407 647.761,-532.658 653.873,-534.745"/>
<polygon fill="midnightblue" stroke="midnightblue" points="652.919,-538.115 663.512,-537.888 655.09,-531.46 652.919,-538.115"/>
</g>
<!-- Node8 -->
<g id="node8" class="node"><title>Node8</title>
<g id="a_node8"><a xlink:href="../../da/d90/classengine_1_1sound_1_1_sound_utility.html#a53a82805b12b2b8f68b8396b9795d092" target="_top" xlink:title="engine.sound.SoundUtility.stop\lBackGroundMusic">
<polygon fill="white" stroke="black" points="644,-489 644,-519 808,-519 808,-489 644,-489"/>
<text text-anchor="start" x="652" y="-507" font-family="Helvetica,sans-Serif" font-size="10.00">engine.sound.SoundUtility.stop</text>
<text text-anchor="middle" x="726" y="-496" font-family="Helvetica,sans-Serif" font-size="10.00">BackGroundMusic</text>
</a>
</g>
</g>
<!-- Node3&#45;&gt;Node8 -->
<g id="edge7" class="edge"><title>Node3&#45;&gt;Node8</title>
<path fill="none" stroke="midnightblue" d="M575.275,-470.035C598.6,-475.326 624.993,-481.313 649.053,-486.771"/>
<polygon fill="midnightblue" stroke="midnightblue" points="648.324,-490.195 658.85,-488.994 649.872,-483.368 648.324,-490.195"/>
</g>
<!-- Node9 -->
<g id="node9" class="node"><title>Node9</title>
<g id="a_node9"><a xlink:href="../../da/d90/classengine_1_1sound_1_1_sound_utility.html#ab8cd26d71aa7b20d07350105a4254c92" target="_top" xlink:title="engine.sound.SoundUtility.play\lBackGroundMusic">
<polygon fill="white" stroke="black" points="644.5,-440 644.5,-470 807.5,-470 807.5,-440 644.5,-440"/>
<text text-anchor="start" x="652.5" y="-458" font-family="Helvetica,sans-Serif" font-size="10.00">engine.sound.SoundUtility.play</text>
<text text-anchor="middle" x="726" y="-447" font-family="Helvetica,sans-Serif" font-size="10.00">BackGroundMusic</text>
</a>
</g>
</g>
<!-- Node3&#45;&gt;Node9 -->
<g id="edge8" class="edge"><title>Node3&#45;&gt;Node9</title>
<path fill="none" stroke="midnightblue" d="M600.29,-455C611.486,-455 622.927,-455 634.116,-455"/>
<polygon fill="midnightblue" stroke="midnightblue" points="634.307,-458.5 644.307,-455 634.307,-451.5 634.307,-458.5"/>
</g>
<!-- Node10 -->
<g id="node10" class="node"><title>Node10</title>
<g id="a_node10"><a xlink:href="../../df/d84/classengine_1_1level_1_1_level.html#a368275ed98c802fbf59a11423b9b9a0d" target="_top" xlink:title="engine.level.Level.getBackground\lMusic">
<polygon fill="white" stroke="black" points="637.5,-391 637.5,-421 814.5,-421 814.5,-391 637.5,-391"/>
<text text-anchor="start" x="645.5" y="-409" font-family="Helvetica,sans-Serif" font-size="10.00">engine.level.Level.getBackground</text>
<text text-anchor="middle" x="726" y="-398" font-family="Helvetica,sans-Serif" font-size="10.00">Music</text>
</a>
</g>
</g>
<!-- Node3&#45;&gt;Node10 -->
<g id="edge9" class="edge"><title>Node3&#45;&gt;Node10</title>
<path fill="none" stroke="midnightblue" d="M575.275,-439.965C598.6,-434.674 624.993,-428.687 649.053,-423.229"/>
<polygon fill="midnightblue" stroke="midnightblue" points="649.872,-426.632 658.85,-421.006 648.324,-419.805 649.872,-426.632"/>
</g>
<!-- Node11 -->
<g id="node11" class="node"><title>Node11</title>
<g id="a_node11"><a xlink:href="../../df/d84/classengine_1_1level_1_1_level.html#ace23cd4ed278a5bb85e964ff3c8818b5" target="_top" xlink:title="engine.level.Level.initialize">
<polygon fill="white" stroke="black" points="654.5,-352.5 654.5,-371.5 797.5,-371.5 797.5,-352.5 654.5,-352.5"/>
<text text-anchor="middle" x="726" y="-359.5" font-family="Helvetica,sans-Serif" font-size="10.00">engine.level.Level.initialize</text>
</a>
</g>
</g>
<!-- Node3&#45;&gt;Node11 -->
<g id="edge10" class="edge"><title>Node3&#45;&gt;Node11</title>
<path fill="none" stroke="midnightblue" d="M530.467,-439.957C554.94,-423.466 596.661,-397.32 636,-382 643.849,-378.943 652.278,-376.293 660.708,-374.013"/>
<polygon fill="midnightblue" stroke="midnightblue" points="661.741,-377.362 670.569,-371.504 660.015,-370.578 661.741,-377.362"/>
</g>
<!-- Node16 -->
<g id="node16" class="node"><title>Node16</title>
<g id="a_node16"><a xlink:href="../../dd/d8d/classengine_1_1render_1_1_renderer.html#a189dda9a8463274afe267959860f0dee" target="_top" xlink:title="engine.render.Renderer.render\lGameObjects">
<polygon fill="white" stroke="black" points="645,-232 645,-262 807,-262 807,-232 645,-232"/>
<text text-anchor="start" x="653" y="-250" font-family="Helvetica,sans-Serif" font-size="10.00">engine.render.Renderer.render</text>
<text text-anchor="middle" x="726" y="-239" font-family="Helvetica,sans-Serif" font-size="10.00">GameObjects</text>
</a>
</g>
</g>
<!-- Node3&#45;&gt;Node16 -->
<g id="edge15" class="edge"><title>Node3&#45;&gt;Node16</title>
<path fill="none" stroke="midnightblue" d="M524.883,-439.705C562.657,-403.33 657.979,-311.539 702.029,-269.121"/>
<polygon fill="midnightblue" stroke="midnightblue" points="704.61,-271.494 709.385,-262.037 699.754,-266.452 704.61,-271.494"/>
</g>
<!-- Node6 -->
<g id="node6" class="node"><title>Node6</title>
<g id="a_node6"><a xlink:href="../../df/d84/classengine_1_1level_1_1_level.html#a264b568258eafa3d2c664c94e7498621" target="_top" xlink:title="engine.level.Level.getCondition\lIdentifiers">
<polygon fill="white" stroke="black" points="858.5,-563 858.5,-593 1023.5,-593 1023.5,-563 858.5,-563"/>
<text text-anchor="start" x="866.5" y="-581" font-family="Helvetica,sans-Serif" font-size="10.00">engine.level.Level.getCondition</text>
<text text-anchor="middle" x="941" y="-570" font-family="Helvetica,sans-Serif" font-size="10.00">Identifiers</text>
</a>
</g>
</g>
<!-- Node5&#45;&gt;Node6 -->
<g id="edge5" class="edge"><title>Node5&#45;&gt;Node6</title>
<path fill="none" stroke="midnightblue" d="M806.616,-562.345C820.213,-563.941 834.436,-565.61 848.316,-567.239"/>
<polygon fill="midnightblue" stroke="midnightblue" points="848.009,-570.727 858.349,-568.417 848.825,-563.775 848.009,-570.727"/>
</g>
<!-- Node7 -->
<g id="node7" class="node"><title>Node7</title>
<g id="a_node7"><a xlink:href="../../df/d67/classengine_1_1level_1_1_level_manager.html#a766cb6198dd991f0bdf6386dace3a65b" target="_top" xlink:title="engine.level.LevelManager.enable\lCondition">
<polygon fill="white" stroke="black" points="852,-514 852,-544 1030,-544 1030,-514 852,-514"/>
<text text-anchor="start" x="860" y="-532" font-family="Helvetica,sans-Serif" font-size="10.00">engine.level.LevelManager.enable</text>
<text text-anchor="middle" x="941" y="-521" font-family="Helvetica,sans-Serif" font-size="10.00">Condition</text>
</a>
</g>
</g>
<!-- Node5&#45;&gt;Node7 -->
<g id="edge6" class="edge"><title>Node5&#45;&gt;Node7</title>
<path fill="none" stroke="midnightblue" d="M806.616,-544.029C818.04,-542.742 829.906,-541.405 841.639,-540.083"/>
<polygon fill="midnightblue" stroke="midnightblue" points="842.356,-543.524 851.901,-538.927 841.572,-536.568 842.356,-543.524"/>
</g>
<!-- Node12 -->
<g id="node12" class="node"><title>Node12</title>
<g id="a_node12"><a xlink:href="../../d4/d3b/classauthoring_1_1model_1_1collections_1_1_general_collection.html#a1bdc1047736bbb23259d6a7fe4c6deeb" target="_top" xlink:title="authoring.model.collections.\lGeneralCollection.add">
<polygon fill="white" stroke="black" points="865,-347 865,-377 1017,-377 1017,-347 865,-347"/>
<text text-anchor="start" x="873" y="-365" font-family="Helvetica,sans-Serif" font-size="10.00">authoring.model.collections.</text>
<text text-anchor="middle" x="941" y="-354" font-family="Helvetica,sans-Serif" font-size="10.00">GeneralCollection.add</text>
</a>
</g>
</g>
<!-- Node11&#45;&gt;Node12 -->
<g id="edge11" class="edge"><title>Node11&#45;&gt;Node12</title>
<path fill="none" stroke="midnightblue" d="M797.63,-362C815.902,-362 835.768,-362 854.703,-362"/>
<polygon fill="midnightblue" stroke="midnightblue" points="854.807,-365.5 864.807,-362 854.807,-358.5 854.807,-365.5"/>
</g>
<!-- Node13 -->
<g id="node13" class="node"><title>Node13</title>
<g id="a_node13"><a xlink:href="../../d0/d7f/classengine_1_1game_object_1_1_game_object.html#accd456b2eaab9c7056de825a28b066c8" target="_top" xlink:title="engine.gameObject.GameObject.get\lIdentifier">
<polygon fill="white" stroke="black" points="1066,-308 1066,-338 1258,-338 1258,-308 1066,-308"/>
<text text-anchor="start" x="1074" y="-326" font-family="Helvetica,sans-Serif" font-size="10.00">engine.gameObject.GameObject.get</text>
<text text-anchor="middle" x="1162" y="-315" font-family="Helvetica,sans-Serif" font-size="10.00">Identifier</text>
</a>
</g>
</g>
<!-- Node11&#45;&gt;Node13 -->
<g id="edge12" class="edge"><title>Node11&#45;&gt;Node13</title>
<path fill="none" stroke="midnightblue" d="M794.883,-371.518C802.365,-374.206 809.585,-377.634 816,-382 839.541,-398.022 826.836,-421.672 852,-435 921.911,-472.027 955.786,-462.401 1030,-435 1077.82,-417.343 1120.02,-373.581 1142.89,-346.281"/>
<polygon fill="midnightblue" stroke="midnightblue" points="1145.73,-348.34 1149.35,-338.385 1140.31,-343.906 1145.73,-348.34"/>
</g>
<!-- Node14 -->
<g id="node14" class="node"><title>Node14</title>
<g id="a_node14"><a xlink:href="../../d4/dac/classengine_1_1game_object_1_1_identifier.html#aa2630b5024b9595e43afe0bf53229433" target="_top" xlink:title="engine.gameObject.Identifier.get\lUniqueId">
<polygon fill="white" stroke="black" points="854.5,-298 854.5,-328 1027.5,-328 1027.5,-298 854.5,-298"/>
<text text-anchor="start" x="862.5" y="-316" font-family="Helvetica,sans-Serif" font-size="10.00">engine.gameObject.Identifier.get</text>
<text text-anchor="middle" x="941" y="-305" font-family="Helvetica,sans-Serif" font-size="10.00">UniqueId</text>
</a>
</g>
</g>
<!-- Node11&#45;&gt;Node14 -->
<g id="edge13" class="edge"><title>Node11&#45;&gt;Node14</title>
<path fill="none" stroke="midnightblue" d="M768.321,-352.494C795.621,-346.214 832.205,-337.798 864.586,-330.349"/>
<polygon fill="midnightblue" stroke="midnightblue" points="865.525,-333.724 874.486,-328.071 863.956,-326.902 865.525,-333.724"/>
</g>
<!-- Node15 -->
<g id="node15" class="node"><title>Node15</title>
<g id="a_node15"><a xlink:href="../../df/d67/classengine_1_1level_1_1_level_manager.html#a6e15411e375d875fa72058d499bec766" target="_top" xlink:title="engine.level.LevelManager.object\lForIdentifier">
<polygon fill="white" stroke="black" points="853.5,-396 853.5,-426 1028.5,-426 1028.5,-396 853.5,-396"/>
<text text-anchor="start" x="861.5" y="-414" font-family="Helvetica,sans-Serif" font-size="10.00">engine.level.LevelManager.object</text>
<text text-anchor="middle" x="941" y="-403" font-family="Helvetica,sans-Serif" font-size="10.00">ForIdentifier</text>
</a>
</g>
</g>
<!-- Node11&#45;&gt;Node15 -->
<g id="edge14" class="edge"><title>Node11&#45;&gt;Node15</title>
<path fill="none" stroke="midnightblue" d="M770.022,-371.589C784.623,-374.864 801.027,-378.567 816,-382 832.24,-385.724 849.663,-389.768 866.167,-393.621"/>
<polygon fill="midnightblue" stroke="midnightblue" points="865.771,-397.123 876.305,-395.992 867.365,-390.307 865.771,-397.123"/>
</g>
<!-- Node16&#45;&gt;Node13 -->
<g id="edge24" class="edge"><title>Node16&#45;&gt;Node13</title>
<path fill="none" stroke="midnightblue" d="M807.247,-254.839C868.613,-261.561 955.125,-272.61 1030,-288 1046.27,-291.343 1049.97,-293.665 1066,-298 1074.89,-300.403 1084.25,-302.905 1093.49,-305.356"/>
<polygon fill="midnightblue" stroke="midnightblue" points="1092.88,-308.815 1103.45,-307.989 1094.67,-302.048 1092.88,-308.815"/>
</g>
<!-- Node16&#45;&gt;Node14 -->
<g id="edge25" class="edge"><title>Node16&#45;&gt;Node14</title>
<path fill="none" stroke="midnightblue" d="M775.6,-262.059C807.113,-271.824 848.345,-284.6 881.633,-294.914"/>
<polygon fill="midnightblue" stroke="midnightblue" points="880.653,-298.275 891.241,-297.892 882.725,-291.589 880.653,-298.275"/>
</g>
<!-- Node17 -->
<g id="node17" class="node"><title>Node17</title>
<g id="a_node17"><a xlink:href="../../dd/d8d/classengine_1_1render_1_1_renderer.html#a10b850c208c44a1137b099d1967c6e9b" target="_top" xlink:title="engine.render.Renderer.set\lBackGroundImage">
<polygon fill="white" stroke="black" points="868,-161 868,-191 1014,-191 1014,-161 868,-161"/>
<text text-anchor="start" x="876" y="-179" font-family="Helvetica,sans-Serif" font-size="10.00">engine.render.Renderer.set</text>
<text text-anchor="middle" x="941" y="-168" font-family="Helvetica,sans-Serif" font-size="10.00">BackGroundImage</text>
</a>
</g>
</g>
<!-- Node16&#45;&gt;Node17 -->
<g id="edge16" class="edge"><title>Node16&#45;&gt;Node17</title>
<path fill="none" stroke="midnightblue" d="M764.146,-231.992C788.842,-222.272 822.111,-209.672 852,-200 858.377,-197.936 865.052,-195.899 871.75,-193.936"/>
<polygon fill="midnightblue" stroke="midnightblue" points="872.907,-197.245 881.55,-191.118 870.972,-190.518 872.907,-197.245"/>
</g>
<!-- Node23 -->
<g id="node23" class="node"><title>Node23</title>
<g id="a_node23"><a xlink:href="../../df/d84/classengine_1_1level_1_1_level.html#af2921158eda86e1f909575ee468eec5c" target="_top" xlink:title="engine.level.Level.getGame\lObjectIterator">
<polygon fill="white" stroke="black" points="866.5,-93 866.5,-123 1015.5,-123 1015.5,-93 866.5,-93"/>
<text text-anchor="start" x="874.5" y="-111" font-family="Helvetica,sans-Serif" font-size="10.00">engine.level.Level.getGame</text>
<text text-anchor="middle" x="941" y="-100" font-family="Helvetica,sans-Serif" font-size="10.00">ObjectIterator</text>
</a>
</g>
</g>
<!-- Node16&#45;&gt;Node23 -->
<g id="edge22" class="edge"><title>Node16&#45;&gt;Node23</title>
<path fill="none" stroke="midnightblue" d="M744.398,-231.824C767.829,-211.821 811.295,-176.221 852,-151 865.754,-142.478 881.442,-134.35 895.725,-127.501"/>
<polygon fill="midnightblue" stroke="midnightblue" points="897.318,-130.62 904.874,-123.193 894.336,-124.286 897.318,-130.62"/>
</g>
<!-- Node25 -->
<g id="node25" class="node"><title>Node25</title>
<g id="a_node25"><a xlink:href="../../dd/d8d/classengine_1_1render_1_1_renderer.html#a569f6bb2f9c218ed015949dff459b1ee" target="_top" xlink:title="engine.render.Renderer.create\lAndAssignRenderedNode">
<polygon fill="white" stroke="black" points="860.5,-210 860.5,-240 1021.5,-240 1021.5,-210 860.5,-210"/>
<text text-anchor="start" x="868.5" y="-228" font-family="Helvetica,sans-Serif" font-size="10.00">engine.render.Renderer.create</text>
<text text-anchor="middle" x="941" y="-217" font-family="Helvetica,sans-Serif" font-size="10.00">AndAssignRenderedNode</text>
</a>
</g>
</g>
<!-- Node16&#45;&gt;Node25 -->
<g id="edge26" class="edge"><title>Node16&#45;&gt;Node25</title>
<path fill="none" stroke="midnightblue" d="M807.223,-238.714C821.172,-237.273 835.763,-235.766 849.955,-234.3"/>
<polygon fill="midnightblue" stroke="midnightblue" points="850.616,-237.751 860.203,-233.242 849.897,-230.788 850.616,-237.751"/>
</g>
<!-- Node18 -->
<g id="node18" class="node"><title>Node18</title>
<g id="a_node18"><a xlink:href="../../d5/d30/classengine_1_1render_1_1_rendered_node_factory.html#ae9ab86f88eb96945a412e561179aa070" target="_top" xlink:title="engine.render.RenderedNode\lFactory.createImageAndView">
<polygon fill="white" stroke="black" points="1317,-49 1317,-79 1473,-79 1473,-49 1317,-49"/>
<text text-anchor="start" x="1325" y="-67" font-family="Helvetica,sans-Serif" font-size="10.00">engine.render.RenderedNode</text>
<text text-anchor="middle" x="1395" y="-56" font-family="Helvetica,sans-Serif" font-size="10.00">Factory.createImageAndView</text>
</a>
</g>
</g>
<!-- Node17&#45;&gt;Node18 -->
<g id="edge17" class="edge"><title>Node17&#45;&gt;Node18</title>
<path fill="none" stroke="midnightblue" d="M1014.29,-161.401C1107.35,-142.602 1257.28,-112.289 1258,-112 1275.6,-104.884 1276.56,-96.5117 1294,-89 1299.77,-86.5143 1305.84,-84.2401 1312.02,-82.1663"/>
<polygon fill="midnightblue" stroke="midnightblue" points="1313.31,-85.4285 1321.78,-79.0707 1311.19,-78.7557 1313.31,-85.4285"/>
</g>
<!-- Node22 -->
<g id="node22" class="node"><title>Node22</title>
<g id="a_node22"><a xlink:href="../../df/d84/classengine_1_1level_1_1_level.html#a5dc36c31fcc8e0b5cbe2a942ec101fdb" target="_top" xlink:title="engine.level.Level.getBackground\lImage">
<polygon fill="white" stroke="black" points="1073.5,-161 1073.5,-191 1250.5,-191 1250.5,-161 1073.5,-161"/>
<text text-anchor="start" x="1081.5" y="-179" font-family="Helvetica,sans-Serif" font-size="10.00">engine.level.Level.getBackground</text>
<text text-anchor="middle" x="1162" y="-168" font-family="Helvetica,sans-Serif" font-size="10.00">Image</text>
</a>
</g>
</g>
<!-- Node17&#45;&gt;Node22 -->
<g id="edge21" class="edge"><title>Node17&#45;&gt;Node22</title>
<path fill="none" stroke="midnightblue" d="M1014.01,-176C1029.7,-176 1046.57,-176 1063.07,-176"/>
<polygon fill="midnightblue" stroke="midnightblue" points="1063.29,-179.5 1073.29,-176 1063.29,-172.5 1063.29,-179.5"/>
</g>
<!-- Node19 -->
<g id="node19" class="node"><title>Node19</title>
<g id="a_node19"><a xlink:href="../../d0/d7f/classengine_1_1game_object_1_1_game_object.html#ae8b88e1cf489e935426e2e252defbae0" target="_top" xlink:title="engine.gameObject.GameObject.get\lCurrentImageName">
<polygon fill="white" stroke="black" points="1532,-0 1532,-30 1724,-30 1724,-0 1532,-0"/>
<text text-anchor="start" x="1540" y="-18" font-family="Helvetica,sans-Serif" font-size="10.00">engine.gameObject.GameObject.get</text>
<text text-anchor="middle" x="1628" y="-7" font-family="Helvetica,sans-Serif" font-size="10.00">CurrentImageName</text>
</a>
</g>
</g>
<!-- Node18&#45;&gt;Node19 -->
<g id="edge18" class="edge"><title>Node18&#45;&gt;Node19</title>
<path fill="none" stroke="midnightblue" d="M1466.88,-48.9654C1492.04,-43.627 1520.55,-37.5802 1546.46,-32.0834"/>
<polygon fill="midnightblue" stroke="midnightblue" points="1547.2,-35.5051 1556.26,-30.0062 1545.75,-28.6575 1547.2,-35.5051"/>
</g>
<!-- Node20 -->
<g id="node20" class="node"><title>Node20</title>
<g id="a_node20"><a xlink:href="../../d0/d7f/classengine_1_1game_object_1_1_game_object.html#aaeb5730a3b51fe9cb3d817ea7172cfc2" target="_top" xlink:title="engine.gameObject.GameObject.get\lHeight">
<polygon fill="white" stroke="black" points="1532,-98 1532,-128 1724,-128 1724,-98 1532,-98"/>
<text text-anchor="start" x="1540" y="-116" font-family="Helvetica,sans-Serif" font-size="10.00">engine.gameObject.GameObject.get</text>
<text text-anchor="middle" x="1628" y="-105" font-family="Helvetica,sans-Serif" font-size="10.00">Height</text>
</a>
</g>
</g>
<!-- Node18&#45;&gt;Node20 -->
<g id="edge19" class="edge"><title>Node18&#45;&gt;Node20</title>
<path fill="none" stroke="midnightblue" d="M1466.88,-79.0346C1492.04,-84.373 1520.55,-90.4198 1546.46,-95.9166"/>
<polygon fill="midnightblue" stroke="midnightblue" points="1545.75,-99.3425 1556.26,-97.9938 1547.2,-92.4949 1545.75,-99.3425"/>
</g>
<!-- Node21 -->
<g id="node21" class="node"><title>Node21</title>
<g id="a_node21"><a xlink:href="../../d0/d7f/classengine_1_1game_object_1_1_game_object.html#a31aa2c854220621b49fc5575b50b9342" target="_top" xlink:title="engine.gameObject.GameObject.get\lWidth">
<polygon fill="white" stroke="black" points="1532,-49 1532,-79 1724,-79 1724,-49 1532,-49"/>
<text text-anchor="start" x="1540" y="-67" font-family="Helvetica,sans-Serif" font-size="10.00">engine.gameObject.GameObject.get</text>
<text text-anchor="middle" x="1628" y="-56" font-family="Helvetica,sans-Serif" font-size="10.00">Width</text>
</a>
</g>
</g>
<!-- Node18&#45;&gt;Node21 -->
<g id="edge20" class="edge"><title>Node18&#45;&gt;Node21</title>
<path fill="none" stroke="midnightblue" d="M1473.24,-64C1488.77,-64 1505.35,-64 1521.65,-64"/>
<polygon fill="midnightblue" stroke="midnightblue" points="1521.75,-67.5001 1531.75,-64 1521.75,-60.5001 1521.75,-67.5001"/>
</g>
<!-- Node24 -->
<g id="node24" class="node"><title>Node24</title>
<g id="a_node24"><a xlink:href="../../d4/d3b/classauthoring_1_1model_1_1collections_1_1_general_collection.html#a79482ff667a22bb0d5b702c03261fe8d" target="_top" xlink:title="authoring.model.collections.\lGeneralCollection.iterator">
<polygon fill="white" stroke="black" points="1086,-73 1086,-103 1238,-103 1238,-73 1086,-73"/>
<text text-anchor="start" x="1094" y="-91" font-family="Helvetica,sans-Serif" font-size="10.00">authoring.model.collections.</text>
<text text-anchor="middle" x="1162" y="-80" font-family="Helvetica,sans-Serif" font-size="10.00">GeneralCollection.iterator</text>
</a>
</g>
</g>
<!-- Node23&#45;&gt;Node24 -->
<g id="edge23" class="edge"><title>Node23&#45;&gt;Node24</title>
<path fill="none" stroke="midnightblue" d="M1015.53,-101.285C1034.88,-99.5178 1055.91,-97.5971 1075.82,-95.7794"/>
<polygon fill="midnightblue" stroke="midnightblue" points="1076.15,-99.2633 1085.79,-94.8682 1075.52,-92.2923 1076.15,-99.2633"/>
</g>
<!-- Node25&#45;&gt;Node13 -->
<g id="edge43" class="edge"><title>Node25&#45;&gt;Node13</title>
<path fill="none" stroke="midnightblue" d="M1000.95,-240.089C1011.11,-244.062 1021.21,-248.975 1030,-255 1050.55,-269.097 1044.96,-284.643 1066,-298 1069.21,-300.039 1072.59,-301.913 1076.07,-303.634"/>
<polygon fill="midnightblue" stroke="midnightblue" points="1074.95,-306.968 1085.51,-307.845 1077.8,-300.575 1074.95,-306.968"/>
</g>
<!-- Node26 -->
<g id="node26" class="node"><title>Node26</title>
<g id="a_node26"><a xlink:href="../../d5/d30/classengine_1_1render_1_1_rendered_node_factory.html#a359dcce722371dfb49b79528930c1b05" target="_top" xlink:title="engine.render.RenderedNode\lFactory.createRenderedNode">
<polygon fill="white" stroke="black" points="1084,-210 1084,-240 1240,-240 1240,-210 1084,-210"/>
<text text-anchor="start" x="1092" y="-228" font-family="Helvetica,sans-Serif" font-size="10.00">engine.render.RenderedNode</text>
<text text-anchor="middle" x="1162" y="-217" font-family="Helvetica,sans-Serif" font-size="10.00">Factory.createRenderedNode</text>
</a>
</g>
</g>
<!-- Node25&#45;&gt;Node26 -->
<g id="edge27" class="edge"><title>Node25&#45;&gt;Node26</title>
<path fill="none" stroke="midnightblue" d="M1021.68,-225C1038.65,-225 1056.66,-225 1073.89,-225"/>
<polygon fill="midnightblue" stroke="midnightblue" points="1073.94,-228.5 1083.94,-225 1073.94,-221.5 1073.94,-228.5"/>
</g>
<!-- Node39 -->
<g id="node39" class="node"><title>Node39</title>
<g id="a_node39"><a xlink:href="../../d0/d7f/classengine_1_1game_object_1_1_game_object.html#ab09d473d8c2afe8cefb2ce2481bc66fd" target="_top" xlink:title="engine.gameObject.GameObject.set\lRenderedNode">
<polygon fill="white" stroke="black" points="1066.5,-259 1066.5,-289 1257.5,-289 1257.5,-259 1066.5,-259"/>
<text text-anchor="start" x="1074.5" y="-277" font-family="Helvetica,sans-Serif" font-size="10.00">engine.gameObject.GameObject.set</text>
<text text-anchor="middle" x="1162" y="-266" font-family="Helvetica,sans-Serif" font-size="10.00">RenderedNode</text>
</a>
</g>
</g>
<!-- Node25&#45;&gt;Node39 -->
<g id="edge44" class="edge"><title>Node25&#45;&gt;Node39</title>
<path fill="none" stroke="midnightblue" d="M1009.2,-240.035C1032.84,-245.326 1059.6,-251.313 1084,-256.771"/>
<polygon fill="midnightblue" stroke="midnightblue" points="1083.41,-260.226 1093.93,-258.994 1084.94,-253.395 1083.41,-260.226"/>
</g>
<!-- Node26&#45;&gt;Node18 -->
<g id="edge29" class="edge"><title>Node26&#45;&gt;Node18</title>
<path fill="none" stroke="midnightblue" d="M1240.26,-212.113C1246.74,-208.899 1252.79,-204.92 1258,-200 1295.69,-164.374 1256.09,-124.393 1294,-89 1298.09,-85.1837 1302.67,-81.9265 1307.56,-79.1489"/>
<polygon fill="midnightblue" stroke="midnightblue" points="1309.25,-82.2192 1316.66,-74.6499 1306.14,-75.9441 1309.25,-82.2192"/>
</g>
<!-- Node27 -->
<g id="node27" class="node"><title>Node27</title>
<g id="a_node27"><a xlink:href="../../d2/d82/classengine_1_1render_1_1_rendered_node.html#a520a8c03b505d10c69e010e603cadfdd" target="_top" xlink:title="engine.render.RenderedNode.set\lImageView">
<polygon fill="white" stroke="black" points="1308,-333 1308,-363 1482,-363 1482,-333 1308,-333"/>
<text text-anchor="start" x="1316" y="-351" font-family="Helvetica,sans-Serif" font-size="10.00">engine.render.RenderedNode.set</text>
<text text-anchor="middle" x="1395" y="-340" font-family="Helvetica,sans-Serif" font-size="10.00">ImageView</text>
</a>
</g>
</g>
<!-- Node26&#45;&gt;Node27 -->
<g id="edge28" class="edge"><title>Node26&#45;&gt;Node27</title>
<path fill="none" stroke="midnightblue" d="M1240.02,-238.039C1246.47,-240.993 1252.59,-244.6 1258,-249 1286.38,-272.075 1265.6,-299.96 1294,-323 1296.07,-324.677 1298.23,-326.243 1300.48,-327.707"/>
<polygon fill="midnightblue" stroke="midnightblue" points="1299.06,-330.931 1309.48,-332.853 1302.54,-324.853 1299.06,-330.931"/>
</g>
<!-- Node28 -->
<g id="node28" class="node"><title>Node28</title>
<g id="a_node28"><a xlink:href="../../d2/d82/classengine_1_1render_1_1_rendered_node.html#ad73c81ad48b40faea3818c9a7bbfdcf0" target="_top" xlink:title="engine.render.RenderedNode.set\lCollisionBody">
<polygon fill="white" stroke="black" points="1308,-284 1308,-314 1482,-314 1482,-284 1308,-284"/>
<text text-anchor="start" x="1316" y="-302" font-family="Helvetica,sans-Serif" font-size="10.00">engine.render.RenderedNode.set</text>
<text text-anchor="middle" x="1395" y="-291" font-family="Helvetica,sans-Serif" font-size="10.00">CollisionBody</text>
</a>
</g>
</g>
<!-- Node26&#45;&gt;Node28 -->
<g id="edge30" class="edge"><title>Node26&#45;&gt;Node28</title>
<path fill="none" stroke="midnightblue" d="M1234.26,-240.004C1242.42,-242.597 1250.49,-245.581 1258,-249 1275.73,-257.071 1276.26,-265.951 1294,-274 1299.38,-276.44 1305.03,-278.666 1310.79,-280.693"/>
<polygon fill="midnightblue" stroke="midnightblue" points="1309.99,-284.111 1320.58,-283.919 1312.18,-277.463 1309.99,-284.111"/>
</g>
<!-- Node29 -->
<g id="node29" class="node"><title>Node29</title>
<g id="a_node29"><a xlink:href="../../d5/d30/classengine_1_1render_1_1_rendered_node_factory.html#ac14d2f5a3da79d92c967fe22bc82c1ed" target="_top" xlink:title="engine.render.RenderedNode\lFactory.createCollisionBody">
<polygon fill="white" stroke="black" points="1317,-235 1317,-265 1473,-265 1473,-235 1317,-235"/>
<text text-anchor="start" x="1325" y="-253" font-family="Helvetica,sans-Serif" font-size="10.00">engine.render.RenderedNode</text>
<text text-anchor="middle" x="1395" y="-242" font-family="Helvetica,sans-Serif" font-size="10.00">Factory.createCollisionBody</text>
</a>
</g>
</g>
<!-- Node26&#45;&gt;Node29 -->
<g id="edge31" class="edge"><title>Node26&#45;&gt;Node29</title>
<path fill="none" stroke="midnightblue" d="M1240.24,-233.359C1261.62,-235.674 1284.98,-238.201 1306.88,-240.572"/>
<polygon fill="midnightblue" stroke="midnightblue" points="1306.51,-244.052 1316.83,-241.648 1307.27,-237.093 1306.51,-244.052"/>
</g>
<!-- Node33 -->
<g id="node33" class="node"><title>Node33</title>
<g id="a_node33"><a xlink:href="../../d2/d82/classengine_1_1render_1_1_rendered_node.html#a312c663dd1144ff206ecfa1ea8c95a81" target="_top" xlink:title="engine.render.RenderedNode.set\lLabel">
<polygon fill="white" stroke="black" points="1308,-186 1308,-216 1482,-216 1482,-186 1308,-186"/>
<text text-anchor="start" x="1316" y="-204" font-family="Helvetica,sans-Serif" font-size="10.00">engine.render.RenderedNode.set</text>
<text text-anchor="middle" x="1395" y="-193" font-family="Helvetica,sans-Serif" font-size="10.00">Label</text>
</a>
</g>
</g>
<!-- Node26&#45;&gt;Node33 -->
<g id="edge35" class="edge"><title>Node26&#45;&gt;Node33</title>
<path fill="none" stroke="midnightblue" d="M1240.24,-216.975C1258.59,-215.069 1278.38,-213.012 1297.47,-211.029"/>
<polygon fill="midnightblue" stroke="midnightblue" points="1298.09,-214.484 1307.68,-209.969 1297.37,-207.521 1298.09,-214.484"/>
</g>
<!-- Node34 -->
<g id="node34" class="node"><title>Node34</title>
<g id="a_node34"><a xlink:href="../../d5/d30/classengine_1_1render_1_1_rendered_node_factory.html#a4e1f4508b1c12b958bd3c88a35a4e872" target="_top" xlink:title="engine.render.RenderedNode\lFactory.createLabel">
<polygon fill="white" stroke="black" points="1317,-137 1317,-167 1473,-167 1473,-137 1317,-137"/>
<text text-anchor="start" x="1325" y="-155" font-family="Helvetica,sans-Serif" font-size="10.00">engine.render.RenderedNode</text>
<text text-anchor="middle" x="1395" y="-144" font-family="Helvetica,sans-Serif" font-size="10.00">Factory.createLabel</text>
</a>
</g>
</g>
<!-- Node26&#45;&gt;Node34 -->
<g id="edge36" class="edge"><title>Node26&#45;&gt;Node34</title>
<path fill="none" stroke="midnightblue" d="M1231.41,-209.924C1240.52,-207.074 1249.6,-203.778 1258,-200 1275.54,-192.112 1276.38,-183.696 1294,-176 1298.74,-173.932 1303.68,-172.024 1308.72,-170.268"/>
<polygon fill="midnightblue" stroke="midnightblue" points="1310.09,-173.502 1318.52,-167.073 1307.92,-166.847 1310.09,-173.502"/>
</g>
<!-- Node36 -->
<g id="node36" class="node"><title>Node36</title>
<g id="a_node36"><a xlink:href="../../d0/d7f/classengine_1_1game_object_1_1_game_object.html#a606c7293c2bfac0af1fb42143bf527f6" target="_top" xlink:title="engine.gameObject.GameObject.getX">
<polygon fill="white" stroke="black" points="1296,-98.5 1296,-117.5 1494,-117.5 1494,-98.5 1296,-98.5"/>
<text text-anchor="middle" x="1395" y="-105.5" font-family="Helvetica,sans-Serif" font-size="10.00">engine.gameObject.GameObject.getX</text>
</a>
</g>
</g>
<!-- Node26&#45;&gt;Node36 -->
<g id="edge40" class="edge"><title>Node26&#45;&gt;Node36</title>
<path fill="none" stroke="midnightblue" d="M1240.01,-211.079C1246.47,-208.072 1252.58,-204.424 1258,-200 1286.02,-177.113 1265.21,-148.899 1294,-127 1296.23,-125.303 1298.57,-123.744 1300.99,-122.312"/>
<polygon fill="midnightblue" stroke="midnightblue" points="1302.79,-125.325 1310.1,-117.661 1299.61,-119.09 1302.79,-125.325"/>
</g>
<!-- Node37 -->
<g id="node37" class="node"><title>Node37</title>
<g id="a_node37"><a xlink:href="../../d0/d7f/classengine_1_1game_object_1_1_game_object.html#a1988806ef560c9384f3844d0666a9450" target="_top" xlink:title="engine.gameObject.GameObject.getY">
<polygon fill="white" stroke="black" points="1296.5,-420.5 1296.5,-439.5 1493.5,-439.5 1493.5,-420.5 1296.5,-420.5"/>
<text text-anchor="middle" x="1395" y="-427.5" font-family="Helvetica,sans-Serif" font-size="10.00">engine.gameObject.GameObject.getY</text>
</a>
</g>
</g>
<!-- Node26&#45;&gt;Node37 -->
<g id="edge41" class="edge"><title>Node26&#45;&gt;Node37</title>
<path fill="none" stroke="midnightblue" d="M1240.27,-236.3C1246.84,-239.593 1252.9,-243.754 1258,-249 1309.4,-301.899 1241.05,-359.659 1294,-411 1295.31,-412.269 1296.67,-413.466 1298.09,-414.595"/>
<polygon fill="midnightblue" stroke="midnightblue" points="1296.44,-417.702 1306.7,-420.35 1300.33,-411.883 1296.44,-417.702"/>
</g>
<!-- Node38 -->
<g id="node38" class="node"><title>Node38</title>
<g id="a_node38"><a xlink:href="../../d0/d7f/classengine_1_1game_object_1_1_game_object.html#ae94fe532960bd29f64c2dc19ec0af798" target="_top" xlink:title="engine.gameObject.GameObject.getID">
<polygon fill="white" stroke="black" points="1294,-382.5 1294,-401.5 1496,-401.5 1496,-382.5 1294,-382.5"/>
<text text-anchor="middle" x="1395" y="-389.5" font-family="Helvetica,sans-Serif" font-size="10.00">engine.gameObject.GameObject.getID</text>
</a>
</g>
</g>
<!-- Node26&#45;&gt;Node38 -->
<g id="edge42" class="edge"><title>Node26&#45;&gt;Node38</title>
<path fill="none" stroke="midnightblue" d="M1240.38,-236.882C1246.84,-240.066 1252.85,-244.043 1258,-249 1299.02,-288.519 1252,-333.52 1294,-372 1296,-373.832 1298.12,-375.515 1300.33,-377.063"/>
<polygon fill="midnightblue" stroke="midnightblue" points="1298.92,-380.297 1309.31,-382.379 1302.49,-374.273 1298.92,-380.297"/>
</g>
<!-- Node30 -->
<g id="node30" class="node"><title>Node30</title>
<g id="a_node30"><a xlink:href="../../d0/d7f/classengine_1_1game_object_1_1_game_object.html#a60c5b6933aac9969491a3562a963c043" target="_top" xlink:title="engine.gameObject.GameObject.get\lPhysicsBody">
<polygon fill="white" stroke="black" points="1532,-196 1532,-226 1724,-226 1724,-196 1532,-196"/>
<text text-anchor="start" x="1540" y="-214" font-family="Helvetica,sans-Serif" font-size="10.00">engine.gameObject.GameObject.get</text>
<text text-anchor="middle" x="1628" y="-203" font-family="Helvetica,sans-Serif" font-size="10.00">PhysicsBody</text>
</a>
</g>
</g>
<!-- Node29&#45;&gt;Node30 -->
<g id="edge32" class="edge"><title>Node29&#45;&gt;Node30</title>
<path fill="none" stroke="midnightblue" d="M1473.24,-236.959C1490.73,-234.007 1509.53,-230.833 1527.78,-227.751"/>
<polygon fill="midnightblue" stroke="midnightblue" points="1528.57,-231.167 1537.85,-226.051 1527.41,-224.265 1528.57,-231.167"/>
</g>
<!-- Node31 -->
<g id="node31" class="node"><title>Node31</title>
<g id="a_node31"><a xlink:href="../../d9/d9d/classengine_1_1game_object_1_1components_1_1_physics_body.html#aba2ed3bce8ee8e404907c88b144626fc" target="_top" xlink:title="engine.gameObject.components.\lPhysicsBody.getCollisionBodyHeight">
<polygon fill="white" stroke="black" points="1534,-294 1534,-324 1722,-324 1722,-294 1534,-294"/>
<text text-anchor="start" x="1542" y="-312" font-family="Helvetica,sans-Serif" font-size="10.00">engine.gameObject.components.</text>
<text text-anchor="middle" x="1628" y="-301" font-family="Helvetica,sans-Serif" font-size="10.00">PhysicsBody.getCollisionBodyHeight</text>
</a>
</g>
</g>
<!-- Node29&#45;&gt;Node31 -->
<g id="edge33" class="edge"><title>Node29&#45;&gt;Node31</title>
<path fill="none" stroke="midnightblue" d="M1460.1,-265.028C1472.05,-267.931 1484.42,-271.003 1496,-274 1512.08,-278.161 1515.97,-279.665 1532,-284 1540.89,-286.403 1550.25,-288.905 1559.49,-291.356"/>
<polygon fill="midnightblue" stroke="midnightblue" points="1558.88,-294.815 1569.45,-293.989 1560.67,-288.048 1558.88,-294.815"/>
</g>
<!-- Node32 -->
<g id="node32" class="node"><title>Node32</title>
<g id="a_node32"><a xlink:href="../../d9/d9d/classengine_1_1game_object_1_1components_1_1_physics_body.html#ae64e43632570392c3118b3d00af853fc" target="_top" xlink:title="engine.gameObject.components.\lPhysicsBody.getCollisionBodyWidth">
<polygon fill="white" stroke="black" points="1537,-245 1537,-275 1719,-275 1719,-245 1537,-245"/>
<text text-anchor="start" x="1545" y="-263" font-family="Helvetica,sans-Serif" font-size="10.00">engine.gameObject.components.</text>
<text text-anchor="middle" x="1628" y="-252" font-family="Helvetica,sans-Serif" font-size="10.00">PhysicsBody.getCollisionBodyWidth</text>
</a>
</g>
</g>
<!-- Node29&#45;&gt;Node32 -->
<g id="edge34" class="edge"><title>Node29&#45;&gt;Node32</title>
<path fill="none" stroke="midnightblue" d="M1473.24,-253.344C1490.24,-254.079 1508.48,-254.869 1526.24,-255.638"/>
<polygon fill="midnightblue" stroke="midnightblue" points="1526.49,-259.152 1536.64,-256.088 1526.8,-252.159 1526.49,-259.152"/>
</g>
<!-- Node34&#45;&gt;Node20 -->
<g id="edge38" class="edge"><title>Node34&#45;&gt;Node20</title>
<path fill="none" stroke="midnightblue" d="M1473.24,-138.959C1490.73,-136.007 1509.53,-132.833 1527.78,-129.751"/>
<polygon fill="midnightblue" stroke="midnightblue" points="1528.57,-133.167 1537.85,-128.051 1527.41,-126.265 1528.57,-133.167"/>
</g>
<!-- Node34&#45;&gt;Node21 -->
<g id="edge39" class="edge"><title>Node34&#45;&gt;Node21</title>
<path fill="none" stroke="midnightblue" d="M1473.18,-137.607C1481.15,-134.695 1488.92,-131.198 1496,-127 1516.29,-114.97 1511.72,-100.055 1532,-88 1534.85,-86.3047 1537.82,-84.7285 1540.87,-83.2629"/>
<polygon fill="midnightblue" stroke="midnightblue" points="1542.46,-86.388 1550.23,-79.1901 1539.67,-79.9687 1542.46,-86.388"/>
</g>
<!-- Node35 -->
<g id="node35" class="node"><title>Node35</title>
<g id="a_node35"><a xlink:href="../../d0/d7f/classengine_1_1game_object_1_1_game_object.html#a5c379828f3bb19a91935f965c48a91a5" target="_top" xlink:title="engine.gameObject.GameObject.get\lLabel">
<polygon fill="white" stroke="black" points="1532,-147 1532,-177 1724,-177 1724,-147 1532,-147"/>
<text text-anchor="start" x="1540" y="-165" font-family="Helvetica,sans-Serif" font-size="10.00">engine.gameObject.GameObject.get</text>
<text text-anchor="middle" x="1628" y="-154" font-family="Helvetica,sans-Serif" font-size="10.00">Label</text>
</a>
</g>
</g>
<!-- Node34&#45;&gt;Node35 -->
<g id="edge37" class="edge"><title>Node34&#45;&gt;Node35</title>
<path fill="none" stroke="midnightblue" d="M1473.24,-155.344C1488.77,-156.016 1505.35,-156.734 1521.65,-157.439"/>
<polygon fill="midnightblue" stroke="midnightblue" points="1521.61,-160.941 1531.75,-157.877 1521.91,-153.947 1521.61,-160.941"/>
</g>
</g>
</svg>
