<?xml version="1.0" encoding="UTF-8" standalone="no"?>
<!DOCTYPE svg PUBLIC "-//W3C//DTD SVG 1.1//EN"
 "http://www.w3.org/Graphics/SVG/1.1/DTD/svg11.dtd">
<!-- Generated by graphviz version 2.36.0 (20140111.2315)
 -->
<!-- Title: engine.level.LevelManager.setCurrentLevel Pages: 1 -->
<!--zoomable 471 -->
<svg id="main" version="1.1" xmlns="http://www.w3.org/2000/svg" xmlns:xlink="http://www.w3.org/1999/xlink" xml:space="preserve" onload="init(evt)">
<style type="text/css"><![CDATA[
.edge:hover path { stroke: red; }
.edge:hover polygon { stroke: red; fill: red; }
]]></style>
<script type="text/javascript"><![CDATA[
var edges = document.getElementsByTagName('g');
if (edges && edges.length) {
  for (var i=0;i<edges.length;i++) {
    if (edges[i].id.substr(0,4)=='edge') {
      edges[i].setAttribute('class','edge');
    }
  }
}
]]></script>
        <defs>
                <circle id="rim" cx="0" cy="0" r="7"/>
                <circle id="rim2" cx="0" cy="0" r="3.5"/>
                <g id="zoomPlus">
                        <use xlink:href="#rim" fill="#404040">
                                <set attributeName="fill" to="#808080" begin="zoomplus.mouseover" end="zoomplus.mouseout"/>
                        </use>
                        <path d="M-4,0h8M0,-4v8" fill="none" stroke="white" stroke-width="1.5" pointer-events="none"/>
                </g>
                <g id="zoomMin">
                        <use xlink:href="#rim" fill="#404040">
                                <set attributeName="fill" to="#808080" begin="zoomminus.mouseover" end="zoomminus.mouseout"/>
                        </use>
                        <path d="M-4,0h8" fill="none" stroke="white" stroke-width="1.5" pointer-events="none"/>
                </g>
                <g id="dirArrow">
                        <path fill="none" stroke="white" stroke-width="1.5" d="M0,-3.0v7 M-2.5,-0.5L0,-3.0L2.5,-0.5"/>
                </g>
               <g id="resetDef">
                       <use xlink:href="#rim2" fill="#404040">
                               <set attributeName="fill" to="#808080" begin="reset.mouseover" end="reset.mouseout"/>
                       </use>
               </g>
        </defs>

<script type="text/javascript">
var viewWidth = 1514;
var viewHeight = 471;
var sectionId = 'dynsection-18';
</script>
<script xlink:href="../../svgpan.js"/>
<svg id="graph" class="graph">
<g id="viewport">
<title>engine.level.LevelManager.setCurrentLevel</title>
<polygon fill="white" stroke="none" points="-4,4 -4,-466.814 1510,-466.814 1510,4 -4,4"/>
<!-- Node1 -->
<g id="node1" class="node"><title>Node1</title>
<polygon fill="#bfbfbf" stroke="black" points="0.5,-259 0.5,-289 161.5,-289 161.5,-259 0.5,-259"/>
<text text-anchor="start" x="8.5" y="-277" font-family="Helvetica,sans-Serif" font-size="10.00">engine.level.LevelManager.set</text>
<text text-anchor="middle" x="81" y="-266" font-family="Helvetica,sans-Serif" font-size="10.00">CurrentLevel</text>
</g>
<!-- Node2 -->
<g id="node2" class="node"><title>Node2</title>
<g id="a_node2"><a xlink:href="../../df/d67/classengine_1_1level_1_1_level_manager.html#a523599892453015eed0f1b506979af8a" target="_top" xlink:title="engine.level.LevelManager.initialize\lCurrentLevel">
<polygon fill="white" stroke="black" points="198,-259 198,-289 382,-289 382,-259 198,-259"/>
<text text-anchor="start" x="206" y="-277" font-family="Helvetica,sans-Serif" font-size="10.00">engine.level.LevelManager.initialize</text>
<text text-anchor="middle" x="290" y="-266" font-family="Helvetica,sans-Serif" font-size="10.00">CurrentLevel</text>
</a>
</g>
</g>
<!-- Node1&#45;&gt;Node2 -->
<g id="edge1" class="edge"><title>Node1&#45;&gt;Node2</title>
<path fill="none" stroke="midnightblue" d="M161.736,-274C170.249,-274 178.989,-274 187.708,-274"/>
<polygon fill="midnightblue" stroke="midnightblue" points="187.92,-277.5 197.92,-274 187.92,-270.5 187.92,-277.5"/>
</g>
<!-- Node3 -->
<g id="node3" class="node"><title>Node3</title>
<g id="a_node3"><a xlink:href="../../df/d67/classengine_1_1level_1_1_level_manager.html#af00a1d61217dd801bb7a8b16ad829cf0" target="_top" xlink:title="engine.level.LevelManager.disable\lAllConditions">
<polygon fill="white" stroke="black" points="418.5,-396 418.5,-426 597.5,-426 597.5,-396 418.5,-396"/>
<text text-anchor="start" x="426.5" y="-414" font-family="Helvetica,sans-Serif" font-size="10.00">engine.level.LevelManager.disable</text>
<text text-anchor="middle" x="508" y="-403" font-family="Helvetica,sans-Serif" font-size="10.00">AllConditions</text>
</a>
</g>
</g>
<!-- Node2&#45;&gt;Node3 -->
<g id="edge2" class="edge"><title>Node2&#45;&gt;Node3</title>
<path fill="none" stroke="midnightblue" d="M303.864,-289.068C325.178,-313.093 370.227,-360.008 418,-386 422.185,-388.277 426.597,-390.362 431.126,-392.269"/>
<polygon fill="midnightblue" stroke="midnightblue" points="429.964,-395.573 440.552,-395.938 432.503,-389.05 429.964,-395.573"/>
</g>
<!-- Node4 -->
<g id="node4" class="node"><title>Node4</title>
<g id="a_node4"><a xlink:href="../../df/d84/classengine_1_1level_1_1_level.html#a368275ed98c802fbf59a11423b9b9a0d" target="_top" xlink:title="engine.level.Level.getBackground\lMusic">
<polygon fill="white" stroke="black" points="419.5,-347 419.5,-377 596.5,-377 596.5,-347 419.5,-347"/>
<text text-anchor="start" x="427.5" y="-365" font-family="Helvetica,sans-Serif" font-size="10.00">engine.level.Level.getBackground</text>
<text text-anchor="middle" x="508" y="-354" font-family="Helvetica,sans-Serif" font-size="10.00">Music</text>
</a>
</g>
</g>
<!-- Node2&#45;&gt;Node4 -->
<g id="edge3" class="edge"><title>Node2&#45;&gt;Node4</title>
<path fill="none" stroke="midnightblue" d="M317.592,-289.02C342.843,-302.838 382.164,-323.217 418,-337 424.341,-339.439 431.018,-341.754 437.746,-343.921"/>
<polygon fill="midnightblue" stroke="midnightblue" points="437.021,-347.361 447.609,-346.986 439.098,-340.676 437.021,-347.361"/>
</g>
<!-- Node5 -->
<g id="node5" class="node"><title>Node5</title>
<g id="a_node5"><a xlink:href="../../df/d84/classengine_1_1level_1_1_level.html#ace23cd4ed278a5bb85e964ff3c8818b5" target="_top" xlink:title="engine.level.Level.initialize">
<polygon fill="white" stroke="black" points="436.5,-308.5 436.5,-327.5 579.5,-327.5 579.5,-308.5 436.5,-308.5"/>
<text text-anchor="middle" x="508" y="-315.5" font-family="Helvetica,sans-Serif" font-size="10.00">engine.level.Level.initialize</text>
</a>
</g>
</g>
<!-- Node2&#45;&gt;Node5 -->
<g id="edge4" class="edge"><title>Node2&#45;&gt;Node5</title>
<path fill="none" stroke="midnightblue" d="M364.731,-289.019C392.675,-294.712 424.034,-301.099 450.184,-306.426"/>
<polygon fill="midnightblue" stroke="midnightblue" points="449.805,-309.921 460.303,-308.488 451.203,-303.062 449.805,-309.921"/>
</g>
<!-- Node10 -->
<g id="node10" class="node"><title>Node10</title>
<g id="a_node10"><a xlink:href="../../da/d90/classengine_1_1sound_1_1_sound_utility.html#ab8cd26d71aa7b20d07350105a4254c92" target="_top" xlink:title="engine.sound.SoundUtility.play\lBackGroundMusic">
<polygon fill="white" stroke="black" points="426.5,-259 426.5,-289 589.5,-289 589.5,-259 426.5,-259"/>
<text text-anchor="start" x="434.5" y="-277" font-family="Helvetica,sans-Serif" font-size="10.00">engine.sound.SoundUtility.play</text>
<text text-anchor="middle" x="508" y="-266" font-family="Helvetica,sans-Serif" font-size="10.00">BackGroundMusic</text>
</a>
</g>
</g>
<!-- Node2&#45;&gt;Node10 -->
<g id="edge9" class="edge"><title>Node2&#45;&gt;Node10</title>
<path fill="none" stroke="midnightblue" d="M382.29,-274C393.486,-274 404.927,-274 416.116,-274"/>
<polygon fill="midnightblue" stroke="midnightblue" points="416.307,-277.5 426.307,-274 416.307,-270.5 416.307,-277.5"/>
</g>
<!-- Node11 -->
<g id="node11" class="node"><title>Node11</title>
<g id="a_node11"><a xlink:href="../../dd/d8d/classengine_1_1render_1_1_renderer.html#a189dda9a8463274afe267959860f0dee" target="_top" xlink:title="engine.render.Renderer.render\lGameObjects">
<polygon fill="white" stroke="black" points="427,-210 427,-240 589,-240 589,-210 427,-210"/>
<text text-anchor="start" x="435" y="-228" font-family="Helvetica,sans-Serif" font-size="10.00">engine.render.Renderer.render</text>
<text text-anchor="middle" x="508" y="-217" font-family="Helvetica,sans-Serif" font-size="10.00">GameObjects</text>
</a>
</g>
</g>
<!-- Node2&#45;&gt;Node11 -->
<g id="edge10" class="edge"><title>Node2&#45;&gt;Node11</title>
<path fill="none" stroke="midnightblue" d="M357.275,-258.965C380.6,-253.674 406.993,-247.687 431.053,-242.229"/>
<polygon fill="midnightblue" stroke="midnightblue" points="431.872,-245.632 440.85,-240.006 430.324,-238.805 431.872,-245.632"/>
</g>
<!-- Node35 -->
<g id="node35" class="node"><title>Node35</title>
<g id="a_node35"><a xlink:href="../../df/d67/classengine_1_1level_1_1_level_manager.html#a5d79217e53b1e3804476ba6b366ad066" target="_top" xlink:title="engine.level.LevelManager.set\lLevelEnabledConditions">
<polygon fill="white" stroke="black" points="427.5,-112 427.5,-142 588.5,-142 588.5,-112 427.5,-112"/>
<text text-anchor="start" x="435.5" y="-130" font-family="Helvetica,sans-Serif" font-size="10.00">engine.level.LevelManager.set</text>
<text text-anchor="middle" x="508" y="-119" font-family="Helvetica,sans-Serif" font-size="10.00">LevelEnabledConditions</text>
</a>
</g>
</g>
<!-- Node2&#45;&gt;Node35 -->
<g id="edge40" class="edge"><title>Node2&#45;&gt;Node35</title>
<path fill="none" stroke="midnightblue" d="M313.302,-258.822C352.207,-232.345 432.52,-177.688 476.525,-147.74"/>
<polygon fill="midnightblue" stroke="midnightblue" points="478.521,-150.615 484.819,-142.095 474.583,-144.828 478.521,-150.615"/>
</g>
<!-- Node38 -->
<g id="node38" class="node"><title>Node38</title>
<g id="a_node38"><a xlink:href="../../da/d90/classengine_1_1sound_1_1_sound_utility.html#a53a82805b12b2b8f68b8396b9795d092" target="_top" xlink:title="engine.sound.SoundUtility.stop\lBackGroundMusic">
<polygon fill="white" stroke="black" points="426,-63 426,-93 590,-93 590,-63 426,-63"/>
<text text-anchor="start" x="434" y="-81" font-family="Helvetica,sans-Serif" font-size="10.00">engine.sound.SoundUtility.stop</text>
<text text-anchor="middle" x="508" y="-70" font-family="Helvetica,sans-Serif" font-size="10.00">BackGroundMusic</text>
</a>
</g>
</g>
<!-- Node2&#45;&gt;Node38 -->
<g id="edge43" class="edge"><title>Node2&#45;&gt;Node38</title>
<path fill="none" stroke="midnightblue" d="M297.771,-258.919C313.662,-225.295 356.69,-143.862 418,-102 420.276,-100.446 422.648,-98.9928 425.093,-97.6333"/>
<polygon fill="midnightblue" stroke="midnightblue" points="426.818,-100.685 434.227,-93.1105 423.712,-94.4118 426.818,-100.685"/>
</g>
<!-- Node6 -->
<g id="node6" class="node"><title>Node6</title>
<g id="a_node6"><a xlink:href="../../d4/d3b/classauthoring_1_1model_1_1collections_1_1_general_collection.html#a1bdc1047736bbb23259d6a7fe4c6deeb" target="_top" xlink:title="authoring.model.collections.\lGeneralCollection.add">
<polygon fill="white" stroke="black" points="647,-347 647,-377 799,-377 799,-347 647,-347"/>
<text text-anchor="start" x="655" y="-365" font-family="Helvetica,sans-Serif" font-size="10.00">authoring.model.collections.</text>
<text text-anchor="middle" x="723" y="-354" font-family="Helvetica,sans-Serif" font-size="10.00">GeneralCollection.add</text>
</a>
</g>
</g>
<!-- Node5&#45;&gt;Node6 -->
<g id="edge5" class="edge"><title>Node5&#45;&gt;Node6</title>
<path fill="none" stroke="midnightblue" d="M555.218,-327.547C579.734,-332.612 610.606,-338.989 639.103,-344.876"/>
<polygon fill="midnightblue" stroke="midnightblue" points="638.569,-348.339 649.07,-346.935 639.985,-341.484 638.569,-348.339"/>
</g>
<!-- Node7 -->
<g id="node7" class="node"><title>Node7</title>
<g id="a_node7"><a xlink:href="../../d0/d7f/classengine_1_1game_object_1_1_game_object.html#accd456b2eaab9c7056de825a28b066c8" target="_top" xlink:title="engine.gameObject.GameObject.get\lIdentifier">
<polygon fill="white" stroke="black" points="848,-308 848,-338 1040,-338 1040,-308 848,-308"/>
<text text-anchor="start" x="856" y="-326" font-family="Helvetica,sans-Serif" font-size="10.00">engine.gameObject.GameObject.get</text>
<text text-anchor="middle" x="944" y="-315" font-family="Helvetica,sans-Serif" font-size="10.00">Identifier</text>
</a>
</g>
</g>
<!-- Node5&#45;&gt;Node7 -->
<g id="edge6" class="edge"><title>Node5&#45;&gt;Node7</title>
<path fill="none" stroke="midnightblue" d="M579.771,-325.95C586.397,-328.733 592.629,-332.341 598,-337 633.051,-367.405 595.951,-408.442 634,-435 698.872,-480.28 737.786,-462.401 812,-435 859.824,-417.343 902.015,-373.581 924.888,-346.281"/>
<polygon fill="midnightblue" stroke="midnightblue" points="927.726,-348.34 931.352,-338.385 922.309,-343.906 927.726,-348.34"/>
</g>
<!-- Node8 -->
<g id="node8" class="node"><title>Node8</title>
<g id="a_node8"><a xlink:href="../../d4/dac/classengine_1_1game_object_1_1_identifier.html#aa2630b5024b9595e43afe0bf53229433" target="_top" xlink:title="engine.gameObject.Identifier.get\lUniqueId">
<polygon fill="white" stroke="black" points="636.5,-298 636.5,-328 809.5,-328 809.5,-298 636.5,-298"/>
<text text-anchor="start" x="644.5" y="-316" font-family="Helvetica,sans-Serif" font-size="10.00">engine.gameObject.Identifier.get</text>
<text text-anchor="middle" x="723" y="-305" font-family="Helvetica,sans-Serif" font-size="10.00">UniqueId</text>
</a>
</g>
</g>
<!-- Node5&#45;&gt;Node8 -->
<g id="edge7" class="edge"><title>Node5&#45;&gt;Node8</title>
<path fill="none" stroke="midnightblue" d="M579.63,-316.342C594.531,-315.992 610.492,-315.618 626.144,-315.25"/>
<polygon fill="midnightblue" stroke="midnightblue" points="626.455,-318.744 636.371,-315.01 626.291,-311.746 626.455,-318.744"/>
</g>
<!-- Node9 -->
<g id="node9" class="node"><title>Node9</title>
<g id="a_node9"><a xlink:href="../../df/d67/classengine_1_1level_1_1_level_manager.html#a6e15411e375d875fa72058d499bec766" target="_top" xlink:title="engine.level.LevelManager.object\lForIdentifier">
<polygon fill="white" stroke="black" points="635.5,-396 635.5,-426 810.5,-426 810.5,-396 635.5,-396"/>
<text text-anchor="start" x="643.5" y="-414" font-family="Helvetica,sans-Serif" font-size="10.00">engine.level.LevelManager.object</text>
<text text-anchor="middle" x="723" y="-403" font-family="Helvetica,sans-Serif" font-size="10.00">ForIdentifier</text>
</a>
</g>
</g>
<!-- Node5&#45;&gt;Node9 -->
<g id="edge8" class="edge"><title>Node5&#45;&gt;Node9</title>
<path fill="none" stroke="midnightblue" d="M578.547,-327.58C585.407,-330.051 592.029,-333.141 598,-337 620.696,-351.668 611.804,-370.586 634,-386 636.892,-388.009 639.944,-389.857 643.105,-391.557"/>
<polygon fill="midnightblue" stroke="midnightblue" points="641.736,-394.783 652.264,-395.969 644.774,-388.476 641.736,-394.783"/>
</g>
<!-- Node11&#45;&gt;Node7 -->
<g id="edge19" class="edge"><title>Node11&#45;&gt;Node7</title>
<path fill="none" stroke="midnightblue" d="M588.429,-240.027C649.737,-251.985 736.549,-269.698 812,-288 828.138,-291.915 831.97,-293.665 848,-298 856.886,-300.403 866.249,-302.905 875.491,-305.356"/>
<polygon fill="midnightblue" stroke="midnightblue" points="874.883,-308.815 885.445,-307.989 876.673,-302.048 874.883,-308.815"/>
</g>
<!-- Node11&#45;&gt;Node8 -->
<g id="edge20" class="edge"><title>Node11&#45;&gt;Node8</title>
<path fill="none" stroke="midnightblue" d="M578.374,-240.043C585.193,-242.597 591.855,-245.562 598,-249 617.206,-259.746 615.154,-271.634 634,-283 640.977,-287.208 648.624,-290.922 656.405,-294.175"/>
<polygon fill="midnightblue" stroke="midnightblue" points="655.34,-297.517 665.927,-297.915 657.899,-291.002 655.34,-297.517"/>
</g>
<!-- Node12 -->
<g id="node12" class="node"><title>Node12</title>
<g id="a_node12"><a xlink:href="../../dd/d8d/classengine_1_1render_1_1_renderer.html#a10b850c208c44a1137b099d1967c6e9b" target="_top" xlink:title="engine.render.Renderer.set\lBackGroundImage">
<polygon fill="white" stroke="black" points="650,-161 650,-191 796,-191 796,-161 650,-161"/>
<text text-anchor="start" x="658" y="-179" font-family="Helvetica,sans-Serif" font-size="10.00">engine.render.Renderer.set</text>
<text text-anchor="middle" x="723" y="-168" font-family="Helvetica,sans-Serif" font-size="10.00">BackGroundImage</text>
</a>
</g>
</g>
<!-- Node11&#45;&gt;Node12 -->
<g id="edge11" class="edge"><title>Node11&#45;&gt;Node12</title>
<path fill="none" stroke="midnightblue" d="M574.355,-209.965C597.253,-204.698 623.151,-198.74 646.791,-193.302"/>
<polygon fill="midnightblue" stroke="midnightblue" points="647.808,-196.659 656.769,-191.006 646.239,-189.837 647.808,-196.659"/>
</g>
<!-- Node18 -->
<g id="node18" class="node"><title>Node18</title>
<g id="a_node18"><a xlink:href="../../df/d84/classengine_1_1level_1_1_level.html#af2921158eda86e1f909575ee468eec5c" target="_top" xlink:title="engine.level.Level.getGame\lObjectIterator">
<polygon fill="white" stroke="black" points="648.5,-112 648.5,-142 797.5,-142 797.5,-112 648.5,-112"/>
<text text-anchor="start" x="656.5" y="-130" font-family="Helvetica,sans-Serif" font-size="10.00">engine.level.Level.getGame</text>
<text text-anchor="middle" x="723" y="-119" font-family="Helvetica,sans-Serif" font-size="10.00">ObjectIterator</text>
</a>
</g>
</g>
<!-- Node11&#45;&gt;Node18 -->
<g id="edge17" class="edge"><title>Node11&#45;&gt;Node18</title>
<path fill="none" stroke="midnightblue" d="M530.629,-209.744C554.829,-193.272 595.68,-167.219 634,-151 638.799,-148.969 643.818,-147.063 648.921,-145.285"/>
<polygon fill="midnightblue" stroke="midnightblue" points="650.406,-148.481 658.804,-142.021 648.211,-141.834 650.406,-148.481"/>
</g>
<!-- Node20 -->
<g id="node20" class="node"><title>Node20</title>
<g id="a_node20"><a xlink:href="../../dd/d8d/classengine_1_1render_1_1_renderer.html#a569f6bb2f9c218ed015949dff459b1ee" target="_top" xlink:title="engine.render.Renderer.create\lAndAssignRenderedNode">
<polygon fill="white" stroke="black" points="642.5,-210 642.5,-240 803.5,-240 803.5,-210 642.5,-210"/>
<text text-anchor="start" x="650.5" y="-228" font-family="Helvetica,sans-Serif" font-size="10.00">engine.render.Renderer.create</text>
<text text-anchor="middle" x="723" y="-217" font-family="Helvetica,sans-Serif" font-size="10.00">AndAssignRenderedNode</text>
</a>
</g>
</g>
<!-- Node11&#45;&gt;Node20 -->
<g id="edge21" class="edge"><title>Node11&#45;&gt;Node20</title>
<path fill="none" stroke="midnightblue" d="M589.223,-225C603.172,-225 617.763,-225 631.955,-225"/>
<polygon fill="midnightblue" stroke="midnightblue" points="632.203,-228.5 642.203,-225 632.203,-221.5 632.203,-228.5"/>
</g>
<!-- Node13 -->
<g id="node13" class="node"><title>Node13</title>
<g id="a_node13"><a xlink:href="../../d5/d30/classengine_1_1render_1_1_rendered_node_factory.html#ae9ab86f88eb96945a412e561179aa070" target="_top" xlink:title="engine.render.RenderedNode\lFactory.createImageAndView">
<polygon fill="white" stroke="black" points="1099,-49 1099,-79 1255,-79 1255,-49 1099,-49"/>
<text text-anchor="start" x="1107" y="-67" font-family="Helvetica,sans-Serif" font-size="10.00">engine.render.RenderedNode</text>
<text text-anchor="middle" x="1177" y="-56" font-family="Helvetica,sans-Serif" font-size="10.00">Factory.createImageAndView</text>
</a>
</g>
</g>
<!-- Node12&#45;&gt;Node13 -->
<g id="edge12" class="edge"><title>Node12&#45;&gt;Node13</title>
<path fill="none" stroke="midnightblue" d="M796.29,-161.401C889.346,-142.602 1039.28,-112.289 1040,-112 1057.6,-104.884 1058.56,-96.5117 1076,-89 1081.77,-86.5143 1087.84,-84.2401 1094.02,-82.1663"/>
<polygon fill="midnightblue" stroke="midnightblue" points="1095.31,-85.4285 1103.78,-79.0707 1093.19,-78.7557 1095.31,-85.4285"/>
</g>
<!-- Node17 -->
<g id="node17" class="node"><title>Node17</title>
<g id="a_node17"><a xlink:href="../../df/d84/classengine_1_1level_1_1_level.html#a5dc36c31fcc8e0b5cbe2a942ec101fdb" target="_top" xlink:title="engine.level.Level.getBackground\lImage">
<polygon fill="white" stroke="black" points="855.5,-161 855.5,-191 1032.5,-191 1032.5,-161 855.5,-161"/>
<text text-anchor="start" x="863.5" y="-179" font-family="Helvetica,sans-Serif" font-size="10.00">engine.level.Level.getBackground</text>
<text text-anchor="middle" x="944" y="-168" font-family="Helvetica,sans-Serif" font-size="10.00">Image</text>
</a>
</g>
</g>
<!-- Node12&#45;&gt;Node17 -->
<g id="edge16" class="edge"><title>Node12&#45;&gt;Node17</title>
<path fill="none" stroke="midnightblue" d="M796.012,-176C811.705,-176 828.566,-176 845.072,-176"/>
<polygon fill="midnightblue" stroke="midnightblue" points="845.29,-179.5 855.29,-176 845.29,-172.5 845.29,-179.5"/>
</g>
<!-- Node14 -->
<g id="node14" class="node"><title>Node14</title>
<g id="a_node14"><a xlink:href="../../d0/d7f/classengine_1_1game_object_1_1_game_object.html#ae8b88e1cf489e935426e2e252defbae0" target="_top" xlink:title="engine.gameObject.GameObject.get\lCurrentImageName">
<polygon fill="white" stroke="black" points="1314,-0 1314,-30 1506,-30 1506,-0 1314,-0"/>
<text text-anchor="start" x="1322" y="-18" font-family="Helvetica,sans-Serif" font-size="10.00">engine.gameObject.GameObject.get</text>
<text text-anchor="middle" x="1410" y="-7" font-family="Helvetica,sans-Serif" font-size="10.00">CurrentImageName</text>
</a>
</g>
</g>
<!-- Node13&#45;&gt;Node14 -->
<g id="edge13" class="edge"><title>Node13&#45;&gt;Node14</title>
<path fill="none" stroke="midnightblue" d="M1248.88,-48.9654C1274.04,-43.627 1302.55,-37.5802 1328.46,-32.0834"/>
<polygon fill="midnightblue" stroke="midnightblue" points="1329.2,-35.5051 1338.26,-30.0062 1327.75,-28.6575 1329.2,-35.5051"/>
</g>
<!-- Node15 -->
<g id="node15" class="node"><title>Node15</title>
<g id="a_node15"><a xlink:href="../../d0/d7f/classengine_1_1game_object_1_1_game_object.html#aaeb5730a3b51fe9cb3d817ea7172cfc2" target="_top" xlink:title="engine.gameObject.GameObject.get\lHeight">
<polygon fill="white" stroke="black" points="1314,-98 1314,-128 1506,-128 1506,-98 1314,-98"/>
<text text-anchor="start" x="1322" y="-116" font-family="Helvetica,sans-Serif" font-size="10.00">engine.gameObject.GameObject.get</text>
<text text-anchor="middle" x="1410" y="-105" font-family="Helvetica,sans-Serif" font-size="10.00">Height</text>
</a>
</g>
</g>
<!-- Node13&#45;&gt;Node15 -->
<g id="edge14" class="edge"><title>Node13&#45;&gt;Node15</title>
<path fill="none" stroke="midnightblue" d="M1248.88,-79.0346C1274.04,-84.373 1302.55,-90.4198 1328.46,-95.9166"/>
<polygon fill="midnightblue" stroke="midnightblue" points="1327.75,-99.3425 1338.26,-97.9938 1329.2,-92.4949 1327.75,-99.3425"/>
</g>
<!-- Node16 -->
<g id="node16" class="node"><title>Node16</title>
<g id="a_node16"><a xlink:href="../../d0/d7f/classengine_1_1game_object_1_1_game_object.html#a31aa2c854220621b49fc5575b50b9342" target="_top" xlink:title="engine.gameObject.GameObject.get\lWidth">
<polygon fill="white" stroke="black" points="1314,-49 1314,-79 1506,-79 1506,-49 1314,-49"/>
<text text-anchor="start" x="1322" y="-67" font-family="Helvetica,sans-Serif" font-size="10.00">engine.gameObject.GameObject.get</text>
<text text-anchor="middle" x="1410" y="-56" font-family="Helvetica,sans-Serif" font-size="10.00">Width</text>
</a>
</g>
</g>
<!-- Node13&#45;&gt;Node16 -->
<g id="edge15" class="edge"><title>Node13&#45;&gt;Node16</title>
<path fill="none" stroke="midnightblue" d="M1255.24,-64C1270.77,-64 1287.35,-64 1303.65,-64"/>
<polygon fill="midnightblue" stroke="midnightblue" points="1303.75,-67.5001 1313.75,-64 1303.75,-60.5001 1303.75,-67.5001"/>
</g>
<!-- Node19 -->
<g id="node19" class="node"><title>Node19</title>
<g id="a_node19"><a xlink:href="../../d4/d3b/classauthoring_1_1model_1_1collections_1_1_general_collection.html#a79482ff667a22bb0d5b702c03261fe8d" target="_top" xlink:title="authoring.model.collections.\lGeneralCollection.iterator">
<polygon fill="white" stroke="black" points="868,-73 868,-103 1020,-103 1020,-73 868,-73"/>
<text text-anchor="start" x="876" y="-91" font-family="Helvetica,sans-Serif" font-size="10.00">authoring.model.collections.</text>
<text text-anchor="middle" x="944" y="-80" font-family="Helvetica,sans-Serif" font-size="10.00">GeneralCollection.iterator</text>
</a>
</g>
</g>
<!-- Node18&#45;&gt;Node19 -->
<g id="edge18" class="edge"><title>Node18&#45;&gt;Node19</title>
<path fill="none" stroke="midnightblue" d="M797.533,-113.905C816.88,-110.46 837.912,-106.714 857.815,-103.17"/>
<polygon fill="midnightblue" stroke="midnightblue" points="858.562,-106.592 867.793,-101.393 857.334,-99.7006 858.562,-106.592"/>
</g>
<!-- Node20&#45;&gt;Node7 -->
<g id="edge38" class="edge"><title>Node20&#45;&gt;Node7</title>
<path fill="none" stroke="midnightblue" d="M782.95,-240.089C793.11,-244.062 803.215,-248.975 812,-255 832.555,-269.097 826.956,-284.643 848,-298 851.213,-300.039 854.587,-301.913 858.071,-303.634"/>
<polygon fill="midnightblue" stroke="midnightblue" points="856.952,-306.968 867.51,-307.845 859.803,-300.575 856.952,-306.968"/>
</g>
<!-- Node21 -->
<g id="node21" class="node"><title>Node21</title>
<g id="a_node21"><a xlink:href="../../d5/d30/classengine_1_1render_1_1_rendered_node_factory.html#a359dcce722371dfb49b79528930c1b05" target="_top" xlink:title="engine.render.RenderedNode\lFactory.createRenderedNode">
<polygon fill="white" stroke="black" points="866,-210 866,-240 1022,-240 1022,-210 866,-210"/>
<text text-anchor="start" x="874" y="-228" font-family="Helvetica,sans-Serif" font-size="10.00">engine.render.RenderedNode</text>
<text text-anchor="middle" x="944" y="-217" font-family="Helvetica,sans-Serif" font-size="10.00">Factory.createRenderedNode</text>
</a>
</g>
</g>
<!-- Node20&#45;&gt;Node21 -->
<g id="edge22" class="edge"><title>Node20&#45;&gt;Node21</title>
<path fill="none" stroke="midnightblue" d="M803.684,-225C820.655,-225 838.66,-225 855.892,-225"/>
<polygon fill="midnightblue" stroke="midnightblue" points="855.936,-228.5 865.936,-225 855.936,-221.5 855.936,-228.5"/>
</g>
<!-- Node34 -->
<g id="node34" class="node"><title>Node34</title>
<g id="a_node34"><a xlink:href="../../d0/d7f/classengine_1_1game_object_1_1_game_object.html#ab09d473d8c2afe8cefb2ce2481bc66fd" target="_top" xlink:title="engine.gameObject.GameObject.set\lRenderedNode">
<polygon fill="white" stroke="black" points="848.5,-259 848.5,-289 1039.5,-289 1039.5,-259 848.5,-259"/>
<text text-anchor="start" x="856.5" y="-277" font-family="Helvetica,sans-Serif" font-size="10.00">engine.gameObject.GameObject.set</text>
<text text-anchor="middle" x="944" y="-266" font-family="Helvetica,sans-Serif" font-size="10.00">RenderedNode</text>
</a>
</g>
</g>
<!-- Node20&#45;&gt;Node34 -->
<g id="edge39" class="edge"><title>Node20&#45;&gt;Node34</title>
<path fill="none" stroke="midnightblue" d="M791.196,-240.035C814.844,-245.326 841.604,-251.313 865.998,-256.771"/>
<polygon fill="midnightblue" stroke="midnightblue" points="865.409,-260.226 875.932,-258.994 866.937,-253.395 865.409,-260.226"/>
</g>
<!-- Node21&#45;&gt;Node13 -->
<g id="edge24" class="edge"><title>Node21&#45;&gt;Node13</title>
<path fill="none" stroke="midnightblue" d="M1022.26,-212.113C1028.74,-208.899 1034.79,-204.92 1040,-200 1077.69,-164.374 1038.09,-124.393 1076,-89 1080.09,-85.1837 1084.67,-81.9265 1089.56,-79.1489"/>
<polygon fill="midnightblue" stroke="midnightblue" points="1091.25,-82.2192 1098.66,-74.6499 1088.14,-75.9441 1091.25,-82.2192"/>
</g>
<!-- Node22 -->
<g id="node22" class="node"><title>Node22</title>
<g id="a_node22"><a xlink:href="../../d2/d82/classengine_1_1render_1_1_rendered_node.html#a520a8c03b505d10c69e010e603cadfdd" target="_top" xlink:title="engine.render.RenderedNode.set\lImageView">
<polygon fill="white" stroke="black" points="1090,-333 1090,-363 1264,-363 1264,-333 1090,-333"/>
<text text-anchor="start" x="1098" y="-351" font-family="Helvetica,sans-Serif" font-size="10.00">engine.render.RenderedNode.set</text>
<text text-anchor="middle" x="1177" y="-340" font-family="Helvetica,sans-Serif" font-size="10.00">ImageView</text>
</a>
</g>
</g>
<!-- Node21&#45;&gt;Node22 -->
<g id="edge23" class="edge"><title>Node21&#45;&gt;Node22</title>
<path fill="none" stroke="midnightblue" d="M1022.02,-238.039C1028.47,-240.993 1034.59,-244.6 1040,-249 1068.38,-272.075 1047.6,-299.96 1076,-323 1078.07,-324.677 1080.23,-326.243 1082.48,-327.707"/>
<polygon fill="midnightblue" stroke="midnightblue" points="1081.06,-330.931 1091.48,-332.853 1084.54,-324.853 1081.06,-330.931"/>
</g>
<!-- Node23 -->
<g id="node23" class="node"><title>Node23</title>
<g id="a_node23"><a xlink:href="../../d2/d82/classengine_1_1render_1_1_rendered_node.html#ad73c81ad48b40faea3818c9a7bbfdcf0" target="_top" xlink:title="engine.render.RenderedNode.set\lCollisionBody">
<polygon fill="white" stroke="black" points="1090,-284 1090,-314 1264,-314 1264,-284 1090,-284"/>
<text text-anchor="start" x="1098" y="-302" font-family="Helvetica,sans-Serif" font-size="10.00">engine.render.RenderedNode.set</text>
<text text-anchor="middle" x="1177" y="-291" font-family="Helvetica,sans-Serif" font-size="10.00">CollisionBody</text>
</a>
</g>
</g>
<!-- Node21&#45;&gt;Node23 -->
<g id="edge25" class="edge"><title>Node21&#45;&gt;Node23</title>
<path fill="none" stroke="midnightblue" d="M1016.26,-240.004C1024.42,-242.597 1032.49,-245.581 1040,-249 1057.73,-257.071 1058.26,-265.951 1076,-274 1081.38,-276.44 1087.03,-278.666 1092.79,-280.693"/>
<polygon fill="midnightblue" stroke="midnightblue" points="1091.99,-284.111 1102.58,-283.919 1094.18,-277.463 1091.99,-284.111"/>
</g>
<!-- Node24 -->
<g id="node24" class="node"><title>Node24</title>
<g id="a_node24"><a xlink:href="../../d5/d30/classengine_1_1render_1_1_rendered_node_factory.html#ac14d2f5a3da79d92c967fe22bc82c1ed" target="_top" xlink:title="engine.render.RenderedNode\lFactory.createCollisionBody">
<polygon fill="white" stroke="black" points="1099,-235 1099,-265 1255,-265 1255,-235 1099,-235"/>
<text text-anchor="start" x="1107" y="-253" font-family="Helvetica,sans-Serif" font-size="10.00">engine.render.RenderedNode</text>
<text text-anchor="middle" x="1177" y="-242" font-family="Helvetica,sans-Serif" font-size="10.00">Factory.createCollisionBody</text>
</a>
</g>
</g>
<!-- Node21&#45;&gt;Node24 -->
<g id="edge26" class="edge"><title>Node21&#45;&gt;Node24</title>
<path fill="none" stroke="midnightblue" d="M1022.24,-233.359C1043.62,-235.674 1066.98,-238.201 1088.88,-240.572"/>
<polygon fill="midnightblue" stroke="midnightblue" points="1088.51,-244.052 1098.83,-241.648 1089.27,-237.093 1088.51,-244.052"/>
</g>
<!-- Node28 -->
<g id="node28" class="node"><title>Node28</title>
<g id="a_node28"><a xlink:href="../../d2/d82/classengine_1_1render_1_1_rendered_node.html#a312c663dd1144ff206ecfa1ea8c95a81" target="_top" xlink:title="engine.render.RenderedNode.set\lLabel">
<polygon fill="white" stroke="black" points="1090,-186 1090,-216 1264,-216 1264,-186 1090,-186"/>
<text text-anchor="start" x="1098" y="-204" font-family="Helvetica,sans-Serif" font-size="10.00">engine.render.RenderedNode.set</text>
<text text-anchor="middle" x="1177" y="-193" font-family="Helvetica,sans-Serif" font-size="10.00">Label</text>
</a>
</g>
</g>
<!-- Node21&#45;&gt;Node28 -->
<g id="edge30" class="edge"><title>Node21&#45;&gt;Node28</title>
<path fill="none" stroke="midnightblue" d="M1022.24,-216.975C1040.59,-215.069 1060.38,-213.012 1079.47,-211.029"/>
<polygon fill="midnightblue" stroke="midnightblue" points="1080.09,-214.484 1089.68,-209.969 1079.37,-207.521 1080.09,-214.484"/>
</g>
<!-- Node29 -->
<g id="node29" class="node"><title>Node29</title>
<g id="a_node29"><a xlink:href="../../d5/d30/classengine_1_1render_1_1_rendered_node_factory.html#a4e1f4508b1c12b958bd3c88a35a4e872" target="_top" xlink:title="engine.render.RenderedNode\lFactory.createLabel">
<polygon fill="white" stroke="black" points="1099,-137 1099,-167 1255,-167 1255,-137 1099,-137"/>
<text text-anchor="start" x="1107" y="-155" font-family="Helvetica,sans-Serif" font-size="10.00">engine.render.RenderedNode</text>
<text text-anchor="middle" x="1177" y="-144" font-family="Helvetica,sans-Serif" font-size="10.00">Factory.createLabel</text>
</a>
</g>
</g>
<!-- Node21&#45;&gt;Node29 -->
<g id="edge31" class="edge"><title>Node21&#45;&gt;Node29</title>
<path fill="none" stroke="midnightblue" d="M1013.41,-209.924C1022.52,-207.074 1031.6,-203.778 1040,-200 1057.54,-192.112 1058.38,-183.696 1076,-176 1080.74,-173.932 1085.68,-172.024 1090.72,-170.268"/>
<polygon fill="midnightblue" stroke="midnightblue" points="1092.09,-173.502 1100.52,-167.073 1089.92,-166.847 1092.09,-173.502"/>
</g>
<!-- Node31 -->
<g id="node31" class="node"><title>Node31</title>
<g id="a_node31"><a xlink:href="../../d0/d7f/classengine_1_1game_object_1_1_game_object.html#a606c7293c2bfac0af1fb42143bf527f6" target="_top" xlink:title="engine.gameObject.GameObject.getX">
<polygon fill="white" stroke="black" points="1078,-98.5 1078,-117.5 1276,-117.5 1276,-98.5 1078,-98.5"/>
<text text-anchor="middle" x="1177" y="-105.5" font-family="Helvetica,sans-Serif" font-size="10.00">engine.gameObject.GameObject.getX</text>
</a>
</g>
</g>
<!-- Node21&#45;&gt;Node31 -->
<g id="edge35" class="edge"><title>Node21&#45;&gt;Node31</title>
<path fill="none" stroke="midnightblue" d="M1022.01,-211.079C1028.47,-208.072 1034.58,-204.424 1040,-200 1068.02,-177.113 1047.21,-148.899 1076,-127 1078.23,-125.303 1080.57,-123.744 1082.99,-122.312"/>
<polygon fill="midnightblue" stroke="midnightblue" points="1084.79,-125.325 1092.1,-117.661 1081.61,-119.09 1084.79,-125.325"/>
</g>
<!-- Node32 -->
<g id="node32" class="node"><title>Node32</title>
<g id="a_node32"><a xlink:href="../../d0/d7f/classengine_1_1game_object_1_1_game_object.html#a1988806ef560c9384f3844d0666a9450" target="_top" xlink:title="engine.gameObject.GameObject.getY">
<polygon fill="white" stroke="black" points="1078.5,-420.5 1078.5,-439.5 1275.5,-439.5 1275.5,-420.5 1078.5,-420.5"/>
<text text-anchor="middle" x="1177" y="-427.5" font-family="Helvetica,sans-Serif" font-size="10.00">engine.gameObject.GameObject.getY</text>
</a>
</g>
</g>
<!-- Node21&#45;&gt;Node32 -->
<g id="edge36" class="edge"><title>Node21&#45;&gt;Node32</title>
<path fill="none" stroke="midnightblue" d="M1022.27,-236.3C1028.84,-239.593 1034.9,-243.754 1040,-249 1091.4,-301.899 1023.05,-359.659 1076,-411 1077.31,-412.269 1078.67,-413.466 1080.09,-414.595"/>
<polygon fill="midnightblue" stroke="midnightblue" points="1078.44,-417.702 1088.7,-420.35 1082.33,-411.883 1078.44,-417.702"/>
</g>
<!-- Node33 -->
<g id="node33" class="node"><title>Node33</title>
<g id="a_node33"><a xlink:href="../../d0/d7f/classengine_1_1game_object_1_1_game_object.html#ae94fe532960bd29f64c2dc19ec0af798" target="_top" xlink:title="engine.gameObject.GameObject.getID">
<polygon fill="white" stroke="black" points="1076,-382.5 1076,-401.5 1278,-401.5 1278,-382.5 1076,-382.5"/>
<text text-anchor="middle" x="1177" y="-389.5" font-family="Helvetica,sans-Serif" font-size="10.00">engine.gameObject.GameObject.getID</text>
</a>
</g>
</g>
<!-- Node21&#45;&gt;Node33 -->
<g id="edge37" class="edge"><title>Node21&#45;&gt;Node33</title>
<path fill="none" stroke="midnightblue" d="M1022.38,-236.882C1028.84,-240.066 1034.85,-244.043 1040,-249 1081.02,-288.519 1034,-333.52 1076,-372 1078,-373.832 1080.12,-375.515 1082.33,-377.063"/>
<polygon fill="midnightblue" stroke="midnightblue" points="1080.92,-380.297 1091.31,-382.379 1084.49,-374.273 1080.92,-380.297"/>
</g>
<!-- Node25 -->
<g id="node25" class="node"><title>Node25</title>
<g id="a_node25"><a xlink:href="../../d0/d7f/classengine_1_1game_object_1_1_game_object.html#a60c5b6933aac9969491a3562a963c043" target="_top" xlink:title="engine.gameObject.GameObject.get\lPhysicsBody">
<polygon fill="white" stroke="black" points="1314,-196 1314,-226 1506,-226 1506,-196 1314,-196"/>
<text text-anchor="start" x="1322" y="-214" font-family="Helvetica,sans-Serif" font-size="10.00">engine.gameObject.GameObject.get</text>
<text text-anchor="middle" x="1410" y="-203" font-family="Helvetica,sans-Serif" font-size="10.00">PhysicsBody</text>
</a>
</g>
</g>
<!-- Node24&#45;&gt;Node25 -->
<g id="edge27" class="edge"><title>Node24&#45;&gt;Node25</title>
<path fill="none" stroke="midnightblue" d="M1255.24,-236.959C1272.73,-234.007 1291.53,-230.833 1309.78,-227.751"/>
<polygon fill="midnightblue" stroke="midnightblue" points="1310.57,-231.167 1319.85,-226.051 1309.41,-224.265 1310.57,-231.167"/>
</g>
<!-- Node26 -->
<g id="node26" class="node"><title>Node26</title>
<g id="a_node26"><a xlink:href="../../d9/d9d/classengine_1_1game_object_1_1components_1_1_physics_body.html#aba2ed3bce8ee8e404907c88b144626fc" target="_top" xlink:title="engine.gameObject.components.\lPhysicsBody.getCollisionBodyHeight">
<polygon fill="white" stroke="black" points="1316,-294 1316,-324 1504,-324 1504,-294 1316,-294"/>
<text text-anchor="start" x="1324" y="-312" font-family="Helvetica,sans-Serif" font-size="10.00">engine.gameObject.components.</text>
<text text-anchor="middle" x="1410" y="-301" font-family="Helvetica,sans-Serif" font-size="10.00">PhysicsBody.getCollisionBodyHeight</text>
</a>
</g>
</g>
<!-- Node24&#45;&gt;Node26 -->
<g id="edge28" class="edge"><title>Node24&#45;&gt;Node26</title>
<path fill="none" stroke="midnightblue" d="M1242.1,-265.028C1254.05,-267.931 1266.42,-271.003 1278,-274 1294.08,-278.161 1297.97,-279.665 1314,-284 1322.89,-286.403 1332.25,-288.905 1341.49,-291.356"/>
<polygon fill="midnightblue" stroke="midnightblue" points="1340.88,-294.815 1351.45,-293.989 1342.67,-288.048 1340.88,-294.815"/>
</g>
<!-- Node27 -->
<g id="node27" class="node"><title>Node27</title>
<g id="a_node27"><a xlink:href="../../d9/d9d/classengine_1_1game_object_1_1components_1_1_physics_body.html#ae64e43632570392c3118b3d00af853fc" target="_top" xlink:title="engine.gameObject.components.\lPhysicsBody.getCollisionBodyWidth">
<polygon fill="white" stroke="black" points="1319,-245 1319,-275 1501,-275 1501,-245 1319,-245"/>
<text text-anchor="start" x="1327" y="-263" font-family="Helvetica,sans-Serif" font-size="10.00">engine.gameObject.components.</text>
<text text-anchor="middle" x="1410" y="-252" font-family="Helvetica,sans-Serif" font-size="10.00">PhysicsBody.getCollisionBodyWidth</text>
</a>
</g>
</g>
<!-- Node24&#45;&gt;Node27 -->
<g id="edge29" class="edge"><title>Node24&#45;&gt;Node27</title>
<path fill="none" stroke="midnightblue" d="M1255.24,-253.344C1272.24,-254.079 1290.48,-254.869 1308.24,-255.638"/>
<polygon fill="midnightblue" stroke="midnightblue" points="1308.49,-259.152 1318.64,-256.088 1308.8,-252.159 1308.49,-259.152"/>
</g>
<!-- Node29&#45;&gt;Node15 -->
<g id="edge33" class="edge"><title>Node29&#45;&gt;Node15</title>
<path fill="none" stroke="midnightblue" d="M1255.24,-138.959C1272.73,-136.007 1291.53,-132.833 1309.78,-129.751"/>
<polygon fill="midnightblue" stroke="midnightblue" points="1310.57,-133.167 1319.85,-128.051 1309.41,-126.265 1310.57,-133.167"/>
</g>
<!-- Node29&#45;&gt;Node16 -->
<g id="edge34" class="edge"><title>Node29&#45;&gt;Node16</title>
<path fill="none" stroke="midnightblue" d="M1255.18,-137.607C1263.15,-134.695 1270.92,-131.198 1278,-127 1298.29,-114.97 1293.72,-100.055 1314,-88 1316.85,-86.3047 1319.82,-84.7285 1322.87,-83.2629"/>
<polygon fill="midnightblue" stroke="midnightblue" points="1324.46,-86.388 1332.23,-79.1901 1321.67,-79.9687 1324.46,-86.388"/>
</g>
<!-- Node30 -->
<g id="node30" class="node"><title>Node30</title>
<g id="a_node30"><a xlink:href="../../d0/d7f/classengine_1_1game_object_1_1_game_object.html#a5c379828f3bb19a91935f965c48a91a5" target="_top" xlink:title="engine.gameObject.GameObject.get\lLabel">
<polygon fill="white" stroke="black" points="1314,-147 1314,-177 1506,-177 1506,-147 1314,-147"/>
<text text-anchor="start" x="1322" y="-165" font-family="Helvetica,sans-Serif" font-size="10.00">engine.gameObject.GameObject.get</text>
<text text-anchor="middle" x="1410" y="-154" font-family="Helvetica,sans-Serif" font-size="10.00">Label</text>
</a>
</g>
</g>
<!-- Node29&#45;&gt;Node30 -->
<g id="edge32" class="edge"><title>Node29&#45;&gt;Node30</title>
<path fill="none" stroke="midnightblue" d="M1255.24,-155.344C1270.77,-156.016 1287.35,-156.734 1303.65,-157.439"/>
<polygon fill="midnightblue" stroke="midnightblue" points="1303.61,-160.941 1313.75,-157.877 1303.91,-153.947 1303.61,-160.941"/>
</g>
<!-- Node36 -->
<g id="node36" class="node"><title>Node36</title>
<g id="a_node36"><a xlink:href="../../df/d84/classengine_1_1level_1_1_level.html#a264b568258eafa3d2c664c94e7498621" target="_top" xlink:title="engine.level.Level.getCondition\lIdentifiers">
<polygon fill="white" stroke="black" points="640.5,-63 640.5,-93 805.5,-93 805.5,-63 640.5,-63"/>
<text text-anchor="start" x="648.5" y="-81" font-family="Helvetica,sans-Serif" font-size="10.00">engine.level.Level.getCondition</text>
<text text-anchor="middle" x="723" y="-70" font-family="Helvetica,sans-Serif" font-size="10.00">Identifiers</text>
</a>
</g>
</g>
<!-- Node35&#45;&gt;Node36 -->
<g id="edge41" class="edge"><title>Node35&#45;&gt;Node36</title>
<path fill="none" stroke="midnightblue" d="M574.355,-111.965C597.253,-106.698 623.151,-100.74 646.791,-95.3016"/>
<polygon fill="midnightblue" stroke="midnightblue" points="647.808,-98.6591 656.769,-93.0062 646.239,-91.8373 647.808,-98.6591"/>
</g>
<!-- Node37 -->
<g id="node37" class="node"><title>Node37</title>
<g id="a_node37"><a xlink:href="../../df/d67/classengine_1_1level_1_1_level_manager.html#a766cb6198dd991f0bdf6386dace3a65b" target="_top" xlink:title="engine.level.LevelManager.enable\lCondition">
<polygon fill="white" stroke="black" points="634,-14 634,-44 812,-44 812,-14 634,-14"/>
<text text-anchor="start" x="642" y="-32" font-family="Helvetica,sans-Serif" font-size="10.00">engine.level.LevelManager.enable</text>
<text text-anchor="middle" x="723" y="-21" font-family="Helvetica,sans-Serif" font-size="10.00">Condition</text>
</a>
</g>
</g>
<!-- Node35&#45;&gt;Node37 -->
<g id="edge42" class="edge"><title>Node35&#45;&gt;Node37</title>
<path fill="none" stroke="midnightblue" d="M579.98,-111.841C586.338,-109.087 592.458,-105.837 598,-102 620.219,-86.6189 611.723,-68.2967 634,-53 636.17,-51.5098 638.43,-50.1119 640.758,-48.8006"/>
<polygon fill="midnightblue" stroke="midnightblue" points="642.656,-51.7647 650.033,-44.1603 639.524,-45.5044 642.656,-51.7647"/>
</g>
</g>
</svg>
        <g id="navigator" transform="translate(0 0)" fill="#404254">
                <rect fill="#f2f5e9" fill-opacity="0.5" stroke="#606060" stroke-width=".5" x="0" y="0" width="60" height="60"/>
                <use id="zoomplus" xlink:href="#zoomPlus" x="17" y="9" onmousedown="handleZoom(evt,'in')"/>
                <use id="zoomminus" xlink:href="#zoomMin" x="42" y="9" onmousedown="handleZoom(evt,'out')"/>
                <use id="reset" xlink:href="#resetDef" x="30" y="36" onmousedown="handleReset()"/>
                <g id="arrowUp" xlink:href="#dirArrow" transform="translate(30 24)" onmousedown="handlePan(0,-1)">
                  <use xlink:href="#rim" fill="#404040">
                        <set attributeName="fill" to="#808080" begin="arrowUp.mouseover" end="arrowUp.mouseout"/>
                  </use>
                  <path fill="none" stroke="white" stroke-width="1.5" d="M0,-3.0v7 M-2.5,-0.5L0,-3.0L2.5,-0.5"/>
                </g>
                <g id="arrowRight" xlink:href="#dirArrow" transform="rotate(90) translate(36 -43)" onmousedown="handlePan(1,0)">
                  <use xlink:href="#rim" fill="#404040">
                        <set attributeName="fill" to="#808080" begin="arrowRight.mouseover" end="arrowRight.mouseout"/>
                  </use>
                  <path fill="none" stroke="white" stroke-width="1.5" d="M0,-3.0v7 M-2.5,-0.5L0,-3.0L2.5,-0.5"/>
                </g>
                <g id="arrowDown" xlink:href="#dirArrow" transform="rotate(180) translate(-30 -48)" onmousedown="handlePan(0,1)">
                  <use xlink:href="#rim" fill="#404040">
                        <set attributeName="fill" to="#808080" begin="arrowDown.mouseover" end="arrowDown.mouseout"/>
                  </use>
                  <path fill="none" stroke="white" stroke-width="1.5" d="M0,-3.0v7 M-2.5,-0.5L0,-3.0L2.5,-0.5"/>
                </g>
                <g id="arrowLeft" xlink:href="#dirArrow" transform="rotate(270) translate(-36 17)" onmousedown="handlePan(-1,0)">
                  <use xlink:href="#rim" fill="#404040">
                        <set attributeName="fill" to="#808080" begin="arrowLeft.mouseover" end="arrowLeft.mouseout"/>
                  </use>
                  <path fill="none" stroke="white" stroke-width="1.5" d="M0,-3.0v7 M-2.5,-0.5L0,-3.0L2.5,-0.5"/>
                </g>
        </g>
        <svg viewBox="0 0 15 15" width="100%" height="30px" preserveAspectRatio="xMaxYMin meet">
         <g id="arrow_out" transform="scale(0.3 0.3)">
          <a xlink:href="classengine_1_1level_1_1_level_manager_ad89101547413fe335873b050fd091c79_cgraph_org.svg" target="_base">
           <rect id="button" ry="5" rx="5" y="6" x="6" height="38" width="38"
                fill="#f2f5e9" fill-opacity="0.5" stroke="#606060" stroke-width="1.0"/>
           <path id="arrow"
             d="M 11.500037,31.436501 C 11.940474,20.09759 22.043105,11.32322 32.158766,21.979434 L 37.068811,17.246167 C 37.068811,17.246167 37.088388,32 37.088388,32 L 22.160133,31.978069 C 22.160133,31.978069 26.997745,27.140456 26.997745,27.140456 C 18.528582,18.264221 13.291696,25.230495 11.500037,31.436501 z"
             style="fill:#404040;"/>
          </a>
         </g>
        </svg>
</svg>
