<?xml version="1.0" encoding="UTF-8" standalone="no"?>
<!DOCTYPE svg PUBLIC "-//W3C//DTD SVG 1.1//EN"
 "http://www.w3.org/Graphics/SVG/1.1/DTD/svg11.dtd">
<!-- Generated by graphviz version 2.36.0 (20140111.2315)
 -->
<!-- Title: engine.level.LevelManager.initializeCurrentLevel Pages: 1 -->
<!--zoomable 471 -->
<svg id="main" version="1.1" xmlns="http://www.w3.org/2000/svg" xmlns:xlink="http://www.w3.org/1999/xlink" xml:space="preserve" onload="init(evt)">
<style type="text/css"><![CDATA[
.edge:hover path { stroke: red; }
.edge:hover polygon { stroke: red; fill: red; }
]]></style>
<script type="text/javascript"><![CDATA[
var edges = document.getElementsByTagName('g');
if (edges && edges.length) {
  for (var i=0;i<edges.length;i++) {
    if (edges[i].id.substr(0,4)=='edge') {
      edges[i].setAttribute('class','edge');
    }
  }
}
]]></script>
        <defs>
                <circle id="rim" cx="0" cy="0" r="7"/>
                <circle id="rim2" cx="0" cy="0" r="3.5"/>
                <g id="zoomPlus">
                        <use xlink:href="#rim" fill="#404040">
                                <set attributeName="fill" to="#808080" begin="zoomplus.mouseover" end="zoomplus.mouseout"/>
                        </use>
                        <path d="M-4,0h8M0,-4v8" fill="none" stroke="white" stroke-width="1.5" pointer-events="none"/>
                </g>
                <g id="zoomMin">
                        <use xlink:href="#rim" fill="#404040">
                                <set attributeName="fill" to="#808080" begin="zoomminus.mouseover" end="zoomminus.mouseout"/>
                        </use>
                        <path d="M-4,0h8" fill="none" stroke="white" stroke-width="1.5" pointer-events="none"/>
                </g>
                <g id="dirArrow">
                        <path fill="none" stroke="white" stroke-width="1.5" d="M0,-3.0v7 M-2.5,-0.5L0,-3.0L2.5,-0.5"/>
                </g>
               <g id="resetDef">
                       <use xlink:href="#rim2" fill="#404040">
                               <set attributeName="fill" to="#808080" begin="reset.mouseover" end="reset.mouseout"/>
                       </use>
               </g>
        </defs>

<script type="text/javascript">
var viewWidth = 1316;
var viewHeight = 471;
var sectionId = 'dynsection-12';
</script>
<script xlink:href="../../svgpan.js"/>
<svg id="graph" class="graph">
<g id="viewport">
<title>engine.level.LevelManager.initializeCurrentLevel</title>
<polygon fill="white" stroke="none" points="-4,4 -4,-466.814 1312,-466.814 1312,4 -4,4"/>
<!-- Node1 -->
<g id="node1" class="node"><title>Node1</title>
<polygon fill="#bfbfbf" stroke="black" points="0,-259 0,-289 184,-289 184,-259 0,-259"/>
<text text-anchor="start" x="8" y="-277" font-family="Helvetica,sans-Serif" font-size="10.00">engine.level.LevelManager.initialize</text>
<text text-anchor="middle" x="92" y="-266" font-family="Helvetica,sans-Serif" font-size="10.00">CurrentLevel</text>
</g>
<!-- Node2 -->
<g id="node2" class="node"><title>Node2</title>
<g id="a_node2"><a xlink:href="../../df/d67/classengine_1_1level_1_1_level_manager.html#af00a1d61217dd801bb7a8b16ad829cf0" target="_top" xlink:title="engine.level.LevelManager.disable\lAllConditions">
<polygon fill="white" stroke="black" points="220.5,-396 220.5,-426 399.5,-426 399.5,-396 220.5,-396"/>
<text text-anchor="start" x="228.5" y="-414" font-family="Helvetica,sans-Serif" font-size="10.00">engine.level.LevelManager.disable</text>
<text text-anchor="middle" x="310" y="-403" font-family="Helvetica,sans-Serif" font-size="10.00">AllConditions</text>
</a>
</g>
</g>
<!-- Node1&#45;&gt;Node2 -->
<g id="edge1" class="edge"><title>Node1&#45;&gt;Node2</title>
<path fill="none" stroke="midnightblue" d="M105.864,-289.068C127.178,-313.093 172.227,-360.008 220,-386 224.185,-388.277 228.597,-390.362 233.126,-392.269"/>
<polygon fill="midnightblue" stroke="midnightblue" points="231.964,-395.573 242.552,-395.938 234.503,-389.05 231.964,-395.573"/>
</g>
<!-- Node3 -->
<g id="node3" class="node"><title>Node3</title>
<g id="a_node3"><a xlink:href="../../df/d84/classengine_1_1level_1_1_level.html#a368275ed98c802fbf59a11423b9b9a0d" target="_top" xlink:title="engine.level.Level.getBackground\lMusic">
<polygon fill="white" stroke="black" points="221.5,-347 221.5,-377 398.5,-377 398.5,-347 221.5,-347"/>
<text text-anchor="start" x="229.5" y="-365" font-family="Helvetica,sans-Serif" font-size="10.00">engine.level.Level.getBackground</text>
<text text-anchor="middle" x="310" y="-354" font-family="Helvetica,sans-Serif" font-size="10.00">Music</text>
</a>
</g>
</g>
<!-- Node1&#45;&gt;Node3 -->
<g id="edge2" class="edge"><title>Node1&#45;&gt;Node3</title>
<path fill="none" stroke="midnightblue" d="M119.592,-289.02C144.843,-302.838 184.164,-323.217 220,-337 226.341,-339.439 233.018,-341.754 239.746,-343.921"/>
<polygon fill="midnightblue" stroke="midnightblue" points="239.021,-347.361 249.609,-346.986 241.098,-340.676 239.021,-347.361"/>
</g>
<!-- Node4 -->
<g id="node4" class="node"><title>Node4</title>
<g id="a_node4"><a xlink:href="../../df/d84/classengine_1_1level_1_1_level.html#ace23cd4ed278a5bb85e964ff3c8818b5" target="_top" xlink:title="engine.level.Level.initialize">
<polygon fill="white" stroke="black" points="238.5,-308.5 238.5,-327.5 381.5,-327.5 381.5,-308.5 238.5,-308.5"/>
<text text-anchor="middle" x="310" y="-315.5" font-family="Helvetica,sans-Serif" font-size="10.00">engine.level.Level.initialize</text>
</a>
</g>
</g>
<!-- Node1&#45;&gt;Node4 -->
<g id="edge3" class="edge"><title>Node1&#45;&gt;Node4</title>
<path fill="none" stroke="midnightblue" d="M166.731,-289.019C194.675,-294.712 226.034,-301.099 252.184,-306.426"/>
<polygon fill="midnightblue" stroke="midnightblue" points="251.805,-309.921 262.303,-308.488 253.203,-303.062 251.805,-309.921"/>
</g>
<!-- Node9 -->
<g id="node9" class="node"><title>Node9</title>
<g id="a_node9"><a xlink:href="../../da/d90/classengine_1_1sound_1_1_sound_utility.html#ab8cd26d71aa7b20d07350105a4254c92" target="_top" xlink:title="engine.sound.SoundUtility.play\lBackGroundMusic">
<polygon fill="white" stroke="black" points="228.5,-259 228.5,-289 391.5,-289 391.5,-259 228.5,-259"/>
<text text-anchor="start" x="236.5" y="-277" font-family="Helvetica,sans-Serif" font-size="10.00">engine.sound.SoundUtility.play</text>
<text text-anchor="middle" x="310" y="-266" font-family="Helvetica,sans-Serif" font-size="10.00">BackGroundMusic</text>
</a>
</g>
</g>
<!-- Node1&#45;&gt;Node9 -->
<g id="edge8" class="edge"><title>Node1&#45;&gt;Node9</title>
<path fill="none" stroke="midnightblue" d="M184.29,-274C195.486,-274 206.927,-274 218.116,-274"/>
<polygon fill="midnightblue" stroke="midnightblue" points="218.307,-277.5 228.307,-274 218.307,-270.5 218.307,-277.5"/>
</g>
<!-- Node10 -->
<g id="node10" class="node"><title>Node10</title>
<g id="a_node10"><a xlink:href="../../dd/d8d/classengine_1_1render_1_1_renderer.html#a189dda9a8463274afe267959860f0dee" target="_top" xlink:title="engine.render.Renderer.render\lGameObjects">
<polygon fill="white" stroke="black" points="229,-210 229,-240 391,-240 391,-210 229,-210"/>
<text text-anchor="start" x="237" y="-228" font-family="Helvetica,sans-Serif" font-size="10.00">engine.render.Renderer.render</text>
<text text-anchor="middle" x="310" y="-217" font-family="Helvetica,sans-Serif" font-size="10.00">GameObjects</text>
</a>
</g>
</g>
<!-- Node1&#45;&gt;Node10 -->
<g id="edge9" class="edge"><title>Node1&#45;&gt;Node10</title>
<path fill="none" stroke="midnightblue" d="M159.275,-258.965C182.6,-253.674 208.993,-247.687 233.053,-242.229"/>
<polygon fill="midnightblue" stroke="midnightblue" points="233.872,-245.632 242.85,-240.006 232.324,-238.805 233.872,-245.632"/>
</g>
<!-- Node34 -->
<g id="node34" class="node"><title>Node34</title>
<g id="a_node34"><a xlink:href="../../df/d67/classengine_1_1level_1_1_level_manager.html#a5d79217e53b1e3804476ba6b366ad066" target="_top" xlink:title="engine.level.LevelManager.set\lLevelEnabledConditions">
<polygon fill="white" stroke="black" points="229.5,-112 229.5,-142 390.5,-142 390.5,-112 229.5,-112"/>
<text text-anchor="start" x="237.5" y="-130" font-family="Helvetica,sans-Serif" font-size="10.00">engine.level.LevelManager.set</text>
<text text-anchor="middle" x="310" y="-119" font-family="Helvetica,sans-Serif" font-size="10.00">LevelEnabledConditions</text>
</a>
</g>
</g>
<!-- Node1&#45;&gt;Node34 -->
<g id="edge39" class="edge"><title>Node1&#45;&gt;Node34</title>
<path fill="none" stroke="midnightblue" d="M115.302,-258.822C154.207,-232.345 234.52,-177.688 278.525,-147.74"/>
<polygon fill="midnightblue" stroke="midnightblue" points="280.521,-150.615 286.819,-142.095 276.583,-144.828 280.521,-150.615"/>
</g>
<!-- Node37 -->
<g id="node37" class="node"><title>Node37</title>
<g id="a_node37"><a xlink:href="../../da/d90/classengine_1_1sound_1_1_sound_utility.html#a53a82805b12b2b8f68b8396b9795d092" target="_top" xlink:title="engine.sound.SoundUtility.stop\lBackGroundMusic">
<polygon fill="white" stroke="black" points="228,-63 228,-93 392,-93 392,-63 228,-63"/>
<text text-anchor="start" x="236" y="-81" font-family="Helvetica,sans-Serif" font-size="10.00">engine.sound.SoundUtility.stop</text>
<text text-anchor="middle" x="310" y="-70" font-family="Helvetica,sans-Serif" font-size="10.00">BackGroundMusic</text>
</a>
</g>
</g>
<!-- Node1&#45;&gt;Node37 -->
<g id="edge42" class="edge"><title>Node1&#45;&gt;Node37</title>
<path fill="none" stroke="midnightblue" d="M99.7714,-258.919C115.662,-225.295 158.69,-143.862 220,-102 222.276,-100.446 224.648,-98.9928 227.093,-97.6333"/>
<polygon fill="midnightblue" stroke="midnightblue" points="228.818,-100.685 236.227,-93.1105 225.712,-94.4118 228.818,-100.685"/>
</g>
<!-- Node5 -->
<g id="node5" class="node"><title>Node5</title>
<g id="a_node5"><a xlink:href="../../d4/d3b/classauthoring_1_1model_1_1collections_1_1_general_collection.html#a1bdc1047736bbb23259d6a7fe4c6deeb" target="_top" xlink:title="authoring.model.collections.\lGeneralCollection.add">
<polygon fill="white" stroke="black" points="449,-347 449,-377 601,-377 601,-347 449,-347"/>
<text text-anchor="start" x="457" y="-365" font-family="Helvetica,sans-Serif" font-size="10.00">authoring.model.collections.</text>
<text text-anchor="middle" x="525" y="-354" font-family="Helvetica,sans-Serif" font-size="10.00">GeneralCollection.add</text>
</a>
</g>
</g>
<!-- Node4&#45;&gt;Node5 -->
<g id="edge4" class="edge"><title>Node4&#45;&gt;Node5</title>
<path fill="none" stroke="midnightblue" d="M357.218,-327.547C381.734,-332.612 412.606,-338.989 441.103,-344.876"/>
<polygon fill="midnightblue" stroke="midnightblue" points="440.569,-348.339 451.07,-346.935 441.985,-341.484 440.569,-348.339"/>
</g>
<!-- Node6 -->
<g id="node6" class="node"><title>Node6</title>
<g id="a_node6"><a xlink:href="../../d0/d7f/classengine_1_1game_object_1_1_game_object.html#accd456b2eaab9c7056de825a28b066c8" target="_top" xlink:title="engine.gameObject.GameObject.get\lIdentifier">
<polygon fill="white" stroke="black" points="650,-308 650,-338 842,-338 842,-308 650,-308"/>
<text text-anchor="start" x="658" y="-326" font-family="Helvetica,sans-Serif" font-size="10.00">engine.gameObject.GameObject.get</text>
<text text-anchor="middle" x="746" y="-315" font-family="Helvetica,sans-Serif" font-size="10.00">Identifier</text>
</a>
</g>
</g>
<!-- Node4&#45;&gt;Node6 -->
<g id="edge5" class="edge"><title>Node4&#45;&gt;Node6</title>
<path fill="none" stroke="midnightblue" d="M381.771,-325.95C388.397,-328.733 394.629,-332.341 400,-337 435.051,-367.405 397.951,-408.442 436,-435 500.872,-480.28 539.786,-462.401 614,-435 661.824,-417.343 704.015,-373.581 726.888,-346.281"/>
<polygon fill="midnightblue" stroke="midnightblue" points="729.726,-348.34 733.352,-338.385 724.309,-343.906 729.726,-348.34"/>
</g>
<!-- Node7 -->
<g id="node7" class="node"><title>Node7</title>
<g id="a_node7"><a xlink:href="../../d4/dac/classengine_1_1game_object_1_1_identifier.html#aa2630b5024b9595e43afe0bf53229433" target="_top" xlink:title="engine.gameObject.Identifier.get\lUniqueId">
<polygon fill="white" stroke="black" points="438.5,-298 438.5,-328 611.5,-328 611.5,-298 438.5,-298"/>
<text text-anchor="start" x="446.5" y="-316" font-family="Helvetica,sans-Serif" font-size="10.00">engine.gameObject.Identifier.get</text>
<text text-anchor="middle" x="525" y="-305" font-family="Helvetica,sans-Serif" font-size="10.00">UniqueId</text>
</a>
</g>
</g>
<!-- Node4&#45;&gt;Node7 -->
<g id="edge6" class="edge"><title>Node4&#45;&gt;Node7</title>
<path fill="none" stroke="midnightblue" d="M381.63,-316.342C396.531,-315.992 412.492,-315.618 428.144,-315.25"/>
<polygon fill="midnightblue" stroke="midnightblue" points="428.455,-318.744 438.371,-315.01 428.291,-311.746 428.455,-318.744"/>
</g>
<!-- Node8 -->
<g id="node8" class="node"><title>Node8</title>
<g id="a_node8"><a xlink:href="../../df/d67/classengine_1_1level_1_1_level_manager.html#a6e15411e375d875fa72058d499bec766" target="_top" xlink:title="engine.level.LevelManager.object\lForIdentifier">
<polygon fill="white" stroke="black" points="437.5,-396 437.5,-426 612.5,-426 612.5,-396 437.5,-396"/>
<text text-anchor="start" x="445.5" y="-414" font-family="Helvetica,sans-Serif" font-size="10.00">engine.level.LevelManager.object</text>
<text text-anchor="middle" x="525" y="-403" font-family="Helvetica,sans-Serif" font-size="10.00">ForIdentifier</text>
</a>
</g>
</g>
<!-- Node4&#45;&gt;Node8 -->
<g id="edge7" class="edge"><title>Node4&#45;&gt;Node8</title>
<path fill="none" stroke="midnightblue" d="M380.547,-327.58C387.407,-330.051 394.029,-333.141 400,-337 422.696,-351.668 413.804,-370.586 436,-386 438.892,-388.009 441.944,-389.857 445.105,-391.557"/>
<polygon fill="midnightblue" stroke="midnightblue" points="443.736,-394.783 454.264,-395.969 446.774,-388.476 443.736,-394.783"/>
</g>
<!-- Node10&#45;&gt;Node6 -->
<g id="edge18" class="edge"><title>Node10&#45;&gt;Node6</title>
<path fill="none" stroke="midnightblue" d="M390.429,-240.027C451.737,-251.985 538.549,-269.698 614,-288 630.138,-291.915 633.97,-293.665 650,-298 658.886,-300.403 668.249,-302.905 677.491,-305.356"/>
<polygon fill="midnightblue" stroke="midnightblue" points="676.883,-308.815 687.445,-307.989 678.673,-302.048 676.883,-308.815"/>
</g>
<!-- Node10&#45;&gt;Node7 -->
<g id="edge19" class="edge"><title>Node10&#45;&gt;Node7</title>
<path fill="none" stroke="midnightblue" d="M380.374,-240.043C387.193,-242.597 393.855,-245.562 400,-249 419.206,-259.746 417.154,-271.634 436,-283 442.977,-287.208 450.624,-290.922 458.405,-294.175"/>
<polygon fill="midnightblue" stroke="midnightblue" points="457.34,-297.517 467.927,-297.915 459.899,-291.002 457.34,-297.517"/>
</g>
<!-- Node11 -->
<g id="node11" class="node"><title>Node11</title>
<g id="a_node11"><a xlink:href="../../dd/d8d/classengine_1_1render_1_1_renderer.html#a10b850c208c44a1137b099d1967c6e9b" target="_top" xlink:title="engine.render.Renderer.set\lBackGroundImage">
<polygon fill="white" stroke="black" points="452,-161 452,-191 598,-191 598,-161 452,-161"/>
<text text-anchor="start" x="460" y="-179" font-family="Helvetica,sans-Serif" font-size="10.00">engine.render.Renderer.set</text>
<text text-anchor="middle" x="525" y="-168" font-family="Helvetica,sans-Serif" font-size="10.00">BackGroundImage</text>
</a>
</g>
</g>
<!-- Node10&#45;&gt;Node11 -->
<g id="edge10" class="edge"><title>Node10&#45;&gt;Node11</title>
<path fill="none" stroke="midnightblue" d="M376.355,-209.965C399.253,-204.698 425.151,-198.74 448.791,-193.302"/>
<polygon fill="midnightblue" stroke="midnightblue" points="449.808,-196.659 458.769,-191.006 448.239,-189.837 449.808,-196.659"/>
</g>
<!-- Node17 -->
<g id="node17" class="node"><title>Node17</title>
<g id="a_node17"><a xlink:href="../../df/d84/classengine_1_1level_1_1_level.html#af2921158eda86e1f909575ee468eec5c" target="_top" xlink:title="engine.level.Level.getGame\lObjectIterator">
<polygon fill="white" stroke="black" points="450.5,-112 450.5,-142 599.5,-142 599.5,-112 450.5,-112"/>
<text text-anchor="start" x="458.5" y="-130" font-family="Helvetica,sans-Serif" font-size="10.00">engine.level.Level.getGame</text>
<text text-anchor="middle" x="525" y="-119" font-family="Helvetica,sans-Serif" font-size="10.00">ObjectIterator</text>
</a>
</g>
</g>
<!-- Node10&#45;&gt;Node17 -->
<g id="edge16" class="edge"><title>Node10&#45;&gt;Node17</title>
<path fill="none" stroke="midnightblue" d="M332.629,-209.744C356.829,-193.272 397.68,-167.219 436,-151 440.799,-148.969 445.818,-147.063 450.921,-145.285"/>
<polygon fill="midnightblue" stroke="midnightblue" points="452.406,-148.481 460.804,-142.021 450.211,-141.834 452.406,-148.481"/>
</g>
<!-- Node19 -->
<g id="node19" class="node"><title>Node19</title>
<g id="a_node19"><a xlink:href="../../dd/d8d/classengine_1_1render_1_1_renderer.html#a569f6bb2f9c218ed015949dff459b1ee" target="_top" xlink:title="engine.render.Renderer.create\lAndAssignRenderedNode">
<polygon fill="white" stroke="black" points="444.5,-210 444.5,-240 605.5,-240 605.5,-210 444.5,-210"/>
<text text-anchor="start" x="452.5" y="-228" font-family="Helvetica,sans-Serif" font-size="10.00">engine.render.Renderer.create</text>
<text text-anchor="middle" x="525" y="-217" font-family="Helvetica,sans-Serif" font-size="10.00">AndAssignRenderedNode</text>
</a>
</g>
</g>
<!-- Node10&#45;&gt;Node19 -->
<g id="edge20" class="edge"><title>Node10&#45;&gt;Node19</title>
<path fill="none" stroke="midnightblue" d="M391.223,-225C405.172,-225 419.763,-225 433.955,-225"/>
<polygon fill="midnightblue" stroke="midnightblue" points="434.203,-228.5 444.203,-225 434.203,-221.5 434.203,-228.5"/>
</g>
<!-- Node12 -->
<g id="node12" class="node"><title>Node12</title>
<g id="a_node12"><a xlink:href="../../d5/d30/classengine_1_1render_1_1_rendered_node_factory.html#ae9ab86f88eb96945a412e561179aa070" target="_top" xlink:title="engine.render.RenderedNode\lFactory.createImageAndView">
<polygon fill="white" stroke="black" points="901,-49 901,-79 1057,-79 1057,-49 901,-49"/>
<text text-anchor="start" x="909" y="-67" font-family="Helvetica,sans-Serif" font-size="10.00">engine.render.RenderedNode</text>
<text text-anchor="middle" x="979" y="-56" font-family="Helvetica,sans-Serif" font-size="10.00">Factory.createImageAndView</text>
</a>
</g>
</g>
<!-- Node11&#45;&gt;Node12 -->
<g id="edge11" class="edge"><title>Node11&#45;&gt;Node12</title>
<path fill="none" stroke="midnightblue" d="M598.29,-161.401C691.346,-142.602 841.284,-112.289 842,-112 859.603,-104.884 860.562,-96.5117 878,-89 883.77,-86.5143 889.839,-84.2401 896.015,-82.1663"/>
<polygon fill="midnightblue" stroke="midnightblue" points="897.307,-85.4285 905.782,-79.0707 895.192,-78.7557 897.307,-85.4285"/>
</g>
<!-- Node16 -->
<g id="node16" class="node"><title>Node16</title>
<g id="a_node16"><a xlink:href="../../df/d84/classengine_1_1level_1_1_level.html#a5dc36c31fcc8e0b5cbe2a942ec101fdb" target="_top" xlink:title="engine.level.Level.getBackground\lImage">
<polygon fill="white" stroke="black" points="657.5,-161 657.5,-191 834.5,-191 834.5,-161 657.5,-161"/>
<text text-anchor="start" x="665.5" y="-179" font-family="Helvetica,sans-Serif" font-size="10.00">engine.level.Level.getBackground</text>
<text text-anchor="middle" x="746" y="-168" font-family="Helvetica,sans-Serif" font-size="10.00">Image</text>
</a>
</g>
</g>
<!-- Node11&#45;&gt;Node16 -->
<g id="edge15" class="edge"><title>Node11&#45;&gt;Node16</title>
<path fill="none" stroke="midnightblue" d="M598.012,-176C613.705,-176 630.566,-176 647.072,-176"/>
<polygon fill="midnightblue" stroke="midnightblue" points="647.29,-179.5 657.29,-176 647.29,-172.5 647.29,-179.5"/>
</g>
<!-- Node13 -->
<g id="node13" class="node"><title>Node13</title>
<g id="a_node13"><a xlink:href="../../d0/d7f/classengine_1_1game_object_1_1_game_object.html#ae8b88e1cf489e935426e2e252defbae0" target="_top" xlink:title="engine.gameObject.GameObject.get\lCurrentImageName">
<polygon fill="white" stroke="black" points="1116,-0 1116,-30 1308,-30 1308,-0 1116,-0"/>
<text text-anchor="start" x="1124" y="-18" font-family="Helvetica,sans-Serif" font-size="10.00">engine.gameObject.GameObject.get</text>
<text text-anchor="middle" x="1212" y="-7" font-family="Helvetica,sans-Serif" font-size="10.00">CurrentImageName</text>
</a>
</g>
</g>
<!-- Node12&#45;&gt;Node13 -->
<g id="edge12" class="edge"><title>Node12&#45;&gt;Node13</title>
<path fill="none" stroke="midnightblue" d="M1050.88,-48.9654C1076.04,-43.627 1104.55,-37.5802 1130.46,-32.0834"/>
<polygon fill="midnightblue" stroke="midnightblue" points="1131.2,-35.5051 1140.26,-30.0062 1129.75,-28.6575 1131.2,-35.5051"/>
</g>
<!-- Node14 -->
<g id="node14" class="node"><title>Node14</title>
<g id="a_node14"><a xlink:href="../../d0/d7f/classengine_1_1game_object_1_1_game_object.html#aaeb5730a3b51fe9cb3d817ea7172cfc2" target="_top" xlink:title="engine.gameObject.GameObject.get\lHeight">
<polygon fill="white" stroke="black" points="1116,-98 1116,-128 1308,-128 1308,-98 1116,-98"/>
<text text-anchor="start" x="1124" y="-116" font-family="Helvetica,sans-Serif" font-size="10.00">engine.gameObject.GameObject.get</text>
<text text-anchor="middle" x="1212" y="-105" font-family="Helvetica,sans-Serif" font-size="10.00">Height</text>
</a>
</g>
</g>
<!-- Node12&#45;&gt;Node14 -->
<g id="edge13" class="edge"><title>Node12&#45;&gt;Node14</title>
<path fill="none" stroke="midnightblue" d="M1050.88,-79.0346C1076.04,-84.373 1104.55,-90.4198 1130.46,-95.9166"/>
<polygon fill="midnightblue" stroke="midnightblue" points="1129.75,-99.3425 1140.26,-97.9938 1131.2,-92.4949 1129.75,-99.3425"/>
</g>
<!-- Node15 -->
<g id="node15" class="node"><title>Node15</title>
<g id="a_node15"><a xlink:href="../../d0/d7f/classengine_1_1game_object_1_1_game_object.html#a31aa2c854220621b49fc5575b50b9342" target="_top" xlink:title="engine.gameObject.GameObject.get\lWidth">
<polygon fill="white" stroke="black" points="1116,-49 1116,-79 1308,-79 1308,-49 1116,-49"/>
<text text-anchor="start" x="1124" y="-67" font-family="Helvetica,sans-Serif" font-size="10.00">engine.gameObject.GameObject.get</text>
<text text-anchor="middle" x="1212" y="-56" font-family="Helvetica,sans-Serif" font-size="10.00">Width</text>
</a>
</g>
</g>
<!-- Node12&#45;&gt;Node15 -->
<g id="edge14" class="edge"><title>Node12&#45;&gt;Node15</title>
<path fill="none" stroke="midnightblue" d="M1057.24,-64C1072.77,-64 1089.35,-64 1105.65,-64"/>
<polygon fill="midnightblue" stroke="midnightblue" points="1105.75,-67.5001 1115.75,-64 1105.75,-60.5001 1105.75,-67.5001"/>
</g>
<!-- Node18 -->
<g id="node18" class="node"><title>Node18</title>
<g id="a_node18"><a xlink:href="../../d4/d3b/classauthoring_1_1model_1_1collections_1_1_general_collection.html#a79482ff667a22bb0d5b702c03261fe8d" target="_top" xlink:title="authoring.model.collections.\lGeneralCollection.iterator">
<polygon fill="white" stroke="black" points="670,-73 670,-103 822,-103 822,-73 670,-73"/>
<text text-anchor="start" x="678" y="-91" font-family="Helvetica,sans-Serif" font-size="10.00">authoring.model.collections.</text>
<text text-anchor="middle" x="746" y="-80" font-family="Helvetica,sans-Serif" font-size="10.00">GeneralCollection.iterator</text>
</a>
</g>
</g>
<!-- Node17&#45;&gt;Node18 -->
<g id="edge17" class="edge"><title>Node17&#45;&gt;Node18</title>
<path fill="none" stroke="midnightblue" d="M599.533,-113.905C618.88,-110.46 639.912,-106.714 659.815,-103.17"/>
<polygon fill="midnightblue" stroke="midnightblue" points="660.562,-106.592 669.793,-101.393 659.334,-99.7006 660.562,-106.592"/>
</g>
<!-- Node19&#45;&gt;Node6 -->
<g id="edge37" class="edge"><title>Node19&#45;&gt;Node6</title>
<path fill="none" stroke="midnightblue" d="M584.95,-240.089C595.11,-244.062 605.215,-248.975 614,-255 634.555,-269.097 628.956,-284.643 650,-298 653.213,-300.039 656.587,-301.913 660.071,-303.634"/>
<polygon fill="midnightblue" stroke="midnightblue" points="658.952,-306.968 669.51,-307.845 661.803,-300.575 658.952,-306.968"/>
</g>
<!-- Node20 -->
<g id="node20" class="node"><title>Node20</title>
<g id="a_node20"><a xlink:href="../../d5/d30/classengine_1_1render_1_1_rendered_node_factory.html#a359dcce722371dfb49b79528930c1b05" target="_top" xlink:title="engine.render.RenderedNode\lFactory.createRenderedNode">
<polygon fill="white" stroke="black" points="668,-210 668,-240 824,-240 824,-210 668,-210"/>
<text text-anchor="start" x="676" y="-228" font-family="Helvetica,sans-Serif" font-size="10.00">engine.render.RenderedNode</text>
<text text-anchor="middle" x="746" y="-217" font-family="Helvetica,sans-Serif" font-size="10.00">Factory.createRenderedNode</text>
</a>
</g>
</g>
<!-- Node19&#45;&gt;Node20 -->
<g id="edge21" class="edge"><title>Node19&#45;&gt;Node20</title>
<path fill="none" stroke="midnightblue" d="M605.684,-225C622.655,-225 640.66,-225 657.892,-225"/>
<polygon fill="midnightblue" stroke="midnightblue" points="657.936,-228.5 667.936,-225 657.936,-221.5 657.936,-228.5"/>
</g>
<!-- Node33 -->
<g id="node33" class="node"><title>Node33</title>
<g id="a_node33"><a xlink:href="../../d0/d7f/classengine_1_1game_object_1_1_game_object.html#ab09d473d8c2afe8cefb2ce2481bc66fd" target="_top" xlink:title="engine.gameObject.GameObject.set\lRenderedNode">
<polygon fill="white" stroke="black" points="650.5,-259 650.5,-289 841.5,-289 841.5,-259 650.5,-259"/>
<text text-anchor="start" x="658.5" y="-277" font-family="Helvetica,sans-Serif" font-size="10.00">engine.gameObject.GameObject.set</text>
<text text-anchor="middle" x="746" y="-266" font-family="Helvetica,sans-Serif" font-size="10.00">RenderedNode</text>
</a>
</g>
</g>
<!-- Node19&#45;&gt;Node33 -->
<g id="edge38" class="edge"><title>Node19&#45;&gt;Node33</title>
<path fill="none" stroke="midnightblue" d="M593.196,-240.035C616.844,-245.326 643.604,-251.313 667.998,-256.771"/>
<polygon fill="midnightblue" stroke="midnightblue" points="667.409,-260.226 677.932,-258.994 668.937,-253.395 667.409,-260.226"/>
</g>
<!-- Node20&#45;&gt;Node12 -->
<g id="edge23" class="edge"><title>Node20&#45;&gt;Node12</title>
<path fill="none" stroke="midnightblue" d="M824.255,-212.113C830.74,-208.899 836.795,-204.92 842,-200 879.69,-164.374 840.09,-124.393 878,-89 882.088,-85.1837 886.668,-81.9265 891.559,-79.1489"/>
<polygon fill="midnightblue" stroke="midnightblue" points="893.246,-82.2192 900.659,-74.6499 890.144,-75.9441 893.246,-82.2192"/>
</g>
<!-- Node21 -->
<g id="node21" class="node"><title>Node21</title>
<g id="a_node21"><a xlink:href="../../d2/d82/classengine_1_1render_1_1_rendered_node.html#a520a8c03b505d10c69e010e603cadfdd" target="_top" xlink:title="engine.render.RenderedNode.set\lImageView">
<polygon fill="white" stroke="black" points="892,-333 892,-363 1066,-363 1066,-333 892,-333"/>
<text text-anchor="start" x="900" y="-351" font-family="Helvetica,sans-Serif" font-size="10.00">engine.render.RenderedNode.set</text>
<text text-anchor="middle" x="979" y="-340" font-family="Helvetica,sans-Serif" font-size="10.00">ImageView</text>
</a>
</g>
</g>
<!-- Node20&#45;&gt;Node21 -->
<g id="edge22" class="edge"><title>Node20&#45;&gt;Node21</title>
<path fill="none" stroke="midnightblue" d="M824.02,-238.039C830.474,-240.993 836.589,-244.6 842,-249 870.376,-272.075 849.595,-299.96 878,-323 880.067,-324.677 882.232,-326.243 884.476,-327.707"/>
<polygon fill="midnightblue" stroke="midnightblue" points="883.065,-330.931 893.484,-332.853 886.537,-324.853 883.065,-330.931"/>
</g>
<!-- Node22 -->
<g id="node22" class="node"><title>Node22</title>
<g id="a_node22"><a xlink:href="../../d2/d82/classengine_1_1render_1_1_rendered_node.html#ad73c81ad48b40faea3818c9a7bbfdcf0" target="_top" xlink:title="engine.render.RenderedNode.set\lCollisionBody">
<polygon fill="white" stroke="black" points="892,-284 892,-314 1066,-314 1066,-284 892,-284"/>
<text text-anchor="start" x="900" y="-302" font-family="Helvetica,sans-Serif" font-size="10.00">engine.render.RenderedNode.set</text>
<text text-anchor="middle" x="979" y="-291" font-family="Helvetica,sans-Serif" font-size="10.00">CollisionBody</text>
</a>
</g>
</g>
<!-- Node20&#45;&gt;Node22 -->
<g id="edge24" class="edge"><title>Node20&#45;&gt;Node22</title>
<path fill="none" stroke="midnightblue" d="M818.263,-240.004C826.418,-242.597 834.491,-245.581 842,-249 859.729,-257.071 860.261,-265.951 878,-274 883.376,-276.44 889.028,-278.666 894.794,-280.693"/>
<polygon fill="midnightblue" stroke="midnightblue" points="893.986,-284.111 904.579,-283.919 896.178,-277.463 893.986,-284.111"/>
</g>
<!-- Node23 -->
<g id="node23" class="node"><title>Node23</title>
<g id="a_node23"><a xlink:href="../../d5/d30/classengine_1_1render_1_1_rendered_node_factory.html#ac14d2f5a3da79d92c967fe22bc82c1ed" target="_top" xlink:title="engine.render.RenderedNode\lFactory.createCollisionBody">
<polygon fill="white" stroke="black" points="901,-235 901,-265 1057,-265 1057,-235 901,-235"/>
<text text-anchor="start" x="909" y="-253" font-family="Helvetica,sans-Serif" font-size="10.00">engine.render.RenderedNode</text>
<text text-anchor="middle" x="979" y="-242" font-family="Helvetica,sans-Serif" font-size="10.00">Factory.createCollisionBody</text>
</a>
</g>
</g>
<!-- Node20&#45;&gt;Node23 -->
<g id="edge25" class="edge"><title>Node20&#45;&gt;Node23</title>
<path fill="none" stroke="midnightblue" d="M824.241,-233.359C845.624,-235.674 868.979,-238.201 890.883,-240.572"/>
<polygon fill="midnightblue" stroke="midnightblue" points="890.513,-244.052 900.832,-241.648 891.267,-237.093 890.513,-244.052"/>
</g>
<!-- Node27 -->
<g id="node27" class="node"><title>Node27</title>
<g id="a_node27"><a xlink:href="../../d2/d82/classengine_1_1render_1_1_rendered_node.html#a312c663dd1144ff206ecfa1ea8c95a81" target="_top" xlink:title="engine.render.RenderedNode.set\lLabel">
<polygon fill="white" stroke="black" points="892,-186 892,-216 1066,-216 1066,-186 892,-186"/>
<text text-anchor="start" x="900" y="-204" font-family="Helvetica,sans-Serif" font-size="10.00">engine.render.RenderedNode.set</text>
<text text-anchor="middle" x="979" y="-193" font-family="Helvetica,sans-Serif" font-size="10.00">Label</text>
</a>
</g>
</g>
<!-- Node20&#45;&gt;Node27 -->
<g id="edge29" class="edge"><title>Node20&#45;&gt;Node27</title>
<path fill="none" stroke="midnightblue" d="M824.241,-216.975C842.585,-215.069 862.381,-213.012 881.467,-211.029"/>
<polygon fill="midnightblue" stroke="midnightblue" points="882.091,-214.484 891.676,-209.969 881.367,-207.521 882.091,-214.484"/>
</g>
<!-- Node28 -->
<g id="node28" class="node"><title>Node28</title>
<g id="a_node28"><a xlink:href="../../d5/d30/classengine_1_1render_1_1_rendered_node_factory.html#a4e1f4508b1c12b958bd3c88a35a4e872" target="_top" xlink:title="engine.render.RenderedNode\lFactory.createLabel">
<polygon fill="white" stroke="black" points="901,-137 901,-167 1057,-167 1057,-137 901,-137"/>
<text text-anchor="start" x="909" y="-155" font-family="Helvetica,sans-Serif" font-size="10.00">engine.render.RenderedNode</text>
<text text-anchor="middle" x="979" y="-144" font-family="Helvetica,sans-Serif" font-size="10.00">Factory.createLabel</text>
</a>
</g>
</g>
<!-- Node20&#45;&gt;Node28 -->
<g id="edge30" class="edge"><title>Node20&#45;&gt;Node28</title>
<path fill="none" stroke="midnightblue" d="M815.414,-209.924C824.518,-207.074 833.601,-203.778 842,-200 859.537,-192.112 860.378,-183.696 878,-176 882.736,-173.932 887.679,-172.024 892.723,-170.268"/>
<polygon fill="midnightblue" stroke="midnightblue" points="894.095,-173.502 902.517,-167.073 891.924,-166.847 894.095,-173.502"/>
</g>
<!-- Node30 -->
<g id="node30" class="node"><title>Node30</title>
<g id="a_node30"><a xlink:href="../../d0/d7f/classengine_1_1game_object_1_1_game_object.html#a606c7293c2bfac0af1fb42143bf527f6" target="_top" xlink:title="engine.gameObject.GameObject.getX">
<polygon fill="white" stroke="black" points="880,-98.5 880,-117.5 1078,-117.5 1078,-98.5 880,-98.5"/>
<text text-anchor="middle" x="979" y="-105.5" font-family="Helvetica,sans-Serif" font-size="10.00">engine.gameObject.GameObject.getX</text>
</a>
</g>
</g>
<!-- Node20&#45;&gt;Node30 -->
<g id="edge34" class="edge"><title>Node20&#45;&gt;Node30</title>
<path fill="none" stroke="midnightblue" d="M824.012,-211.079C830.468,-208.072 836.585,-204.424 842,-200 870.015,-177.113 849.206,-148.899 878,-127 880.231,-125.303 882.569,-123.744 884.993,-122.312"/>
<polygon fill="midnightblue" stroke="midnightblue" points="886.788,-125.325 894.103,-117.661 883.605,-119.09 886.788,-125.325"/>
</g>
<!-- Node31 -->
<g id="node31" class="node"><title>Node31</title>
<g id="a_node31"><a xlink:href="../../d0/d7f/classengine_1_1game_object_1_1_game_object.html#a1988806ef560c9384f3844d0666a9450" target="_top" xlink:title="engine.gameObject.GameObject.getY">
<polygon fill="white" stroke="black" points="880.5,-420.5 880.5,-439.5 1077.5,-439.5 1077.5,-420.5 880.5,-420.5"/>
<text text-anchor="middle" x="979" y="-427.5" font-family="Helvetica,sans-Serif" font-size="10.00">engine.gameObject.GameObject.getY</text>
</a>
</g>
</g>
<!-- Node20&#45;&gt;Node31 -->
<g id="edge35" class="edge"><title>Node20&#45;&gt;Node31</title>
<path fill="none" stroke="midnightblue" d="M824.273,-236.3C830.837,-239.593 836.903,-243.754 842,-249 893.398,-301.899 825.047,-359.659 878,-411 879.308,-412.269 880.674,-413.466 882.089,-414.595"/>
<polygon fill="midnightblue" stroke="midnightblue" points="880.439,-417.702 890.697,-420.35 884.329,-411.883 880.439,-417.702"/>
</g>
<!-- Node32 -->
<g id="node32" class="node"><title>Node32</title>
<g id="a_node32"><a xlink:href="../../d0/d7f/classengine_1_1game_object_1_1_game_object.html#ae94fe532960bd29f64c2dc19ec0af798" target="_top" xlink:title="engine.gameObject.GameObject.getID">
<polygon fill="white" stroke="black" points="878,-382.5 878,-401.5 1080,-401.5 1080,-382.5 878,-382.5"/>
<text text-anchor="middle" x="979" y="-389.5" font-family="Helvetica,sans-Serif" font-size="10.00">engine.gameObject.GameObject.getID</text>
</a>
</g>
</g>
<!-- Node20&#45;&gt;Node32 -->
<g id="edge36" class="edge"><title>Node20&#45;&gt;Node32</title>
<path fill="none" stroke="midnightblue" d="M824.381,-236.882C830.841,-240.066 836.855,-244.043 842,-249 883.02,-288.519 836.003,-333.52 878,-372 879.999,-373.832 882.116,-375.515 884.331,-377.063"/>
<polygon fill="midnightblue" stroke="midnightblue" points="882.923,-380.297 893.311,-382.379 886.489,-374.273 882.923,-380.297"/>
</g>
<!-- Node24 -->
<g id="node24" class="node"><title>Node24</title>
<g id="a_node24"><a xlink:href="../../d0/d7f/classengine_1_1game_object_1_1_game_object.html#a60c5b6933aac9969491a3562a963c043" target="_top" xlink:title="engine.gameObject.GameObject.get\lPhysicsBody">
<polygon fill="white" stroke="black" points="1116,-196 1116,-226 1308,-226 1308,-196 1116,-196"/>
<text text-anchor="start" x="1124" y="-214" font-family="Helvetica,sans-Serif" font-size="10.00">engine.gameObject.GameObject.get</text>
<text text-anchor="middle" x="1212" y="-203" font-family="Helvetica,sans-Serif" font-size="10.00">PhysicsBody</text>
</a>
</g>
</g>
<!-- Node23&#45;&gt;Node24 -->
<g id="edge26" class="edge"><title>Node23&#45;&gt;Node24</title>
<path fill="none" stroke="midnightblue" d="M1057.24,-236.959C1074.73,-234.007 1093.53,-230.833 1111.78,-227.751"/>
<polygon fill="midnightblue" stroke="midnightblue" points="1112.57,-231.167 1121.85,-226.051 1111.41,-224.265 1112.57,-231.167"/>
</g>
<!-- Node25 -->
<g id="node25" class="node"><title>Node25</title>
<g id="a_node25"><a xlink:href="../../d9/d9d/classengine_1_1game_object_1_1components_1_1_physics_body.html#aba2ed3bce8ee8e404907c88b144626fc" target="_top" xlink:title="engine.gameObject.components.\lPhysicsBody.getCollisionBodyHeight">
<polygon fill="white" stroke="black" points="1118,-294 1118,-324 1306,-324 1306,-294 1118,-294"/>
<text text-anchor="start" x="1126" y="-312" font-family="Helvetica,sans-Serif" font-size="10.00">engine.gameObject.components.</text>
<text text-anchor="middle" x="1212" y="-301" font-family="Helvetica,sans-Serif" font-size="10.00">PhysicsBody.getCollisionBodyHeight</text>
</a>
</g>
</g>
<!-- Node23&#45;&gt;Node25 -->
<g id="edge27" class="edge"><title>Node23&#45;&gt;Node25</title>
<path fill="none" stroke="midnightblue" d="M1044.1,-265.028C1056.05,-267.931 1068.42,-271.003 1080,-274 1096.08,-278.161 1099.97,-279.665 1116,-284 1124.89,-286.403 1134.25,-288.905 1143.49,-291.356"/>
<polygon fill="midnightblue" stroke="midnightblue" points="1142.88,-294.815 1153.45,-293.989 1144.67,-288.048 1142.88,-294.815"/>
</g>
<!-- Node26 -->
<g id="node26" class="node"><title>Node26</title>
<g id="a_node26"><a xlink:href="../../d9/d9d/classengine_1_1game_object_1_1components_1_1_physics_body.html#ae64e43632570392c3118b3d00af853fc" target="_top" xlink:title="engine.gameObject.components.\lPhysicsBody.getCollisionBodyWidth">
<polygon fill="white" stroke="black" points="1121,-245 1121,-275 1303,-275 1303,-245 1121,-245"/>
<text text-anchor="start" x="1129" y="-263" font-family="Helvetica,sans-Serif" font-size="10.00">engine.gameObject.components.</text>
<text text-anchor="middle" x="1212" y="-252" font-family="Helvetica,sans-Serif" font-size="10.00">PhysicsBody.getCollisionBodyWidth</text>
</a>
</g>
</g>
<!-- Node23&#45;&gt;Node26 -->
<g id="edge28" class="edge"><title>Node23&#45;&gt;Node26</title>
<path fill="none" stroke="midnightblue" d="M1057.24,-253.344C1074.24,-254.079 1092.48,-254.869 1110.24,-255.638"/>
<polygon fill="midnightblue" stroke="midnightblue" points="1110.49,-259.152 1120.64,-256.088 1110.8,-252.159 1110.49,-259.152"/>
</g>
<!-- Node28&#45;&gt;Node14 -->
<g id="edge32" class="edge"><title>Node28&#45;&gt;Node14</title>
<path fill="none" stroke="midnightblue" d="M1057.24,-138.959C1074.73,-136.007 1093.53,-132.833 1111.78,-129.751"/>
<polygon fill="midnightblue" stroke="midnightblue" points="1112.57,-133.167 1121.85,-128.051 1111.41,-126.265 1112.57,-133.167"/>
</g>
<!-- Node28&#45;&gt;Node15 -->
<g id="edge33" class="edge"><title>Node28&#45;&gt;Node15</title>
<path fill="none" stroke="midnightblue" d="M1057.18,-137.607C1065.15,-134.695 1072.92,-131.198 1080,-127 1100.29,-114.97 1095.72,-100.055 1116,-88 1118.85,-86.3047 1121.82,-84.7285 1124.87,-83.2629"/>
<polygon fill="midnightblue" stroke="midnightblue" points="1126.46,-86.388 1134.23,-79.1901 1123.67,-79.9687 1126.46,-86.388"/>
</g>
<!-- Node29 -->
<g id="node29" class="node"><title>Node29</title>
<g id="a_node29"><a xlink:href="../../d0/d7f/classengine_1_1game_object_1_1_game_object.html#a5c379828f3bb19a91935f965c48a91a5" target="_top" xlink:title="engine.gameObject.GameObject.get\lLabel">
<polygon fill="white" stroke="black" points="1116,-147 1116,-177 1308,-177 1308,-147 1116,-147"/>
<text text-anchor="start" x="1124" y="-165" font-family="Helvetica,sans-Serif" font-size="10.00">engine.gameObject.GameObject.get</text>
<text text-anchor="middle" x="1212" y="-154" font-family="Helvetica,sans-Serif" font-size="10.00">Label</text>
</a>
</g>
</g>
<!-- Node28&#45;&gt;Node29 -->
<g id="edge31" class="edge"><title>Node28&#45;&gt;Node29</title>
<path fill="none" stroke="midnightblue" d="M1057.24,-155.344C1072.77,-156.016 1089.35,-156.734 1105.65,-157.439"/>
<polygon fill="midnightblue" stroke="midnightblue" points="1105.61,-160.941 1115.75,-157.877 1105.91,-153.947 1105.61,-160.941"/>
</g>
<!-- Node35 -->
<g id="node35" class="node"><title>Node35</title>
<g id="a_node35"><a xlink:href="../../df/d84/classengine_1_1level_1_1_level.html#a264b568258eafa3d2c664c94e7498621" target="_top" xlink:title="engine.level.Level.getCondition\lIdentifiers">
<polygon fill="white" stroke="black" points="442.5,-63 442.5,-93 607.5,-93 607.5,-63 442.5,-63"/>
<text text-anchor="start" x="450.5" y="-81" font-family="Helvetica,sans-Serif" font-size="10.00">engine.level.Level.getCondition</text>
<text text-anchor="middle" x="525" y="-70" font-family="Helvetica,sans-Serif" font-size="10.00">Identifiers</text>
</a>
</g>
</g>
<!-- Node34&#45;&gt;Node35 -->
<g id="edge40" class="edge"><title>Node34&#45;&gt;Node35</title>
<path fill="none" stroke="midnightblue" d="M376.355,-111.965C399.253,-106.698 425.151,-100.74 448.791,-95.3016"/>
<polygon fill="midnightblue" stroke="midnightblue" points="449.808,-98.6591 458.769,-93.0062 448.239,-91.8373 449.808,-98.6591"/>
</g>
<!-- Node36 -->
<g id="node36" class="node"><title>Node36</title>
<g id="a_node36"><a xlink:href="../../df/d67/classengine_1_1level_1_1_level_manager.html#a766cb6198dd991f0bdf6386dace3a65b" target="_top" xlink:title="engine.level.LevelManager.enable\lCondition">
<polygon fill="white" stroke="black" points="436,-14 436,-44 614,-44 614,-14 436,-14"/>
<text text-anchor="start" x="444" y="-32" font-family="Helvetica,sans-Serif" font-size="10.00">engine.level.LevelManager.enable</text>
<text text-anchor="middle" x="525" y="-21" font-family="Helvetica,sans-Serif" font-size="10.00">Condition</text>
</a>
</g>
</g>
<!-- Node34&#45;&gt;Node36 -->
<g id="edge41" class="edge"><title>Node34&#45;&gt;Node36</title>
<path fill="none" stroke="midnightblue" d="M381.98,-111.841C388.338,-109.087 394.458,-105.837 400,-102 422.219,-86.6189 413.723,-68.2967 436,-53 438.17,-51.5098 440.43,-50.1119 442.758,-48.8006"/>
<polygon fill="midnightblue" stroke="midnightblue" points="444.656,-51.7647 452.033,-44.1603 441.524,-45.5044 444.656,-51.7647"/>
</g>
</g>
</svg>
        <g id="navigator" transform="translate(0 0)" fill="#404254">
                <rect fill="#f2f5e9" fill-opacity="0.5" stroke="#606060" stroke-width=".5" x="0" y="0" width="60" height="60"/>
                <use id="zoomplus" xlink:href="#zoomPlus" x="17" y="9" onmousedown="handleZoom(evt,'in')"/>
                <use id="zoomminus" xlink:href="#zoomMin" x="42" y="9" onmousedown="handleZoom(evt,'out')"/>
                <use id="reset" xlink:href="#resetDef" x="30" y="36" onmousedown="handleReset()"/>
                <g id="arrowUp" xlink:href="#dirArrow" transform="translate(30 24)" onmousedown="handlePan(0,-1)">
                  <use xlink:href="#rim" fill="#404040">
                        <set attributeName="fill" to="#808080" begin="arrowUp.mouseover" end="arrowUp.mouseout"/>
                  </use>
                  <path fill="none" stroke="white" stroke-width="1.5" d="M0,-3.0v7 M-2.5,-0.5L0,-3.0L2.5,-0.5"/>
                </g>
                <g id="arrowRight" xlink:href="#dirArrow" transform="rotate(90) translate(36 -43)" onmousedown="handlePan(1,0)">
                  <use xlink:href="#rim" fill="#404040">
                        <set attributeName="fill" to="#808080" begin="arrowRight.mouseover" end="arrowRight.mouseout"/>
                  </use>
                  <path fill="none" stroke="white" stroke-width="1.5" d="M0,-3.0v7 M-2.5,-0.5L0,-3.0L2.5,-0.5"/>
                </g>
                <g id="arrowDown" xlink:href="#dirArrow" transform="rotate(180) translate(-30 -48)" onmousedown="handlePan(0,1)">
                  <use xlink:href="#rim" fill="#404040">
                        <set attributeName="fill" to="#808080" begin="arrowDown.mouseover" end="arrowDown.mouseout"/>
                  </use>
                  <path fill="none" stroke="white" stroke-width="1.5" d="M0,-3.0v7 M-2.5,-0.5L0,-3.0L2.5,-0.5"/>
                </g>
                <g id="arrowLeft" xlink:href="#dirArrow" transform="rotate(270) translate(-36 17)" onmousedown="handlePan(-1,0)">
                  <use xlink:href="#rim" fill="#404040">
                        <set attributeName="fill" to="#808080" begin="arrowLeft.mouseover" end="arrowLeft.mouseout"/>
                  </use>
                  <path fill="none" stroke="white" stroke-width="1.5" d="M0,-3.0v7 M-2.5,-0.5L0,-3.0L2.5,-0.5"/>
                </g>
        </g>
        <svg viewBox="0 0 15 15" width="100%" height="30px" preserveAspectRatio="xMaxYMin meet">
         <g id="arrow_out" transform="scale(0.3 0.3)">
          <a xlink:href="classengine_1_1level_1_1_level_manager_a523599892453015eed0f1b506979af8a_cgraph_org.svg" target="_base">
           <rect id="button" ry="5" rx="5" y="6" x="6" height="38" width="38"
                fill="#f2f5e9" fill-opacity="0.5" stroke="#606060" stroke-width="1.0"/>
           <path id="arrow"
             d="M 11.500037,31.436501 C 11.940474,20.09759 22.043105,11.32322 32.158766,21.979434 L 37.068811,17.246167 C 37.068811,17.246167 37.088388,32 37.088388,32 L 22.160133,31.978069 C 22.160133,31.978069 26.997745,27.140456 26.997745,27.140456 C 18.528582,18.264221 13.291696,25.230495 11.500037,31.436501 z"
             style="fill:#404040;"/>
          </a>
         </g>
        </svg>
</svg>
