<?xml version="1.0" encoding="UTF-8" standalone="no"?>
<!DOCTYPE svg PUBLIC "-//W3C//DTD SVG 1.1//EN"
 "http://www.w3.org/Graphics/SVG/1.1/DTD/svg11.dtd">
<!-- Generated by graphviz version 2.36.0 (20140111.2315)
 -->
<!-- Title: engine.level.LevelManager.findAndSetStartLevel Pages: 1 -->
<svg width="1516pt" height="625pt"
 viewBox="0.00 0.00 1516.00 625.00" xmlns="http://www.w3.org/2000/svg" xmlns:xlink="http://www.w3.org/1999/xlink">
<g id="graph0" class="graph" transform="scale(1 1) rotate(0) translate(4 621)">
<title>engine.level.LevelManager.findAndSetStartLevel</title>
<polygon fill="white" stroke="none" points="-4,4 -4,-621 1512,-621 1512,4 -4,4"/>
<!-- Node1 -->
<g id="node1" class="node"><title>Node1</title>
<polygon fill="#bfbfbf" stroke="black" points="0.5,-440 0.5,-470 163.5,-470 163.5,-440 0.5,-440"/>
<text text-anchor="start" x="8.5" y="-458" font-family="Helvetica,sans-Serif" font-size="10.00">engine.level.LevelManager.find</text>
<text text-anchor="middle" x="82" y="-447" font-family="Helvetica,sans-Serif" font-size="10.00">AndSetStartLevel</text>
</g>
<!-- Node2 -->
<g id="node2" class="node"><title>Node2</title>
<g id="a_node2"><a xlink:href="../../df/d67/classengine_1_1level_1_1_level_manager.html#a523599892453015eed0f1b506979af8a" target="_top" xlink:title="engine.level.LevelManager.initialize\lCurrentLevel">
<polygon fill="white" stroke="black" points="200,-440 200,-470 384,-470 384,-440 200,-440"/>
<text text-anchor="start" x="208" y="-458" font-family="Helvetica,sans-Serif" font-size="10.00">engine.level.LevelManager.initialize</text>
<text text-anchor="middle" x="292" y="-447" font-family="Helvetica,sans-Serif" font-size="10.00">CurrentLevel</text>
</a>
</g>
</g>
<!-- Node1&#45;&gt;Node2 -->
<g id="edge1" class="edge"><title>Node1&#45;&gt;Node2</title>
<path fill="none" stroke="midnightblue" d="M163.716,-455C172.252,-455 181.009,-455 189.739,-455"/>
<polygon fill="midnightblue" stroke="midnightblue" points="189.962,-458.5 199.962,-455 189.962,-451.5 189.962,-458.5"/>
</g>
<!-- Node3 -->
<g id="node3" class="node"><title>Node3</title>
<g id="a_node3"><a xlink:href="../../df/d67/classengine_1_1level_1_1_level_manager.html#af00a1d61217dd801bb7a8b16ad829cf0" target="_top" xlink:title="engine.level.LevelManager.disable\lAllConditions">
<polygon fill="white" stroke="black" points="420.5,-587 420.5,-617 599.5,-617 599.5,-587 420.5,-587"/>
<text text-anchor="start" x="428.5" y="-605" font-family="Helvetica,sans-Serif" font-size="10.00">engine.level.LevelManager.disable</text>
<text text-anchor="middle" x="510" y="-594" font-family="Helvetica,sans-Serif" font-size="10.00">AllConditions</text>
</a>
</g>
</g>
<!-- Node2&#45;&gt;Node3 -->
<g id="edge2" class="edge"><title>Node2&#45;&gt;Node3</title>
<path fill="none" stroke="midnightblue" d="M304.561,-470.21C325.002,-496.043 370.107,-548.461 420,-577 423.866,-579.211 427.94,-581.237 432.13,-583.091"/>
<polygon fill="midnightblue" stroke="midnightblue" points="430.875,-586.359 441.457,-586.882 433.511,-579.874 430.875,-586.359"/>
</g>
<!-- Node4 -->
<g id="node4" class="node"><title>Node4</title>
<g id="a_node4"><a xlink:href="../../df/d67/classengine_1_1level_1_1_level_manager.html#a5d79217e53b1e3804476ba6b366ad066" target="_top" xlink:title="engine.level.LevelManager.set\lLevelEnabledConditions">
<polygon fill="white" stroke="black" points="429.5,-538 429.5,-568 590.5,-568 590.5,-538 429.5,-538"/>
<text text-anchor="start" x="437.5" y="-556" font-family="Helvetica,sans-Serif" font-size="10.00">engine.level.LevelManager.set</text>
<text text-anchor="middle" x="510" y="-545" font-family="Helvetica,sans-Serif" font-size="10.00">LevelEnabledConditions</text>
</a>
</g>
</g>
<!-- Node2&#45;&gt;Node4 -->
<g id="edge3" class="edge"><title>Node2&#45;&gt;Node4</title>
<path fill="none" stroke="midnightblue" d="M315.519,-470.248C340.242,-486.429 381.548,-511.844 420,-528 425.729,-530.407 431.761,-532.658 437.873,-534.745"/>
<polygon fill="midnightblue" stroke="midnightblue" points="436.919,-538.115 447.512,-537.888 439.09,-531.46 436.919,-538.115"/>
</g>
<!-- Node7 -->
<g id="node7" class="node"><title>Node7</title>
<g id="a_node7"><a xlink:href="../../da/d90/classengine_1_1sound_1_1_sound_utility.html#a53a82805b12b2b8f68b8396b9795d092" target="_top" xlink:title="engine.sound.SoundUtility.stop\lBackGroundMusic">
<polygon fill="white" stroke="black" points="428,-489 428,-519 592,-519 592,-489 428,-489"/>
<text text-anchor="start" x="436" y="-507" font-family="Helvetica,sans-Serif" font-size="10.00">engine.sound.SoundUtility.stop</text>
<text text-anchor="middle" x="510" y="-496" font-family="Helvetica,sans-Serif" font-size="10.00">BackGroundMusic</text>
</a>
</g>
</g>
<!-- Node2&#45;&gt;Node7 -->
<g id="edge6" class="edge"><title>Node2&#45;&gt;Node7</title>
<path fill="none" stroke="midnightblue" d="M359.275,-470.035C382.6,-475.326 408.993,-481.313 433.053,-486.771"/>
<polygon fill="midnightblue" stroke="midnightblue" points="432.324,-490.195 442.85,-488.994 433.872,-483.368 432.324,-490.195"/>
</g>
<!-- Node8 -->
<g id="node8" class="node"><title>Node8</title>
<g id="a_node8"><a xlink:href="../../da/d90/classengine_1_1sound_1_1_sound_utility.html#ab8cd26d71aa7b20d07350105a4254c92" target="_top" xlink:title="engine.sound.SoundUtility.play\lBackGroundMusic">
<polygon fill="white" stroke="black" points="428.5,-440 428.5,-470 591.5,-470 591.5,-440 428.5,-440"/>
<text text-anchor="start" x="436.5" y="-458" font-family="Helvetica,sans-Serif" font-size="10.00">engine.sound.SoundUtility.play</text>
<text text-anchor="middle" x="510" y="-447" font-family="Helvetica,sans-Serif" font-size="10.00">BackGroundMusic</text>
</a>
</g>
</g>
<!-- Node2&#45;&gt;Node8 -->
<g id="edge7" class="edge"><title>Node2&#45;&gt;Node8</title>
<path fill="none" stroke="midnightblue" d="M384.29,-455C395.486,-455 406.927,-455 418.116,-455"/>
<polygon fill="midnightblue" stroke="midnightblue" points="418.307,-458.5 428.307,-455 418.307,-451.5 418.307,-458.5"/>
</g>
<!-- Node9 -->
<g id="node9" class="node"><title>Node9</title>
<g id="a_node9"><a xlink:href="../../df/d84/classengine_1_1level_1_1_level.html#a368275ed98c802fbf59a11423b9b9a0d" target="_top" xlink:title="engine.level.Level.getBackground\lMusic">
<polygon fill="white" stroke="black" points="421.5,-391 421.5,-421 598.5,-421 598.5,-391 421.5,-391"/>
<text text-anchor="start" x="429.5" y="-409" font-family="Helvetica,sans-Serif" font-size="10.00">engine.level.Level.getBackground</text>
<text text-anchor="middle" x="510" y="-398" font-family="Helvetica,sans-Serif" font-size="10.00">Music</text>
</a>
</g>
</g>
<!-- Node2&#45;&gt;Node9 -->
<g id="edge8" class="edge"><title>Node2&#45;&gt;Node9</title>
<path fill="none" stroke="midnightblue" d="M359.275,-439.965C382.6,-434.674 408.993,-428.687 433.053,-423.229"/>
<polygon fill="midnightblue" stroke="midnightblue" points="433.872,-426.632 442.85,-421.006 432.324,-419.805 433.872,-426.632"/>
</g>
<!-- Node10 -->
<g id="node10" class="node"><title>Node10</title>
<g id="a_node10"><a xlink:href="../../df/d84/classengine_1_1level_1_1_level.html#ace23cd4ed278a5bb85e964ff3c8818b5" target="_top" xlink:title="engine.level.Level.initialize">
<polygon fill="white" stroke="black" points="438.5,-352.5 438.5,-371.5 581.5,-371.5 581.5,-352.5 438.5,-352.5"/>
<text text-anchor="middle" x="510" y="-359.5" font-family="Helvetica,sans-Serif" font-size="10.00">engine.level.Level.initialize</text>
</a>
</g>
</g>
<!-- Node2&#45;&gt;Node10 -->
<g id="edge9" class="edge"><title>Node2&#45;&gt;Node10</title>
<path fill="none" stroke="midnightblue" d="M314.467,-439.957C338.94,-423.466 380.661,-397.32 420,-382 427.849,-378.943 436.278,-376.293 444.708,-374.013"/>
<polygon fill="midnightblue" stroke="midnightblue" points="445.741,-377.362 454.569,-371.504 444.015,-370.578 445.741,-377.362"/>
</g>
<!-- Node15 -->
<g id="node15" class="node"><title>Node15</title>
<g id="a_node15"><a xlink:href="../../dd/d8d/classengine_1_1render_1_1_renderer.html#a189dda9a8463274afe267959860f0dee" target="_top" xlink:title="engine.render.Renderer.render\lGameObjects">
<polygon fill="white" stroke="black" points="429,-232 429,-262 591,-262 591,-232 429,-232"/>
<text text-anchor="start" x="437" y="-250" font-family="Helvetica,sans-Serif" font-size="10.00">engine.render.Renderer.render</text>
<text text-anchor="middle" x="510" y="-239" font-family="Helvetica,sans-Serif" font-size="10.00">GameObjects</text>
</a>
</g>
</g>
<!-- Node2&#45;&gt;Node15 -->
<g id="edge14" class="edge"><title>Node2&#45;&gt;Node15</title>
<path fill="none" stroke="midnightblue" d="M308.883,-439.705C346.657,-403.33 441.979,-311.539 486.029,-269.121"/>
<polygon fill="midnightblue" stroke="midnightblue" points="488.61,-271.494 493.385,-262.037 483.754,-266.452 488.61,-271.494"/>
</g>
<!-- Node5 -->
<g id="node5" class="node"><title>Node5</title>
<g id="a_node5"><a xlink:href="../../df/d84/classengine_1_1level_1_1_level.html#a264b568258eafa3d2c664c94e7498621" target="_top" xlink:title="engine.level.Level.getCondition\lIdentifiers">
<polygon fill="white" stroke="black" points="642.5,-563 642.5,-593 807.5,-593 807.5,-563 642.5,-563"/>
<text text-anchor="start" x="650.5" y="-581" font-family="Helvetica,sans-Serif" font-size="10.00">engine.level.Level.getCondition</text>
<text text-anchor="middle" x="725" y="-570" font-family="Helvetica,sans-Serif" font-size="10.00">Identifiers</text>
</a>
</g>
</g>
<!-- Node4&#45;&gt;Node5 -->
<g id="edge4" class="edge"><title>Node4&#45;&gt;Node5</title>
<path fill="none" stroke="midnightblue" d="M590.616,-562.345C604.213,-563.941 618.436,-565.61 632.316,-567.239"/>
<polygon fill="midnightblue" stroke="midnightblue" points="632.009,-570.727 642.349,-568.417 632.825,-563.775 632.009,-570.727"/>
</g>
<!-- Node6 -->
<g id="node6" class="node"><title>Node6</title>
<g id="a_node6"><a xlink:href="../../df/d67/classengine_1_1level_1_1_level_manager.html#a766cb6198dd991f0bdf6386dace3a65b" target="_top" xlink:title="engine.level.LevelManager.enable\lCondition">
<polygon fill="white" stroke="black" points="636,-514 636,-544 814,-544 814,-514 636,-514"/>
<text text-anchor="start" x="644" y="-532" font-family="Helvetica,sans-Serif" font-size="10.00">engine.level.LevelManager.enable</text>
<text text-anchor="middle" x="725" y="-521" font-family="Helvetica,sans-Serif" font-size="10.00">Condition</text>
</a>
</g>
</g>
<!-- Node4&#45;&gt;Node6 -->
<g id="edge5" class="edge"><title>Node4&#45;&gt;Node6</title>
<path fill="none" stroke="midnightblue" d="M590.616,-544.029C602.04,-542.742 613.906,-541.405 625.639,-540.083"/>
<polygon fill="midnightblue" stroke="midnightblue" points="626.356,-543.524 635.901,-538.927 625.572,-536.568 626.356,-543.524"/>
</g>
<!-- Node11 -->
<g id="node11" class="node"><title>Node11</title>
<g id="a_node11"><a xlink:href="../../d4/d3b/classauthoring_1_1model_1_1collections_1_1_general_collection.html#a1bdc1047736bbb23259d6a7fe4c6deeb" target="_top" xlink:title="authoring.model.collections.\lGeneralCollection.add">
<polygon fill="white" stroke="black" points="649,-347 649,-377 801,-377 801,-347 649,-347"/>
<text text-anchor="start" x="657" y="-365" font-family="Helvetica,sans-Serif" font-size="10.00">authoring.model.collections.</text>
<text text-anchor="middle" x="725" y="-354" font-family="Helvetica,sans-Serif" font-size="10.00">GeneralCollection.add</text>
</a>
</g>
</g>
<!-- Node10&#45;&gt;Node11 -->
<g id="edge10" class="edge"><title>Node10&#45;&gt;Node11</title>
<path fill="none" stroke="midnightblue" d="M581.63,-362C599.902,-362 619.768,-362 638.703,-362"/>
<polygon fill="midnightblue" stroke="midnightblue" points="638.807,-365.5 648.807,-362 638.807,-358.5 638.807,-365.5"/>
</g>
<!-- Node12 -->
<g id="node12" class="node"><title>Node12</title>
<g id="a_node12"><a xlink:href="../../d0/d7f/classengine_1_1game_object_1_1_game_object.html#accd456b2eaab9c7056de825a28b066c8" target="_top" xlink:title="engine.gameObject.GameObject.get\lIdentifier">
<polygon fill="white" stroke="black" points="850,-308 850,-338 1042,-338 1042,-308 850,-308"/>
<text text-anchor="start" x="858" y="-326" font-family="Helvetica,sans-Serif" font-size="10.00">engine.gameObject.GameObject.get</text>
<text text-anchor="middle" x="946" y="-315" font-family="Helvetica,sans-Serif" font-size="10.00">Identifier</text>
</a>
</g>
</g>
<!-- Node10&#45;&gt;Node12 -->
<g id="edge11" class="edge"><title>Node10&#45;&gt;Node12</title>
<path fill="none" stroke="midnightblue" d="M578.883,-371.518C586.365,-374.206 593.585,-377.634 600,-382 623.541,-398.022 610.836,-421.672 636,-435 705.911,-472.027 739.786,-462.401 814,-435 861.824,-417.343 904.015,-373.581 926.888,-346.281"/>
<polygon fill="midnightblue" stroke="midnightblue" points="929.726,-348.34 933.352,-338.385 924.309,-343.906 929.726,-348.34"/>
</g>
<!-- Node13 -->
<g id="node13" class="node"><title>Node13</title>
<g id="a_node13"><a xlink:href="../../d4/dac/classengine_1_1game_object_1_1_identifier.html#aa2630b5024b9595e43afe0bf53229433" target="_top" xlink:title="engine.gameObject.Identifier.get\lUniqueId">
<polygon fill="white" stroke="black" points="638.5,-298 638.5,-328 811.5,-328 811.5,-298 638.5,-298"/>
<text text-anchor="start" x="646.5" y="-316" font-family="Helvetica,sans-Serif" font-size="10.00">engine.gameObject.Identifier.get</text>
<text text-anchor="middle" x="725" y="-305" font-family="Helvetica,sans-Serif" font-size="10.00">UniqueId</text>
</a>
</g>
</g>
<!-- Node10&#45;&gt;Node13 -->
<g id="edge12" class="edge"><title>Node10&#45;&gt;Node13</title>
<path fill="none" stroke="midnightblue" d="M552.321,-352.494C579.621,-346.214 616.205,-337.798 648.586,-330.349"/>
<polygon fill="midnightblue" stroke="midnightblue" points="649.525,-333.724 658.486,-328.071 647.956,-326.902 649.525,-333.724"/>
</g>
<!-- Node14 -->
<g id="node14" class="node"><title>Node14</title>
<g id="a_node14"><a xlink:href="../../df/d67/classengine_1_1level_1_1_level_manager.html#a6e15411e375d875fa72058d499bec766" target="_top" xlink:title="engine.level.LevelManager.object\lForIdentifier">
<polygon fill="white" stroke="black" points="637.5,-396 637.5,-426 812.5,-426 812.5,-396 637.5,-396"/>
<text text-anchor="start" x="645.5" y="-414" font-family="Helvetica,sans-Serif" font-size="10.00">engine.level.LevelManager.object</text>
<text text-anchor="middle" x="725" y="-403" font-family="Helvetica,sans-Serif" font-size="10.00">ForIdentifier</text>
</a>
</g>
</g>
<!-- Node10&#45;&gt;Node14 -->
<g id="edge13" class="edge"><title>Node10&#45;&gt;Node14</title>
<path fill="none" stroke="midnightblue" d="M554.022,-371.589C568.623,-374.864 585.027,-378.567 600,-382 616.24,-385.724 633.663,-389.768 650.167,-393.621"/>
<polygon fill="midnightblue" stroke="midnightblue" points="649.771,-397.123 660.305,-395.992 651.365,-390.307 649.771,-397.123"/>
</g>
<!-- Node15&#45;&gt;Node12 -->
<g id="edge23" class="edge"><title>Node15&#45;&gt;Node12</title>
<path fill="none" stroke="midnightblue" d="M591.247,-254.839C652.613,-261.561 739.125,-272.61 814,-288 830.266,-291.343 833.97,-293.665 850,-298 858.886,-300.403 868.249,-302.905 877.491,-305.356"/>
<polygon fill="midnightblue" stroke="midnightblue" points="876.883,-308.815 887.445,-307.989 878.673,-302.048 876.883,-308.815"/>
</g>
<!-- Node15&#45;&gt;Node13 -->
<g id="edge24" class="edge"><title>Node15&#45;&gt;Node13</title>
<path fill="none" stroke="midnightblue" d="M559.6,-262.059C591.113,-271.824 632.345,-284.6 665.633,-294.914"/>
<polygon fill="midnightblue" stroke="midnightblue" points="664.653,-298.275 675.241,-297.892 666.725,-291.589 664.653,-298.275"/>
</g>
<!-- Node16 -->
<g id="node16" class="node"><title>Node16</title>
<g id="a_node16"><a xlink:href="../../dd/d8d/classengine_1_1render_1_1_renderer.html#a10b850c208c44a1137b099d1967c6e9b" target="_top" xlink:title="engine.render.Renderer.set\lBackGroundImage">
<polygon fill="white" stroke="black" points="652,-161 652,-191 798,-191 798,-161 652,-161"/>
<text text-anchor="start" x="660" y="-179" font-family="Helvetica,sans-Serif" font-size="10.00">engine.render.Renderer.set</text>
<text text-anchor="middle" x="725" y="-168" font-family="Helvetica,sans-Serif" font-size="10.00">BackGroundImage</text>
</a>
</g>
</g>
<!-- Node15&#45;&gt;Node16 -->
<g id="edge15" class="edge"><title>Node15&#45;&gt;Node16</title>
<path fill="none" stroke="midnightblue" d="M548.146,-231.992C572.842,-222.272 606.111,-209.672 636,-200 642.377,-197.936 649.052,-195.899 655.75,-193.936"/>
<polygon fill="midnightblue" stroke="midnightblue" points="656.907,-197.245 665.55,-191.118 654.972,-190.518 656.907,-197.245"/>
</g>
<!-- Node22 -->
<g id="node22" class="node"><title>Node22</title>
<g id="a_node22"><a xlink:href="../../df/d84/classengine_1_1level_1_1_level.html#af2921158eda86e1f909575ee468eec5c" target="_top" xlink:title="engine.level.Level.getGame\lObjectIterator">
<polygon fill="white" stroke="black" points="650.5,-93 650.5,-123 799.5,-123 799.5,-93 650.5,-93"/>
<text text-anchor="start" x="658.5" y="-111" font-family="Helvetica,sans-Serif" font-size="10.00">engine.level.Level.getGame</text>
<text text-anchor="middle" x="725" y="-100" font-family="Helvetica,sans-Serif" font-size="10.00">ObjectIterator</text>
</a>
</g>
</g>
<!-- Node15&#45;&gt;Node22 -->
<g id="edge21" class="edge"><title>Node15&#45;&gt;Node22</title>
<path fill="none" stroke="midnightblue" d="M528.398,-231.824C551.829,-211.821 595.295,-176.221 636,-151 649.754,-142.478 665.442,-134.35 679.725,-127.501"/>
<polygon fill="midnightblue" stroke="midnightblue" points="681.318,-130.62 688.874,-123.193 678.336,-124.286 681.318,-130.62"/>
</g>
<!-- Node24 -->
<g id="node24" class="node"><title>Node24</title>
<g id="a_node24"><a xlink:href="../../dd/d8d/classengine_1_1render_1_1_renderer.html#a569f6bb2f9c218ed015949dff459b1ee" target="_top" xlink:title="engine.render.Renderer.create\lAndAssignRenderedNode">
<polygon fill="white" stroke="black" points="644.5,-210 644.5,-240 805.5,-240 805.5,-210 644.5,-210"/>
<text text-anchor="start" x="652.5" y="-228" font-family="Helvetica,sans-Serif" font-size="10.00">engine.render.Renderer.create</text>
<text text-anchor="middle" x="725" y="-217" font-family="Helvetica,sans-Serif" font-size="10.00">AndAssignRenderedNode</text>
</a>
</g>
</g>
<!-- Node15&#45;&gt;Node24 -->
<g id="edge25" class="edge"><title>Node15&#45;&gt;Node24</title>
<path fill="none" stroke="midnightblue" d="M591.223,-238.714C605.172,-237.273 619.763,-235.766 633.955,-234.3"/>
<polygon fill="midnightblue" stroke="midnightblue" points="634.616,-237.751 644.203,-233.242 633.897,-230.788 634.616,-237.751"/>
</g>
<!-- Node17 -->
<g id="node17" class="node"><title>Node17</title>
<g id="a_node17"><a xlink:href="../../d5/d30/classengine_1_1render_1_1_rendered_node_factory.html#ae9ab86f88eb96945a412e561179aa070" target="_top" xlink:title="engine.render.RenderedNode\lFactory.createImageAndView">
<polygon fill="white" stroke="black" points="1101,-49 1101,-79 1257,-79 1257,-49 1101,-49"/>
<text text-anchor="start" x="1109" y="-67" font-family="Helvetica,sans-Serif" font-size="10.00">engine.render.RenderedNode</text>
<text text-anchor="middle" x="1179" y="-56" font-family="Helvetica,sans-Serif" font-size="10.00">Factory.createImageAndView</text>
</a>
</g>
</g>
<!-- Node16&#45;&gt;Node17 -->
<g id="edge16" class="edge"><title>Node16&#45;&gt;Node17</title>
<path fill="none" stroke="midnightblue" d="M798.29,-161.401C891.346,-142.602 1041.28,-112.289 1042,-112 1059.6,-104.884 1060.56,-96.5117 1078,-89 1083.77,-86.5143 1089.84,-84.2401 1096.02,-82.1663"/>
<polygon fill="midnightblue" stroke="midnightblue" points="1097.31,-85.4285 1105.78,-79.0707 1095.19,-78.7557 1097.31,-85.4285"/>
</g>
<!-- Node21 -->
<g id="node21" class="node"><title>Node21</title>
<g id="a_node21"><a xlink:href="../../df/d84/classengine_1_1level_1_1_level.html#a5dc36c31fcc8e0b5cbe2a942ec101fdb" target="_top" xlink:title="engine.level.Level.getBackground\lImage">
<polygon fill="white" stroke="black" points="857.5,-161 857.5,-191 1034.5,-191 1034.5,-161 857.5,-161"/>
<text text-anchor="start" x="865.5" y="-179" font-family="Helvetica,sans-Serif" font-size="10.00">engine.level.Level.getBackground</text>
<text text-anchor="middle" x="946" y="-168" font-family="Helvetica,sans-Serif" font-size="10.00">Image</text>
</a>
</g>
</g>
<!-- Node16&#45;&gt;Node21 -->
<g id="edge20" class="edge"><title>Node16&#45;&gt;Node21</title>
<path fill="none" stroke="midnightblue" d="M798.012,-176C813.705,-176 830.566,-176 847.072,-176"/>
<polygon fill="midnightblue" stroke="midnightblue" points="847.29,-179.5 857.29,-176 847.29,-172.5 847.29,-179.5"/>
</g>
<!-- Node18 -->
<g id="node18" class="node"><title>Node18</title>
<g id="a_node18"><a xlink:href="../../d0/d7f/classengine_1_1game_object_1_1_game_object.html#ae8b88e1cf489e935426e2e252defbae0" target="_top" xlink:title="engine.gameObject.GameObject.get\lCurrentImageName">
<polygon fill="white" stroke="black" points="1316,-0 1316,-30 1508,-30 1508,-0 1316,-0"/>
<text text-anchor="start" x="1324" y="-18" font-family="Helvetica,sans-Serif" font-size="10.00">engine.gameObject.GameObject.get</text>
<text text-anchor="middle" x="1412" y="-7" font-family="Helvetica,sans-Serif" font-size="10.00">CurrentImageName</text>
</a>
</g>
</g>
<!-- Node17&#45;&gt;Node18 -->
<g id="edge17" class="edge"><title>Node17&#45;&gt;Node18</title>
<path fill="none" stroke="midnightblue" d="M1250.88,-48.9654C1276.04,-43.627 1304.55,-37.5802 1330.46,-32.0834"/>
<polygon fill="midnightblue" stroke="midnightblue" points="1331.2,-35.5051 1340.26,-30.0062 1329.75,-28.6575 1331.2,-35.5051"/>
</g>
<!-- Node19 -->
<g id="node19" class="node"><title>Node19</title>
<g id="a_node19"><a xlink:href="../../d0/d7f/classengine_1_1game_object_1_1_game_object.html#aaeb5730a3b51fe9cb3d817ea7172cfc2" target="_top" xlink:title="engine.gameObject.GameObject.get\lHeight">
<polygon fill="white" stroke="black" points="1316,-98 1316,-128 1508,-128 1508,-98 1316,-98"/>
<text text-anchor="start" x="1324" y="-116" font-family="Helvetica,sans-Serif" font-size="10.00">engine.gameObject.GameObject.get</text>
<text text-anchor="middle" x="1412" y="-105" font-family="Helvetica,sans-Serif" font-size="10.00">Height</text>
</a>
</g>
</g>
<!-- Node17&#45;&gt;Node19 -->
<g id="edge18" class="edge"><title>Node17&#45;&gt;Node19</title>
<path fill="none" stroke="midnightblue" d="M1250.88,-79.0346C1276.04,-84.373 1304.55,-90.4198 1330.46,-95.9166"/>
<polygon fill="midnightblue" stroke="midnightblue" points="1329.75,-99.3425 1340.26,-97.9938 1331.2,-92.4949 1329.75,-99.3425"/>
</g>
<!-- Node20 -->
<g id="node20" class="node"><title>Node20</title>
<g id="a_node20"><a xlink:href="../../d0/d7f/classengine_1_1game_object_1_1_game_object.html#a31aa2c854220621b49fc5575b50b9342" target="_top" xlink:title="engine.gameObject.GameObject.get\lWidth">
<polygon fill="white" stroke="black" points="1316,-49 1316,-79 1508,-79 1508,-49 1316,-49"/>
<text text-anchor="start" x="1324" y="-67" font-family="Helvetica,sans-Serif" font-size="10.00">engine.gameObject.GameObject.get</text>
<text text-anchor="middle" x="1412" y="-56" font-family="Helvetica,sans-Serif" font-size="10.00">Width</text>
</a>
</g>
</g>
<!-- Node17&#45;&gt;Node20 -->
<g id="edge19" class="edge"><title>Node17&#45;&gt;Node20</title>
<path fill="none" stroke="midnightblue" d="M1257.24,-64C1272.77,-64 1289.35,-64 1305.65,-64"/>
<polygon fill="midnightblue" stroke="midnightblue" points="1305.75,-67.5001 1315.75,-64 1305.75,-60.5001 1305.75,-67.5001"/>
</g>
<!-- Node23 -->
<g id="node23" class="node"><title>Node23</title>
<g id="a_node23"><a xlink:href="../../d4/d3b/classauthoring_1_1model_1_1collections_1_1_general_collection.html#a79482ff667a22bb0d5b702c03261fe8d" target="_top" xlink:title="authoring.model.collections.\lGeneralCollection.iterator">
<polygon fill="white" stroke="black" points="870,-73 870,-103 1022,-103 1022,-73 870,-73"/>
<text text-anchor="start" x="878" y="-91" font-family="Helvetica,sans-Serif" font-size="10.00">authoring.model.collections.</text>
<text text-anchor="middle" x="946" y="-80" font-family="Helvetica,sans-Serif" font-size="10.00">GeneralCollection.iterator</text>
</a>
</g>
</g>
<!-- Node22&#45;&gt;Node23 -->
<g id="edge22" class="edge"><title>Node22&#45;&gt;Node23</title>
<path fill="none" stroke="midnightblue" d="M799.533,-101.285C818.88,-99.5178 839.912,-97.5971 859.815,-95.7794"/>
<polygon fill="midnightblue" stroke="midnightblue" points="860.153,-99.2633 869.793,-94.8682 859.516,-92.2923 860.153,-99.2633"/>
</g>
<!-- Node24&#45;&gt;Node12 -->
<g id="edge42" class="edge"><title>Node24&#45;&gt;Node12</title>
<path fill="none" stroke="midnightblue" d="M784.95,-240.089C795.11,-244.062 805.215,-248.975 814,-255 834.555,-269.097 828.956,-284.643 850,-298 853.213,-300.039 856.587,-301.913 860.071,-303.634"/>
<polygon fill="midnightblue" stroke="midnightblue" points="858.952,-306.968 869.51,-307.845 861.803,-300.575 858.952,-306.968"/>
</g>
<!-- Node25 -->
<g id="node25" class="node"><title>Node25</title>
<g id="a_node25"><a xlink:href="../../d5/d30/classengine_1_1render_1_1_rendered_node_factory.html#a359dcce722371dfb49b79528930c1b05" target="_top" xlink:title="engine.render.RenderedNode\lFactory.createRenderedNode">
<polygon fill="white" stroke="black" points="868,-210 868,-240 1024,-240 1024,-210 868,-210"/>
<text text-anchor="start" x="876" y="-228" font-family="Helvetica,sans-Serif" font-size="10.00">engine.render.RenderedNode</text>
<text text-anchor="middle" x="946" y="-217" font-family="Helvetica,sans-Serif" font-size="10.00">Factory.createRenderedNode</text>
</a>
</g>
</g>
<!-- Node24&#45;&gt;Node25 -->
<g id="edge26" class="edge"><title>Node24&#45;&gt;Node25</title>
<path fill="none" stroke="midnightblue" d="M805.684,-225C822.655,-225 840.66,-225 857.892,-225"/>
<polygon fill="midnightblue" stroke="midnightblue" points="857.936,-228.5 867.936,-225 857.936,-221.5 857.936,-228.5"/>
</g>
<!-- Node38 -->
<g id="node38" class="node"><title>Node38</title>
<g id="a_node38"><a xlink:href="../../d0/d7f/classengine_1_1game_object_1_1_game_object.html#ab09d473d8c2afe8cefb2ce2481bc66fd" target="_top" xlink:title="engine.gameObject.GameObject.set\lRenderedNode">
<polygon fill="white" stroke="black" points="850.5,-259 850.5,-289 1041.5,-289 1041.5,-259 850.5,-259"/>
<text text-anchor="start" x="858.5" y="-277" font-family="Helvetica,sans-Serif" font-size="10.00">engine.gameObject.GameObject.set</text>
<text text-anchor="middle" x="946" y="-266" font-family="Helvetica,sans-Serif" font-size="10.00">RenderedNode</text>
</a>
</g>
</g>
<!-- Node24&#45;&gt;Node38 -->
<g id="edge43" class="edge"><title>Node24&#45;&gt;Node38</title>
<path fill="none" stroke="midnightblue" d="M793.196,-240.035C816.844,-245.326 843.604,-251.313 867.998,-256.771"/>
<polygon fill="midnightblue" stroke="midnightblue" points="867.409,-260.226 877.932,-258.994 868.937,-253.395 867.409,-260.226"/>
</g>
<!-- Node25&#45;&gt;Node17 -->
<g id="edge28" class="edge"><title>Node25&#45;&gt;Node17</title>
<path fill="none" stroke="midnightblue" d="M1024.26,-212.113C1030.74,-208.899 1036.79,-204.92 1042,-200 1079.69,-164.374 1040.09,-124.393 1078,-89 1082.09,-85.1837 1086.67,-81.9265 1091.56,-79.1489"/>
<polygon fill="midnightblue" stroke="midnightblue" points="1093.25,-82.2192 1100.66,-74.6499 1090.14,-75.9441 1093.25,-82.2192"/>
</g>
<!-- Node26 -->
<g id="node26" class="node"><title>Node26</title>
<g id="a_node26"><a xlink:href="../../d2/d82/classengine_1_1render_1_1_rendered_node.html#a520a8c03b505d10c69e010e603cadfdd" target="_top" xlink:title="engine.render.RenderedNode.set\lImageView">
<polygon fill="white" stroke="black" points="1092,-333 1092,-363 1266,-363 1266,-333 1092,-333"/>
<text text-anchor="start" x="1100" y="-351" font-family="Helvetica,sans-Serif" font-size="10.00">engine.render.RenderedNode.set</text>
<text text-anchor="middle" x="1179" y="-340" font-family="Helvetica,sans-Serif" font-size="10.00">ImageView</text>
</a>
</g>
</g>
<!-- Node25&#45;&gt;Node26 -->
<g id="edge27" class="edge"><title>Node25&#45;&gt;Node26</title>
<path fill="none" stroke="midnightblue" d="M1024.02,-238.039C1030.47,-240.993 1036.59,-244.6 1042,-249 1070.38,-272.075 1049.6,-299.96 1078,-323 1080.07,-324.677 1082.23,-326.243 1084.48,-327.707"/>
<polygon fill="midnightblue" stroke="midnightblue" points="1083.06,-330.931 1093.48,-332.853 1086.54,-324.853 1083.06,-330.931"/>
</g>
<!-- Node27 -->
<g id="node27" class="node"><title>Node27</title>
<g id="a_node27"><a xlink:href="../../d2/d82/classengine_1_1render_1_1_rendered_node.html#ad73c81ad48b40faea3818c9a7bbfdcf0" target="_top" xlink:title="engine.render.RenderedNode.set\lCollisionBody">
<polygon fill="white" stroke="black" points="1092,-284 1092,-314 1266,-314 1266,-284 1092,-284"/>
<text text-anchor="start" x="1100" y="-302" font-family="Helvetica,sans-Serif" font-size="10.00">engine.render.RenderedNode.set</text>
<text text-anchor="middle" x="1179" y="-291" font-family="Helvetica,sans-Serif" font-size="10.00">CollisionBody</text>
</a>
</g>
</g>
<!-- Node25&#45;&gt;Node27 -->
<g id="edge29" class="edge"><title>Node25&#45;&gt;Node27</title>
<path fill="none" stroke="midnightblue" d="M1018.26,-240.004C1026.42,-242.597 1034.49,-245.581 1042,-249 1059.73,-257.071 1060.26,-265.951 1078,-274 1083.38,-276.44 1089.03,-278.666 1094.79,-280.693"/>
<polygon fill="midnightblue" stroke="midnightblue" points="1093.99,-284.111 1104.58,-283.919 1096.18,-277.463 1093.99,-284.111"/>
</g>
<!-- Node28 -->
<g id="node28" class="node"><title>Node28</title>
<g id="a_node28"><a xlink:href="../../d5/d30/classengine_1_1render_1_1_rendered_node_factory.html#ac14d2f5a3da79d92c967fe22bc82c1ed" target="_top" xlink:title="engine.render.RenderedNode\lFactory.createCollisionBody">
<polygon fill="white" stroke="black" points="1101,-235 1101,-265 1257,-265 1257,-235 1101,-235"/>
<text text-anchor="start" x="1109" y="-253" font-family="Helvetica,sans-Serif" font-size="10.00">engine.render.RenderedNode</text>
<text text-anchor="middle" x="1179" y="-242" font-family="Helvetica,sans-Serif" font-size="10.00">Factory.createCollisionBody</text>
</a>
</g>
</g>
<!-- Node25&#45;&gt;Node28 -->
<g id="edge30" class="edge"><title>Node25&#45;&gt;Node28</title>
<path fill="none" stroke="midnightblue" d="M1024.24,-233.359C1045.62,-235.674 1068.98,-238.201 1090.88,-240.572"/>
<polygon fill="midnightblue" stroke="midnightblue" points="1090.51,-244.052 1100.83,-241.648 1091.27,-237.093 1090.51,-244.052"/>
</g>
<!-- Node32 -->
<g id="node32" class="node"><title>Node32</title>
<g id="a_node32"><a xlink:href="../../d2/d82/classengine_1_1render_1_1_rendered_node.html#a312c663dd1144ff206ecfa1ea8c95a81" target="_top" xlink:title="engine.render.RenderedNode.set\lLabel">
<polygon fill="white" stroke="black" points="1092,-186 1092,-216 1266,-216 1266,-186 1092,-186"/>
<text text-anchor="start" x="1100" y="-204" font-family="Helvetica,sans-Serif" font-size="10.00">engine.render.RenderedNode.set</text>
<text text-anchor="middle" x="1179" y="-193" font-family="Helvetica,sans-Serif" font-size="10.00">Label</text>
</a>
</g>
</g>
<!-- Node25&#45;&gt;Node32 -->
<g id="edge34" class="edge"><title>Node25&#45;&gt;Node32</title>
<path fill="none" stroke="midnightblue" d="M1024.24,-216.975C1042.59,-215.069 1062.38,-213.012 1081.47,-211.029"/>
<polygon fill="midnightblue" stroke="midnightblue" points="1082.09,-214.484 1091.68,-209.969 1081.37,-207.521 1082.09,-214.484"/>
</g>
<!-- Node33 -->
<g id="node33" class="node"><title>Node33</title>
<g id="a_node33"><a xlink:href="../../d5/d30/classengine_1_1render_1_1_rendered_node_factory.html#a4e1f4508b1c12b958bd3c88a35a4e872" target="_top" xlink:title="engine.render.RenderedNode\lFactory.createLabel">
<polygon fill="white" stroke="black" points="1101,-137 1101,-167 1257,-167 1257,-137 1101,-137"/>
<text text-anchor="start" x="1109" y="-155" font-family="Helvetica,sans-Serif" font-size="10.00">engine.render.RenderedNode</text>
<text text-anchor="middle" x="1179" y="-144" font-family="Helvetica,sans-Serif" font-size="10.00">Factory.createLabel</text>
</a>
</g>
</g>
<!-- Node25&#45;&gt;Node33 -->
<g id="edge35" class="edge"><title>Node25&#45;&gt;Node33</title>
<path fill="none" stroke="midnightblue" d="M1015.41,-209.924C1024.52,-207.074 1033.6,-203.778 1042,-200 1059.54,-192.112 1060.38,-183.696 1078,-176 1082.74,-173.932 1087.68,-172.024 1092.72,-170.268"/>
<polygon fill="midnightblue" stroke="midnightblue" points="1094.09,-173.502 1102.52,-167.073 1091.92,-166.847 1094.09,-173.502"/>
</g>
<!-- Node35 -->
<g id="node35" class="node"><title>Node35</title>
<g id="a_node35"><a xlink:href="../../d0/d7f/classengine_1_1game_object_1_1_game_object.html#a606c7293c2bfac0af1fb42143bf527f6" target="_top" xlink:title="engine.gameObject.GameObject.getX">
<polygon fill="white" stroke="black" points="1080,-98.5 1080,-117.5 1278,-117.5 1278,-98.5 1080,-98.5"/>
<text text-anchor="middle" x="1179" y="-105.5" font-family="Helvetica,sans-Serif" font-size="10.00">engine.gameObject.GameObject.getX</text>
</a>
</g>
</g>
<!-- Node25&#45;&gt;Node35 -->
<g id="edge39" class="edge"><title>Node25&#45;&gt;Node35</title>
<path fill="none" stroke="midnightblue" d="M1024.01,-211.079C1030.47,-208.072 1036.58,-204.424 1042,-200 1070.02,-177.113 1049.21,-148.899 1078,-127 1080.23,-125.303 1082.57,-123.744 1084.99,-122.312"/>
<polygon fill="midnightblue" stroke="midnightblue" points="1086.79,-125.325 1094.1,-117.661 1083.61,-119.09 1086.79,-125.325"/>
</g>
<!-- Node36 -->
<g id="node36" class="node"><title>Node36</title>
<g id="a_node36"><a xlink:href="../../d0/d7f/classengine_1_1game_object_1_1_game_object.html#a1988806ef560c9384f3844d0666a9450" target="_top" xlink:title="engine.gameObject.GameObject.getY">
<polygon fill="white" stroke="black" points="1080.5,-420.5 1080.5,-439.5 1277.5,-439.5 1277.5,-420.5 1080.5,-420.5"/>
<text text-anchor="middle" x="1179" y="-427.5" font-family="Helvetica,sans-Serif" font-size="10.00">engine.gameObject.GameObject.getY</text>
</a>
</g>
</g>
<!-- Node25&#45;&gt;Node36 -->
<g id="edge40" class="edge"><title>Node25&#45;&gt;Node36</title>
<path fill="none" stroke="midnightblue" d="M1024.27,-236.3C1030.84,-239.593 1036.9,-243.754 1042,-249 1093.4,-301.899 1025.05,-359.659 1078,-411 1079.31,-412.269 1080.67,-413.466 1082.09,-414.595"/>
<polygon fill="midnightblue" stroke="midnightblue" points="1080.44,-417.702 1090.7,-420.35 1084.33,-411.883 1080.44,-417.702"/>
</g>
<!-- Node37 -->
<g id="node37" class="node"><title>Node37</title>
<g id="a_node37"><a xlink:href="../../d0/d7f/classengine_1_1game_object_1_1_game_object.html#ae94fe532960bd29f64c2dc19ec0af798" target="_top" xlink:title="engine.gameObject.GameObject.getID">
<polygon fill="white" stroke="black" points="1078,-382.5 1078,-401.5 1280,-401.5 1280,-382.5 1078,-382.5"/>
<text text-anchor="middle" x="1179" y="-389.5" font-family="Helvetica,sans-Serif" font-size="10.00">engine.gameObject.GameObject.getID</text>
</a>
</g>
</g>
<!-- Node25&#45;&gt;Node37 -->
<g id="edge41" class="edge"><title>Node25&#45;&gt;Node37</title>
<path fill="none" stroke="midnightblue" d="M1024.38,-236.882C1030.84,-240.066 1036.85,-244.043 1042,-249 1083.02,-288.519 1036,-333.52 1078,-372 1080,-373.832 1082.12,-375.515 1084.33,-377.063"/>
<polygon fill="midnightblue" stroke="midnightblue" points="1082.92,-380.297 1093.31,-382.379 1086.49,-374.273 1082.92,-380.297"/>
</g>
<!-- Node29 -->
<g id="node29" class="node"><title>Node29</title>
<g id="a_node29"><a xlink:href="../../d0/d7f/classengine_1_1game_object_1_1_game_object.html#a60c5b6933aac9969491a3562a963c043" target="_top" xlink:title="engine.gameObject.GameObject.get\lPhysicsBody">
<polygon fill="white" stroke="black" points="1316,-196 1316,-226 1508,-226 1508,-196 1316,-196"/>
<text text-anchor="start" x="1324" y="-214" font-family="Helvetica,sans-Serif" font-size="10.00">engine.gameObject.GameObject.get</text>
<text text-anchor="middle" x="1412" y="-203" font-family="Helvetica,sans-Serif" font-size="10.00">PhysicsBody</text>
</a>
</g>
</g>
<!-- Node28&#45;&gt;Node29 -->
<g id="edge31" class="edge"><title>Node28&#45;&gt;Node29</title>
<path fill="none" stroke="midnightblue" d="M1257.24,-236.959C1274.73,-234.007 1293.53,-230.833 1311.78,-227.751"/>
<polygon fill="midnightblue" stroke="midnightblue" points="1312.57,-231.167 1321.85,-226.051 1311.41,-224.265 1312.57,-231.167"/>
</g>
<!-- Node30 -->
<g id="node30" class="node"><title>Node30</title>
<g id="a_node30"><a xlink:href="../../d9/d9d/classengine_1_1game_object_1_1components_1_1_physics_body.html#aba2ed3bce8ee8e404907c88b144626fc" target="_top" xlink:title="engine.gameObject.components.\lPhysicsBody.getCollisionBodyHeight">
<polygon fill="white" stroke="black" points="1318,-294 1318,-324 1506,-324 1506,-294 1318,-294"/>
<text text-anchor="start" x="1326" y="-312" font-family="Helvetica,sans-Serif" font-size="10.00">engine.gameObject.components.</text>
<text text-anchor="middle" x="1412" y="-301" font-family="Helvetica,sans-Serif" font-size="10.00">PhysicsBody.getCollisionBodyHeight</text>
</a>
</g>
</g>
<!-- Node28&#45;&gt;Node30 -->
<g id="edge32" class="edge"><title>Node28&#45;&gt;Node30</title>
<path fill="none" stroke="midnightblue" d="M1244.1,-265.028C1256.05,-267.931 1268.42,-271.003 1280,-274 1296.08,-278.161 1299.97,-279.665 1316,-284 1324.89,-286.403 1334.25,-288.905 1343.49,-291.356"/>
<polygon fill="midnightblue" stroke="midnightblue" points="1342.88,-294.815 1353.45,-293.989 1344.67,-288.048 1342.88,-294.815"/>
</g>
<!-- Node31 -->
<g id="node31" class="node"><title>Node31</title>
<g id="a_node31"><a xlink:href="../../d9/d9d/classengine_1_1game_object_1_1components_1_1_physics_body.html#ae64e43632570392c3118b3d00af853fc" target="_top" xlink:title="engine.gameObject.components.\lPhysicsBody.getCollisionBodyWidth">
<polygon fill="white" stroke="black" points="1321,-245 1321,-275 1503,-275 1503,-245 1321,-245"/>
<text text-anchor="start" x="1329" y="-263" font-family="Helvetica,sans-Serif" font-size="10.00">engine.gameObject.components.</text>
<text text-anchor="middle" x="1412" y="-252" font-family="Helvetica,sans-Serif" font-size="10.00">PhysicsBody.getCollisionBodyWidth</text>
</a>
</g>
</g>
<!-- Node28&#45;&gt;Node31 -->
<g id="edge33" class="edge"><title>Node28&#45;&gt;Node31</title>
<path fill="none" stroke="midnightblue" d="M1257.24,-253.344C1274.24,-254.079 1292.48,-254.869 1310.24,-255.638"/>
<polygon fill="midnightblue" stroke="midnightblue" points="1310.49,-259.152 1320.64,-256.088 1310.8,-252.159 1310.49,-259.152"/>
</g>
<!-- Node33&#45;&gt;Node19 -->
<g id="edge37" class="edge"><title>Node33&#45;&gt;Node19</title>
<path fill="none" stroke="midnightblue" d="M1257.24,-138.959C1274.73,-136.007 1293.53,-132.833 1311.78,-129.751"/>
<polygon fill="midnightblue" stroke="midnightblue" points="1312.57,-133.167 1321.85,-128.051 1311.41,-126.265 1312.57,-133.167"/>
</g>
<!-- Node33&#45;&gt;Node20 -->
<g id="edge38" class="edge"><title>Node33&#45;&gt;Node20</title>
<path fill="none" stroke="midnightblue" d="M1257.18,-137.607C1265.15,-134.695 1272.92,-131.198 1280,-127 1300.29,-114.97 1295.72,-100.055 1316,-88 1318.85,-86.3047 1321.82,-84.7285 1324.87,-83.2629"/>
<polygon fill="midnightblue" stroke="midnightblue" points="1326.46,-86.388 1334.23,-79.1901 1323.67,-79.9687 1326.46,-86.388"/>
</g>
<!-- Node34 -->
<g id="node34" class="node"><title>Node34</title>
<g id="a_node34"><a xlink:href="../../d0/d7f/classengine_1_1game_object_1_1_game_object.html#a5c379828f3bb19a91935f965c48a91a5" target="_top" xlink:title="engine.gameObject.GameObject.get\lLabel">
<polygon fill="white" stroke="black" points="1316,-147 1316,-177 1508,-177 1508,-147 1316,-147"/>
<text text-anchor="start" x="1324" y="-165" font-family="Helvetica,sans-Serif" font-size="10.00">engine.gameObject.GameObject.get</text>
<text text-anchor="middle" x="1412" y="-154" font-family="Helvetica,sans-Serif" font-size="10.00">Label</text>
</a>
</g>
</g>
<!-- Node33&#45;&gt;Node34 -->
<g id="edge36" class="edge"><title>Node33&#45;&gt;Node34</title>
<path fill="none" stroke="midnightblue" d="M1257.24,-155.344C1272.77,-156.016 1289.35,-156.734 1305.65,-157.439"/>
<polygon fill="midnightblue" stroke="midnightblue" points="1305.61,-160.941 1315.75,-157.877 1305.91,-153.947 1305.61,-160.941"/>
</g>
</g>
</svg>
