<?xml version="1.0" encoding="UTF-8" standalone="no"?>
<!DOCTYPE svg PUBLIC "-//W3C//DTD SVG 1.1//EN"
 "http://www.w3.org/Graphics/SVG/1.1/DTD/svg11.dtd">
<!-- Generated by graphviz version 2.36.0 (20140111.2315)
 -->
<!-- Title: engine.level.LevelManager.LevelManager Pages: 1 -->
<svg width="1698pt" height="537pt"
 viewBox="0.00 0.00 1698.00 537.33" xmlns="http://www.w3.org/2000/svg" xmlns:xlink="http://www.w3.org/1999/xlink">
<g id="graph0" class="graph" transform="scale(1 1) rotate(0) translate(4 533.332)">
<title>engine.level.LevelManager.LevelManager</title>
<polygon fill="white" stroke="none" points="-4,4 -4,-533.332 1694,-533.332 1694,4 -4,4"/>
<!-- Node1 -->
<g id="node1" class="node"><title>Node1</title>
<polygon fill="#bfbfbf" stroke="black" points="0,-98.3322 0,-128.332 146,-128.332 146,-98.3322 0,-98.3322"/>
<text text-anchor="start" x="8" y="-116.332" font-family="Helvetica,sans-Serif" font-size="10.00">engine.level.LevelManager.</text>
<text text-anchor="middle" x="73" y="-105.332" font-family="Helvetica,sans-Serif" font-size="10.00">LevelManager</text>
</g>
<!-- Node2 -->
<g id="node2" class="node"><title>Node2</title>
<g id="a_node2"><a xlink:href="../../df/d67/classengine_1_1level_1_1_level_manager.html#a1d0f314bbf304bf86067ab87b832d2e0" target="_top" xlink:title="engine.level.LevelManager.find\lAndSetStartLevel">
<polygon fill="white" stroke="black" points="182.5,-127.332 182.5,-157.332 345.5,-157.332 345.5,-127.332 182.5,-127.332"/>
<text text-anchor="start" x="190.5" y="-145.332" font-family="Helvetica,sans-Serif" font-size="10.00">engine.level.LevelManager.find</text>
<text text-anchor="middle" x="264" y="-134.332" font-family="Helvetica,sans-Serif" font-size="10.00">AndSetStartLevel</text>
</a>
</g>
</g>
<!-- Node1&#45;&gt;Node2 -->
<g id="edge1" class="edge"><title>Node1&#45;&gt;Node2</title>
<path fill="none" stroke="midnightblue" d="M146.262,-124.42C154.726,-125.719 163.442,-127.056 172.117,-128.387"/>
<polygon fill="midnightblue" stroke="midnightblue" points="171.85,-131.887 182.265,-129.944 172.912,-124.968 171.85,-131.887"/>
</g>
<!-- Node40 -->
<g id="node40" class="node"><title>Node40</title>
<g id="a_node40"><a xlink:href="../../df/d67/classengine_1_1level_1_1_level_manager.html#aca50c1f83f99f83e6c01bed0c27a688a" target="_top" xlink:title="engine.level.LevelManager.make\lTemplates">
<polygon fill="white" stroke="black" points="387.5,-45.3322 387.5,-75.3322 560.5,-75.3322 560.5,-45.3322 387.5,-45.3322"/>
<text text-anchor="start" x="395.5" y="-63.3322" font-family="Helvetica,sans-Serif" font-size="10.00">engine.level.LevelManager.make</text>
<text text-anchor="middle" x="474" y="-52.3322" font-family="Helvetica,sans-Serif" font-size="10.00">Templates</text>
</a>
</g>
</g>
<!-- Node1&#45;&gt;Node40 -->
<g id="edge45" class="edge"><title>Node1&#45;&gt;Node40</title>
<path fill="none" stroke="midnightblue" d="M146.256,-103.734C210.898,-95.1478 306.129,-82.4981 377.124,-73.0676"/>
<polygon fill="midnightblue" stroke="midnightblue" points="377.964,-76.4869 387.416,-71.7005 377.042,-69.5478 377.964,-76.4869"/>
</g>
<!-- Node3 -->
<g id="node3" class="node"><title>Node3</title>
<g id="a_node3"><a xlink:href="../../df/d67/classengine_1_1level_1_1_level_manager.html#a523599892453015eed0f1b506979af8a" target="_top" xlink:title="engine.level.LevelManager.initialize\lCurrentLevel">
<polygon fill="white" stroke="black" points="382,-140.332 382,-170.332 566,-170.332 566,-140.332 382,-140.332"/>
<text text-anchor="start" x="390" y="-158.332" font-family="Helvetica,sans-Serif" font-size="10.00">engine.level.LevelManager.initialize</text>
<text text-anchor="middle" x="474" y="-147.332" font-family="Helvetica,sans-Serif" font-size="10.00">CurrentLevel</text>
</a>
</g>
</g>
<!-- Node2&#45;&gt;Node3 -->
<g id="edge2" class="edge"><title>Node2&#45;&gt;Node3</title>
<path fill="none" stroke="midnightblue" d="M345.716,-147.377C354.252,-147.91 363.009,-148.458 371.739,-149.003"/>
<polygon fill="midnightblue" stroke="midnightblue" points="371.763,-152.512 381.962,-149.642 372.2,-145.525 371.763,-152.512"/>
</g>
<!-- Node4 -->
<g id="node4" class="node"><title>Node4</title>
<g id="a_node4"><a xlink:href="../../df/d67/classengine_1_1level_1_1_level_manager.html#af00a1d61217dd801bb7a8b16ad829cf0" target="_top" xlink:title="engine.level.LevelManager.disable\lAllConditions">
<polygon fill="white" stroke="black" points="602.5,-118.332 602.5,-148.332 781.5,-148.332 781.5,-118.332 602.5,-118.332"/>
<text text-anchor="start" x="610.5" y="-136.332" font-family="Helvetica,sans-Serif" font-size="10.00">engine.level.LevelManager.disable</text>
<text text-anchor="middle" x="692" y="-125.332" font-family="Helvetica,sans-Serif" font-size="10.00">AllConditions</text>
</a>
</g>
</g>
<!-- Node3&#45;&gt;Node4 -->
<g id="edge3" class="edge"><title>Node3&#45;&gt;Node4</title>
<path fill="none" stroke="midnightblue" d="M566.29,-146.034C574.897,-145.157 583.649,-144.266 592.32,-143.383"/>
<polygon fill="midnightblue" stroke="midnightblue" points="592.854,-146.847 602.448,-142.351 592.145,-139.883 592.854,-146.847"/>
</g>
<!-- Node5 -->
<g id="node5" class="node"><title>Node5</title>
<g id="a_node5"><a xlink:href="../../df/d67/classengine_1_1level_1_1_level_manager.html#a5d79217e53b1e3804476ba6b366ad066" target="_top" xlink:title="engine.level.LevelManager.set\lLevelEnabledConditions">
<polygon fill="white" stroke="black" points="611.5,-397.332 611.5,-427.332 772.5,-427.332 772.5,-397.332 611.5,-397.332"/>
<text text-anchor="start" x="619.5" y="-415.332" font-family="Helvetica,sans-Serif" font-size="10.00">engine.level.LevelManager.set</text>
<text text-anchor="middle" x="692" y="-404.332" font-family="Helvetica,sans-Serif" font-size="10.00">LevelEnabledConditions</text>
</a>
</g>
</g>
<!-- Node3&#45;&gt;Node5 -->
<g id="edge4" class="edge"><title>Node3&#45;&gt;Node5</title>
<path fill="none" stroke="midnightblue" d="M487.865,-170.639C524.257,-213.938 628.102,-337.495 671.533,-389.17"/>
<polygon fill="midnightblue" stroke="midnightblue" points="669.089,-391.702 678.202,-397.106 674.448,-387.198 669.089,-391.702"/>
</g>
<!-- Node8 -->
<g id="node8" class="node"><title>Node8</title>
<g id="a_node8"><a xlink:href="../../da/d90/classengine_1_1sound_1_1_sound_utility.html#a53a82805b12b2b8f68b8396b9795d092" target="_top" xlink:title="engine.sound.SoundUtility.stop\lBackGroundMusic">
<polygon fill="white" stroke="black" points="610,-69.3322 610,-99.3322 774,-99.3322 774,-69.3322 610,-69.3322"/>
<text text-anchor="start" x="618" y="-87.3322" font-family="Helvetica,sans-Serif" font-size="10.00">engine.sound.SoundUtility.stop</text>
<text text-anchor="middle" x="692" y="-76.3322" font-family="Helvetica,sans-Serif" font-size="10.00">BackGroundMusic</text>
</a>
</g>
</g>
<!-- Node3&#45;&gt;Node8 -->
<g id="edge7" class="edge"><title>Node3&#45;&gt;Node8</title>
<path fill="none" stroke="midnightblue" d="M513.032,-140.225C538.1,-130.524 571.764,-117.982 602,-108.332 608.453,-106.273 615.206,-104.238 621.982,-102.277"/>
<polygon fill="midnightblue" stroke="midnightblue" points="623.232,-105.56 631.895,-99.4604 621.319,-98.8265 623.232,-105.56"/>
</g>
<!-- Node9 -->
<g id="node9" class="node"><title>Node9</title>
<g id="a_node9"><a xlink:href="../../da/d90/classengine_1_1sound_1_1_sound_utility.html#ab8cd26d71aa7b20d07350105a4254c92" target="_top" xlink:title="engine.sound.SoundUtility.play\lBackGroundMusic">
<polygon fill="white" stroke="black" points="610.5,-20.3322 610.5,-50.3322 773.5,-50.3322 773.5,-20.3322 610.5,-20.3322"/>
<text text-anchor="start" x="618.5" y="-38.3322" font-family="Helvetica,sans-Serif" font-size="10.00">engine.sound.SoundUtility.play</text>
<text text-anchor="middle" x="692" y="-27.3322" font-family="Helvetica,sans-Serif" font-size="10.00">BackGroundMusic</text>
</a>
</g>
</g>
<!-- Node3&#45;&gt;Node9 -->
<g id="edge8" class="edge"><title>Node3&#45;&gt;Node9</title>
<path fill="none" stroke="midnightblue" d="M494.134,-140.227C526.638,-114.664 590.271,-65.0752 602,-59.3322 605.988,-57.3792 610.158,-55.5677 614.423,-53.8898"/>
<polygon fill="midnightblue" stroke="midnightblue" points="615.69,-57.1529 623.877,-50.4272 613.283,-50.5799 615.69,-57.1529"/>
</g>
<!-- Node10 -->
<g id="node10" class="node"><title>Node10</title>
<g id="a_node10"><a xlink:href="../../df/d84/classengine_1_1level_1_1_level.html#a368275ed98c802fbf59a11423b9b9a0d" target="_top" xlink:title="engine.level.Level.getBackground\lMusic">
<polygon fill="white" stroke="black" points="603.5,-255.332 603.5,-285.332 780.5,-285.332 780.5,-255.332 603.5,-255.332"/>
<text text-anchor="start" x="611.5" y="-273.332" font-family="Helvetica,sans-Serif" font-size="10.00">engine.level.Level.getBackground</text>
<text text-anchor="middle" x="692" y="-262.332" font-family="Helvetica,sans-Serif" font-size="10.00">Music</text>
</a>
</g>
</g>
<!-- Node3&#45;&gt;Node10 -->
<g id="edge9" class="edge"><title>Node3&#45;&gt;Node10</title>
<path fill="none" stroke="midnightblue" d="M492.278,-170.545C515.643,-190.388 559.318,-224.968 602,-245.332 606.979,-247.708 612.226,-249.896 617.579,-251.905"/>
<polygon fill="midnightblue" stroke="midnightblue" points="616.698,-255.306 627.293,-255.328 619.025,-248.704 616.698,-255.306"/>
</g>
<!-- Node11 -->
<g id="node11" class="node"><title>Node11</title>
<g id="a_node11"><a xlink:href="../../df/d84/classengine_1_1level_1_1_level.html#ace23cd4ed278a5bb85e964ff3c8818b5" target="_top" xlink:title="engine.level.Level.initialize">
<polygon fill="white" stroke="black" points="620.5,-167.832 620.5,-186.832 763.5,-186.832 763.5,-167.832 620.5,-167.832"/>
<text text-anchor="middle" x="692" y="-174.832" font-family="Helvetica,sans-Serif" font-size="10.00">engine.level.Level.initialize</text>
</a>
</g>
</g>
<!-- Node3&#45;&gt;Node11 -->
<g id="edge10" class="edge"><title>Node3&#45;&gt;Node11</title>
<path fill="none" stroke="midnightblue" d="M566.29,-164.63C580.837,-166.112 595.797,-167.636 610.082,-169.091"/>
<polygon fill="midnightblue" stroke="midnightblue" points="610.046,-172.605 620.349,-170.136 610.755,-165.641 610.046,-172.605"/>
</g>
<!-- Node16 -->
<g id="node16" class="node"><title>Node16</title>
<g id="a_node16"><a xlink:href="../../dd/d8d/classengine_1_1render_1_1_renderer.html#a189dda9a8463274afe267959860f0dee" target="_top" xlink:title="engine.render.Renderer.render\lGameObjects">
<polygon fill="white" stroke="black" points="611,-206.332 611,-236.332 773,-236.332 773,-206.332 611,-206.332"/>
<text text-anchor="start" x="619" y="-224.332" font-family="Helvetica,sans-Serif" font-size="10.00">engine.render.Renderer.render</text>
<text text-anchor="middle" x="692" y="-213.332" font-family="Helvetica,sans-Serif" font-size="10.00">GameObjects</text>
</a>
</g>
</g>
<!-- Node3&#45;&gt;Node16 -->
<g id="edge15" class="edge"><title>Node3&#45;&gt;Node16</title>
<path fill="none" stroke="midnightblue" d="M520.127,-170.367C544.333,-178.313 574.717,-188.1 602,-196.332 609.951,-198.731 618.325,-201.182 626.625,-203.566"/>
<polygon fill="midnightblue" stroke="midnightblue" points="625.729,-206.95 636.305,-206.326 627.648,-200.218 625.729,-206.95"/>
</g>
<!-- Node6 -->
<g id="node6" class="node"><title>Node6</title>
<g id="a_node6"><a xlink:href="../../df/d84/classengine_1_1level_1_1_level.html#a264b568258eafa3d2c664c94e7498621" target="_top" xlink:title="engine.level.Level.getCondition\lIdentifiers">
<polygon fill="white" stroke="black" points="824.5,-397.332 824.5,-427.332 989.5,-427.332 989.5,-397.332 824.5,-397.332"/>
<text text-anchor="start" x="832.5" y="-415.332" font-family="Helvetica,sans-Serif" font-size="10.00">engine.level.Level.getCondition</text>
<text text-anchor="middle" x="907" y="-404.332" font-family="Helvetica,sans-Serif" font-size="10.00">Identifiers</text>
</a>
</g>
</g>
<!-- Node5&#45;&gt;Node6 -->
<g id="edge5" class="edge"><title>Node5&#45;&gt;Node6</title>
<path fill="none" stroke="midnightblue" d="M772.616,-412.332C786.213,-412.332 800.436,-412.332 814.316,-412.332"/>
<polygon fill="midnightblue" stroke="midnightblue" points="814.349,-415.832 824.349,-412.332 814.349,-408.832 814.349,-415.832"/>
</g>
<!-- Node7 -->
<g id="node7" class="node"><title>Node7</title>
<g id="a_node7"><a xlink:href="../../df/d67/classengine_1_1level_1_1_level_manager.html#a766cb6198dd991f0bdf6386dace3a65b" target="_top" xlink:title="engine.level.LevelManager.enable\lCondition">
<polygon fill="white" stroke="black" points="818,-446.332 818,-476.332 996,-476.332 996,-446.332 818,-446.332"/>
<text text-anchor="start" x="826" y="-464.332" font-family="Helvetica,sans-Serif" font-size="10.00">engine.level.LevelManager.enable</text>
<text text-anchor="middle" x="907" y="-453.332" font-family="Helvetica,sans-Serif" font-size="10.00">Condition</text>
</a>
</g>
</g>
<!-- Node5&#45;&gt;Node7 -->
<g id="edge6" class="edge"><title>Node5&#45;&gt;Node7</title>
<path fill="none" stroke="midnightblue" d="M758.355,-427.367C781.253,-432.635 807.151,-438.592 830.791,-444.031"/>
<polygon fill="midnightblue" stroke="midnightblue" points="830.239,-447.495 840.769,-446.326 831.808,-440.673 830.239,-447.495"/>
</g>
<!-- Node12 -->
<g id="node12" class="node"><title>Node12</title>
<g id="a_node12"><a xlink:href="../../d4/d3b/classauthoring_1_1model_1_1collections_1_1_general_collection.html#a1bdc1047736bbb23259d6a7fe4c6deeb" target="_top" xlink:title="authoring.model.collections.\lGeneralCollection.add">
<polygon fill="white" stroke="black" points="831,-0.332184 831,-30.3322 983,-30.3322 983,-0.332184 831,-0.332184"/>
<text text-anchor="start" x="839" y="-18.3322" font-family="Helvetica,sans-Serif" font-size="10.00">authoring.model.collections.</text>
<text text-anchor="middle" x="907" y="-7.33218" font-family="Helvetica,sans-Serif" font-size="10.00">GeneralCollection.add</text>
</a>
</g>
</g>
<!-- Node11&#45;&gt;Node12 -->
<g id="edge11" class="edge"><title>Node11&#45;&gt;Node12</title>
<path fill="none" stroke="midnightblue" d="M763.714,-168.45C770.351,-165.619 776.601,-161.984 782,-157.332 815.576,-128.399 788.907,-97.7694 818,-64.3322 828.546,-52.2119 842.856,-42.4801 856.871,-34.9834"/>
<polygon fill="midnightblue" stroke="midnightblue" points="858.646,-38.0082 865.996,-30.3772 855.491,-31.7593 858.646,-38.0082"/>
</g>
<!-- Node13 -->
<g id="node13" class="node"><title>Node13</title>
<g id="a_node13"><a xlink:href="../../d0/d7f/classengine_1_1game_object_1_1_game_object.html#accd456b2eaab9c7056de825a28b066c8" target="_top" xlink:title="engine.gameObject.GameObject.get\lIdentifier">
<polygon fill="white" stroke="black" points="1032,-152.332 1032,-182.332 1224,-182.332 1224,-152.332 1032,-152.332"/>
<text text-anchor="start" x="1040" y="-170.332" font-family="Helvetica,sans-Serif" font-size="10.00">engine.gameObject.GameObject.get</text>
<text text-anchor="middle" x="1128" y="-159.332" font-family="Helvetica,sans-Serif" font-size="10.00">Identifier</text>
</a>
</g>
</g>
<!-- Node11&#45;&gt;Node13 -->
<g id="edge12" class="edge"><title>Node11&#45;&gt;Node13</title>
<path fill="none" stroke="midnightblue" d="M735.985,-167.796C765.614,-161.403 802.363,-153.881 818,-152.332 896.726,-144.537 917.017,-147.825 996,-152.332 1004.38,-152.81 1013.04,-153.459 1021.74,-154.22"/>
<polygon fill="midnightblue" stroke="midnightblue" points="1021.67,-157.728 1031.95,-155.161 1022.31,-150.758 1021.67,-157.728"/>
</g>
<!-- Node14 -->
<g id="node14" class="node"><title>Node14</title>
<g id="a_node14"><a xlink:href="../../d4/dac/classengine_1_1game_object_1_1_identifier.html#aa2630b5024b9595e43afe0bf53229433" target="_top" xlink:title="engine.gameObject.Identifier.get\lUniqueId">
<polygon fill="white" stroke="black" points="820.5,-162.332 820.5,-192.332 993.5,-192.332 993.5,-162.332 820.5,-162.332"/>
<text text-anchor="start" x="828.5" y="-180.332" font-family="Helvetica,sans-Serif" font-size="10.00">engine.gameObject.Identifier.get</text>
<text text-anchor="middle" x="907" y="-169.332" font-family="Helvetica,sans-Serif" font-size="10.00">UniqueId</text>
</a>
</g>
</g>
<!-- Node11&#45;&gt;Node14 -->
<g id="edge13" class="edge"><title>Node11&#45;&gt;Node14</title>
<path fill="none" stroke="midnightblue" d="M763.63,-177.332C778.531,-177.332 794.492,-177.332 810.144,-177.332"/>
<polygon fill="midnightblue" stroke="midnightblue" points="810.371,-180.832 820.371,-177.332 810.37,-173.832 810.371,-180.832"/>
</g>
<!-- Node15 -->
<g id="node15" class="node"><title>Node15</title>
<g id="a_node15"><a xlink:href="../../df/d67/classengine_1_1level_1_1_level_manager.html#a6e15411e375d875fa72058d499bec766" target="_top" xlink:title="engine.level.LevelManager.object\lForIdentifier">
<polygon fill="white" stroke="black" points="819.5,-74.3322 819.5,-104.332 994.5,-104.332 994.5,-74.3322 819.5,-74.3322"/>
<text text-anchor="start" x="827.5" y="-92.3322" font-family="Helvetica,sans-Serif" font-size="10.00">engine.level.LevelManager.object</text>
<text text-anchor="middle" x="907" y="-81.3322" font-family="Helvetica,sans-Serif" font-size="10.00">ForIdentifier</text>
</a>
</g>
</g>
<!-- Node11&#45;&gt;Node15 -->
<g id="edge14" class="edge"><title>Node11&#45;&gt;Node15</title>
<path fill="none" stroke="midnightblue" d="M756.968,-167.807C765.693,-165.135 774.289,-161.714 782,-157.332 802.227,-145.839 798.42,-131.896 818,-119.332 824.591,-115.103 831.844,-111.4 839.272,-108.174"/>
<polygon fill="midnightblue" stroke="midnightblue" points="840.783,-111.339 848.738,-104.341 838.155,-104.85 840.783,-111.339"/>
</g>
<!-- Node16&#45;&gt;Node13 -->
<g id="edge24" class="edge"><title>Node16&#45;&gt;Node13</title>
<path fill="none" stroke="midnightblue" d="M773.267,-220.505C834.643,-218.795 921.159,-214.058 996,-201.332 1012.37,-198.548 1015.95,-195.588 1032,-191.332 1040.04,-189.201 1048.47,-187.009 1056.85,-184.857"/>
<polygon fill="midnightblue" stroke="midnightblue" points="1057.82,-188.222 1066.64,-182.355 1056.08,-181.44 1057.82,-188.222"/>
</g>
<!-- Node16&#45;&gt;Node14 -->
<g id="edge25" class="edge"><title>Node16&#45;&gt;Node14</title>
<path fill="none" stroke="midnightblue" d="M765.707,-206.313C784.282,-202.476 804.388,-198.322 823.419,-194.391"/>
<polygon fill="midnightblue" stroke="midnightblue" points="824.174,-197.809 833.26,-192.358 822.758,-190.954 824.174,-197.809"/>
</g>
<!-- Node17 -->
<g id="node17" class="node"><title>Node17</title>
<g id="a_node17"><a xlink:href="../../dd/d8d/classengine_1_1render_1_1_renderer.html#a10b850c208c44a1137b099d1967c6e9b" target="_top" xlink:title="engine.render.Renderer.set\lBackGroundImage">
<polygon fill="white" stroke="black" points="834,-348.332 834,-378.332 980,-378.332 980,-348.332 834,-348.332"/>
<text text-anchor="start" x="842" y="-366.332" font-family="Helvetica,sans-Serif" font-size="10.00">engine.render.Renderer.set</text>
<text text-anchor="middle" x="907" y="-355.332" font-family="Helvetica,sans-Serif" font-size="10.00">BackGroundImage</text>
</a>
</g>
</g>
<!-- Node16&#45;&gt;Node17 -->
<g id="edge16" class="edge"><title>Node16&#45;&gt;Node17</title>
<path fill="none" stroke="midnightblue" d="M769.43,-236.436C773.946,-238.965 778.192,-241.908 782,-245.332 814.956,-274.969 785.244,-308.475 818,-338.332 820.201,-340.338 822.551,-342.185 825.018,-343.884"/>
<polygon fill="midnightblue" stroke="midnightblue" points="823.419,-347.005 833.802,-349.113 826.999,-340.99 823.419,-347.005"/>
</g>
<!-- Node23 -->
<g id="node23" class="node"><title>Node23</title>
<g id="a_node23"><a xlink:href="../../df/d84/classengine_1_1level_1_1_level.html#af2921158eda86e1f909575ee468eec5c" target="_top" xlink:title="engine.level.Level.getGame\lObjectIterator">
<polygon fill="white" stroke="black" points="832.5,-299.332 832.5,-329.332 981.5,-329.332 981.5,-299.332 832.5,-299.332"/>
<text text-anchor="start" x="840.5" y="-317.332" font-family="Helvetica,sans-Serif" font-size="10.00">engine.level.Level.getGame</text>
<text text-anchor="middle" x="907" y="-306.332" font-family="Helvetica,sans-Serif" font-size="10.00">ObjectIterator</text>
</a>
</g>
</g>
<!-- Node16&#45;&gt;Node23 -->
<g id="edge22" class="edge"><title>Node16&#45;&gt;Node23</title>
<path fill="none" stroke="midnightblue" d="M765.137,-236.523C771.051,-239.028 776.76,-241.942 782,-245.332 803.214,-259.057 796.878,-275.466 818,-289.332 821.103,-291.37 824.374,-293.243 827.755,-294.966"/>
<polygon fill="midnightblue" stroke="midnightblue" points="826.376,-298.185 836.924,-299.184 829.302,-291.825 826.376,-298.185"/>
</g>
<!-- Node25 -->
<g id="node25" class="node"><title>Node25</title>
<g id="a_node25"><a xlink:href="../../dd/d8d/classengine_1_1render_1_1_renderer.html#a569f6bb2f9c218ed015949dff459b1ee" target="_top" xlink:title="engine.render.Renderer.create\lAndAssignRenderedNode">
<polygon fill="white" stroke="black" points="826.5,-250.332 826.5,-280.332 987.5,-280.332 987.5,-250.332 826.5,-250.332"/>
<text text-anchor="start" x="834.5" y="-268.332" font-family="Helvetica,sans-Serif" font-size="10.00">engine.render.Renderer.create</text>
<text text-anchor="middle" x="907" y="-257.332" font-family="Helvetica,sans-Serif" font-size="10.00">AndAssignRenderedNode</text>
</a>
</g>
</g>
<!-- Node16&#45;&gt;Node25 -->
<g id="edge26" class="edge"><title>Node16&#45;&gt;Node25</title>
<path fill="none" stroke="midnightblue" d="M765.707,-236.351C784.282,-240.189 804.388,-244.342 823.419,-248.273"/>
<polygon fill="midnightblue" stroke="midnightblue" points="822.758,-251.711 833.26,-250.306 824.174,-244.855 822.758,-251.711"/>
</g>
<!-- Node18 -->
<g id="node18" class="node"><title>Node18</title>
<g id="a_node18"><a xlink:href="../../d5/d30/classengine_1_1render_1_1_rendered_node_factory.html#ae9ab86f88eb96945a412e561179aa070" target="_top" xlink:title="engine.render.RenderedNode\lFactory.createImageAndView">
<polygon fill="white" stroke="black" points="1283,-352.332 1283,-382.332 1439,-382.332 1439,-352.332 1283,-352.332"/>
<text text-anchor="start" x="1291" y="-370.332" font-family="Helvetica,sans-Serif" font-size="10.00">engine.render.RenderedNode</text>
<text text-anchor="middle" x="1361" y="-359.332" font-family="Helvetica,sans-Serif" font-size="10.00">Factory.createImageAndView</text>
</a>
</g>
</g>
<!-- Node17&#45;&gt;Node18 -->
<g id="edge17" class="edge"><title>Node17&#45;&gt;Node18</title>
<path fill="none" stroke="midnightblue" d="M973.3,-378.395C992.137,-382.079 1012.79,-385.49 1032,-387.332 1116.94,-395.477 1138.89,-393.557 1224,-387.332 1239.87,-386.172 1256.69,-384.259 1272.9,-382.066"/>
<polygon fill="midnightblue" stroke="midnightblue" points="1273.48,-385.519 1282.9,-380.667 1272.51,-378.586 1273.48,-385.519"/>
</g>
<!-- Node22 -->
<g id="node22" class="node"><title>Node22</title>
<g id="a_node22"><a xlink:href="../../df/d84/classengine_1_1level_1_1_level.html#a5dc36c31fcc8e0b5cbe2a942ec101fdb" target="_top" xlink:title="engine.level.Level.getBackground\lImage">
<polygon fill="white" stroke="black" points="1039.5,-348.332 1039.5,-378.332 1216.5,-378.332 1216.5,-348.332 1039.5,-348.332"/>
<text text-anchor="start" x="1047.5" y="-366.332" font-family="Helvetica,sans-Serif" font-size="10.00">engine.level.Level.getBackground</text>
<text text-anchor="middle" x="1128" y="-355.332" font-family="Helvetica,sans-Serif" font-size="10.00">Image</text>
</a>
</g>
</g>
<!-- Node17&#45;&gt;Node22 -->
<g id="edge21" class="edge"><title>Node17&#45;&gt;Node22</title>
<path fill="none" stroke="midnightblue" d="M980.012,-363.332C995.705,-363.332 1012.57,-363.332 1029.07,-363.332"/>
<polygon fill="midnightblue" stroke="midnightblue" points="1029.29,-366.832 1039.29,-363.332 1029.29,-359.832 1029.29,-366.832"/>
</g>
<!-- Node19 -->
<g id="node19" class="node"><title>Node19</title>
<g id="a_node19"><a xlink:href="../../d0/d7f/classengine_1_1game_object_1_1_game_object.html#ae8b88e1cf489e935426e2e252defbae0" target="_top" xlink:title="engine.gameObject.GameObject.get\lCurrentImageName">
<polygon fill="white" stroke="black" points="1498,-352.332 1498,-382.332 1690,-382.332 1690,-352.332 1498,-352.332"/>
<text text-anchor="start" x="1506" y="-370.332" font-family="Helvetica,sans-Serif" font-size="10.00">engine.gameObject.GameObject.get</text>
<text text-anchor="middle" x="1594" y="-359.332" font-family="Helvetica,sans-Serif" font-size="10.00">CurrentImageName</text>
</a>
</g>
</g>
<!-- Node18&#45;&gt;Node19 -->
<g id="edge18" class="edge"><title>Node18&#45;&gt;Node19</title>
<path fill="none" stroke="midnightblue" d="M1439.24,-367.332C1454.77,-367.332 1471.35,-367.332 1487.65,-367.332"/>
<polygon fill="midnightblue" stroke="midnightblue" points="1487.75,-370.832 1497.75,-367.332 1487.75,-363.832 1487.75,-370.832"/>
</g>
<!-- Node20 -->
<g id="node20" class="node"><title>Node20</title>
<g id="a_node20"><a xlink:href="../../d0/d7f/classengine_1_1game_object_1_1_game_object.html#aaeb5730a3b51fe9cb3d817ea7172cfc2" target="_top" xlink:title="engine.gameObject.GameObject.get\lHeight">
<polygon fill="white" stroke="black" points="1498,-254.332 1498,-284.332 1690,-284.332 1690,-254.332 1498,-254.332"/>
<text text-anchor="start" x="1506" y="-272.332" font-family="Helvetica,sans-Serif" font-size="10.00">engine.gameObject.GameObject.get</text>
<text text-anchor="middle" x="1594" y="-261.332" font-family="Helvetica,sans-Serif" font-size="10.00">Height</text>
</a>
</g>
</g>
<!-- Node18&#45;&gt;Node20 -->
<g id="edge19" class="edge"><title>Node18&#45;&gt;Node20</title>
<path fill="none" stroke="midnightblue" d="M1439.16,-353.923C1447.23,-350.828 1455.02,-347.019 1462,-342.332 1484.44,-327.273 1475.58,-308.419 1498,-293.332 1500.3,-291.783 1502.7,-290.334 1505.16,-288.978"/>
<polygon fill="midnightblue" stroke="midnightblue" points="1506.93,-292.012 1514.36,-284.467 1503.84,-285.726 1506.93,-292.012"/>
</g>
<!-- Node21 -->
<g id="node21" class="node"><title>Node21</title>
<g id="a_node21"><a xlink:href="../../d0/d7f/classengine_1_1game_object_1_1_game_object.html#a31aa2c854220621b49fc5575b50b9342" target="_top" xlink:title="engine.gameObject.GameObject.get\lWidth">
<polygon fill="white" stroke="black" points="1498,-303.332 1498,-333.332 1690,-333.332 1690,-303.332 1498,-303.332"/>
<text text-anchor="start" x="1506" y="-321.332" font-family="Helvetica,sans-Serif" font-size="10.00">engine.gameObject.GameObject.get</text>
<text text-anchor="middle" x="1594" y="-310.332" font-family="Helvetica,sans-Serif" font-size="10.00">Width</text>
</a>
</g>
</g>
<!-- Node18&#45;&gt;Node21 -->
<g id="edge20" class="edge"><title>Node18&#45;&gt;Node21</title>
<path fill="none" stroke="midnightblue" d="M1432.88,-352.298C1458.04,-346.959 1486.55,-340.912 1512.46,-335.416"/>
<polygon fill="midnightblue" stroke="midnightblue" points="1513.2,-338.837 1522.26,-333.338 1511.75,-331.99 1513.2,-338.837"/>
</g>
<!-- Node24 -->
<g id="node24" class="node"><title>Node24</title>
<g id="a_node24"><a xlink:href="../../d4/d3b/classauthoring_1_1model_1_1collections_1_1_general_collection.html#a79482ff667a22bb0d5b702c03261fe8d" target="_top" xlink:title="authoring.model.collections.\lGeneralCollection.iterator">
<polygon fill="white" stroke="black" points="1052,-299.332 1052,-329.332 1204,-329.332 1204,-299.332 1052,-299.332"/>
<text text-anchor="start" x="1060" y="-317.332" font-family="Helvetica,sans-Serif" font-size="10.00">authoring.model.collections.</text>
<text text-anchor="middle" x="1128" y="-306.332" font-family="Helvetica,sans-Serif" font-size="10.00">GeneralCollection.iterator</text>
</a>
</g>
</g>
<!-- Node23&#45;&gt;Node24 -->
<g id="edge23" class="edge"><title>Node23&#45;&gt;Node24</title>
<path fill="none" stroke="midnightblue" d="M981.533,-314.332C1000.79,-314.332 1021.72,-314.332 1041.54,-314.332"/>
<polygon fill="midnightblue" stroke="midnightblue" points="1041.79,-317.832 1051.79,-314.332 1041.79,-310.832 1041.79,-317.832"/>
</g>
<!-- Node25&#45;&gt;Node13 -->
<g id="edge43" class="edge"><title>Node25&#45;&gt;Node13</title>
<path fill="none" stroke="midnightblue" d="M967.007,-250.325C977.161,-246.344 987.249,-241.407 996,-235.332 1016.76,-220.924 1010.68,-204.887 1032,-191.332 1034.64,-189.652 1037.4,-188.09 1040.23,-186.637"/>
<polygon fill="midnightblue" stroke="midnightblue" points="1041.91,-189.719 1049.53,-182.358 1038.98,-183.361 1041.91,-189.719"/>
</g>
<!-- Node26 -->
<g id="node26" class="node"><title>Node26</title>
<g id="a_node26"><a xlink:href="../../d5/d30/classengine_1_1render_1_1_rendered_node_factory.html#a359dcce722371dfb49b79528930c1b05" target="_top" xlink:title="engine.render.RenderedNode\lFactory.createRenderedNode">
<polygon fill="white" stroke="black" points="1050,-201.332 1050,-231.332 1206,-231.332 1206,-201.332 1050,-201.332"/>
<text text-anchor="start" x="1058" y="-219.332" font-family="Helvetica,sans-Serif" font-size="10.00">engine.render.RenderedNode</text>
<text text-anchor="middle" x="1128" y="-208.332" font-family="Helvetica,sans-Serif" font-size="10.00">Factory.createRenderedNode</text>
</a>
</g>
</g>
<!-- Node25&#45;&gt;Node26 -->
<g id="edge27" class="edge"><title>Node25&#45;&gt;Node26</title>
<path fill="none" stroke="midnightblue" d="M975.196,-250.298C998.844,-245.006 1025.6,-239.019 1050,-233.561"/>
<polygon fill="midnightblue" stroke="midnightblue" points="1050.94,-236.937 1059.93,-231.338 1049.41,-230.106 1050.94,-236.937"/>
</g>
<!-- Node39 -->
<g id="node39" class="node"><title>Node39</title>
<g id="a_node39"><a xlink:href="../../d0/d7f/classengine_1_1game_object_1_1_game_object.html#ab09d473d8c2afe8cefb2ce2481bc66fd" target="_top" xlink:title="engine.gameObject.GameObject.set\lRenderedNode">
<polygon fill="white" stroke="black" points="1032.5,-250.332 1032.5,-280.332 1223.5,-280.332 1223.5,-250.332 1032.5,-250.332"/>
<text text-anchor="start" x="1040.5" y="-268.332" font-family="Helvetica,sans-Serif" font-size="10.00">engine.gameObject.GameObject.set</text>
<text text-anchor="middle" x="1128" y="-257.332" font-family="Helvetica,sans-Serif" font-size="10.00">RenderedNode</text>
</a>
</g>
</g>
<!-- Node25&#45;&gt;Node39 -->
<g id="edge44" class="edge"><title>Node25&#45;&gt;Node39</title>
<path fill="none" stroke="midnightblue" d="M987.684,-265.332C998.94,-265.332 1010.65,-265.332 1022.29,-265.332"/>
<polygon fill="midnightblue" stroke="midnightblue" points="1022.49,-268.832 1032.49,-265.332 1022.49,-261.832 1022.49,-268.832"/>
</g>
<!-- Node26&#45;&gt;Node18 -->
<g id="edge29" class="edge"><title>Node26&#45;&gt;Node18</title>
<path fill="none" stroke="midnightblue" d="M1206.1,-228.512C1212.62,-231.636 1218.72,-235.517 1224,-240.332 1259.52,-272.729 1224.44,-309.979 1260,-342.332 1264.14,-346.096 1268.75,-349.313 1273.67,-352.061"/>
<polygon fill="midnightblue" stroke="midnightblue" points="1272.29,-355.281 1282.81,-356.518 1275.36,-348.989 1272.29,-355.281"/>
</g>
<!-- Node27 -->
<g id="node27" class="node"><title>Node27</title>
<g id="a_node27"><a xlink:href="../../d2/d82/classengine_1_1render_1_1_rendered_node.html#a520a8c03b505d10c69e010e603cadfdd" target="_top" xlink:title="engine.render.RenderedNode.set\lImageView">
<polygon fill="white" stroke="black" points="1274,-177.332 1274,-207.332 1448,-207.332 1448,-177.332 1274,-177.332"/>
<text text-anchor="start" x="1282" y="-195.332" font-family="Helvetica,sans-Serif" font-size="10.00">engine.render.RenderedNode.set</text>
<text text-anchor="middle" x="1361" y="-184.332" font-family="Helvetica,sans-Serif" font-size="10.00">ImageView</text>
</a>
</g>
</g>
<!-- Node26&#45;&gt;Node27 -->
<g id="edge28" class="edge"><title>Node26&#45;&gt;Node27</title>
<path fill="none" stroke="midnightblue" d="M1206.24,-208.307C1224.59,-206.401 1244.38,-204.345 1263.47,-202.362"/>
<polygon fill="midnightblue" stroke="midnightblue" points="1264.09,-205.816 1273.68,-201.301 1263.37,-198.853 1264.09,-205.816"/>
</g>
<!-- Node28 -->
<g id="node28" class="node"><title>Node28</title>
<g id="a_node28"><a xlink:href="../../d2/d82/classengine_1_1render_1_1_rendered_node.html#ad73c81ad48b40faea3818c9a7bbfdcf0" target="_top" xlink:title="engine.render.RenderedNode.set\lCollisionBody">
<polygon fill="white" stroke="black" points="1274,-128.332 1274,-158.332 1448,-158.332 1448,-128.332 1274,-128.332"/>
<text text-anchor="start" x="1282" y="-146.332" font-family="Helvetica,sans-Serif" font-size="10.00">engine.render.RenderedNode.set</text>
<text text-anchor="middle" x="1361" y="-135.332" font-family="Helvetica,sans-Serif" font-size="10.00">CollisionBody</text>
</a>
</g>
</g>
<!-- Node26&#45;&gt;Node28 -->
<g id="edge30" class="edge"><title>Node26&#45;&gt;Node28</title>
<path fill="none" stroke="midnightblue" d="M1197.41,-201.256C1206.52,-198.406 1215.6,-195.11 1224,-191.332 1241.54,-183.444 1242.38,-175.029 1260,-167.332 1264.74,-165.264 1269.68,-163.356 1274.72,-161.6"/>
<polygon fill="midnightblue" stroke="midnightblue" points="1276.09,-164.834 1284.52,-158.405 1273.92,-158.179 1276.09,-164.834"/>
</g>
<!-- Node29 -->
<g id="node29" class="node"><title>Node29</title>
<g id="a_node29"><a xlink:href="../../d5/d30/classengine_1_1render_1_1_rendered_node_factory.html#ac14d2f5a3da79d92c967fe22bc82c1ed" target="_top" xlink:title="engine.render.RenderedNode\lFactory.createCollisionBody">
<polygon fill="white" stroke="black" points="1283,-425.332 1283,-455.332 1439,-455.332 1439,-425.332 1283,-425.332"/>
<text text-anchor="start" x="1291" y="-443.332" font-family="Helvetica,sans-Serif" font-size="10.00">engine.render.RenderedNode</text>
<text text-anchor="middle" x="1361" y="-432.332" font-family="Helvetica,sans-Serif" font-size="10.00">Factory.createCollisionBody</text>
</a>
</g>
</g>
<!-- Node26&#45;&gt;Node29 -->
<g id="edge31" class="edge"><title>Node26&#45;&gt;Node29</title>
<path fill="none" stroke="midnightblue" d="M1206.19,-227.714C1212.77,-230.99 1218.86,-235.125 1224,-240.332 1272.46,-289.443 1216.91,-337.453 1260,-391.332 1270.25,-404.148 1284.7,-413.852 1299.43,-421.099"/>
<polygon fill="midnightblue" stroke="midnightblue" points="1298.06,-424.32 1308.61,-425.3 1300.97,-417.955 1298.06,-424.32"/>
</g>
<!-- Node33 -->
<g id="node33" class="node"><title>Node33</title>
<g id="a_node33"><a xlink:href="../../d2/d82/classengine_1_1render_1_1_rendered_node.html#a312c663dd1144ff206ecfa1ea8c95a81" target="_top" xlink:title="engine.render.RenderedNode.set\lLabel">
<polygon fill="white" stroke="black" points="1274,-79.3322 1274,-109.332 1448,-109.332 1448,-79.3322 1274,-79.3322"/>
<text text-anchor="start" x="1282" y="-97.3322" font-family="Helvetica,sans-Serif" font-size="10.00">engine.render.RenderedNode.set</text>
<text text-anchor="middle" x="1361" y="-86.3322" font-family="Helvetica,sans-Serif" font-size="10.00">Label</text>
</a>
</g>
</g>
<!-- Node26&#45;&gt;Node33 -->
<g id="edge35" class="edge"><title>Node26&#45;&gt;Node33</title>
<path fill="none" stroke="midnightblue" d="M1206.01,-202.411C1212.47,-199.404 1218.58,-195.756 1224,-191.332 1252.02,-168.446 1231.74,-140.912 1260,-118.332 1261.62,-117.037 1263.3,-115.809 1265.03,-114.647"/>
<polygon fill="midnightblue" stroke="midnightblue" points="1267.21,-117.43 1274.06,-109.355 1263.67,-111.39 1267.21,-117.43"/>
</g>
<!-- Node34 -->
<g id="node34" class="node"><title>Node34</title>
<g id="a_node34"><a xlink:href="../../d5/d30/classengine_1_1render_1_1_rendered_node_factory.html#a4e1f4508b1c12b958bd3c88a35a4e872" target="_top" xlink:title="engine.render.RenderedNode\lFactory.createLabel">
<polygon fill="white" stroke="black" points="1283,-226.332 1283,-256.332 1439,-256.332 1439,-226.332 1283,-226.332"/>
<text text-anchor="start" x="1291" y="-244.332" font-family="Helvetica,sans-Serif" font-size="10.00">engine.render.RenderedNode</text>
<text text-anchor="middle" x="1361" y="-233.332" font-family="Helvetica,sans-Serif" font-size="10.00">Factory.createLabel</text>
</a>
</g>
</g>
<!-- Node26&#45;&gt;Node34 -->
<g id="edge36" class="edge"><title>Node26&#45;&gt;Node34</title>
<path fill="none" stroke="midnightblue" d="M1206.24,-224.692C1227.62,-227.006 1250.98,-229.533 1272.88,-231.904"/>
<polygon fill="midnightblue" stroke="midnightblue" points="1272.51,-235.384 1282.83,-232.981 1273.27,-228.425 1272.51,-235.384"/>
</g>
<!-- Node36 -->
<g id="node36" class="node"><title>Node36</title>
<g id="a_node36"><a xlink:href="../../d0/d7f/classengine_1_1game_object_1_1_game_object.html#a606c7293c2bfac0af1fb42143bf527f6" target="_top" xlink:title="engine.gameObject.GameObject.getX">
<polygon fill="white" stroke="black" points="1262,-40.8322 1262,-59.8322 1460,-59.8322 1460,-40.8322 1262,-40.8322"/>
<text text-anchor="middle" x="1361" y="-47.8322" font-family="Helvetica,sans-Serif" font-size="10.00">engine.gameObject.GameObject.getX</text>
</a>
</g>
</g>
<!-- Node26&#45;&gt;Node36 -->
<g id="edge40" class="edge"><title>Node26&#45;&gt;Node36</title>
<path fill="none" stroke="midnightblue" d="M1206.39,-203.59C1212.85,-200.347 1218.86,-196.322 1224,-191.332 1264.56,-151.953 1218.09,-107.277 1260,-69.3322 1261.52,-67.9533 1263.11,-66.6605 1264.76,-65.4488"/>
<polygon fill="midnightblue" stroke="midnightblue" points="1266.81,-68.2963 1273.45,-60.0428 1263.11,-62.3522 1266.81,-68.2963"/>
</g>
<!-- Node37 -->
<g id="node37" class="node"><title>Node37</title>
<g id="a_node37"><a xlink:href="../../d0/d7f/classengine_1_1game_object_1_1_game_object.html#a1988806ef560c9384f3844d0666a9450" target="_top" xlink:title="engine.gameObject.GameObject.getY">
<polygon fill="white" stroke="black" points="1262.5,-313.832 1262.5,-332.832 1459.5,-332.832 1459.5,-313.832 1262.5,-313.832"/>
<text text-anchor="middle" x="1361" y="-320.832" font-family="Helvetica,sans-Serif" font-size="10.00">engine.gameObject.GameObject.getY</text>
</a>
</g>
</g>
<!-- Node26&#45;&gt;Node37 -->
<g id="edge41" class="edge"><title>Node26&#45;&gt;Node37</title>
<path fill="none" stroke="midnightblue" d="M1206.22,-229.929C1212.56,-232.77 1218.6,-236.198 1224,-240.332 1249.92,-260.159 1233.5,-285.288 1260,-304.332 1262.57,-306.18 1265.27,-307.863 1268.08,-309.394"/>
<polygon fill="midnightblue" stroke="midnightblue" points="1266.79,-312.656 1277.32,-313.785 1269.79,-306.333 1266.79,-312.656"/>
</g>
<!-- Node38 -->
<g id="node38" class="node"><title>Node38</title>
<g id="a_node38"><a xlink:href="../../d0/d7f/classengine_1_1game_object_1_1_game_object.html#ae94fe532960bd29f64c2dc19ec0af798" target="_top" xlink:title="engine.gameObject.GameObject.getID">
<polygon fill="white" stroke="black" points="1260,-275.832 1260,-294.832 1462,-294.832 1462,-275.832 1260,-275.832"/>
<text text-anchor="middle" x="1361" y="-282.832" font-family="Helvetica,sans-Serif" font-size="10.00">engine.gameObject.GameObject.getID</text>
</a>
</g>
</g>
<!-- Node26&#45;&gt;Node38 -->
<g id="edge42" class="edge"><title>Node26&#45;&gt;Node38</title>
<path fill="none" stroke="midnightblue" d="M1200.26,-231.337C1208.42,-233.929 1216.49,-236.914 1224,-240.332 1241.73,-248.403 1242.07,-257.707 1260,-265.332 1267.22,-268.402 1274.93,-271.008 1282.75,-273.22"/>
<polygon fill="midnightblue" stroke="midnightblue" points="1282.13,-276.674 1292.69,-275.815 1283.9,-269.901 1282.13,-276.674"/>
</g>
<!-- Node30 -->
<g id="node30" class="node"><title>Node30</title>
<g id="a_node30"><a xlink:href="../../d0/d7f/classengine_1_1game_object_1_1_game_object.html#a60c5b6933aac9969491a3562a963c043" target="_top" xlink:title="engine.gameObject.GameObject.get\lPhysicsBody">
<polygon fill="white" stroke="black" points="1498,-401.332 1498,-431.332 1690,-431.332 1690,-401.332 1498,-401.332"/>
<text text-anchor="start" x="1506" y="-419.332" font-family="Helvetica,sans-Serif" font-size="10.00">engine.gameObject.GameObject.get</text>
<text text-anchor="middle" x="1594" y="-408.332" font-family="Helvetica,sans-Serif" font-size="10.00">PhysicsBody</text>
</a>
</g>
</g>
<!-- Node29&#45;&gt;Node30 -->
<g id="edge32" class="edge"><title>Node29&#45;&gt;Node30</title>
<path fill="none" stroke="midnightblue" d="M1439.24,-432.307C1454.77,-430.693 1471.35,-428.972 1487.65,-427.278"/>
<polygon fill="midnightblue" stroke="midnightblue" points="1488.16,-430.743 1497.75,-426.228 1487.44,-423.781 1488.16,-430.743"/>
</g>
<!-- Node31 -->
<g id="node31" class="node"><title>Node31</title>
<g id="a_node31"><a xlink:href="../../d9/d9d/classengine_1_1game_object_1_1components_1_1_physics_body.html#aba2ed3bce8ee8e404907c88b144626fc" target="_top" xlink:title="engine.gameObject.components.\lPhysicsBody.getCollisionBodyHeight">
<polygon fill="white" stroke="black" points="1500,-499.332 1500,-529.332 1688,-529.332 1688,-499.332 1500,-499.332"/>
<text text-anchor="start" x="1508" y="-517.332" font-family="Helvetica,sans-Serif" font-size="10.00">engine.gameObject.components.</text>
<text text-anchor="middle" x="1594" y="-506.332" font-family="Helvetica,sans-Serif" font-size="10.00">PhysicsBody.getCollisionBodyHeight</text>
</a>
</g>
</g>
<!-- Node29&#45;&gt;Node31 -->
<g id="edge33" class="edge"><title>Node29&#45;&gt;Node31</title>
<path fill="none" stroke="midnightblue" d="M1400.97,-455.41C1427.99,-465.61 1464.93,-479.045 1498,-489.332 1506.02,-491.826 1514.47,-494.286 1522.88,-496.631"/>
<polygon fill="midnightblue" stroke="midnightblue" points="1522.15,-500.06 1532.72,-499.328 1524,-493.309 1522.15,-500.06"/>
</g>
<!-- Node32 -->
<g id="node32" class="node"><title>Node32</title>
<g id="a_node32"><a xlink:href="../../d9/d9d/classengine_1_1game_object_1_1components_1_1_physics_body.html#ae64e43632570392c3118b3d00af853fc" target="_top" xlink:title="engine.gameObject.components.\lPhysicsBody.getCollisionBodyWidth">
<polygon fill="white" stroke="black" points="1503,-450.332 1503,-480.332 1685,-480.332 1685,-450.332 1503,-450.332"/>
<text text-anchor="start" x="1511" y="-468.332" font-family="Helvetica,sans-Serif" font-size="10.00">engine.gameObject.components.</text>
<text text-anchor="middle" x="1594" y="-457.332" font-family="Helvetica,sans-Serif" font-size="10.00">PhysicsBody.getCollisionBodyWidth</text>
</a>
</g>
</g>
<!-- Node29&#45;&gt;Node32 -->
<g id="edge34" class="edge"><title>Node29&#45;&gt;Node32</title>
<path fill="none" stroke="midnightblue" d="M1439.24,-448.692C1456.24,-450.531 1474.48,-452.505 1492.24,-454.428"/>
<polygon fill="midnightblue" stroke="midnightblue" points="1492.32,-457.956 1502.64,-455.552 1493.07,-450.997 1492.32,-457.956"/>
</g>
<!-- Node34&#45;&gt;Node20 -->
<g id="edge38" class="edge"><title>Node34&#45;&gt;Node20</title>
<path fill="none" stroke="midnightblue" d="M1439.24,-250.695C1454.77,-252.577 1471.35,-254.586 1487.65,-256.562"/>
<polygon fill="midnightblue" stroke="midnightblue" points="1487.4,-260.058 1497.75,-257.787 1488.24,-253.109 1487.4,-260.058"/>
</g>
<!-- Node34&#45;&gt;Node21 -->
<g id="edge39" class="edge"><title>Node34&#45;&gt;Node21</title>
<path fill="none" stroke="midnightblue" d="M1436.35,-256.374C1445.18,-259.19 1453.92,-262.487 1462,-266.332 1480.06,-274.928 1479.99,-284.625 1498,-293.332 1502.94,-295.722 1508.14,-297.906 1513.46,-299.898"/>
<polygon fill="midnightblue" stroke="midnightblue" points="1512.53,-303.281 1523.12,-303.28 1514.84,-296.674 1512.53,-303.281"/>
</g>
<!-- Node35 -->
<g id="node35" class="node"><title>Node35</title>
<g id="a_node35"><a xlink:href="../../d0/d7f/classengine_1_1game_object_1_1_game_object.html#a5c379828f3bb19a91935f965c48a91a5" target="_top" xlink:title="engine.gameObject.GameObject.get\lLabel">
<polygon fill="white" stroke="black" points="1498,-205.332 1498,-235.332 1690,-235.332 1690,-205.332 1498,-205.332"/>
<text text-anchor="start" x="1506" y="-223.332" font-family="Helvetica,sans-Serif" font-size="10.00">engine.gameObject.GameObject.get</text>
<text text-anchor="middle" x="1594" y="-212.332" font-family="Helvetica,sans-Serif" font-size="10.00">Label</text>
</a>
</g>
</g>
<!-- Node34&#45;&gt;Node35 -->
<g id="edge37" class="edge"><title>Node34&#45;&gt;Node35</title>
<path fill="none" stroke="midnightblue" d="M1439.24,-234.31C1454.77,-232.898 1471.35,-231.392 1487.65,-229.91"/>
<polygon fill="midnightblue" stroke="midnightblue" points="1488.11,-233.382 1497.75,-228.991 1487.47,-226.411 1488.11,-233.382"/>
</g>
<!-- Node40&#45;&gt;Node12 -->
<g id="edge46" class="edge"><title>Node40&#45;&gt;Node12</title>
<path fill="none" stroke="midnightblue" d="M504.078,-45.2436C529.229,-33.0929 566.963,-16.9809 602,-10.3322 674.95,3.51097 759.519,0.631147 820.911,-4.77327"/>
<polygon fill="midnightblue" stroke="midnightblue" points="820.664,-8.26523 830.943,-5.69688 821.306,-1.29471 820.664,-8.26523"/>
</g>
</g>
</svg>
