<?xml version="1.0" encoding="UTF-8" standalone="no"?>
<!DOCTYPE svg PUBLIC "-//W3C//DTD SVG 1.1//EN"
 "http://www.w3.org/Graphics/SVG/1.1/DTD/svg11.dtd">
<!-- Generated by graphviz version 2.36.0 (20140111.2315)
 -->
<!-- Title: engine.gameObject.GameObject.getHeight Pages: 1 -->
<!--zoomable 457 -->
<svg id="main" version="1.1" xmlns="http://www.w3.org/2000/svg" xmlns:xlink="http://www.w3.org/1999/xlink" xml:space="preserve" onload="init(evt)">
<style type="text/css"><![CDATA[
.edge:hover path { stroke: red; }
.edge:hover polygon { stroke: red; fill: red; }
]]></style>
<script type="text/javascript"><![CDATA[
var edges = document.getElementsByTagName('g');
if (edges && edges.length) {
  for (var i=0;i<edges.length;i++) {
    if (edges[i].id.substr(0,4)=='edge') {
      edges[i].setAttribute('class','edge');
    }
  }
}
]]></script>
        <defs>
                <circle id="rim" cx="0" cy="0" r="7"/>
                <circle id="rim2" cx="0" cy="0" r="3.5"/>
                <g id="zoomPlus">
                        <use xlink:href="#rim" fill="#404040">
                                <set attributeName="fill" to="#808080" begin="zoomplus.mouseover" end="zoomplus.mouseout"/>
                        </use>
                        <path d="M-4,0h8M0,-4v8" fill="none" stroke="white" stroke-width="1.5" pointer-events="none"/>
                </g>
                <g id="zoomMin">
                        <use xlink:href="#rim" fill="#404040">
                                <set attributeName="fill" to="#808080" begin="zoomminus.mouseover" end="zoomminus.mouseout"/>
                        </use>
                        <path d="M-4,0h8" fill="none" stroke="white" stroke-width="1.5" pointer-events="none"/>
                </g>
                <g id="dirArrow">
                        <path fill="none" stroke="white" stroke-width="1.5" d="M0,-3.0v7 M-2.5,-0.5L0,-3.0L2.5,-0.5"/>
                </g>
               <g id="resetDef">
                       <use xlink:href="#rim2" fill="#404040">
                               <set attributeName="fill" to="#808080" begin="reset.mouseover" end="reset.mouseout"/>
                       </use>
               </g>
        </defs>

<script type="text/javascript">
var viewWidth = 1972;
var viewHeight = 457;
var sectionId = 'dynsection-8';
</script>
<script xlink:href="../../svgpan.js"/>
<svg id="graph" class="graph">
<g id="viewport">
<title>engine.gameObject.GameObject.getHeight</title>
<polygon fill="white" stroke="none" points="-4,4 -4,-453 1968,-453 1968,4 -4,4"/>
<!-- Node1 -->
<g id="node1" class="node"><title>Node1</title>
<polygon fill="#bfbfbf" stroke="black" points="0,-115 0,-145 192,-145 192,-115 0,-115"/>
<text text-anchor="start" x="8" y="-133" font-family="Helvetica,sans-Serif" font-size="10.00">engine.gameObject.GameObject.get</text>
<text text-anchor="middle" x="96" y="-122" font-family="Helvetica,sans-Serif" font-size="10.00">Height</text>
</g>
<!-- Node2 -->
<g id="node2" class="node"><title>Node2</title>
<g id="a_node2"><a xlink:href="../../d1/d00/classauthoring_1_1view_1_1levelview_1_1_single_level_view.html#a60f24fcbffcbc0a7dca8b82adfcc3211" target="_top" xlink:title="authoring.view.levelview.\lSingleLevelView.addGameObjectToView">
<polygon fill="white" stroke="black" points="234,-247 234,-277 438,-277 438,-247 234,-247"/>
<text text-anchor="start" x="242" y="-265" font-family="Helvetica,sans-Serif" font-size="10.00">authoring.view.levelview.</text>
<text text-anchor="middle" x="336" y="-254" font-family="Helvetica,sans-Serif" font-size="10.00">SingleLevelView.addGameObjectToView</text>
</a>
</g>
</g>
<!-- Node1&#45;&gt;Node2 -->
<g id="edge1" class="edge"><title>Node1&#45;&gt;Node2</title>
<path fill="none" stroke="midnightblue" d="M122.526,-152.042C147.893,-173.064 188.6,-204.479 228,-225 244.736,-233.716 263.966,-241.099 281.467,-246.922"/>
<polygon fill="midnightblue" stroke="midnightblue" points="124.447,-149.085 114.536,-145.342 119.95,-154.449 124.447,-149.085"/>
</g>
<!-- Node6 -->
<g id="node6" class="node"><title>Node6</title>
<g id="a_node6"><a xlink:href="../../d5/d30/classengine_1_1render_1_1_rendered_node_factory.html#ae9ab86f88eb96945a412e561179aa070" target="_top" xlink:title="engine.render.RenderedNode\lFactory.createImageAndView">
<polygon fill="white" stroke="black" points="258,-137 258,-167 414,-167 414,-137 258,-137"/>
<text text-anchor="start" x="266" y="-155" font-family="Helvetica,sans-Serif" font-size="10.00">engine.render.RenderedNode</text>
<text text-anchor="middle" x="336" y="-144" font-family="Helvetica,sans-Serif" font-size="10.00">Factory.createImageAndView</text>
</a>
</g>
</g>
<!-- Node1&#45;&gt;Node6 -->
<g id="edge5" class="edge"><title>Node1&#45;&gt;Node6</title>
<path fill="none" stroke="midnightblue" d="M202.158,-139.72C220.935,-141.456 240.178,-143.235 257.983,-144.881"/>
<polygon fill="midnightblue" stroke="midnightblue" points="202.37,-136.225 192.09,-138.79 201.725,-143.196 202.37,-136.225"/>
</g>
<!-- Node12 -->
<g id="node12" class="node"><title>Node12</title>
<g id="a_node12"><a xlink:href="../../db/d61/classengine_1_1actions_1_1_make_new_object_from_object_action.html#a01ffb165d6169f7b0a22733e2b6c61a9" target="_top" xlink:title="engine.actions.MakeNewObject\lFromObjectAction.execute">
<polygon fill="white" stroke="black" points="966,-76 966,-106 1132,-106 1132,-76 966,-76"/>
<text text-anchor="start" x="974" y="-94" font-family="Helvetica,sans-Serif" font-size="10.00">engine.actions.MakeNewObject</text>
<text text-anchor="middle" x="1049" y="-83" font-family="Helvetica,sans-Serif" font-size="10.00">FromObjectAction.execute</text>
</a>
</g>
</g>
<!-- Node1&#45;&gt;Node12 -->
<g id="edge27" class="edge"><title>Node1&#45;&gt;Node12</title>
<path fill="none" stroke="midnightblue" d="M202.149,-125.688C393.126,-117.856 793.158,-101.451 965.791,-94.3713"/>
<polygon fill="midnightblue" stroke="midnightblue" points="201.949,-122.193 192.101,-126.1 202.236,-129.187 201.949,-122.193"/>
</g>
<!-- Node25 -->
<g id="node25" class="node"><title>Node25</title>
<g id="a_node25"><a xlink:href="../../d5/d30/classengine_1_1render_1_1_rendered_node_factory.html#a4e1f4508b1c12b958bd3c88a35a4e872" target="_top" xlink:title="engine.render.RenderedNode\lFactory.createLabel">
<polygon fill="white" stroke="black" points="258,-186 258,-216 414,-216 414,-186 258,-186"/>
<text text-anchor="start" x="266" y="-204" font-family="Helvetica,sans-Serif" font-size="10.00">engine.render.RenderedNode</text>
<text text-anchor="middle" x="336" y="-193" font-family="Helvetica,sans-Serif" font-size="10.00">Factory.createLabel</text>
</a>
</g>
</g>
<!-- Node1&#45;&gt;Node25 -->
<g id="edge25" class="edge"><title>Node1&#45;&gt;Node25</title>
<path fill="none" stroke="midnightblue" d="M145.626,-148.485C170.128,-157.438 200.42,-167.961 228,-176 240.088,-179.523 253.055,-182.891 265.644,-185.95"/>
<polygon fill="midnightblue" stroke="midnightblue" points="146.788,-145.183 136.194,-145.012 144.369,-151.752 146.788,-145.183"/>
</g>
<!-- Node26 -->
<g id="node26" class="node"><title>Node26</title>
<g id="a_node26"><a xlink:href="../../d0/d7f/classengine_1_1game_object_1_1_game_object.html#a69f1acfd453ec53c35c6634f557d79af" target="_top" xlink:title="engine.gameObject.GameObject.\lGameObject">
<polygon fill="white" stroke="black" points="248,-49 248,-79 424,-79 424,-49 248,-49"/>
<text text-anchor="start" x="256" y="-67" font-family="Helvetica,sans-Serif" font-size="10.00">engine.gameObject.GameObject.</text>
<text text-anchor="middle" x="336" y="-56" font-family="Helvetica,sans-Serif" font-size="10.00">GameObject</text>
</a>
</g>
</g>
<!-- Node1&#45;&gt;Node26 -->
<g id="edge28" class="edge"><title>Node1&#45;&gt;Node26</title>
<path fill="none" stroke="midnightblue" d="M161.075,-112.231C198.402,-101.88 244.966,-88.9674 280.518,-79.1084"/>
<polygon fill="midnightblue" stroke="midnightblue" points="160.005,-108.896 151.304,-114.941 161.875,-115.641 160.005,-108.896"/>
</g>
<!-- Node27 -->
<g id="node27" class="node"><title>Node27</title>
<g id="a_node27"><a xlink:href="../../da/d8d/classauthoring_1_1view_1_1propertiesview_1_1_game_object_properties.html#a296e97b9faeabc086f698730de09a5c9" target="_top" xlink:title="authoring.view.propertiesview.\lGameObjectProperties.initializeProperties">
<polygon fill="white" stroke="black" points="228.5,-0 228.5,-30 443.5,-30 443.5,-0 228.5,-0"/>
<text text-anchor="start" x="236.5" y="-18" font-family="Helvetica,sans-Serif" font-size="10.00">authoring.view.propertiesview.</text>
<text text-anchor="middle" x="336" y="-7" font-family="Helvetica,sans-Serif" font-size="10.00">GameObjectProperties.initializeProperties</text>
</a>
</g>
</g>
<!-- Node1&#45;&gt;Node27 -->
<g id="edge29" class="edge"><title>Node1&#45;&gt;Node27</title>
<path fill="none" stroke="midnightblue" d="M121.796,-108.342C146.905,-87.5322 187.682,-56.7103 228,-39 235.844,-35.5546 244.236,-32.5788 252.742,-30.0141"/>
<polygon fill="midnightblue" stroke="midnightblue" points="119.303,-105.866 113.905,-114.982 123.81,-111.222 119.303,-105.866"/>
</g>
<!-- Node3 -->
<g id="node3" class="node"><title>Node3</title>
<g id="a_node3"><a xlink:href="../../d1/d00/classauthoring_1_1view_1_1levelview_1_1_single_level_view.html#a7c75d7c9307941b2da3fb690eebe2cd1" target="_top" xlink:title="authoring.view.levelview.\lSingleLevelView.recreateLevel">
<polygon fill="white" stroke="black" points="519,-259 519,-289 679,-289 679,-259 519,-259"/>
<text text-anchor="start" x="527" y="-277" font-family="Helvetica,sans-Serif" font-size="10.00">authoring.view.levelview.</text>
<text text-anchor="middle" x="599" y="-266" font-family="Helvetica,sans-Serif" font-size="10.00">SingleLevelView.recreateLevel</text>
</a>
</g>
</g>
<!-- Node2&#45;&gt;Node3 -->
<g id="edge2" class="edge"><title>Node2&#45;&gt;Node3</title>
<path fill="none" stroke="midnightblue" d="M448.349,-267.119C471.979,-268.206 496.466,-269.332 518.619,-270.35"/>
<polygon fill="midnightblue" stroke="midnightblue" points="448.433,-263.62 438.283,-266.657 448.112,-270.612 448.433,-263.62"/>
</g>
<!-- Node4 -->
<g id="node4" class="node"><title>Node4</title>
<g id="a_node4"><a xlink:href="../../d1/d00/classauthoring_1_1view_1_1levelview_1_1_single_level_view.html#a532ba7c58ed4434fb218478ced7c9528" target="_top" xlink:title="authoring.view.levelview.\lSingleLevelView.SingleLevelView">
<polygon fill="white" stroke="black" points="754,-259 754,-289 924,-289 924,-259 754,-259"/>
<text text-anchor="start" x="762" y="-277" font-family="Helvetica,sans-Serif" font-size="10.00">authoring.view.levelview.</text>
<text text-anchor="middle" x="839" y="-266" font-family="Helvetica,sans-Serif" font-size="10.00">SingleLevelView.SingleLevelView</text>
</a>
</g>
</g>
<!-- Node3&#45;&gt;Node4 -->
<g id="edge3" class="edge"><title>Node3&#45;&gt;Node4</title>
<path fill="none" stroke="midnightblue" d="M689.479,-274C710.557,-274 732.953,-274 753.789,-274"/>
<polygon fill="midnightblue" stroke="midnightblue" points="689.251,-270.5 679.251,-274 689.251,-277.5 689.251,-270.5"/>
</g>
<!-- Node5 -->
<g id="node5" class="node"><title>Node5</title>
<g id="a_node5"><a xlink:href="../../d1/d00/classauthoring_1_1view_1_1levelview_1_1_single_level_view.html#ae0049506bc1805b24296e3e24e51519c" target="_top" xlink:title="authoring.view.levelview.\lSingleLevelView.update">
<polygon fill="white" stroke="black" points="773,-308 773,-338 905,-338 905,-308 773,-308"/>
<text text-anchor="start" x="781" y="-326" font-family="Helvetica,sans-Serif" font-size="10.00">authoring.view.levelview.</text>
<text text-anchor="middle" x="839" y="-315" font-family="Helvetica,sans-Serif" font-size="10.00">SingleLevelView.update</text>
</a>
</g>
</g>
<!-- Node3&#45;&gt;Node5 -->
<g id="edge4" class="edge"><title>Node3&#45;&gt;Node5</title>
<path fill="none" stroke="midnightblue" d="M682.875,-291.062C712.321,-297.125 745.027,-303.859 772.788,-309.574"/>
<polygon fill="midnightblue" stroke="midnightblue" points="683.526,-287.623 673.025,-289.035 682.114,-294.479 683.526,-287.623"/>
</g>
<!-- Node7 -->
<g id="node7" class="node"><title>Node7</title>
<g id="a_node7"><a xlink:href="../../d5/d30/classengine_1_1render_1_1_rendered_node_factory.html#a359dcce722371dfb49b79528930c1b05" target="_top" xlink:title="engine.render.RenderedNode\lFactory.createRenderedNode">
<polygon fill="white" stroke="black" points="521,-186 521,-216 677,-216 677,-186 521,-186"/>
<text text-anchor="start" x="529" y="-204" font-family="Helvetica,sans-Serif" font-size="10.00">engine.render.RenderedNode</text>
<text text-anchor="middle" x="599" y="-193" font-family="Helvetica,sans-Serif" font-size="10.00">Factory.createRenderedNode</text>
</a>
</g>
</g>
<!-- Node6&#45;&gt;Node7 -->
<g id="edge6" class="edge"><title>Node6&#45;&gt;Node7</title>
<path fill="none" stroke="midnightblue" d="M424.267,-168.383C455.557,-174.258 490.586,-180.834 520.949,-186.534"/>
<polygon fill="midnightblue" stroke="midnightblue" points="424.723,-164.908 414.249,-166.503 423.432,-171.788 424.723,-164.908"/>
</g>
<!-- Node24 -->
<g id="node24" class="node"><title>Node24</title>
<g id="a_node24"><a xlink:href="../../dd/d8d/classengine_1_1render_1_1_renderer.html#a10b850c208c44a1137b099d1967c6e9b" target="_top" xlink:title="engine.render.Renderer.set\lBackGroundImage">
<polygon fill="white" stroke="black" points="766,-137 766,-167 912,-167 912,-137 766,-137"/>
<text text-anchor="start" x="774" y="-155" font-family="Helvetica,sans-Serif" font-size="10.00">engine.render.Renderer.set</text>
<text text-anchor="middle" x="839" y="-144" font-family="Helvetica,sans-Serif" font-size="10.00">BackGroundImage</text>
</a>
</g>
</g>
<!-- Node6&#45;&gt;Node24 -->
<g id="edge23" class="edge"><title>Node6&#45;&gt;Node24</title>
<path fill="none" stroke="midnightblue" d="M424.233,-152C520.98,-152 675.293,-152 765.612,-152"/>
<polygon fill="midnightblue" stroke="midnightblue" points="424.183,-148.5 414.183,-152 424.183,-155.5 424.183,-148.5"/>
</g>
<!-- Node8 -->
<g id="node8" class="node"><title>Node8</title>
<g id="a_node8"><a xlink:href="../../dd/d8d/classengine_1_1render_1_1_renderer.html#a569f6bb2f9c218ed015949dff459b1ee" target="_top" xlink:title="engine.render.Renderer.create\lAndAssignRenderedNode">
<polygon fill="white" stroke="black" points="758.5,-210 758.5,-240 919.5,-240 919.5,-210 758.5,-210"/>
<text text-anchor="start" x="766.5" y="-228" font-family="Helvetica,sans-Serif" font-size="10.00">engine.render.Renderer.create</text>
<text text-anchor="middle" x="839" y="-217" font-family="Helvetica,sans-Serif" font-size="10.00">AndAssignRenderedNode</text>
</a>
</g>
</g>
<!-- Node7&#45;&gt;Node8 -->
<g id="edge7" class="edge"><title>Node7&#45;&gt;Node8</title>
<path fill="none" stroke="midnightblue" d="M687.436,-209.817C710.613,-212.154 735.512,-214.665 758.257,-216.959"/>
<polygon fill="midnightblue" stroke="midnightblue" points="687.573,-206.313 677.272,-208.792 686.87,-213.278 687.573,-206.313"/>
</g>
<!-- Node9 -->
<g id="node9" class="node"><title>Node9</title>
<g id="a_node9"><a xlink:href="../../d8/dfe/classengine_1_1actions_1_1_change_image_i_d_action.html#a5517685ef0d4cc94928f226255299f78" target="_top" xlink:title="engine.actions.ChangeImage\lIDAction.execute">
<polygon fill="white" stroke="black" points="971,-419 971,-449 1127,-449 1127,-419 971,-419"/>
<text text-anchor="start" x="979" y="-437" font-family="Helvetica,sans-Serif" font-size="10.00">engine.actions.ChangeImage</text>
<text text-anchor="middle" x="1049" y="-426" font-family="Helvetica,sans-Serif" font-size="10.00">IDAction.execute</text>
</a>
</g>
</g>
<!-- Node8&#45;&gt;Node9 -->
<g id="edge8" class="edge"><title>Node8&#45;&gt;Node9</title>
<path fill="none" stroke="midnightblue" d="M920.053,-246.197C921.431,-247.397 922.749,-248.663 924,-250 973.499,-302.911 910.172,-356.398 960,-409 963.604,-412.805 967.742,-416.044 972.215,-418.801"/>
<polygon fill="midnightblue" stroke="midnightblue" points="921.729,-243.088 911.585,-240.031 917.609,-248.747 921.729,-243.088"/>
</g>
<!-- Node10 -->
<g id="node10" class="node"><title>Node10</title>
<g id="a_node10"><a xlink:href="../../d4/d9f/classengine_1_1actions_1_1_label_int_increment_action.html#ac110c3332e6d26e169e7e45d537a8d3f" target="_top" xlink:title="engine.actions.LabelIntIncrement\lAction.execute">
<polygon fill="white" stroke="black" points="961,-370 961,-400 1137,-400 1137,-370 961,-370"/>
<text text-anchor="start" x="969" y="-388" font-family="Helvetica,sans-Serif" font-size="10.00">engine.actions.LabelIntIncrement</text>
<text text-anchor="middle" x="1049" y="-377" font-family="Helvetica,sans-Serif" font-size="10.00">Action.execute</text>
</a>
</g>
</g>
<!-- Node8&#45;&gt;Node10 -->
<g id="edge9" class="edge"><title>Node8&#45;&gt;Node10</title>
<path fill="none" stroke="midnightblue" d="M919.361,-245.942C920.978,-247.216 922.528,-248.567 924,-250 960.862,-285.879 922.915,-324.351 960,-360 964.008,-363.852 968.564,-367.119 973.445,-369.887"/>
<polygon fill="midnightblue" stroke="midnightblue" points="921.042,-242.855 910.787,-240.191 917.143,-248.668 921.042,-242.855"/>
</g>
<!-- Node11 -->
<g id="node11" class="node"><title>Node11</title>
<g id="a_node11"><a xlink:href="../../dd/d57/classengine_1_1actions_1_1_make_new_object_from_location_action.html#a2ebd225d5e10817ac79f4044867afa98" target="_top" xlink:title="engine.actions.MakeNewObject\lFromLocationAction.execute">
<polygon fill="white" stroke="black" points="966,-321 966,-351 1132,-351 1132,-321 966,-321"/>
<text text-anchor="start" x="974" y="-339" font-family="Helvetica,sans-Serif" font-size="10.00">engine.actions.MakeNewObject</text>
<text text-anchor="middle" x="1049" y="-328" font-family="Helvetica,sans-Serif" font-size="10.00">FromLocationAction.execute</text>
</a>
</g>
</g>
<!-- Node8&#45;&gt;Node11 -->
<g id="edge10" class="edge"><title>Node8&#45;&gt;Node11</title>
<path fill="none" stroke="midnightblue" d="M916.738,-244.977C919.265,-246.528 921.696,-248.199 924,-250 948.802,-269.387 935.077,-291.768 960,-311 965.03,-314.881 970.636,-318.16 976.516,-320.929"/>
<polygon fill="midnightblue" stroke="midnightblue" points="918.286,-241.835 907.826,-240.152 914.954,-247.991 918.286,-241.835"/>
</g>
<!-- Node8&#45;&gt;Node12 -->
<g id="edge11" class="edge"><title>Node8&#45;&gt;Node12</title>
<path fill="none" stroke="midnightblue" d="M883.612,-205.092C897.581,-197.342 912.415,-187.526 924,-176 946.316,-153.797 934.976,-134.1 960,-115 964.532,-111.541 969.529,-108.58 974.771,-106.046"/>
<polygon fill="midnightblue" stroke="midnightblue" points="881.786,-202.099 874.6,-209.884 885.073,-208.279 881.786,-202.099"/>
</g>
<!-- Node13 -->
<g id="node13" class="node"><title>Node13</title>
<g id="a_node13"><a xlink:href="../../da/d16/classengine_1_1actions_1_1_make_new_random_object_action.html#a82ccd5604bd05170e416e41b32020f00" target="_top" xlink:title="engine.actions.MakeNewRandom\lObjectAction.makeRandomObject">
<polygon fill="white" stroke="black" points="960,-272 960,-302 1138,-302 1138,-272 960,-272"/>
<text text-anchor="start" x="968" y="-290" font-family="Helvetica,sans-Serif" font-size="10.00">engine.actions.MakeNewRandom</text>
<text text-anchor="middle" x="1049" y="-279" font-family="Helvetica,sans-Serif" font-size="10.00">ObjectAction.makeRandomObject</text>
</a>
</g>
</g>
<!-- Node8&#45;&gt;Node13 -->
<g id="edge12" class="edge"><title>Node8&#45;&gt;Node13</title>
<path fill="none" stroke="midnightblue" d="M901.26,-242.98C908.928,-245.305 916.654,-247.683 924,-250 940.084,-255.073 943.884,-257.028 960,-262 970.775,-265.325 982.342,-268.728 993.434,-271.911"/>
<polygon fill="midnightblue" stroke="midnightblue" points="902.196,-239.607 891.612,-240.073 900.177,-246.309 902.196,-239.607"/>
</g>
<!-- Node15 -->
<g id="node15" class="node"><title>Node15</title>
<g id="a_node15"><a xlink:href="../../db/db5/classengine_1_1actions_1_1render_1_1_change_image_type_action.html#a09110a0a08bac229b9e2feddf1d3378c" target="_top" xlink:title="engine.actions.render.Change\lImageTypeAction.execute">
<polygon fill="white" stroke="black" points="969,-223 969,-253 1129,-253 1129,-223 969,-223"/>
<text text-anchor="start" x="977" y="-241" font-family="Helvetica,sans-Serif" font-size="10.00">engine.actions.render.Change</text>
<text text-anchor="middle" x="1049" y="-230" font-family="Helvetica,sans-Serif" font-size="10.00">ImageTypeAction.execute</text>
</a>
</g>
</g>
<!-- Node8&#45;&gt;Node15 -->
<g id="edge14" class="edge"><title>Node8&#45;&gt;Node15</title>
<path fill="none" stroke="midnightblue" d="M929.855,-230.616C942.834,-231.427 956.113,-232.257 968.862,-233.054"/>
<polygon fill="midnightblue" stroke="midnightblue" points="929.725,-227.101 919.526,-229.97 929.288,-234.087 929.725,-227.101"/>
</g>
<!-- Node16 -->
<g id="node16" class="node"><title>Node16</title>
<g id="a_node16"><a xlink:href="../../d3/dbb/classengine_1_1actions_1_1render_1_1_paint_canvas.html#a3f4cb25dfb09aa686debf838e806b010" target="_top" xlink:title="engine.actions.render.Paint\lCanvas.applyRender">
<polygon fill="white" stroke="black" points="976,-174 976,-204 1122,-204 1122,-174 976,-174"/>
<text text-anchor="start" x="984" y="-192" font-family="Helvetica,sans-Serif" font-size="10.00">engine.actions.render.Paint</text>
<text text-anchor="middle" x="1049" y="-181" font-family="Helvetica,sans-Serif" font-size="10.00">Canvas.applyRender</text>
</a>
</g>
</g>
<!-- Node8&#45;&gt;Node16 -->
<g id="edge15" class="edge"><title>Node8&#45;&gt;Node16</title>
<path fill="none" stroke="midnightblue" d="M929.571,-209.497C944.973,-206.832 960.805,-204.091 975.681,-201.517"/>
<polygon fill="midnightblue" stroke="midnightblue" points="928.783,-206.082 919.526,-211.236 929.977,-212.979 928.783,-206.082"/>
</g>
<!-- Node17 -->
<g id="node17" class="node"><title>Node17</title>
<g id="a_node17"><a xlink:href="../../dd/d8d/classengine_1_1render_1_1_renderer.html#a189dda9a8463274afe267959860f0dee" target="_top" xlink:title="engine.render.Renderer.render\lGameObjects">
<polygon fill="white" stroke="black" points="968,-125 968,-155 1130,-155 1130,-125 968,-125"/>
<text text-anchor="start" x="976" y="-143" font-family="Helvetica,sans-Serif" font-size="10.00">engine.render.Renderer.render</text>
<text text-anchor="middle" x="1049" y="-132" font-family="Helvetica,sans-Serif" font-size="10.00">GameObjects</text>
</a>
</g>
</g>
<!-- Node8&#45;&gt;Node17 -->
<g id="edge16" class="edge"><title>Node8&#45;&gt;Node17</title>
<path fill="none" stroke="midnightblue" d="M874.86,-204.885C898.355,-191.932 930.357,-175.438 960,-164 968.421,-160.75 977.455,-157.758 986.411,-155.07"/>
<polygon fill="midnightblue" stroke="midnightblue" points="873.009,-201.91 865.979,-209.836 876.417,-208.024 873.009,-201.91"/>
</g>
<!-- Node14 -->
<g id="node14" class="node"><title>Node14</title>
<g id="a_node14"><a xlink:href="../../da/d16/classengine_1_1actions_1_1_make_new_random_object_action.html#aa831c4b818ed75f812bf8ba0d453c942" target="_top" xlink:title="engine.actions.MakeNewRandom\lObjectAction.execute">
<polygon fill="white" stroke="black" points="1178.5,-272 1178.5,-302 1353.5,-302 1353.5,-272 1178.5,-272"/>
<text text-anchor="start" x="1186.5" y="-290" font-family="Helvetica,sans-Serif" font-size="10.00">engine.actions.MakeNewRandom</text>
<text text-anchor="middle" x="1266" y="-279" font-family="Helvetica,sans-Serif" font-size="10.00">ObjectAction.execute</text>
</a>
</g>
</g>
<!-- Node13&#45;&gt;Node14 -->
<g id="edge13" class="edge"><title>Node13&#45;&gt;Node14</title>
<path fill="none" stroke="midnightblue" d="M1148.14,-287C1158.25,-287 1168.48,-287 1178.46,-287"/>
<polygon fill="midnightblue" stroke="midnightblue" points="1148.07,-283.5 1138.07,-287 1148.07,-290.5 1148.07,-283.5"/>
</g>
<!-- Node18 -->
<g id="node18" class="node"><title>Node18</title>
<g id="a_node18"><a xlink:href="../../df/d67/classengine_1_1level_1_1_level_manager.html#a523599892453015eed0f1b506979af8a" target="_top" xlink:title="engine.level.LevelManager.initialize\lCurrentLevel">
<polygon fill="white" stroke="black" points="1174,-125 1174,-155 1358,-155 1358,-125 1174,-125"/>
<text text-anchor="start" x="1182" y="-143" font-family="Helvetica,sans-Serif" font-size="10.00">engine.level.LevelManager.initialize</text>
<text text-anchor="middle" x="1266" y="-132" font-family="Helvetica,sans-Serif" font-size="10.00">CurrentLevel</text>
</a>
</g>
</g>
<!-- Node17&#45;&gt;Node18 -->
<g id="edge17" class="edge"><title>Node17&#45;&gt;Node18</title>
<path fill="none" stroke="midnightblue" d="M1140.15,-140C1151.22,-140 1162.55,-140 1173.65,-140"/>
<polygon fill="midnightblue" stroke="midnightblue" points="1140.06,-136.5 1130.06,-140 1140.06,-143.5 1140.06,-136.5"/>
</g>
<!-- Node19 -->
<g id="node19" class="node"><title>Node19</title>
<g id="a_node19"><a xlink:href="../../df/d67/classengine_1_1level_1_1_level_manager.html#a1d0f314bbf304bf86067ab87b832d2e0" target="_top" xlink:title="engine.level.LevelManager.find\lAndSetStartLevel">
<polygon fill="white" stroke="black" points="1394.5,-150 1394.5,-180 1557.5,-180 1557.5,-150 1394.5,-150"/>
<text text-anchor="start" x="1402.5" y="-168" font-family="Helvetica,sans-Serif" font-size="10.00">engine.level.LevelManager.find</text>
<text text-anchor="middle" x="1476" y="-157" font-family="Helvetica,sans-Serif" font-size="10.00">AndSetStartLevel</text>
</a>
</g>
</g>
<!-- Node18&#45;&gt;Node19 -->
<g id="edge18" class="edge"><title>Node18&#45;&gt;Node19</title>
<path fill="none" stroke="midnightblue" d="M1368.4,-152.188C1377.09,-153.232 1385.8,-154.279 1394.29,-155.299"/>
<polygon fill="midnightblue" stroke="midnightblue" points="1368.58,-148.684 1358.23,-150.965 1367.74,-155.634 1368.58,-148.684"/>
</g>
<!-- Node21 -->
<g id="node21" class="node"><title>Node21</title>
<g id="a_node21"><a xlink:href="../../df/d67/classengine_1_1level_1_1_level_manager.html#ad89101547413fe335873b050fd091c79" target="_top" xlink:title="engine.level.LevelManager.set\lCurrentLevel">
<polygon fill="white" stroke="black" points="1395.5,-101 1395.5,-131 1556.5,-131 1556.5,-101 1395.5,-101"/>
<text text-anchor="start" x="1403.5" y="-119" font-family="Helvetica,sans-Serif" font-size="10.00">engine.level.LevelManager.set</text>
<text text-anchor="middle" x="1476" y="-108" font-family="Helvetica,sans-Serif" font-size="10.00">CurrentLevel</text>
</a>
</g>
</g>
<!-- Node18&#45;&gt;Node21 -->
<g id="edge20" class="edge"><title>Node18&#45;&gt;Node21</title>
<path fill="none" stroke="midnightblue" d="M1368.39,-128.301C1377.41,-127.26 1386.46,-126.217 1395.26,-125.201"/>
<polygon fill="midnightblue" stroke="midnightblue" points="1367.76,-124.85 1358.23,-129.473 1368.57,-131.804 1367.76,-124.85"/>
</g>
<!-- Node20 -->
<g id="node20" class="node"><title>Node20</title>
<g id="a_node20"><a xlink:href="../../df/d67/classengine_1_1level_1_1_level_manager.html#a587b50d02654d70122a28bcda169bb8d" target="_top" xlink:title="engine.level.LevelManager.\lLevelManager">
<polygon fill="white" stroke="black" points="1612,-150 1612,-180 1758,-180 1758,-150 1612,-150"/>
<text text-anchor="start" x="1620" y="-168" font-family="Helvetica,sans-Serif" font-size="10.00">engine.level.LevelManager.</text>
<text text-anchor="middle" x="1685" y="-157" font-family="Helvetica,sans-Serif" font-size="10.00">LevelManager</text>
</a>
</g>
</g>
<!-- Node19&#45;&gt;Node20 -->
<g id="edge19" class="edge"><title>Node19&#45;&gt;Node20</title>
<path fill="none" stroke="midnightblue" d="M1567.74,-165C1582.44,-165 1597.5,-165 1611.69,-165"/>
<polygon fill="midnightblue" stroke="midnightblue" points="1567.62,-161.5 1557.62,-165 1567.62,-168.5 1567.62,-161.5"/>
</g>
<!-- Node22 -->
<g id="node22" class="node"><title>Node22</title>
<g id="a_node22"><a xlink:href="../../df/d67/classengine_1_1level_1_1_level_manager.html#ad3c392cf6260c53428255fb596442692" target="_top" xlink:title="engine.level.LevelManager.change\lToLevel">
<polygon fill="white" stroke="black" points="1594.5,-101 1594.5,-131 1775.5,-131 1775.5,-101 1594.5,-101"/>
<text text-anchor="start" x="1602.5" y="-119" font-family="Helvetica,sans-Serif" font-size="10.00">engine.level.LevelManager.change</text>
<text text-anchor="middle" x="1685" y="-108" font-family="Helvetica,sans-Serif" font-size="10.00">ToLevel</text>
</a>
</g>
</g>
<!-- Node21&#45;&gt;Node22 -->
<g id="edge21" class="edge"><title>Node21&#45;&gt;Node22</title>
<path fill="none" stroke="midnightblue" d="M1566.92,-116C1576,-116 1585.23,-116 1594.31,-116"/>
<polygon fill="midnightblue" stroke="midnightblue" points="1566.74,-112.5 1556.74,-116 1566.74,-119.5 1566.74,-112.5"/>
</g>
<!-- Node23 -->
<g id="node23" class="node"><title>Node23</title>
<g id="a_node23"><a xlink:href="../../d1/d73/classengine_1_1actions_1_1_change_level_action.html#a8190adf308768b0d12f6432d0cf0fbc4" target="_top" xlink:title="engine.actions.ChangeLevel\lAction.execute">
<polygon fill="white" stroke="black" points="1812.5,-101 1812.5,-131 1963.5,-131 1963.5,-101 1812.5,-101"/>
<text text-anchor="start" x="1820.5" y="-119" font-family="Helvetica,sans-Serif" font-size="10.00">engine.actions.ChangeLevel</text>
<text text-anchor="middle" x="1888" y="-108" font-family="Helvetica,sans-Serif" font-size="10.00">Action.execute</text>
</a>
</g>
</g>
<!-- Node22&#45;&gt;Node23 -->
<g id="edge22" class="edge"><title>Node22&#45;&gt;Node23</title>
<path fill="none" stroke="midnightblue" d="M1785.71,-116C1794.65,-116 1803.61,-116 1812.29,-116"/>
<polygon fill="midnightblue" stroke="midnightblue" points="1785.62,-112.5 1775.62,-116 1785.62,-119.5 1785.62,-112.5"/>
</g>
<!-- Node24&#45;&gt;Node17 -->
<g id="edge24" class="edge"><title>Node24&#45;&gt;Node17</title>
<path fill="none" stroke="midnightblue" d="M922.394,-147.246C937.338,-146.384 952.903,-145.486 967.783,-144.628"/>
<polygon fill="midnightblue" stroke="midnightblue" points="921.946,-143.766 912.165,-147.837 922.35,-150.755 921.946,-143.766"/>
</g>
<!-- Node25&#45;&gt;Node7 -->
<g id="edge26" class="edge"><title>Node25&#45;&gt;Node7</title>
<path fill="none" stroke="midnightblue" d="M424.267,-201C455.557,-201 490.586,-201 520.949,-201"/>
<polygon fill="midnightblue" stroke="midnightblue" points="424.249,-197.5 414.249,-201 424.249,-204.5 424.249,-197.5"/>
</g>
<!-- Node28 -->
<g id="node28" class="node"><title>Node28</title>
<g id="a_node28"><a xlink:href="../../da/d8d/classauthoring_1_1view_1_1propertiesview_1_1_game_object_properties.html#a666800a7063c728f47a848ab730362d3" target="_top" xlink:title="authoring.view.propertiesview.\lGameObjectProperties.GameObjectProperties">
<polygon fill="white" stroke="black" points="480.5,-0 480.5,-30 717.5,-30 717.5,-0 480.5,-0"/>
<text text-anchor="start" x="488.5" y="-18" font-family="Helvetica,sans-Serif" font-size="10.00">authoring.view.propertiesview.</text>
<text text-anchor="middle" x="599" y="-7" font-family="Helvetica,sans-Serif" font-size="10.00">GameObjectProperties.GameObjectProperties</text>
</a>
</g>
</g>
<!-- Node27&#45;&gt;Node28 -->
<g id="edge30" class="edge"><title>Node27&#45;&gt;Node28</title>
<path fill="none" stroke="midnightblue" d="M453.821,-15C462.625,-15 471.512,-15 480.321,-15"/>
<polygon fill="midnightblue" stroke="midnightblue" points="453.535,-11.5001 443.535,-15 453.535,-18.5001 453.535,-11.5001"/>
</g>
</g>
</svg>
        <g id="navigator" transform="translate(0 0)" fill="#404254">
                <rect fill="#f2f5e9" fill-opacity="0.5" stroke="#606060" stroke-width=".5" x="0" y="0" width="60" height="60"/>
                <use id="zoomplus" xlink:href="#zoomPlus" x="17" y="9" onmousedown="handleZoom(evt,'in')"/>
                <use id="zoomminus" xlink:href="#zoomMin" x="42" y="9" onmousedown="handleZoom(evt,'out')"/>
                <use id="reset" xlink:href="#resetDef" x="30" y="36" onmousedown="handleReset()"/>
                <g id="arrowUp" xlink:href="#dirArrow" transform="translate(30 24)" onmousedown="handlePan(0,-1)">
                  <use xlink:href="#rim" fill="#404040">
                        <set attributeName="fill" to="#808080" begin="arrowUp.mouseover" end="arrowUp.mouseout"/>
                  </use>
                  <path fill="none" stroke="white" stroke-width="1.5" d="M0,-3.0v7 M-2.5,-0.5L0,-3.0L2.5,-0.5"/>
                </g>
                <g id="arrowRight" xlink:href="#dirArrow" transform="rotate(90) translate(36 -43)" onmousedown="handlePan(1,0)">
                  <use xlink:href="#rim" fill="#404040">
                        <set attributeName="fill" to="#808080" begin="arrowRight.mouseover" end="arrowRight.mouseout"/>
                  </use>
                  <path fill="none" stroke="white" stroke-width="1.5" d="M0,-3.0v7 M-2.5,-0.5L0,-3.0L2.5,-0.5"/>
                </g>
                <g id="arrowDown" xlink:href="#dirArrow" transform="rotate(180) translate(-30 -48)" onmousedown="handlePan(0,1)">
                  <use xlink:href="#rim" fill="#404040">
                        <set attributeName="fill" to="#808080" begin="arrowDown.mouseover" end="arrowDown.mouseout"/>
                  </use>
                  <path fill="none" stroke="white" stroke-width="1.5" d="M0,-3.0v7 M-2.5,-0.5L0,-3.0L2.5,-0.5"/>
                </g>
                <g id="arrowLeft" xlink:href="#dirArrow" transform="rotate(270) translate(-36 17)" onmousedown="handlePan(-1,0)">
                  <use xlink:href="#rim" fill="#404040">
                        <set attributeName="fill" to="#808080" begin="arrowLeft.mouseover" end="arrowLeft.mouseout"/>
                  </use>
                  <path fill="none" stroke="white" stroke-width="1.5" d="M0,-3.0v7 M-2.5,-0.5L0,-3.0L2.5,-0.5"/>
                </g>
        </g>
        <svg viewBox="0 0 15 15" width="100%" height="30px" preserveAspectRatio="xMaxYMin meet">
         <g id="arrow_out" transform="scale(0.3 0.3)">
          <a xlink:href="classengine_1_1game_object_1_1_game_object_aaeb5730a3b51fe9cb3d817ea7172cfc2_icgraph_org.svg" target="_base">
           <rect id="button" ry="5" rx="5" y="6" x="6" height="38" width="38"
                fill="#f2f5e9" fill-opacity="0.5" stroke="#606060" stroke-width="1.0"/>
           <path id="arrow"
             d="M 11.500037,31.436501 C 11.940474,20.09759 22.043105,11.32322 32.158766,21.979434 L 37.068811,17.246167 C 37.068811,17.246167 37.088388,32 37.088388,32 L 22.160133,31.978069 C 22.160133,31.978069 26.997745,27.140456 26.997745,27.140456 C 18.528582,18.264221 13.291696,25.230495 11.500037,31.436501 z"
             style="fill:#404040;"/>
          </a>
         </g>
        </svg>
</svg>
