<?xml version="1.0" encoding="UTF-8" standalone="no"?>
<!DOCTYPE svg PUBLIC "-//W3C//DTD SVG 1.1//EN"
 "http://www.w3.org/Graphics/SVG/1.1/DTD/svg11.dtd">
<!-- Generated by graphviz version 2.36.0 (20140111.2315)
 -->
<!-- Title: engine.gameObject.GameObject.getCurrentImageName Pages: 1 -->
<svg width="1964pt" height="455pt"
 viewBox="0.00 0.00 1964.00 455.00" xmlns="http://www.w3.org/2000/svg" xmlns:xlink="http://www.w3.org/1999/xlink">
<g id="graph0" class="graph" transform="scale(1 1) rotate(0) translate(4 451)">
<title>engine.gameObject.GameObject.getCurrentImageName</title>
<polygon fill="white" stroke="none" points="-4,4 -4,-451 1960,-451 1960,4 -4,4"/>
<!-- Node1 -->
<g id="node1" class="node"><title>Node1</title>
<polygon fill="#bfbfbf" stroke="black" points="0,-73 0,-103 192,-103 192,-73 0,-73"/>
<text text-anchor="start" x="8" y="-91" font-family="Helvetica,sans-Serif" font-size="10.00">engine.gameObject.GameObject.get</text>
<text text-anchor="middle" x="96" y="-80" font-family="Helvetica,sans-Serif" font-size="10.00">CurrentImageName</text>
</g>
<!-- Node2 -->
<g id="node2" class="node"><title>Node2</title>
<g id="a_node2"><a xlink:href="../../d5/d30/classengine_1_1render_1_1_rendered_node_factory.html#ae9ab86f88eb96945a412e561179aa070" target="_top" xlink:title="engine.render.RenderedNode\lFactory.createImageAndView">
<polygon fill="white" stroke="black" points="258,-147 258,-177 414,-177 414,-147 258,-147"/>
<text text-anchor="start" x="266" y="-165" font-family="Helvetica,sans-Serif" font-size="10.00">engine.render.RenderedNode</text>
<text text-anchor="middle" x="336" y="-154" font-family="Helvetica,sans-Serif" font-size="10.00">Factory.createImageAndView</text>
</a>
</g>
</g>
<!-- Node1&#45;&gt;Node2 -->
<g id="edge1" class="edge"><title>Node1&#45;&gt;Node2</title>
<path fill="none" stroke="midnightblue" d="M142.828,-106.791C167.751,-116.591 199.274,-128.311 228,-137 239.777,-140.562 252.413,-143.917 264.726,-146.942"/>
<polygon fill="midnightblue" stroke="midnightblue" points="143.859,-103.435 133.273,-103.002 141.279,-109.942 143.859,-103.435"/>
</g>
<!-- Node21 -->
<g id="node21" class="node"><title>Node21</title>
<g id="a_node21"><a xlink:href="../../d0/d7f/classengine_1_1game_object_1_1_game_object.html#a69f1acfd453ec53c35c6634f557d79af" target="_top" xlink:title="engine.gameObject.GameObject.\lGameObject">
<polygon fill="white" stroke="black" points="248,-98 248,-128 424,-128 424,-98 248,-98"/>
<text text-anchor="start" x="256" y="-116" font-family="Helvetica,sans-Serif" font-size="10.00">engine.gameObject.GameObject.</text>
<text text-anchor="middle" x="336" y="-105" font-family="Helvetica,sans-Serif" font-size="10.00">GameObject</text>
</a>
</g>
</g>
<!-- Node1&#45;&gt;Node21 -->
<g id="edge21" class="edge"><title>Node1&#45;&gt;Node21</title>
<path fill="none" stroke="midnightblue" d="M202.067,-99.0365C217.334,-100.64 232.912,-102.276 247.775,-103.838"/>
<polygon fill="midnightblue" stroke="midnightblue" points="202.401,-95.5524 192.09,-97.9884 201.67,-102.514 202.401,-95.5524"/>
</g>
<!-- Node22 -->
<g id="node22" class="node"><title>Node22</title>
<g id="a_node22"><a xlink:href="../../de/de8/classauthoring_1_1view_1_1icons_1_1_game_object_icon.html#ae7ecf317db2900906b4c82bbaebecffd" target="_top" xlink:title="authoring.view.icons.Game\lObjectIcon.GameObjectIcon">
<polygon fill="white" stroke="black" points="261.5,-49 261.5,-79 410.5,-79 410.5,-49 261.5,-49"/>
<text text-anchor="start" x="269.5" y="-67" font-family="Helvetica,sans-Serif" font-size="10.00">authoring.view.icons.Game</text>
<text text-anchor="middle" x="336" y="-56" font-family="Helvetica,sans-Serif" font-size="10.00">ObjectIcon.GameObjectIcon</text>
</a>
</g>
</g>
<!-- Node1&#45;&gt;Node22 -->
<g id="edge22" class="edge"><title>Node1&#45;&gt;Node22</title>
<path fill="none" stroke="midnightblue" d="M202.15,-77.3966C222.109,-75.3839 242.596,-73.3181 261.321,-71.4298"/>
<polygon fill="midnightblue" stroke="midnightblue" points="201.688,-73.9254 192.09,-78.4111 202.391,-80.89 201.688,-73.9254"/>
</g>
<!-- Node23 -->
<g id="node23" class="node"><title>Node23</title>
<g id="a_node23"><a xlink:href="../../da/d8d/classauthoring_1_1view_1_1propertiesview_1_1_game_object_properties.html#a296e97b9faeabc086f698730de09a5c9" target="_top" xlink:title="authoring.view.propertiesview.\lGameObjectProperties.initializeProperties">
<polygon fill="white" stroke="black" points="228.5,-0 228.5,-30 443.5,-30 443.5,-0 228.5,-0"/>
<text text-anchor="start" x="236.5" y="-18" font-family="Helvetica,sans-Serif" font-size="10.00">authoring.view.propertiesview.</text>
<text text-anchor="middle" x="336" y="-7" font-family="Helvetica,sans-Serif" font-size="10.00">GameObjectProperties.initializeProperties</text>
</a>
</g>
</g>
<!-- Node1&#45;&gt;Node23 -->
<g id="edge23" class="edge"><title>Node1&#45;&gt;Node23</title>
<path fill="none" stroke="midnightblue" d="M142.797,-69.1061C167.712,-59.2772 199.236,-47.5613 228,-39 238.857,-35.7686 250.447,-32.7428 261.843,-30.0016"/>
<polygon fill="midnightblue" stroke="midnightblue" points="141.242,-65.9578 133.247,-72.9087 143.832,-72.4612 141.242,-65.9578"/>
</g>
<!-- Node3 -->
<g id="node3" class="node"><title>Node3</title>
<g id="a_node3"><a xlink:href="../../d5/d30/classengine_1_1render_1_1_rendered_node_factory.html#a359dcce722371dfb49b79528930c1b05" target="_top" xlink:title="engine.render.RenderedNode\lFactory.createRenderedNode">
<polygon fill="white" stroke="black" points="521,-170 521,-200 677,-200 677,-170 521,-170"/>
<text text-anchor="start" x="529" y="-188" font-family="Helvetica,sans-Serif" font-size="10.00">engine.render.RenderedNode</text>
<text text-anchor="middle" x="599" y="-177" font-family="Helvetica,sans-Serif" font-size="10.00">Factory.createRenderedNode</text>
</a>
</g>
</g>
<!-- Node2&#45;&gt;Node3 -->
<g id="edge2" class="edge"><title>Node2&#45;&gt;Node3</title>
<path fill="none" stroke="midnightblue" d="M424.267,-169.69C455.557,-172.448 490.586,-175.534 520.949,-178.21"/>
<polygon fill="midnightblue" stroke="midnightblue" points="424.518,-166.199 414.249,-168.807 423.903,-173.172 424.518,-166.199"/>
</g>
<!-- Node20 -->
<g id="node20" class="node"><title>Node20</title>
<g id="a_node20"><a xlink:href="../../dd/d8d/classengine_1_1render_1_1_renderer.html#a10b850c208c44a1137b099d1967c6e9b" target="_top" xlink:title="engine.render.Renderer.set\lBackGroundImage">
<polygon fill="white" stroke="black" points="762,-123 762,-153 908,-153 908,-123 762,-123"/>
<text text-anchor="start" x="770" y="-141" font-family="Helvetica,sans-Serif" font-size="10.00">engine.render.Renderer.set</text>
<text text-anchor="middle" x="835" y="-130" font-family="Helvetica,sans-Serif" font-size="10.00">BackGroundImage</text>
</a>
</g>
</g>
<!-- Node2&#45;&gt;Node20 -->
<g id="edge19" class="edge"><title>Node2&#45;&gt;Node20</title>
<path fill="none" stroke="midnightblue" d="M424.368,-157.781C520.311,-153.148 672.59,-145.794 761.961,-141.479"/>
<polygon fill="midnightblue" stroke="midnightblue" points="423.93,-154.298 414.111,-158.276 424.268,-161.29 423.93,-154.298"/>
</g>
<!-- Node4 -->
<g id="node4" class="node"><title>Node4</title>
<g id="a_node4"><a xlink:href="../../dd/d8d/classengine_1_1render_1_1_renderer.html#a569f6bb2f9c218ed015949dff459b1ee" target="_top" xlink:title="engine.render.Renderer.create\lAndAssignRenderedNode">
<polygon fill="white" stroke="black" points="754.5,-221 754.5,-251 915.5,-251 915.5,-221 754.5,-221"/>
<text text-anchor="start" x="762.5" y="-239" font-family="Helvetica,sans-Serif" font-size="10.00">engine.render.Renderer.create</text>
<text text-anchor="middle" x="835" y="-228" font-family="Helvetica,sans-Serif" font-size="10.00">AndAssignRenderedNode</text>
</a>
</g>
</g>
<!-- Node3&#45;&gt;Node4 -->
<g id="edge3" class="edge"><title>Node3&#45;&gt;Node4</title>
<path fill="none" stroke="midnightblue" d="M679.069,-202.233C706.989,-208.318 738.14,-215.108 765.147,-220.994"/>
<polygon fill="midnightblue" stroke="midnightblue" points="679.458,-198.736 668.942,-200.026 677.967,-205.575 679.458,-198.736"/>
</g>
<!-- Node5 -->
<g id="node5" class="node"><title>Node5</title>
<g id="a_node5"><a xlink:href="../../d8/dfe/classengine_1_1actions_1_1_change_image_i_d_action.html#a5517685ef0d4cc94928f226255299f78" target="_top" xlink:title="engine.actions.ChangeImage\lIDAction.execute">
<polygon fill="white" stroke="black" points="963,-417 963,-447 1119,-447 1119,-417 963,-417"/>
<text text-anchor="start" x="971" y="-435" font-family="Helvetica,sans-Serif" font-size="10.00">engine.actions.ChangeImage</text>
<text text-anchor="middle" x="1041" y="-424" font-family="Helvetica,sans-Serif" font-size="10.00">IDAction.execute</text>
</a>
</g>
</g>
<!-- Node4&#45;&gt;Node5 -->
<g id="edge4" class="edge"><title>Node4&#45;&gt;Node5</title>
<path fill="none" stroke="midnightblue" d="M846.112,-260.799C862.635,-298.188 898.978,-368.684 952,-407 957.407,-410.907 963.408,-414.205 969.663,-416.989"/>
<polygon fill="midnightblue" stroke="midnightblue" points="849.145,-258.991 841.98,-251.186 842.714,-261.755 849.145,-258.991"/>
</g>
<!-- Node6 -->
<g id="node6" class="node"><title>Node6</title>
<g id="a_node6"><a xlink:href="../../d4/d9f/classengine_1_1actions_1_1_label_int_increment_action.html#ac110c3332e6d26e169e7e45d537a8d3f" target="_top" xlink:title="engine.actions.LabelIntIncrement\lAction.execute">
<polygon fill="white" stroke="black" points="953,-368 953,-398 1129,-398 1129,-368 953,-368"/>
<text text-anchor="start" x="961" y="-386" font-family="Helvetica,sans-Serif" font-size="10.00">engine.actions.LabelIntIncrement</text>
<text text-anchor="middle" x="1041" y="-375" font-family="Helvetica,sans-Serif" font-size="10.00">Action.execute</text>
</a>
</g>
</g>
<!-- Node4&#45;&gt;Node6 -->
<g id="edge5" class="edge"><title>Node4&#45;&gt;Node6</title>
<path fill="none" stroke="midnightblue" d="M852.21,-259.527C872.435,-287.123 909.569,-332.352 952,-358 958.388,-361.862 965.397,-365.148 972.583,-367.94"/>
<polygon fill="midnightblue" stroke="midnightblue" points="854.929,-257.314 846.252,-251.234 849.244,-261.398 854.929,-257.314"/>
</g>
<!-- Node7 -->
<g id="node7" class="node"><title>Node7</title>
<g id="a_node7"><a xlink:href="../../dd/d57/classengine_1_1actions_1_1_make_new_object_from_location_action.html#a2ebd225d5e10817ac79f4044867afa98" target="_top" xlink:title="engine.actions.MakeNewObject\lFromLocationAction.execute">
<polygon fill="white" stroke="black" points="958,-319 958,-349 1124,-349 1124,-319 958,-319"/>
<text text-anchor="start" x="966" y="-337" font-family="Helvetica,sans-Serif" font-size="10.00">engine.actions.MakeNewObject</text>
<text text-anchor="middle" x="1041" y="-326" font-family="Helvetica,sans-Serif" font-size="10.00">FromLocationAction.execute</text>
</a>
</g>
</g>
<!-- Node4&#45;&gt;Node7 -->
<g id="edge6" class="edge"><title>Node4&#45;&gt;Node7</title>
<path fill="none" stroke="midnightblue" d="M864.126,-256.917C886.86,-273.011 920.201,-294.828 952,-309 960.414,-312.75 969.532,-316.084 978.604,-318.998"/>
<polygon fill="midnightblue" stroke="midnightblue" points="866.123,-254.042 855.958,-251.056 862.043,-259.729 866.123,-254.042"/>
</g>
<!-- Node8 -->
<g id="node8" class="node"><title>Node8</title>
<g id="a_node8"><a xlink:href="../../db/d61/classengine_1_1actions_1_1_make_new_object_from_object_action.html#a01ffb165d6169f7b0a22733e2b6c61a9" target="_top" xlink:title="engine.actions.MakeNewObject\lFromObjectAction.execute">
<polygon fill="white" stroke="black" points="958,-270 958,-300 1124,-300 1124,-270 958,-270"/>
<text text-anchor="start" x="966" y="-288" font-family="Helvetica,sans-Serif" font-size="10.00">engine.actions.MakeNewObject</text>
<text text-anchor="middle" x="1041" y="-277" font-family="Helvetica,sans-Serif" font-size="10.00">FromObjectAction.execute</text>
</a>
</g>
</g>
<!-- Node4&#45;&gt;Node8 -->
<g id="edge7" class="edge"><title>Node4&#45;&gt;Node8</title>
<path fill="none" stroke="midnightblue" d="M908.457,-253.404C931.024,-258.824 955.702,-264.752 977.525,-269.994"/>
<polygon fill="midnightblue" stroke="midnightblue" points="909.134,-249.967 898.593,-251.035 907.499,-256.773 909.134,-249.967"/>
</g>
<!-- Node9 -->
<g id="node9" class="node"><title>Node9</title>
<g id="a_node9"><a xlink:href="../../da/d16/classengine_1_1actions_1_1_make_new_random_object_action.html#a82ccd5604bd05170e416e41b32020f00" target="_top" xlink:title="engine.actions.MakeNewRandom\lObjectAction.makeRandomObject">
<polygon fill="white" stroke="black" points="952,-221 952,-251 1130,-251 1130,-221 952,-221"/>
<text text-anchor="start" x="960" y="-239" font-family="Helvetica,sans-Serif" font-size="10.00">engine.actions.MakeNewRandom</text>
<text text-anchor="middle" x="1041" y="-228" font-family="Helvetica,sans-Serif" font-size="10.00">ObjectAction.makeRandomObject</text>
</a>
</g>
</g>
<!-- Node4&#45;&gt;Node9 -->
<g id="edge8" class="edge"><title>Node4&#45;&gt;Node9</title>
<path fill="none" stroke="midnightblue" d="M925.828,-236C934.473,-236 943.237,-236 951.865,-236"/>
<polygon fill="midnightblue" stroke="midnightblue" points="925.748,-232.5 915.748,-236 925.748,-239.5 925.748,-232.5"/>
</g>
<!-- Node11 -->
<g id="node11" class="node"><title>Node11</title>
<g id="a_node11"><a xlink:href="../../db/db5/classengine_1_1actions_1_1render_1_1_change_image_type_action.html#a09110a0a08bac229b9e2feddf1d3378c" target="_top" xlink:title="engine.actions.render.Change\lImageTypeAction.execute">
<polygon fill="white" stroke="black" points="961,-172 961,-202 1121,-202 1121,-172 961,-172"/>
<text text-anchor="start" x="969" y="-190" font-family="Helvetica,sans-Serif" font-size="10.00">engine.actions.render.Change</text>
<text text-anchor="middle" x="1041" y="-179" font-family="Helvetica,sans-Serif" font-size="10.00">ImageTypeAction.execute</text>
</a>
</g>
</g>
<!-- Node4&#45;&gt;Node11 -->
<g id="edge10" class="edge"><title>Node4&#45;&gt;Node11</title>
<path fill="none" stroke="midnightblue" d="M908.457,-218.596C931.024,-213.176 955.702,-207.248 977.525,-202.006"/>
<polygon fill="midnightblue" stroke="midnightblue" points="907.499,-215.227 898.593,-220.965 909.134,-222.033 907.499,-215.227"/>
</g>
<!-- Node12 -->
<g id="node12" class="node"><title>Node12</title>
<g id="a_node12"><a xlink:href="../../d3/dbb/classengine_1_1actions_1_1render_1_1_paint_canvas.html#a3f4cb25dfb09aa686debf838e806b010" target="_top" xlink:title="engine.actions.render.Paint\lCanvas.applyRender">
<polygon fill="white" stroke="black" points="968,-123 968,-153 1114,-153 1114,-123 968,-123"/>
<text text-anchor="start" x="976" y="-141" font-family="Helvetica,sans-Serif" font-size="10.00">engine.actions.render.Paint</text>
<text text-anchor="middle" x="1041" y="-130" font-family="Helvetica,sans-Serif" font-size="10.00">Canvas.applyRender</text>
</a>
</g>
</g>
<!-- Node4&#45;&gt;Node12 -->
<g id="edge11" class="edge"><title>Node4&#45;&gt;Node12</title>
<path fill="none" stroke="midnightblue" d="M864.126,-215.083C886.86,-198.989 920.201,-177.172 952,-163 960.414,-159.25 969.532,-155.916 978.604,-153.002"/>
<polygon fill="midnightblue" stroke="midnightblue" points="862.043,-212.271 855.958,-220.944 866.123,-217.958 862.043,-212.271"/>
</g>
<!-- Node13 -->
<g id="node13" class="node"><title>Node13</title>
<g id="a_node13"><a xlink:href="../../dd/d8d/classengine_1_1render_1_1_renderer.html#a189dda9a8463274afe267959860f0dee" target="_top" xlink:title="engine.render.Renderer.render\lGameObjects">
<polygon fill="white" stroke="black" points="960,-74 960,-104 1122,-104 1122,-74 960,-74"/>
<text text-anchor="start" x="968" y="-92" font-family="Helvetica,sans-Serif" font-size="10.00">engine.render.Renderer.render</text>
<text text-anchor="middle" x="1041" y="-81" font-family="Helvetica,sans-Serif" font-size="10.00">GameObjects</text>
</a>
</g>
</g>
<!-- Node4&#45;&gt;Node13 -->
<g id="edge12" class="edge"><title>Node4&#45;&gt;Node13</title>
<path fill="none" stroke="midnightblue" d="M862.042,-214.057C878.261,-199.883 899.166,-180.663 916,-162 933.861,-142.199 930.022,-129.102 952,-114 957.629,-110.132 963.849,-106.859 970.304,-104.088"/>
<polygon fill="midnightblue" stroke="midnightblue" points="859.311,-211.792 854.035,-220.979 863.889,-217.087 859.311,-211.792"/>
</g>
<!-- Node10 -->
<g id="node10" class="node"><title>Node10</title>
<g id="a_node10"><a xlink:href="../../da/d16/classengine_1_1actions_1_1_make_new_random_object_action.html#aa831c4b818ed75f812bf8ba0d453c942" target="_top" xlink:title="engine.actions.MakeNewRandom\lObjectAction.execute">
<polygon fill="white" stroke="black" points="1170.5,-221 1170.5,-251 1345.5,-251 1345.5,-221 1170.5,-221"/>
<text text-anchor="start" x="1178.5" y="-239" font-family="Helvetica,sans-Serif" font-size="10.00">engine.actions.MakeNewRandom</text>
<text text-anchor="middle" x="1258" y="-228" font-family="Helvetica,sans-Serif" font-size="10.00">ObjectAction.execute</text>
</a>
</g>
</g>
<!-- Node9&#45;&gt;Node10 -->
<g id="edge9" class="edge"><title>Node9&#45;&gt;Node10</title>
<path fill="none" stroke="midnightblue" d="M1140.14,-236C1150.25,-236 1160.48,-236 1170.46,-236"/>
<polygon fill="midnightblue" stroke="midnightblue" points="1140.07,-232.5 1130.07,-236 1140.07,-239.5 1140.07,-232.5"/>
</g>
<!-- Node14 -->
<g id="node14" class="node"><title>Node14</title>
<g id="a_node14"><a xlink:href="../../df/d67/classengine_1_1level_1_1_level_manager.html#a523599892453015eed0f1b506979af8a" target="_top" xlink:title="engine.level.LevelManager.initialize\lCurrentLevel">
<polygon fill="white" stroke="black" points="1166,-74 1166,-104 1350,-104 1350,-74 1166,-74"/>
<text text-anchor="start" x="1174" y="-92" font-family="Helvetica,sans-Serif" font-size="10.00">engine.level.LevelManager.initialize</text>
<text text-anchor="middle" x="1258" y="-81" font-family="Helvetica,sans-Serif" font-size="10.00">CurrentLevel</text>
</a>
</g>
</g>
<!-- Node13&#45;&gt;Node14 -->
<g id="edge13" class="edge"><title>Node13&#45;&gt;Node14</title>
<path fill="none" stroke="midnightblue" d="M1132.15,-89C1143.22,-89 1154.55,-89 1165.65,-89"/>
<polygon fill="midnightblue" stroke="midnightblue" points="1132.06,-85.5001 1122.06,-89 1132.06,-92.5001 1132.06,-85.5001"/>
</g>
<!-- Node15 -->
<g id="node15" class="node"><title>Node15</title>
<g id="a_node15"><a xlink:href="../../df/d67/classengine_1_1level_1_1_level_manager.html#a1d0f314bbf304bf86067ab87b832d2e0" target="_top" xlink:title="engine.level.LevelManager.find\lAndSetStartLevel">
<polygon fill="white" stroke="black" points="1386.5,-99 1386.5,-129 1549.5,-129 1549.5,-99 1386.5,-99"/>
<text text-anchor="start" x="1394.5" y="-117" font-family="Helvetica,sans-Serif" font-size="10.00">engine.level.LevelManager.find</text>
<text text-anchor="middle" x="1468" y="-106" font-family="Helvetica,sans-Serif" font-size="10.00">AndSetStartLevel</text>
</a>
</g>
</g>
<!-- Node14&#45;&gt;Node15 -->
<g id="edge14" class="edge"><title>Node14&#45;&gt;Node15</title>
<path fill="none" stroke="midnightblue" d="M1360.4,-101.188C1369.09,-102.232 1377.8,-103.279 1386.29,-104.299"/>
<polygon fill="midnightblue" stroke="midnightblue" points="1360.58,-97.6838 1350.23,-99.9654 1359.74,-104.634 1360.58,-97.6838"/>
</g>
<!-- Node17 -->
<g id="node17" class="node"><title>Node17</title>
<g id="a_node17"><a xlink:href="../../df/d67/classengine_1_1level_1_1_level_manager.html#ad89101547413fe335873b050fd091c79" target="_top" xlink:title="engine.level.LevelManager.set\lCurrentLevel">
<polygon fill="white" stroke="black" points="1387.5,-50 1387.5,-80 1548.5,-80 1548.5,-50 1387.5,-50"/>
<text text-anchor="start" x="1395.5" y="-68" font-family="Helvetica,sans-Serif" font-size="10.00">engine.level.LevelManager.set</text>
<text text-anchor="middle" x="1468" y="-57" font-family="Helvetica,sans-Serif" font-size="10.00">CurrentLevel</text>
</a>
</g>
</g>
<!-- Node14&#45;&gt;Node17 -->
<g id="edge16" class="edge"><title>Node14&#45;&gt;Node17</title>
<path fill="none" stroke="midnightblue" d="M1360.39,-77.3012C1369.41,-76.2604 1378.46,-75.2166 1387.26,-74.2011"/>
<polygon fill="midnightblue" stroke="midnightblue" points="1359.76,-73.85 1350.23,-78.4733 1360.57,-80.8039 1359.76,-73.85"/>
</g>
<!-- Node16 -->
<g id="node16" class="node"><title>Node16</title>
<g id="a_node16"><a xlink:href="../../df/d67/classengine_1_1level_1_1_level_manager.html#a587b50d02654d70122a28bcda169bb8d" target="_top" xlink:title="engine.level.LevelManager.\lLevelManager">
<polygon fill="white" stroke="black" points="1604,-99 1604,-129 1750,-129 1750,-99 1604,-99"/>
<text text-anchor="start" x="1612" y="-117" font-family="Helvetica,sans-Serif" font-size="10.00">engine.level.LevelManager.</text>
<text text-anchor="middle" x="1677" y="-106" font-family="Helvetica,sans-Serif" font-size="10.00">LevelManager</text>
</a>
</g>
</g>
<!-- Node15&#45;&gt;Node16 -->
<g id="edge15" class="edge"><title>Node15&#45;&gt;Node16</title>
<path fill="none" stroke="midnightblue" d="M1559.74,-114C1574.44,-114 1589.5,-114 1603.69,-114"/>
<polygon fill="midnightblue" stroke="midnightblue" points="1559.62,-110.5 1549.62,-114 1559.62,-117.5 1559.62,-110.5"/>
</g>
<!-- Node18 -->
<g id="node18" class="node"><title>Node18</title>
<g id="a_node18"><a xlink:href="../../df/d67/classengine_1_1level_1_1_level_manager.html#ad3c392cf6260c53428255fb596442692" target="_top" xlink:title="engine.level.LevelManager.change\lToLevel">
<polygon fill="white" stroke="black" points="1586.5,-50 1586.5,-80 1767.5,-80 1767.5,-50 1586.5,-50"/>
<text text-anchor="start" x="1594.5" y="-68" font-family="Helvetica,sans-Serif" font-size="10.00">engine.level.LevelManager.change</text>
<text text-anchor="middle" x="1677" y="-57" font-family="Helvetica,sans-Serif" font-size="10.00">ToLevel</text>
</a>
</g>
</g>
<!-- Node17&#45;&gt;Node18 -->
<g id="edge17" class="edge"><title>Node17&#45;&gt;Node18</title>
<path fill="none" stroke="midnightblue" d="M1558.92,-65C1568,-65 1577.23,-65 1586.31,-65"/>
<polygon fill="midnightblue" stroke="midnightblue" points="1558.74,-61.5001 1548.74,-65 1558.74,-68.5001 1558.74,-61.5001"/>
</g>
<!-- Node19 -->
<g id="node19" class="node"><title>Node19</title>
<g id="a_node19"><a xlink:href="../../d1/d73/classengine_1_1actions_1_1_change_level_action.html#a8190adf308768b0d12f6432d0cf0fbc4" target="_top" xlink:title="engine.actions.ChangeLevel\lAction.execute">
<polygon fill="white" stroke="black" points="1804.5,-50 1804.5,-80 1955.5,-80 1955.5,-50 1804.5,-50"/>
<text text-anchor="start" x="1812.5" y="-68" font-family="Helvetica,sans-Serif" font-size="10.00">engine.actions.ChangeLevel</text>
<text text-anchor="middle" x="1880" y="-57" font-family="Helvetica,sans-Serif" font-size="10.00">Action.execute</text>
</a>
</g>
</g>
<!-- Node18&#45;&gt;Node19 -->
<g id="edge18" class="edge"><title>Node18&#45;&gt;Node19</title>
<path fill="none" stroke="midnightblue" d="M1777.71,-65C1786.65,-65 1795.61,-65 1804.29,-65"/>
<polygon fill="midnightblue" stroke="midnightblue" points="1777.62,-61.5001 1767.62,-65 1777.62,-68.5001 1777.62,-61.5001"/>
</g>
<!-- Node20&#45;&gt;Node13 -->
<g id="edge20" class="edge"><title>Node20&#45;&gt;Node13</title>
<path fill="none" stroke="midnightblue" d="M908.457,-120.596C931.024,-115.176 955.702,-109.248 977.525,-104.006"/>
<polygon fill="midnightblue" stroke="midnightblue" points="907.499,-117.227 898.593,-122.965 909.134,-124.033 907.499,-117.227"/>
</g>
<!-- Node24 -->
<g id="node24" class="node"><title>Node24</title>
<g id="a_node24"><a xlink:href="../../da/d8d/classauthoring_1_1view_1_1propertiesview_1_1_game_object_properties.html#a666800a7063c728f47a848ab730362d3" target="_top" xlink:title="authoring.view.propertiesview.\lGameObjectProperties.GameObjectProperties">
<polygon fill="white" stroke="black" points="480.5,-0 480.5,-30 717.5,-30 717.5,-0 480.5,-0"/>
<text text-anchor="start" x="488.5" y="-18" font-family="Helvetica,sans-Serif" font-size="10.00">authoring.view.propertiesview.</text>
<text text-anchor="middle" x="599" y="-7" font-family="Helvetica,sans-Serif" font-size="10.00">GameObjectProperties.GameObjectProperties</text>
</a>
</g>
</g>
<!-- Node23&#45;&gt;Node24 -->
<g id="edge24" class="edge"><title>Node23&#45;&gt;Node24</title>
<path fill="none" stroke="midnightblue" d="M453.821,-15C462.625,-15 471.512,-15 480.321,-15"/>
<polygon fill="midnightblue" stroke="midnightblue" points="453.535,-11.5001 443.535,-15 453.535,-18.5001 453.535,-11.5001"/>
</g>
</g>
</svg>
