<?xml version="1.0" encoding="UTF-8" standalone="no"?>
<!DOCTYPE svg PUBLIC "-//W3C//DTD SVG 1.1//EN"
 "http://www.w3.org/Graphics/SVG/1.1/DTD/svg11.dtd">
<!-- Generated by graphviz version 2.36.0 (20140111.2315)
 -->
<!-- Title: engine.gameObject.GameObject.getPhysicsBody Pages: 1 -->
<svg width="2006pt" height="968pt"
 viewBox="0.00 0.00 2006.00 968.00" xmlns="http://www.w3.org/2000/svg" xmlns:xlink="http://www.w3.org/1999/xlink">
<g id="graph0" class="graph" transform="scale(1 1) rotate(0) translate(4 964)">
<title>engine.gameObject.GameObject.getPhysicsBody</title>
<polygon fill="white" stroke="none" points="-4,4 -4,-964 2002,-964 2002,4 -4,4"/>
<!-- Node1 -->
<g id="node1" class="node"><title>Node1</title>
<polygon fill="#bfbfbf" stroke="black" points="0,-470 0,-500 192,-500 192,-470 0,-470"/>
<text text-anchor="start" x="8" y="-488" font-family="Helvetica,sans-Serif" font-size="10.00">engine.gameObject.GameObject.get</text>
<text text-anchor="middle" x="96" y="-477" font-family="Helvetica,sans-Serif" font-size="10.00">PhysicsBody</text>
</g>
<!-- Node2 -->
<g id="node2" class="node"><title>Node2</title>
<g id="a_node2"><a xlink:href="../../d5/d30/classengine_1_1render_1_1_rendered_node_factory.html#ac14d2f5a3da79d92c967fe22bc82c1ed" target="_top" xlink:title="engine.render.RenderedNode\lFactory.createCollisionBody">
<polygon fill="white" stroke="black" points="258,-656 258,-686 414,-686 414,-656 258,-656"/>
<text text-anchor="start" x="266" y="-674" font-family="Helvetica,sans-Serif" font-size="10.00">engine.render.RenderedNode</text>
<text text-anchor="middle" x="336" y="-663" font-family="Helvetica,sans-Serif" font-size="10.00">Factory.createCollisionBody</text>
</a>
</g>
</g>
<!-- Node1&#45;&gt;Node2 -->
<g id="edge1" class="edge"><title>Node1&#45;&gt;Node2</title>
<path fill="none" stroke="midnightblue" d="M118.558,-507.794C143.532,-533.53 186.571,-575.867 228,-607 253.091,-625.855 284.086,-643.883 306.247,-655.972"/>
<polygon fill="midnightblue" stroke="midnightblue" points="120.867,-505.146 111.41,-500.371 115.825,-510.001 120.867,-505.146"/>
</g>
<!-- Node20 -->
<g id="node20" class="node"><title>Node20</title>
<g id="a_node20"><a xlink:href="../../da/d1b/classengine_1_1collision_1_1objects_1_1_collision_composition.html#a7ec4687ad9367279088b965c0e009cd0" target="_top" xlink:title="engine.collision.objects.\lCollisionComposition.fixedCollision">
<polygon fill="white" stroke="black" points="509,-428 509,-458 689,-458 689,-428 509,-428"/>
<text text-anchor="start" x="517" y="-446" font-family="Helvetica,sans-Serif" font-size="10.00">engine.collision.objects.</text>
<text text-anchor="middle" x="599" y="-435" font-family="Helvetica,sans-Serif" font-size="10.00">CollisionComposition.fixedCollision</text>
</a>
</g>
</g>
<!-- Node1&#45;&gt;Node20 -->
<g id="edge19" class="edge"><title>Node1&#45;&gt;Node20</title>
<path fill="none" stroke="midnightblue" d="M175.703,-468.096C192.869,-464.937 210.989,-462.004 228,-460 323.474,-448.755 433.622,-444.846 508.744,-443.54"/>
<polygon fill="midnightblue" stroke="midnightblue" points="174.9,-464.685 165.721,-469.976 176.196,-471.564 174.9,-464.685"/>
</g>
<!-- Node30 -->
<g id="node30" class="node"><title>Node30</title>
<g id="a_node30"><a xlink:href="../../d0/d7f/classengine_1_1game_object_1_1_game_object.html#aa99b0343da84d676c7709cee3cfbc4e1" target="_top" xlink:title="engine.gameObject.GameObject.\lGameObject">
<polygon fill="white" stroke="black" points="248,-519 248,-549 424,-549 424,-519 248,-519"/>
<text text-anchor="start" x="256" y="-537" font-family="Helvetica,sans-Serif" font-size="10.00">engine.gameObject.GameObject.</text>
<text text-anchor="middle" x="336" y="-526" font-family="Helvetica,sans-Serif" font-size="10.00">GameObject</text>
</a>
</g>
</g>
<!-- Node1&#45;&gt;Node30 -->
<g id="edge29" class="edge"><title>Node1&#45;&gt;Node30</title>
<path fill="none" stroke="midnightblue" d="M180.119,-502.113C206.827,-507.611 236.196,-513.658 262.113,-518.994"/>
<polygon fill="midnightblue" stroke="midnightblue" points="180.526,-498.623 170.025,-500.035 179.114,-505.479 180.526,-498.623"/>
</g>
<!-- Node31 -->
<g id="node31" class="node"><title>Node31</title>
<g id="a_node31"><a xlink:href="../../d9/d9d/classengine_1_1game_object_1_1components_1_1_physics_body.html#a6df6a3a8e4dde3aea1de4127f93935aa" target="_top" xlink:title="engine.gameObject.components.\lPhysicsBody.handleCollision">
<polygon fill="white" stroke="black" points="248,-470 248,-500 424,-500 424,-470 248,-470"/>
<text text-anchor="start" x="256" y="-488" font-family="Helvetica,sans-Serif" font-size="10.00">engine.gameObject.components.</text>
<text text-anchor="middle" x="336" y="-477" font-family="Helvetica,sans-Serif" font-size="10.00">PhysicsBody.handleCollision</text>
</a>
</g>
</g>
<!-- Node1&#45;&gt;Node31 -->
<g id="edge30" class="edge"><title>Node1&#45;&gt;Node31</title>
<path fill="none" stroke="midnightblue" d="M202.503,-485C217.631,-485 233.053,-485 247.775,-485"/>
<polygon fill="midnightblue" stroke="midnightblue" points="202.09,-481.5 192.09,-485 202.09,-488.5 202.09,-481.5"/>
</g>
<!-- Node32 -->
<g id="node32" class="node"><title>Node32</title>
<g id="a_node32"><a xlink:href="../../da/d8d/classauthoring_1_1view_1_1propertiesview_1_1_game_object_properties.html#a296e97b9faeabc086f698730de09a5c9" target="_top" xlink:title="authoring.view.propertiesview.\lGameObjectProperties.initializeProperties">
<polygon fill="white" stroke="black" points="228.5,-568 228.5,-598 443.5,-598 443.5,-568 228.5,-568"/>
<text text-anchor="start" x="236.5" y="-586" font-family="Helvetica,sans-Serif" font-size="10.00">authoring.view.propertiesview.</text>
<text text-anchor="middle" x="336" y="-575" font-family="Helvetica,sans-Serif" font-size="10.00">GameObjectProperties.initializeProperties</text>
</a>
</g>
</g>
<!-- Node1&#45;&gt;Node32 -->
<g id="edge31" class="edge"><title>Node1&#45;&gt;Node32</title>
<path fill="none" stroke="midnightblue" d="M128.295,-505.728C154.099,-521.997 192.158,-544.141 228,-558 237.786,-561.784 248.306,-565.096 258.793,-567.964"/>
<polygon fill="midnightblue" stroke="midnightblue" points="130.014,-502.673 119.702,-500.242 126.247,-508.573 130.014,-502.673"/>
</g>
<!-- Node34 -->
<g id="node34" class="node"><title>Node34</title>
<g id="a_node34"><a xlink:href="../../da/d1b/classengine_1_1collision_1_1objects_1_1_collision_composition.html#a16ad6d1ec6082599cf72870f5cd3dd03" target="_top" xlink:title="engine.collision.objects.\lCollisionComposition.isOnXAxis">
<polygon fill="white" stroke="black" points="253.5,-380 253.5,-410 418.5,-410 418.5,-380 253.5,-380"/>
<text text-anchor="start" x="261.5" y="-398" font-family="Helvetica,sans-Serif" font-size="10.00">engine.collision.objects.</text>
<text text-anchor="middle" x="336" y="-387" font-family="Helvetica,sans-Serif" font-size="10.00">CollisionComposition.isOnXAxis</text>
</a>
</g>
</g>
<!-- Node1&#45;&gt;Node34 -->
<g id="edge33" class="edge"><title>Node1&#45;&gt;Node34</title>
<path fill="none" stroke="midnightblue" d="M137.425,-465.516C163.045,-453.566 197.069,-438.421 228,-427 244.643,-420.855 263.058,-415.015 279.852,-410.046"/>
<polygon fill="midnightblue" stroke="midnightblue" points="135.603,-462.505 128.041,-469.925 138.58,-468.84 135.603,-462.505"/>
</g>
<!-- Node36 -->
<g id="node36" class="node"><title>Node36</title>
<g id="a_node36"><a xlink:href="../../da/d1b/classengine_1_1collision_1_1objects_1_1_collision_composition.html#a18ddea9b9a7eb7e0b581645e7c42b439" target="_top" xlink:title="engine.collision.objects.\lCollisionComposition.reverseVelocites">
<polygon fill="white" stroke="black" points="500.5,-156 500.5,-186 697.5,-186 697.5,-156 500.5,-156"/>
<text text-anchor="start" x="508.5" y="-174" font-family="Helvetica,sans-Serif" font-size="10.00">engine.collision.objects.</text>
<text text-anchor="middle" x="599" y="-163" font-family="Helvetica,sans-Serif" font-size="10.00">CollisionComposition.reverseVelocites</text>
</a>
</g>
</g>
<!-- Node1&#45;&gt;Node36 -->
<g id="edge41" class="edge"><title>Node1&#45;&gt;Node36</title>
<path fill="none" stroke="midnightblue" d="M118.959,-462.908C143.985,-438.426 186.775,-398.627 228,-370 344.375,-289.19 497.174,-216.439 564.116,-186.044"/>
<polygon fill="midnightblue" stroke="midnightblue" points="116.446,-460.471 111.784,-469.985 121.362,-465.455 116.446,-460.471"/>
</g>
<!-- Node3 -->
<g id="node3" class="node"><title>Node3</title>
<g id="a_node3"><a xlink:href="../../d5/d30/classengine_1_1render_1_1_rendered_node_factory.html#a359dcce722371dfb49b79528930c1b05" target="_top" xlink:title="engine.render.RenderedNode\lFactory.createRenderedNode">
<polygon fill="white" stroke="black" points="521,-737 521,-767 677,-767 677,-737 521,-737"/>
<text text-anchor="start" x="529" y="-755" font-family="Helvetica,sans-Serif" font-size="10.00">engine.render.RenderedNode</text>
<text text-anchor="middle" x="599" y="-744" font-family="Helvetica,sans-Serif" font-size="10.00">Factory.createRenderedNode</text>
</a>
</g>
</g>
<!-- Node2&#45;&gt;Node3 -->
<g id="edge2" class="edge"><title>Node2&#45;&gt;Node3</title>
<path fill="none" stroke="midnightblue" d="M395.089,-689.028C441.45,-703.415 505.651,-723.34 549.337,-736.898"/>
<polygon fill="midnightblue" stroke="midnightblue" points="396.068,-685.667 385.48,-686.046 393.994,-692.352 396.068,-685.667"/>
</g>
<!-- Node4 -->
<g id="node4" class="node"><title>Node4</title>
<g id="a_node4"><a xlink:href="../../dd/d8d/classengine_1_1render_1_1_renderer.html#a569f6bb2f9c218ed015949dff459b1ee" target="_top" xlink:title="engine.render.Renderer.create\lAndAssignRenderedNode">
<polygon fill="white" stroke="black" points="775.5,-757 775.5,-787 936.5,-787 936.5,-757 775.5,-757"/>
<text text-anchor="start" x="783.5" y="-775" font-family="Helvetica,sans-Serif" font-size="10.00">engine.render.Renderer.create</text>
<text text-anchor="middle" x="856" y="-764" font-family="Helvetica,sans-Serif" font-size="10.00">AndAssignRenderedNode</text>
</a>
</g>
</g>
<!-- Node3&#45;&gt;Node4 -->
<g id="edge3" class="edge"><title>Node3&#45;&gt;Node4</title>
<path fill="none" stroke="midnightblue" d="M687.181,-758.838C715.784,-761.081 747.404,-763.561 775.414,-765.758"/>
<polygon fill="midnightblue" stroke="midnightblue" points="687.444,-755.348 677.2,-758.055 686.896,-762.326 687.444,-755.348"/>
</g>
<!-- Node5 -->
<g id="node5" class="node"><title>Node5</title>
<g id="a_node5"><a xlink:href="../../d8/dfe/classengine_1_1actions_1_1_change_image_i_d_action.html#a5517685ef0d4cc94928f226255299f78" target="_top" xlink:title="engine.actions.ChangeImage\lIDAction.execute">
<polygon fill="white" stroke="black" points="1005,-929 1005,-959 1161,-959 1161,-929 1005,-929"/>
<text text-anchor="start" x="1013" y="-947" font-family="Helvetica,sans-Serif" font-size="10.00">engine.actions.ChangeImage</text>
<text text-anchor="middle" x="1083" y="-936" font-family="Helvetica,sans-Serif" font-size="10.00">IDAction.execute</text>
</a>
</g>
</g>
<!-- Node4&#45;&gt;Node5 -->
<g id="edge4" class="edge"><title>Node4&#45;&gt;Node5</title>
<path fill="none" stroke="midnightblue" d="M872.556,-795.471C895.357,-828.036 940.947,-886.568 994,-919 1000.23,-922.811 1007.07,-926.059 1014.09,-928.824"/>
<polygon fill="midnightblue" stroke="midnightblue" points="875.293,-793.274 866.742,-787.018 869.525,-797.241 875.293,-793.274"/>
</g>
<!-- Node6 -->
<g id="node6" class="node"><title>Node6</title>
<g id="a_node6"><a xlink:href="../../d4/d9f/classengine_1_1actions_1_1_label_int_increment_action.html#ac110c3332e6d26e169e7e45d537a8d3f" target="_top" xlink:title="engine.actions.LabelIntIncrement\lAction.execute">
<polygon fill="white" stroke="black" points="995,-880 995,-910 1171,-910 1171,-880 995,-880"/>
<text text-anchor="start" x="1003" y="-898" font-family="Helvetica,sans-Serif" font-size="10.00">engine.actions.LabelIntIncrement</text>
<text text-anchor="middle" x="1083" y="-887" font-family="Helvetica,sans-Serif" font-size="10.00">Action.execute</text>
</a>
</g>
</g>
<!-- Node4&#45;&gt;Node6 -->
<g id="edge5" class="edge"><title>Node4&#45;&gt;Node6</title>
<path fill="none" stroke="midnightblue" d="M881.819,-793.817C908.052,-815.859 951.445,-849.503 994,-870 1001.87,-873.791 1010.42,-877.106 1019,-879.976"/>
<polygon fill="midnightblue" stroke="midnightblue" points="883.811,-790.916 873.927,-787.099 879.273,-796.247 883.811,-790.916"/>
</g>
<!-- Node7 -->
<g id="node7" class="node"><title>Node7</title>
<g id="a_node7"><a xlink:href="../../dd/d57/classengine_1_1actions_1_1_make_new_object_from_location_action.html#a2ebd225d5e10817ac79f4044867afa98" target="_top" xlink:title="engine.actions.MakeNewObject\lFromLocationAction.execute">
<polygon fill="white" stroke="black" points="1000,-831 1000,-861 1166,-861 1166,-831 1000,-831"/>
<text text-anchor="start" x="1008" y="-849" font-family="Helvetica,sans-Serif" font-size="10.00">engine.actions.MakeNewObject</text>
<text text-anchor="middle" x="1083" y="-838" font-family="Helvetica,sans-Serif" font-size="10.00">FromLocationAction.execute</text>
</a>
</g>
</g>
<!-- Node4&#45;&gt;Node7 -->
<g id="edge6" class="edge"><title>Node4&#45;&gt;Node7</title>
<path fill="none" stroke="midnightblue" d="M906.523,-790.613C932.439,-800.124 964.778,-811.635 994,-821 1004.59,-824.393 1015.96,-827.8 1026.91,-830.959"/>
<polygon fill="midnightblue" stroke="midnightblue" points="907.518,-787.249 896.924,-787.074 905.096,-793.817 907.518,-787.249"/>
</g>
<!-- Node8 -->
<g id="node8" class="node"><title>Node8</title>
<g id="a_node8"><a xlink:href="../../db/d61/classengine_1_1actions_1_1_make_new_object_from_object_action.html#a01ffb165d6169f7b0a22733e2b6c61a9" target="_top" xlink:title="engine.actions.MakeNewObject\lFromObjectAction.execute">
<polygon fill="white" stroke="black" points="1000,-782 1000,-812 1166,-812 1166,-782 1000,-782"/>
<text text-anchor="start" x="1008" y="-800" font-family="Helvetica,sans-Serif" font-size="10.00">engine.actions.MakeNewObject</text>
<text text-anchor="middle" x="1083" y="-789" font-family="Helvetica,sans-Serif" font-size="10.00">FromObjectAction.execute</text>
</a>
</g>
</g>
<!-- Node4&#45;&gt;Node8 -->
<g id="edge7" class="edge"><title>Node4&#45;&gt;Node8</title>
<path fill="none" stroke="midnightblue" d="M946.838,-781.982C964.326,-783.925 982.575,-785.953 999.801,-787.867"/>
<polygon fill="midnightblue" stroke="midnightblue" points="946.969,-778.475 936.643,-780.849 946.196,-785.432 946.969,-778.475"/>
</g>
<!-- Node9 -->
<g id="node9" class="node"><title>Node9</title>
<g id="a_node9"><a xlink:href="../../da/d16/classengine_1_1actions_1_1_make_new_random_object_action.html#a82ccd5604bd05170e416e41b32020f00" target="_top" xlink:title="engine.actions.MakeNewRandom\lObjectAction.makeRandomObject">
<polygon fill="white" stroke="black" points="994,-733 994,-763 1172,-763 1172,-733 994,-733"/>
<text text-anchor="start" x="1002" y="-751" font-family="Helvetica,sans-Serif" font-size="10.00">engine.actions.MakeNewRandom</text>
<text text-anchor="middle" x="1083" y="-740" font-family="Helvetica,sans-Serif" font-size="10.00">ObjectAction.makeRandomObject</text>
</a>
</g>
</g>
<!-- Node4&#45;&gt;Node9 -->
<g id="edge8" class="edge"><title>Node4&#45;&gt;Node9</title>
<path fill="none" stroke="midnightblue" d="M946.705,-762.431C962.167,-760.782 978.229,-759.069 993.656,-757.423"/>
<polygon fill="midnightblue" stroke="midnightblue" points="946.216,-758.964 936.643,-763.505 946.958,-765.924 946.216,-758.964"/>
</g>
<!-- Node11 -->
<g id="node11" class="node"><title>Node11</title>
<g id="a_node11"><a xlink:href="../../db/db5/classengine_1_1actions_1_1render_1_1_change_image_type_action.html#a09110a0a08bac229b9e2feddf1d3378c" target="_top" xlink:title="engine.actions.render.Change\lImageTypeAction.execute">
<polygon fill="white" stroke="black" points="1003,-684 1003,-714 1163,-714 1163,-684 1003,-684"/>
<text text-anchor="start" x="1011" y="-702" font-family="Helvetica,sans-Serif" font-size="10.00">engine.actions.render.Change</text>
<text text-anchor="middle" x="1083" y="-691" font-family="Helvetica,sans-Serif" font-size="10.00">ImageTypeAction.execute</text>
</a>
</g>
</g>
<!-- Node4&#45;&gt;Node11 -->
<g id="edge10" class="edge"><title>Node4&#45;&gt;Node11</title>
<path fill="none" stroke="midnightblue" d="M940.21,-753.879C946.314,-751.799 952.306,-749.511 958,-747 975.595,-739.241 976.498,-730.966 994,-723 1001.35,-719.654 1009.27,-716.689 1017.23,-714.086"/>
<polygon fill="midnightblue" stroke="midnightblue" points="939.003,-750.59 930.549,-756.977 941.141,-757.256 939.003,-750.59"/>
</g>
<!-- Node12 -->
<g id="node12" class="node"><title>Node12</title>
<g id="a_node12"><a xlink:href="../../d3/dbb/classengine_1_1actions_1_1render_1_1_paint_canvas.html#a3f4cb25dfb09aa686debf838e806b010" target="_top" xlink:title="engine.actions.render.Paint\lCanvas.applyRender">
<polygon fill="white" stroke="black" points="1010,-635 1010,-665 1156,-665 1156,-635 1010,-635"/>
<text text-anchor="start" x="1018" y="-653" font-family="Helvetica,sans-Serif" font-size="10.00">engine.actions.render.Paint</text>
<text text-anchor="middle" x="1083" y="-642" font-family="Helvetica,sans-Serif" font-size="10.00">Canvas.applyRender</text>
</a>
</g>
</g>
<!-- Node4&#45;&gt;Node12 -->
<g id="edge11" class="edge"><title>Node4&#45;&gt;Node12</title>
<path fill="none" stroke="midnightblue" d="M945.738,-755.12C950.074,-752.752 954.198,-750.06 958,-747 986.182,-724.32 966.087,-697.011 994,-674 998.765,-670.071 1004.12,-666.783 1009.78,-664.03"/>
<polygon fill="midnightblue" stroke="midnightblue" points="944.061,-752.043 936.575,-759.541 947.102,-758.348 944.061,-752.043"/>
</g>
<!-- Node13 -->
<g id="node13" class="node"><title>Node13</title>
<g id="a_node13"><a xlink:href="../../dd/d8d/classengine_1_1render_1_1_renderer.html#a189dda9a8463274afe267959860f0dee" target="_top" xlink:title="engine.render.Renderer.render\lGameObjects">
<polygon fill="white" stroke="black" points="1002,-586 1002,-616 1164,-616 1164,-586 1002,-586"/>
<text text-anchor="start" x="1010" y="-604" font-family="Helvetica,sans-Serif" font-size="10.00">engine.render.Renderer.render</text>
<text text-anchor="middle" x="1083" y="-593" font-family="Helvetica,sans-Serif" font-size="10.00">GameObjects</text>
</a>
</g>
</g>
<!-- Node4&#45;&gt;Node13 -->
<g id="edge12" class="edge"><title>Node4&#45;&gt;Node13</title>
<path fill="none" stroke="midnightblue" d="M945.644,-756.331C950.095,-753.665 954.262,-750.576 958,-747 998.851,-707.92 953.613,-664.56 994,-625 997.507,-621.565 1001.45,-618.61 1005.69,-616.069"/>
<polygon fill="midnightblue" stroke="midnightblue" points="944.022,-753.23 936.77,-760.954 947.256,-759.438 944.022,-753.23"/>
</g>
<!-- Node10 -->
<g id="node10" class="node"><title>Node10</title>
<g id="a_node10"><a xlink:href="../../da/d16/classengine_1_1actions_1_1_make_new_random_object_action.html#aa831c4b818ed75f812bf8ba0d453c942" target="_top" xlink:title="engine.actions.MakeNewRandom\lObjectAction.execute">
<polygon fill="white" stroke="black" points="1212.5,-733 1212.5,-763 1387.5,-763 1387.5,-733 1212.5,-733"/>
<text text-anchor="start" x="1220.5" y="-751" font-family="Helvetica,sans-Serif" font-size="10.00">engine.actions.MakeNewRandom</text>
<text text-anchor="middle" x="1300" y="-740" font-family="Helvetica,sans-Serif" font-size="10.00">ObjectAction.execute</text>
</a>
</g>
</g>
<!-- Node9&#45;&gt;Node10 -->
<g id="edge9" class="edge"><title>Node9&#45;&gt;Node10</title>
<path fill="none" stroke="midnightblue" d="M1182.14,-748C1192.25,-748 1202.48,-748 1212.46,-748"/>
<polygon fill="midnightblue" stroke="midnightblue" points="1182.07,-744.5 1172.07,-748 1182.07,-751.5 1182.07,-744.5"/>
</g>
<!-- Node14 -->
<g id="node14" class="node"><title>Node14</title>
<g id="a_node14"><a xlink:href="../../df/d67/classengine_1_1level_1_1_level_manager.html#a523599892453015eed0f1b506979af8a" target="_top" xlink:title="engine.level.LevelManager.initialize\lCurrentLevel">
<polygon fill="white" stroke="black" points="1208,-586 1208,-616 1392,-616 1392,-586 1208,-586"/>
<text text-anchor="start" x="1216" y="-604" font-family="Helvetica,sans-Serif" font-size="10.00">engine.level.LevelManager.initialize</text>
<text text-anchor="middle" x="1300" y="-593" font-family="Helvetica,sans-Serif" font-size="10.00">CurrentLevel</text>
</a>
</g>
</g>
<!-- Node13&#45;&gt;Node14 -->
<g id="edge13" class="edge"><title>Node13&#45;&gt;Node14</title>
<path fill="none" stroke="midnightblue" d="M1174.15,-601C1185.22,-601 1196.55,-601 1207.65,-601"/>
<polygon fill="midnightblue" stroke="midnightblue" points="1174.06,-597.5 1164.06,-601 1174.06,-604.5 1174.06,-597.5"/>
</g>
<!-- Node15 -->
<g id="node15" class="node"><title>Node15</title>
<g id="a_node15"><a xlink:href="../../df/d67/classengine_1_1level_1_1_level_manager.html#a1d0f314bbf304bf86067ab87b832d2e0" target="_top" xlink:title="engine.level.LevelManager.find\lAndSetStartLevel">
<polygon fill="white" stroke="black" points="1428.5,-611 1428.5,-641 1591.5,-641 1591.5,-611 1428.5,-611"/>
<text text-anchor="start" x="1436.5" y="-629" font-family="Helvetica,sans-Serif" font-size="10.00">engine.level.LevelManager.find</text>
<text text-anchor="middle" x="1510" y="-618" font-family="Helvetica,sans-Serif" font-size="10.00">AndSetStartLevel</text>
</a>
</g>
</g>
<!-- Node14&#45;&gt;Node15 -->
<g id="edge14" class="edge"><title>Node14&#45;&gt;Node15</title>
<path fill="none" stroke="midnightblue" d="M1402.4,-613.188C1411.09,-614.232 1419.8,-615.279 1428.29,-616.299"/>
<polygon fill="midnightblue" stroke="midnightblue" points="1402.58,-609.684 1392.23,-611.965 1401.74,-616.634 1402.58,-609.684"/>
</g>
<!-- Node17 -->
<g id="node17" class="node"><title>Node17</title>
<g id="a_node17"><a xlink:href="../../df/d67/classengine_1_1level_1_1_level_manager.html#ad89101547413fe335873b050fd091c79" target="_top" xlink:title="engine.level.LevelManager.set\lCurrentLevel">
<polygon fill="white" stroke="black" points="1429.5,-562 1429.5,-592 1590.5,-592 1590.5,-562 1429.5,-562"/>
<text text-anchor="start" x="1437.5" y="-580" font-family="Helvetica,sans-Serif" font-size="10.00">engine.level.LevelManager.set</text>
<text text-anchor="middle" x="1510" y="-569" font-family="Helvetica,sans-Serif" font-size="10.00">CurrentLevel</text>
</a>
</g>
</g>
<!-- Node14&#45;&gt;Node17 -->
<g id="edge16" class="edge"><title>Node14&#45;&gt;Node17</title>
<path fill="none" stroke="midnightblue" d="M1402.39,-589.301C1411.41,-588.26 1420.46,-587.217 1429.26,-586.201"/>
<polygon fill="midnightblue" stroke="midnightblue" points="1401.76,-585.85 1392.23,-590.473 1402.57,-592.804 1401.76,-585.85"/>
</g>
<!-- Node16 -->
<g id="node16" class="node"><title>Node16</title>
<g id="a_node16"><a xlink:href="../../df/d67/classengine_1_1level_1_1_level_manager.html#a587b50d02654d70122a28bcda169bb8d" target="_top" xlink:title="engine.level.LevelManager.\lLevelManager">
<polygon fill="white" stroke="black" points="1646,-611 1646,-641 1792,-641 1792,-611 1646,-611"/>
<text text-anchor="start" x="1654" y="-629" font-family="Helvetica,sans-Serif" font-size="10.00">engine.level.LevelManager.</text>
<text text-anchor="middle" x="1719" y="-618" font-family="Helvetica,sans-Serif" font-size="10.00">LevelManager</text>
</a>
</g>
</g>
<!-- Node15&#45;&gt;Node16 -->
<g id="edge15" class="edge"><title>Node15&#45;&gt;Node16</title>
<path fill="none" stroke="midnightblue" d="M1601.74,-626C1616.44,-626 1631.5,-626 1645.69,-626"/>
<polygon fill="midnightblue" stroke="midnightblue" points="1601.62,-622.5 1591.62,-626 1601.62,-629.5 1601.62,-622.5"/>
</g>
<!-- Node18 -->
<g id="node18" class="node"><title>Node18</title>
<g id="a_node18"><a xlink:href="../../df/d67/classengine_1_1level_1_1_level_manager.html#ad3c392cf6260c53428255fb596442692" target="_top" xlink:title="engine.level.LevelManager.change\lToLevel">
<polygon fill="white" stroke="black" points="1628.5,-562 1628.5,-592 1809.5,-592 1809.5,-562 1628.5,-562"/>
<text text-anchor="start" x="1636.5" y="-580" font-family="Helvetica,sans-Serif" font-size="10.00">engine.level.LevelManager.change</text>
<text text-anchor="middle" x="1719" y="-569" font-family="Helvetica,sans-Serif" font-size="10.00">ToLevel</text>
</a>
</g>
</g>
<!-- Node17&#45;&gt;Node18 -->
<g id="edge17" class="edge"><title>Node17&#45;&gt;Node18</title>
<path fill="none" stroke="midnightblue" d="M1600.92,-577C1610,-577 1619.23,-577 1628.31,-577"/>
<polygon fill="midnightblue" stroke="midnightblue" points="1600.74,-573.5 1590.74,-577 1600.74,-580.5 1600.74,-573.5"/>
</g>
<!-- Node19 -->
<g id="node19" class="node"><title>Node19</title>
<g id="a_node19"><a xlink:href="../../d1/d73/classengine_1_1actions_1_1_change_level_action.html#a8190adf308768b0d12f6432d0cf0fbc4" target="_top" xlink:title="engine.actions.ChangeLevel\lAction.execute">
<polygon fill="white" stroke="black" points="1846.5,-562 1846.5,-592 1997.5,-592 1997.5,-562 1846.5,-562"/>
<text text-anchor="start" x="1854.5" y="-580" font-family="Helvetica,sans-Serif" font-size="10.00">engine.actions.ChangeLevel</text>
<text text-anchor="middle" x="1922" y="-569" font-family="Helvetica,sans-Serif" font-size="10.00">Action.execute</text>
</a>
</g>
</g>
<!-- Node18&#45;&gt;Node19 -->
<g id="edge18" class="edge"><title>Node18&#45;&gt;Node19</title>
<path fill="none" stroke="midnightblue" d="M1819.71,-577C1828.65,-577 1837.61,-577 1846.29,-577"/>
<polygon fill="midnightblue" stroke="midnightblue" points="1819.62,-573.5 1809.62,-577 1819.62,-580.5 1819.62,-573.5"/>
</g>
<!-- Node21 -->
<g id="node21" class="node"><title>Node21</title>
<g id="a_node21"><a xlink:href="../../db/dbb/classengine_1_1actions_1_1_fixed_collision_type_action.html#a4335f03e3a33ba714562e4e187cf0ae2" target="_top" xlink:title="engine.actions.FixedCollision\lTypeAction.applyPhysics">
<polygon fill="white" stroke="black" points="780,-409 780,-439 932,-439 932,-409 780,-409"/>
<text text-anchor="start" x="788" y="-427" font-family="Helvetica,sans-Serif" font-size="10.00">engine.actions.FixedCollision</text>
<text text-anchor="middle" x="856" y="-416" font-family="Helvetica,sans-Serif" font-size="10.00">TypeAction.applyPhysics</text>
</a>
</g>
</g>
<!-- Node20&#45;&gt;Node21 -->
<g id="edge20" class="edge"><title>Node20&#45;&gt;Node21</title>
<path fill="none" stroke="midnightblue" d="M699.348,-435.598C726.11,-433.604 754.613,-431.48 779.817,-429.602"/>
<polygon fill="midnightblue" stroke="midnightblue" points="698.899,-432.121 689.187,-436.355 699.419,-439.102 698.899,-432.121"/>
</g>
<!-- Node22 -->
<g id="node22" class="node"><title>Node22</title>
<g id="a_node22"><a xlink:href="../../d7/de2/classengine_1_1actions_1_1_fixed_collision_action.html#a9d8b1ea6e0e71b027fcaa18f52ba3908" target="_top" xlink:title="engine.actions.FixedCollision\lAction.applyPhysics">
<polygon fill="white" stroke="black" points="780,-360 780,-390 932,-390 932,-360 780,-360"/>
<text text-anchor="start" x="788" y="-378" font-family="Helvetica,sans-Serif" font-size="10.00">engine.actions.FixedCollision</text>
<text text-anchor="middle" x="856" y="-367" font-family="Helvetica,sans-Serif" font-size="10.00">Action.applyPhysics</text>
</a>
</g>
</g>
<!-- Node20&#45;&gt;Node22 -->
<g id="edge21" class="edge"><title>Node20&#45;&gt;Node22</title>
<path fill="none" stroke="midnightblue" d="M694.671,-425.386C702.642,-423.167 710.51,-420.71 718,-418 735.012,-411.844 737.065,-405.364 754,-399 762.942,-395.64 772.51,-392.642 782.062,-390.001"/>
<polygon fill="midnightblue" stroke="midnightblue" points="693.685,-422.026 684.918,-427.975 695.481,-428.792 693.685,-422.026"/>
</g>
<!-- Node23 -->
<g id="node23" class="node"><title>Node23</title>
<g id="a_node23"><a xlink:href="../../d4/daa/classengine_1_1collision_1_1objects_1_1_fixed_object_collision_object.html#a21a31d8fafaaa37c7ca7d92ed0b015f1" target="_top" xlink:title="engine.collision.objects.\lFixedObjectCollisionObject.handle\lEnemyCollisionObject">
<polygon fill="white" stroke="black" points="768,-300.5 768,-341.5 944,-341.5 944,-300.5 768,-300.5"/>
<text text-anchor="start" x="776" y="-329.5" font-family="Helvetica,sans-Serif" font-size="10.00">engine.collision.objects.</text>
<text text-anchor="start" x="776" y="-318.5" font-family="Helvetica,sans-Serif" font-size="10.00">FixedObjectCollisionObject.handle</text>
<text text-anchor="middle" x="856" y="-307.5" font-family="Helvetica,sans-Serif" font-size="10.00">EnemyCollisionObject</text>
</a>
</g>
</g>
<!-- Node20&#45;&gt;Node23 -->
<g id="edge22" class="edge"><title>Node20&#45;&gt;Node23</title>
<path fill="none" stroke="midnightblue" d="M698.668,-429.249C705.542,-426.174 712.081,-422.465 718,-418 745.299,-397.405 727.448,-371.549 754,-350 758.25,-346.551 762.89,-343.512 767.772,-340.835"/>
<polygon fill="midnightblue" stroke="midnightblue" points="697.104,-426.105 689.114,-433.062 699.699,-432.607 697.104,-426.105"/>
</g>
<!-- Node24 -->
<g id="node24" class="node"><title>Node24</title>
<g id="a_node24"><a xlink:href="../../d4/daa/classengine_1_1collision_1_1objects_1_1_fixed_object_collision_object.html#a2e8390b2a80569d4462e04c5706831cb" target="_top" xlink:title="engine.collision.objects.\lFixedObjectCollisionObject.handle\lFixedObjectCollisionObject">
<polygon fill="white" stroke="black" points="768,-240.5 768,-281.5 944,-281.5 944,-240.5 768,-240.5"/>
<text text-anchor="start" x="776" y="-269.5" font-family="Helvetica,sans-Serif" font-size="10.00">engine.collision.objects.</text>
<text text-anchor="start" x="776" y="-258.5" font-family="Helvetica,sans-Serif" font-size="10.00">FixedObjectCollisionObject.handle</text>
<text text-anchor="middle" x="856" y="-247.5" font-family="Helvetica,sans-Serif" font-size="10.00">FixedObjectCollisionObject</text>
</a>
</g>
</g>
<!-- Node20&#45;&gt;Node24 -->
<g id="edge23" class="edge"><title>Node20&#45;&gt;Node24</title>
<path fill="none" stroke="midnightblue" d="M698.343,-431.302C705.51,-427.798 712.191,-423.429 718,-418 760.86,-377.937 712.776,-332.743 754,-291 758.113,-286.835 762.776,-283.243 767.787,-280.145"/>
<polygon fill="midnightblue" stroke="midnightblue" points="696.846,-428.135 689.033,-435.291 699.604,-434.569 696.846,-428.135"/>
</g>
<!-- Node25 -->
<g id="node25" class="node"><title>Node25</title>
<g id="a_node25"><a xlink:href="../../dc/d87/classengine_1_1collision_1_1objects_1_1_hero_collision_object.html#a3dc5a68b37238352c99bca91dfc8f9a1" target="_top" xlink:title="engine.collision.objects.\lHeroCollisionObject.handleFixed\lObjectCollisionObject">
<polygon fill="white" stroke="black" points="771.5,-697.5 771.5,-738.5 940.5,-738.5 940.5,-697.5 771.5,-697.5"/>
<text text-anchor="start" x="779.5" y="-726.5" font-family="Helvetica,sans-Serif" font-size="10.00">engine.collision.objects.</text>
<text text-anchor="start" x="779.5" y="-715.5" font-family="Helvetica,sans-Serif" font-size="10.00">HeroCollisionObject.handleFixed</text>
<text text-anchor="middle" x="856" y="-704.5" font-family="Helvetica,sans-Serif" font-size="10.00">ObjectCollisionObject</text>
</a>
</g>
</g>
<!-- Node20&#45;&gt;Node25 -->
<g id="edge24" class="edge"><title>Node20&#45;&gt;Node25</title>
<path fill="none" stroke="midnightblue" d="M629.476,-464.32C656.349,-485.262 695.225,-519.589 718,-558 748.359,-609.2 712.454,-644.374 754,-687 758.993,-692.123 764.809,-696.404 771.081,-699.981"/>
<polygon fill="midnightblue" stroke="midnightblue" points="631.28,-461.294 621.209,-458.003 627.03,-466.856 631.28,-461.294"/>
</g>
<!-- Node26 -->
<g id="node26" class="node"><title>Node26</title>
<g id="a_node26"><a xlink:href="../../d6/db8/classengine_1_1collision_1_1objects_1_1_powerup_collision_object.html#a4e09b2b8b7cfbcdd6def8332de2025b7" target="_top" xlink:title="engine.collision.objects.\lPowerupCollisionObject.handleFixed\lObjectCollisionObject">
<polygon fill="white" stroke="black" points="763,-637.5 763,-678.5 949,-678.5 949,-637.5 763,-637.5"/>
<text text-anchor="start" x="771" y="-666.5" font-family="Helvetica,sans-Serif" font-size="10.00">engine.collision.objects.</text>
<text text-anchor="start" x="771" y="-655.5" font-family="Helvetica,sans-Serif" font-size="10.00">PowerupCollisionObject.handleFixed</text>
<text text-anchor="middle" x="856" y="-644.5" font-family="Helvetica,sans-Serif" font-size="10.00">ObjectCollisionObject</text>
</a>
</g>
</g>
<!-- Node20&#45;&gt;Node26 -->
<g id="edge25" class="edge"><title>Node20&#45;&gt;Node26</title>
<path fill="none" stroke="midnightblue" d="M626.822,-464.749C652.442,-486.47 691.039,-521.757 718,-558 738.645,-585.753 727.408,-604.88 754,-627 758.794,-630.988 764.097,-634.464 769.688,-637.493"/>
<polygon fill="midnightblue" stroke="midnightblue" points="628.904,-461.928 618.991,-458.19 624.409,-467.294 628.904,-461.928"/>
</g>
<!-- Node27 -->
<g id="node27" class="node"><title>Node27</title>
<g id="a_node27"><a xlink:href="../../db/d3a/classengine_1_1collision_1_1objects_1_1_enemy_collision_object.html#a8cf5b65593cec2850e2f94a8d6deb670" target="_top" xlink:title="engine.collision.objects.\lEnemyCollisionObject.handleFixed\lObjectCollisionObject">
<polygon fill="white" stroke="black" points="766.5,-577.5 766.5,-618.5 945.5,-618.5 945.5,-577.5 766.5,-577.5"/>
<text text-anchor="start" x="774.5" y="-606.5" font-family="Helvetica,sans-Serif" font-size="10.00">engine.collision.objects.</text>
<text text-anchor="start" x="774.5" y="-595.5" font-family="Helvetica,sans-Serif" font-size="10.00">EnemyCollisionObject.handleFixed</text>
<text text-anchor="middle" x="856" y="-584.5" font-family="Helvetica,sans-Serif" font-size="10.00">ObjectCollisionObject</text>
</a>
</g>
</g>
<!-- Node20&#45;&gt;Node27 -->
<g id="edge26" class="edge"><title>Node20&#45;&gt;Node27</title>
<path fill="none" stroke="midnightblue" d="M622.092,-465.427C650.35,-492.948 701.894,-539.351 754,-567 761.291,-570.869 769.14,-574.335 777.124,-577.422"/>
<polygon fill="midnightblue" stroke="midnightblue" points="624.337,-462.725 614.759,-458.196 619.423,-467.71 624.337,-462.725"/>
</g>
<!-- Node28 -->
<g id="node28" class="node"><title>Node28</title>
<g id="a_node28"><a xlink:href="../../d4/daa/classengine_1_1collision_1_1objects_1_1_fixed_object_collision_object.html#af3d610bd55f501a9d616abaf648dd870" target="_top" xlink:title="engine.collision.objects.\lFixedObjectCollisionObject.handle\lHeroCollisionObject">
<polygon fill="white" stroke="black" points="768,-517.5 768,-558.5 944,-558.5 944,-517.5 768,-517.5"/>
<text text-anchor="start" x="776" y="-546.5" font-family="Helvetica,sans-Serif" font-size="10.00">engine.collision.objects.</text>
<text text-anchor="start" x="776" y="-535.5" font-family="Helvetica,sans-Serif" font-size="10.00">FixedObjectCollisionObject.handle</text>
<text text-anchor="middle" x="856" y="-524.5" font-family="Helvetica,sans-Serif" font-size="10.00">HeroCollisionObject</text>
</a>
</g>
</g>
<!-- Node20&#45;&gt;Node28 -->
<g id="edge27" class="edge"><title>Node20&#45;&gt;Node28</title>
<path fill="none" stroke="midnightblue" d="M643.101,-462.218C673.74,-475.557 716.026,-493.317 754,-507 763.922,-510.575 774.483,-514.108 784.894,-517.438"/>
<polygon fill="midnightblue" stroke="midnightblue" points="644.147,-458.855 633.583,-458.053 641.341,-465.268 644.147,-458.855"/>
</g>
<!-- Node29 -->
<g id="node29" class="node"><title>Node29</title>
<g id="a_node29"><a xlink:href="../../d4/daa/classengine_1_1collision_1_1objects_1_1_fixed_object_collision_object.html#aabbf81a8ea0fca531c76cb6355553303" target="_top" xlink:title="engine.collision.objects.\lFixedObjectCollisionObject.handle\lPowerupCollisionObject">
<polygon fill="white" stroke="black" points="768,-457.5 768,-498.5 944,-498.5 944,-457.5 768,-457.5"/>
<text text-anchor="start" x="776" y="-486.5" font-family="Helvetica,sans-Serif" font-size="10.00">engine.collision.objects.</text>
<text text-anchor="start" x="776" y="-475.5" font-family="Helvetica,sans-Serif" font-size="10.00">FixedObjectCollisionObject.handle</text>
<text text-anchor="middle" x="856" y="-464.5" font-family="Helvetica,sans-Serif" font-size="10.00">PowerupCollisionObject</text>
</a>
</g>
</g>
<!-- Node20&#45;&gt;Node29 -->
<g id="edge28" class="edge"><title>Node20&#45;&gt;Node29</title>
<path fill="none" stroke="midnightblue" d="M699.119,-456.605C721.7,-459.704 745.532,-462.975 767.584,-466.002"/>
<polygon fill="midnightblue" stroke="midnightblue" points="699.57,-453.134 689.187,-455.241 698.618,-460.069 699.57,-453.134"/>
</g>
<!-- Node33 -->
<g id="node33" class="node"><title>Node33</title>
<g id="a_node33"><a xlink:href="../../da/d8d/classauthoring_1_1view_1_1propertiesview_1_1_game_object_properties.html#a666800a7063c728f47a848ab730362d3" target="_top" xlink:title="authoring.view.propertiesview.\lGameObjectProperties.GameObjectProperties">
<polygon fill="white" stroke="black" points="480.5,-568 480.5,-598 717.5,-598 717.5,-568 480.5,-568"/>
<text text-anchor="start" x="488.5" y="-586" font-family="Helvetica,sans-Serif" font-size="10.00">authoring.view.propertiesview.</text>
<text text-anchor="middle" x="599" y="-575" font-family="Helvetica,sans-Serif" font-size="10.00">GameObjectProperties.GameObjectProperties</text>
</a>
</g>
</g>
<!-- Node32&#45;&gt;Node33 -->
<g id="edge32" class="edge"><title>Node32&#45;&gt;Node33</title>
<path fill="none" stroke="midnightblue" d="M453.821,-583C462.625,-583 471.512,-583 480.321,-583"/>
<polygon fill="midnightblue" stroke="midnightblue" points="453.535,-579.5 443.535,-583 453.535,-586.5 453.535,-579.5"/>
</g>
<!-- Node34&#45;&gt;Node20 -->
<g id="edge35" class="edge"><title>Node34&#45;&gt;Node20</title>
<path fill="none" stroke="midnightblue" d="M428.487,-411.825C457.05,-417.078 488.36,-422.836 516.212,-427.959"/>
<polygon fill="midnightblue" stroke="midnightblue" points="428.977,-408.357 418.508,-409.99 427.71,-415.241 428.977,-408.357"/>
</g>
<!-- Node35 -->
<g id="node35" class="node"><title>Node35</title>
<g id="a_node35"><a xlink:href="../../df/d04/classengine_1_1actions_1_1_reverse_velocity_i_d_action.html#a68591c8a222c853219a8e380671d42be" target="_top" xlink:title="engine.actions.ReverseVelocity\lIDAction.applyPhysics">
<polygon fill="white" stroke="black" points="517,-379 517,-409 681,-409 681,-379 517,-379"/>
<text text-anchor="start" x="525" y="-397" font-family="Helvetica,sans-Serif" font-size="10.00">engine.actions.ReverseVelocity</text>
<text text-anchor="middle" x="599" y="-386" font-family="Helvetica,sans-Serif" font-size="10.00">IDAction.applyPhysics</text>
</a>
</g>
</g>
<!-- Node34&#45;&gt;Node35 -->
<g id="edge34" class="edge"><title>Node34&#45;&gt;Node35</title>
<path fill="none" stroke="midnightblue" d="M428.536,-394.649C457.239,-394.539 488.712,-394.419 516.661,-394.312"/>
<polygon fill="midnightblue" stroke="midnightblue" points="428.495,-391.149 418.508,-394.688 428.522,-398.149 428.495,-391.149"/>
</g>
<!-- Node34&#45;&gt;Node36 -->
<g id="edge36" class="edge"><title>Node34&#45;&gt;Node36</title>
<path fill="none" stroke="midnightblue" d="M362.377,-373.22C415.003,-328.055 534.884,-225.169 580.202,-186.275"/>
<polygon fill="midnightblue" stroke="midnightblue" points="359.839,-370.786 354.53,-379.955 364.398,-376.098 359.839,-370.786"/>
</g>
<!-- Node37 -->
<g id="node37" class="node"><title>Node37</title>
<g id="a_node37"><a xlink:href="../../db/d3a/classengine_1_1collision_1_1objects_1_1_enemy_collision_object.html#a3fe5a215c527ee4263f5f1c2c851f58b" target="_top" xlink:title="engine.collision.objects.\lEnemyCollisionObject.handleEnemy\lCollisionObject">
<polygon fill="white" stroke="black" points="762,-60.5 762,-101.5 950,-101.5 950,-60.5 762,-60.5"/>
<text text-anchor="start" x="770" y="-89.5" font-family="Helvetica,sans-Serif" font-size="10.00">engine.collision.objects.</text>
<text text-anchor="start" x="770" y="-78.5" font-family="Helvetica,sans-Serif" font-size="10.00">EnemyCollisionObject.handleEnemy</text>
<text text-anchor="middle" x="856" y="-67.5" font-family="Helvetica,sans-Serif" font-size="10.00">CollisionObject</text>
</a>
</g>
</g>
<!-- Node36&#45;&gt;Node37 -->
<g id="edge37" class="edge"><title>Node36&#45;&gt;Node37</title>
<path fill="none" stroke="midnightblue" d="M645.589,-152.094C676.048,-139.746 717.137,-123.631 754,-111 763.344,-107.798 773.24,-104.612 783.04,-101.578"/>
<polygon fill="midnightblue" stroke="midnightblue" points="644.034,-148.948 636.092,-155.961 646.674,-155.431 644.034,-148.948"/>
</g>
<!-- Node38 -->
<g id="node38" class="node"><title>Node38</title>
<g id="a_node38"><a xlink:href="../../d6/db8/classengine_1_1collision_1_1objects_1_1_powerup_collision_object.html#a76f3d506523e34f32efeca2f2957c2f3" target="_top" xlink:title="engine.collision.objects.\lPowerupCollisionObject.handleEnemy\lCollisionObject">
<polygon fill="white" stroke="black" points="758.5,-0.5 758.5,-41.5 953.5,-41.5 953.5,-0.5 758.5,-0.5"/>
<text text-anchor="start" x="766.5" y="-29.5" font-family="Helvetica,sans-Serif" font-size="10.00">engine.collision.objects.</text>
<text text-anchor="start" x="766.5" y="-18.5" font-family="Helvetica,sans-Serif" font-size="10.00">PowerupCollisionObject.handleEnemy</text>
<text text-anchor="middle" x="856" y="-7.5" font-family="Helvetica,sans-Serif" font-size="10.00">CollisionObject</text>
</a>
</g>
</g>
<!-- Node36&#45;&gt;Node38 -->
<g id="edge38" class="edge"><title>Node36&#45;&gt;Node38</title>
<path fill="none" stroke="midnightblue" d="M622.65,-148.837C651.108,-122.119 702.487,-77.5137 754,-51 760.75,-47.526 767.965,-44.39 775.318,-41.5736"/>
<polygon fill="midnightblue" stroke="midnightblue" points="620.088,-146.443 615.25,-155.868 624.91,-151.517 620.088,-146.443"/>
</g>
<!-- Node39 -->
<g id="node39" class="node"><title>Node39</title>
<g id="a_node39"><a xlink:href="../../d6/db8/classengine_1_1collision_1_1objects_1_1_powerup_collision_object.html#a2bfd0d14c115bfbf39c23435d6660535" target="_top" xlink:title="engine.collision.objects.\lPowerupCollisionObject.handlePowerup\lCollisionObject">
<polygon fill="white" stroke="black" points="754.5,-180.5 754.5,-221.5 957.5,-221.5 957.5,-180.5 754.5,-180.5"/>
<text text-anchor="start" x="762.5" y="-209.5" font-family="Helvetica,sans-Serif" font-size="10.00">engine.collision.objects.</text>
<text text-anchor="start" x="762.5" y="-198.5" font-family="Helvetica,sans-Serif" font-size="10.00">PowerupCollisionObject.handlePowerup</text>
<text text-anchor="middle" x="856" y="-187.5" font-family="Helvetica,sans-Serif" font-size="10.00">CollisionObject</text>
</a>
</g>
</g>
<!-- Node36&#45;&gt;Node39 -->
<g id="edge39" class="edge"><title>Node36&#45;&gt;Node39</title>
<path fill="none" stroke="midnightblue" d="M707.93,-183.698C723.355,-185.512 739.171,-187.373 754.446,-189.17"/>
<polygon fill="midnightblue" stroke="midnightblue" points="708.201,-180.205 697.86,-182.513 707.383,-187.158 708.201,-180.205"/>
</g>
<!-- Node40 -->
<g id="node40" class="node"><title>Node40</title>
<g id="a_node40"><a xlink:href="../../db/d3a/classengine_1_1collision_1_1objects_1_1_enemy_collision_object.html#aaf077e8098fd696546883adbb1081c04" target="_top" xlink:title="engine.collision.objects.\lEnemyCollisionObject.handlePowerup\lCollisionObject">
<polygon fill="white" stroke="black" points="758.5,-120.5 758.5,-161.5 953.5,-161.5 953.5,-120.5 758.5,-120.5"/>
<text text-anchor="start" x="766.5" y="-149.5" font-family="Helvetica,sans-Serif" font-size="10.00">engine.collision.objects.</text>
<text text-anchor="start" x="766.5" y="-138.5" font-family="Helvetica,sans-Serif" font-size="10.00">EnemyCollisionObject.handlePowerup</text>
<text text-anchor="middle" x="856" y="-127.5" font-family="Helvetica,sans-Serif" font-size="10.00">CollisionObject</text>
</a>
</g>
</g>
<!-- Node36&#45;&gt;Node40 -->
<g id="edge40" class="edge"><title>Node36&#45;&gt;Node40</title>
<path fill="none" stroke="midnightblue" d="M708.151,-158.276C724.788,-156.319 741.875,-154.309 758.243,-152.383"/>
<polygon fill="midnightblue" stroke="midnightblue" points="707.383,-154.842 697.86,-159.487 708.201,-161.795 707.383,-154.842"/>
</g>
</g>
</svg>
