<?xml version="1.0" encoding="UTF-8" standalone="no"?>
<!DOCTYPE svg PUBLIC "-//W3C//DTD SVG 1.1//EN"
 "http://www.w3.org/Graphics/SVG/1.1/DTD/svg11.dtd">
<!-- Generated by graphviz version 2.36.0 (20140111.2315)
 -->
<!-- Title: engine.gameObject.GameObject.getHeight Pages: 1 -->
<svg width="1766pt" height="479pt"
 viewBox="0.00 0.00 1766.00 479.00" xmlns="http://www.w3.org/2000/svg" xmlns:xlink="http://www.w3.org/1999/xlink">
<g id="graph0" class="graph" transform="scale(1 1) rotate(0) translate(4 475)">
<title>engine.gameObject.GameObject.getHeight</title>
<polygon fill="white" stroke="none" points="-4,4 -4,-475 1762,-475 1762,4 -4,4"/>
<!-- Node1 -->
<g id="node1" class="node"><title>Node1</title>
<polygon fill="#bfbfbf" stroke="black" points="0,-124 0,-154 192,-154 192,-124 0,-124"/>
<text text-anchor="start" x="8" y="-142" font-family="Helvetica,sans-Serif" font-size="10.00">engine.gameObject.GameObject.get</text>
<text text-anchor="middle" x="96" y="-131" font-family="Helvetica,sans-Serif" font-size="10.00">Height</text>
</g>
<!-- Node2 -->
<g id="node2" class="node"><title>Node2</title>
<g id="a_node2"><a xlink:href="../../d1/d00/classauthoring_1_1view_1_1levelview_1_1_single_level_view.html#a60f24fcbffcbc0a7dca8b82adfcc3211" target="_top" xlink:title="authoring.view.levelview.\lSingleLevelView.addGameObjectToView">
<polygon fill="white" stroke="black" points="234,-306 234,-336 438,-336 438,-306 234,-306"/>
<text text-anchor="start" x="242" y="-324" font-family="Helvetica,sans-Serif" font-size="10.00">authoring.view.levelview.</text>
<text text-anchor="middle" x="336" y="-313" font-family="Helvetica,sans-Serif" font-size="10.00">SingleLevelView.addGameObjectToView</text>
</a>
</g>
</g>
<!-- Node1&#45;&gt;Node2 -->
<g id="edge1" class="edge"><title>Node1&#45;&gt;Node2</title>
<path fill="none" stroke="midnightblue" d="M125.106,-160.493C173.919,-197.82 273.175,-273.722 315.342,-305.967"/>
<polygon fill="midnightblue" stroke="midnightblue" points="126.952,-157.498 116.882,-154.204 122.7,-163.059 126.952,-157.498"/>
</g>
<!-- Node6 -->
<g id="node6" class="node"><title>Node6</title>
<g id="a_node6"><a xlink:href="../../df/de5/classengine_1_1render_1_1_game_object_renderer.html#a72580570f971246ef79428f21b6d25e9" target="_top" xlink:title="engine.render.GameObject\lRenderer.createImageAndView">
<polygon fill="white" stroke="black" points="254.5,-195 254.5,-225 417.5,-225 417.5,-195 254.5,-195"/>
<text text-anchor="start" x="262.5" y="-213" font-family="Helvetica,sans-Serif" font-size="10.00">engine.render.GameObject</text>
<text text-anchor="middle" x="336" y="-202" font-family="Helvetica,sans-Serif" font-size="10.00">Renderer.createImageAndView</text>
</a>
</g>
</g>
<!-- Node1&#45;&gt;Node6 -->
<g id="edge5" class="edge"><title>Node1&#45;&gt;Node6</title>
<path fill="none" stroke="midnightblue" d="M145.626,-157.485C170.128,-166.438 200.42,-176.961 228,-185 240.088,-188.523 253.055,-191.891 265.644,-194.95"/>
<polygon fill="midnightblue" stroke="midnightblue" points="146.788,-154.183 136.194,-154.012 144.369,-160.752 146.788,-154.183"/>
</g>
<!-- Node11 -->
<g id="node11" class="node"><title>Node11</title>
<g id="a_node11"><a xlink:href="../../db/d61/classengine_1_1actions_1_1_make_new_object_from_object_action.html#a01ffb165d6169f7b0a22733e2b6c61a9" target="_top" xlink:title="engine.actions.MakeNewObject\lFromObjectAction.execute">
<polygon fill="white" stroke="black" points="760,-0 760,-30 926,-30 926,-0 760,-0"/>
<text text-anchor="start" x="768" y="-18" font-family="Helvetica,sans-Serif" font-size="10.00">engine.actions.MakeNewObject</text>
<text text-anchor="middle" x="843" y="-7" font-family="Helvetica,sans-Serif" font-size="10.00">FromObjectAction.execute</text>
</a>
</g>
</g>
<!-- Node1&#45;&gt;Node11 -->
<g id="edge24" class="edge"><title>Node1&#45;&gt;Node11</title>
<path fill="none" stroke="midnightblue" d="M202.474,-128.298C326.712,-114.6 538.878,-87.7789 718,-48 731.375,-45.0298 760.522,-37.2957 787.199,-30.0612"/>
<polygon fill="midnightblue" stroke="midnightblue" points="201.767,-124.854 192.207,-129.422 202.529,-131.813 201.767,-124.854"/>
</g>
<!-- Node23 -->
<g id="node23" class="node"><title>Node23</title>
<g id="a_node23"><a xlink:href="../../df/de5/classengine_1_1render_1_1_game_object_renderer.html#a1d5f0ad1a571faec3c1a364bccc4c038" target="_top" xlink:title="engine.render.GameObject\lRenderer.createLabel">
<polygon fill="white" stroke="black" points="263,-146 263,-176 409,-176 409,-146 263,-146"/>
<text text-anchor="start" x="271" y="-164" font-family="Helvetica,sans-Serif" font-size="10.00">engine.render.GameObject</text>
<text text-anchor="middle" x="336" y="-153" font-family="Helvetica,sans-Serif" font-size="10.00">Renderer.createLabel</text>
</a>
</g>
</g>
<!-- Node1&#45;&gt;Node23 -->
<g id="edge22" class="edge"><title>Node1&#45;&gt;Node23</title>
<path fill="none" stroke="midnightblue" d="M202.098,-148.715C222.598,-150.61 243.656,-152.556 262.793,-154.325"/>
<polygon fill="midnightblue" stroke="midnightblue" points="202.37,-145.225 192.09,-147.79 201.725,-152.196 202.37,-145.225"/>
</g>
<!-- Node24 -->
<g id="node24" class="node"><title>Node24</title>
<g id="a_node24"><a xlink:href="../../d0/d7f/classengine_1_1game_object_1_1_game_object.html#aa99b0343da84d676c7709cee3cfbc4e1" target="_top" xlink:title="engine.gameObject.GameObject.\lGameObject">
<polygon fill="white" stroke="black" points="248,-58 248,-88 424,-88 424,-58 248,-58"/>
<text text-anchor="start" x="256" y="-76" font-family="Helvetica,sans-Serif" font-size="10.00">engine.gameObject.GameObject.</text>
<text text-anchor="middle" x="336" y="-65" font-family="Helvetica,sans-Serif" font-size="10.00">GameObject</text>
</a>
</g>
</g>
<!-- Node1&#45;&gt;Node24 -->
<g id="edge25" class="edge"><title>Node1&#45;&gt;Node24</title>
<path fill="none" stroke="midnightblue" d="M161.075,-121.231C198.402,-110.88 244.966,-97.9674 280.518,-88.1084"/>
<polygon fill="midnightblue" stroke="midnightblue" points="160.005,-117.896 151.304,-123.941 161.875,-124.641 160.005,-117.896"/>
</g>
<!-- Node25 -->
<g id="node25" class="node"><title>Node25</title>
<g id="a_node25"><a xlink:href="../../da/d8d/classauthoring_1_1view_1_1propertiesview_1_1_game_object_properties.html#a296e97b9faeabc086f698730de09a5c9" target="_top" xlink:title="authoring.view.propertiesview.\lGameObjectProperties.initializeProperties">
<polygon fill="white" stroke="black" points="228.5,-9 228.5,-39 443.5,-39 443.5,-9 228.5,-9"/>
<text text-anchor="start" x="236.5" y="-27" font-family="Helvetica,sans-Serif" font-size="10.00">authoring.view.propertiesview.</text>
<text text-anchor="middle" x="336" y="-16" font-family="Helvetica,sans-Serif" font-size="10.00">GameObjectProperties.initializeProperties</text>
</a>
</g>
</g>
<!-- Node1&#45;&gt;Node25 -->
<g id="edge26" class="edge"><title>Node1&#45;&gt;Node25</title>
<path fill="none" stroke="midnightblue" d="M121.796,-117.342C146.905,-96.5322 187.682,-65.7103 228,-48 235.844,-44.5546 244.236,-41.5788 252.742,-39.0141"/>
<polygon fill="midnightblue" stroke="midnightblue" points="119.303,-114.866 113.905,-123.982 123.81,-120.222 119.303,-114.866"/>
</g>
<!-- Node3 -->
<g id="node3" class="node"><title>Node3</title>
<g id="a_node3"><a xlink:href="../../d1/d00/classauthoring_1_1view_1_1levelview_1_1_single_level_view.html#a7c75d7c9307941b2da3fb690eebe2cd1" target="_top" xlink:title="authoring.view.levelview.\lSingleLevelView.recreateLevel">
<polygon fill="white" stroke="black" points="519,-392 519,-422 679,-422 679,-392 519,-392"/>
<text text-anchor="start" x="527" y="-410" font-family="Helvetica,sans-Serif" font-size="10.00">authoring.view.levelview.</text>
<text text-anchor="middle" x="599" y="-399" font-family="Helvetica,sans-Serif" font-size="10.00">SingleLevelView.recreateLevel</text>
</a>
</g>
</g>
<!-- Node2&#45;&gt;Node3 -->
<g id="edge2" class="edge"><title>Node2&#45;&gt;Node3</title>
<path fill="none" stroke="midnightblue" d="M392.294,-339.219C439.88,-354.899 507.721,-377.253 552.291,-391.939"/>
<polygon fill="midnightblue" stroke="midnightblue" points="393.354,-335.884 382.761,-336.078 391.164,-342.532 393.354,-335.884"/>
</g>
<!-- Node4 -->
<g id="node4" class="node"><title>Node4</title>
<g id="a_node4"><a xlink:href="../../d1/d00/classauthoring_1_1view_1_1levelview_1_1_single_level_view.html#a532ba7c58ed4434fb218478ced7c9528" target="_top" xlink:title="authoring.view.levelview.\lSingleLevelView.SingleLevelView">
<polygon fill="white" stroke="black" points="758,-441 758,-471 928,-471 928,-441 758,-441"/>
<text text-anchor="start" x="766" y="-459" font-family="Helvetica,sans-Serif" font-size="10.00">authoring.view.levelview.</text>
<text text-anchor="middle" x="843" y="-448" font-family="Helvetica,sans-Serif" font-size="10.00">SingleLevelView.SingleLevelView</text>
</a>
</g>
</g>
<!-- Node3&#45;&gt;Node4 -->
<g id="edge3" class="edge"><title>Node3&#45;&gt;Node4</title>
<path fill="none" stroke="midnightblue" d="M684.157,-424.04C711.41,-429.558 741.419,-435.634 767.888,-440.994"/>
<polygon fill="midnightblue" stroke="midnightblue" points="684.748,-420.589 674.253,-422.035 683.359,-427.45 684.748,-420.589"/>
</g>
<!-- Node5 -->
<g id="node5" class="node"><title>Node5</title>
<g id="a_node5"><a xlink:href="../../d1/d00/classauthoring_1_1view_1_1levelview_1_1_single_level_view.html#ae0049506bc1805b24296e3e24e51519c" target="_top" xlink:title="authoring.view.levelview.\lSingleLevelView.update">
<polygon fill="white" stroke="black" points="777,-392 777,-422 909,-422 909,-392 777,-392"/>
<text text-anchor="start" x="785" y="-410" font-family="Helvetica,sans-Serif" font-size="10.00">authoring.view.levelview.</text>
<text text-anchor="middle" x="843" y="-399" font-family="Helvetica,sans-Serif" font-size="10.00">SingleLevelView.update</text>
</a>
</g>
</g>
<!-- Node3&#45;&gt;Node5 -->
<g id="edge4" class="edge"><title>Node3&#45;&gt;Node5</title>
<path fill="none" stroke="midnightblue" d="M689.36,-407C718.312,-407 749.863,-407 776.726,-407"/>
<polygon fill="midnightblue" stroke="midnightblue" points="689.24,-403.5 679.24,-407 689.24,-410.5 689.24,-403.5"/>
</g>
<!-- Node7 -->
<g id="node7" class="node"><title>Node7</title>
<g id="a_node7"><a xlink:href="../../df/de5/classengine_1_1render_1_1_game_object_renderer.html#a745cb65a5425a20a1b5063068ef1314a" target="_top" xlink:title="engine.render.GameObject\lRenderer.createAndAssignRenderedNode">
<polygon fill="white" stroke="black" points="492.5,-171 492.5,-201 705.5,-201 705.5,-171 492.5,-171"/>
<text text-anchor="start" x="500.5" y="-189" font-family="Helvetica,sans-Serif" font-size="10.00">engine.render.GameObject</text>
<text text-anchor="middle" x="599" y="-178" font-family="Helvetica,sans-Serif" font-size="10.00">Renderer.createAndAssignRenderedNode</text>
</a>
</g>
</g>
<!-- Node6&#45;&gt;Node7 -->
<g id="edge6" class="edge"><title>Node6&#45;&gt;Node7</title>
<path fill="none" stroke="midnightblue" d="M427.85,-201.646C448.597,-199.738 470.822,-197.695 492.136,-195.735"/>
<polygon fill="midnightblue" stroke="midnightblue" points="427.432,-198.17 417.795,-202.571 428.073,-205.14 427.432,-198.17"/>
</g>
<!-- Node8 -->
<g id="node8" class="node"><title>Node8</title>
<g id="a_node8"><a xlink:href="../../d8/dfe/classengine_1_1actions_1_1_change_image_i_d_action.html#a5517685ef0d4cc94928f226255299f78" target="_top" xlink:title="engine.actions.ChangeImage\lIDAction.execute">
<polygon fill="white" stroke="black" points="765,-343 765,-373 921,-373 921,-343 765,-343"/>
<text text-anchor="start" x="773" y="-361" font-family="Helvetica,sans-Serif" font-size="10.00">engine.actions.ChangeImage</text>
<text text-anchor="middle" x="843" y="-350" font-family="Helvetica,sans-Serif" font-size="10.00">IDAction.execute</text>
</a>
</g>
</g>
<!-- Node7&#45;&gt;Node8 -->
<g id="edge7" class="edge"><title>Node7&#45;&gt;Node8</title>
<path fill="none" stroke="midnightblue" d="M618.233,-209.481C644.694,-241.973 696.861,-300.324 754,-333 760.756,-336.863 768.149,-340.164 775.689,-342.975"/>
<polygon fill="midnightblue" stroke="midnightblue" points="620.759,-207.036 611.77,-201.427 615.299,-211.417 620.759,-207.036"/>
</g>
<!-- Node9 -->
<g id="node9" class="node"><title>Node9</title>
<g id="a_node9"><a xlink:href="../../d4/d9f/classengine_1_1actions_1_1_label_int_increment_action.html#ac110c3332e6d26e169e7e45d537a8d3f" target="_top" xlink:title="engine.actions.LabelIntIncrement\lAction.execute">
<polygon fill="white" stroke="black" points="755,-294 755,-324 931,-324 931,-294 755,-294"/>
<text text-anchor="start" x="763" y="-312" font-family="Helvetica,sans-Serif" font-size="10.00">engine.actions.LabelIntIncrement</text>
<text text-anchor="middle" x="843" y="-301" font-family="Helvetica,sans-Serif" font-size="10.00">Action.execute</text>
</a>
</g>
</g>
<!-- Node7&#45;&gt;Node9 -->
<g id="edge8" class="edge"><title>Node7&#45;&gt;Node9</title>
<path fill="none" stroke="midnightblue" d="M628.092,-207.432C657.928,-229.318 707.158,-262.982 754,-284 762.26,-287.706 771.204,-291.001 780.118,-293.884"/>
<polygon fill="midnightblue" stroke="midnightblue" points="629.962,-204.461 619.844,-201.318 625.793,-210.085 629.962,-204.461"/>
</g>
<!-- Node10 -->
<g id="node10" class="node"><title>Node10</title>
<g id="a_node10"><a xlink:href="../../dd/d57/classengine_1_1actions_1_1_make_new_object_from_location_action.html#a2ebd225d5e10817ac79f4044867afa98" target="_top" xlink:title="engine.actions.MakeNewObject\lFromLocationAction.execute">
<polygon fill="white" stroke="black" points="760,-245 760,-275 926,-275 926,-245 760,-245"/>
<text text-anchor="start" x="768" y="-263" font-family="Helvetica,sans-Serif" font-size="10.00">engine.actions.MakeNewObject</text>
<text text-anchor="middle" x="843" y="-252" font-family="Helvetica,sans-Serif" font-size="10.00">FromLocationAction.execute</text>
</a>
</g>
</g>
<!-- Node7&#45;&gt;Node10 -->
<g id="edge9" class="edge"><title>Node7&#45;&gt;Node10</title>
<path fill="none" stroke="midnightblue" d="M655.658,-204.171C684.869,-213.591 721.294,-225.154 754,-235 764.95,-238.297 776.701,-241.716 787.937,-244.929"/>
<polygon fill="midnightblue" stroke="midnightblue" points="656.635,-200.809 646.044,-201.065 654.483,-207.47 656.635,-200.809"/>
</g>
<!-- Node7&#45;&gt;Node11 -->
<g id="edge10" class="edge"><title>Node7&#45;&gt;Node11</title>
<path fill="none" stroke="midnightblue" d="M662.84,-167.122C682.552,-158.676 703.043,-146.933 718,-131 748.052,-98.9874 721.34,-68.3472 754,-39 757.769,-35.613 761.971,-32.6978 766.439,-30.1893"/>
<polygon fill="midnightblue" stroke="midnightblue" points="661.508,-163.885 653.559,-170.89 664.141,-170.371 661.508,-163.885"/>
</g>
<!-- Node12 -->
<g id="node12" class="node"><title>Node12</title>
<g id="a_node12"><a xlink:href="../../da/d16/classengine_1_1actions_1_1_make_new_random_object_action.html#a82ccd5604bd05170e416e41b32020f00" target="_top" xlink:title="engine.actions.MakeNewRandom\lObjectAction.makeRandomObject">
<polygon fill="white" stroke="black" points="754,-196 754,-226 932,-226 932,-196 754,-196"/>
<text text-anchor="start" x="762" y="-214" font-family="Helvetica,sans-Serif" font-size="10.00">engine.actions.MakeNewRandom</text>
<text text-anchor="middle" x="843" y="-203" font-family="Helvetica,sans-Serif" font-size="10.00">ObjectAction.makeRandomObject</text>
</a>
</g>
</g>
<!-- Node7&#45;&gt;Node12 -->
<g id="edge11" class="edge"><title>Node7&#45;&gt;Node12</title>
<path fill="none" stroke="midnightblue" d="M715.971,-197.98C728.696,-199.295 741.495,-200.617 753.805,-201.889"/>
<polygon fill="midnightblue" stroke="midnightblue" points="716.099,-194.475 705.793,-196.929 715.38,-201.438 716.099,-194.475"/>
</g>
<!-- Node14 -->
<g id="node14" class="node"><title>Node14</title>
<g id="a_node14"><a xlink:href="../../db/db5/classengine_1_1actions_1_1render_1_1_change_image_type_action.html#a09110a0a08bac229b9e2feddf1d3378c" target="_top" xlink:title="engine.actions.render.Change\lImageTypeAction.execute">
<polygon fill="white" stroke="black" points="763,-147 763,-177 923,-177 923,-147 763,-147"/>
<text text-anchor="start" x="771" y="-165" font-family="Helvetica,sans-Serif" font-size="10.00">engine.actions.render.Change</text>
<text text-anchor="middle" x="843" y="-154" font-family="Helvetica,sans-Serif" font-size="10.00">ImageTypeAction.execute</text>
</a>
</g>
</g>
<!-- Node7&#45;&gt;Node14 -->
<g id="edge13" class="edge"><title>Node7&#45;&gt;Node14</title>
<path fill="none" stroke="midnightblue" d="M716.184,-174.478C732.039,-172.905 748.004,-171.322 762.988,-169.836"/>
<polygon fill="midnightblue" stroke="midnightblue" points="715.398,-171.038 705.793,-175.508 716.089,-178.004 715.398,-171.038"/>
</g>
<!-- Node15 -->
<g id="node15" class="node"><title>Node15</title>
<g id="a_node15"><a xlink:href="../../d3/dbb/classengine_1_1actions_1_1render_1_1_paint_canvas.html#a3f4cb25dfb09aa686debf838e806b010" target="_top" xlink:title="engine.actions.render.Paint\lCanvas.applyRender">
<polygon fill="white" stroke="black" points="770,-98 770,-128 916,-128 916,-98 770,-98"/>
<text text-anchor="start" x="778" y="-116" font-family="Helvetica,sans-Serif" font-size="10.00">engine.actions.render.Paint</text>
<text text-anchor="middle" x="843" y="-105" font-family="Helvetica,sans-Serif" font-size="10.00">Canvas.applyRender</text>
</a>
</g>
</g>
<!-- Node7&#45;&gt;Node15 -->
<g id="edge14" class="edge"><title>Node7&#45;&gt;Node15</title>
<path fill="none" stroke="midnightblue" d="M655.292,-167.791C684.546,-158.313 721.122,-146.709 754,-137 764.176,-133.995 775.053,-130.919 785.567,-128.015"/>
<polygon fill="midnightblue" stroke="midnightblue" points="654.097,-164.499 645.668,-170.918 656.26,-171.156 654.097,-164.499"/>
</g>
<!-- Node16 -->
<g id="node16" class="node"><title>Node16</title>
<g id="a_node16"><a xlink:href="../../df/de5/classengine_1_1render_1_1_game_object_renderer.html#a610545384a337edcd3bffb9f0c6ecf18" target="_top" xlink:title="engine.render.GameObject\lRenderer.renderGameObjects">
<polygon fill="white" stroke="black" points="764,-49 764,-79 922,-79 922,-49 764,-49"/>
<text text-anchor="start" x="772" y="-67" font-family="Helvetica,sans-Serif" font-size="10.00">engine.render.GameObject</text>
<text text-anchor="middle" x="843" y="-56" font-family="Helvetica,sans-Serif" font-size="10.00">Renderer.renderGameObjects</text>
</a>
</g>
</g>
<!-- Node7&#45;&gt;Node16 -->
<g id="edge15" class="edge"><title>Node7&#45;&gt;Node16</title>
<path fill="none" stroke="midnightblue" d="M653.038,-167.129C674.414,-158.082 698.56,-145.931 718,-131 737.767,-115.818 733.016,-101.45 754,-88 759.333,-84.5817 765.148,-81.6457 771.163,-79.1248"/>
<polygon fill="midnightblue" stroke="midnightblue" points="651.676,-163.905 643.754,-170.941 654.334,-170.381 651.676,-163.905"/>
</g>
<!-- Node13 -->
<g id="node13" class="node"><title>Node13</title>
<g id="a_node13"><a xlink:href="../../da/d16/classengine_1_1actions_1_1_make_new_random_object_action.html#aa831c4b818ed75f812bf8ba0d453c942" target="_top" xlink:title="engine.actions.MakeNewRandom\lObjectAction.execute">
<polygon fill="white" stroke="black" points="972.5,-196 972.5,-226 1147.5,-226 1147.5,-196 972.5,-196"/>
<text text-anchor="start" x="980.5" y="-214" font-family="Helvetica,sans-Serif" font-size="10.00">engine.actions.MakeNewRandom</text>
<text text-anchor="middle" x="1060" y="-203" font-family="Helvetica,sans-Serif" font-size="10.00">ObjectAction.execute</text>
</a>
</g>
</g>
<!-- Node12&#45;&gt;Node13 -->
<g id="edge12" class="edge"><title>Node12&#45;&gt;Node13</title>
<path fill="none" stroke="midnightblue" d="M942.135,-211C952.252,-211 962.48,-211 972.458,-211"/>
<polygon fill="midnightblue" stroke="midnightblue" points="942.069,-207.5 932.069,-211 942.069,-214.5 942.069,-207.5"/>
</g>
<!-- Node17 -->
<g id="node17" class="node"><title>Node17</title>
<g id="a_node17"><a xlink:href="../../df/d67/classengine_1_1level_1_1_level_manager.html#a523599892453015eed0f1b506979af8a" target="_top" xlink:title="engine.level.LevelManager.initialize\lCurrentLevel">
<polygon fill="white" stroke="black" points="968,-49 968,-79 1152,-79 1152,-49 968,-49"/>
<text text-anchor="start" x="976" y="-67" font-family="Helvetica,sans-Serif" font-size="10.00">engine.level.LevelManager.initialize</text>
<text text-anchor="middle" x="1060" y="-56" font-family="Helvetica,sans-Serif" font-size="10.00">CurrentLevel</text>
</a>
</g>
</g>
<!-- Node16&#45;&gt;Node17 -->
<g id="edge16" class="edge"><title>Node16&#45;&gt;Node17</title>
<path fill="none" stroke="midnightblue" d="M932.374,-64C944.027,-64 955.99,-64 967.69,-64"/>
<polygon fill="midnightblue" stroke="midnightblue" points="932.228,-60.5001 922.228,-64 932.228,-67.5001 932.228,-60.5001"/>
</g>
<!-- Node18 -->
<g id="node18" class="node"><title>Node18</title>
<g id="a_node18"><a xlink:href="../../df/d67/classengine_1_1level_1_1_level_manager.html#a1d0f314bbf304bf86067ab87b832d2e0" target="_top" xlink:title="engine.level.LevelManager.find\lAndSetStartLevel">
<polygon fill="white" stroke="black" points="1188.5,-74 1188.5,-104 1351.5,-104 1351.5,-74 1188.5,-74"/>
<text text-anchor="start" x="1196.5" y="-92" font-family="Helvetica,sans-Serif" font-size="10.00">engine.level.LevelManager.find</text>
<text text-anchor="middle" x="1270" y="-81" font-family="Helvetica,sans-Serif" font-size="10.00">AndSetStartLevel</text>
</a>
</g>
</g>
<!-- Node17&#45;&gt;Node18 -->
<g id="edge17" class="edge"><title>Node17&#45;&gt;Node18</title>
<path fill="none" stroke="midnightblue" d="M1162.4,-76.1878C1171.09,-77.2318 1179.8,-78.2787 1188.29,-79.2994"/>
<polygon fill="midnightblue" stroke="midnightblue" points="1162.58,-72.6838 1152.23,-74.9654 1161.74,-79.6338 1162.58,-72.6838"/>
</g>
<!-- Node20 -->
<g id="node20" class="node"><title>Node20</title>
<g id="a_node20"><a xlink:href="../../df/d67/classengine_1_1level_1_1_level_manager.html#ad89101547413fe335873b050fd091c79" target="_top" xlink:title="engine.level.LevelManager.set\lCurrentLevel">
<polygon fill="white" stroke="black" points="1189.5,-25 1189.5,-55 1350.5,-55 1350.5,-25 1189.5,-25"/>
<text text-anchor="start" x="1197.5" y="-43" font-family="Helvetica,sans-Serif" font-size="10.00">engine.level.LevelManager.set</text>
<text text-anchor="middle" x="1270" y="-32" font-family="Helvetica,sans-Serif" font-size="10.00">CurrentLevel</text>
</a>
</g>
</g>
<!-- Node17&#45;&gt;Node20 -->
<g id="edge19" class="edge"><title>Node17&#45;&gt;Node20</title>
<path fill="none" stroke="midnightblue" d="M1162.39,-52.3012C1171.41,-51.2604 1180.46,-50.2166 1189.26,-49.2011"/>
<polygon fill="midnightblue" stroke="midnightblue" points="1161.76,-48.85 1152.23,-53.4733 1162.57,-55.8039 1161.76,-48.85"/>
</g>
<!-- Node19 -->
<g id="node19" class="node"><title>Node19</title>
<g id="a_node19"><a xlink:href="../../df/d67/classengine_1_1level_1_1_level_manager.html#a0ea71eb9396652850db0d2da44c4ca81" target="_top" xlink:title="engine.level.LevelManager.\lLevelManager">
<polygon fill="white" stroke="black" points="1406,-74 1406,-104 1552,-104 1552,-74 1406,-74"/>
<text text-anchor="start" x="1414" y="-92" font-family="Helvetica,sans-Serif" font-size="10.00">engine.level.LevelManager.</text>
<text text-anchor="middle" x="1479" y="-81" font-family="Helvetica,sans-Serif" font-size="10.00">LevelManager</text>
</a>
</g>
</g>
<!-- Node18&#45;&gt;Node19 -->
<g id="edge18" class="edge"><title>Node18&#45;&gt;Node19</title>
<path fill="none" stroke="midnightblue" d="M1361.74,-89C1376.44,-89 1391.5,-89 1405.69,-89"/>
<polygon fill="midnightblue" stroke="midnightblue" points="1361.62,-85.5001 1351.62,-89 1361.62,-92.5001 1361.62,-85.5001"/>
</g>
<!-- Node21 -->
<g id="node21" class="node"><title>Node21</title>
<g id="a_node21"><a xlink:href="../../df/d67/classengine_1_1level_1_1_level_manager.html#ad3c392cf6260c53428255fb596442692" target="_top" xlink:title="engine.level.LevelManager.change\lToLevel">
<polygon fill="white" stroke="black" points="1388.5,-25 1388.5,-55 1569.5,-55 1569.5,-25 1388.5,-25"/>
<text text-anchor="start" x="1396.5" y="-43" font-family="Helvetica,sans-Serif" font-size="10.00">engine.level.LevelManager.change</text>
<text text-anchor="middle" x="1479" y="-32" font-family="Helvetica,sans-Serif" font-size="10.00">ToLevel</text>
</a>
</g>
</g>
<!-- Node20&#45;&gt;Node21 -->
<g id="edge20" class="edge"><title>Node20&#45;&gt;Node21</title>
<path fill="none" stroke="midnightblue" d="M1360.92,-40C1370,-40 1379.23,-40 1388.31,-40"/>
<polygon fill="midnightblue" stroke="midnightblue" points="1360.74,-36.5001 1350.74,-40 1360.74,-43.5001 1360.74,-36.5001"/>
</g>
<!-- Node22 -->
<g id="node22" class="node"><title>Node22</title>
<g id="a_node22"><a xlink:href="../../d1/d73/classengine_1_1actions_1_1_change_level_action.html#a8190adf308768b0d12f6432d0cf0fbc4" target="_top" xlink:title="engine.actions.ChangeLevel\lAction.execute">
<polygon fill="white" stroke="black" points="1606.5,-25 1606.5,-55 1757.5,-55 1757.5,-25 1606.5,-25"/>
<text text-anchor="start" x="1614.5" y="-43" font-family="Helvetica,sans-Serif" font-size="10.00">engine.actions.ChangeLevel</text>
<text text-anchor="middle" x="1682" y="-32" font-family="Helvetica,sans-Serif" font-size="10.00">Action.execute</text>
</a>
</g>
</g>
<!-- Node21&#45;&gt;Node22 -->
<g id="edge21" class="edge"><title>Node21&#45;&gt;Node22</title>
<path fill="none" stroke="midnightblue" d="M1579.71,-40C1588.65,-40 1597.61,-40 1606.29,-40"/>
<polygon fill="midnightblue" stroke="midnightblue" points="1579.62,-36.5001 1569.62,-40 1579.62,-43.5001 1579.62,-36.5001"/>
</g>
<!-- Node23&#45;&gt;Node7 -->
<g id="edge23" class="edge"><title>Node23&#45;&gt;Node7</title>
<path fill="none" stroke="midnightblue" d="M419.108,-168.865C442.229,-171.079 467.71,-173.52 492.015,-175.848"/>
<polygon fill="midnightblue" stroke="midnightblue" points="419.298,-165.367 409.01,-167.898 418.631,-172.335 419.298,-165.367"/>
</g>
<!-- Node26 -->
<g id="node26" class="node"><title>Node26</title>
<g id="a_node26"><a xlink:href="../../da/d8d/classauthoring_1_1view_1_1propertiesview_1_1_game_object_properties.html#a666800a7063c728f47a848ab730362d3" target="_top" xlink:title="authoring.view.propertiesview.\lGameObjectProperties.GameObjectProperties">
<polygon fill="white" stroke="black" points="480.5,-9 480.5,-39 717.5,-39 717.5,-9 480.5,-9"/>
<text text-anchor="start" x="488.5" y="-27" font-family="Helvetica,sans-Serif" font-size="10.00">authoring.view.propertiesview.</text>
<text text-anchor="middle" x="599" y="-16" font-family="Helvetica,sans-Serif" font-size="10.00">GameObjectProperties.GameObjectProperties</text>
</a>
</g>
</g>
<!-- Node25&#45;&gt;Node26 -->
<g id="edge27" class="edge"><title>Node25&#45;&gt;Node26</title>
<path fill="none" stroke="midnightblue" d="M453.821,-24C462.625,-24 471.512,-24 480.321,-24"/>
<polygon fill="midnightblue" stroke="midnightblue" points="453.535,-20.5001 443.535,-24 453.535,-27.5001 453.535,-20.5001"/>
</g>
</g>
</svg>
