<?xml version="1.0" encoding="UTF-8" standalone="no"?>
<!DOCTYPE svg PUBLIC "-//W3C//DTD SVG 1.1//EN"
 "http://www.w3.org/Graphics/SVG/1.1/DTD/svg11.dtd">
<!-- Generated by graphviz version 2.36.0 (20140111.2315)
 -->
<!-- Title: engine.gameObject.GameObject.getWidth Pages: 1 -->
<svg width="1972pt" height="405pt"
 viewBox="0.00 0.00 1972.00 405.00" xmlns="http://www.w3.org/2000/svg" xmlns:xlink="http://www.w3.org/1999/xlink">
<g id="graph0" class="graph" transform="scale(1 1) rotate(0) translate(4 401)">
<title>engine.gameObject.GameObject.getWidth</title>
<polygon fill="white" stroke="none" points="-4,4 -4,-401 1968,-401 1968,4 -4,4"/>
<!-- Node1 -->
<g id="node1" class="node"><title>Node1</title>
<polygon fill="#bfbfbf" stroke="black" points="0,-122 0,-152 192,-152 192,-122 0,-122"/>
<text text-anchor="start" x="8" y="-140" font-family="Helvetica,sans-Serif" font-size="10.00">engine.gameObject.GameObject.get</text>
<text text-anchor="middle" x="96" y="-129" font-family="Helvetica,sans-Serif" font-size="10.00">Width</text>
</g>
<!-- Node2 -->
<g id="node2" class="node"><title>Node2</title>
<g id="a_node2"><a xlink:href="../../d1/d00/classauthoring_1_1view_1_1levelview_1_1_single_level_view.html#a60f24fcbffcbc0a7dca8b82adfcc3211" target="_top" xlink:title="authoring.view.levelview.\lSingleLevelView.addGameObjectToView">
<polygon fill="white" stroke="black" points="234,-220 234,-250 438,-250 438,-220 234,-220"/>
<text text-anchor="start" x="242" y="-238" font-family="Helvetica,sans-Serif" font-size="10.00">authoring.view.levelview.</text>
<text text-anchor="middle" x="336" y="-227" font-family="Helvetica,sans-Serif" font-size="10.00">SingleLevelView.addGameObjectToView</text>
</a>
</g>
</g>
<!-- Node1&#45;&gt;Node2 -->
<g id="edge1" class="edge"><title>Node1&#45;&gt;Node2</title>
<path fill="none" stroke="midnightblue" d="M128.295,-157.728C154.099,-173.997 192.158,-196.141 228,-210 237.786,-213.784 248.306,-217.096 258.793,-219.964"/>
<polygon fill="midnightblue" stroke="midnightblue" points="130.014,-154.673 119.702,-152.242 126.247,-160.573 130.014,-154.673"/>
</g>
<!-- Node6 -->
<g id="node6" class="node"><title>Node6</title>
<g id="a_node6"><a xlink:href="../../d5/d30/classengine_1_1render_1_1_rendered_node_factory.html#ae9ab86f88eb96945a412e561179aa070" target="_top" xlink:title="engine.render.RenderedNode\lFactory.createImageAndView">
<polygon fill="white" stroke="black" points="258,-122 258,-152 414,-152 414,-122 258,-122"/>
<text text-anchor="start" x="266" y="-140" font-family="Helvetica,sans-Serif" font-size="10.00">engine.render.RenderedNode</text>
<text text-anchor="middle" x="336" y="-129" font-family="Helvetica,sans-Serif" font-size="10.00">Factory.createImageAndView</text>
</a>
</g>
</g>
<!-- Node1&#45;&gt;Node6 -->
<g id="edge5" class="edge"><title>Node1&#45;&gt;Node6</title>
<path fill="none" stroke="midnightblue" d="M202.158,-137C220.935,-137 240.178,-137 257.983,-137"/>
<polygon fill="midnightblue" stroke="midnightblue" points="202.09,-133.5 192.09,-137 202.09,-140.5 202.09,-133.5"/>
</g>
<!-- Node25 -->
<g id="node25" class="node"><title>Node25</title>
<g id="a_node25"><a xlink:href="../../d5/d30/classengine_1_1render_1_1_rendered_node_factory.html#a4e1f4508b1c12b958bd3c88a35a4e872" target="_top" xlink:title="engine.render.RenderedNode\lFactory.createLabel">
<polygon fill="white" stroke="black" points="258,-171 258,-201 414,-201 414,-171 258,-171"/>
<text text-anchor="start" x="266" y="-189" font-family="Helvetica,sans-Serif" font-size="10.00">engine.render.RenderedNode</text>
<text text-anchor="middle" x="336" y="-178" font-family="Helvetica,sans-Serif" font-size="10.00">Factory.createLabel</text>
</a>
</g>
</g>
<!-- Node1&#45;&gt;Node25 -->
<g id="edge25" class="edge"><title>Node1&#45;&gt;Node25</title>
<path fill="none" stroke="midnightblue" d="M180.119,-154.113C206.827,-159.611 236.196,-165.658 262.113,-170.994"/>
<polygon fill="midnightblue" stroke="midnightblue" points="180.526,-150.623 170.025,-152.035 179.114,-157.479 180.526,-150.623"/>
</g>
<!-- Node26 -->
<g id="node26" class="node"><title>Node26</title>
<g id="a_node26"><a xlink:href="../../d0/d7f/classengine_1_1game_object_1_1_game_object.html#a69f1acfd453ec53c35c6634f557d79af" target="_top" xlink:title="engine.gameObject.GameObject.\lGameObject">
<polygon fill="white" stroke="black" points="248,-73 248,-103 424,-103 424,-73 248,-73"/>
<text text-anchor="start" x="256" y="-91" font-family="Helvetica,sans-Serif" font-size="10.00">engine.gameObject.GameObject.</text>
<text text-anchor="middle" x="336" y="-80" font-family="Helvetica,sans-Serif" font-size="10.00">GameObject</text>
</a>
</g>
</g>
<!-- Node1&#45;&gt;Node26 -->
<g id="edge27" class="edge"><title>Node1&#45;&gt;Node26</title>
<path fill="none" stroke="midnightblue" d="M180.119,-119.887C206.827,-114.389 236.196,-108.342 262.113,-103.006"/>
<polygon fill="midnightblue" stroke="midnightblue" points="179.114,-116.521 170.025,-121.965 180.526,-123.377 179.114,-116.521"/>
</g>
<!-- Node27 -->
<g id="node27" class="node"><title>Node27</title>
<g id="a_node27"><a xlink:href="../../da/d8d/classauthoring_1_1view_1_1propertiesview_1_1_game_object_properties.html#a296e97b9faeabc086f698730de09a5c9" target="_top" xlink:title="authoring.view.propertiesview.\lGameObjectProperties.initializeProperties">
<polygon fill="white" stroke="black" points="228.5,-24 228.5,-54 443.5,-54 443.5,-24 228.5,-24"/>
<text text-anchor="start" x="236.5" y="-42" font-family="Helvetica,sans-Serif" font-size="10.00">authoring.view.propertiesview.</text>
<text text-anchor="middle" x="336" y="-31" font-family="Helvetica,sans-Serif" font-size="10.00">GameObjectProperties.initializeProperties</text>
</a>
</g>
</g>
<!-- Node1&#45;&gt;Node27 -->
<g id="edge28" class="edge"><title>Node1&#45;&gt;Node27</title>
<path fill="none" stroke="midnightblue" d="M127.753,-116.181C153.521,-99.6 191.801,-76.9329 228,-63 236.795,-59.6149 246.189,-56.6415 255.622,-54.0473"/>
<polygon fill="midnightblue" stroke="midnightblue" points="125.65,-113.374 119.184,-121.768 129.473,-119.238 125.65,-113.374"/>
</g>
<!-- Node3 -->
<g id="node3" class="node"><title>Node3</title>
<g id="a_node3"><a xlink:href="../../d1/d00/classauthoring_1_1view_1_1levelview_1_1_single_level_view.html#a7c75d7c9307941b2da3fb690eebe2cd1" target="_top" xlink:title="authoring.view.levelview.\lSingleLevelView.recreateLevel">
<polygon fill="white" stroke="black" points="519,-220 519,-250 679,-250 679,-220 519,-220"/>
<text text-anchor="start" x="527" y="-238" font-family="Helvetica,sans-Serif" font-size="10.00">authoring.view.levelview.</text>
<text text-anchor="middle" x="599" y="-227" font-family="Helvetica,sans-Serif" font-size="10.00">SingleLevelView.recreateLevel</text>
</a>
</g>
</g>
<!-- Node2&#45;&gt;Node3 -->
<g id="edge2" class="edge"><title>Node2&#45;&gt;Node3</title>
<path fill="none" stroke="midnightblue" d="M448.349,-235C471.979,-235 496.466,-235 518.619,-235"/>
<polygon fill="midnightblue" stroke="midnightblue" points="448.283,-231.5 438.283,-235 448.283,-238.5 448.283,-231.5"/>
</g>
<!-- Node4 -->
<g id="node4" class="node"><title>Node4</title>
<g id="a_node4"><a xlink:href="../../d1/d00/classauthoring_1_1view_1_1levelview_1_1_single_level_view.html#a532ba7c58ed4434fb218478ced7c9528" target="_top" xlink:title="authoring.view.levelview.\lSingleLevelView.SingleLevelView">
<polygon fill="white" stroke="black" points="754,-269 754,-299 924,-299 924,-269 754,-269"/>
<text text-anchor="start" x="762" y="-287" font-family="Helvetica,sans-Serif" font-size="10.00">authoring.view.levelview.</text>
<text text-anchor="middle" x="839" y="-276" font-family="Helvetica,sans-Serif" font-size="10.00">SingleLevelView.SingleLevelView</text>
</a>
</g>
</g>
<!-- Node3&#45;&gt;Node4 -->
<g id="edge3" class="edge"><title>Node3&#45;&gt;Node4</title>
<path fill="none" stroke="midnightblue" d="M683.119,-252.113C709.827,-257.611 739.196,-263.658 765.113,-268.994"/>
<polygon fill="midnightblue" stroke="midnightblue" points="683.526,-248.623 673.025,-250.035 682.114,-255.479 683.526,-248.623"/>
</g>
<!-- Node5 -->
<g id="node5" class="node"><title>Node5</title>
<g id="a_node5"><a xlink:href="../../d1/d00/classauthoring_1_1view_1_1levelview_1_1_single_level_view.html#ae0049506bc1805b24296e3e24e51519c" target="_top" xlink:title="authoring.view.levelview.\lSingleLevelView.update">
<polygon fill="white" stroke="black" points="773,-220 773,-250 905,-250 905,-220 773,-220"/>
<text text-anchor="start" x="781" y="-238" font-family="Helvetica,sans-Serif" font-size="10.00">authoring.view.levelview.</text>
<text text-anchor="middle" x="839" y="-227" font-family="Helvetica,sans-Serif" font-size="10.00">SingleLevelView.update</text>
</a>
</g>
</g>
<!-- Node3&#45;&gt;Node5 -->
<g id="edge4" class="edge"><title>Node3&#45;&gt;Node5</title>
<path fill="none" stroke="midnightblue" d="M689.362,-235C717.123,-235 747.183,-235 772.958,-235"/>
<polygon fill="midnightblue" stroke="midnightblue" points="689.251,-231.5 679.251,-235 689.251,-238.5 689.251,-231.5"/>
</g>
<!-- Node7 -->
<g id="node7" class="node"><title>Node7</title>
<g id="a_node7"><a xlink:href="../../d5/d30/classengine_1_1render_1_1_rendered_node_factory.html#a359dcce722371dfb49b79528930c1b05" target="_top" xlink:title="engine.render.RenderedNode\lFactory.createRenderedNode">
<polygon fill="white" stroke="black" points="521,-171 521,-201 677,-201 677,-171 521,-171"/>
<text text-anchor="start" x="529" y="-189" font-family="Helvetica,sans-Serif" font-size="10.00">engine.render.RenderedNode</text>
<text text-anchor="middle" x="599" y="-178" font-family="Helvetica,sans-Serif" font-size="10.00">Factory.createRenderedNode</text>
</a>
</g>
</g>
<!-- Node6&#45;&gt;Node7 -->
<g id="edge6" class="edge"><title>Node6&#45;&gt;Node7</title>
<path fill="none" stroke="midnightblue" d="M424.267,-153.383C455.557,-159.258 490.586,-165.834 520.949,-171.534"/>
<polygon fill="midnightblue" stroke="midnightblue" points="424.723,-149.908 414.249,-151.503 423.432,-156.788 424.723,-149.908"/>
</g>
<!-- Node24 -->
<g id="node24" class="node"><title>Node24</title>
<g id="a_node24"><a xlink:href="../../dd/d8d/classengine_1_1render_1_1_renderer.html#a10b850c208c44a1137b099d1967c6e9b" target="_top" xlink:title="engine.render.Renderer.set\lBackGroundImage">
<polygon fill="white" stroke="black" points="766,-95 766,-125 912,-125 912,-95 766,-95"/>
<text text-anchor="start" x="774" y="-113" font-family="Helvetica,sans-Serif" font-size="10.00">engine.render.Renderer.set</text>
<text text-anchor="middle" x="839" y="-102" font-family="Helvetica,sans-Serif" font-size="10.00">BackGroundImage</text>
</a>
</g>
</g>
<!-- Node6&#45;&gt;Node24 -->
<g id="edge23" class="edge"><title>Node6&#45;&gt;Node24</title>
<path fill="none" stroke="midnightblue" d="M424.233,-132.299C520.98,-127.085 675.293,-118.769 765.612,-113.901"/>
<polygon fill="midnightblue" stroke="midnightblue" points="423.98,-128.807 414.183,-132.84 424.357,-135.797 423.98,-128.807"/>
</g>
<!-- Node8 -->
<g id="node8" class="node"><title>Node8</title>
<g id="a_node8"><a xlink:href="../../dd/d8d/classengine_1_1render_1_1_renderer.html#a569f6bb2f9c218ed015949dff459b1ee" target="_top" xlink:title="engine.render.Renderer.create\lAndAssignRenderedNode">
<polygon fill="white" stroke="black" points="758.5,-171 758.5,-201 919.5,-201 919.5,-171 758.5,-171"/>
<text text-anchor="start" x="766.5" y="-189" font-family="Helvetica,sans-Serif" font-size="10.00">engine.render.Renderer.create</text>
<text text-anchor="middle" x="839" y="-178" font-family="Helvetica,sans-Serif" font-size="10.00">AndAssignRenderedNode</text>
</a>
</g>
</g>
<!-- Node7&#45;&gt;Node8 -->
<g id="edge7" class="edge"><title>Node7&#45;&gt;Node8</title>
<path fill="none" stroke="midnightblue" d="M687.436,-186C710.613,-186 735.512,-186 758.257,-186"/>
<polygon fill="midnightblue" stroke="midnightblue" points="687.272,-182.5 677.272,-186 687.272,-189.5 687.272,-182.5"/>
</g>
<!-- Node9 -->
<g id="node9" class="node"><title>Node9</title>
<g id="a_node9"><a xlink:href="../../d8/dfe/classengine_1_1actions_1_1_change_image_i_d_action.html#a5517685ef0d4cc94928f226255299f78" target="_top" xlink:title="engine.actions.ChangeImage\lIDAction.execute">
<polygon fill="white" stroke="black" points="971,-367 971,-397 1127,-397 1127,-367 971,-367"/>
<text text-anchor="start" x="979" y="-385" font-family="Helvetica,sans-Serif" font-size="10.00">engine.actions.ChangeImage</text>
<text text-anchor="middle" x="1049" y="-374" font-family="Helvetica,sans-Serif" font-size="10.00">IDAction.execute</text>
</a>
</g>
</g>
<!-- Node8&#45;&gt;Node9 -->
<g id="edge8" class="edge"><title>Node8&#45;&gt;Node9</title>
<path fill="none" stroke="midnightblue" d="M920.019,-207.23C921.407,-208.42 922.737,-209.675 924,-211 970.122,-259.367 913.578,-308.922 960,-357 963.751,-360.885 968.058,-364.178 972.707,-366.97"/>
<polygon fill="midnightblue" stroke="midnightblue" points="921.665,-204.103 911.502,-201.109 917.58,-209.787 921.665,-204.103"/>
</g>
<!-- Node10 -->
<g id="node10" class="node"><title>Node10</title>
<g id="a_node10"><a xlink:href="../../d4/d9f/classengine_1_1actions_1_1_label_int_increment_action.html#ac110c3332e6d26e169e7e45d537a8d3f" target="_top" xlink:title="engine.actions.LabelIntIncrement\lAction.execute">
<polygon fill="white" stroke="black" points="961,-318 961,-348 1137,-348 1137,-318 961,-318"/>
<text text-anchor="start" x="969" y="-336" font-family="Helvetica,sans-Serif" font-size="10.00">engine.actions.LabelIntIncrement</text>
<text text-anchor="middle" x="1049" y="-325" font-family="Helvetica,sans-Serif" font-size="10.00">Action.execute</text>
</a>
</g>
</g>
<!-- Node8&#45;&gt;Node10 -->
<g id="edge9" class="edge"><title>Node8&#45;&gt;Node10</title>
<path fill="none" stroke="midnightblue" d="M918.727,-206.597C920.567,-207.972 922.33,-209.437 924,-211 957.573,-242.424 926.232,-276.786 960,-308 964.199,-311.881 968.957,-315.165 974.034,-317.943"/>
<polygon fill="midnightblue" stroke="midnightblue" points="920.526,-203.593 910.219,-201.138 916.745,-209.484 920.526,-203.593"/>
</g>
<!-- Node11 -->
<g id="node11" class="node"><title>Node11</title>
<g id="a_node11"><a xlink:href="../../dd/d57/classengine_1_1actions_1_1_make_new_object_from_location_action.html#a2ebd225d5e10817ac79f4044867afa98" target="_top" xlink:title="engine.actions.MakeNewObject\lFromLocationAction.execute">
<polygon fill="white" stroke="black" points="966,-269 966,-299 1132,-299 1132,-269 966,-269"/>
<text text-anchor="start" x="974" y="-287" font-family="Helvetica,sans-Serif" font-size="10.00">engine.actions.MakeNewObject</text>
<text text-anchor="middle" x="1049" y="-276" font-family="Helvetica,sans-Serif" font-size="10.00">FromLocationAction.execute</text>
</a>
</g>
</g>
<!-- Node8&#45;&gt;Node11 -->
<g id="edge10" class="edge"><title>Node8&#45;&gt;Node11</title>
<path fill="none" stroke="midnightblue" d="M915.36,-205.683C918.358,-207.318 921.253,-209.087 924,-211 945.883,-226.239 938.022,-243.898 960,-259 965.629,-262.868 971.849,-266.141 978.304,-268.912"/>
<polygon fill="midnightblue" stroke="midnightblue" points="916.628,-202.407 906.106,-201.167 913.558,-208.698 916.628,-202.407"/>
</g>
<!-- Node12 -->
<g id="node12" class="node"><title>Node12</title>
<g id="a_node12"><a xlink:href="../../db/d61/classengine_1_1actions_1_1_make_new_object_from_object_action.html#a01ffb165d6169f7b0a22733e2b6c61a9" target="_top" xlink:title="engine.actions.MakeNewObject\lFromObjectAction.execute">
<polygon fill="white" stroke="black" points="966,-220 966,-250 1132,-250 1132,-220 966,-220"/>
<text text-anchor="start" x="974" y="-238" font-family="Helvetica,sans-Serif" font-size="10.00">engine.actions.MakeNewObject</text>
<text text-anchor="middle" x="1049" y="-227" font-family="Helvetica,sans-Serif" font-size="10.00">FromObjectAction.execute</text>
</a>
</g>
</g>
<!-- Node8&#45;&gt;Node12 -->
<g id="edge11" class="edge"><title>Node8&#45;&gt;Node12</title>
<path fill="none" stroke="midnightblue" d="M913.568,-203.331C936.661,-208.771 961.95,-214.729 984.3,-219.994"/>
<polygon fill="midnightblue" stroke="midnightblue" points="914.357,-199.921 903.82,-201.035 912.751,-206.734 914.357,-199.921"/>
</g>
<!-- Node13 -->
<g id="node13" class="node"><title>Node13</title>
<g id="a_node13"><a xlink:href="../../da/d16/classengine_1_1actions_1_1_make_new_random_object_action.html#a82ccd5604bd05170e416e41b32020f00" target="_top" xlink:title="engine.actions.MakeNewRandom\lObjectAction.makeRandomObject">
<polygon fill="white" stroke="black" points="960,-171 960,-201 1138,-201 1138,-171 960,-171"/>
<text text-anchor="start" x="968" y="-189" font-family="Helvetica,sans-Serif" font-size="10.00">engine.actions.MakeNewRandom</text>
<text text-anchor="middle" x="1049" y="-178" font-family="Helvetica,sans-Serif" font-size="10.00">ObjectAction.makeRandomObject</text>
</a>
</g>
</g>
<!-- Node8&#45;&gt;Node13 -->
<g id="edge12" class="edge"><title>Node8&#45;&gt;Node13</title>
<path fill="none" stroke="midnightblue" d="M929.822,-186C939.779,-186 949.912,-186 959.848,-186"/>
<polygon fill="midnightblue" stroke="midnightblue" points="929.526,-182.5 919.526,-186 929.526,-189.5 929.526,-182.5"/>
</g>
<!-- Node15 -->
<g id="node15" class="node"><title>Node15</title>
<g id="a_node15"><a xlink:href="../../db/db5/classengine_1_1actions_1_1render_1_1_change_image_type_action.html#a09110a0a08bac229b9e2feddf1d3378c" target="_top" xlink:title="engine.actions.render.Change\lImageTypeAction.execute">
<polygon fill="white" stroke="black" points="969,-122 969,-152 1129,-152 1129,-122 969,-122"/>
<text text-anchor="start" x="977" y="-140" font-family="Helvetica,sans-Serif" font-size="10.00">engine.actions.render.Change</text>
<text text-anchor="middle" x="1049" y="-129" font-family="Helvetica,sans-Serif" font-size="10.00">ImageTypeAction.execute</text>
</a>
</g>
</g>
<!-- Node8&#45;&gt;Node15 -->
<g id="edge14" class="edge"><title>Node8&#45;&gt;Node15</title>
<path fill="none" stroke="midnightblue" d="M913.568,-168.669C936.661,-163.229 961.95,-157.271 984.3,-152.006"/>
<polygon fill="midnightblue" stroke="midnightblue" points="912.751,-165.266 903.82,-170.965 914.357,-172.079 912.751,-165.266"/>
</g>
<!-- Node16 -->
<g id="node16" class="node"><title>Node16</title>
<g id="a_node16"><a xlink:href="../../d3/dbb/classengine_1_1actions_1_1render_1_1_paint_canvas.html#a3f4cb25dfb09aa686debf838e806b010" target="_top" xlink:title="engine.actions.render.Paint\lCanvas.applyRender">
<polygon fill="white" stroke="black" points="976,-73 976,-103 1122,-103 1122,-73 976,-73"/>
<text text-anchor="start" x="984" y="-91" font-family="Helvetica,sans-Serif" font-size="10.00">engine.actions.render.Paint</text>
<text text-anchor="middle" x="1049" y="-80" font-family="Helvetica,sans-Serif" font-size="10.00">Canvas.applyRender</text>
</a>
</g>
</g>
<!-- Node8&#45;&gt;Node16 -->
<g id="edge15" class="edge"><title>Node8&#45;&gt;Node16</title>
<path fill="none" stroke="midnightblue" d="M872.8,-165.696C907.924,-143.965 958.826,-112.509 960,-112 967.699,-108.659 975.982,-105.673 984.278,-103.037"/>
<polygon fill="midnightblue" stroke="midnightblue" points="870.912,-162.749 864.25,-170.987 874.595,-168.701 870.912,-162.749"/>
</g>
<!-- Node17 -->
<g id="node17" class="node"><title>Node17</title>
<g id="a_node17"><a xlink:href="../../dd/d8d/classengine_1_1render_1_1_renderer.html#a189dda9a8463274afe267959860f0dee" target="_top" xlink:title="engine.render.Renderer.render\lGameObjects">
<polygon fill="white" stroke="black" points="968,-24 968,-54 1130,-54 1130,-24 968,-24"/>
<text text-anchor="start" x="976" y="-42" font-family="Helvetica,sans-Serif" font-size="10.00">engine.render.Renderer.render</text>
<text text-anchor="middle" x="1049" y="-31" font-family="Helvetica,sans-Serif" font-size="10.00">GameObjects</text>
</a>
</g>
</g>
<!-- Node8&#45;&gt;Node17 -->
<g id="edge16" class="edge"><title>Node8&#45;&gt;Node17</title>
<path fill="none" stroke="midnightblue" d="M882.192,-165.935C896.726,-157.551 912.279,-146.763 924,-134 947.931,-107.942 932.576,-85.3537 960,-63 964.173,-59.5982 968.79,-56.6767 973.66,-54.1678"/>
<polygon fill="midnightblue" stroke="midnightblue" points="880.376,-162.94 873.317,-170.841 883.762,-169.066 880.376,-162.94"/>
</g>
<!-- Node14 -->
<g id="node14" class="node"><title>Node14</title>
<g id="a_node14"><a xlink:href="../../da/d16/classengine_1_1actions_1_1_make_new_random_object_action.html#aa831c4b818ed75f812bf8ba0d453c942" target="_top" xlink:title="engine.actions.MakeNewRandom\lObjectAction.execute">
<polygon fill="white" stroke="black" points="1178.5,-171 1178.5,-201 1353.5,-201 1353.5,-171 1178.5,-171"/>
<text text-anchor="start" x="1186.5" y="-189" font-family="Helvetica,sans-Serif" font-size="10.00">engine.actions.MakeNewRandom</text>
<text text-anchor="middle" x="1266" y="-178" font-family="Helvetica,sans-Serif" font-size="10.00">ObjectAction.execute</text>
</a>
</g>
</g>
<!-- Node13&#45;&gt;Node14 -->
<g id="edge13" class="edge"><title>Node13&#45;&gt;Node14</title>
<path fill="none" stroke="midnightblue" d="M1148.14,-186C1158.25,-186 1168.48,-186 1178.46,-186"/>
<polygon fill="midnightblue" stroke="midnightblue" points="1148.07,-182.5 1138.07,-186 1148.07,-189.5 1148.07,-182.5"/>
</g>
<!-- Node18 -->
<g id="node18" class="node"><title>Node18</title>
<g id="a_node18"><a xlink:href="../../df/d67/classengine_1_1level_1_1_level_manager.html#a523599892453015eed0f1b506979af8a" target="_top" xlink:title="engine.level.LevelManager.initialize\lCurrentLevel">
<polygon fill="white" stroke="black" points="1174,-24 1174,-54 1358,-54 1358,-24 1174,-24"/>
<text text-anchor="start" x="1182" y="-42" font-family="Helvetica,sans-Serif" font-size="10.00">engine.level.LevelManager.initialize</text>
<text text-anchor="middle" x="1266" y="-31" font-family="Helvetica,sans-Serif" font-size="10.00">CurrentLevel</text>
</a>
</g>
</g>
<!-- Node17&#45;&gt;Node18 -->
<g id="edge17" class="edge"><title>Node17&#45;&gt;Node18</title>
<path fill="none" stroke="midnightblue" d="M1140.15,-39C1151.22,-39 1162.55,-39 1173.65,-39"/>
<polygon fill="midnightblue" stroke="midnightblue" points="1140.06,-35.5001 1130.06,-39 1140.06,-42.5001 1140.06,-35.5001"/>
</g>
<!-- Node19 -->
<g id="node19" class="node"><title>Node19</title>
<g id="a_node19"><a xlink:href="../../df/d67/classengine_1_1level_1_1_level_manager.html#a1d0f314bbf304bf86067ab87b832d2e0" target="_top" xlink:title="engine.level.LevelManager.find\lAndSetStartLevel">
<polygon fill="white" stroke="black" points="1394.5,-49 1394.5,-79 1557.5,-79 1557.5,-49 1394.5,-49"/>
<text text-anchor="start" x="1402.5" y="-67" font-family="Helvetica,sans-Serif" font-size="10.00">engine.level.LevelManager.find</text>
<text text-anchor="middle" x="1476" y="-56" font-family="Helvetica,sans-Serif" font-size="10.00">AndSetStartLevel</text>
</a>
</g>
</g>
<!-- Node18&#45;&gt;Node19 -->
<g id="edge18" class="edge"><title>Node18&#45;&gt;Node19</title>
<path fill="none" stroke="midnightblue" d="M1368.4,-51.1878C1377.09,-52.2318 1385.8,-53.2787 1394.29,-54.2994"/>
<polygon fill="midnightblue" stroke="midnightblue" points="1368.58,-47.6838 1358.23,-49.9654 1367.74,-54.6338 1368.58,-47.6838"/>
</g>
<!-- Node21 -->
<g id="node21" class="node"><title>Node21</title>
<g id="a_node21"><a xlink:href="../../df/d67/classengine_1_1level_1_1_level_manager.html#ad89101547413fe335873b050fd091c79" target="_top" xlink:title="engine.level.LevelManager.set\lCurrentLevel">
<polygon fill="white" stroke="black" points="1395.5,-0 1395.5,-30 1556.5,-30 1556.5,-0 1395.5,-0"/>
<text text-anchor="start" x="1403.5" y="-18" font-family="Helvetica,sans-Serif" font-size="10.00">engine.level.LevelManager.set</text>
<text text-anchor="middle" x="1476" y="-7" font-family="Helvetica,sans-Serif" font-size="10.00">CurrentLevel</text>
</a>
</g>
</g>
<!-- Node18&#45;&gt;Node21 -->
<g id="edge20" class="edge"><title>Node18&#45;&gt;Node21</title>
<path fill="none" stroke="midnightblue" d="M1368.39,-27.3012C1377.41,-26.2604 1386.46,-25.2166 1395.26,-24.2011"/>
<polygon fill="midnightblue" stroke="midnightblue" points="1367.76,-23.85 1358.23,-28.4733 1368.57,-30.8039 1367.76,-23.85"/>
</g>
<!-- Node20 -->
<g id="node20" class="node"><title>Node20</title>
<g id="a_node20"><a xlink:href="../../df/d67/classengine_1_1level_1_1_level_manager.html#a587b50d02654d70122a28bcda169bb8d" target="_top" xlink:title="engine.level.LevelManager.\lLevelManager">
<polygon fill="white" stroke="black" points="1612,-49 1612,-79 1758,-79 1758,-49 1612,-49"/>
<text text-anchor="start" x="1620" y="-67" font-family="Helvetica,sans-Serif" font-size="10.00">engine.level.LevelManager.</text>
<text text-anchor="middle" x="1685" y="-56" font-family="Helvetica,sans-Serif" font-size="10.00">LevelManager</text>
</a>
</g>
</g>
<!-- Node19&#45;&gt;Node20 -->
<g id="edge19" class="edge"><title>Node19&#45;&gt;Node20</title>
<path fill="none" stroke="midnightblue" d="M1567.74,-64C1582.44,-64 1597.5,-64 1611.69,-64"/>
<polygon fill="midnightblue" stroke="midnightblue" points="1567.62,-60.5001 1557.62,-64 1567.62,-67.5001 1567.62,-60.5001"/>
</g>
<!-- Node22 -->
<g id="node22" class="node"><title>Node22</title>
<g id="a_node22"><a xlink:href="../../df/d67/classengine_1_1level_1_1_level_manager.html#ad3c392cf6260c53428255fb596442692" target="_top" xlink:title="engine.level.LevelManager.change\lToLevel">
<polygon fill="white" stroke="black" points="1594.5,-0 1594.5,-30 1775.5,-30 1775.5,-0 1594.5,-0"/>
<text text-anchor="start" x="1602.5" y="-18" font-family="Helvetica,sans-Serif" font-size="10.00">engine.level.LevelManager.change</text>
<text text-anchor="middle" x="1685" y="-7" font-family="Helvetica,sans-Serif" font-size="10.00">ToLevel</text>
</a>
</g>
</g>
<!-- Node21&#45;&gt;Node22 -->
<g id="edge21" class="edge"><title>Node21&#45;&gt;Node22</title>
<path fill="none" stroke="midnightblue" d="M1566.92,-15C1576,-15 1585.23,-15 1594.31,-15"/>
<polygon fill="midnightblue" stroke="midnightblue" points="1566.74,-11.5001 1556.74,-15 1566.74,-18.5001 1566.74,-11.5001"/>
</g>
<!-- Node23 -->
<g id="node23" class="node"><title>Node23</title>
<g id="a_node23"><a xlink:href="../../d1/d73/classengine_1_1actions_1_1_change_level_action.html#a8190adf308768b0d12f6432d0cf0fbc4" target="_top" xlink:title="engine.actions.ChangeLevel\lAction.execute">
<polygon fill="white" stroke="black" points="1812.5,-0 1812.5,-30 1963.5,-30 1963.5,-0 1812.5,-0"/>
<text text-anchor="start" x="1820.5" y="-18" font-family="Helvetica,sans-Serif" font-size="10.00">engine.actions.ChangeLevel</text>
<text text-anchor="middle" x="1888" y="-7" font-family="Helvetica,sans-Serif" font-size="10.00">Action.execute</text>
</a>
</g>
</g>
<!-- Node22&#45;&gt;Node23 -->
<g id="edge22" class="edge"><title>Node22&#45;&gt;Node23</title>
<path fill="none" stroke="midnightblue" d="M1785.71,-15C1794.65,-15 1803.61,-15 1812.29,-15"/>
<polygon fill="midnightblue" stroke="midnightblue" points="1785.62,-11.5001 1775.62,-15 1785.62,-18.5001 1785.62,-11.5001"/>
</g>
<!-- Node24&#45;&gt;Node17 -->
<g id="edge24" class="edge"><title>Node24&#45;&gt;Node17</title>
<path fill="none" stroke="midnightblue" d="M885.149,-90.9945C907.468,-81.9397 934.93,-71.3018 960,-63 969.471,-59.8638 979.61,-56.8177 989.514,-54.0074"/>
<polygon fill="midnightblue" stroke="midnightblue" points="883.534,-87.8734 875.603,-94.8977 886.184,-94.3527 883.534,-87.8734"/>
</g>
<!-- Node25&#45;&gt;Node7 -->
<g id="edge26" class="edge"><title>Node25&#45;&gt;Node7</title>
<path fill="none" stroke="midnightblue" d="M424.267,-186C455.557,-186 490.586,-186 520.949,-186"/>
<polygon fill="midnightblue" stroke="midnightblue" points="424.249,-182.5 414.249,-186 424.249,-189.5 424.249,-182.5"/>
</g>
<!-- Node28 -->
<g id="node28" class="node"><title>Node28</title>
<g id="a_node28"><a xlink:href="../../da/d8d/classauthoring_1_1view_1_1propertiesview_1_1_game_object_properties.html#a666800a7063c728f47a848ab730362d3" target="_top" xlink:title="authoring.view.propertiesview.\lGameObjectProperties.GameObjectProperties">
<polygon fill="white" stroke="black" points="480.5,-24 480.5,-54 717.5,-54 717.5,-24 480.5,-24"/>
<text text-anchor="start" x="488.5" y="-42" font-family="Helvetica,sans-Serif" font-size="10.00">authoring.view.propertiesview.</text>
<text text-anchor="middle" x="599" y="-31" font-family="Helvetica,sans-Serif" font-size="10.00">GameObjectProperties.GameObjectProperties</text>
</a>
</g>
</g>
<!-- Node27&#45;&gt;Node28 -->
<g id="edge29" class="edge"><title>Node27&#45;&gt;Node28</title>
<path fill="none" stroke="midnightblue" d="M453.821,-39C462.625,-39 471.512,-39 480.321,-39"/>
<polygon fill="midnightblue" stroke="midnightblue" points="453.535,-35.5001 443.535,-39 453.535,-42.5001 453.535,-35.5001"/>
</g>
</g>
</svg>
