<?xml version="1.0" encoding="UTF-8" standalone="no"?>
<!DOCTYPE svg PUBLIC "-//W3C//DTD SVG 1.1//EN"
 "http://www.w3.org/Graphics/SVG/1.1/DTD/svg11.dtd">
<!-- Generated by graphviz version 2.36.0 (20140111.2315)
 -->
<!-- Title: engine.gameObject.GameObject.getY Pages: 1 -->
<!--zoomable 405 -->
<svg id="main" version="1.1" xmlns="http://www.w3.org/2000/svg" xmlns:xlink="http://www.w3.org/1999/xlink" xml:space="preserve" onload="init(evt)">
<style type="text/css"><![CDATA[
.edge:hover path { stroke: red; }
.edge:hover polygon { stroke: red; fill: red; }
]]></style>
<script type="text/javascript"><![CDATA[
var edges = document.getElementsByTagName('g');
if (edges && edges.length) {
  for (var i=0;i<edges.length;i++) {
    if (edges[i].id.substr(0,4)=='edge') {
      edges[i].setAttribute('class','edge');
    }
  }
}
]]></script>
        <defs>
                <circle id="rim" cx="0" cy="0" r="7"/>
                <circle id="rim2" cx="0" cy="0" r="3.5"/>
                <g id="zoomPlus">
                        <use xlink:href="#rim" fill="#404040">
                                <set attributeName="fill" to="#808080" begin="zoomplus.mouseover" end="zoomplus.mouseout"/>
                        </use>
                        <path d="M-4,0h8M0,-4v8" fill="none" stroke="white" stroke-width="1.5" pointer-events="none"/>
                </g>
                <g id="zoomMin">
                        <use xlink:href="#rim" fill="#404040">
                                <set attributeName="fill" to="#808080" begin="zoomminus.mouseover" end="zoomminus.mouseout"/>
                        </use>
                        <path d="M-4,0h8" fill="none" stroke="white" stroke-width="1.5" pointer-events="none"/>
                </g>
                <g id="dirArrow">
                        <path fill="none" stroke="white" stroke-width="1.5" d="M0,-3.0v7 M-2.5,-0.5L0,-3.0L2.5,-0.5"/>
                </g>
               <g id="resetDef">
                       <use xlink:href="#rim2" fill="#404040">
                               <set attributeName="fill" to="#808080" begin="reset.mouseover" end="reset.mouseout"/>
                       </use>
               </g>
        </defs>

<script type="text/javascript">
var viewWidth = 1772;
var viewHeight = 405;
var sectionId = 'dynsection-21';
</script>
<script xlink:href="../../svgpan.js"/>
<svg id="graph" class="graph">
<g id="viewport">
<title>engine.gameObject.GameObject.getY</title>
<polygon fill="white" stroke="none" points="-4,4 -4,-401 1768,-401 1768,4 -4,4"/>
<!-- Node1 -->
<g id="node1" class="node"><title>Node1</title>
<polygon fill="#bfbfbf" stroke="black" points="0.5,-151.5 0.5,-170.5 197.5,-170.5 197.5,-151.5 0.5,-151.5"/>
<text text-anchor="middle" x="99" y="-158.5" font-family="Helvetica,sans-Serif" font-size="10.00">engine.gameObject.GameObject.getY</text>
</g>
<!-- Node2 -->
<g id="node2" class="node"><title>Node2</title>
<g id="a_node2"><a xlink:href="../../d5/d30/classengine_1_1render_1_1_rendered_node_factory.html#a359dcce722371dfb49b79528930c1b05" target="_top" xlink:title="engine.render.RenderedNode\lFactory.createRenderedNode">
<polygon fill="white" stroke="black" points="264,-195 264,-225 420,-225 420,-195 264,-195"/>
<text text-anchor="start" x="272" y="-213" font-family="Helvetica,sans-Serif" font-size="10.00">engine.render.RenderedNode</text>
<text text-anchor="middle" x="342" y="-202" font-family="Helvetica,sans-Serif" font-size="10.00">Factory.createRenderedNode</text>
</a>
</g>
</g>
<!-- Node1&#45;&gt;Node2 -->
<g id="edge1" class="edge"><title>Node1&#45;&gt;Node2</title>
<path fill="none" stroke="midnightblue" d="M156.659,-172.52C189.558,-179.209 231.383,-187.713 266.874,-194.929"/>
<polygon fill="midnightblue" stroke="midnightblue" points="157.25,-169.068 146.753,-170.506 155.855,-175.928 157.25,-169.068"/>
</g>
<!-- Node19 -->
<g id="node19" class="node"><title>Node19</title>
<g id="a_node19"><a xlink:href="../../d0/d7f/classengine_1_1game_object_1_1_game_object.html#aa99b0343da84d676c7709cee3cfbc4e1" target="_top" xlink:title="engine.gameObject.GameObject.\lGameObject">
<polygon fill="white" stroke="black" points="254,-146 254,-176 430,-176 430,-146 254,-146"/>
<text text-anchor="start" x="262" y="-164" font-family="Helvetica,sans-Serif" font-size="10.00">engine.gameObject.GameObject.</text>
<text text-anchor="middle" x="342" y="-153" font-family="Helvetica,sans-Serif" font-size="10.00">GameObject</text>
</a>
</g>
</g>
<!-- Node1&#45;&gt;Node19 -->
<g id="edge18" class="edge"><title>Node1&#45;&gt;Node19</title>
<path fill="none" stroke="midnightblue" d="M207.726,-161C223.096,-161 238.747,-161 253.662,-161"/>
<polygon fill="midnightblue" stroke="midnightblue" points="207.677,-157.5 197.677,-161 207.676,-164.5 207.677,-157.5"/>
</g>
<!-- Node20 -->
<g id="node20" class="node"><title>Node20</title>
<g id="a_node20"><a xlink:href="../../da/d8d/classauthoring_1_1view_1_1propertiesview_1_1_game_object_properties.html#a296e97b9faeabc086f698730de09a5c9" target="_top" xlink:title="authoring.view.propertiesview.\lGameObjectProperties.initializeProperties">
<polygon fill="white" stroke="black" points="234.5,-97 234.5,-127 449.5,-127 449.5,-97 234.5,-97"/>
<text text-anchor="start" x="242.5" y="-115" font-family="Helvetica,sans-Serif" font-size="10.00">authoring.view.propertiesview.</text>
<text text-anchor="middle" x="342" y="-104" font-family="Helvetica,sans-Serif" font-size="10.00">GameObjectProperties.initializeProperties</text>
</a>
</g>
</g>
<!-- Node1&#45;&gt;Node20 -->
<g id="edge19" class="edge"><title>Node1&#45;&gt;Node20</title>
<path fill="none" stroke="midnightblue" d="M156.659,-149.48C189.558,-142.791 231.383,-134.287 266.874,-127.071"/>
<polygon fill="midnightblue" stroke="midnightblue" points="155.855,-146.072 146.753,-151.494 157.25,-152.932 155.855,-146.072"/>
</g>
<!-- Node3 -->
<g id="node3" class="node"><title>Node3</title>
<g id="a_node3"><a xlink:href="../../dd/d8d/classengine_1_1render_1_1_renderer.html#a569f6bb2f9c218ed015949dff459b1ee" target="_top" xlink:title="engine.render.Renderer.create\lAndAssignRenderedNode">
<polygon fill="white" stroke="black" points="524.5,-195 524.5,-225 685.5,-225 685.5,-195 524.5,-195"/>
<text text-anchor="start" x="532.5" y="-213" font-family="Helvetica,sans-Serif" font-size="10.00">engine.render.Renderer.create</text>
<text text-anchor="middle" x="605" y="-202" font-family="Helvetica,sans-Serif" font-size="10.00">AndAssignRenderedNode</text>
</a>
</g>
</g>
<!-- Node2&#45;&gt;Node3 -->
<g id="edge2" class="edge"><title>Node2&#45;&gt;Node3</title>
<path fill="none" stroke="midnightblue" d="M430.39,-210C460.72,-210 494.55,-210 524.233,-210"/>
<polygon fill="midnightblue" stroke="midnightblue" points="430.249,-206.5 420.249,-210 430.249,-213.5 430.249,-206.5"/>
</g>
<!-- Node4 -->
<g id="node4" class="node"><title>Node4</title>
<g id="a_node4"><a xlink:href="../../d8/dfe/classengine_1_1actions_1_1_change_image_i_d_action.html#a5517685ef0d4cc94928f226255299f78" target="_top" xlink:title="engine.actions.ChangeImage\lIDAction.execute">
<polygon fill="white" stroke="black" points="771,-367 771,-397 927,-397 927,-367 771,-367"/>
<text text-anchor="start" x="779" y="-385" font-family="Helvetica,sans-Serif" font-size="10.00">engine.actions.ChangeImage</text>
<text text-anchor="middle" x="849" y="-374" font-family="Helvetica,sans-Serif" font-size="10.00">IDAction.execute</text>
</a>
</g>
</g>
<!-- Node3&#45;&gt;Node4 -->
<g id="edge3" class="edge"><title>Node3&#45;&gt;Node4</title>
<path fill="none" stroke="midnightblue" d="M624.233,-233.481C650.694,-265.973 702.861,-324.324 760,-357 766.756,-360.863 774.149,-364.164 781.689,-366.975"/>
<polygon fill="midnightblue" stroke="midnightblue" points="626.759,-231.036 617.77,-225.427 621.299,-235.417 626.759,-231.036"/>
</g>
<!-- Node5 -->
<g id="node5" class="node"><title>Node5</title>
<g id="a_node5"><a xlink:href="../../d4/d9f/classengine_1_1actions_1_1_label_int_increment_action.html#ac110c3332e6d26e169e7e45d537a8d3f" target="_top" xlink:title="engine.actions.LabelIntIncrement\lAction.execute">
<polygon fill="white" stroke="black" points="761,-318 761,-348 937,-348 937,-318 761,-318"/>
<text text-anchor="start" x="769" y="-336" font-family="Helvetica,sans-Serif" font-size="10.00">engine.actions.LabelIntIncrement</text>
<text text-anchor="middle" x="849" y="-325" font-family="Helvetica,sans-Serif" font-size="10.00">Action.execute</text>
</a>
</g>
</g>
<!-- Node3&#45;&gt;Node5 -->
<g id="edge4" class="edge"><title>Node3&#45;&gt;Node5</title>
<path fill="none" stroke="midnightblue" d="M634.092,-231.432C663.928,-253.318 713.158,-286.982 760,-308 768.26,-311.706 777.204,-315.001 786.118,-317.884"/>
<polygon fill="midnightblue" stroke="midnightblue" points="635.962,-228.461 625.844,-225.318 631.793,-234.085 635.962,-228.461"/>
</g>
<!-- Node6 -->
<g id="node6" class="node"><title>Node6</title>
<g id="a_node6"><a xlink:href="../../dd/d57/classengine_1_1actions_1_1_make_new_object_from_location_action.html#a2ebd225d5e10817ac79f4044867afa98" target="_top" xlink:title="engine.actions.MakeNewObject\lFromLocationAction.execute">
<polygon fill="white" stroke="black" points="766,-269 766,-299 932,-299 932,-269 766,-269"/>
<text text-anchor="start" x="774" y="-287" font-family="Helvetica,sans-Serif" font-size="10.00">engine.actions.MakeNewObject</text>
<text text-anchor="middle" x="849" y="-276" font-family="Helvetica,sans-Serif" font-size="10.00">FromLocationAction.execute</text>
</a>
</g>
</g>
<!-- Node3&#45;&gt;Node6 -->
<g id="edge5" class="edge"><title>Node3&#45;&gt;Node6</title>
<path fill="none" stroke="midnightblue" d="M661.658,-228.171C690.869,-237.591 727.294,-249.154 760,-259 770.95,-262.297 782.701,-265.716 793.937,-268.929"/>
<polygon fill="midnightblue" stroke="midnightblue" points="662.635,-224.809 652.044,-225.065 660.483,-231.47 662.635,-224.809"/>
</g>
<!-- Node7 -->
<g id="node7" class="node"><title>Node7</title>
<g id="a_node7"><a xlink:href="../../db/d61/classengine_1_1actions_1_1_make_new_object_from_object_action.html#a01ffb165d6169f7b0a22733e2b6c61a9" target="_top" xlink:title="engine.actions.MakeNewObject\lFromObjectAction.execute">
<polygon fill="white" stroke="black" points="766,-220 766,-250 932,-250 932,-220 766,-220"/>
<text text-anchor="start" x="774" y="-238" font-family="Helvetica,sans-Serif" font-size="10.00">engine.actions.MakeNewObject</text>
<text text-anchor="middle" x="849" y="-227" font-family="Helvetica,sans-Serif" font-size="10.00">FromObjectAction.execute</text>
</a>
</g>
</g>
<!-- Node3&#45;&gt;Node7 -->
<g id="edge6" class="edge"><title>Node3&#45;&gt;Node7</title>
<path fill="none" stroke="midnightblue" d="M695.668,-219.263C718.668,-221.639 743.291,-224.183 765.889,-226.517"/>
<polygon fill="midnightblue" stroke="midnightblue" points="695.882,-215.767 685.575,-218.221 695.162,-222.73 695.882,-215.767"/>
</g>
<!-- Node8 -->
<g id="node8" class="node"><title>Node8</title>
<g id="a_node8"><a xlink:href="../../da/d16/classengine_1_1actions_1_1_make_new_random_object_action.html#a82ccd5604bd05170e416e41b32020f00" target="_top" xlink:title="engine.actions.MakeNewRandom\lObjectAction.makeRandomObject">
<polygon fill="white" stroke="black" points="760,-171 760,-201 938,-201 938,-171 760,-171"/>
<text text-anchor="start" x="768" y="-189" font-family="Helvetica,sans-Serif" font-size="10.00">engine.actions.MakeNewRandom</text>
<text text-anchor="middle" x="849" y="-178" font-family="Helvetica,sans-Serif" font-size="10.00">ObjectAction.makeRandomObject</text>
</a>
</g>
</g>
<!-- Node3&#45;&gt;Node8 -->
<g id="edge7" class="edge"><title>Node3&#45;&gt;Node8</title>
<path fill="none" stroke="midnightblue" d="M695.702,-201.104C716.575,-199.034 738.781,-196.832 759.597,-194.767"/>
<polygon fill="midnightblue" stroke="midnightblue" points="695.181,-197.638 685.575,-202.108 695.872,-204.604 695.181,-197.638"/>
</g>
<!-- Node10 -->
<g id="node10" class="node"><title>Node10</title>
<g id="a_node10"><a xlink:href="../../db/db5/classengine_1_1actions_1_1render_1_1_change_image_type_action.html#a09110a0a08bac229b9e2feddf1d3378c" target="_top" xlink:title="engine.actions.render.Change\lImageTypeAction.execute">
<polygon fill="white" stroke="black" points="769,-122 769,-152 929,-152 929,-122 769,-122"/>
<text text-anchor="start" x="777" y="-140" font-family="Helvetica,sans-Serif" font-size="10.00">engine.actions.render.Change</text>
<text text-anchor="middle" x="849" y="-129" font-family="Helvetica,sans-Serif" font-size="10.00">ImageTypeAction.execute</text>
</a>
</g>
</g>
<!-- Node3&#45;&gt;Node10 -->
<g id="edge9" class="edge"><title>Node3&#45;&gt;Node10</title>
<path fill="none" stroke="midnightblue" d="M662.657,-191.964C691.708,-182.812 727.688,-171.624 760,-162 770.96,-158.736 782.715,-155.33 793.952,-152.121"/>
<polygon fill="midnightblue" stroke="midnightblue" points="661.569,-188.637 653.086,-194.985 663.675,-195.313 661.569,-188.637"/>
</g>
<!-- Node11 -->
<g id="node11" class="node"><title>Node11</title>
<g id="a_node11"><a xlink:href="../../d3/dbb/classengine_1_1actions_1_1render_1_1_paint_canvas.html#a3f4cb25dfb09aa686debf838e806b010" target="_top" xlink:title="engine.actions.render.Paint\lCanvas.applyRender">
<polygon fill="white" stroke="black" points="776,-73 776,-103 922,-103 922,-73 776,-73"/>
<text text-anchor="start" x="784" y="-91" font-family="Helvetica,sans-Serif" font-size="10.00">engine.actions.render.Paint</text>
<text text-anchor="middle" x="849" y="-80" font-family="Helvetica,sans-Serif" font-size="10.00">Canvas.applyRender</text>
</a>
</g>
</g>
<!-- Node3&#45;&gt;Node11 -->
<g id="edge10" class="edge"><title>Node3&#45;&gt;Node11</title>
<path fill="none" stroke="midnightblue" d="M639.056,-189.373C662.739,-174.57 695.375,-154.12 724,-136 740.043,-125.845 742.684,-120.788 760,-113 768.256,-109.287 777.199,-105.987 786.112,-103.102"/>
<polygon fill="midnightblue" stroke="midnightblue" points="637.071,-186.486 630.445,-194.753 640.78,-192.423 637.071,-186.486"/>
</g>
<!-- Node12 -->
<g id="node12" class="node"><title>Node12</title>
<g id="a_node12"><a xlink:href="../../dd/d8d/classengine_1_1render_1_1_renderer.html#a189dda9a8463274afe267959860f0dee" target="_top" xlink:title="engine.render.Renderer.render\lGameObjects">
<polygon fill="white" stroke="black" points="768,-24 768,-54 930,-54 930,-24 768,-24"/>
<text text-anchor="start" x="776" y="-42" font-family="Helvetica,sans-Serif" font-size="10.00">engine.render.Renderer.render</text>
<text text-anchor="middle" x="849" y="-31" font-family="Helvetica,sans-Serif" font-size="10.00">GameObjects</text>
</a>
</g>
</g>
<!-- Node3&#45;&gt;Node12 -->
<g id="edge11" class="edge"><title>Node3&#45;&gt;Node12</title>
<path fill="none" stroke="midnightblue" d="M649.369,-190.269C673.697,-177.511 703.236,-158.997 724,-136 748.243,-109.15 732.087,-86.0114 760,-63 764.154,-59.5751 768.758,-56.6366 773.617,-54.1157"/>
<polygon fill="midnightblue" stroke="midnightblue" points="647.65,-187.216 640.329,-194.874 650.828,-193.454 647.65,-187.216"/>
</g>
<!-- Node9 -->
<g id="node9" class="node"><title>Node9</title>
<g id="a_node9"><a xlink:href="../../da/d16/classengine_1_1actions_1_1_make_new_random_object_action.html#aa831c4b818ed75f812bf8ba0d453c942" target="_top" xlink:title="engine.actions.MakeNewRandom\lObjectAction.execute">
<polygon fill="white" stroke="black" points="978.5,-171 978.5,-201 1153.5,-201 1153.5,-171 978.5,-171"/>
<text text-anchor="start" x="986.5" y="-189" font-family="Helvetica,sans-Serif" font-size="10.00">engine.actions.MakeNewRandom</text>
<text text-anchor="middle" x="1066" y="-178" font-family="Helvetica,sans-Serif" font-size="10.00">ObjectAction.execute</text>
</a>
</g>
</g>
<!-- Node8&#45;&gt;Node9 -->
<g id="edge8" class="edge"><title>Node8&#45;&gt;Node9</title>
<path fill="none" stroke="midnightblue" d="M948.135,-186C958.252,-186 968.48,-186 978.458,-186"/>
<polygon fill="midnightblue" stroke="midnightblue" points="948.069,-182.5 938.069,-186 948.069,-189.5 948.069,-182.5"/>
</g>
<!-- Node13 -->
<g id="node13" class="node"><title>Node13</title>
<g id="a_node13"><a xlink:href="../../df/d67/classengine_1_1level_1_1_level_manager.html#a523599892453015eed0f1b506979af8a" target="_top" xlink:title="engine.level.LevelManager.initialize\lCurrentLevel">
<polygon fill="white" stroke="black" points="974,-24 974,-54 1158,-54 1158,-24 974,-24"/>
<text text-anchor="start" x="982" y="-42" font-family="Helvetica,sans-Serif" font-size="10.00">engine.level.LevelManager.initialize</text>
<text text-anchor="middle" x="1066" y="-31" font-family="Helvetica,sans-Serif" font-size="10.00">CurrentLevel</text>
</a>
</g>
</g>
<!-- Node12&#45;&gt;Node13 -->
<g id="edge12" class="edge"><title>Node12&#45;&gt;Node13</title>
<path fill="none" stroke="midnightblue" d="M940.147,-39C951.224,-39 962.555,-39 973.65,-39"/>
<polygon fill="midnightblue" stroke="midnightblue" points="940.058,-35.5001 930.058,-39 940.058,-42.5001 940.058,-35.5001"/>
</g>
<!-- Node14 -->
<g id="node14" class="node"><title>Node14</title>
<g id="a_node14"><a xlink:href="../../df/d67/classengine_1_1level_1_1_level_manager.html#a1d0f314bbf304bf86067ab87b832d2e0" target="_top" xlink:title="engine.level.LevelManager.find\lAndSetStartLevel">
<polygon fill="white" stroke="black" points="1194.5,-49 1194.5,-79 1357.5,-79 1357.5,-49 1194.5,-49"/>
<text text-anchor="start" x="1202.5" y="-67" font-family="Helvetica,sans-Serif" font-size="10.00">engine.level.LevelManager.find</text>
<text text-anchor="middle" x="1276" y="-56" font-family="Helvetica,sans-Serif" font-size="10.00">AndSetStartLevel</text>
</a>
</g>
</g>
<!-- Node13&#45;&gt;Node14 -->
<g id="edge13" class="edge"><title>Node13&#45;&gt;Node14</title>
<path fill="none" stroke="midnightblue" d="M1168.4,-51.1878C1177.09,-52.2318 1185.8,-53.2787 1194.29,-54.2994"/>
<polygon fill="midnightblue" stroke="midnightblue" points="1168.58,-47.6838 1158.23,-49.9654 1167.74,-54.6338 1168.58,-47.6838"/>
</g>
<!-- Node16 -->
<g id="node16" class="node"><title>Node16</title>
<g id="a_node16"><a xlink:href="../../df/d67/classengine_1_1level_1_1_level_manager.html#ad89101547413fe335873b050fd091c79" target="_top" xlink:title="engine.level.LevelManager.set\lCurrentLevel">
<polygon fill="white" stroke="black" points="1195.5,-0 1195.5,-30 1356.5,-30 1356.5,-0 1195.5,-0"/>
<text text-anchor="start" x="1203.5" y="-18" font-family="Helvetica,sans-Serif" font-size="10.00">engine.level.LevelManager.set</text>
<text text-anchor="middle" x="1276" y="-7" font-family="Helvetica,sans-Serif" font-size="10.00">CurrentLevel</text>
</a>
</g>
</g>
<!-- Node13&#45;&gt;Node16 -->
<g id="edge15" class="edge"><title>Node13&#45;&gt;Node16</title>
<path fill="none" stroke="midnightblue" d="M1168.39,-27.3012C1177.41,-26.2604 1186.46,-25.2166 1195.26,-24.2011"/>
<polygon fill="midnightblue" stroke="midnightblue" points="1167.76,-23.85 1158.23,-28.4733 1168.57,-30.8039 1167.76,-23.85"/>
</g>
<!-- Node15 -->
<g id="node15" class="node"><title>Node15</title>
<g id="a_node15"><a xlink:href="../../df/d67/classengine_1_1level_1_1_level_manager.html#a587b50d02654d70122a28bcda169bb8d" target="_top" xlink:title="engine.level.LevelManager.\lLevelManager">
<polygon fill="white" stroke="black" points="1412,-49 1412,-79 1558,-79 1558,-49 1412,-49"/>
<text text-anchor="start" x="1420" y="-67" font-family="Helvetica,sans-Serif" font-size="10.00">engine.level.LevelManager.</text>
<text text-anchor="middle" x="1485" y="-56" font-family="Helvetica,sans-Serif" font-size="10.00">LevelManager</text>
</a>
</g>
</g>
<!-- Node14&#45;&gt;Node15 -->
<g id="edge14" class="edge"><title>Node14&#45;&gt;Node15</title>
<path fill="none" stroke="midnightblue" d="M1367.74,-64C1382.44,-64 1397.5,-64 1411.69,-64"/>
<polygon fill="midnightblue" stroke="midnightblue" points="1367.62,-60.5001 1357.62,-64 1367.62,-67.5001 1367.62,-60.5001"/>
</g>
<!-- Node17 -->
<g id="node17" class="node"><title>Node17</title>
<g id="a_node17"><a xlink:href="../../df/d67/classengine_1_1level_1_1_level_manager.html#ad3c392cf6260c53428255fb596442692" target="_top" xlink:title="engine.level.LevelManager.change\lToLevel">
<polygon fill="white" stroke="black" points="1394.5,-0 1394.5,-30 1575.5,-30 1575.5,-0 1394.5,-0"/>
<text text-anchor="start" x="1402.5" y="-18" font-family="Helvetica,sans-Serif" font-size="10.00">engine.level.LevelManager.change</text>
<text text-anchor="middle" x="1485" y="-7" font-family="Helvetica,sans-Serif" font-size="10.00">ToLevel</text>
</a>
</g>
</g>
<!-- Node16&#45;&gt;Node17 -->
<g id="edge16" class="edge"><title>Node16&#45;&gt;Node17</title>
<path fill="none" stroke="midnightblue" d="M1366.92,-15C1376,-15 1385.23,-15 1394.31,-15"/>
<polygon fill="midnightblue" stroke="midnightblue" points="1366.74,-11.5001 1356.74,-15 1366.74,-18.5001 1366.74,-11.5001"/>
</g>
<!-- Node18 -->
<g id="node18" class="node"><title>Node18</title>
<g id="a_node18"><a xlink:href="../../d1/d73/classengine_1_1actions_1_1_change_level_action.html#a8190adf308768b0d12f6432d0cf0fbc4" target="_top" xlink:title="engine.actions.ChangeLevel\lAction.execute">
<polygon fill="white" stroke="black" points="1612.5,-0 1612.5,-30 1763.5,-30 1763.5,-0 1612.5,-0"/>
<text text-anchor="start" x="1620.5" y="-18" font-family="Helvetica,sans-Serif" font-size="10.00">engine.actions.ChangeLevel</text>
<text text-anchor="middle" x="1688" y="-7" font-family="Helvetica,sans-Serif" font-size="10.00">Action.execute</text>
</a>
</g>
</g>
<!-- Node17&#45;&gt;Node18 -->
<g id="edge17" class="edge"><title>Node17&#45;&gt;Node18</title>
<path fill="none" stroke="midnightblue" d="M1585.71,-15C1594.65,-15 1603.61,-15 1612.29,-15"/>
<polygon fill="midnightblue" stroke="midnightblue" points="1585.62,-11.5001 1575.62,-15 1585.62,-18.5001 1585.62,-11.5001"/>
</g>
<!-- Node21 -->
<g id="node21" class="node"><title>Node21</title>
<g id="a_node21"><a xlink:href="../../da/d8d/classauthoring_1_1view_1_1propertiesview_1_1_game_object_properties.html#a666800a7063c728f47a848ab730362d3" target="_top" xlink:title="authoring.view.propertiesview.\lGameObjectProperties.GameObjectProperties">
<polygon fill="white" stroke="black" points="486.5,-97 486.5,-127 723.5,-127 723.5,-97 486.5,-97"/>
<text text-anchor="start" x="494.5" y="-115" font-family="Helvetica,sans-Serif" font-size="10.00">authoring.view.propertiesview.</text>
<text text-anchor="middle" x="605" y="-104" font-family="Helvetica,sans-Serif" font-size="10.00">GameObjectProperties.GameObjectProperties</text>
</a>
</g>
</g>
<!-- Node20&#45;&gt;Node21 -->
<g id="edge20" class="edge"><title>Node20&#45;&gt;Node21</title>
<path fill="none" stroke="midnightblue" d="M459.821,-112C468.625,-112 477.512,-112 486.321,-112"/>
<polygon fill="midnightblue" stroke="midnightblue" points="459.535,-108.5 449.535,-112 459.535,-115.5 459.535,-108.5"/>
</g>
</g>
</svg>
        <g id="navigator" transform="translate(0 0)" fill="#404254">
                <rect fill="#f2f5e9" fill-opacity="0.5" stroke="#606060" stroke-width=".5" x="0" y="0" width="60" height="60"/>
                <use id="zoomplus" xlink:href="#zoomPlus" x="17" y="9" onmousedown="handleZoom(evt,'in')"/>
                <use id="zoomminus" xlink:href="#zoomMin" x="42" y="9" onmousedown="handleZoom(evt,'out')"/>
                <use id="reset" xlink:href="#resetDef" x="30" y="36" onmousedown="handleReset()"/>
                <g id="arrowUp" xlink:href="#dirArrow" transform="translate(30 24)" onmousedown="handlePan(0,-1)">
                  <use xlink:href="#rim" fill="#404040">
                        <set attributeName="fill" to="#808080" begin="arrowUp.mouseover" end="arrowUp.mouseout"/>
                  </use>
                  <path fill="none" stroke="white" stroke-width="1.5" d="M0,-3.0v7 M-2.5,-0.5L0,-3.0L2.5,-0.5"/>
                </g>
                <g id="arrowRight" xlink:href="#dirArrow" transform="rotate(90) translate(36 -43)" onmousedown="handlePan(1,0)">
                  <use xlink:href="#rim" fill="#404040">
                        <set attributeName="fill" to="#808080" begin="arrowRight.mouseover" end="arrowRight.mouseout"/>
                  </use>
                  <path fill="none" stroke="white" stroke-width="1.5" d="M0,-3.0v7 M-2.5,-0.5L0,-3.0L2.5,-0.5"/>
                </g>
                <g id="arrowDown" xlink:href="#dirArrow" transform="rotate(180) translate(-30 -48)" onmousedown="handlePan(0,1)">
                  <use xlink:href="#rim" fill="#404040">
                        <set attributeName="fill" to="#808080" begin="arrowDown.mouseover" end="arrowDown.mouseout"/>
                  </use>
                  <path fill="none" stroke="white" stroke-width="1.5" d="M0,-3.0v7 M-2.5,-0.5L0,-3.0L2.5,-0.5"/>
                </g>
                <g id="arrowLeft" xlink:href="#dirArrow" transform="rotate(270) translate(-36 17)" onmousedown="handlePan(-1,0)">
                  <use xlink:href="#rim" fill="#404040">
                        <set attributeName="fill" to="#808080" begin="arrowLeft.mouseover" end="arrowLeft.mouseout"/>
                  </use>
                  <path fill="none" stroke="white" stroke-width="1.5" d="M0,-3.0v7 M-2.5,-0.5L0,-3.0L2.5,-0.5"/>
                </g>
        </g>
        <svg viewBox="0 0 15 15" width="100%" height="30px" preserveAspectRatio="xMaxYMin meet">
         <g id="arrow_out" transform="scale(0.3 0.3)">
          <a xlink:href="classengine_1_1game_object_1_1_game_object_a1988806ef560c9384f3844d0666a9450_icgraph_org.svg" target="_base">
           <rect id="button" ry="5" rx="5" y="6" x="6" height="38" width="38"
                fill="#f2f5e9" fill-opacity="0.5" stroke="#606060" stroke-width="1.0"/>
           <path id="arrow"
             d="M 11.500037,31.436501 C 11.940474,20.09759 22.043105,11.32322 32.158766,21.979434 L 37.068811,17.246167 C 37.068811,17.246167 37.088388,32 37.088388,32 L 22.160133,31.978069 C 22.160133,31.978069 26.997745,27.140456 26.997745,27.140456 C 18.528582,18.264221 13.291696,25.230495 11.500037,31.436501 z"
             style="fill:#404040;"/>
          </a>
         </g>
        </svg>
</svg>
