<?xml version="1.0" encoding="UTF-8" standalone="no"?>
<!DOCTYPE svg PUBLIC "-//W3C//DTD SVG 1.1//EN"
 "http://www.w3.org/Graphics/SVG/1.1/DTD/svg11.dtd">
<!-- Generated by graphviz version 2.36.0 (20140111.2315)
 -->
<!-- Title: engine.gameObject.GameObject.getID Pages: 1 -->
<svg width="1694pt" height="479pt"
 viewBox="0.00 0.00 1694.00 479.00" xmlns="http://www.w3.org/2000/svg" xmlns:xlink="http://www.w3.org/1999/xlink">
<g id="graph0" class="graph" transform="scale(1 1) rotate(0) translate(4 475)">
<title>engine.gameObject.GameObject.getID</title>
<polygon fill="white" stroke="none" points="-4,4 -4,-475 1690,-475 1690,4 -4,4"/>
<!-- Node1 -->
<g id="node1" class="node"><title>Node1</title>
<polygon fill="#bfbfbf" stroke="black" points="0,-91.5 0,-110.5 202,-110.5 202,-91.5 0,-91.5"/>
<text text-anchor="middle" x="101" y="-98.5" font-family="Helvetica,sans-Serif" font-size="10.00">engine.gameObject.GameObject.getID</text>
</g>
<!-- Node2 -->
<g id="node2" class="node"><title>Node2</title>
<g id="a_node2"><a xlink:href="../../d5/d30/classengine_1_1render_1_1_rendered_node_factory.html#a359dcce722371dfb49b79528930c1b05" target="_top" xlink:title="engine.render.RenderedNode\lFactory.createRenderedNode">
<polygon fill="white" stroke="black" points="248,-208 248,-238 404,-238 404,-208 248,-208"/>
<text text-anchor="start" x="256" y="-226" font-family="Helvetica,sans-Serif" font-size="10.00">engine.render.RenderedNode</text>
<text text-anchor="middle" x="326" y="-215" font-family="Helvetica,sans-Serif" font-size="10.00">Factory.createRenderedNode</text>
</a>
</g>
</g>
<!-- Node1&#45;&gt;Node2 -->
<g id="edge1" class="edge"><title>Node1&#45;&gt;Node2</title>
<path fill="none" stroke="midnightblue" d="M128.41,-115.448C170.917,-138.703 254.109,-184.216 297.376,-207.887"/>
<polygon fill="midnightblue" stroke="midnightblue" points="129.951,-112.302 119.498,-110.573 126.592,-118.443 129.951,-112.302"/>
</g>
<!-- Node19 -->
<g id="node19" class="node"><title>Node19</title>
<g id="a_node19"><a xlink:href="../../da/d8d/classauthoring_1_1view_1_1propertiesview_1_1_game_object_properties.html#a6f1aeaddb6956053690488c8ddaa38ba" target="_top" xlink:title="authoring.view.propertiesview.\lGameObjectProperties.edit">
<polygon fill="white" stroke="black" points="246.5,-86 246.5,-116 405.5,-116 405.5,-86 246.5,-86"/>
<text text-anchor="start" x="254.5" y="-104" font-family="Helvetica,sans-Serif" font-size="10.00">authoring.view.propertiesview.</text>
<text text-anchor="middle" x="326" y="-93" font-family="Helvetica,sans-Serif" font-size="10.00">GameObjectProperties.edit</text>
</a>
</g>
</g>
<!-- Node1&#45;&gt;Node19 -->
<g id="edge18" class="edge"><title>Node1&#45;&gt;Node19</title>
<path fill="none" stroke="midnightblue" d="M212.188,-101C223.704,-101 235.238,-101 246.3,-101"/>
<polygon fill="midnightblue" stroke="midnightblue" points="212.085,-97.5001 202.085,-101 212.085,-104.5 212.085,-97.5001"/>
</g>
<!-- Node23 -->
<g id="node23" class="node"><title>Node23</title>
<g id="a_node23"><a xlink:href="../../d0/d7f/classengine_1_1game_object_1_1_game_object.html#aa99b0343da84d676c7709cee3cfbc4e1" target="_top" xlink:title="engine.gameObject.GameObject.\lGameObject">
<polygon fill="white" stroke="black" points="238,-37 238,-67 414,-67 414,-37 238,-37"/>
<text text-anchor="start" x="246" y="-55" font-family="Helvetica,sans-Serif" font-size="10.00">engine.gameObject.GameObject.</text>
<text text-anchor="middle" x="326" y="-44" font-family="Helvetica,sans-Serif" font-size="10.00">GameObject</text>
</a>
</g>
</g>
<!-- Node1&#45;&gt;Node23 -->
<g id="edge22" class="edge"><title>Node1&#45;&gt;Node23</title>
<path fill="none" stroke="midnightblue" d="M155.217,-89.3066C185.536,-82.6446 223.853,-74.2251 256.41,-67.0713"/>
<polygon fill="midnightblue" stroke="midnightblue" points="154.277,-85.9296 145.261,-91.4942 155.779,-92.7665 154.277,-85.9296"/>
</g>
<!-- Node3 -->
<g id="node3" class="node"><title>Node3</title>
<g id="a_node3"><a xlink:href="../../dd/d8d/classengine_1_1render_1_1_renderer.html#a569f6bb2f9c218ed015949dff459b1ee" target="_top" xlink:title="engine.render.Renderer.create\lAndAssignRenderedNode">
<polygon fill="white" stroke="black" points="467.5,-245 467.5,-275 628.5,-275 628.5,-245 467.5,-245"/>
<text text-anchor="start" x="475.5" y="-263" font-family="Helvetica,sans-Serif" font-size="10.00">engine.render.Renderer.create</text>
<text text-anchor="middle" x="548" y="-252" font-family="Helvetica,sans-Serif" font-size="10.00">AndAssignRenderedNode</text>
</a>
</g>
</g>
<!-- Node2&#45;&gt;Node3 -->
<g id="edge2" class="edge"><title>Node2&#45;&gt;Node3</title>
<path fill="none" stroke="midnightblue" d="M414.429,-237.704C431.889,-240.64 450.142,-243.71 467.324,-246.6"/>
<polygon fill="midnightblue" stroke="midnightblue" points="414.696,-234.2 404.254,-235.993 413.535,-241.103 414.696,-234.2"/>
</g>
<!-- Node4 -->
<g id="node4" class="node"><title>Node4</title>
<g id="a_node4"><a xlink:href="../../d8/dfe/classengine_1_1actions_1_1_change_image_i_d_action.html#a5517685ef0d4cc94928f226255299f78" target="_top" xlink:title="engine.actions.ChangeImage\lIDAction.execute">
<polygon fill="white" stroke="black" points="693,-441 693,-471 849,-471 849,-441 693,-441"/>
<text text-anchor="start" x="701" y="-459" font-family="Helvetica,sans-Serif" font-size="10.00">engine.actions.ChangeImage</text>
<text text-anchor="middle" x="771" y="-448" font-family="Helvetica,sans-Serif" font-size="10.00">IDAction.execute</text>
</a>
</g>
</g>
<!-- Node3&#45;&gt;Node4 -->
<g id="edge3" class="edge"><title>Node3&#45;&gt;Node4</title>
<path fill="none" stroke="midnightblue" d="M561.312,-284.315C581.428,-321.569 624.893,-392.492 682,-431 687.794,-434.907 694.196,-438.209 700.826,-441"/>
<polygon fill="midnightblue" stroke="midnightblue" points="564.252,-282.388 556.485,-275.182 558.063,-285.658 564.252,-282.388"/>
</g>
<!-- Node5 -->
<g id="node5" class="node"><title>Node5</title>
<g id="a_node5"><a xlink:href="../../d4/d9f/classengine_1_1actions_1_1_label_int_increment_action.html#ac110c3332e6d26e169e7e45d537a8d3f" target="_top" xlink:title="engine.actions.LabelIntIncrement\lAction.execute">
<polygon fill="white" stroke="black" points="683,-392 683,-422 859,-422 859,-392 683,-392"/>
<text text-anchor="start" x="691" y="-410" font-family="Helvetica,sans-Serif" font-size="10.00">engine.actions.LabelIntIncrement</text>
<text text-anchor="middle" x="771" y="-399" font-family="Helvetica,sans-Serif" font-size="10.00">Action.execute</text>
</a>
</g>
</g>
<!-- Node3&#45;&gt;Node5 -->
<g id="edge4" class="edge"><title>Node3&#45;&gt;Node5</title>
<path fill="none" stroke="midnightblue" d="M568.043,-283.076C591.916,-310.544 635.397,-355.96 682,-382 688.794,-385.796 696.211,-389.055 703.764,-391.843"/>
<polygon fill="midnightblue" stroke="midnightblue" points="570.441,-280.495 561.282,-275.169 565.121,-285.044 570.441,-280.495"/>
</g>
<!-- Node6 -->
<g id="node6" class="node"><title>Node6</title>
<g id="a_node6"><a xlink:href="../../dd/d57/classengine_1_1actions_1_1_make_new_object_from_location_action.html#a2ebd225d5e10817ac79f4044867afa98" target="_top" xlink:title="engine.actions.MakeNewObject\lFromLocationAction.execute">
<polygon fill="white" stroke="black" points="688,-343 688,-373 854,-373 854,-343 688,-343"/>
<text text-anchor="start" x="696" y="-361" font-family="Helvetica,sans-Serif" font-size="10.00">engine.actions.MakeNewObject</text>
<text text-anchor="middle" x="771" y="-350" font-family="Helvetica,sans-Serif" font-size="10.00">FromLocationAction.execute</text>
</a>
</g>
</g>
<!-- Node3&#45;&gt;Node6 -->
<g id="edge5" class="edge"><title>Node3&#45;&gt;Node6</title>
<path fill="none" stroke="midnightblue" d="M581.48,-280.535C607.798,-296.501 646.251,-318.331 682,-333 690.963,-336.678 700.651,-340.022 710.21,-342.984"/>
<polygon fill="midnightblue" stroke="midnightblue" points="583.056,-277.396 572.701,-275.154 579.398,-283.364 583.056,-277.396"/>
</g>
<!-- Node7 -->
<g id="node7" class="node"><title>Node7</title>
<g id="a_node7"><a xlink:href="../../db/d61/classengine_1_1actions_1_1_make_new_object_from_object_action.html#a01ffb165d6169f7b0a22733e2b6c61a9" target="_top" xlink:title="engine.actions.MakeNewObject\lFromObjectAction.execute">
<polygon fill="white" stroke="black" points="688,-294 688,-324 854,-324 854,-294 688,-294"/>
<text text-anchor="start" x="696" y="-312" font-family="Helvetica,sans-Serif" font-size="10.00">engine.actions.MakeNewObject</text>
<text text-anchor="middle" x="771" y="-301" font-family="Helvetica,sans-Serif" font-size="10.00">FromObjectAction.execute</text>
</a>
</g>
</g>
<!-- Node3&#45;&gt;Node7 -->
<g id="edge6" class="edge"><title>Node3&#45;&gt;Node7</title>
<path fill="none" stroke="midnightblue" d="M626.838,-277.258C651.463,-282.718 678.465,-288.705 702.319,-293.994"/>
<polygon fill="midnightblue" stroke="midnightblue" points="627.33,-273.782 616.809,-275.035 625.814,-280.616 627.33,-273.782"/>
</g>
<!-- Node8 -->
<g id="node8" class="node"><title>Node8</title>
<g id="a_node8"><a xlink:href="../../da/d16/classengine_1_1actions_1_1_make_new_random_object_action.html#a82ccd5604bd05170e416e41b32020f00" target="_top" xlink:title="engine.actions.MakeNewRandom\lObjectAction.makeRandomObject">
<polygon fill="white" stroke="black" points="682,-245 682,-275 860,-275 860,-245 682,-245"/>
<text text-anchor="start" x="690" y="-263" font-family="Helvetica,sans-Serif" font-size="10.00">engine.actions.MakeNewRandom</text>
<text text-anchor="middle" x="771" y="-252" font-family="Helvetica,sans-Serif" font-size="10.00">ObjectAction.makeRandomObject</text>
</a>
</g>
</g>
<!-- Node3&#45;&gt;Node8 -->
<g id="edge7" class="edge"><title>Node3&#45;&gt;Node8</title>
<path fill="none" stroke="midnightblue" d="M638.965,-260C653.076,-260 667.65,-260 681.722,-260"/>
<polygon fill="midnightblue" stroke="midnightblue" points="638.786,-256.5 628.786,-260 638.786,-263.5 638.786,-256.5"/>
</g>
<!-- Node10 -->
<g id="node10" class="node"><title>Node10</title>
<g id="a_node10"><a xlink:href="../../db/db5/classengine_1_1actions_1_1render_1_1_change_image_type_action.html#a09110a0a08bac229b9e2feddf1d3378c" target="_top" xlink:title="engine.actions.render.Change\lImageTypeAction.execute">
<polygon fill="white" stroke="black" points="691,-196 691,-226 851,-226 851,-196 691,-196"/>
<text text-anchor="start" x="699" y="-214" font-family="Helvetica,sans-Serif" font-size="10.00">engine.actions.render.Change</text>
<text text-anchor="middle" x="771" y="-203" font-family="Helvetica,sans-Serif" font-size="10.00">ImageTypeAction.execute</text>
</a>
</g>
</g>
<!-- Node3&#45;&gt;Node10 -->
<g id="edge9" class="edge"><title>Node3&#45;&gt;Node10</title>
<path fill="none" stroke="midnightblue" d="M626.838,-242.742C651.463,-237.282 678.465,-231.295 702.319,-226.006"/>
<polygon fill="midnightblue" stroke="midnightblue" points="625.814,-239.384 616.809,-244.965 627.33,-246.218 625.814,-239.384"/>
</g>
<!-- Node11 -->
<g id="node11" class="node"><title>Node11</title>
<g id="a_node11"><a xlink:href="../../d3/dbb/classengine_1_1actions_1_1render_1_1_paint_canvas.html#a3f4cb25dfb09aa686debf838e806b010" target="_top" xlink:title="engine.actions.render.Paint\lCanvas.applyRender">
<polygon fill="white" stroke="black" points="698,-147 698,-177 844,-177 844,-147 698,-147"/>
<text text-anchor="start" x="706" y="-165" font-family="Helvetica,sans-Serif" font-size="10.00">engine.actions.render.Paint</text>
<text text-anchor="middle" x="771" y="-154" font-family="Helvetica,sans-Serif" font-size="10.00">Canvas.applyRender</text>
</a>
</g>
</g>
<!-- Node3&#45;&gt;Node11 -->
<g id="edge10" class="edge"><title>Node3&#45;&gt;Node11</title>
<path fill="none" stroke="midnightblue" d="M581.48,-239.465C607.798,-223.499 646.251,-201.669 682,-187 690.963,-183.322 700.651,-179.978 710.21,-177.016"/>
<polygon fill="midnightblue" stroke="midnightblue" points="579.398,-236.636 572.701,-244.846 583.056,-242.604 579.398,-236.636"/>
</g>
<!-- Node12 -->
<g id="node12" class="node"><title>Node12</title>
<g id="a_node12"><a xlink:href="../../dd/d8d/classengine_1_1render_1_1_renderer.html#a189dda9a8463274afe267959860f0dee" target="_top" xlink:title="engine.render.Renderer.render\lGameObjects">
<polygon fill="white" stroke="black" points="690,-98 690,-128 852,-128 852,-98 690,-98"/>
<text text-anchor="start" x="698" y="-116" font-family="Helvetica,sans-Serif" font-size="10.00">engine.render.Renderer.render</text>
<text text-anchor="middle" x="771" y="-105" font-family="Helvetica,sans-Serif" font-size="10.00">GameObjects</text>
</a>
</g>
</g>
<!-- Node3&#45;&gt;Node12 -->
<g id="edge11" class="edge"><title>Node3&#45;&gt;Node12</title>
<path fill="none" stroke="midnightblue" d="M568.043,-236.924C591.916,-209.456 635.397,-164.04 682,-138 688.794,-134.204 696.211,-130.945 703.764,-128.157"/>
<polygon fill="midnightblue" stroke="midnightblue" points="565.121,-234.956 561.282,-244.831 570.441,-239.505 565.121,-234.956"/>
</g>
<!-- Node9 -->
<g id="node9" class="node"><title>Node9</title>
<g id="a_node9"><a xlink:href="../../da/d16/classengine_1_1actions_1_1_make_new_random_object_action.html#aa831c4b818ed75f812bf8ba0d453c942" target="_top" xlink:title="engine.actions.MakeNewRandom\lObjectAction.execute">
<polygon fill="white" stroke="black" points="900.5,-245 900.5,-275 1075.5,-275 1075.5,-245 900.5,-245"/>
<text text-anchor="start" x="908.5" y="-263" font-family="Helvetica,sans-Serif" font-size="10.00">engine.actions.MakeNewRandom</text>
<text text-anchor="middle" x="988" y="-252" font-family="Helvetica,sans-Serif" font-size="10.00">ObjectAction.execute</text>
</a>
</g>
</g>
<!-- Node8&#45;&gt;Node9 -->
<g id="edge8" class="edge"><title>Node8&#45;&gt;Node9</title>
<path fill="none" stroke="midnightblue" d="M870.135,-260C880.252,-260 890.48,-260 900.458,-260"/>
<polygon fill="midnightblue" stroke="midnightblue" points="870.069,-256.5 860.069,-260 870.069,-263.5 870.069,-256.5"/>
</g>
<!-- Node13 -->
<g id="node13" class="node"><title>Node13</title>
<g id="a_node13"><a xlink:href="../../df/d67/classengine_1_1level_1_1_level_manager.html#a523599892453015eed0f1b506979af8a" target="_top" xlink:title="engine.level.LevelManager.initialize\lCurrentLevel">
<polygon fill="white" stroke="black" points="896,-98 896,-128 1080,-128 1080,-98 896,-98"/>
<text text-anchor="start" x="904" y="-116" font-family="Helvetica,sans-Serif" font-size="10.00">engine.level.LevelManager.initialize</text>
<text text-anchor="middle" x="988" y="-105" font-family="Helvetica,sans-Serif" font-size="10.00">CurrentLevel</text>
</a>
</g>
</g>
<!-- Node12&#45;&gt;Node13 -->
<g id="edge12" class="edge"><title>Node12&#45;&gt;Node13</title>
<path fill="none" stroke="midnightblue" d="M862.147,-113C873.224,-113 884.555,-113 895.65,-113"/>
<polygon fill="midnightblue" stroke="midnightblue" points="862.058,-109.5 852.058,-113 862.058,-116.5 862.058,-109.5"/>
</g>
<!-- Node14 -->
<g id="node14" class="node"><title>Node14</title>
<g id="a_node14"><a xlink:href="../../df/d67/classengine_1_1level_1_1_level_manager.html#a1d0f314bbf304bf86067ab87b832d2e0" target="_top" xlink:title="engine.level.LevelManager.find\lAndSetStartLevel">
<polygon fill="white" stroke="black" points="1116.5,-123 1116.5,-153 1279.5,-153 1279.5,-123 1116.5,-123"/>
<text text-anchor="start" x="1124.5" y="-141" font-family="Helvetica,sans-Serif" font-size="10.00">engine.level.LevelManager.find</text>
<text text-anchor="middle" x="1198" y="-130" font-family="Helvetica,sans-Serif" font-size="10.00">AndSetStartLevel</text>
</a>
</g>
</g>
<!-- Node13&#45;&gt;Node14 -->
<g id="edge13" class="edge"><title>Node13&#45;&gt;Node14</title>
<path fill="none" stroke="midnightblue" d="M1090.4,-125.188C1099.09,-126.232 1107.8,-127.279 1116.29,-128.299"/>
<polygon fill="midnightblue" stroke="midnightblue" points="1090.58,-121.684 1080.23,-123.965 1089.74,-128.634 1090.58,-121.684"/>
</g>
<!-- Node16 -->
<g id="node16" class="node"><title>Node16</title>
<g id="a_node16"><a xlink:href="../../df/d67/classengine_1_1level_1_1_level_manager.html#ad89101547413fe335873b050fd091c79" target="_top" xlink:title="engine.level.LevelManager.set\lCurrentLevel">
<polygon fill="white" stroke="black" points="1117.5,-74 1117.5,-104 1278.5,-104 1278.5,-74 1117.5,-74"/>
<text text-anchor="start" x="1125.5" y="-92" font-family="Helvetica,sans-Serif" font-size="10.00">engine.level.LevelManager.set</text>
<text text-anchor="middle" x="1198" y="-81" font-family="Helvetica,sans-Serif" font-size="10.00">CurrentLevel</text>
</a>
</g>
</g>
<!-- Node13&#45;&gt;Node16 -->
<g id="edge15" class="edge"><title>Node13&#45;&gt;Node16</title>
<path fill="none" stroke="midnightblue" d="M1090.39,-101.301C1099.41,-100.26 1108.46,-99.2166 1117.26,-98.2011"/>
<polygon fill="midnightblue" stroke="midnightblue" points="1089.76,-97.85 1080.23,-102.473 1090.57,-104.804 1089.76,-97.85"/>
</g>
<!-- Node15 -->
<g id="node15" class="node"><title>Node15</title>
<g id="a_node15"><a xlink:href="../../df/d67/classengine_1_1level_1_1_level_manager.html#a587b50d02654d70122a28bcda169bb8d" target="_top" xlink:title="engine.level.LevelManager.\lLevelManager">
<polygon fill="white" stroke="black" points="1334,-123 1334,-153 1480,-153 1480,-123 1334,-123"/>
<text text-anchor="start" x="1342" y="-141" font-family="Helvetica,sans-Serif" font-size="10.00">engine.level.LevelManager.</text>
<text text-anchor="middle" x="1407" y="-130" font-family="Helvetica,sans-Serif" font-size="10.00">LevelManager</text>
</a>
</g>
</g>
<!-- Node14&#45;&gt;Node15 -->
<g id="edge14" class="edge"><title>Node14&#45;&gt;Node15</title>
<path fill="none" stroke="midnightblue" d="M1289.74,-138C1304.44,-138 1319.5,-138 1333.69,-138"/>
<polygon fill="midnightblue" stroke="midnightblue" points="1289.62,-134.5 1279.62,-138 1289.62,-141.5 1289.62,-134.5"/>
</g>
<!-- Node17 -->
<g id="node17" class="node"><title>Node17</title>
<g id="a_node17"><a xlink:href="../../df/d67/classengine_1_1level_1_1_level_manager.html#ad3c392cf6260c53428255fb596442692" target="_top" xlink:title="engine.level.LevelManager.change\lToLevel">
<polygon fill="white" stroke="black" points="1316.5,-74 1316.5,-104 1497.5,-104 1497.5,-74 1316.5,-74"/>
<text text-anchor="start" x="1324.5" y="-92" font-family="Helvetica,sans-Serif" font-size="10.00">engine.level.LevelManager.change</text>
<text text-anchor="middle" x="1407" y="-81" font-family="Helvetica,sans-Serif" font-size="10.00">ToLevel</text>
</a>
</g>
</g>
<!-- Node16&#45;&gt;Node17 -->
<g id="edge16" class="edge"><title>Node16&#45;&gt;Node17</title>
<path fill="none" stroke="midnightblue" d="M1288.92,-89C1298,-89 1307.23,-89 1316.31,-89"/>
<polygon fill="midnightblue" stroke="midnightblue" points="1288.74,-85.5001 1278.74,-89 1288.74,-92.5001 1288.74,-85.5001"/>
</g>
<!-- Node18 -->
<g id="node18" class="node"><title>Node18</title>
<g id="a_node18"><a xlink:href="../../d1/d73/classengine_1_1actions_1_1_change_level_action.html#a8190adf308768b0d12f6432d0cf0fbc4" target="_top" xlink:title="engine.actions.ChangeLevel\lAction.execute">
<polygon fill="white" stroke="black" points="1534.5,-74 1534.5,-104 1685.5,-104 1685.5,-74 1534.5,-74"/>
<text text-anchor="start" x="1542.5" y="-92" font-family="Helvetica,sans-Serif" font-size="10.00">engine.actions.ChangeLevel</text>
<text text-anchor="middle" x="1610" y="-81" font-family="Helvetica,sans-Serif" font-size="10.00">Action.execute</text>
</a>
</g>
</g>
<!-- Node17&#45;&gt;Node18 -->
<g id="edge17" class="edge"><title>Node17&#45;&gt;Node18</title>
<path fill="none" stroke="midnightblue" d="M1507.71,-89C1516.65,-89 1525.61,-89 1534.29,-89"/>
<polygon fill="midnightblue" stroke="midnightblue" points="1507.62,-85.5001 1497.62,-89 1507.62,-92.5001 1507.62,-85.5001"/>
</g>
<!-- Node20 -->
<g id="node20" class="node"><title>Node20</title>
<g id="a_node20"><a xlink:href="../../d4/d9e/classauthoring_1_1view_1_1propertiesview_1_1_properties_view.html#aeed3bf20185eabcf870ee4c649bc1d4e" target="_top" xlink:title="authoring.view.propertiesview.\lPropertiesView.getEditedGameObject">
<polygon fill="white" stroke="black" points="450.5,-49 450.5,-79 645.5,-79 645.5,-49 450.5,-49"/>
<text text-anchor="start" x="458.5" y="-67" font-family="Helvetica,sans-Serif" font-size="10.00">authoring.view.propertiesview.</text>
<text text-anchor="middle" x="548" y="-56" font-family="Helvetica,sans-Serif" font-size="10.00">PropertiesView.getEditedGameObject</text>
</a>
</g>
</g>
<!-- Node19&#45;&gt;Node20 -->
<g id="edge19" class="edge"><title>Node19&#45;&gt;Node20</title>
<path fill="none" stroke="midnightblue" d="M415.736,-86.0762C429.507,-83.7601 443.74,-81.3664 457.527,-79.0476"/>
<polygon fill="midnightblue" stroke="midnightblue" points="415.085,-82.6365 405.804,-87.7467 416.246,-89.5396 415.085,-82.6365"/>
</g>
<!-- Node21 -->
<g id="node21" class="node"><title>Node21</title>
<g id="a_node21"><a xlink:href="../../d6/df5/classauthoring_1_1eventhandlers_1_1_edit_game_object_handler.html#ac0a03e6b751068903df50296d9f1fbd7" target="_top" xlink:title="authoring.eventhandlers.\lEditGameObjectHandler.handle">
<polygon fill="white" stroke="black" points="687.5,-49 687.5,-79 854.5,-79 854.5,-49 687.5,-49"/>
<text text-anchor="start" x="695.5" y="-67" font-family="Helvetica,sans-Serif" font-size="10.00">authoring.eventhandlers.</text>
<text text-anchor="middle" x="771" y="-56" font-family="Helvetica,sans-Serif" font-size="10.00">EditGameObjectHandler.handle</text>
</a>
</g>
</g>
<!-- Node20&#45;&gt;Node21 -->
<g id="edge20" class="edge"><title>Node20&#45;&gt;Node21</title>
<path fill="none" stroke="midnightblue" d="M655.779,-64C666.411,-64 677.089,-64 687.418,-64"/>
<polygon fill="midnightblue" stroke="midnightblue" points="655.612,-60.5001 645.612,-64 655.612,-67.5001 655.612,-60.5001"/>
</g>
<!-- Node22 -->
<g id="node22" class="node"><title>Node22</title>
<g id="a_node22"><a xlink:href="../../df/d81/classauthoring_1_1eventhandlers_1_1_save_as_new_handler.html#a912458649a9a99cded7c346f9d8b40f5" target="_top" xlink:title="authoring.eventhandlers.\lSaveAsNewHandler.handle">
<polygon fill="white" stroke="black" points="698.5,-0 698.5,-30 843.5,-30 843.5,-0 698.5,-0"/>
<text text-anchor="start" x="706.5" y="-18" font-family="Helvetica,sans-Serif" font-size="10.00">authoring.eventhandlers.</text>
<text text-anchor="middle" x="771" y="-7" font-family="Helvetica,sans-Serif" font-size="10.00">SaveAsNewHandler.handle</text>
</a>
</g>
</g>
<!-- Node20&#45;&gt;Node22 -->
<g id="edge21" class="edge"><title>Node20&#45;&gt;Node22</title>
<path fill="none" stroke="midnightblue" d="M626.838,-46.7419C651.463,-41.282 678.465,-35.295 702.319,-30.0062"/>
<polygon fill="midnightblue" stroke="midnightblue" points="625.814,-43.3837 616.809,-48.9654 627.33,-50.2177 625.814,-43.3837"/>
</g>
</g>
</svg>
