<?xml version="1.0" encoding="UTF-8" standalone="no"?>
<!DOCTYPE svg PUBLIC "-//W3C//DTD SVG 1.1//EN"
 "http://www.w3.org/Graphics/SVG/1.1/DTD/svg11.dtd">
<!-- Generated by graphviz version 2.36.0 (20140111.2315)
 -->
<!-- Title: engine.conditions.TypeCollisionCondition Pages: 1 -->
<svg width="2346pt" height="753pt"
 viewBox="0.00 0.00 2346.00 753.00" xmlns="http://www.w3.org/2000/svg" xmlns:xlink="http://www.w3.org/1999/xlink">
<g id="graph0" class="graph" transform="scale(1 1) rotate(0) translate(4 749)">
<title>engine.conditions.TypeCollisionCondition</title>
<polygon fill="white" stroke="none" points="-4,4 -4,-749 2342,-749 2342,4 -4,4"/>
<!-- Node1 -->
<g id="node1" class="node"><title>Node1</title>
<polygon fill="#bfbfbf" stroke="black" points="2174,-33 2174,-63 2338,-63 2338,-33 2174,-33"/>
<text text-anchor="start" x="2182" y="-51" font-family="Helvetica,sans-Serif" font-size="10.00">engine.conditions.TypeCollision</text>
<text text-anchor="middle" x="2256" y="-40" font-family="Helvetica,sans-Serif" font-size="10.00">Condition</text>
</g>
<!-- Node2 -->
<g id="node2" class="node"><title>Node2</title>
<g id="a_node2"><a xlink:href="../../d7/d6b/classengine_1_1conditions_1_1_time_condition.html" target="_top" xlink:title="engine.conditions.TimeCondition">
<polygon fill="white" stroke="black" points="1888,-114.5 1888,-133.5 2060,-133.5 2060,-114.5 1888,-114.5"/>
<text text-anchor="middle" x="1974" y="-121.5" font-family="Helvetica,sans-Serif" font-size="10.00">engine.conditions.TimeCondition</text>
</a>
</g>
</g>
<!-- Node2&#45;&gt;Node1 -->
<g id="edge1" class="edge"><title>Node2&#45;&gt;Node1</title>
<path fill="none" stroke="midnightblue" d="M2019.85,-111.827C2068.75,-98.553 2147.06,-77.2986 2199.72,-63.0034"/>
<polygon fill="midnightblue" stroke="midnightblue" points="2018.91,-108.454 2010.18,-114.452 2020.75,-115.21 2018.91,-108.454"/>
</g>
<!-- Node3 -->
<g id="node3" class="node"><title>Node3</title>
<g id="a_node3"><a xlink:href="../../d1/d3b/classengine_1_1conditions_1_1_condition.html" target="_top" xlink:title="engine.conditions.Condition">
<polygon fill="white" stroke="black" points="1700.5,-152.5 1700.5,-171.5 1849.5,-171.5 1849.5,-152.5 1700.5,-152.5"/>
<text text-anchor="middle" x="1775" y="-159.5" font-family="Helvetica,sans-Serif" font-size="10.00">engine.conditions.Condition</text>
</a>
</g>
</g>
<!-- Node3&#45;&gt;Node2 -->
<g id="edge2" class="edge"><title>Node3&#45;&gt;Node2</title>
<path fill="none" stroke="midnightblue" d="M1835.56,-150.511C1863.67,-145.089 1896.82,-138.694 1923.52,-133.544"/>
<polygon fill="midnightblue" stroke="midnightblue" points="1834.61,-147.129 1825.46,-152.46 1835.94,-154.003 1834.61,-147.129"/>
</g>
<!-- Node4 -->
<g id="node4" class="node"><title>Node4</title>
<g id="a_node4"><a xlink:href="../../dc/df6/interfaceengine_1_1game_object_1_1_identifiable.html" target="_top" xlink:title="engine.gameObject.Identifiable">
<polygon fill="white" stroke="black" points="242.5,-698.5 242.5,-717.5 407.5,-717.5 407.5,-698.5 242.5,-698.5"/>
<text text-anchor="middle" x="325" y="-705.5" font-family="Helvetica,sans-Serif" font-size="10.00">engine.gameObject.Identifiable</text>
</a>
</g>
</g>
<!-- Node4&#45;&gt;Node3 -->
<g id="edge3" class="edge"><title>Node4&#45;&gt;Node3</title>
<path fill="none" stroke="midnightblue" d="M386.536,-719.239C450.522,-730.125 554.503,-745 645,-745 645,-745 645,-745 1496,-745 1761.2,-745 1773.66,-247.434 1774.02,-171.633"/>
<polygon fill="midnightblue" stroke="midnightblue" points="387.068,-715.779 376.619,-717.528 385.879,-722.677 387.068,-715.779"/>
</g>
<!-- Node17 -->
<g id="node17" class="node"><title>Node17</title>
<g id="a_node17"><a xlink:href="../../df/d84/classengine_1_1level_1_1_level.html" target="_top" xlink:title="engine.level.Level">
<polygon fill="white" stroke="black" points="595.5,-475.5 595.5,-494.5 696.5,-494.5 696.5,-475.5 595.5,-475.5"/>
<text text-anchor="middle" x="646" y="-482.5" font-family="Helvetica,sans-Serif" font-size="10.00">engine.level.Level</text>
</a>
</g>
</g>
<!-- Node4&#45;&gt;Node17 -->
<g id="edge20" class="edge"><title>Node4&#45;&gt;Node17</title>
<path fill="none" stroke="midnightblue" d="M343.276,-691.486C362.91,-672.905 396.117,-642.049 426,-617 476.756,-574.455 496.5,-572.151 544,-526 553.061,-517.196 551.263,-510.658 562,-504 571.925,-497.846 583.628,-493.68 595.068,-490.863"/>
<polygon fill="midnightblue" stroke="midnightblue" points="340.816,-688.995 335.977,-698.42 345.638,-694.07 340.816,-688.995"/>
</g>
<!-- Node5 -->
<g id="node5" class="node"><title>Node5</title>
<g id="a_node5"><a xlink:href="../../d2/d15/interfaceengine_1_1actions_1_1_initializable.html" target="_top" xlink:title="engine.actions.Initializable">
<polygon fill="white" stroke="black" points="1424,-114.5 1424,-133.5 1566,-133.5 1566,-114.5 1424,-114.5"/>
<text text-anchor="middle" x="1495" y="-121.5" font-family="Helvetica,sans-Serif" font-size="10.00">engine.actions.Initializable</text>
</a>
</g>
</g>
<!-- Node5&#45;&gt;Node3 -->
<g id="edge4" class="edge"><title>Node5&#45;&gt;Node3</title>
<path fill="none" stroke="midnightblue" d="M1575.91,-134.922C1616.43,-140.461 1665.18,-147.125 1704.18,-152.456"/>
<polygon fill="midnightblue" stroke="midnightblue" points="1576.17,-131.427 1565.79,-133.54 1575.23,-138.362 1576.17,-131.427"/>
</g>
<!-- Node6 -->
<g id="node6" class="node"><title>Node6</title>
<g id="a_node6"><a xlink:href="../../d4/dac/classengine_1_1game_object_1_1_identifier.html" target="_top" xlink:title="engine.gameObject.Identifier">
<polygon fill="white" stroke="black" points="247.5,-278.5 247.5,-297.5 402.5,-297.5 402.5,-278.5 247.5,-278.5"/>
<text text-anchor="middle" x="325" y="-285.5" font-family="Helvetica,sans-Serif" font-size="10.00">engine.gameObject.Identifier</text>
</a>
</g>
</g>
<!-- Node6&#45;&gt;Node3 -->
<g id="edge5" class="edge"><title>Node6&#45;&gt;Node3</title>
<path fill="none" stroke="#9a32cd" stroke-dasharray="5,2" d="M383.075,-276.604C430.723,-267.505 500.532,-255.138 562,-248 1057.45,-190.469 1186.37,-232.977 1682,-177 1694.7,-175.565 1708.33,-173.587 1721.1,-171.539"/>
<polygon fill="#9a32cd" stroke="#9a32cd" points="382.413,-273.167 373.254,-278.493 383.735,-280.041 382.413,-273.167"/>
<text text-anchor="middle" x="1074" y="-218" font-family="Helvetica,sans-Serif" font-size="10.00"> myId</text>
</g>
<!-- Node6&#45;&gt;Node17 -->
<g id="edge21" class="edge"><title>Node6&#45;&gt;Node17</title>
<path fill="none" stroke="#9a32cd" stroke-dasharray="5,2" d="M357.28,-302.433C374.784,-312.079 395.529,-326.415 408,-345 428.549,-375.623 400.816,-399.06 426,-426 437.966,-438.801 539.169,-462.324 599.729,-475.471"/>
<polygon fill="#9a32cd" stroke="#9a32cd" points="358.446,-299.093 347.963,-297.559 355.202,-305.296 358.446,-299.093"/>
<text text-anchor="middle" x="485" y="-466" font-family="Helvetica,sans-Serif" font-size="10.00"> myId</text>
</g>
<!-- Node7 -->
<g id="node7" class="node"><title>Node7</title>
<polygon fill="white" stroke="#bfbfbf" points="64,-278.5 64,-297.5 120,-297.5 120,-278.5 64,-278.5"/>
<text text-anchor="middle" x="92" y="-285.5" font-family="Helvetica,sans-Serif" font-size="10.00">Random</text>
</g>
<!-- Node7&#45;&gt;Node6 -->
<g id="edge6" class="edge"><title>Node7&#45;&gt;Node6</title>
<path fill="none" stroke="#9a32cd" stroke-dasharray="5,2" d="M130.511,-288C162.046,-288 208.136,-288 247.423,-288"/>
<polygon fill="#9a32cd" stroke="#9a32cd" points="130.406,-284.5 120.406,-288 130.406,-291.5 130.406,-284.5"/>
<text text-anchor="middle" x="213" y="-291" font-family="Helvetica,sans-Serif" font-size="10.00"> r</text>
</g>
<!-- Node8 -->
<g id="node8" class="node"><title>Node8</title>
<g id="a_node8"><a xlink:href="../../d6/d94/classengine_1_1_game_manager.html" target="_top" xlink:title="engine.GameManager">
<polygon fill="white" stroke="black" points="1433.5,-473.5 1433.5,-492.5 1556.5,-492.5 1556.5,-473.5 1433.5,-473.5"/>
<text text-anchor="middle" x="1495" y="-480.5" font-family="Helvetica,sans-Serif" font-size="10.00">engine.GameManager</text>
</a>
</g>
</g>
<!-- Node8&#45;&gt;Node3 -->
<g id="edge7" class="edge"><title>Node8&#45;&gt;Node3</title>
<path fill="none" stroke="#9a32cd" stroke-dasharray="5,2" d="M1510.96,-465.725C1561.78,-407.046 1726.78,-216.529 1765.71,-171.569"/>
<polygon fill="#9a32cd" stroke="#9a32cd" points="1508.22,-463.543 1504.32,-473.393 1513.51,-468.125 1508.22,-463.543"/>
<text text-anchor="middle" x="1637" y="-374" font-family="Helvetica,sans-Serif" font-size="10.00"> myGameManager</text>
</g>
<!-- Node9 -->
<g id="node9" class="node"><title>Node9</title>
<g id="a_node9"><a xlink:href="../../df/de5/classauthoring_1_1model_1_1collections_1_1_levels_collection.html" target="_top" xlink:title="authoring.model.collections.\lLevelsCollection">
<polygon fill="white" stroke="black" points="570,-367 570,-397 722,-397 722,-367 570,-367"/>
<text text-anchor="start" x="578" y="-385" font-family="Helvetica,sans-Serif" font-size="10.00">authoring.model.collections.</text>
<text text-anchor="middle" x="646" y="-374" font-family="Helvetica,sans-Serif" font-size="10.00">LevelsCollection</text>
</a>
</g>
</g>
<!-- Node9&#45;&gt;Node8 -->
<g id="edge8" class="edge"><title>Node9&#45;&gt;Node8</title>
<path fill="none" stroke="#9a32cd" stroke-dasharray="5,2" d="M723.212,-364.807C835.79,-340.507 1041.08,-300.683 1114,-316 1264.57,-347.625 1428.29,-442.654 1478.51,-473.335"/>
<polygon fill="#9a32cd" stroke="#9a32cd" points="722.309,-361.422 713.279,-366.963 723.794,-368.262 722.309,-361.422"/>
<text text-anchor="middle" x="1074" y="-319" font-family="Helvetica,sans-Serif" font-size="10.00"> myLevels</text>
</g>
<!-- Node11 -->
<g id="node11" class="node"><title>Node11</title>
<g id="a_node11"><a xlink:href="../../df/d67/classengine_1_1level_1_1_level_manager.html" target="_top" xlink:title="engine.level.LevelManager">
<polygon fill="white" stroke="black" points="1141.5,-441.5 1141.5,-460.5 1284.5,-460.5 1284.5,-441.5 1141.5,-441.5"/>
<text text-anchor="middle" x="1213" y="-448.5" font-family="Helvetica,sans-Serif" font-size="10.00">engine.level.LevelManager</text>
</a>
</g>
</g>
<!-- Node9&#45;&gt;Node11 -->
<g id="edge12" class="edge"><title>Node9&#45;&gt;Node11</title>
<path fill="none" stroke="#9a32cd" stroke-dasharray="5,2" d="M732.558,-385.325C807.566,-388.994 919.405,-396.292 1016,-410 1071.24,-417.84 1134.26,-431.965 1173.59,-441.413"/>
<polygon fill="#9a32cd" stroke="#9a32cd" points="732.379,-381.813 722.224,-384.832 732.045,-388.805 732.379,-381.813"/>
<text text-anchor="middle" x="940" y="-413" font-family="Helvetica,sans-Serif" font-size="10.00"> myLevels</text>
</g>
<!-- Node24 -->
<g id="node24" class="node"><title>Node24</title>
<g id="a_node24"><a xlink:href="../../da/d90/classengine_1_1sound_1_1_sound_utility.html" target="_top" xlink:title="engine.sound.SoundUtility">
<polygon fill="white" stroke="black" points="869,-515.5 869,-534.5 1011,-534.5 1011,-515.5 869,-515.5"/>
<text text-anchor="middle" x="940" y="-522.5" font-family="Helvetica,sans-Serif" font-size="10.00">engine.sound.SoundUtility</text>
</a>
</g>
</g>
<!-- Node9&#45;&gt;Node24 -->
<g id="edge29" class="edge"><title>Node9&#45;&gt;Node24</title>
<path fill="none" stroke="#9a32cd" stroke-dasharray="5,2" d="M710.89,-399.998C761.239,-415.264 826.149,-437.695 846,-457 861.147,-471.73 848.484,-486.658 864,-501 870.827,-507.31 879.319,-511.961 888.109,-515.39"/>
<polygon fill="#9a32cd" stroke="#9a32cd" points="711.616,-396.561 701.032,-397.043 709.606,-403.267 711.616,-396.561"/>
<text text-anchor="middle" x="797" y="-460" font-family="Helvetica,sans-Serif" font-size="10.00"> myLevels</text>
</g>
<!-- Node10 -->
<g id="node10" class="node"><title>Node10</title>
<g id="a_node10"><a xlink:href="../../d4/d3b/classauthoring_1_1model_1_1collections_1_1_general_collection.html" target="_top" xlink:title="authoring.model.collections.\lGeneralCollection\&lt; Level \&gt;">
<polygon fill="white" stroke="black" points="249,-355 249,-385 401,-385 401,-355 249,-355"/>
<text text-anchor="start" x="257" y="-373" font-family="Helvetica,sans-Serif" font-size="10.00">authoring.model.collections.</text>
<text text-anchor="middle" x="325" y="-362" font-family="Helvetica,sans-Serif" font-size="10.00">GeneralCollection&lt; Level &gt;</text>
</a>
</g>
</g>
<!-- Node10&#45;&gt;Node9 -->
<g id="edge9" class="edge"><title>Node10&#45;&gt;Node9</title>
<path fill="none" stroke="midnightblue" d="M411.216,-373.206C460.588,-375.063 522.186,-377.38 569.758,-379.17"/>
<polygon fill="midnightblue" stroke="midnightblue" points="411.319,-369.707 401.195,-372.829 411.056,-376.702 411.319,-369.707"/>
</g>
<!-- Node11&#45;&gt;Node8 -->
<g id="edge10" class="edge"><title>Node11&#45;&gt;Node8</title>
<path fill="none" stroke="#9a32cd" stroke-dasharray="5,2" d="M1294.79,-460.233C1338.97,-465.282 1392.79,-471.433 1433.34,-476.068"/>
<polygon fill="#9a32cd" stroke="#9a32cd" points="1294.99,-456.733 1284.66,-459.075 1294.19,-463.688 1294.99,-456.733"/>
<text text-anchor="middle" x="1355" y="-475" font-family="Helvetica,sans-Serif" font-size="10.00"> myLevelManager</text>
</g>
<!-- Node12 -->
<g id="node12" class="node"><title>Node12</title>
<polygon fill="white" stroke="#bfbfbf" points="890,-430.5 890,-449.5 990,-449.5 990,-430.5 890,-430.5"/>
<text text-anchor="middle" x="940" y="-437.5" font-family="Helvetica,sans-Serif" font-size="10.00">Iterable&lt; Level &gt;</text>
</g>
<!-- Node12&#45;&gt;Node11 -->
<g id="edge11" class="edge"><title>Node12&#45;&gt;Node11</title>
<path fill="none" stroke="midnightblue" d="M1000.31,-442.408C1041.85,-444.094 1097.53,-446.354 1141.36,-448.133"/>
<polygon fill="midnightblue" stroke="midnightblue" points="1000.21,-438.901 990.076,-441.992 999.926,-445.895 1000.21,-438.901"/>
</g>
<!-- Node13 -->
<g id="node13" class="node"><title>Node13</title>
<g id="a_node13"><a xlink:href="../../dd/d8d/classengine_1_1render_1_1_renderer.html" target="_top" xlink:title="engine.render.Renderer">
<polygon fill="white" stroke="black" points="876,-589.5 876,-608.5 1004,-608.5 1004,-589.5 876,-589.5"/>
<text text-anchor="middle" x="940" y="-596.5" font-family="Helvetica,sans-Serif" font-size="10.00">engine.render.Renderer</text>
</a>
</g>
</g>
<!-- Node13&#45;&gt;Node8 -->
<g id="edge36" class="edge"><title>Node13&#45;&gt;Node8</title>
<path fill="none" stroke="#9a32cd" stroke-dasharray="5,2" d="M1012.32,-587.849C1043.58,-582.753 1080.68,-576.426 1114,-570 1240.86,-545.535 1272.35,-538.063 1398,-508 1418.1,-503.191 1440.45,-497.397 1458.52,-492.599"/>
<polygon fill="#9a32cd" stroke="#9a32cd" points="1011.69,-584.405 1002.38,-589.459 1012.81,-591.315 1011.69,-584.405"/>
<text text-anchor="middle" x="1213" y="-569" font-family="Helvetica,sans-Serif" font-size="10.00"> myGameObjectRenderer</text>
</g>
<!-- Node13&#45;&gt;Node11 -->
<g id="edge13" class="edge"><title>Node13&#45;&gt;Node11</title>
<path fill="none" stroke="#9a32cd" stroke-dasharray="5,2" d="M971.66,-585.233C1006.67,-569.216 1065.39,-541.447 1114,-514 1122.32,-509.301 1171.77,-477.202 1197.09,-460.722"/>
<polygon fill="#9a32cd" stroke="#9a32cd" points="970.094,-582.101 962.442,-589.429 972.994,-588.472 970.094,-582.101"/>
<text text-anchor="middle" x="1074" y="-558" font-family="Helvetica,sans-Serif" font-size="10.00"> myRenderer</text>
</g>
<!-- Node14 -->
<g id="node14" class="node"><title>Node14</title>
<polygon fill="white" stroke="#bfbfbf" points="564,-599 564,-629 728,-629 728,-599 564,-599"/>
<text text-anchor="start" x="572" y="-617" font-family="Helvetica,sans-Serif" font-size="10.00">Map&lt; Identifier, engine.render.</text>
<text text-anchor="middle" x="646" y="-606" font-family="Helvetica,sans-Serif" font-size="10.00">RenderedNode &gt;</text>
</g>
<!-- Node14&#45;&gt;Node13 -->
<g id="edge14" class="edge"><title>Node14&#45;&gt;Node13</title>
<path fill="none" stroke="#9a32cd" stroke-dasharray="5,2" d="M738.598,-609.295C783.16,-607.005 835.611,-604.311 875.674,-602.253"/>
<polygon fill="#9a32cd" stroke="#9a32cd" points="738.146,-605.813 728.338,-609.822 738.505,-612.804 738.146,-605.813"/>
<text text-anchor="middle" x="797" y="-611" font-family="Helvetica,sans-Serif" font-size="10.00"> myRenderedNodes</text>
</g>
<!-- Node15 -->
<g id="node15" class="node"><title>Node15</title>
<g id="a_node15"><a xlink:href="../../d5/d30/classengine_1_1render_1_1_rendered_node_factory.html" target="_top" xlink:title="engine.render.RenderedNode\lFactory">
<polygon fill="white" stroke="black" points="568,-648 568,-678 724,-678 724,-648 568,-648"/>
<text text-anchor="start" x="576" y="-666" font-family="Helvetica,sans-Serif" font-size="10.00">engine.render.RenderedNode</text>
<text text-anchor="middle" x="646" y="-655" font-family="Helvetica,sans-Serif" font-size="10.00">Factory</text>
</a>
</g>
</g>
<!-- Node15&#45;&gt;Node13 -->
<g id="edge15" class="edge"><title>Node15&#45;&gt;Node13</title>
<path fill="none" stroke="#9a32cd" stroke-dasharray="5,2" d="M734.367,-646.502C769.19,-639.649 809.58,-631.353 846,-623 865.178,-618.601 886.436,-613.159 903.781,-608.569"/>
<polygon fill="#9a32cd" stroke="#9a32cd" points="733.368,-643.131 724.227,-648.488 734.713,-650.001 733.368,-643.131"/>
<text text-anchor="middle" x="797" y="-646" font-family="Helvetica,sans-Serif" font-size="10.00"> myFactory</text>
</g>
<!-- Node16 -->
<g id="node16" class="node"><title>Node16</title>
<g id="a_node16"><a xlink:href="../../d9/db5/classengine_1_1_file_path_utility.html" target="_top" xlink:title="engine.FilePathUtility">
<polygon fill="white" stroke="black" points="267.5,-591.5 267.5,-610.5 382.5,-610.5 382.5,-591.5 267.5,-591.5"/>
<text text-anchor="middle" x="325" y="-598.5" font-family="Helvetica,sans-Serif" font-size="10.00">engine.FilePathUtility</text>
</a>
</g>
</g>
<!-- Node16&#45;&gt;Node15 -->
<g id="edge16" class="edge"><title>Node16&#45;&gt;Node15</title>
<path fill="none" stroke="#9a32cd" stroke-dasharray="5,2" d="M385.117,-612.49C436.612,-622.498 511.626,-637.078 567.839,-648.003"/>
<polygon fill="#9a32cd" stroke="#9a32cd" points="385.629,-609.024 375.145,-610.552 384.293,-615.895 385.629,-609.024"/>
<text text-anchor="middle" x="485" y="-645" font-family="Helvetica,sans-Serif" font-size="10.00"> myFilePathUtility</text>
</g>
<!-- Node16&#45;&gt;Node24 -->
<g id="edge32" class="edge"><title>Node16&#45;&gt;Node24</title>
<path fill="none" stroke="#9a32cd" stroke-dasharray="5,2" d="M392.789,-593.99C440.012,-589.225 504.831,-583.072 562,-579 625.028,-574.511 784.444,-579.265 846,-565 873.738,-558.572 903.612,-544.261 921.811,-534.619"/>
<polygon fill="#9a32cd" stroke="#9a32cd" points="392.284,-590.523 382.689,-595.015 392.991,-597.487 392.284,-590.523"/>
<text text-anchor="middle" x="646" y="-582" font-family="Helvetica,sans-Serif" font-size="10.00"> myFilePathUtility</text>
</g>
<!-- Node17&#45;&gt;Node11 -->
<g id="edge27" class="edge"><title>Node17&#45;&gt;Node11</title>
<path fill="none" stroke="#9a32cd" stroke-dasharray="5,2" d="M706.758,-481.404C811.805,-475.083 1029.05,-462.009 1141.35,-455.252"/>
<polygon fill="#9a32cd" stroke="#9a32cd" points="706.416,-477.918 696.645,-482.013 706.837,-484.905 706.416,-477.918"/>
<text text-anchor="middle" x="940" y="-475" font-family="Helvetica,sans-Serif" font-size="10.00"> myCurrentLevel</text>
</g>
<!-- Node17&#45;&gt;Node13 -->
<g id="edge17" class="edge"><title>Node17&#45;&gt;Node13</title>
<path fill="none" stroke="#9a32cd" stroke-dasharray="5,2" d="M706.39,-492.748C714.762,-495.466 722.916,-499.113 730,-504 741.871,-512.19 736.628,-522.13 748,-531 788.244,-562.389 844.175,-580.036 885.112,-589.438"/>
<polygon fill="#9a32cd" stroke="#9a32cd" points="707.088,-489.308 696.513,-489.965 705.189,-496.046 707.088,-489.308"/>
<text text-anchor="middle" x="797" y="-581" font-family="Helvetica,sans-Serif" font-size="10.00"> myCurrentLevel</text>
</g>
<!-- Node18 -->
<g id="node18" class="node"><title>Node18</title>
<g id="a_node18"><a xlink:href="../../d3/d8d/classdata_1_1_observable.html" target="_top" xlink:title="data.Observable">
<polygon fill="white" stroke="black" points="277.5,-516.5 277.5,-535.5 372.5,-535.5 372.5,-516.5 277.5,-516.5"/>
<text text-anchor="middle" x="325" y="-523.5" font-family="Helvetica,sans-Serif" font-size="10.00">data.Observable</text>
</a>
</g>
</g>
<!-- Node18&#45;&gt;Node17 -->
<g id="edge18" class="edge"><title>Node18&#45;&gt;Node17</title>
<path fill="none" stroke="midnightblue" d="M382.752,-522.088C426.859,-518.672 489.495,-513.001 544,-505 563.1,-502.196 584.061,-498.198 601.912,-494.513"/>
<polygon fill="midnightblue" stroke="midnightblue" points="382.222,-518.618 372.516,-522.866 382.752,-525.598 382.222,-518.618"/>
</g>
<!-- Node19 -->
<g id="node19" class="node"><title>Node19</title>
<polygon fill="white" stroke="#bfbfbf" points="23,-516.5 23,-535.5 161,-535.5 161,-516.5 23,-516.5"/>
<text text-anchor="middle" x="92" y="-523.5" font-family="Helvetica,sans-Serif" font-size="10.00">Vector&lt; data.Observer &gt;</text>
</g>
<!-- Node19&#45;&gt;Node18 -->
<g id="edge19" class="edge"><title>Node19&#45;&gt;Node18</title>
<path fill="none" stroke="#9a32cd" stroke-dasharray="5,2" d="M171.318,-526C206.521,-526 246.882,-526 277.262,-526"/>
<polygon fill="#9a32cd" stroke="#9a32cd" points="171.058,-522.5 161.058,-526 171.058,-529.5 171.058,-522.5"/>
<text text-anchor="middle" x="213" y="-529" font-family="Helvetica,sans-Serif" font-size="10.00"> obs</text>
</g>
<!-- Node20 -->
<g id="node20" class="node"><title>Node20</title>
<g id="a_node20"><a xlink:href="../../d1/d32/classauthoring_1_1model_1_1collections_1_1_game_objects_collection.html" target="_top" xlink:title="authoring.model.collections.\lGameObjectsCollection">
<polygon fill="white" stroke="black" points="249,-210 249,-240 401,-240 401,-210 249,-210"/>
<text text-anchor="start" x="257" y="-228" font-family="Helvetica,sans-Serif" font-size="10.00">authoring.model.collections.</text>
<text text-anchor="middle" x="325" y="-217" font-family="Helvetica,sans-Serif" font-size="10.00">GameObjectsCollection</text>
</a>
</g>
</g>
<!-- Node20&#45;&gt;Node1 -->
<g id="edge44" class="edge"><title>Node20&#45;&gt;Node1</title>
<path fill="none" stroke="#9a32cd" stroke-dasharray="5,2" d="M347.411,-202.824C395.699,-155.316 518.749,-48 645,-48 645,-48 645,-48 1975,-48 2041.96,-48 2117.93,-48 2173.83,-48"/>
<polygon fill="#9a32cd" stroke="#9a32cd" points="344.918,-200.367 340.314,-209.909 349.864,-205.321 344.918,-200.367"/>
<text text-anchor="middle" x="1355" y="-51" font-family="Helvetica,sans-Serif" font-size="10.00"> myGameObjects</text>
</g>
<!-- Node20&#45;&gt;Node8 -->
<g id="edge37" class="edge"><title>Node20&#45;&gt;Node8</title>
<path fill="none" stroke="#9a32cd" stroke-dasharray="5,2" d="M411.247,-214.37C556.269,-198.174 859.985,-172.45 1114,-205 1243.38,-221.579 1297.64,-195.678 1398,-279 1462.75,-332.758 1486.45,-440.108 1492.38,-473.115"/>
<polygon fill="#9a32cd" stroke="#9a32cd" points="410.626,-210.918 401.082,-215.519 411.412,-217.874 410.626,-210.918"/>
<text text-anchor="middle" x="940" y="-199" font-family="Helvetica,sans-Serif" font-size="10.00"> myGameObjects</text>
</g>
<!-- Node20&#45;&gt;Node11 -->
<g id="edge26" class="edge"><title>Node20&#45;&gt;Node11</title>
<path fill="none" stroke="#9a32cd" stroke-dasharray="5,2" d="M380.671,-243.281C428.241,-258.802 499.211,-281.033 562,-297 804.697,-358.717 874.696,-336.216 1114,-410 1141.85,-418.586 1172.65,-432.191 1192.15,-441.35"/>
<polygon fill="#9a32cd" stroke="#9a32cd" points="381.48,-239.863 370.887,-240.076 379.3,-246.515 381.48,-239.863"/>
<text text-anchor="middle" x="797" y="-364" font-family="Helvetica,sans-Serif" font-size="10.00"> myTemplateObjects</text>
<text text-anchor="middle" x="797" y="-353" font-family="Helvetica,sans-Serif" font-size="10.00">myGameObjects</text>
</g>
<!-- Node20&#45;&gt;Node17 -->
<g id="edge22" class="edge"><title>Node20&#45;&gt;Node17</title>
<path fill="none" stroke="#9a32cd" stroke-dasharray="5,2" d="M368.1,-244.762C381.332,-251.706 395.692,-260.034 408,-269 475.834,-318.415 501.198,-327.81 544,-400 559.506,-426.153 540.062,-444.948 562,-466 570.959,-474.598 582.975,-479.599 595.078,-482.438"/>
<polygon fill="#9a32cd" stroke="#9a32cd" points="369.654,-241.625 359.158,-240.184 366.464,-247.856 369.654,-241.625"/>
<text text-anchor="middle" x="485" y="-414" font-family="Helvetica,sans-Serif" font-size="10.00"> myDefaultGameObjects</text>
<text text-anchor="middle" x="485" y="-403" font-family="Helvetica,sans-Serif" font-size="10.00">myWorkingGameObjects</text>
</g>
<!-- Node21 -->
<g id="node21" class="node"><title>Node21</title>
<g id="a_node21"><a xlink:href="../../d4/d3b/classauthoring_1_1model_1_1collections_1_1_general_collection.html" target="_top" xlink:title="authoring.model.collections.\lGeneralCollection\&lt; GameObject \&gt;">
<polygon fill="white" stroke="black" points="0.5,-210 0.5,-240 183.5,-240 183.5,-210 0.5,-210"/>
<text text-anchor="start" x="8.5" y="-228" font-family="Helvetica,sans-Serif" font-size="10.00">authoring.model.collections.</text>
<text text-anchor="middle" x="92" y="-217" font-family="Helvetica,sans-Serif" font-size="10.00">GeneralCollection&lt; GameObject &gt;</text>
</a>
</g>
</g>
<!-- Node21&#45;&gt;Node20 -->
<g id="edge23" class="edge"><title>Node21&#45;&gt;Node20</title>
<path fill="none" stroke="midnightblue" d="M193.843,-225C212.335,-225 231.337,-225 248.91,-225"/>
<polygon fill="midnightblue" stroke="midnightblue" points="193.634,-221.5 183.634,-225 193.634,-228.5 193.634,-221.5"/>
</g>
<!-- Node22 -->
<g id="node22" class="node"><title>Node22</title>
<polygon fill="white" stroke="#bfbfbf" points="254.5,-467 254.5,-497 395.5,-497 395.5,-467 254.5,-467"/>
<text text-anchor="start" x="262.5" y="-485" font-family="Helvetica,sans-Serif" font-size="10.00">List&lt; engine.gameObject.</text>
<text text-anchor="middle" x="325" y="-474" font-family="Helvetica,sans-Serif" font-size="10.00">Identifier &gt;</text>
</g>
<!-- Node22&#45;&gt;Node17 -->
<g id="edge24" class="edge"><title>Node22&#45;&gt;Node17</title>
<path fill="none" stroke="#9a32cd" stroke-dasharray="5,2" d="M405.969,-482.076C447.2,-482.189 498.296,-482.443 544,-483 560.748,-483.204 579.056,-483.534 595.429,-483.868"/>
<polygon fill="#9a32cd" stroke="#9a32cd" points="405.717,-478.575 395.709,-482.05 405.7,-485.575 405.717,-478.575"/>
<text text-anchor="middle" x="485" y="-497" font-family="Helvetica,sans-Serif" font-size="10.00"> myConditionIdList</text>
<text text-anchor="middle" x="485" y="-486" font-family="Helvetica,sans-Serif" font-size="10.00">myGameObjectIdList</text>
</g>
<!-- Node23 -->
<g id="node23" class="node"><title>Node23</title>
<polygon fill="white" stroke="#bfbfbf" points="623,-697.5 623,-716.5 669,-716.5 669,-697.5 623,-697.5"/>
<text text-anchor="middle" x="646" y="-704.5" font-family="Helvetica,sans-Serif" font-size="10.00">Group</text>
</g>
<!-- Node23&#45;&gt;Node8 -->
<g id="edge39" class="edge"><title>Node23&#45;&gt;Node8</title>
<path fill="none" stroke="#9a32cd" stroke-dasharray="5,2" d="M679.58,-707.68C816.019,-710.27 1337.2,-717.482 1398,-678 1466.36,-633.609 1487.71,-525.304 1492.71,-492.543"/>
<polygon fill="#9a32cd" stroke="#9a32cd" points="679.425,-704.177 669.359,-707.481 679.289,-711.175 679.425,-704.177"/>
<text text-anchor="middle" x="1074" y="-712" font-family="Helvetica,sans-Serif" font-size="10.00"> myRootGroup</text>
</g>
<!-- Node23&#45;&gt;Node13 -->
<g id="edge25" class="edge"><title>Node23&#45;&gt;Node13</title>
<path fill="none" stroke="#9a32cd" stroke-dasharray="5,2" d="M679.312,-699.487C694.694,-695.841 713.33,-691.322 730,-687 738.037,-684.916 739.967,-684.099 748,-682 791.386,-670.664 804.745,-675.576 846,-658 877.136,-644.735 909.675,-621.608 926.792,-608.598"/>
<polygon fill="#9a32cd" stroke="#9a32cd" points="678.176,-696.159 669.246,-701.859 679.782,-702.972 678.176,-696.159"/>
<text text-anchor="middle" x="797" y="-685" font-family="Helvetica,sans-Serif" font-size="10.00"> myCanvas</text>
</g>
<!-- Node24&#45;&gt;Node8 -->
<g id="edge40" class="edge"><title>Node24&#45;&gt;Node8</title>
<path fill="none" stroke="#9a32cd" stroke-dasharray="5,2" d="M1021.25,-518.905C1133.06,-510.413 1333.24,-495.21 1433.42,-487.601"/>
<polygon fill="#9a32cd" stroke="#9a32cd" points="1020.74,-515.433 1011.04,-519.681 1021.27,-522.413 1020.74,-515.433"/>
<text text-anchor="middle" x="1213" y="-514" font-family="Helvetica,sans-Serif" font-size="10.00"> mySoundUtility</text>
</g>
<!-- Node24&#45;&gt;Node11 -->
<g id="edge28" class="edge"><title>Node24&#45;&gt;Node11</title>
<path fill="none" stroke="#9a32cd" stroke-dasharray="5,2" d="M985.776,-512.773C1039.35,-498.145 1127.92,-473.959 1176.83,-460.603"/>
<polygon fill="#9a32cd" stroke="#9a32cd" points="984.599,-509.467 975.874,-515.477 986.443,-516.219 984.599,-509.467"/>
<text text-anchor="middle" x="1074" y="-502" font-family="Helvetica,sans-Serif" font-size="10.00"> mySoundPlayer</text>
</g>
<!-- Node25 -->
<g id="node25" class="node"><title>Node25</title>
<polygon fill="white" stroke="#bfbfbf" points="570,-437.5 570,-456.5 722,-456.5 722,-437.5 570,-437.5"/>
<text text-anchor="middle" x="646" y="-444.5" font-family="Helvetica,sans-Serif" font-size="10.00">Map&lt; String, MediaPlayer &gt;</text>
</g>
<!-- Node25&#45;&gt;Node24 -->
<g id="edge30" class="edge"><title>Node25&#45;&gt;Node24</title>
<path fill="none" stroke="#9a32cd" stroke-dasharray="5,2" d="M700.649,-458.867C710.435,-461.149 720.539,-463.583 730,-466 793.014,-482.096 866.002,-503.289 906.911,-515.401"/>
<polygon fill="#9a32cd" stroke="#9a32cd" points="701.137,-455.387 690.606,-456.551 699.564,-462.208 701.137,-455.387"/>
<text text-anchor="middle" x="797" y="-501" font-family="Helvetica,sans-Serif" font-size="10.00"> myMediaPlayerMap</text>
</g>
<!-- Node26 -->
<g id="node26" class="node"><title>Node26</title>
<polygon fill="white" stroke="#bfbfbf" points="577,-513.5 577,-532.5 715,-532.5 715,-513.5 577,-513.5"/>
<text text-anchor="middle" x="646" y="-520.5" font-family="Helvetica,sans-Serif" font-size="10.00">Map&lt; String, AudioClip &gt;</text>
</g>
<!-- Node26&#45;&gt;Node24 -->
<g id="edge31" class="edge"><title>Node26&#45;&gt;Node24</title>
<path fill="none" stroke="#9a32cd" stroke-dasharray="5,2" d="M725.293,-520.305C761.955,-519.432 806.22,-518.931 846,-520 853.435,-520.2 861.201,-520.489 868.939,-520.829"/>
<polygon fill="#9a32cd" stroke="#9a32cd" points="725.072,-516.809 715.163,-520.56 725.249,-523.807 725.072,-516.809"/>
<text text-anchor="middle" x="797" y="-523" font-family="Helvetica,sans-Serif" font-size="10.00"> myAudioClipMap</text>
</g>
<!-- Node27 -->
<g id="node27" class="node"><title>Node27</title>
<g id="a_node27"><a xlink:href="../../db/d2a/classauthoring_1_1model_1_1collections_1_1_conditions_collection.html" target="_top" xlink:title="authoring.model.collections.\lConditionsCollection">
<polygon fill="white" stroke="black" points="864,-258 864,-288 1016,-288 1016,-258 864,-258"/>
<text text-anchor="start" x="872" y="-276" font-family="Helvetica,sans-Serif" font-size="10.00">authoring.model.collections.</text>
<text text-anchor="middle" x="940" y="-265" font-family="Helvetica,sans-Serif" font-size="10.00">ConditionsCollection</text>
</a>
</g>
</g>
<!-- Node27&#45;&gt;Node8 -->
<g id="edge41" class="edge"><title>Node27&#45;&gt;Node8</title>
<path fill="none" stroke="#9a32cd" stroke-dasharray="5,2" d="M1026.22,-270.075C1141.36,-267.728 1339.03,-269.854 1398,-309 1459.23,-349.641 1485.03,-443.109 1491.97,-473.362"/>
<polygon fill="#9a32cd" stroke="#9a32cd" points="1025.94,-266.58 1016.02,-270.299 1026.1,-273.579 1025.94,-266.58"/>
<text text-anchor="middle" x="1213" y="-284" font-family="Helvetica,sans-Serif" font-size="10.00"> myGameConditions</text>
</g>
<!-- Node27&#45;&gt;Node11 -->
<g id="edge33" class="edge"><title>Node27&#45;&gt;Node11</title>
<path fill="none" stroke="#9a32cd" stroke-dasharray="5,2" d="M971.024,-293.844C988.731,-305.42 1011.93,-319.382 1034,-329 1067.92,-343.78 1082.18,-333.131 1114,-352 1154.77,-376.176 1190.56,-421.364 1205.09,-441.219"/>
<polygon fill="#9a32cd" stroke="#9a32cd" points="972.565,-290.666 962.3,-288.043 968.689,-296.495 972.565,-290.666"/>
<text text-anchor="middle" x="1074" y="-355" font-family="Helvetica,sans-Serif" font-size="10.00"> myConditions</text>
</g>
<!-- Node28 -->
<g id="node28" class="node"><title>Node28</title>
<g id="a_node28"><a xlink:href="../../d4/d3b/classauthoring_1_1model_1_1collections_1_1_general_collection.html" target="_top" xlink:title="authoring.model.collections.\lGeneralCollection\&lt; Condition \&gt;">
<polygon fill="white" stroke="black" points="562,-258 562,-288 730,-288 730,-258 562,-258"/>
<text text-anchor="start" x="570" y="-276" font-family="Helvetica,sans-Serif" font-size="10.00">authoring.model.collections.</text>
<text text-anchor="middle" x="646" y="-265" font-family="Helvetica,sans-Serif" font-size="10.00">GeneralCollection&lt; Condition &gt;</text>
</a>
</g>
</g>
<!-- Node28&#45;&gt;Node27 -->
<g id="edge34" class="edge"><title>Node28&#45;&gt;Node27</title>
<path fill="none" stroke="midnightblue" d="M740.523,-273C780.286,-273 826.039,-273 863.588,-273"/>
<polygon fill="midnightblue" stroke="midnightblue" points="740.285,-269.5 730.285,-273 740.285,-276.5 740.285,-269.5"/>
</g>
<!-- Node29 -->
<g id="node29" class="node"><title>Node29</title>
<polygon fill="white" stroke="#bfbfbf" points="1185,-651.5 1185,-670.5 1241,-670.5 1241,-651.5 1185,-651.5"/>
<text text-anchor="middle" x="1213" y="-658.5" font-family="Helvetica,sans-Serif" font-size="10.00">Timeline</text>
</g>
<!-- Node29&#45;&gt;Node8 -->
<g id="edge35" class="edge"><title>Node29&#45;&gt;Node8</title>
<path fill="none" stroke="#9a32cd" stroke-dasharray="5,2" d="M1251.1,-665.008C1290.66,-667.387 1353.6,-665.554 1398,-637 1453.65,-601.212 1482.6,-520.51 1491.21,-492.663"/>
<polygon fill="#9a32cd" stroke="#9a32cd" points="1251.31,-661.514 1241.08,-664.285 1250.8,-668.496 1251.31,-661.514"/>
<text text-anchor="middle" x="1355" y="-666" font-family="Helvetica,sans-Serif" font-size="10.00"> myAnimation</text>
</g>
<!-- Node30 -->
<g id="node30" class="node"><title>Node30</title>
<polygon fill="white" stroke="#bfbfbf" points="1132.5,-613.5 1132.5,-632.5 1293.5,-632.5 1293.5,-613.5 1132.5,-613.5"/>
<text text-anchor="middle" x="1213" y="-620.5" font-family="Helvetica,sans-Serif" font-size="10.00">EventHandler&lt; ActionEvent &gt;</text>
</g>
<!-- Node30&#45;&gt;Node8 -->
<g id="edge38" class="edge"><title>Node30&#45;&gt;Node8</title>
<path fill="none" stroke="#9a32cd" stroke-dasharray="5,2" d="M1303.7,-623.898C1335.12,-620.916 1369.62,-613.696 1398,-598 1443.97,-572.577 1477.17,-515.674 1489.12,-492.798"/>
<polygon fill="#9a32cd" stroke="#9a32cd" points="1303.31,-620.419 1293.62,-624.722 1303.88,-627.395 1303.31,-620.419"/>
<text text-anchor="middle" x="1355" y="-625" font-family="Helvetica,sans-Serif" font-size="10.00"> oneFrame</text>
</g>
<!-- Node31 -->
<g id="node31" class="node"><title>Node31</title>
<polygon fill="white" stroke="#bfbfbf" points="1416,-76.5 1416,-95.5 1574,-95.5 1574,-76.5 1416,-76.5"/>
<text text-anchor="middle" x="1495" y="-83.5" font-family="Helvetica,sans-Serif" font-size="10.00">List&lt; engine.actions.Action &gt;</text>
</g>
<!-- Node31&#45;&gt;Node3 -->
<g id="edge42" class="edge"><title>Node31&#45;&gt;Node3</title>
<path fill="none" stroke="#9a32cd" stroke-dasharray="5,2" d="M1570.88,-97.2933C1605.16,-103.377 1646.06,-111.934 1682,-123 1707.87,-130.963 1736.37,-143.703 1754.69,-152.442"/>
<polygon fill="#9a32cd" stroke="#9a32cd" points="1571.39,-93.8289 1560.94,-95.5639 1570.19,-100.725 1571.39,-93.8289"/>
<text text-anchor="middle" x="1637" y="-126" font-family="Helvetica,sans-Serif" font-size="10.00"> myActions</text>
</g>
<!-- Node32 -->
<g id="node32" class="node"><title>Node32</title>
<polygon fill="white" stroke="#bfbfbf" points="1434,-152.5 1434,-171.5 1556,-171.5 1556,-152.5 1434,-152.5"/>
<text text-anchor="middle" x="1495" y="-159.5" font-family="Helvetica,sans-Serif" font-size="10.00">Map&lt; String, String &gt;</text>
</g>
<!-- Node32&#45;&gt;Node3 -->
<g id="edge43" class="edge"><title>Node32&#45;&gt;Node3</title>
<path fill="none" stroke="#9a32cd" stroke-dasharray="5,2" d="M1566.49,-162C1607.45,-162 1658.98,-162 1700.44,-162"/>
<polygon fill="#9a32cd" stroke="#9a32cd" points="1566.32,-158.5 1556.32,-162 1566.32,-165.5 1566.32,-158.5"/>
<text text-anchor="middle" x="1637" y="-165" font-family="Helvetica,sans-Serif" font-size="10.00"> myInputs</text>
</g>
<!-- Node33 -->
<g id="node33" class="node"><title>Node33</title>
<polygon fill="white" stroke="#bfbfbf" points="1910,-0.5 1910,-19.5 2038,-19.5 2038,-0.5 1910,-0.5"/>
<text text-anchor="middle" x="1974" y="-7.5" font-family="Helvetica,sans-Serif" font-size="10.00">Map&lt; String, Integer &gt;</text>
</g>
<!-- Node33&#45;&gt;Node1 -->
<g id="edge45" class="edge"><title>Node33&#45;&gt;Node1</title>
<path fill="none" stroke="#9a32cd" stroke-dasharray="5,2" d="M2048.19,-12.3302C2081.27,-14.1334 2120.76,-17.3308 2156,-23 2171.31,-25.464 2187.73,-29.1642 2202.69,-32.9678"/>
<polygon fill="#9a32cd" stroke="#9a32cd" points="2048.3,-8.8317 2038.14,-11.8142 2047.94,-15.8225 2048.3,-8.8317"/>
<text text-anchor="middle" x="2117" y="-26" font-family="Helvetica,sans-Serif" font-size="10.00"> myCollisionMap</text>
</g>
</g>
</svg>
