<?xml version="1.0" encoding="UTF-8" standalone="no"?>
<!DOCTYPE svg PUBLIC "-//W3C//DTD SVG 1.1//EN"
 "http://www.w3.org/Graphics/SVG/1.1/DTD/svg11.dtd">
<!-- Generated by graphviz version 2.36.0 (20140111.2315)
 -->
<!-- Title: engine.actions.MakeNewObjectFromLocationAction Pages: 1 -->
<svg width="1460pt" height="377pt"
 viewBox="0.00 0.00 1460.00 377.26" xmlns="http://www.w3.org/2000/svg" xmlns:xlink="http://www.w3.org/1999/xlink">
<g id="graph0" class="graph" transform="scale(1 1) rotate(0) translate(4 373.258)">
<title>engine.actions.MakeNewObjectFromLocationAction</title>
<polygon fill="white" stroke="none" points="-4,4 -4,-373.258 1456,-373.258 1456,4 -4,4"/>
<!-- Node1 -->
<g id="node1" class="node"><title>Node1</title>
<polygon fill="#bfbfbf" stroke="black" points="1286,-259 1286,-289 1452,-289 1452,-259 1286,-259"/>
<text text-anchor="start" x="1294" y="-277" font-family="Helvetica,sans-Serif" font-size="10.00">engine.actions.MakeNewObject</text>
<text text-anchor="middle" x="1369" y="-266" font-family="Helvetica,sans-Serif" font-size="10.00">FromLocationAction</text>
</g>
<!-- Node2 -->
<g id="node2" class="node"><title>Node2</title>
<g id="a_node2"><a xlink:href="../../d2/dc5/classengine_1_1actions_1_1_make_new_object_action.html" target="_top" xlink:title="engine.actions.MakeNewObject\lAction">
<polygon fill="white" stroke="black" points="1082,-259 1082,-289 1248,-289 1248,-259 1082,-259"/>
<text text-anchor="start" x="1090" y="-277" font-family="Helvetica,sans-Serif" font-size="10.00">engine.actions.MakeNewObject</text>
<text text-anchor="middle" x="1165" y="-266" font-family="Helvetica,sans-Serif" font-size="10.00">Action</text>
</a>
</g>
</g>
<!-- Node2&#45;&gt;Node1 -->
<g id="edge1" class="edge"><title>Node2&#45;&gt;Node1</title>
<path fill="none" stroke="midnightblue" d="M1258.45,-274C1267.61,-274 1276.87,-274 1285.91,-274"/>
<polygon fill="midnightblue" stroke="midnightblue" points="1258.16,-270.5 1248.16,-274 1258.16,-277.5 1258.16,-270.5"/>
</g>
<!-- Node3 -->
<g id="node3" class="node"><title>Node3</title>
<g id="a_node3"><a xlink:href="../../d9/dd2/interfaceengine_1_1actions_1_1_action.html" target="_top" xlink:title="engine.actions.Action">
<polygon fill="white" stroke="black" points="860.5,-327.5 860.5,-346.5 979.5,-346.5 979.5,-327.5 860.5,-327.5"/>
<text text-anchor="middle" x="920" y="-334.5" font-family="Helvetica,sans-Serif" font-size="10.00">engine.actions.Action</text>
</a>
</g>
</g>
<!-- Node3&#45;&gt;Node2 -->
<g id="edge2" class="edge"><title>Node3&#45;&gt;Node2</title>
<path fill="none" stroke="midnightblue" d="M989.682,-328.403C1013.45,-324.657 1040.11,-319.587 1064,-313 1086.63,-306.758 1111.21,-297.213 1130.34,-289.128"/>
<polygon fill="midnightblue" stroke="midnightblue" points="989.046,-324.959 979.689,-329.928 990.102,-331.879 989.046,-324.959"/>
</g>
<!-- Node4 -->
<g id="node4" class="node"><title>Node4</title>
<g id="a_node4"><a xlink:href="../../d2/d15/interfaceengine_1_1actions_1_1_initializable.html" target="_top" xlink:title="engine.actions.Initializable">
<polygon fill="white" stroke="black" points="573,-333.5 573,-352.5 715,-352.5 715,-333.5 573,-333.5"/>
<text text-anchor="middle" x="644" y="-340.5" font-family="Helvetica,sans-Serif" font-size="10.00">engine.actions.Initializable</text>
</a>
</g>
</g>
<!-- Node4&#45;&gt;Node2 -->
<g id="edge4" class="edge"><title>Node4&#45;&gt;Node2</title>
<path fill="none" stroke="midnightblue" d="M699.72,-354.317C782.419,-368.734 942.477,-386.009 1064,-334 1092.66,-321.732 1123.03,-302.511 1142.68,-289.142"/>
<polygon fill="midnightblue" stroke="midnightblue" points="700.245,-350.856 689.784,-352.534 699.008,-357.746 700.245,-350.856"/>
</g>
<!-- Node4&#45;&gt;Node3 -->
<g id="edge3" class="edge"><title>Node4&#45;&gt;Node3</title>
<path fill="none" stroke="midnightblue" d="M725.395,-341.24C768.535,-340.295 820.761,-339.151 860.093,-338.29"/>
<polygon fill="midnightblue" stroke="midnightblue" points="725.127,-337.744 715.206,-341.463 725.28,-344.743 725.127,-337.744"/>
</g>
<!-- Node5 -->
<g id="node5" class="node"><title>Node5</title>
<g id="a_node5"><a xlink:href="../../dd/d8d/classengine_1_1render_1_1_renderer.html" target="_top" xlink:title="engine.render.Renderer">
<polygon fill="white" stroke="black" points="856,-168.5 856,-187.5 984,-187.5 984,-168.5 856,-168.5"/>
<text text-anchor="middle" x="920" y="-175.5" font-family="Helvetica,sans-Serif" font-size="10.00">engine.render.Renderer</text>
</a>
</g>
</g>
<!-- Node5&#45;&gt;Node2 -->
<g id="edge5" class="edge"><title>Node5&#45;&gt;Node2</title>
<path fill="none" stroke="#9a32cd" stroke-dasharray="5,2" d="M964.126,-190.473C992.799,-199.179 1031.09,-211.603 1064,-225 1088.89,-235.132 1116.23,-248.707 1136.03,-258.999"/>
<polygon fill="#9a32cd" stroke="#9a32cd" points="964.995,-187.079 954.411,-187.553 962.98,-193.783 964.995,-187.079"/>
<text text-anchor="middle" x="1033" y="-228" font-family="Helvetica,sans-Serif" font-size="10.00"> myRenderer</text>
</g>
<!-- Node6 -->
<g id="node6" class="node"><title>Node6</title>
<polygon fill="white" stroke="#bfbfbf" points="562,-119 562,-149 726,-149 726,-119 562,-119"/>
<text text-anchor="start" x="570" y="-137" font-family="Helvetica,sans-Serif" font-size="10.00">Map&lt; Identifier, engine.render.</text>
<text text-anchor="middle" x="644" y="-126" font-family="Helvetica,sans-Serif" font-size="10.00">RenderedNode &gt;</text>
</g>
<!-- Node6&#45;&gt;Node5 -->
<g id="edge6" class="edge"><title>Node6&#45;&gt;Node5</title>
<path fill="none" stroke="#9a32cd" stroke-dasharray="5,2" d="M736.594,-147.112C768.701,-151.881 804.982,-157.464 838,-163 848.014,-164.679 858.704,-166.581 868.925,-168.452"/>
<polygon fill="#9a32cd" stroke="#9a32cd" points="736.73,-143.595 726.326,-145.594 735.706,-150.519 736.73,-143.595"/>
<text text-anchor="middle" x="791" y="-166" font-family="Helvetica,sans-Serif" font-size="10.00"> myRenderedNodes</text>
</g>
<!-- Node7 -->
<g id="node7" class="node"><title>Node7</title>
<g id="a_node7"><a xlink:href="../../d5/d30/classengine_1_1render_1_1_rendered_node_factory.html" target="_top" xlink:title="engine.render.RenderedNode\lFactory">
<polygon fill="white" stroke="black" points="566,-68 566,-98 722,-98 722,-68 566,-68"/>
<text text-anchor="start" x="574" y="-86" font-family="Helvetica,sans-Serif" font-size="10.00">engine.render.RenderedNode</text>
<text text-anchor="middle" x="644" y="-75" font-family="Helvetica,sans-Serif" font-size="10.00">Factory</text>
</a>
</g>
</g>
<!-- Node7&#45;&gt;Node5 -->
<g id="edge7" class="edge"><title>Node7&#45;&gt;Node5</title>
<path fill="none" stroke="#9a32cd" stroke-dasharray="5,2" d="M728.324,-100.4C762.864,-108.793 802.966,-120.089 838,-134 862.095,-143.568 888.132,-158.646 904.003,-168.429"/>
<polygon fill="#9a32cd" stroke="#9a32cd" points="728.807,-96.9176 718.268,-98.0003 727.182,-103.726 728.807,-96.9176"/>
<text text-anchor="middle" x="791" y="-137" font-family="Helvetica,sans-Serif" font-size="10.00"> myFactory</text>
</g>
<!-- Node8 -->
<g id="node8" class="node"><title>Node8</title>
<g id="a_node8"><a xlink:href="../../d9/db5/classengine_1_1_file_path_utility.html" target="_top" xlink:title="engine.FilePathUtility">
<polygon fill="white" stroke="black" points="267.5,-64.5 267.5,-83.5 382.5,-83.5 382.5,-64.5 267.5,-64.5"/>
<text text-anchor="middle" x="325" y="-71.5" font-family="Helvetica,sans-Serif" font-size="10.00">engine.FilePathUtility</text>
</a>
</g>
</g>
<!-- Node8&#45;&gt;Node7 -->
<g id="edge8" class="edge"><title>Node8&#45;&gt;Node7</title>
<path fill="none" stroke="#9a32cd" stroke-dasharray="5,2" d="M392.85,-75.8979C443.452,-77.3346 513.04,-79.3103 565.975,-80.8132"/>
<polygon fill="#9a32cd" stroke="#9a32cd" points="392.769,-72.3943 382.673,-75.609 392.57,-79.3915 392.769,-72.3943"/>
<text text-anchor="middle" x="485" y="-84" font-family="Helvetica,sans-Serif" font-size="10.00"> myFilePathUtility</text>
</g>
<!-- Node9 -->
<g id="node9" class="node"><title>Node9</title>
<g id="a_node9"><a xlink:href="../../df/d84/classengine_1_1level_1_1_level.html" target="_top" xlink:title="engine.level.Level">
<polygon fill="white" stroke="black" points="593.5,-206.5 593.5,-225.5 694.5,-225.5 694.5,-206.5 593.5,-206.5"/>
<text text-anchor="middle" x="644" y="-213.5" font-family="Helvetica,sans-Serif" font-size="10.00">engine.level.Level</text>
</a>
</g>
</g>
<!-- Node9&#45;&gt;Node2 -->
<g id="edge21" class="edge"><title>Node9&#45;&gt;Node2</title>
<path fill="none" stroke="#9a32cd" stroke-dasharray="5,2" d="M704.839,-222.687C797.731,-233.068 976.838,-253.084 1081.8,-264.813"/>
<polygon fill="#9a32cd" stroke="#9a32cd" points="705.091,-219.194 694.764,-221.561 704.313,-226.15 705.091,-219.194"/>
<text text-anchor="middle" x="920" y="-257" font-family="Helvetica,sans-Serif" font-size="10.00"> myCurrentLevel</text>
</g>
<!-- Node9&#45;&gt;Node5 -->
<g id="edge9" class="edge"><title>Node9&#45;&gt;Node5</title>
<path fill="none" stroke="#9a32cd" stroke-dasharray="5,2" d="M705.089,-209.271C743.225,-204.817 793.581,-198.597 838,-192 847.034,-190.658 856.614,-189.112 865.902,-187.548"/>
<polygon fill="#9a32cd" stroke="#9a32cd" points="704.202,-205.85 694.671,-210.479 705.008,-212.804 704.202,-205.85"/>
<text text-anchor="middle" x="791" y="-208" font-family="Helvetica,sans-Serif" font-size="10.00"> myCurrentLevel</text>
</g>
<!-- Node10 -->
<g id="node10" class="node"><title>Node10</title>
<g id="a_node10"><a xlink:href="../../d3/d8d/classdata_1_1_observable.html" target="_top" xlink:title="data.Observable">
<polygon fill="white" stroke="black" points="277.5,-102.5 277.5,-121.5 372.5,-121.5 372.5,-102.5 277.5,-102.5"/>
<text text-anchor="middle" x="325" y="-109.5" font-family="Helvetica,sans-Serif" font-size="10.00">data.Observable</text>
</a>
</g>
</g>
<!-- Node10&#45;&gt;Node9 -->
<g id="edge10" class="edge"><title>Node10&#45;&gt;Node9</title>
<path fill="none" stroke="midnightblue" d="M382.961,-110.492C430.761,-112.133 498.357,-121.602 544,-158 558.926,-169.902 547.209,-184.931 562,-197 570.953,-204.305 582.221,-208.9 593.482,-211.765"/>
<polygon fill="midnightblue" stroke="midnightblue" points="382.856,-106.988 372.775,-110.249 382.689,-113.986 382.856,-106.988"/>
</g>
<!-- Node11 -->
<g id="node11" class="node"><title>Node11</title>
<polygon fill="white" stroke="#bfbfbf" points="23,-0.5 23,-19.5 161,-19.5 161,-0.5 23,-0.5"/>
<text text-anchor="middle" x="92" y="-7.5" font-family="Helvetica,sans-Serif" font-size="10.00">Vector&lt; data.Observer &gt;</text>
</g>
<!-- Node11&#45;&gt;Node10 -->
<g id="edge11" class="edge"><title>Node11&#45;&gt;Node10</title>
<path fill="none" stroke="#9a32cd" stroke-dasharray="5,2" d="M115.524,-25.2061C143.882,-43.7105 194.632,-74.7386 242,-93 253.181,-97.3104 265.612,-100.809 277.346,-103.573"/>
<polygon fill="#9a32cd" stroke="#9a32cd" points="117.411,-22.2577 107.137,-19.6703 113.555,-28.1 117.411,-22.2577"/>
<text text-anchor="middle" x="213" y="-88" font-family="Helvetica,sans-Serif" font-size="10.00"> obs</text>
</g>
<!-- Node12 -->
<g id="node12" class="node"><title>Node12</title>
<g id="a_node12"><a xlink:href="../../dc/df6/interfaceengine_1_1game_object_1_1_identifiable.html" target="_top" xlink:title="engine.gameObject.Identifiable">
<polygon fill="white" stroke="black" points="242.5,-140.5 242.5,-159.5 407.5,-159.5 407.5,-140.5 242.5,-140.5"/>
<text text-anchor="middle" x="325" y="-147.5" font-family="Helvetica,sans-Serif" font-size="10.00">engine.gameObject.Identifiable</text>
</a>
</g>
</g>
<!-- Node12&#45;&gt;Node9 -->
<g id="edge12" class="edge"><title>Node12&#45;&gt;Node9</title>
<path fill="none" stroke="midnightblue" d="M417.764,-159.949C457.256,-165.771 503.55,-174.68 544,-188 552.496,-190.798 553.589,-193.958 562,-197 572.187,-200.684 583.358,-203.841 594.061,-206.462"/>
<polygon fill="midnightblue" stroke="midnightblue" points="418.008,-156.449 407.613,-158.499 417.017,-163.378 418.008,-156.449"/>
</g>
<!-- Node13 -->
<g id="node13" class="node"><title>Node13</title>
<g id="a_node13"><a xlink:href="../../d4/dac/classengine_1_1game_object_1_1_identifier.html" target="_top" xlink:title="engine.gameObject.Identifier">
<polygon fill="white" stroke="black" points="247.5,-178.5 247.5,-197.5 402.5,-197.5 402.5,-178.5 247.5,-178.5"/>
<text text-anchor="middle" x="325" y="-185.5" font-family="Helvetica,sans-Serif" font-size="10.00">engine.gameObject.Identifier</text>
</a>
</g>
</g>
<!-- Node13&#45;&gt;Node9 -->
<g id="edge13" class="edge"><title>Node13&#45;&gt;Node9</title>
<path fill="none" stroke="#9a32cd" stroke-dasharray="5,2" d="M412.586,-190.671C452.653,-192.444 500.834,-195.337 544,-200 560.098,-201.739 577.565,-204.326 593.282,-206.916"/>
<polygon fill="#9a32cd" stroke="#9a32cd" points="412.723,-187.174 402.583,-190.244 412.424,-194.168 412.723,-187.174"/>
<text text-anchor="middle" x="485" y="-203" font-family="Helvetica,sans-Serif" font-size="10.00"> myId</text>
</g>
<!-- Node14 -->
<g id="node14" class="node"><title>Node14</title>
<polygon fill="white" stroke="#bfbfbf" points="64,-79.5 64,-98.5 120,-98.5 120,-79.5 64,-79.5"/>
<text text-anchor="middle" x="92" y="-86.5" font-family="Helvetica,sans-Serif" font-size="10.00">Random</text>
</g>
<!-- Node14&#45;&gt;Node2 -->
<g id="edge20" class="edge"><title>Node14&#45;&gt;Node2</title>
<path fill="none" stroke="#9a32cd" stroke-dasharray="5,2" d="M127.354,-76.004C171.989,-60.3124 252.658,-36 324,-36 324,-36 324,-36 921,-36 1048.85,-36 1134.25,-206.221 1157.56,-258.75"/>
<polygon fill="#9a32cd" stroke="#9a32cd" points="126.099,-72.7356 117.865,-79.4021 128.459,-79.3258 126.099,-72.7356"/>
<text text-anchor="middle" x="644" y="-39" font-family="Helvetica,sans-Serif" font-size="10.00"> r</text>
</g>
<!-- Node14&#45;&gt;Node13 -->
<g id="edge14" class="edge"><title>Node14&#45;&gt;Node13</title>
<path fill="none" stroke="#9a32cd" stroke-dasharray="5,2" d="M116.061,-103.892C144.589,-121.713 195.141,-151.351 242,-169 251.846,-172.709 262.64,-175.834 273.07,-178.411"/>
<polygon fill="#9a32cd" stroke="#9a32cd" points="117.929,-100.932 107.605,-98.5516 114.191,-106.851 117.929,-100.932"/>
<text text-anchor="middle" x="213" y="-164" font-family="Helvetica,sans-Serif" font-size="10.00"> r</text>
</g>
<!-- Node15 -->
<g id="node15" class="node"><title>Node15</title>
<g id="a_node15"><a xlink:href="../../d1/d32/classauthoring_1_1model_1_1collections_1_1_game_objects_collection.html" target="_top" xlink:title="authoring.model.collections.\lGameObjectsCollection">
<polygon fill="white" stroke="black" points="249,-275 249,-305 401,-305 401,-275 249,-275"/>
<text text-anchor="start" x="257" y="-293" font-family="Helvetica,sans-Serif" font-size="10.00">authoring.model.collections.</text>
<text text-anchor="middle" x="325" y="-282" font-family="Helvetica,sans-Serif" font-size="10.00">GameObjectsCollection</text>
</a>
</g>
</g>
<!-- Node15&#45;&gt;Node2 -->
<g id="edge19" class="edge"><title>Node15&#45;&gt;Node2</title>
<path fill="none" stroke="#9a32cd" stroke-dasharray="5,2" d="M411.488,-288.368C573.301,-285.278 922.375,-278.613 1081.7,-275.571"/>
<polygon fill="#9a32cd" stroke="#9a32cd" points="411.036,-284.876 401.104,-288.566 411.169,-291.874 411.036,-284.876"/>
<text text-anchor="middle" x="791" y="-285" font-family="Helvetica,sans-Serif" font-size="10.00"> myMasterList</text>
</g>
<!-- Node15&#45;&gt;Node9 -->
<g id="edge15" class="edge"><title>Node15&#45;&gt;Node9</title>
<path fill="none" stroke="#9a32cd" stroke-dasharray="5,2" d="M388.751,-272.325C401.061,-269.065 413.906,-265.808 426,-263 478.047,-250.917 491.801,-251.408 544,-240 564.387,-235.544 587.014,-230.097 605.484,-225.519"/>
<polygon fill="#9a32cd" stroke="#9a32cd" points="387.772,-268.964 379.018,-274.931 389.583,-275.725 387.772,-268.964"/>
<text text-anchor="middle" x="485" y="-277" font-family="Helvetica,sans-Serif" font-size="10.00"> myDefaultGameObjects</text>
<text text-anchor="middle" x="485" y="-266" font-family="Helvetica,sans-Serif" font-size="10.00">myWorkingGameObjects</text>
</g>
<!-- Node16 -->
<g id="node16" class="node"><title>Node16</title>
<g id="a_node16"><a xlink:href="../../d4/d3b/classauthoring_1_1model_1_1collections_1_1_general_collection.html" target="_top" xlink:title="authoring.model.collections.\lGeneralCollection\&lt; GameObject \&gt;">
<polygon fill="white" stroke="black" points="0.5,-275 0.5,-305 183.5,-305 183.5,-275 0.5,-275"/>
<text text-anchor="start" x="8.5" y="-293" font-family="Helvetica,sans-Serif" font-size="10.00">authoring.model.collections.</text>
<text text-anchor="middle" x="92" y="-282" font-family="Helvetica,sans-Serif" font-size="10.00">GeneralCollection&lt; GameObject &gt;</text>
</a>
</g>
</g>
<!-- Node16&#45;&gt;Node15 -->
<g id="edge16" class="edge"><title>Node16&#45;&gt;Node15</title>
<path fill="none" stroke="midnightblue" d="M193.843,-290C212.335,-290 231.337,-290 248.91,-290"/>
<polygon fill="midnightblue" stroke="midnightblue" points="193.634,-286.5 183.634,-290 193.634,-293.5 193.634,-286.5"/>
</g>
<!-- Node17 -->
<g id="node17" class="node"><title>Node17</title>
<polygon fill="white" stroke="#bfbfbf" points="254.5,-217 254.5,-247 395.5,-247 395.5,-217 254.5,-217"/>
<text text-anchor="start" x="262.5" y="-235" font-family="Helvetica,sans-Serif" font-size="10.00">List&lt; engine.gameObject.</text>
<text text-anchor="middle" x="325" y="-224" font-family="Helvetica,sans-Serif" font-size="10.00">Identifier &gt;</text>
</g>
<!-- Node17&#45;&gt;Node9 -->
<g id="edge17" class="edge"><title>Node17&#45;&gt;Node9</title>
<path fill="none" stroke="#9a32cd" stroke-dasharray="5,2" d="M405.613,-219.905C412.496,-219.148 419.364,-218.493 426,-218 483.297,-213.743 549.335,-213.848 593.367,-214.629"/>
<polygon fill="#9a32cd" stroke="#9a32cd" points="405.068,-216.445 395.541,-221.082 405.88,-223.398 405.068,-216.445"/>
<text text-anchor="middle" x="485" y="-232" font-family="Helvetica,sans-Serif" font-size="10.00"> myConditionIdList</text>
<text text-anchor="middle" x="485" y="-221" font-family="Helvetica,sans-Serif" font-size="10.00">myGameObjectIdList</text>
</g>
<!-- Node18 -->
<g id="node18" class="node"><title>Node18</title>
<polygon fill="white" stroke="#bfbfbf" points="621,-168.5 621,-187.5 667,-187.5 667,-168.5 621,-168.5"/>
<text text-anchor="middle" x="644" y="-175.5" font-family="Helvetica,sans-Serif" font-size="10.00">Group</text>
</g>
<!-- Node18&#45;&gt;Node5 -->
<g id="edge18" class="edge"><title>Node18&#45;&gt;Node5</title>
<path fill="none" stroke="#9a32cd" stroke-dasharray="5,2" d="M677.505,-178C721.29,-178 800.135,-178 855.804,-178"/>
<polygon fill="#9a32cd" stroke="#9a32cd" points="677.423,-174.5 667.423,-178 677.423,-181.5 677.423,-174.5"/>
<text text-anchor="middle" x="791" y="-181" font-family="Helvetica,sans-Serif" font-size="10.00"> myCanvas</text>
</g>
</g>
</svg>
